<svg width="26" height="20" viewBox="0 0 26 20" fill="none" xmlns="http://www.w3.org/2000/svg">
<path fill-rule="evenodd" clip-rule="evenodd" d="M15.0122 1C16.1699 1.44249 17.1345 2.07463 17.842 3.08604L14.6907 5.10887C15.1409 6.24671 15.784 7.25812 16.6844 8.07989L18.4851 7.32133C18.6781 6.75241 18.7424 6.12028 18.6137 5.29851L23.8231 1.31607C25.2379 4.66637 26.5885 8.83846 20.1572 12.1888H16.0412C15.3338 12.8841 14.8193 13.7059 14.4977 14.5277C15.2695 15.2862 16.62 16.1712 17.5847 16.6769C14.9479 19.7744 11.0248 19.7744 8.38802 16.6769C9.35271 16.1712 10.7033 15.2862 11.475 14.5277C11.1535 13.6427 10.639 12.8841 9.93153 12.1888H5.81552C-0.615748 8.77524 0.799131 4.60316 2.1497 1.31607L7.55196 5.36172C7.42333 6.18349 7.48765 6.81563 7.68059 7.38455L9.48134 8.14311C10.3817 7.32133 11.0248 6.30992 11.475 5.17208L8.32371 3.14925C9.03115 2.13784 9.99584 1.50571 11.1535 1.06321L13.0828 2.76997L15.0122 1Z" stroke="#2A3338" stroke-width="2" stroke-miterlimit="22.9256" stroke-linecap="round" stroke-linejoin="round"/>
</svg>
