<svg width="24" height="22" viewBox="0 0 24 22" fill="none" xmlns="http://www.w3.org/2000/svg">
<path d="M21.0869 21H2.91304C1.86087 21 1 20.1 1 19V5.99999C1 4.9 1.86087 4 2.91304 4H21.0869C22.1391 4 23 4.9 23 5.99999V19C23 20.1 22.1391 21 21.0869 21Z" stroke="#2A3338" stroke-width="2" stroke-miterlimit="10" stroke-linecap="round" stroke-linejoin="round"/>
<path d="M23 6L21.4313 7.69004C20.5417 8.63999 19.4417 9.35001 18.2269 9.74998L14.5385 11M9.46154 11L5.75388 9.74001C4.5391 9.34003 3.43913 8.63001 2.54956 7.67002L1 6" stroke="#2A3338" stroke-width="2" stroke-miterlimit="10" stroke-linecap="round" stroke-linejoin="round"/>
<path d="M15.1111 1H8.88887C8.4 1 8 1.3375 8 1.75V4H16V1.75C16 1.3375 15.6 1 15.1111 1Z" stroke="#2A3338" stroke-width="2" stroke-miterlimit="10" stroke-linecap="round" stroke-linejoin="round"/>
<path d="M13.2 13H10.8C10.36 13 10 12.6625 10 12.25V10.75C10 10.3375 10.36 10 10.8 10H13.2C13.64 10 14 10.3375 14 10.75V12.25C14 12.6625 13.64 13 13.2 13Z" stroke="#2A3338" stroke-width="2" stroke-miterlimit="10" stroke-linecap="round" stroke-linejoin="round"/>
</svg>
