<svg width="16" height="16" viewBox="0 0 16 16" fill="none" xmlns="http://www.w3.org/2000/svg">
<path d="M15.4559 4.9208C15.4475 4.28965 15.3293 3.66478 15.1067 3.07413C14.9137 2.57592 14.6188 2.12346 14.241 1.74566C13.8632 1.36785 13.4108 1.07301 12.9126 0.879964C12.3295 0.661095 11.7135 0.542749 11.0909 0.529964C10.2892 0.494131 10.0351 0.484131 8.00006 0.484131C5.96506 0.484131 5.70423 0.484131 4.90839 0.529964C4.28602 0.542843 3.67035 0.661188 3.08756 0.879964C2.58927 1.07287 2.13674 1.36767 1.75892 1.74549C1.3811 2.12331 1.0863 2.57585 0.893392 3.07413C0.674084 3.65674 0.555995 4.27256 0.544225 4.89496C0.508392 5.69746 0.497559 5.95163 0.497559 7.98663C0.497559 10.0216 0.497559 10.2816 0.544225 11.0783C0.556725 11.7016 0.674225 12.3166 0.893392 12.9008C1.08662 13.3989 1.38164 13.8513 1.75959 14.2289C2.13754 14.6066 2.59011 14.9013 3.08839 15.0941C3.66959 15.3218 4.28537 15.4486 4.90923 15.4691C5.71173 15.505 5.96589 15.5158 8.00089 15.5158C10.0359 15.5158 10.2967 15.5158 11.0926 15.4691C11.7152 15.4569 12.3312 15.3388 12.9142 15.12C13.4123 14.9267 13.8646 14.6318 14.2424 14.254C14.6202 13.8762 14.9151 13.4239 15.1084 12.9258C15.3276 12.3425 15.4451 11.7275 15.4576 11.1033C15.4934 10.3016 15.5042 10.0475 15.5042 8.01163C15.5026 5.97663 15.5026 5.7183 15.4559 4.9208ZM7.99506 11.835C5.86673 11.835 4.14256 10.1108 4.14256 7.98246C4.14256 5.85413 5.86673 4.12996 7.99506 4.12996C9.01681 4.12996 9.9967 4.53585 10.7192 5.25834C11.4417 5.98082 11.8476 6.96072 11.8476 7.98246C11.8476 9.00421 11.4417 9.98411 10.7192 10.7066C9.9967 11.4291 9.01681 11.835 7.99506 11.835ZM12.0009 4.8858C11.5034 4.8858 11.1026 4.48413 11.1026 3.98746C11.1026 3.86955 11.1258 3.75279 11.1709 3.64385C11.216 3.53491 11.2822 3.43592 11.3656 3.35254C11.4489 3.26916 11.5479 3.20302 11.6569 3.1579C11.7658 3.11277 11.8826 3.08955 12.0005 3.08955C12.1184 3.08955 12.2352 3.11277 12.3441 3.1579C12.453 3.20302 12.552 3.26916 12.6354 3.35254C12.7188 3.43592 12.7849 3.53491 12.83 3.64385C12.8752 3.75279 12.8984 3.86955 12.8984 3.98746C12.8984 4.48413 12.4967 4.8858 12.0009 4.8858Z" fill="white"/>
</svg>
