<svg width="148" height="35" viewBox="0 0 148 35" fill="none" xmlns="http://www.w3.org/2000/svg">
<path fill-rule="evenodd" clip-rule="evenodd" d="M23.9659 11.753C23.4187 11.2755 22.6318 11.2864 22.1803 11.4251C22.4761 11.0636 23.1649 10.7671 23.368 10.7312C23.5226 10.7889 23.9658 11.2423 23.9658 11.7529L23.9659 11.753ZM25.7129 9.77562C25.3531 7.85954 20.8796 9.12911 18.6267 8.31524C18.5835 8.87384 19.3202 9.76879 20.025 10.1001C18.8204 11.1407 17.7389 13.2374 17.5207 15.7989C17.3031 13.2374 16.2216 11.1407 15.017 10.1001C15.7217 9.76879 16.459 8.87384 16.4153 8.31524C14.1625 9.12911 9.68882 7.85954 9.32838 9.77562C9.25255 10.1812 9.44855 10.7992 9.66035 10.9768C9.69815 10.8483 9.89596 10.4279 10.5195 10.3336C13.6713 9.85962 16.3027 14.6949 13.9274 16.6499C13.8913 16.6795 13.9116 16.7345 13.9606 16.7345H21.0818C21.1303 16.7345 21.1507 16.6795 21.1152 16.6499C18.7392 14.6949 21.3707 9.85962 24.5224 10.3336C25.1466 10.4279 25.3437 10.8483 25.3816 10.9768C25.5934 10.7992 25.7894 10.1811 25.7129 9.77556V9.77562ZM26.4795 5.37787C26.423 5.19686 28.2709 5.19237 28.2709 6.34369C28.2709 7.11533 27.1655 7.48084 27.1655 8.28158C27.1655 8.65451 27.5686 8.92809 27.6923 8.92809C27.4076 7.64248 28.5849 8.31524 28.9027 8.55569C28.271 6.82681 29.6932 6.83772 29.5532 6.04502C29.4557 5.49097 28.2196 5.65833 27.7722 5.37787C26.9783 4.88046 26.0392 2.94484 25.4203 4.88046C26.5741 5.94679 25.9027 7.51625 24.4379 7.51625C24.4379 7.51625 24.4297 7.74637 24.4431 7.76463C26.1903 7.67952 26.7993 6.40144 26.4795 5.37787H26.4795ZM6.09671 8.55569C6.41469 8.31524 7.5918 7.64248 7.30777 8.92809C7.4308 8.92809 7.83388 8.65451 7.83388 8.28158C7.83388 7.48084 6.72846 7.11533 6.72846 6.34369C6.72846 5.19231 8.57652 5.19686 8.51988 5.37787C8.2008 6.40138 8.80991 7.67958 10.5569 7.76463C10.5697 7.74637 10.5615 7.51625 10.5615 7.51625C9.09738 7.51625 8.42596 5.94673 9.57927 4.88046C8.9603 2.94484 8.02113 4.88046 7.22727 5.37787C6.77985 5.65839 5.54377 5.49097 5.4463 6.04502C5.30682 6.83772 6.7284 6.82687 6.09665 8.55569H6.09671ZM11.0574 11.7529C11.6051 11.2754 12.392 11.2863 12.843 11.425C12.5484 11.0635 11.8584 10.767 11.6559 10.7311C11.5013 10.7888 11.0574 11.2423 11.0574 11.7529L11.0574 11.7529ZM18.352 1.03431L17.4997 0L16.6475 1.03431L17.4998 2.12292L18.352 1.03431H18.352ZM23.217 4.16197L22.6109 3.42685L22.0054 4.16197L22.6109 4.8804L23.217 4.16191V4.16197ZM28.1327 25.4094L27.3645 24.6L26.5961 25.4094L27.3645 26.1193L28.1327 25.4092V25.4094ZM12.9946 4.16185L12.3885 3.42673L11.783 4.16185L12.3885 4.88034L12.9946 4.16185H12.9946ZM11.2586 7.76457H13.519C15.4195 7.76457 16.2747 6.60345 16.5331 5.5965H18.4669C18.7253 6.60351 19.5798 7.76463 21.481 7.76463H23.7414C23.7414 7.76463 24.1368 7.23059 24.2359 6.96623C24.593 6.01463 24.1368 5.57083 23.4712 5.57083L22.6108 6.34707L21.7503 5.57083C21.0848 5.57083 20.6287 6.01463 20.9857 6.96623C21.0312 7.08791 21.1403 7.26658 21.2435 7.42362C20.4413 7.31395 19.4177 6.76743 19.193 5.5965C19.193 5.5965 19.7857 4.65932 19.9345 4.28009C20.4688 2.91632 19.7863 2.35877 18.7882 2.35877L17.4997 3.86663L16.2111 2.35877C15.213 2.35877 14.5305 2.91626 15.0655 4.28009C15.2137 4.65937 15.8069 5.59656 15.8069 5.59656C15.5818 6.76748 14.558 7.31401 13.7559 7.42367C13.8598 7.26664 13.9683 7.08791 14.0138 6.96623C14.3701 6.01469 13.9152 5.57089 13.249 5.57089L12.3886 6.34713L11.5282 5.57089C10.8621 5.57089 10.407 6.01469 10.7635 6.96623C10.8627 7.23065 11.2587 7.76463 11.2587 7.76463L11.2586 7.76457ZM34.6287 14.7393C34.1922 14.9592 31.6326 16.1529 28.3537 15.7114C28.3877 15.5557 28.4164 15.3989 28.4401 15.2413C30.6223 14.9815 32.3962 14.6131 33.5267 13.9871C34.8153 13.2732 35.3788 11.569 34.7283 10.301C34.7115 10.2691 34.6649 10.2633 34.6415 10.2901C34.2851 10.6985 32.0439 13.1253 28.513 13.8797C28.504 13.6977 28.4873 13.5161 28.4629 13.3355C30.1778 12.3673 31.852 11.2519 32.6495 10.2319C33.8547 8.68974 33.7437 6.7228 32.597 5.71987C32.5851 5.70967 32.5694 5.70512 32.5538 5.70733C32.5383 5.70949 32.5244 5.71824 32.5158 5.73131C32.153 6.32695 28.7569 11.791 25.0283 14.1498C24.9828 14.1788 24.9369 14.2072 24.8907 14.235C24.7839 14.2995 24.7722 14.4377 24.8632 14.5199C25.293 14.9077 25.5603 15.4475 25.5603 16.0466C25.5603 17.0883 24.7535 17.9547 23.6872 18.1427C23.1452 18.2471 22.3629 18.2169 21.6116 17.9696C21.5778 17.9587 21.5428 17.981 21.5428 18.0147V21.3142C21.5428 21.3673 21.6239 21.3804 21.6431 21.3295C22.0998 20.1251 23.4672 19.8691 24.0651 19.8691C24.2804 21.1565 24.6647 22.2228 25.1641 22.7968C25.9772 23.7295 27.3049 23.7164 27.8807 23.0715C27.8902 23.0609 27.8942 23.0464 27.8917 23.0324C27.8892 23.0184 27.8804 23.0063 27.8678 22.9995C27.5295 22.806 25.594 21.6232 25.2066 19.6847C25.3595 19.6321 25.5088 19.5727 25.6517 19.5024C26.2765 20.5317 27.1859 21.4483 27.9179 21.7985C29.1476 22.3857 30.2734 22.1 30.7728 21.2405C30.7909 21.2102 30.7687 21.1725 30.7319 21.1691C29.9713 21.1086 27.6368 20.4426 26.6428 18.82C26.7566 18.716 26.868 18.6075 26.9718 18.4921C28.0118 19.2803 29.4825 19.9771 30.5355 20.1193C31.7674 20.2861 33.1633 19.8948 33.1972 18.4687C33.1977 18.4401 33.1721 18.4167 33.1418 18.4185C32.7036 18.4447 29.8039 18.5704 27.7377 17.3898C27.8095 17.254 27.8765 17.1156 27.9384 16.9751C27.9384 16.9751 31.0605 17.7097 32.5397 17.4663C34.0098 17.2248 34.8708 16.1339 34.7045 14.7769C34.6999 14.7431 34.6602 14.7232 34.6287 14.7391L34.6287 14.7393ZM7.0609 16.9753C7.12303 17.1158 7.19017 17.2541 7.2621 17.3899C5.19657 18.5699 2.29799 18.4454 1.85821 18.4187C1.8273 18.4169 1.80163 18.4414 1.80216 18.4694C1.83669 19.895 3.23202 20.2862 4.4639 20.1195C5.51635 19.9772 6.98752 19.2804 8.02755 18.4923C8.13196 18.6076 8.24286 18.7161 8.35649 18.8201C7.36196 20.4426 5.02805 21.1086 4.26738 21.1692C4.23063 21.1726 4.20905 21.2102 4.2266 21.2406C4.72594 22.1001 5.85177 22.3856 7.08202 21.7985C7.81358 21.4484 8.72294 20.5318 9.34775 19.5026C9.49113 19.5728 9.64046 19.6322 9.79271 19.6848C9.40538 21.6232 7.46994 22.8061 7.13155 22.9996C7.11906 23.0064 7.11031 23.0186 7.10786 23.0325C7.10535 23.0465 7.10932 23.0609 7.11871 23.0716C7.69446 23.7164 9.02277 23.7295 9.83582 22.7969C10.3353 22.2228 10.719 21.1566 10.9343 19.8692C11.5327 19.8692 12.8995 20.1252 13.3562 21.3296C13.3761 21.3804 13.4571 21.3673 13.4571 21.3142V18.0147C13.4571 17.981 13.4216 17.9588 13.3877 17.9696C12.6365 18.2169 11.8542 18.2472 11.3129 18.1427C10.246 17.9548 9.43921 17.0884 9.43921 16.0466C9.43921 15.4474 9.7069 14.9071 10.1362 14.5193C10.2278 14.4376 10.2156 14.2994 10.1094 14.2349C10.0628 14.2071 10.0165 14.1787 9.97057 14.1497C6.24424 11.7922 2.84982 6.33208 2.48407 5.73236C2.4671 5.70436 2.42626 5.6987 2.40118 5.72034C1.2561 6.72385 1.14468 8.69021 2.34985 10.2318C3.14732 11.2517 4.82137 12.3672 6.53585 13.3353C6.5117 13.516 6.49513 13.6975 6.48632 13.8795C2.95832 13.1257 0.718906 10.7028 0.358931 10.2917C0.335072 10.2637 0.287123 10.2694 0.270848 10.3014C-0.378285 11.5699 0.185156 13.273 1.47263 13.987C2.60313 14.6129 4.37699 14.9813 6.5593 15.2412C6.58286 15.3988 6.61162 15.5555 6.64557 15.7112C3.37015 16.1521 0.811656 14.9614 0.371823 14.7397C0.339156 14.7232 0.299489 14.7437 0.295406 14.778C0.129856 16.1351 0.990156 17.2248 2.46016 17.4663C3.93891 17.7097 7.0609 16.9751 7.0609 16.9751V16.9753ZM27.3644 27.1616L26.2269 26.2706C25.7731 26.5396 25.4394 26.9669 25.3099 27.4678C24.6256 27.5631 22.7601 27.1508 22.9415 26.8773C24.9861 24.0147 23.4221 22.3104 21.5427 22.4052V24.3277C21.5427 24.9451 21.0013 25.4454 20.3346 25.4454H19.0367C18.1057 25.4454 17.4997 26.3769 17.4997 26.3769C17.4997 26.3769 16.8936 25.4454 15.9626 25.4454H14.6647C13.9975 25.4454 13.4573 24.9451 13.4573 24.3277V22.4052C11.5778 22.3105 10.0126 24.0148 12.0579 26.8773C12.2375 27.148 10.3201 27.5816 9.42066 27.4718C9.18377 27.2274 8.84188 27.0732 8.45921 27.0732C8.29652 27.0733 8.13517 27.1021 7.98263 27.1583C7.98263 27.1583 4.44827 23.8274 4.38352 23.7949L4.41269 23.7274C4.61394 23.3528 4.30594 22.9444 4.11116 22.9731C4.33744 22.7029 4.348 21.52 3.09266 21.2465C3.12936 21.484 3.14802 21.969 3.14802 21.969C3.14802 21.969 2.17916 21.4475 1.69261 21.8975C1.26508 22.4013 1.85839 23.3151 1.85839 23.3151C1.85839 23.3151 1.3625 23.3271 1.11814 23.3066C1.47747 24.5162 2.68264 24.4305 2.94339 24.1918C2.92641 24.3843 3.36228 24.6584 3.73147 24.4385L3.89364 24.3603C3.92222 24.3985 7.36447 27.6358 7.36447 27.6358C7.20639 27.8694 7.13114 28.1561 7.183 28.4616C7.26472 28.9392 7.66436 29.335 8.17478 29.4377C8.53522 29.5097 8.87414 29.44 9.14597 29.2818L10.0571 30.1237C10.1383 30.1968 10.2479 30.2424 10.3704 30.2339C10.5932 30.2191 10.7601 30.0391 10.7432 29.833C10.7361 29.7399 10.6884 29.66 10.6224 29.5994C10.6078 29.5833 9.69431 28.7392 9.69431 28.7392C10.4479 28.2131 11.852 27.8426 13.0175 27.8426C13.2222 27.8426 13.3184 27.6701 13.2479 27.501C12.7199 26.237 13.8552 25.3216 15.0294 26.0669C15.5416 26.3919 16.062 27.0321 16.454 28.1001C14.5272 28.5645 12.1081 29.8437 11.6187 31.2402C11.4303 31.7795 12.0527 32.5145 12.8087 32.6625C12.8221 32.6654 12.8361 32.6629 12.8476 32.6555C12.8591 32.6481 12.8672 32.6363 12.87 32.623C13.2649 30.5383 15.5171 28.9847 16.6891 28.7209C16.748 28.8779 16.7287 28.8271 16.7876 28.9836C15.5113 29.5845 14.2735 30.8518 13.92 32.3584C13.7578 33.0484 14.5307 33.6703 15.1689 33.8406C15.2009 33.8491 15.2325 33.8269 15.2342 33.7961C15.3556 31.8907 16.2008 30.2727 16.9579 29.5365C16.9786 29.6804 16.9943 29.825 17.0046 29.97C17.0046 29.97 16.2294 32.1203 16.2294 33.6892C16.2294 34.4191 17.3191 34.9286 17.4801 35C17.6812 34.9286 18.7704 34.4191 18.7704 33.6892C18.7704 32.1203 17.9951 29.97 17.9951 29.97C18.0057 29.825 18.0214 29.6804 18.0424 29.5365C18.799 30.2727 19.6447 31.8901 19.7656 33.7954C19.7673 33.8263 19.7994 33.8491 19.8308 33.8406C20.4696 33.6704 21.242 33.0485 21.0803 32.3586C20.7262 30.8519 19.489 29.5846 18.2126 28.9837C18.2709 28.8272 18.2517 28.878 18.3107 28.7209C19.4832 28.9848 21.7348 30.5383 22.1297 32.6229C22.1326 32.6363 22.1407 32.6479 22.1522 32.6553C22.1637 32.6628 22.1777 32.6653 22.1911 32.6624C22.9464 32.5145 23.57 31.7794 23.3804 31.2403C22.8922 29.8438 20.4725 28.5646 18.5458 28.1002C18.9383 27.0321 19.4587 26.3919 19.9708 26.0669C21.1445 25.3216 22.2797 26.2372 21.7517 27.5011C21.6811 27.6701 21.7768 27.8426 21.9822 27.8426C23.3004 27.8426 24.9244 28.3166 25.5672 28.9523C25.9779 29.5657 26.7368 29.9581 27.5932 29.8741C28.5661 29.7793 29.3595 29.0516 29.4692 28.1522C29.5648 27.364 29.1554 26.6563 28.5026 26.2708L27.3645 27.1618L27.3644 27.1616ZM18.9801 21.4199C19.3856 21.2703 20.0208 21.3914 19.9992 21.9739C19.994 22.1058 20.1801 22.1058 20.1935 21.971C20.3148 21.0989 19.7227 20.8476 19.1032 20.9498C19.0263 20.6499 18.9633 20.3878 18.8915 20.128C18.8344 19.9179 18.8133 19.5231 19.0578 19.5231C19.1897 19.5231 19.1366 19.8904 19.1244 20.0485C19.1132 20.1874 19.1634 20.2713 19.2766 20.2753C19.3472 20.2781 19.4353 20.1885 19.4878 20.129C19.8425 19.7298 19.9247 19.1119 19.5094 18.8138C19.1618 18.5636 18.2914 18.7498 18.0522 19.1061C18.0161 18.9719 17.8434 18.7504 17.7605 18.6538C17.6801 18.5596 17.6591 18.495 17.7705 18.4123C17.823 18.3723 17.9817 18.2153 17.9817 18.053C17.9817 17.9571 17.907 17.78 17.6696 17.78C17.4823 17.78 17.2741 17.9091 17.2741 18.1969C17.2741 18.261 17.2898 18.3296 17.3312 18.4032C17.2128 18.3837 16.8914 18.3917 16.7263 18.4323L19.0089 24.6674C19.6622 24.3464 20.1412 23.8381 20.1412 23.2927C20.1412 22.8278 19.4533 22.982 19.1191 23.3447C19.0118 22.7553 18.9161 22.211 18.8117 21.6683C18.7832 21.5187 18.8596 21.465 18.9803 21.4199L18.9801 21.4199ZM15.7526 17.1844L16.2321 18.5106C15.8215 18.6077 15.1611 18.9058 15.1611 19.3004C15.1611 19.8259 16.095 20.168 16.6352 20.1269C16.6083 20.2468 16.6393 20.3536 16.7233 20.4513C16.5273 20.4513 16.1575 20.5421 16.0361 20.6723C15.7497 20.4067 15.3017 20.3102 15.0887 20.4718C14.8747 20.6346 14.8684 20.9105 15.0917 21.2223C15.2474 21.4382 15.3058 21.6513 15.1308 21.9014C15.7818 21.9014 15.542 21.059 15.797 21.059C15.7637 21.2223 15.7841 21.4114 15.8582 21.621C15.9073 21.7603 15.9073 21.8591 15.8233 21.9934C15.6133 22.3275 15.2866 23.095 15.3309 23.789C15.1174 23.7878 15.0089 23.7358 15.0842 23.4457C15.1122 23.3377 15.0451 23.2606 14.9565 23.3938C14.8584 23.5405 14.8112 23.7913 14.8112 23.8985C14.8112 24.5166 15.5508 24.641 15.8331 24.5103C16.6499 25.297 18.254 25.0872 18.7913 24.8233L15.9668 17.1089C15.909 16.9633 15.702 17.0329 15.7527 17.1843L15.7526 17.1844ZM15.6546 23.5388C15.5962 23.2212 16.0402 22.6536 16.6048 22.1059C16.4847 22.4628 16.5593 23.0779 16.795 23.2898C16.3854 23.2898 15.899 23.3664 15.6546 23.5388H15.6546Z" fill="#2A3338"/>
<path d="M46.0558 19.4712V25.3261H44.0742V10.3704H49.6159C51.2603 10.3704 52.5466 10.7881 53.4754 11.6236C54.4112 12.459 54.8791 13.5649 54.8791 14.9413C54.8791 16.3931 54.4217 17.5127 53.5065 18.3002C52.5983 19.0808 51.2949 19.4712 49.5953 19.4712H46.0558ZM46.0558 17.8585H49.6159C50.6756 17.8585 51.4875 17.612 52.0517 17.1189C52.6159 16.619 52.8977 15.9 52.8977 14.9619C52.8977 14.0716 52.6159 13.3595 52.0517 12.8253C51.4875 12.2912 50.7131 12.0139 49.7298 11.9933H46.0558V17.8585ZM56.4577 19.6664C56.4577 18.5775 56.6714 17.5983 57.0977 16.7286C57.5315 15.8589 58.1297 15.1879 58.8935 14.7153C59.6638 14.2428 60.5415 14.0066 61.5249 14.0066C63.0454 14.0066 64.2736 14.5305 65.2094 15.5782C66.1516 16.6259 66.6231 18.0194 66.6231 19.7588V19.8923C66.6231 20.9742 66.4129 21.9467 65.9937 22.8095C65.581 23.6655 64.9857 24.3331 64.2084 24.8125C63.4376 25.2918 62.5499 25.5315 61.5454 25.5315C60.0319 25.5315 58.8043 25.0077 57.8615 23.9599C56.9256 22.9122 56.4577 21.5255 56.4577 19.7999V19.6664ZM58.3775 19.8923C58.3775 21.1249 58.6628 22.1144 59.2341 22.8608C59.8117 23.6073 60.5826 23.9805 61.5454 23.9805C62.5158 23.9805 63.2861 23.6038 63.8573 22.8506C64.4286 22.0905 64.7139 21.0291 64.7139 19.6664C64.7139 18.4474 64.4215 17.4613 63.8368 16.7081C63.2585 15.948 62.4883 15.5679 61.5249 15.5679C60.5826 15.5679 59.8223 15.9411 59.2446 16.6875C58.6663 17.4339 58.3775 18.5022 58.3775 19.8923ZM73.4961 23.9805C74.1771 23.9805 74.7724 23.775 75.2814 23.3642C75.7904 22.9533 76.0728 22.4397 76.1274 21.8234H77.9338C77.8992 22.4602 77.679 23.0663 77.2734 23.6415C76.8671 24.2167 76.3235 24.6755 75.6424 25.0179C74.9685 25.3603 74.2528 25.5315 73.4961 25.5315C71.9755 25.5315 70.7649 25.0282 69.8632 24.0216C68.9691 23.0081 68.5217 21.6248 68.5217 19.8718V19.5533C68.5217 18.4714 68.7213 17.5092 69.1205 16.667C69.5192 15.8247 70.0904 15.1707 70.8336 14.7051C71.5833 14.2394 72.4675 14.0066 73.4855 14.0066C74.7377 14.0066 75.7769 14.3798 76.6023 15.1262C77.4348 15.8726 77.8786 16.8416 77.9338 18.0331H76.1274C76.0728 17.3141 75.7974 16.7252 75.3019 16.2664C74.8135 15.8007 74.2082 15.5679 73.4855 15.5679C72.5156 15.5679 71.7624 15.9171 71.2258 16.6156C70.6957 17.3072 70.4309 18.3104 70.4309 19.6252V19.9848C70.4309 21.2653 70.6957 22.2514 71.2258 22.943C71.7554 23.6347 72.5121 23.9805 73.4961 23.9805ZM88.3774 15.7528H84.6313V25.3261H82.7221V15.7528H79.0481V14.212H88.3774V15.7528ZM94.0117 22.5424L96.6125 14.212H98.6555L94.1667 27.0414C93.4716 28.8904 92.3673 29.8148 90.8538 29.8148L90.4927 29.784L89.7806 29.6505V28.1097L90.2966 28.1508C90.9436 28.1508 91.4455 28.0207 91.8037 27.7605C92.1682 27.5003 92.4671 27.0243 92.7013 26.3327L93.1246 25.2028L89.1406 14.212H91.2254L94.0117 22.5424ZM109.801 19.8923C109.801 21.5837 109.413 22.9464 108.635 23.9805C107.857 25.0145 106.805 25.5315 105.477 25.5315C104.122 25.5315 103.056 25.1035 102.278 24.2475V29.5991H100.369V14.212H102.113L102.206 15.4446C102.983 14.4859 104.063 14.0066 105.446 14.0066C106.788 14.0066 107.847 14.5099 108.625 15.5165C109.409 16.5231 109.801 17.9235 109.801 19.7177V19.8923ZM107.892 19.6766C107.892 18.4234 107.624 17.4339 107.087 16.7081C106.551 15.9822 105.814 15.6193 104.879 15.6193C103.723 15.6193 102.856 16.1294 102.278 17.1497V22.4602C102.849 23.4737 103.723 23.9805 104.899 23.9805C105.814 23.9805 106.54 23.6209 107.077 22.902C107.62 22.1761 107.892 21.1009 107.892 19.6766ZM119.461 14.212H121.37V25.3261H119.461V17.2217L114.311 25.3261H112.401V14.212H114.311V22.3267L119.461 14.212ZM130.575 17.2525C130.575 16.7321 130.376 16.3211 129.976 16.0198C129.577 15.7117 129.031 15.5576 128.335 15.5576C127.662 15.5576 127.097 15.7322 126.643 16.0815C126.196 16.4307 125.972 16.8416 125.972 17.3141H124.073C124.073 16.3485 124.48 15.5576 125.291 14.9413C126.103 14.325 127.118 14.0169 128.335 14.0169C129.643 14.0169 130.661 14.2977 131.39 14.8592C132.119 15.4138 132.484 16.2082 132.484 17.2422C132.484 17.7421 132.333 18.2009 132.03 18.6186C131.727 19.0363 131.297 19.3685 130.74 19.615C132.041 20.0533 132.69 20.916 132.69 22.2034C132.69 23.2238 132.295 24.0319 131.504 24.6276C130.713 25.2233 129.656 25.5212 128.335 25.5212C127.049 25.5212 125.986 25.2097 125.146 24.5865C124.314 23.9565 123.898 23.1074 123.898 22.0391H125.797C125.797 22.5801 126.038 23.0458 126.519 23.4361C127.007 23.8196 127.613 24.0113 128.335 24.0113C129.065 24.0113 129.653 23.8435 130.1 23.508C130.548 23.1725 130.771 22.7376 130.771 22.2034C130.771 21.5803 130.582 21.1352 130.204 20.8681C129.832 20.5942 129.251 20.4573 128.459 20.4573H126.55V18.8549H128.624C129.925 18.8206 130.575 18.2865 130.575 17.2525ZM141.597 22.8095L145.394 14.212H147.778V25.3261H145.869V17.2422L142.257 25.3261H140.936L137.252 17.0676V25.3261H135.343V14.212H137.819L141.597 22.8095Z" fill="#2A3338"/>
</svg>
