<svg width="10" height="18" viewBox="0 0 10 18" fill="none" xmlns="http://www.w3.org/2000/svg">
<path d="M4.98829 9.28413C2.63413 9.28413 0.67746 7.32913 0.67746 5.01579C0.67746 2.62246 2.63413 0.666626 4.98913 0.666626C7.42413 0.666626 9.29996 2.62163 9.29996 5.01579C9.29577 6.15167 8.84074 7.23941 8.0349 8.03994C7.22906 8.84047 6.13834 9.28828 5.00246 9.28496L4.98829 9.28413ZM4.98829 3.18079C3.99163 3.18079 3.23329 4.01829 3.23329 5.01663C3.23329 6.01329 3.99163 6.77163 4.98913 6.77163C6.02663 6.77163 6.74496 6.01329 6.74496 5.01663C6.74579 4.01746 6.02663 3.18079 4.98829 3.18079ZM6.70496 12.8358L9.14079 15.19C9.61996 15.7075 9.61996 16.4658 9.14079 16.945C8.62246 17.4625 7.82329 17.4625 7.42413 16.945L4.98913 14.5508L2.63413 16.945C2.39496 17.1841 2.07496 17.3033 1.71496 17.3033C1.43579 17.3033 1.11663 17.1833 0.836626 16.945C0.35746 16.4658 0.35746 15.7075 0.836626 15.1891L3.31163 12.835C2.41782 12.5703 1.56041 12.1955 0.759126 11.7191C0.159959 11.4 0.0407931 10.6025 0.35996 10.0033C0.759126 9.40496 1.47746 9.24579 2.11663 9.64496C2.98212 10.1731 3.97644 10.4526 4.99038 10.4526C6.00431 10.4526 6.99863 10.1731 7.86413 9.64496C8.50329 9.24579 9.26079 9.40496 9.61996 10.0033C9.97996 10.6025 9.81913 11.3991 9.25996 11.7191C8.50246 12.1983 7.62413 12.5575 6.70579 12.8366L6.70496 12.8358Z" fill="white"/>
</svg>
