<svg width="24" height="24" viewBox="0 0 24 24" fill="none" xmlns="http://www.w3.org/2000/svg">
<path d="M2.5 23C1.67 23 1 22.2973 1 21.4268L1 9L4 9L4 21.4268C4 22.2973 3.33 23 2.5 23Z" stroke="#2A3338" stroke-width="2" stroke-miterlimit="10" stroke-linecap="round" stroke-linejoin="round"/>
<path d="M4 21L4 1L23 1L23 21C23 22.1 22.1514 23 21.1143 23L3 23" stroke="#2A3338" stroke-width="2" stroke-miterlimit="10" stroke-linecap="round" stroke-linejoin="round"/>
<path d="M13 5L8 5L8 11L13 11L13 5Z" stroke="#2A3338" stroke-width="2" stroke-miterlimit="10" stroke-linecap="round" stroke-linejoin="round"/>
<path d="M16 5L19 5" stroke="#2A3338" stroke-width="2" stroke-miterlimit="10" stroke-linecap="round" stroke-linejoin="round"/>
<path d="M16 11L19 11" stroke="#2A3338" stroke-width="2" stroke-miterlimit="10" stroke-linecap="round" stroke-linejoin="round"/>
<path d="M16 8L19 8" stroke="#2A3338" stroke-width="2" stroke-miterlimit="10" stroke-linecap="round" stroke-linejoin="round"/>
<path d="M8 15L19 15" stroke="#2A3338" stroke-width="2" stroke-miterlimit="10" stroke-linecap="round" stroke-linejoin="round"/>
<path d="M8 18L19 18" stroke="#2A3338" stroke-width="2" stroke-miterlimit="10" stroke-linecap="round" stroke-linejoin="round"/>
</svg>
