<svg width="16" height="13" viewBox="0 0 16 13" fill="none" xmlns="http://www.w3.org/2000/svg">
<path d="M0.996341 5.65687L10.5429 1.77899C11.5244 1.33832 14.6471 0.104455 14.6471 0.104455C14.6471 0.104455 16.1638 -0.424347 15.9854 0.897656C15.9854 1.42646 15.6285 3.45353 15.2716 5.56873L14.201 11.9143C14.201 11.9143 14.1118 12.8838 13.398 12.9719C12.6842 13.1482 11.5244 12.4431 11.3459 12.2669C11.1675 12.1787 8.22321 10.3279 7.24179 9.44661C6.97412 9.18221 6.61724 8.74154 7.24179 8.1246C8.75854 6.8026 10.4537 5.12806 11.5244 4.07046C12.0597 3.54166 12.5058 2.48406 10.4537 3.80606L4.83283 7.68394C4.83283 7.68394 4.20828 8.1246 2.95919 7.68394C1.71011 7.24327 0.282576 6.8026 0.282576 6.8026C0.282576 6.8026 -0.698851 6.2738 0.996341 5.65687Z" fill="white"/>
</svg>
