<svg width="18" height="10" viewBox="0 0 18 10" fill="none" xmlns="http://www.w3.org/2000/svg">
<path fill-rule="evenodd" clip-rule="evenodd" d="M8.8461 9.94242H9.8566C9.8566 9.94242 10.1598 9.89396 10.3113 9.7486C10.4629 9.60325 10.4629 9.31253 10.4629 9.31253C10.4629 9.31253 10.4629 8.05277 11.0692 7.85896C11.6755 7.66515 12.4839 9.11872 13.2923 9.6517C13.8986 10.0878 14.3533 9.99087 14.3533 9.99087L16.5765 9.94242C16.5765 9.94242 17.7385 9.89396 17.1828 8.97337C17.1322 8.92492 16.8796 8.34349 15.5154 7.13218C14.1007 5.87242 14.3028 6.11468 15.9702 3.93432C16.9807 2.62611 17.3849 1.85087 17.2838 1.46325C17.1828 1.12409 16.4249 1.22099 16.4249 1.22099H13.8986C13.8986 1.22099 13.6965 1.17254 13.5955 1.26944C13.4439 1.36635 13.3934 1.51171 13.3934 1.51171C13.3934 1.51171 12.9892 2.52921 12.4839 3.40135C11.3724 5.19408 10.9176 5.29099 10.7661 5.19409C10.3619 4.95182 10.4629 4.12813 10.4629 3.59516C10.4629 1.85087 10.7661 1.12409 9.90713 0.930278C9.6545 0.881826 9.4524 0.833374 8.74505 0.833374C7.83559 0.833374 7.07772 0.833374 6.67351 1.02718C6.37036 1.17254 6.16826 1.46325 6.31984 1.46325C6.47141 1.46325 6.87562 1.56016 7.07772 1.80242C7.27982 2.23849 7.27982 2.96528 7.27982 2.96528C7.27982 2.96528 7.43139 5.04873 6.92614 5.29099C6.57246 5.4848 6.11774 5.09718 5.10723 3.4498C4.60198 2.62611 4.19778 1.65706 4.19778 1.65706C4.19778 1.65706 4.14725 1.46325 3.99568 1.36635C3.8441 1.26945 3.59148 1.22099 3.59148 1.22099H1.21679C1.21679 1.22099 0.863113 1.22099 0.711537 1.36635C0.610487 1.51171 0.711537 1.75397 0.711537 1.75397C0.711537 1.75397 2.58097 5.92087 4.70303 8.05277C6.67351 10.0878 8.8461 9.94242 8.8461 9.94242Z" fill="white"/>
</svg>
