<svg width="16" height="16" viewBox="0 0 16 16" fill="none" xmlns="http://www.w3.org/2000/svg">
<path fill-rule="evenodd" clip-rule="evenodd" d="M11.2012 1.5122C12.0012 1.5122 12.3568 1.68998 12.7123 1.77887C13.0679 1.95665 13.3346 2.13443 13.6012 2.40109C13.8679 2.66776 14.0457 2.93443 14.2234 3.28998C14.3123 3.55665 14.4901 4.00109 14.4901 4.80109C14.579 6.93443 14.579 9.06776 14.4901 11.2011C14.4901 12.0011 14.3123 12.4455 14.2234 12.7122C14.0457 13.0678 13.8679 13.3344 13.6012 13.6011C13.3346 13.8678 13.0679 14.0455 12.7123 14.2233C12.4457 14.3122 12.0012 14.49 11.2012 14.49C9.06788 14.5789 6.93455 14.5789 4.71233 14.49C3.91233 14.49 3.55677 14.3122 3.20122 14.2233C2.84566 14.0455 2.57899 13.8678 2.31233 13.6011C2.04566 13.3344 1.86788 13.0678 1.6901 12.7122C1.60122 12.4455 1.42344 12.0011 1.42344 11.2011C1.33455 9.06776 1.33455 6.93443 1.42344 4.80109C1.51233 4.00109 1.6901 3.55665 1.77899 3.28998C1.95677 2.93443 2.13455 2.66776 2.40122 2.40109C2.66788 2.13443 2.93455 1.95665 3.2901 1.77887C3.55677 1.68998 4.00122 1.5122 4.80122 1.5122C6.93455 1.42332 9.06788 1.42332 11.2012 1.5122ZM4.71233 0.0899821C3.82344 0.0899821 3.2901 0.26776 2.75677 0.445538C2.22344 0.623315 1.77899 0.889982 1.33455 1.33443C0.890104 1.77887 0.623438 2.22332 0.44566 2.75665C0.267882 3.28998 0.0901042 3.82332 0.0901042 4.7122C0.00121528 6.93443 0.00121528 9.06776 0.0901042 11.29C0.0901042 12.1789 0.267882 12.7122 0.44566 13.2455C0.623438 13.7789 0.890104 14.2233 1.33455 14.6678C1.77899 15.1122 2.22344 15.3789 2.75677 15.5566C3.2901 15.7344 3.82344 15.9122 4.71233 15.9122C6.93455 16.0011 9.06788 16.0011 11.2901 15.9122C12.179 15.9122 12.7123 15.7344 13.2457 15.5566C13.779 15.3789 14.2234 15.1122 14.6679 14.6678C15.1123 14.2233 15.379 13.7789 15.5568 13.2455C15.7346 12.7122 15.9123 12.1789 15.9123 11.29C16.0012 9.06776 16.0012 6.93443 15.9123 4.7122C15.9123 3.82332 15.7346 3.28998 15.5568 2.75665C15.379 2.22332 15.1123 1.77887 14.6679 1.33443C14.2234 0.889982 13.779 0.623315 13.2457 0.445538C12.7123 0.26776 12.179 0.0899821 11.2901 0.0899821C9.06788 0.00109321 6.93455 0.00109321 4.71233 0.0899821ZM8.00122 3.9122C5.77899 3.9122 3.91233 5.77887 3.91233 8.00109C3.91233 10.2233 5.77899 12.09 8.00122 12.09C10.2234 12.09 12.0901 10.2233 12.0901 8.00109C12.0901 5.77887 10.2234 3.9122 8.00122 3.9122ZM8.00122 10.6678C6.49011 10.6678 5.33455 9.5122 5.33455 8.00109C5.33455 6.48998 6.49011 5.33443 8.00122 5.33443C9.51233 5.33443 10.6679 6.48998 10.6679 8.00109C10.6679 9.5122 9.51233 10.6678 8.00122 10.6678ZM13.2457 3.73443C13.2457 4.26776 12.8012 4.7122 12.2679 4.7122C11.7346 4.7122 11.2901 4.26776 11.2901 3.73443C11.2901 3.20109 11.7346 2.75665 12.2679 2.75665C12.8012 2.75665 13.2457 3.20109 13.2457 3.73443Z" fill="white"/>
</svg>
