<svg width="36" height="36" viewBox="0 0 36 36" fill="none" xmlns="http://www.w3.org/2000/svg">
<path fill-rule="evenodd" clip-rule="evenodd" d="M24.6506 12.0888C24.0878 11.5976 23.2784 11.6089 22.814 11.7515C23.1182 11.3797 23.8268 11.0747 24.0356 11.0378C24.1946 11.0971 24.6506 11.5636 24.6506 12.0888ZM26.4476 10.0549C26.0775 8.0841 21.4762 9.38994 19.1589 8.55282C19.1145 9.12738 19.8722 10.0479 20.5971 10.3886C19.3581 11.459 18.2457 13.6156 18.0213 16.2503C17.7975 13.6156 16.6851 11.459 15.4461 10.3886C16.1709 10.0479 16.9293 9.12738 16.8843 8.55282C14.5671 9.38994 9.96564 8.0841 9.5949 10.0549C9.5169 10.472 9.71851 11.1077 9.93637 11.2904C9.97525 11.1583 10.1787 10.7258 10.8201 10.6289C14.0619 10.1413 16.7685 15.1147 14.3254 17.1256C14.2882 17.1561 14.309 17.2126 14.3595 17.2126H21.6842C21.734 17.2126 21.755 17.1561 21.7184 17.1256C19.2746 15.1147 21.9812 10.1413 25.223 10.6289C25.865 10.7258 26.0678 11.1583 26.1068 11.2904C26.3246 11.1077 26.5262 10.4721 26.4476 10.0549ZM27.236 5.53152C27.1779 5.34534 29.0786 5.34072 29.0786 6.52494C29.0786 7.31862 27.9417 7.69458 27.9417 8.5182C27.9417 8.90178 28.3563 9.18318 28.4835 9.18318C28.1906 7.86084 29.4016 8.55282 29.7285 8.80014C29.0787 7.02186 30.5416 7.03308 30.3976 6.21774C30.2973 5.64786 29.0259 5.82 28.5657 5.53152C27.7492 5.0199 26.7832 3.02898 26.1466 5.0199C27.3334 6.1167 26.6428 7.731 25.1362 7.731C25.1362 7.731 25.1277 7.9677 25.1415 7.98648C26.9386 7.89894 27.5649 6.58434 27.236 5.53152ZM6.27091 8.80014C6.59797 8.55282 7.8087 7.86084 7.51656 9.18318C7.6431 9.18318 8.0577 8.90178 8.0577 8.5182C8.0577 7.69458 6.92071 7.31862 6.92071 6.52494C6.92071 5.34066 8.82156 5.34534 8.7633 5.53152C8.4351 6.58428 9.06163 7.899 10.8585 7.98648C10.8717 7.9677 10.8633 7.731 10.8633 7.731C9.3573 7.731 8.66671 6.11664 9.85297 5.0199C9.21631 3.02898 8.2503 5.0199 7.43376 5.53152C6.97356 5.82006 5.70216 5.64786 5.6019 6.21774C5.45844 7.03308 6.92071 7.02192 6.27091 8.80014ZM11.3733 12.0887C11.9366 11.5976 12.7461 11.6088 13.21 11.7515C12.9069 11.3796 12.1972 11.0747 11.9889 11.0377C11.8299 11.0971 11.3733 11.5636 11.3733 12.0887ZM18.8763 1.06386L17.9997 0L17.1231 1.06386L17.9998 2.18358L18.8763 1.06386ZM23.8803 4.28088L23.2569 3.52476L22.6341 4.28088L23.2569 5.01984L23.8803 4.28088ZM28.9365 26.1353L28.1463 25.3029L27.356 26.1353L28.1463 26.8655L28.9365 26.1353ZM13.3659 4.28076L12.7424 3.52464L12.1196 4.28076L12.7424 5.01978L13.3659 4.28076ZM11.5802 7.98642H13.9052C15.86 7.98642 16.7396 6.79212 17.0054 5.7564H18.9945C19.2603 6.79218 20.1392 7.98648 22.0947 7.98648H24.4197C24.4197 7.98648 24.8264 7.43718 24.9284 7.16526C25.2956 6.18648 24.8264 5.73 24.1418 5.73L23.2568 6.52842L22.3718 5.73C21.6872 5.73 21.218 6.18648 21.5852 7.16526C21.632 7.29042 21.7443 7.4742 21.8504 7.63572C21.0254 7.52292 19.9724 6.96078 19.7414 5.7564C19.7414 5.7564 20.351 4.79244 20.504 4.40238C21.0536 2.99964 20.3516 2.42616 19.325 2.42616L17.9996 3.9771L16.6743 2.42616C15.6477 2.42616 14.9457 2.99958 15.4959 4.40238C15.6484 4.7925 16.2586 5.75646 16.2586 5.75646C16.027 6.96084 14.974 7.52298 14.149 7.63578C14.2558 7.47426 14.3674 7.29042 14.4142 7.16526C14.7807 6.18654 14.3128 5.73006 13.6275 5.73006L12.7426 6.52848L11.8576 5.73006C11.1724 5.73006 10.7044 6.18654 11.071 7.16526C11.173 7.43724 11.5802 7.98642 11.5802 7.98642ZM35.618 15.1604C35.1691 15.3866 32.5364 16.6144 29.1638 16.1603C29.1988 16.0001 29.2283 15.8389 29.2526 15.6768C31.4972 15.4095 33.3218 15.0306 34.4846 14.3867C35.81 13.6525 36.3896 11.8995 35.7206 10.5953C35.7033 10.5625 35.6553 10.5566 35.6313 10.5841C35.2647 11.0042 32.9594 13.5003 29.3277 14.2763C29.3184 14.0891 29.3012 13.9023 29.2761 13.7165C31.04 12.7207 32.7621 11.5733 33.5823 10.5242C34.822 8.93802 34.7078 6.91488 33.5283 5.8833C33.5161 5.8728 33.4999 5.86812 33.4839 5.8704C33.4679 5.87262 33.4537 5.88162 33.4448 5.89506C33.0717 6.50772 29.5786 12.1279 25.7434 14.5541C25.6966 14.5839 25.6493 14.6131 25.6018 14.6417C25.492 14.708 25.48 14.8502 25.5736 14.9348C26.0157 15.3337 26.2906 15.8888 26.2906 16.5051C26.2906 17.5766 25.4608 18.4677 24.364 18.661C23.8065 18.7685 23.0018 18.7373 22.2291 18.4831C22.1943 18.4718 22.1583 18.4947 22.1583 18.5294V21.9232C22.1583 21.9778 22.2418 21.9913 22.2615 21.9389C22.7312 20.7001 24.1376 20.4368 24.7527 20.4368C24.9741 21.761 25.3694 22.8578 25.8831 23.4482C26.7194 24.4075 28.085 24.394 28.6772 23.7307C28.687 23.7197 28.6912 23.7049 28.6886 23.6905C28.6861 23.6761 28.677 23.6636 28.664 23.6566C28.3161 23.4576 26.3252 22.241 25.9268 20.2471C26.0841 20.1931 26.2376 20.1319 26.3846 20.0596C27.0272 21.1183 27.9626 22.0612 28.7156 22.4213C29.9804 23.0252 31.1384 22.7315 31.652 21.8474C31.6706 21.8162 31.6478 21.7774 31.61 21.7739C30.8276 21.7117 28.4264 21.0266 27.404 19.3577C27.5211 19.2507 27.6356 19.1391 27.7424 19.0205C28.8122 19.8311 30.3249 20.5478 31.4079 20.6941C32.675 20.8657 34.1108 20.4632 34.1457 18.9964C34.1462 18.967 34.1199 18.9429 34.0888 18.9448C33.638 18.9717 30.6554 19.1009 28.5302 17.8867C28.6041 17.7469 28.6729 17.6047 28.7366 17.4601C28.7366 17.4601 31.9479 18.2157 33.4694 17.9653C34.9815 17.7169 35.8671 16.5949 35.696 15.1991C35.6913 15.1643 35.6504 15.144 35.618 15.1604ZM7.26265 17.4603C7.32655 17.6048 7.3956 17.7471 7.46958 17.8868C5.34504 19.1005 2.36365 18.9724 1.91131 18.9449C1.87951 18.9431 1.85311 18.9683 1.85365 18.9971C1.88917 20.4634 3.32437 20.8658 4.59144 20.6943C5.67396 20.548 7.18717 19.8313 8.25691 19.0207C8.36431 19.1393 8.47837 19.2509 8.59525 19.3578C7.57231 21.0266 5.17171 21.7117 4.38931 21.774C4.35151 21.7775 4.32931 21.8162 4.34737 21.8474C4.86097 22.7315 6.01896 23.0252 7.28436 22.4213C8.03682 22.0612 8.97217 21.1184 9.61483 20.0598C9.76231 20.132 9.9159 20.1931 10.0725 20.2472C9.6741 22.241 7.68336 23.4577 7.3353 23.6567C7.32246 23.6638 7.31346 23.6762 7.31094 23.6906C7.30836 23.705 7.31244 23.7197 7.3221 23.7308C7.9143 24.394 9.28057 24.4075 10.1168 23.4482C10.6306 22.8578 11.0253 21.761 11.2467 20.4369C11.8622 20.4369 13.268 20.7002 13.7378 21.939C13.7582 21.9913 13.8416 21.9778 13.8416 21.9232V18.5294C13.8416 18.4948 13.805 18.4719 13.7702 18.4831C12.9975 18.7373 12.1929 18.7685 11.6361 18.661C10.5387 18.4678 9.70891 17.5766 9.70891 16.5051C9.70891 15.8888 9.98425 15.3331 10.4258 14.9342C10.52 14.8501 10.5074 14.708 10.3982 14.6416C10.3503 14.613 10.3027 14.5838 10.2554 14.554C6.42265 12.1291 2.93125 6.513 2.55505 5.89614C2.53759 5.86734 2.49559 5.86152 2.46979 5.88378C1.29199 6.91596 1.17739 8.9385 2.41699 10.5241C3.23725 11.5732 4.95913 12.7206 6.72259 13.7164C6.69775 13.9022 6.68071 14.0889 6.67165 14.2761C3.04285 13.5007 0.739446 11.0086 0.369186 10.5857C0.344646 10.5569 0.295326 10.5628 0.278586 10.5957C-0.389093 11.9005 0.190446 13.6523 1.51471 14.3866C2.67751 15.0304 4.50205 15.4093 6.7467 15.6766C6.77094 15.8387 6.80052 16 6.83544 16.1601C3.46645 16.6136 0.834846 15.3889 0.382446 15.1609C0.348846 15.1438 0.308046 15.165 0.303846 15.2002C0.133566 16.5961 1.01845 17.7169 2.53045 17.9653C4.05145 18.2157 7.26265 17.4603 7.26265 17.4603ZM28.1462 27.9376L26.9762 27.0212C26.5094 27.2979 26.1662 27.7374 26.033 28.2526C25.3292 28.3507 23.4104 27.9265 23.5969 27.6452C25.7 24.7008 24.0913 22.9478 22.1582 23.0453V25.0228C22.1582 25.6578 21.6014 26.1724 20.9156 26.1724H19.5806C18.623 26.1724 17.9996 27.1306 17.9996 27.1306C17.9996 27.1306 17.3763 26.1724 16.4187 26.1724H15.0837C14.3974 26.1724 13.8418 25.6578 13.8418 25.0228V23.0454C11.9086 22.948 10.2987 24.7009 12.4024 27.6452C12.5872 27.9237 10.615 28.3696 9.68983 28.2568C9.44617 28.0053 9.0945 27.8467 8.7009 27.8467C8.53356 27.8468 8.36761 27.8764 8.21071 27.9343C8.21071 27.9343 4.57537 24.5082 4.50877 24.4747L4.53877 24.4054C4.74577 24.02 4.42897 23.6 4.22863 23.6294C4.46137 23.3516 4.47223 22.1349 3.18103 21.8535C3.21877 22.0979 3.23797 22.5967 3.23797 22.5967C3.23797 22.5967 2.24143 22.0603 1.74097 22.5232C1.30123 23.0414 1.91149 23.9813 1.91149 23.9813C1.91149 23.9813 1.40143 23.9936 1.15009 23.9725C1.51969 25.2167 2.75929 25.1285 3.02749 24.883C3.01003 25.081 3.45835 25.363 3.83809 25.1368L4.00489 25.0563C4.03429 25.0956 7.57489 28.4254 7.57489 28.4254C7.41229 28.6657 7.33489 28.9606 7.38823 29.2748C7.47229 29.766 7.88335 30.1731 8.40835 30.2788C8.77909 30.3529 9.12768 30.2812 9.40728 30.1184L10.3445 30.9844C10.4279 31.0596 10.5407 31.1065 10.6667 31.0978C10.8959 31.0825 11.0675 30.8974 11.0501 30.6854C11.0429 30.5896 10.9937 30.5074 10.9259 30.4451C10.9109 30.4286 9.97129 29.5603 9.97129 29.5603C10.7464 29.0192 12.1906 28.6381 13.3894 28.6381C13.6 28.6381 13.699 28.4607 13.6264 28.2867C13.0834 26.9867 14.251 26.045 15.4588 26.8117C15.9857 27.1459 16.5209 27.8045 16.9241 28.903C14.9422 29.3807 12.4541 30.6964 11.9507 32.1328C11.7569 32.6875 12.3971 33.4435 13.1747 33.5957C13.1884 33.5987 13.2028 33.5961 13.2147 33.5885C13.2265 33.5809 13.2348 33.5688 13.2377 33.5551C13.6439 31.4108 15.9605 29.8129 17.1659 29.5415C17.2265 29.703 17.2066 29.6507 17.2673 29.8117C15.9545 30.4297 14.6813 31.7333 14.3177 33.283C14.1509 33.9926 14.9459 34.6324 15.6023 34.8075C15.6352 34.8163 15.6677 34.7933 15.6695 34.7617C15.7943 32.8019 16.6637 31.1376 17.4424 30.3804C17.4637 30.5284 17.4798 30.6771 17.4905 30.8263C17.4905 30.8263 16.6931 33.038 16.6931 34.6518C16.6931 35.4025 17.8139 35.9266 17.9795 36C18.1864 35.9266 19.3067 35.4025 19.3067 34.6518C19.3067 33.038 18.5093 30.8263 18.5093 30.8263C18.5201 30.6771 18.5363 30.5284 18.5579 30.3804C19.3361 31.1376 20.206 32.8013 20.3303 34.761C20.3321 34.7927 20.3651 34.8163 20.3974 34.8074C21.0544 34.6324 21.8489 33.9927 21.6826 33.2831C21.3184 31.7333 20.0458 30.4298 18.733 29.8118C18.793 29.6508 18.7732 29.7031 18.8338 29.5415C20.0399 29.8129 22.3558 31.4108 22.762 33.555C22.765 33.5687 22.7732 33.5807 22.7851 33.5884C22.7969 33.596 22.8113 33.5986 22.8251 33.5956C23.602 33.4435 24.2434 32.6874 24.0484 32.1329C23.5463 30.6965 21.0574 29.3807 19.0757 28.903C19.4794 27.8045 20.0146 27.146 20.5414 26.8117C21.7486 26.0451 22.9162 26.9868 22.3732 28.2869C22.3006 28.4607 22.399 28.6381 22.6102 28.6381C23.9662 28.6381 25.6365 29.1257 26.2976 29.7796C26.7202 30.4105 27.5007 30.8141 28.3816 30.7276C29.3823 30.6302 30.1984 29.8817 30.3112 28.9565C30.4096 28.1458 29.9884 27.4179 29.317 27.0214L28.1462 27.9376ZM19.5224 22.0319C19.9394 21.878 20.5928 22.0026 20.5706 22.6018C20.5652 22.7374 20.7567 22.7374 20.7704 22.5988C20.8952 21.7018 20.2862 21.4432 19.649 21.5484C19.5699 21.2399 19.5051 20.9704 19.4313 20.7031C19.3725 20.4869 19.3508 20.0809 19.6023 20.0809C19.738 20.0809 19.6834 20.4587 19.6708 20.6213C19.6593 20.7641 19.7109 20.8505 19.8274 20.8546C19.9 20.8575 19.9906 20.7653 20.0446 20.7041C20.4094 20.2936 20.494 19.658 20.0668 19.3514C19.7093 19.094 18.814 19.2855 18.568 19.652C18.5308 19.514 18.3532 19.2861 18.2679 19.1867C18.1852 19.0899 18.1636 19.0235 18.2782 18.9383C18.3322 18.8972 18.4954 18.7357 18.4954 18.5688C18.4954 18.4702 18.4186 18.288 18.1744 18.288C17.9818 18.288 17.7676 18.4208 17.7676 18.7168C17.7676 18.7827 17.7838 18.8533 17.8264 18.929C17.7046 18.909 17.374 18.9172 17.2042 18.9589L19.552 25.3722C20.224 25.042 20.7166 24.5192 20.7166 23.9582C20.7166 23.48 20.0091 23.6386 19.6654 24.0117C19.555 23.4055 19.4566 22.8456 19.3492 22.2874C19.3199 22.1335 19.3982 22.0783 19.5224 22.0319ZM16.2026 17.6754L16.6958 19.0394C16.2735 19.1393 15.5943 19.4459 15.5943 19.8518C15.5943 20.3924 16.5549 20.7442 17.1105 20.7019C17.0828 20.8253 17.1147 20.9351 17.2011 21.0356C16.9995 21.0356 16.6192 21.129 16.4943 21.2629C16.1997 20.9897 15.7389 20.8904 15.5198 21.0568C15.2997 21.2242 15.2932 21.5079 15.5229 21.8287C15.683 22.0507 15.7431 22.2699 15.5631 22.5271C16.2327 22.5271 15.986 21.6607 16.2483 21.6607C16.2141 21.8287 16.2351 22.0231 16.3113 22.2387C16.3618 22.382 16.3618 22.4837 16.2754 22.6217C16.0594 22.9654 15.7234 23.7549 15.769 24.4687C15.5494 24.4675 15.4378 24.414 15.5152 24.1156C15.544 24.0045 15.475 23.9252 15.3838 24.0622C15.283 24.2131 15.2344 24.471 15.2344 24.5813C15.2344 25.217 15.9951 25.3451 16.2855 25.2106C17.1256 26.0198 18.7756 25.804 19.3282 25.5325L16.423 17.5977C16.3636 17.4479 16.1505 17.5197 16.2026 17.6754ZM16.1018 24.2114C16.0418 23.8847 16.4984 23.3008 17.0792 22.7375C16.9556 23.1046 17.0324 23.7373 17.2748 23.9552C16.8536 23.9552 16.3532 24.034 16.1018 24.2114Z" fill="#A2B3C3" fill-opacity="0.5"/>
</svg>
