<svg width="24" height="24" viewBox="0 0 24 24" fill="none" xmlns="http://www.w3.org/2000/svg">
<g opacity="0.7">
<path d="M19.031 17.617L23.314 21.899L21.899 23.314L17.617 19.031C16.0237 20.3082 14.042 21.0029 12 21C7.032 21 3 16.968 3 12C3 7.032 7.032 3 12 3C16.968 3 21 7.032 21 12C21.0029 14.042 20.3082 16.0237 19.031 17.617ZM17.025 16.875C18.2941 15.5699 19.0029 13.8204 19 12C19 8.132 15.867 5 12 5C8.132 5 5 8.132 5 12C5 15.867 8.132 19 12 19C13.8204 19.0029 15.5699 18.2941 16.875 17.025L17.025 16.875Z" fill="#F3765F"/>
<path fill-rule="evenodd" clip-rule="evenodd" d="M9.8788 8.46447L8.46458 9.87868L10.5859 12L8.46458 14.1213L9.8788 15.5355L12.0001 13.4142L14.1214 15.5355L15.5356 14.1213L13.4143 12L15.5356 9.87868L14.1214 8.46447L12.0001 10.5858L9.8788 8.46447Z" fill="#F3765F"/>
</g>
</svg>
