<svg width="65" height="50" viewBox="0 0 68 52" fill="none" xmlns="http://www.w3.org/2000/svg">
<path d="M7.27057 46.6898C3.51587 42.6904 1.5 38.2048 1.5 30.9335C1.5 18.1383 10.4566 6.6701 23.4814 1L26.7367 6.03766C14.5795 12.6327 12.2027 21.1908 11.2549 26.5867C13.2125 25.5704 15.7751 25.2158 18.2868 25.4498C24.863 26.0603 30.0466 31.4745 30.0466 38.2048C30.0466 41.5983 28.7024 44.8528 26.3097 47.2524C23.917 49.6519 20.6718 51 17.288 51C13.3765 51 9.63639 49.2087 7.27057 46.6898V46.6898ZM43.7239 46.6898C39.9692 42.6904 37.9534 38.2048 37.9534 30.9335C37.9534 18.1383 46.91 6.6701 59.9348 1L63.19 6.03766C51.0328 12.6327 48.6561 21.1908 47.7083 26.5867C49.6658 25.5704 52.2285 25.2158 54.7401 25.4498C61.3163 26.0603 66.5 31.4745 66.5 38.2048C66.5 41.5983 65.1558 44.8528 62.7631 47.2524C60.3704 49.6519 57.1251 51 53.7413 51C49.8299 51 46.0898 49.2087 43.7239 46.6898V46.6898Z" stroke="#2A3338" stroke-width="2" stroke-linejoin="round"/>
</svg>
