<svg width="24" height="24" viewBox="0 0 24 24" fill="none" xmlns="http://www.w3.org/2000/svg">
<path d="M11.0979 15.678C9.67786 15.533 8.39786 15.189 7.30086 14.347C7.16486 14.242 7.02486 14.141 6.90086 14.024C6.42086 13.571 6.37286 13.052 6.75186 12.518C7.07686 12.061 7.62186 11.938 8.18886 12.201C8.29886 12.251 8.40286 12.315 8.50386 12.383C10.5469 13.763 13.3539 13.801 15.4039 12.446C15.6069 12.292 15.8239 12.168 16.0759 12.104C16.5659 11.981 17.0219 12.157 17.2849 12.578C17.5849 13.058 17.5809 13.528 17.2109 13.901C16.6439 14.472 15.9619 14.886 15.2039 15.175C14.4879 15.448 13.7029 15.585 12.9259 15.677C13.0429 15.802 13.0979 15.864 13.1719 15.937C14.2269 16.977 15.2859 18.014 16.3369 19.059C16.6959 19.415 16.7699 19.856 16.5729 20.27C16.3579 20.723 15.8749 21.02 15.4019 20.988C15.1019 20.968 14.8679 20.821 14.6599 20.616C13.8639 19.829 13.0529 19.056 12.2729 18.254C12.0459 18.021 11.9369 18.065 11.7369 18.268C10.9359 19.078 10.1219 19.875 9.30286 20.668C8.93586 21.025 8.49786 21.088 8.07186 20.885C7.61886 20.669 7.32986 20.215 7.35186 19.758C7.36786 19.449 7.52186 19.213 7.73786 19.001C8.78186 17.977 9.82286 16.951 10.8649 15.924C10.9339 15.856 10.9979 15.784 11.0979 15.678Z" fill="#ED812B"/>
<path d="M11.9633 12.11C9.43026 12.102 7.35326 10.039 7.36726 7.54502C7.38226 5.02502 9.46126 2.99302 12.0203 3.00002C14.5843 3.00702 16.6413 5.06702 16.6293 7.61502C16.6153 10.103 14.5243 12.119 11.9643 12.111L11.9633 12.11ZM14.2663 7.55102C14.2623 6.31302 13.2583 5.32802 12.0003 5.32702C10.7323 5.32502 9.72026 6.32902 9.72926 7.57802C9.73926 8.81102 10.7513 9.79002 12.0113 9.78502C13.2683 9.78102 14.2693 8.78902 14.2653 7.55102H14.2663Z" fill="#ED812B"/>
</svg>
