<svg width="24" height="24" viewBox="0 0 24 24" fill="none" xmlns="http://www.w3.org/2000/svg">
<path d="M19.953 7.98297C19.965 8.15697 19.965 8.32997 19.965 8.50597C19.965 13.844 15.837 20 8.29 20V19.997C6.06412 20.0013 3.88281 19.3732 2 18.186C4.16548 18.4453 6.34623 17.8442 8.073 16.512C6.317 16.479 4.777 15.352 4.239 13.706C4.85405 13.8226 5.48751 13.7987 6.092 13.636C4.178 13.256 2.8 11.6 2.8 9.67597V9.62597C3.37 9.93797 4.01 10.112 4.663 10.131C3.7972 9.56862 3.18186 8.69381 2.94526 7.68889C2.70866 6.68398 2.86905 5.62652 3.393 4.73697C4.43185 5.98936 5.72035 7.01147 7.1763 7.73806C8.63224 8.46465 10.2237 8.87978 11.849 8.95697C11.6869 8.2661 11.7113 7.54455 11.9199 6.86626C12.1285 6.18798 12.5137 5.57735 13.036 5.09697C13.8347 4.36155 14.8897 3.96816 15.9749 4.00105C17.0601 4.03395 18.0893 4.49052 18.842 5.27297C19.761 5.09497 20.642 4.76297 21.448 4.29297C21.1381 5.23183 20.4968 6.02566 19.644 6.52597C20.4565 6.43178 21.2505 6.21745 22 5.88997C21.4476 6.70386 20.7544 7.41263 19.953 7.98297Z" fill="#1D9BF0"/>
</svg>
