<svg width="24" height="24" viewBox="0 0 24 24" fill="none" xmlns="http://www.w3.org/2000/svg">
<path d="M22 12C22 6.477 17.523 2 12 2C6.477 2 2 6.477 2 12C2 16.992 5.656 21.129 10.438 21.879V14.89H7.898V12H10.438V9.797C10.438 7.291 11.93 5.907 14.215 5.907C15.309 5.907 16.453 6.102 16.453 6.102V8.562H15.191C13.949 8.562 13.562 9.334 13.562 10.125V12H16.336L15.893 14.89H13.563V21.879C18.343 21.129 22 16.992 22 12Z" fill="#1877F2"/>
<path d="M15.8934 14.89L16.3364 12H13.5634V10.125C13.5634 9.33401 13.9494 8.56201 15.1914 8.56201H16.4534V6.10201C16.4534 6.10201 15.3094 5.90601 14.2154 5.90601C11.9304 5.90601 10.4384 7.29101 10.4384 9.79601V12H7.89844V14.89H10.4384V21.879C11.4734 22.0417 12.5275 22.0417 13.5624 21.879V14.89H15.8924H15.8934Z" fill="white"/>
</svg>
