<svg width="24" height="24" viewBox="0 0 24 24" fill="none" xmlns="http://www.w3.org/2000/svg">
<path d="M2 11.583C2 7.066 2 4.807 3.403 3.403C4.807 2 7.066 2 11.583 2H12.417C16.934 2 19.193 2 20.597 3.403C22 4.807 22 7.066 22 11.583V12.417C22 16.934 22 19.193 20.596 20.597C19.194 22 16.934 22 12.416 22H11.583C7.066 22 4.807 22 3.403 20.596C2 19.194 2 16.934 2 12.416V11.583Z" fill="#2787F5"/>
<path fill-rule="evenodd" clip-rule="evenodd" d="M7.41603 8.25H5.95703C5.54003 8.25 5.45703 8.446 5.45703 8.662C5.45703 9.049 5.95203 10.964 7.76003 13.498C8.96503 15.228 10.663 16.167 12.209 16.167C13.136 16.167 13.251 15.958 13.251 15.599V14.292C13.251 13.875 13.338 13.792 13.632 13.792C13.848 13.792 14.219 13.9 15.085 14.734C16.074 15.724 16.237 16.167 16.793 16.167H18.252C18.668 16.167 18.877 15.958 18.757 15.547C18.625 15.137 18.153 14.543 17.527 13.838C17.187 13.437 16.677 13.004 16.522 12.788C16.306 12.509 16.367 12.386 16.522 12.138C16.522 12.138 18.299 9.636 18.484 8.786C18.577 8.477 18.484 8.25 18.044 8.25H16.584C16.214 8.25 16.043 8.446 15.95 8.662C15.95 8.662 15.208 10.47 14.157 11.644C13.817 11.984 13.663 12.092 13.477 12.092C13.385 12.092 13.251 11.984 13.251 11.675V8.786C13.251 8.416 13.143 8.25 12.834 8.25H10.542C10.31 8.25 10.17 8.422 10.17 8.585C10.17 8.937 10.696 9.018 10.75 10.007V12.154C10.75 12.625 10.665 12.71 10.48 12.71C9.98503 12.71 8.78203 10.895 8.06903 8.817C7.92903 8.413 7.78903 8.25 7.41603 8.25Z" fill="white"/>
</svg>
