<svg width="24" height="24" viewBox="0 0 24 24" fill="none" xmlns="http://www.w3.org/2000/svg">
<path d="M12 22C17.523 22 22 17.523 22 12C22 6.477 17.523 2 12 2C6.477 2 2 6.477 2 12C2 17.523 6.477 22 12 22Z" fill="#29B6F6"/>
<path d="M16.975 7.50001L15.102 17.063C15.102 17.063 15.022 17.5 14.48 17.5C14.192 17.5 14.043 17.363 14.043 17.363L9.986 13.997L8.001 12.996L5.454 12.319C5.454 12.319 5 12.187 5 11.812C5 11.5 5.467 11.351 5.467 11.351L16.124 7.11701C16.124 7.11701 16.45 6.99901 16.687 7.00001C16.833 7.00001 17 7.06201 17 7.25001C17 7.37501 16.975 7.50001 16.975 7.50001Z" fill="white"/>
<path d="M11.5009 15.253L9.78791 16.94C9.78791 16.94 9.71391 16.998 9.61391 17C9.57612 17.0015 9.53848 16.9943 9.50391 16.979L9.98691 13.996L11.5009 15.253Z" fill="#B0BEC5"/>
<path d="M14.948 9.09797C14.9078 9.04539 14.8483 9.01091 14.7827 9.0021C14.7171 8.99329 14.6507 9.01087 14.598 9.05097L8 13C8 13 9.053 15.946 9.214 16.456C9.374 16.966 9.504 16.978 9.504 16.978L9.985 13.996L14.901 9.44797C14.9536 9.40774 14.9881 9.3483 14.9969 9.28269C15.0057 9.21707 14.9881 9.15064 14.948 9.09797Z" fill="#CFD8DC"/>
</svg>
