<svg width="24" height="24" viewBox="0 0 24 24" fill="none" xmlns="http://www.w3.org/2000/svg">
<path fill-rule="evenodd" clip-rule="evenodd" d="M12.3454 4.44605C13.3066 3.50886 14.599 2.98917 15.9414 3.00005C17.2838 3.01289 18.5668 3.55521 19.5114 4.50904C20.4581 5.46419 20.9942 6.75132 21.0054 8.09605C21.0181 9.44107 20.505 10.7379 19.5754 11.71L19.5624 11.722L17.0974 14.207C16.3197 14.9944 15.3061 15.5062 14.2108 15.6647C13.1155 15.8232 11.9984 15.6196 11.0294 15.085C10.3859 14.7303 9.82618 14.2413 9.38842 13.651C9.23035 13.4381 9.16336 13.171 9.20218 12.9087C9.241 12.6463 9.38245 12.4101 9.59542 12.252C9.80839 12.094 10.0754 12.027 10.3378 12.0658C10.6002 12.1046 10.8364 12.2461 10.9944 12.459C11.2614 12.82 11.6024 13.118 11.9944 13.333C12.5829 13.6568 13.261 13.7798 13.9256 13.6832C14.5903 13.5867 15.2054 13.2759 15.6774 12.798L18.1364 10.32C18.7019 9.72559 19.0139 8.93446 19.0064 8.11405C18.9999 7.29055 18.6719 6.50219 18.0924 5.91704C17.5189 5.33758 16.7397 5.00802 15.9244 5.00005C15.1111 4.99331 14.3278 5.30732 13.7444 5.87405L12.3364 7.28505C12.2442 7.38062 12.134 7.45688 12.012 7.50937C11.89 7.56186 11.7588 7.58954 11.626 7.59079C11.4933 7.59203 11.3616 7.56683 11.2386 7.51663C11.1157 7.46644 11.004 7.39226 10.91 7.29844C10.8161 7.20461 10.7418 7.09301 10.6914 6.97016C10.641 6.8473 10.6156 6.71564 10.6167 6.58286C10.6177 6.45008 10.6452 6.31884 10.6976 6.1968C10.7499 6.07476 10.826 5.96436 10.9214 5.87205L12.3344 4.45604L12.3444 4.44605H12.3454Z" fill="#2A3338"/>
<path fill-rule="evenodd" clip-rule="evenodd" d="M8.73331 8.60504C9.42021 8.34677 10.1549 8.24038 10.8869 8.29321C11.6188 8.34603 12.3306 8.55681 12.9733 8.91104C13.6169 9.26569 14.1766 9.75478 14.6143 10.345C14.7724 10.558 14.8394 10.8251 14.8006 11.0874C14.7617 11.3498 14.6203 11.586 14.4073 11.744C14.1943 11.9021 13.9273 11.9691 13.6649 11.9303C13.4026 11.8915 13.1664 11.75 13.0083 11.537C12.7416 11.1773 12.4005 10.8792 12.0083 10.663C11.4199 10.3389 10.7418 10.2158 10.077 10.3124C9.41224 10.4089 8.79717 10.7199 8.32531 11.198L5.86531 13.676C5.29997 14.2709 4.98831 15.0624 4.99631 15.883C5.00331 16.709 5.33231 17.497 5.90931 18.079C6.48631 18.661 7.26531 18.989 8.07831 18.996C8.89081 19.0025 9.67321 18.6889 10.2563 18.123L11.6553 16.713C11.7478 16.6198 11.8578 16.5457 11.979 16.495C12.1001 16.4442 12.2301 16.4179 12.3614 16.4173C12.4928 16.4168 12.6229 16.4422 12.7445 16.492C12.866 16.5418 12.9766 16.615 13.0698 16.7075C13.163 16.8001 13.2372 16.91 13.2879 17.0312C13.3386 17.1523 13.365 17.2823 13.3655 17.4137C13.366 17.545 13.3407 17.6752 13.2909 17.7967C13.2411 17.9183 13.1678 18.0288 13.0753 18.122L11.6693 19.538L11.6573 19.55C10.6961 20.4872 9.40372 21.0069 8.06131 20.996C6.71874 20.9837 5.43534 20.4418 4.49031 19.488C3.54352 18.5326 3.00742 17.2451 2.99631 15.9C2.98405 14.5547 3.49792 13.2579 4.42831 12.286L4.44031 12.274L6.90531 9.78904C7.4224 9.2675 8.04591 8.86365 8.73331 8.60504Z" fill="#2A3338"/>
</svg>
