<svg width="18" height="17" viewBox="0 0 18 17" fill="none" xmlns="http://www.w3.org/2000/svg">
<path d="M9.52123 14.3183C9.20123 14.1229 8.79878 14.1229 8.47878 14.3183L5.17369 16.3369C4.4146 16.8005 3.47339 16.1167 3.67975 15.2515L4.5783 11.4841C4.6653 11.1194 4.54092 10.7366 4.25614 10.4927L1.31612 7.97424C0.640554 7.39556 1.00012 6.28901 1.88681 6.21798L5.74609 5.90878C6.11992 5.87883 6.44556 5.64224 6.58957 5.29597L8.07667 1.72019C8.41825 0.898854 9.58176 0.898854 9.92334 1.72019L11.4104 5.29597C11.5544 5.64224 11.8801 5.87883 12.2539 5.90878L16.1138 6.21797C17.0006 6.28901 17.3601 7.39565 16.6845 7.97431L13.744 10.4927C13.4591 10.7366 13.3347 11.1194 13.4217 11.4842L14.3203 15.2515C14.5266 16.1167 13.5854 16.8005 12.8263 16.3369L9.52123 14.3183Z" fill="#F7DA79" stroke="#E9D07B"/>
</svg>
