<svg width="18" height="14" viewBox="0 0 18 14" fill="none" xmlns="http://www.w3.org/2000/svg">
<path d="M17.1231 1.9668C16.5254 2.22462 15.875 2.41016 15.2051 2.48243C15.9006 2.06922 16.4215 1.41641 16.6699 0.646492C16.0173 1.03475 15.3023 1.30701 14.5566 1.45118C14.245 1.11803 13.8681 0.852625 13.4494 0.671507C13.0307 0.490389 12.5792 0.397438 12.123 0.398446C10.2773 0.398446 8.79297 1.89454 8.79297 3.73048C8.79297 3.98829 8.82422 4.2461 8.875 4.49415C6.11133 4.34962 3.64649 3.0293 2.00781 1.00782C1.70923 1.51781 1.55276 2.0985 1.55469 2.68946C1.55469 3.84571 2.14258 4.86524 3.03906 5.46485C2.51075 5.44405 1.99481 5.29883 1.5332 5.04102V5.08204C1.5332 6.70118 2.67774 8.04298 4.20313 8.35157C3.91672 8.42597 3.62208 8.46402 3.32617 8.46485C3.10938 8.46485 2.9043 8.44337 2.69727 8.41407C3.11914 9.73438 4.34766 10.6934 5.81055 10.7246C4.66602 11.6211 3.23242 12.1484 1.67578 12.1484C1.39648 12.1484 1.13867 12.1387 0.871094 12.1074C2.34766 13.0547 4.09961 13.6016 5.98633 13.6016C12.1113 13.6016 15.4629 8.52735 15.4629 4.12305C15.4629 3.97852 15.4629 3.83399 15.4531 3.68946C16.1016 3.21485 16.6699 2.62696 17.1231 1.9668Z" fill="white"/>
</svg>
