<svg width="375" height="122" viewBox="0 0 375 122" fill="none" xmlns="http://www.w3.org/2000/svg">
<rect width="375" height="122" rx="8" fill="#208076"/>
<path d="M26.39 57.416V68H23.888V57.416H20.54V55.184H29.738V57.416H26.39ZM34.7292 69.512C34.4772 70.196 34.1412 70.688 33.7212 70.988C33.3012 71.288 32.7312 71.438 32.0112 71.438H31.0932V69.332H31.6332C31.9812 69.332 32.2332 69.272 32.3892 69.152C32.5452 69.044 32.6832 68.822 32.8032 68.486L33.1992 67.334L29.9952 58.622H32.4612L34.4052 64.418L36.2772 58.622H38.7432L34.7292 69.512ZM45.2797 63.284C45.2797 62.3 45.1597 61.61 44.9197 61.214C44.6917 60.818 44.2837 60.62 43.6957 60.62C43.2877 60.62 42.9757 60.71 42.7597 60.89C42.5437 61.07 42.3877 61.304 42.2917 61.592C42.1957 61.868 42.1417 62.174 42.1297 62.51C42.1177 62.834 42.1117 63.146 42.1117 63.446C42.1117 64.37 42.2317 65.03 42.4717 65.426C42.7117 65.81 43.1197 66.002 43.6957 66.002C44.2837 66.002 44.6917 65.798 44.9197 65.39C45.1597 64.982 45.2797 64.28 45.2797 63.284ZM42.0397 59.504C42.3997 59.144 42.7417 58.892 43.0657 58.748C43.4017 58.592 43.8277 58.514 44.3437 58.514C44.8117 58.514 45.2437 58.586 45.6397 58.73C46.0477 58.874 46.3897 59.084 46.6657 59.36C47.0617 59.756 47.3257 60.284 47.4577 60.944C47.4937 61.112 47.5177 61.274 47.5297 61.43C47.5537 61.586 47.5717 61.754 47.5837 61.934C47.5957 62.114 47.6017 62.318 47.6017 62.546C47.6137 62.762 47.6197 63.026 47.6197 63.338C47.6197 63.89 47.6017 64.37 47.5657 64.778C47.5297 65.186 47.4757 65.546 47.4037 65.858C47.3317 66.17 47.2357 66.44 47.1157 66.668C46.9957 66.884 46.8457 67.082 46.6657 67.262C46.3897 67.538 46.0477 67.748 45.6397 67.892C45.2437 68.036 44.8117 68.108 44.3437 68.108C43.8517 68.108 43.4377 68.036 43.1017 67.892C42.7777 67.748 42.4477 67.508 42.1117 67.172V71.438H39.7717V58.622H42.0397V59.504ZM55.118 68V62.276L51.824 68H49.466V58.622H51.824V64.202L55.118 58.622H57.476V68H55.118ZM66.4016 65.228C66.4016 65.66 66.3056 66.056 66.1136 66.416C65.9216 66.764 65.6576 67.064 65.3216 67.316C64.9976 67.568 64.6196 67.766 64.1876 67.91C63.7556 68.042 63.2996 68.108 62.8196 68.108C62.0756 68.108 61.3436 68.012 60.6236 67.82C59.9156 67.628 59.2796 67.28 58.7156 66.776L60.0656 65.3C60.4016 65.6 60.7676 65.816 61.1636 65.948C61.5716 66.068 61.9976 66.128 62.4416 66.128C62.6456 66.128 62.8436 66.11 63.0356 66.074C63.2396 66.026 63.4136 65.96 63.5576 65.876C63.7136 65.78 63.8396 65.666 63.9356 65.534C64.0316 65.402 64.0796 65.246 64.0796 65.066C64.0796 64.718 63.9596 64.466 63.7196 64.31C63.4796 64.142 63.1496 64.058 62.7296 64.058H61.3076V62.384H62.6936C63.0776 62.384 63.3836 62.294 63.6116 62.114C63.8396 61.922 63.9536 61.67 63.9536 61.358C63.9536 61.034 63.8096 60.794 63.5216 60.638C63.2336 60.482 62.8496 60.404 62.3696 60.404C62.0216 60.404 61.6736 60.458 61.3256 60.566C60.9776 60.674 60.6476 60.836 60.3356 61.052L59.0396 59.612C59.5796 59.192 60.1676 58.904 60.8036 58.748C61.4516 58.592 62.1296 58.514 62.8376 58.514C63.2816 58.514 63.7076 58.568 64.1156 58.676C64.5356 58.784 64.9016 58.946 65.2136 59.162C65.5376 59.378 65.7896 59.648 65.9696 59.972C66.1616 60.284 66.2576 60.644 66.2576 61.052C66.2576 61.496 66.1376 61.898 65.8976 62.258C65.6696 62.618 65.3636 62.888 64.9796 63.068C65.3996 63.248 65.7416 63.53 66.0056 63.914C66.2696 64.286 66.4016 64.724 66.4016 65.228ZM75.5113 68V62.582L73.7473 66.056H72.4153L70.6333 62.582V68H68.2753V58.622H70.5973L73.0813 63.554L75.5473 58.622H77.8513V68H75.5113ZM89.5725 68V62.276L86.2785 68H83.9205V58.622H86.2785V64.202L89.5725 58.622H91.9305V68H89.5725ZM103.636 68V62.276L100.342 68H97.9837V58.622H100.342V64.202L103.636 58.622H105.994V68H103.636ZM113.587 68V64.238H110.581V68H108.223V58.622H110.581V62.168H113.587V58.622H115.945V68H113.587ZM123.582 60.692H121.494C121.494 60.764 121.494 60.866 121.494 60.998C121.494 61.118 121.494 61.244 121.494 61.376C121.494 61.508 121.488 61.634 121.476 61.754C121.476 61.862 121.476 61.946 121.476 62.006C121.44 62.882 121.344 63.62 121.188 64.22C121.044 64.808 120.87 65.378 120.666 65.93H123.582V60.692ZM124.896 70.304V68H119.442V70.304H117.228V65.93H118.236C118.392 65.51 118.524 65.096 118.632 64.688C118.752 64.28 118.854 63.836 118.938 63.356C119.022 62.864 119.082 62.312 119.118 61.7C119.166 61.076 119.19 60.344 119.19 59.504V58.622H125.922V65.93H127.11V70.304H124.896ZM131.966 69.512C131.714 70.196 131.378 70.688 130.958 70.988C130.538 71.288 129.968 71.438 129.248 71.438H128.33V69.332H128.87C129.218 69.332 129.47 69.272 129.626 69.152C129.782 69.044 129.92 68.822 130.04 68.486L130.436 67.334L127.232 58.622H129.698L131.642 64.418L133.514 58.622H135.98L131.966 69.512ZM143.831 66.83C143.555 67.106 143.327 67.304 143.147 67.424C142.967 67.544 142.751 67.658 142.499 67.766C141.995 67.994 141.413 68.108 140.753 68.108C139.409 68.108 138.371 67.688 137.639 66.848C136.907 66.008 136.541 64.802 136.541 63.23C136.541 61.742 136.907 60.584 137.639 59.756C138.383 58.928 139.421 58.514 140.753 58.514C141.413 58.514 141.995 58.622 142.499 58.838C142.751 58.946 142.967 59.06 143.147 59.18C143.327 59.3 143.555 59.498 143.831 59.774L142.247 61.358C141.971 61.082 141.725 60.89 141.509 60.782C141.293 60.674 141.035 60.62 140.735 60.62C139.499 60.62 138.881 61.514 138.881 63.302C138.881 65.102 139.499 66.002 140.735 66.002C141.047 66.002 141.305 65.948 141.509 65.84C141.725 65.732 141.971 65.54 142.247 65.264L143.831 66.83ZM149.293 60.692V68H146.935V60.692H144.181V58.622H151.993V60.692H149.293ZM158.654 63.284C158.654 62.3 158.534 61.61 158.294 61.214C158.066 60.818 157.658 60.62 157.07 60.62C156.662 60.62 156.35 60.71 156.134 60.89C155.918 61.07 155.762 61.304 155.666 61.592C155.57 61.868 155.516 62.174 155.504 62.51C155.492 62.834 155.486 63.146 155.486 63.446C155.486 64.37 155.606 65.03 155.846 65.426C156.086 65.81 156.494 66.002 157.07 66.002C157.658 66.002 158.066 65.798 158.294 65.39C158.534 64.982 158.654 64.28 158.654 63.284ZM155.414 59.504C155.774 59.144 156.116 58.892 156.44 58.748C156.776 58.592 157.202 58.514 157.718 58.514C158.186 58.514 158.618 58.586 159.014 58.73C159.422 58.874 159.764 59.084 160.04 59.36C160.436 59.756 160.7 60.284 160.832 60.944C160.868 61.112 160.892 61.274 160.904 61.43C160.928 61.586 160.946 61.754 160.958 61.934C160.97 62.114 160.976 62.318 160.976 62.546C160.988 62.762 160.994 63.026 160.994 63.338C160.994 63.89 160.976 64.37 160.94 64.778C160.904 65.186 160.85 65.546 160.778 65.858C160.706 66.17 160.61 66.44 160.49 66.668C160.37 66.884 160.22 67.082 160.04 67.262C159.764 67.538 159.422 67.748 159.014 67.892C158.618 68.036 158.186 68.108 157.718 68.108C157.226 68.108 156.812 68.036 156.476 67.892C156.152 67.748 155.822 67.508 155.486 67.172V71.438H153.146V58.622H155.414V59.504ZM168.493 68V62.276L165.199 68H162.841V58.622H165.199V64.202L168.493 58.622H170.851V68H168.493ZM177.994 60.53H176.158C175.774 60.53 175.474 60.644 175.258 60.872C175.042 61.088 174.934 61.37 174.934 61.718C174.934 62.066 175.042 62.348 175.258 62.564C175.474 62.768 175.774 62.87 176.158 62.87H177.994V60.53ZM177.958 68V64.778H176.698L175.15 68H172.414L174.394 64.274C173.854 64.07 173.422 63.74 173.098 63.284C172.786 62.816 172.63 62.258 172.63 61.61C172.63 61.178 172.708 60.782 172.864 60.422C173.02 60.062 173.236 59.75 173.512 59.486C173.788 59.21 174.118 59 174.502 58.856C174.886 58.7 175.306 58.622 175.762 58.622H180.298V68H177.958ZM23.708 84.692V92H21.368V82.622H27.578V84.692H23.708ZM33.9607 87.302C33.9607 87.002 33.9487 86.696 33.9247 86.384C33.9007 86.06 33.8347 85.772 33.7267 85.52C33.6187 85.256 33.4507 85.04 33.2227 84.872C33.0067 84.704 32.7067 84.62 32.3227 84.62C31.9267 84.62 31.6147 84.71 31.3867 84.89C31.1707 85.07 31.0087 85.304 30.9007 85.592C30.8047 85.868 30.7447 86.174 30.7207 86.51C30.7087 86.834 30.7027 87.146 30.7027 87.446C30.7027 88.346 30.8287 89 31.0807 89.408C31.3327 89.804 31.7467 90.002 32.3227 90.002C32.7187 90.002 33.0247 89.918 33.2407 89.75C33.4567 89.582 33.6187 89.372 33.7267 89.12C33.8347 88.856 33.9007 88.568 33.9247 88.256C33.9487 87.932 33.9607 87.614 33.9607 87.302ZM36.3007 87.266C36.3007 87.746 36.2827 88.172 36.2467 88.544C36.2107 88.904 36.1507 89.228 36.0667 89.516C35.9827 89.804 35.8687 90.068 35.7247 90.308C35.5927 90.536 35.4307 90.752 35.2387 90.956C34.5067 91.724 33.5347 92.108 32.3227 92.108C31.1227 92.108 30.1567 91.724 29.4247 90.956C29.2207 90.752 29.0527 90.536 28.9207 90.308C28.7887 90.068 28.6807 89.804 28.5967 89.516C28.5127 89.228 28.4527 88.904 28.4167 88.544C28.3807 88.184 28.3627 87.77 28.3627 87.302C28.3627 86.834 28.3807 86.426 28.4167 86.078C28.4527 85.718 28.5127 85.394 28.5967 85.106C28.6807 84.818 28.7887 84.56 28.9207 84.332C29.0647 84.092 29.2327 83.87 29.4247 83.666C30.1567 82.898 31.1227 82.514 32.3227 82.514C33.5347 82.514 34.5067 82.898 35.2387 83.666C35.6227 84.074 35.8927 84.548 36.0487 85.088C36.2167 85.628 36.3007 86.354 36.3007 87.266ZM44.9941 90.83C44.7181 91.106 44.4901 91.304 44.3101 91.424C44.1301 91.544 43.9141 91.658 43.6621 91.766C43.1581 91.994 42.5761 92.108 41.9161 92.108C40.5721 92.108 39.5341 91.688 38.8021 90.848C38.0701 90.008 37.7041 88.802 37.7041 87.23C37.7041 85.742 38.0701 84.584 38.8021 83.756C39.5461 82.928 40.5841 82.514 41.9161 82.514C42.5761 82.514 43.1581 82.622 43.6621 82.838C43.9141 82.946 44.1301 83.06 44.3101 83.18C44.4901 83.3 44.7181 83.498 44.9941 83.774L43.4101 85.358C43.1341 85.082 42.8881 84.89 42.6721 84.782C42.4561 84.674 42.1981 84.62 41.8981 84.62C40.6621 84.62 40.0441 85.514 40.0441 87.302C40.0441 89.102 40.6621 90.002 41.8981 90.002C42.2101 90.002 42.4681 89.948 42.6721 89.84C42.8881 89.732 43.1341 89.54 43.4101 89.264L44.9941 90.83ZM50.4566 84.692V92H48.0986V84.692H45.3446V82.622H53.1566V84.692H50.4566ZM59.7095 86.438C59.6735 85.79 59.4995 85.298 59.1875 84.962C58.8875 84.626 58.4675 84.458 57.9275 84.458C57.3875 84.458 56.9615 84.632 56.6495 84.98C56.3375 85.316 56.1695 85.802 56.1455 86.438H59.7095ZM56.1455 88.04C56.2175 89.432 56.9315 90.128 58.2875 90.128C58.6835 90.128 59.0435 90.062 59.3675 89.93C59.5355 89.858 59.6855 89.78 59.8175 89.696C59.9495 89.6 60.1175 89.45 60.3215 89.246L61.7435 90.632C61.5635 90.8 61.4075 90.944 61.2755 91.064C61.1435 91.172 61.0175 91.268 60.8975 91.352C60.7775 91.436 60.6515 91.514 60.5195 91.586C60.3995 91.646 60.2675 91.706 60.1235 91.766C59.8475 91.874 59.5475 91.958 59.2235 92.018C58.9115 92.078 58.5695 92.108 58.1975 92.108C55.2935 92.108 53.8415 90.5 53.8415 87.284C53.8415 86.552 53.9375 85.892 54.1295 85.304C54.3215 84.716 54.5915 84.218 54.9395 83.81C55.2875 83.39 55.7135 83.072 56.2175 82.856C56.7215 82.628 57.2915 82.514 57.9275 82.514C58.5515 82.514 59.1155 82.622 59.6195 82.838C60.1235 83.042 60.5495 83.342 60.8975 83.738C61.2575 84.122 61.5335 84.59 61.7255 85.142C61.9175 85.694 62.0135 86.312 62.0135 86.996V88.04H56.1455ZM69.1569 92V84.692H66.1509V92H63.7929V82.622H71.5149V92H69.1569ZM79.2772 87.284C79.2772 86.3 79.1572 85.61 78.9172 85.214C78.6892 84.818 78.2812 84.62 77.6932 84.62C77.2852 84.62 76.9732 84.71 76.7572 84.89C76.5412 85.07 76.3852 85.304 76.2892 85.592C76.1932 85.868 76.1392 86.174 76.1272 86.51C76.1152 86.834 76.1092 87.146 76.1092 87.446C76.1092 88.37 76.2292 89.03 76.4692 89.426C76.7092 89.81 77.1172 90.002 77.6932 90.002C78.2812 90.002 78.6892 89.798 78.9172 89.39C79.1572 88.982 79.2772 88.28 79.2772 87.284ZM76.0372 83.504C76.3972 83.144 76.7392 82.892 77.0632 82.748C77.3992 82.592 77.8252 82.514 78.3412 82.514C78.8092 82.514 79.2412 82.586 79.6372 82.73C80.0452 82.874 80.3872 83.084 80.6632 83.36C81.0592 83.756 81.3232 84.284 81.4552 84.944C81.4912 85.112 81.5152 85.274 81.5272 85.43C81.5512 85.586 81.5692 85.754 81.5812 85.934C81.5932 86.114 81.5992 86.318 81.5992 86.546C81.6112 86.762 81.6172 87.026 81.6172 87.338C81.6172 87.89 81.5992 88.37 81.5632 88.778C81.5272 89.186 81.4732 89.546 81.4012 89.858C81.3292 90.17 81.2332 90.44 81.1132 90.668C80.9932 90.884 80.8432 91.082 80.6632 91.262C80.3872 91.538 80.0452 91.748 79.6372 91.892C79.2412 92.036 78.8092 92.108 78.3412 92.108C77.8492 92.108 77.4352 92.036 77.0992 91.892C76.7752 91.748 76.4452 91.508 76.1092 91.172V95.438H73.7692V82.622H76.0372V83.504ZM89.1155 92V86.276L85.8215 92H83.4635V82.622H85.8215V88.202L89.1155 82.622H91.4735V92H89.1155ZM99.3551 92V86.276L96.0611 92H93.7031V82.622H96.0611V88.202L99.3551 82.622H101.713V92H99.3551ZM111.179 92V86.582L109.415 90.056H108.083L106.301 86.582V92H103.943V82.622H106.265L108.749 87.554L111.215 82.622H113.519V92H111.179ZM122.604 90.83C122.328 91.106 122.1 91.304 121.92 91.424C121.74 91.544 121.524 91.658 121.272 91.766C120.768 91.994 120.186 92.108 119.526 92.108C118.182 92.108 117.144 91.688 116.412 90.848C115.68 90.008 115.314 88.802 115.314 87.23C115.314 85.742 115.68 84.584 116.412 83.756C117.156 82.928 118.194 82.514 119.526 82.514C120.186 82.514 120.768 82.622 121.272 82.838C121.524 82.946 121.74 83.06 121.92 83.18C122.1 83.3 122.328 83.498 122.604 83.774L121.02 85.358C120.744 85.082 120.498 84.89 120.282 84.782C120.066 84.674 119.808 84.62 119.508 84.62C118.272 84.62 117.654 85.514 117.654 87.302C117.654 89.102 118.272 90.002 119.508 90.002C119.82 90.002 120.078 89.948 120.282 89.84C120.498 89.732 120.744 89.54 121.02 89.264L122.604 90.83ZM128.067 84.692V92H125.709V84.692H122.955V82.622H130.767V84.692H128.067ZM137.248 89.174C137.248 88.826 137.146 88.562 136.942 88.382C136.738 88.19 136.45 88.094 136.078 88.094H134.224V90.272H136.078C136.45 90.272 136.738 90.176 136.942 89.984C137.146 89.78 137.248 89.51 137.248 89.174ZM134.224 84.35V86.348H135.97C136.726 86.348 137.104 86.012 137.104 85.34C137.104 84.68 136.726 84.35 135.97 84.35H134.224ZM139.57 89.3C139.57 90.128 139.312 90.788 138.796 91.28C138.28 91.76 137.578 92 136.69 92H131.902V82.622H136.528C137.416 82.622 138.118 82.856 138.634 83.324C139.162 83.78 139.426 84.404 139.426 85.196C139.426 86.06 139.03 86.72 138.238 87.176C138.694 87.416 139.03 87.704 139.246 88.04C139.462 88.376 139.57 88.796 139.57 89.3ZM144.354 88.04C143.934 88.04 143.61 88.13 143.382 88.31C143.154 88.49 143.04 88.754 143.04 89.102C143.04 89.822 143.532 90.182 144.516 90.182C145.128 90.182 145.56 90.056 145.812 89.804C146.076 89.552 146.208 89.132 146.208 88.544V88.04H144.354ZM146.262 92V91.19C146.058 91.394 145.89 91.544 145.758 91.64C145.626 91.724 145.47 91.802 145.29 91.874C144.93 92.018 144.486 92.09 143.958 92.09C142.95 92.09 142.17 91.838 141.618 91.334C141.066 90.818 140.79 90.098 140.79 89.174C140.79 88.322 141.072 87.656 141.636 87.176C142.212 86.684 142.998 86.438 143.994 86.438H146.208V85.97C146.208 85.442 146.07 85.064 145.794 84.836C145.518 84.608 145.062 84.494 144.426 84.494C144.222 84.494 144.042 84.506 143.886 84.53C143.73 84.554 143.58 84.596 143.436 84.656C143.304 84.716 143.178 84.794 143.058 84.89C142.938 84.986 142.806 85.112 142.662 85.268L141.168 83.81C141.3 83.678 141.42 83.564 141.528 83.468C141.636 83.372 141.732 83.288 141.816 83.216C141.912 83.144 142.008 83.084 142.104 83.036C142.2 82.976 142.308 82.916 142.428 82.856C142.956 82.628 143.646 82.514 144.498 82.514C147.198 82.514 148.548 83.618 148.548 85.826V92H146.262Z" fill="white"/>
<path style="transform: translateX(60px);" d="M227.023 26.6383L197.096 90.8108C197.017 90.9586 196.985 91.1275 197.006 91.294C197.027 91.4604 197.1 91.6162 197.213 91.7396C197.327 91.863 197.476 91.9479 197.641 91.9826C197.805 92.0172 197.976 91.9999 198.129 91.933L292.003 57.776C292.17 57.7198 292.314 57.6105 292.413 57.4647C292.512 57.3189 292.561 57.1447 292.552 56.9687V26.9854C292.552 26.7713 292.466 26.566 292.315 26.4146C292.164 26.2632 291.958 26.1781 291.744 26.1781H227.774C227.616 26.1753 227.46 26.2189 227.327 26.3036C227.193 26.3883 227.088 26.5103 227.023 26.6544" fill="white"/>
<path style="transform: translateX(60px);" d="M231.39 31.361H229.913V27.8412H228.613V36.0838H229.913V32.5397H231.39V36.0838H232.714V27.8412H231.39V31.361ZM286.182 27.8412H284.882V36.0838H286.182V27.8412ZM234.862 27.8412L233.538 36.0838H234.732L234.958 34.5822H236.573L236.799 36.0838H238.107L236.767 27.8412H234.862ZM235.12 33.4923L235.75 29.3105L236.371 33.4923H235.12ZM246.099 31.2561L245.623 33.0806V27.8412H244.468V36.0838H245.801L246.89 32.2894L247.423 30.2631V36.0918H248.594V27.8412H247.157L246.099 31.2561ZM266.726 34.0251L266.863 29.0279H268.001V36.1161H269.317V27.8412H265.644L265.434 34.0817C265.434 34.889 265.224 34.9374 264.627 34.9374V36.1161H264.821C266.12 36.1161 266.669 35.5267 266.718 34.0171L266.726 34.0251ZM284.131 34.0655V32.9595C284.131 31.6436 283.493 30.917 282.194 30.917H281.58V27.8412H280.28V36.0838H282.194C283.493 36.0838 284.131 35.3572 284.131 34.0413V34.0655ZM281.58 32.1038H282.194C282.605 32.1038 282.831 32.2894 282.831 32.9111V34.1543C282.831 34.7436 282.605 34.9616 282.194 34.9616H281.58V32.1038ZM274.242 34.0413V32.9595C274.242 31.6436 273.604 30.917 272.296 30.917H271.683V27.8412H270.391V36.0838H272.296C273.604 36.0838 274.242 35.3572 274.242 34.0413V34.0413ZM271.683 32.1038H272.296C272.716 32.1038 272.942 32.2894 272.942 32.9111V34.1543C272.942 34.7436 272.716 34.9616 272.296 34.9616H271.683V32.1038ZM276.454 32.5397H277.939V36.0838H279.255V27.8412H277.939V31.3853H276.454V27.8412H275.162V36.0838H276.454V32.5397ZM243.007 27.8412H241.683V34.9212H240.206V27.8412H238.906V36.0838H242.305V37.1898H243.564V34.9212H242.999L243.007 27.8412ZM262.649 36.108H263.957L262.633 27.8412H260.728L259.404 36.108H260.598L260.824 34.6064H262.439L262.649 36.108ZM261.034 33.4842L261.656 29.3024L262.286 33.4842H261.034ZM290.808 29.0199V27.8412H287.264V36.0838H290.808V34.897H288.563V32.4751H290.347V31.2965H288.563V28.9956L290.808 29.0199ZM251.524 27.7201C251.251 27.697 250.975 27.7357 250.718 27.8334C250.462 27.9311 250.23 28.0852 250.041 28.2844C249.852 28.4836 249.71 28.7228 249.626 28.9842C249.542 29.2457 249.517 29.5227 249.554 29.7949V34.0978C249.554 34.3565 249.605 34.6126 249.704 34.8516C249.803 35.0906 249.948 35.3078 250.131 35.4907C250.314 35.6736 250.531 35.8187 250.77 35.9177C251.009 36.0167 251.266 36.0676 251.524 36.0676C251.783 36.0676 252.039 36.0167 252.278 35.9177C252.517 35.8187 252.734 35.6736 252.917 35.4907C253.1 35.3078 253.245 35.0906 253.344 34.8516C253.443 34.6126 253.494 34.3565 253.494 34.0978V29.7949C253.531 29.5227 253.507 29.2457 253.423 28.9842C253.339 28.7228 253.197 28.4836 253.007 28.2844C252.818 28.0852 252.587 27.9311 252.33 27.8334C252.073 27.7357 251.798 27.697 251.524 27.7201V27.7201ZM252.194 34.1785C252.194 34.7679 251.936 34.9858 251.524 34.9858C251.113 34.9858 250.846 34.7598 250.846 34.1785V29.7141C250.846 29.1248 251.113 28.9068 251.524 28.9068C251.936 28.9068 252.194 29.1329 252.194 29.7141V34.1785ZM255.771 32.5639H257.288V36.108H258.604V27.8412H257.288V31.3853H255.811V27.8412H254.511V36.0838H255.811L255.771 32.5639ZM273.992 38.9416V37.7387H270.447V46.0055H273.992V44.7946H271.747V42.3727H273.531V41.2182H271.747V38.9174L273.992 38.9416ZM277.891 46.0297H279.223L277.414 41.4443L279.223 37.763H277.923L276.22 41.3635V37.7387H274.928V46.0055H276.22V43.4625L276.623 42.7036L277.891 46.0297ZM282.549 46.0297V38.9174H283.929V37.7387H279.893V38.9174H281.249V46.0055L282.549 46.0297ZM288.579 43.9873V42.8813C288.579 41.5573 287.942 40.8388 286.642 40.8388H286.028V37.7387H284.737V46.0055H286.65C287.95 46.0055 288.588 45.287 288.588 43.963L288.579 43.9873ZM286.036 42.0255H286.65C287.07 42.0255 287.288 42.2112 287.288 42.8328V44.0761C287.288 44.6654 287.07 44.8834 286.65 44.8834H286.036V42.0255ZM264.748 40.8549V39.7812C264.748 38.4572 264.11 37.7387 262.81 37.7387H260.897V46.0055H262.197V42.8974H262.81C264.11 42.8974 264.748 42.1789 264.748 40.8549V40.8549ZM262.197 38.9174H262.81C263.222 38.9174 263.448 39.1031 263.448 39.7247V40.9679C263.448 41.5573 263.222 41.7752 262.81 41.7752H262.197V38.9174ZM255.738 46.0055H257.038V38.9174H258.516V46.0055H259.831V37.7387H255.755L255.738 46.0055ZM289.306 46.0055H290.606V37.7387H289.306V46.0055ZM267.509 37.6419C267.235 37.6187 266.96 37.6575 266.703 37.7551C266.446 37.8528 266.215 38.007 266.026 38.2062C265.837 38.4054 265.695 38.6445 265.61 38.906C265.526 39.1674 265.502 39.4445 265.539 39.7166V43.9873C265.522 44.2571 265.56 44.5276 265.651 44.7821C265.743 45.0365 265.885 45.2696 266.07 45.4667C266.255 45.6639 266.479 45.8211 266.727 45.9286C266.975 46.036 267.243 46.0915 267.513 46.0915C267.783 46.0915 268.051 46.036 268.299 45.9286C268.547 45.8211 268.77 45.6639 268.955 45.4667C269.14 45.2696 269.283 45.0365 269.374 44.7821C269.466 44.5276 269.504 44.2571 269.487 43.9873V39.7166C269.523 39.444 269.497 39.1669 269.412 38.9055C269.327 38.6441 269.184 38.4051 268.994 38.2061C268.804 38.0071 268.573 37.8531 268.316 37.7555C268.059 37.6578 267.783 37.619 267.509 37.6419V37.6419ZM268.187 44.1003C268.187 44.6896 267.929 44.9076 267.509 44.9076C267.089 44.9076 266.839 44.6815 266.839 44.1003V39.6359C266.839 39.0466 267.097 38.8286 267.509 38.8286C267.921 38.8286 268.187 39.0546 268.187 39.6359V44.1003ZM288.144 51.0673L287.667 52.8918V47.6524H286.513V55.9273H287.845L288.935 52.1329L289.468 50.0985V55.9273H290.63V47.6524H289.201L288.144 51.0673ZM268.938 47.5636C268.665 47.5418 268.39 47.5815 268.135 47.6797C267.879 47.7779 267.648 47.9323 267.46 48.1313C267.272 48.3304 267.131 48.5691 267.047 48.8299C266.963 49.0907 266.939 49.367 266.976 49.6384V53.9413C266.976 54.4637 267.184 54.9648 267.553 55.3342C267.922 55.7036 268.423 55.9111 268.946 55.9111C269.468 55.9111 269.969 55.7036 270.339 55.3342C270.708 54.9648 270.916 54.4637 270.916 53.9413V49.6384C270.953 49.3662 270.929 49.0892 270.844 48.8277C270.76 48.5663 270.618 48.3271 270.429 48.1279C270.24 47.9287 270.008 47.7746 269.752 47.6769C269.495 47.5792 269.22 47.5405 268.946 47.5636H268.938ZM269.616 54.022C269.616 54.6114 269.358 54.8293 268.946 54.8293C268.534 54.8293 268.268 54.6033 268.268 54.022V49.5577C268.268 48.9683 268.534 48.7503 268.946 48.7503C269.358 48.7503 269.616 48.9764 269.616 49.5577V54.022ZM264.239 47.6524H262.326V55.9273H263.626V52.8192H264.239C265.539 52.8192 266.177 52.1007 266.177 50.7767V49.703C266.177 48.379 265.539 47.6524 264.239 47.6524ZM264.877 50.8816C264.877 51.471 264.659 51.6889 264.239 51.6889H263.626V48.8311H264.239C264.659 48.8311 264.877 49.0168 264.877 49.6384V50.8816ZM273.757 47.5878C272.482 47.5878 271.82 48.3386 271.82 49.6626V53.9655C271.82 55.2895 272.482 56.0403 273.757 56.0403C275.033 56.0403 275.695 55.2895 275.695 53.9655V52.8676H274.46V54.0463C274.46 54.6356 274.201 54.8536 273.79 54.8536C273.378 54.8536 273.12 54.6356 273.12 54.0463V49.5577C273.12 48.9683 273.378 48.7503 273.79 48.7503C274.201 48.7503 274.46 48.9764 274.46 49.5577V50.4457H275.695V49.6384C275.695 48.3144 275.033 47.5636 273.757 47.5636V47.5878ZM278.504 47.5636C277.229 47.5636 276.567 48.3144 276.567 49.6384V53.9413C276.567 55.2653 277.229 56.0161 278.504 56.0161C279.78 56.0161 280.442 55.2653 280.442 53.9413V52.8676H279.215V54.0463C279.215 54.6356 278.956 54.8536 278.545 54.8536C278.133 54.8536 277.867 54.6356 277.867 54.0463V49.5577C277.867 48.9683 278.133 48.7503 278.545 48.7503C278.956 48.7503 279.215 48.9764 279.215 49.5577V50.4457H280.442V49.6384C280.442 48.3144 279.78 47.5636 278.504 47.5636ZM283.001 51.0673L282.525 52.8918V47.6524H281.37V55.9273H282.702L283.792 52.1329L284.325 50.0985V55.9273H285.496V47.6524H284.067L283.001 51.0673Z" fill="#208076"/>
<path d="M25.556 35V31.424H22.664V35H20.996V26.456H22.664V29.948H25.556V26.456H27.224V35H25.556ZM32.0788 28.976L30.9988 32.084H33.1228L32.0788 28.976ZM34.0708 35L33.5668 33.488H30.5308L30.0148 35H28.2748L31.3828 26.456H32.6908L35.8108 35H34.0708ZM42.4792 36.896V35H36.8632V26.456H38.5312V33.512H41.4232V26.456H43.0912V33.512H44.0872V36.896H42.4792ZM50.2182 35V29.516L46.8942 35H45.4062V26.456H47.0742V31.928L50.3982 26.456H51.8862V35H50.2182ZM58.2348 30.572C58.2348 30.22 58.2268 29.924 58.2108 29.684C58.2028 29.436 58.1828 29.228 58.1508 29.06C58.1188 28.892 58.0748 28.752 58.0188 28.64C57.9628 28.528 57.8948 28.424 57.8148 28.328C57.5508 28.024 57.1948 27.872 56.7468 27.872C56.5308 27.872 56.3308 27.912 56.1468 27.992C55.9628 28.064 55.8028 28.176 55.6668 28.328C55.4748 28.536 55.3588 28.836 55.3188 29.228C55.2788 29.62 55.2588 30.08 55.2588 30.608C55.2588 30.872 55.2588 31.132 55.2588 31.388C55.2588 31.636 55.2708 31.872 55.2948 32.096C55.3188 32.312 55.3588 32.512 55.4148 32.696C55.4708 32.872 55.5548 33.016 55.6668 33.128C55.9708 33.432 56.3308 33.584 56.7468 33.584C57.1948 33.584 57.5508 33.432 57.8148 33.128C57.9028 33.032 57.9748 32.928 58.0308 32.816C58.0868 32.696 58.1268 32.544 58.1508 32.36C58.1828 32.168 58.2028 31.932 58.2108 31.652C58.2268 31.364 58.2348 31.004 58.2348 30.572ZM59.9028 30.728C59.9028 31.032 59.8988 31.336 59.8908 31.64C59.8908 31.944 59.8668 32.244 59.8188 32.54C59.7708 32.828 59.6868 33.108 59.5668 33.38C59.4468 33.644 59.2748 33.896 59.0508 34.136C58.4508 34.76 57.6828 35.072 56.7468 35.072C55.8108 35.072 55.0388 34.76 54.4308 34.136C54.2068 33.904 54.0348 33.648 53.9148 33.368C53.8028 33.088 53.7228 32.8 53.6748 32.504C53.6268 32.208 53.5988 31.92 53.5908 31.64C53.5908 31.352 53.5908 31.088 53.5908 30.848V30.38C53.5908 29.956 53.6028 29.592 53.6268 29.288C53.6508 28.976 53.6948 28.704 53.7588 28.472C53.8228 28.232 53.9068 28.024 54.0108 27.848C54.1228 27.664 54.2628 27.488 54.4308 27.32C55.0388 26.696 55.8108 26.384 56.7468 26.384C57.6748 26.384 58.4428 26.696 59.0508 27.32C59.3468 27.624 59.5628 27.996 59.6988 28.436C59.8348 28.876 59.9028 29.44 59.9028 30.128V30.728ZM66.1615 35V31.424H63.2695V35H61.6015V26.456H63.2695V29.948H66.1615V26.456H67.8295V35H66.1615ZM72.6843 28.976L71.6043 32.084H73.7283L72.6843 28.976ZM74.6763 35L74.1723 33.488H71.1363L70.6203 35H68.8803L71.9883 26.456H73.2963L76.4163 35H74.6763ZM82.0287 35V27.944H80.0847L79.9887 31.52C79.9567 32.728 79.7167 33.612 79.2687 34.172C78.8287 34.724 78.1927 35 77.3607 35H76.6287V33.512H76.9047C77.0967 33.512 77.2727 33.484 77.4327 33.428C77.6007 33.364 77.7487 33.256 77.8767 33.104C78.0047 32.944 78.1047 32.732 78.1767 32.468C78.2487 32.196 78.2927 31.856 78.3087 31.448L78.4407 26.456H83.6967V35H82.0287ZM90.1592 32.336C90.1592 31.984 90.0472 31.7 89.8232 31.484C89.6072 31.268 89.3072 31.16 88.9232 31.16H87.3632V33.512H88.9232C89.3072 33.512 89.6072 33.408 89.8232 33.2C90.0472 32.984 90.1592 32.696 90.1592 32.336ZM91.8272 32.336C91.8272 32.728 91.7592 33.088 91.6232 33.416C91.4952 33.736 91.3072 34.016 91.0592 34.256C90.8192 34.488 90.5272 34.672 90.1832 34.808C89.8472 34.936 89.4712 35 89.0552 35H85.6952V26.456H87.3632V29.672H89.0552C89.4712 29.672 89.8472 29.74 90.1832 29.876C90.5272 30.004 90.8192 30.188 91.0592 30.428C91.3072 30.66 91.4952 30.94 91.6232 31.268C91.7592 31.588 91.8272 31.944 91.8272 32.336ZM97.7904 35V31.424H94.8984V35H93.2304V26.456H94.8984V29.948H97.7904V26.456H99.4584V35H97.7904ZM105.909 32.336C105.909 31.984 105.797 31.7 105.573 31.484C105.357 31.268 105.057 31.16 104.673 31.16H103.113V33.512H104.673C105.057 33.512 105.357 33.408 105.573 33.2C105.797 32.984 105.909 32.696 105.909 32.336ZM107.577 32.336C107.577 32.728 107.509 33.088 107.373 33.416C107.245 33.736 107.057 34.016 106.809 34.256C106.569 34.488 106.277 34.672 105.933 34.808C105.597 34.936 105.221 35 104.805 35H101.445V26.456H103.113V29.672H104.805C105.221 29.672 105.597 29.74 105.933 29.876C106.277 30.004 106.569 30.188 106.809 30.428C107.057 30.66 107.245 30.94 107.373 31.268C107.509 31.588 107.577 31.944 107.577 32.336ZM108.501 35V26.456H110.169V35H108.501ZM116.968 35V29.516L113.644 35H112.156V26.456H113.824V31.928L117.148 26.456H118.636V35H116.968ZM117.364 24.224C117.3 24.792 117.108 25.232 116.788 25.544C116.468 25.848 116.008 26 115.408 26C114.808 26 114.348 25.848 114.028 25.544C113.708 25.232 113.52 24.792 113.464 24.224H114.52C114.56 24.44 114.652 24.608 114.796 24.728C114.94 24.848 115.148 24.908 115.42 24.908C115.692 24.908 115.896 24.848 116.032 24.728C116.168 24.608 116.256 24.44 116.296 24.224H117.364ZM127.978 35V27.944H125.086V35H123.418V26.456H129.646V35H127.978ZM134.861 30.284C135.237 30.284 135.537 30.18 135.761 29.972C135.985 29.764 136.097 29.48 136.097 29.12C136.097 28.76 135.985 28.476 135.761 28.268C135.537 28.052 135.237 27.944 134.861 27.944H133.301V30.284H134.861ZM134.945 26.456C135.353 26.456 135.729 26.524 136.073 26.66C136.425 26.788 136.725 26.972 136.973 27.212C137.221 27.444 137.413 27.724 137.549 28.052C137.693 28.372 137.765 28.728 137.765 29.12C137.765 29.512 137.693 29.872 137.549 30.2C137.413 30.52 137.221 30.8 136.973 31.04C136.725 31.272 136.429 31.456 136.085 31.592C135.741 31.72 135.361 31.784 134.945 31.784H133.301V35H131.633V26.456H134.945ZM143.524 30.572C143.524 30.22 143.516 29.924 143.5 29.684C143.492 29.436 143.472 29.228 143.44 29.06C143.408 28.892 143.364 28.752 143.308 28.64C143.252 28.528 143.184 28.424 143.104 28.328C142.84 28.024 142.484 27.872 142.036 27.872C141.82 27.872 141.62 27.912 141.436 27.992C141.252 28.064 141.092 28.176 140.956 28.328C140.764 28.536 140.648 28.836 140.608 29.228C140.568 29.62 140.548 30.08 140.548 30.608C140.548 30.872 140.548 31.132 140.548 31.388C140.548 31.636 140.56 31.872 140.584 32.096C140.608 32.312 140.648 32.512 140.704 32.696C140.76 32.872 140.844 33.016 140.956 33.128C141.26 33.432 141.62 33.584 142.036 33.584C142.484 33.584 142.84 33.432 143.104 33.128C143.192 33.032 143.264 32.928 143.32 32.816C143.376 32.696 143.416 32.544 143.44 32.36C143.472 32.168 143.492 31.932 143.5 31.652C143.516 31.364 143.524 31.004 143.524 30.572ZM145.192 30.728C145.192 31.032 145.188 31.336 145.18 31.64C145.18 31.944 145.156 32.244 145.108 32.54C145.06 32.828 144.976 33.108 144.856 33.38C144.736 33.644 144.564 33.896 144.34 34.136C143.74 34.76 142.972 35.072 142.036 35.072C141.1 35.072 140.328 34.76 139.72 34.136C139.496 33.904 139.324 33.648 139.204 33.368C139.092 33.088 139.012 32.8 138.964 32.504C138.916 32.208 138.888 31.92 138.88 31.64C138.88 31.352 138.88 31.088 138.88 30.848V30.38C138.88 29.956 138.892 29.592 138.916 29.288C138.94 28.976 138.984 28.704 139.048 28.472C139.112 28.232 139.196 28.024 139.3 27.848C139.412 27.664 139.552 27.488 139.72 27.32C140.328 26.696 141.1 26.384 142.036 26.384C142.964 26.384 143.732 26.696 144.34 27.32C144.636 27.624 144.852 27.996 144.988 28.436C145.124 28.876 145.192 29.44 145.192 30.128V30.728ZM146.891 35V26.456H152.519V27.944H148.559V29.948H151.931V31.436H148.559V33.512H152.519V35H146.891ZM159.124 35L156.928 31.112L155.824 32.432V35H154.156V26.456H155.824V30.176L158.836 26.456H160.864L158.032 29.852L161.068 35H159.124ZM165.401 27.944V35H163.733V27.944H161.501V26.456H167.633V27.944H165.401Z" fill="white"/>
</svg>
