<svg width="36" height="36" viewBox="0 0 36 36" fill="none" xmlns="http://www.w3.org/2000/svg">
<path d="M17.9824 24.2996C12.1374 24.2996 7.39368 19.5558 7.39368 13.7108V1.71024H28.5712V13.7108C28.5712 19.5558 23.8275 24.2996 17.9824 24.2996Z" stroke="#1F5BFF" stroke-width="3" stroke-miterlimit="10" stroke-linecap="round" stroke-linejoin="round"/>
<path d="M17.9825 24.2991C17.2766 27.1228 18.3074 32.3607 11.8694 34.182C15.9496 34.182 20.0155 34.182 24.0957 34.182C17.6578 32.3607 18.6884 27.1228 17.9825 24.2991Z" stroke="#1F5BFF" stroke-width="3" stroke-miterlimit="10" stroke-linecap="round" stroke-linejoin="round"/>
<path d="M28.5717 14.4174V3.12271H34.2191V8.77004C34.2191 11.8902 31.6919 14.4174 28.5717 14.4174Z" stroke="#1F5BFF" stroke-width="3" stroke-miterlimit="10" stroke-linecap="round" stroke-linejoin="round"/>
<path d="M7.3938 14.4174V3.12271H1.74646V8.77004C1.74646 11.8902 4.27365 14.4174 7.3938 14.4174Z" stroke="#1F5BFF" stroke-width="3" stroke-miterlimit="10" stroke-linecap="round" stroke-linejoin="round"/>
</svg>
