<svg width="36" height="30" viewBox="0 0 36 30" fill="none" xmlns="http://www.w3.org/2000/svg">
<g clip-path="url(#clip0_1695:7054)">
<path d="M27.1768 8.415C27.1768 10.8721 25.285 12.8579 22.9415 12.8579C20.598 12.8579 18.7062 10.8721 18.7062 8.415V5.8721C18.7062 3.41496 20.598 1.42926 22.9415 1.42926C25.285 1.42926 27.1768 3.41496 27.1768 5.8721V8.415Z" stroke="#1F5BFF" stroke-width="3" stroke-miterlimit="10" stroke-linecap="round" stroke-linejoin="round"/>
<path d="M11.6474 9.28677C13.5967 9.28677 15.1769 7.68779 15.1769 5.71535C15.1769 3.7429 13.5967 2.14392 11.6474 2.14392C9.69817 2.14392 8.11799 3.7429 8.11799 5.71535C8.11799 7.68779 9.69817 9.28677 11.6474 9.28677Z" stroke="#1F5BFF" stroke-width="3" stroke-miterlimit="10" stroke-linecap="round" stroke-linejoin="round"/>
<path d="M15.2053 17.3443C13.8077 16.3157 12.0995 15.7157 10.2359 15.7157C6.11357 15.7157 2.68298 18.7014 1.92063 22.6442C1.75122 23.5014 2.4571 24.2871 3.31827 24.2871H10.2359" stroke="#1F5BFF" stroke-width="3" stroke-miterlimit="10" stroke-linecap="round" stroke-linejoin="round"/>
<path d="M22.9418 17.1429C17.2525 17.1429 12.5371 21.4 11.7607 26.9428C11.6336 27.7999 12.3113 28.5715 13.1724 28.5715H32.7112C33.5724 28.5715 34.2359 27.7999 34.123 26.9428C33.3465 21.4 28.6312 17.1429 22.9418 17.1429Z" stroke="#1F5BFF" stroke-width="3" stroke-miterlimit="10" stroke-linecap="round" stroke-linejoin="round"/>
</g>
<defs>
<clipPath id="clip0_1695:7054">
<rect width="36" height="30" fill="white"/>
</clipPath>
</defs>
</svg>
