<svg width="28" height="38" viewBox="0 0 28 38" fill="none" xmlns="http://www.w3.org/2000/svg">
<g clip-path="url(#clip0_1695:7064)">
<path d="M11.5689 1.81616C18.4984 6.52541 36.9569 28.641 19.036 36.0924C21.9481 33.0373 23.0981 30.3994 22.2917 26.331C21.2015 21.9944 18.6327 18.7456 15.6159 15.8247C15.9594 20.9363 15.1381 24.7364 13.0473 27.0911C12.6889 25.0643 11.763 23.425 10.2248 22.2179C8.7762 25.422 7.19316 28.7303 7.40225 30.4143C7.49185 32.8584 9.65733 34.1848 11.5539 36.0774C8.05938 35.2131 4.3408 34.2742 2.59353 30.1163C-1.52829 20.2507 11.5689 9.2675 11.5689 1.81616Z" stroke="#1F5BFF" stroke-width="3" stroke-miterlimit="10" stroke-linecap="round" stroke-linejoin="round"/>
</g>
<defs>
<clipPath id="clip0_1695:7064">
<rect width="28" height="38" fill="white"/>
</clipPath>
</defs>
</svg>
