<svg width="35" height="36" viewBox="0 0 35 36" fill="none" xmlns="http://www.w3.org/2000/svg">
<g clip-path="url(#clip0_1695:7009)">
<path d="M24.859 20.401L31.4635 26.9942C32.5665 28.1095 32.5665 29.8885 31.4635 30.9898L30.4593 31.9921C29.3562 33.0933 27.5744 33.0933 26.4571 31.9921L19.8527 25.3988" stroke="#1F5BFF" stroke-width="3" stroke-miterlimit="10" stroke-linecap="round" stroke-linejoin="round"/>
<path d="M10.0661 15.6245L3.46171 9.0313C2.35863 7.91594 2.35863 6.13704 3.46171 5.03581L4.46593 4.03342C5.56901 2.93218 7.35085 2.93218 8.46808 4.03342L15.0725 10.6267" stroke="#1F5BFF" stroke-width="3" stroke-miterlimit="10" stroke-linecap="round" stroke-linejoin="round"/>
<path d="M19.8527 10.6267L26.4571 4.03342C27.5744 2.93218 29.3562 2.93218 30.4593 4.03342L31.4635 5.03581C32.5665 6.13704 32.5665 7.91594 31.4635 9.0313L24.859 15.6245" stroke="#1F5BFF" stroke-width="3" stroke-miterlimit="10" stroke-linecap="round" stroke-linejoin="round"/>
<path d="M10.0661 20.401L3.46171 26.9942C2.35863 28.1095 2.35863 29.8885 3.46171 30.9898L4.46593 31.9921C5.56901 33.0933 7.35085 33.0933 8.46808 31.9921L15.0725 25.3988" stroke="#1F5BFF" stroke-width="3" stroke-miterlimit="10" stroke-linecap="round" stroke-linejoin="round"/>
<path d="M8.75104 4.31773C11.2683 2.70824 14.2523 1.77642 17.4627 1.77642C20.6729 1.77642 23.6569 2.70824 26.1742 4.31773" stroke="#1F5BFF" stroke-width="3" stroke-miterlimit="10" stroke-linecap="round" stroke-linejoin="round"/>
<path d="M8.75104 31.7089C11.2683 33.3183 14.2523 34.2502 17.4627 34.2502C20.6729 34.2502 23.6569 33.3183 26.1742 31.7089" stroke="#1F5BFF" stroke-width="3" stroke-miterlimit="10" stroke-linecap="round" stroke-linejoin="round"/>
<path d="M3.74505 26.7102C2.13285 24.1972 1.1994 21.2182 1.1994 18.0133C1.1994 14.8085 2.13285 11.8295 3.74505 9.31641" stroke="#1F5BFF" stroke-width="3" stroke-miterlimit="10" stroke-linecap="round" stroke-linejoin="round"/>
<path d="M31.1812 9.31641C32.7934 11.8295 33.7268 14.8085 33.7268 18.0133C33.7268 21.2182 32.7934 24.1972 31.1812 26.7102" stroke="#1F5BFF" stroke-width="3" stroke-miterlimit="10" stroke-linecap="round" stroke-linejoin="round"/>
<path d="M17.4634 25.7772C21.7592 25.7772 25.2416 22.3006 25.2416 18.0121C25.2416 13.7235 21.7592 10.247 17.4634 10.247C13.1677 10.247 9.6853 13.7235 9.6853 18.0121C9.6853 22.3006 13.1677 25.7772 17.4634 25.7772Z" stroke="#1F5BFF" stroke-width="3" stroke-miterlimit="10" stroke-linecap="round" stroke-linejoin="round"/>
</g>
<defs>
<clipPath id="clip0_1695:7009">
<rect width="35" height="36" fill="white"/>
</clipPath>
</defs>
</svg>
