<svg width="134" height="61" viewBox="0 0 134 61" fill="none" xmlns="http://www.w3.org/2000/svg">
<g clip-path="url(#clip0_2377_10816)">
<path d="M88.5352 56.2337L101.055 61.0005L107.781 43.5475L95.2618 38.7617L88.5352 56.2337Z" fill="#E6280F"/>
<path d="M91.3164 7.2176L97.0712 38.7241L134.001 32.0202L128.246 0.513672L91.3164 7.2176Z" fill="#F59600"/>
<path d="M79.8231 53.4225C94.6294 53.4225 106.616 41.458 106.616 26.7207C106.616 11.9835 94.6294 0 79.8231 0C65.0168 0 53.0117 11.9645 53.0117 26.7017C53.0117 41.439 65.0168 53.4225 79.8231 53.4225Z" fill="#7D9B1E"/>
<path d="M133.905 40.9446L119.347 12.3438C114.125 14.9835 110.543 20.3961 110.543 26.6442C110.543 35.5131 117.746 42.6918 126.645 42.6918C129.237 42.6918 131.733 42.0651 133.905 40.9446Z" fill="#780050"/>
<path d="M83.0619 48.0098C84.5482 48.0098 85.7487 46.8134 85.7487 45.3321C85.7487 43.8507 84.5482 42.6543 83.0619 42.6543C81.5755 42.6543 80.375 43.8507 80.375 45.3321C80.375 46.8134 81.5755 48.0098 83.0619 48.0098Z" fill="#8CD2FF"/>
<path d="M5.35466 26.6445H0V31.9811H5.35466V26.6445Z" fill="#E6280F"/>
<path d="M69.1525 47.5544L72.7159 10.3505L19.3217 5.29883L15.7773 42.5028L69.1525 47.5544Z" fill="#780050"/>
<path d="M46.075 53.1764L54.8407 0.513592L53.6402 0.304688L44.8555 52.9675L46.075 53.1764Z" fill="#E6280F"/>
<path d="M21.9131 47.498L32.6796 23.0182L13.0712 14.4531L2.30469 38.9139L21.9131 47.498Z" fill="#E6280F"/>
<path d="M118.221 23.435C117.02 23.435 116.125 24.3466 116.125 25.4861C116.125 26.6255 117.02 27.5371 118.221 27.5371H118.469L115.801 31.8102V31.9811H117.135L119.917 27.5181H120.088V31.9811H121.308V23.416H118.221V23.435ZM120.088 26.3217H118.221C117.706 26.3217 117.344 25.9608 117.344 25.4861C117.344 25.0113 117.706 24.6504 118.221 24.6504H120.088V26.3217Z" fill="white"/>
<path d="M102.404 32.0006V23.4355H100.898L97.2968 29.7027H97.1253V23.4355H95.8867V32.0006H97.3921L100.994 25.7145H101.165V32.0006H102.404Z" fill="white"/>
<path d="M79.9009 32.1147C81.1205 32.1147 82.2257 31.6209 83.0261 30.8043L82.1686 29.9497C81.5969 30.5194 80.7965 30.8993 79.9009 30.8993C78.1287 30.8993 76.6996 29.4749 76.6996 27.7087C76.6996 25.9615 78.1287 24.5372 79.9009 24.5372C80.7775 24.5372 81.5778 24.898 82.1495 25.4677L83.0261 24.5941C82.2257 23.7965 81.1205 23.3027 79.9009 23.3027C77.4618 23.3027 75.4609 25.2778 75.4609 27.6897C75.48 30.1396 77.4618 32.1147 79.9009 32.1147Z" fill="white"/>
<path d="M59.7798 32.1147C60.9994 32.1147 62.1046 31.6209 62.905 30.8043L62.0475 29.9497C61.4758 30.5194 60.6755 30.8993 59.7798 30.8993C58.0077 30.8993 56.5785 29.4749 56.5785 27.7087C56.5785 25.9615 58.0077 24.5372 59.7798 24.5372C60.6564 24.5372 61.4567 24.898 62.0284 25.4677L62.905 24.5941C62.1046 23.7965 60.9994 23.3027 59.7798 23.3027C57.3407 23.3027 55.3398 25.2778 55.3398 27.6897C55.3589 30.1396 57.3407 32.1147 59.7798 32.1147Z" fill="white"/>
<path d="M38.5498 23.3223C36.1107 23.3223 34.1289 25.2974 34.1289 27.7282C34.1289 30.1591 36.1107 32.1342 38.5498 32.1342C40.989 32.1342 42.9708 30.1591 42.9708 27.7282C42.9708 25.2784 41.008 23.3223 38.5498 23.3223ZM38.5498 30.8998C36.7777 30.8998 35.3485 29.4754 35.3485 27.7092C35.3485 25.9431 36.7777 24.5187 38.5498 24.5187C40.322 24.5187 41.7512 25.9431 41.7512 27.7092C41.7512 29.4754 40.322 30.8998 38.5498 30.8998Z" fill="white"/>
<path d="M18.6568 23.416H16.332V31.9811H17.5516V28.4297H18.6568C20.1241 28.4297 21.2294 27.3092 21.2294 25.9229C21.2294 24.5365 20.1241 23.416 18.6568 23.416ZM18.6568 27.2143H17.5516V24.6504H18.6568C19.4572 24.6504 20.0098 25.2392 20.0098 25.9419C20.0098 26.6445 19.4572 27.2143 18.6568 27.2143Z" fill="white"/>
</g>
<defs>
<clipPath id="clip0_2377_10816">
<rect width="134" height="61" fill="white"/>
</clipPath>
</defs>
</svg>
