<svg width="182" height="50" viewBox="0 0 182 50" fill="none" xmlns="http://www.w3.org/2000/svg">
<path fill-rule="evenodd" clip-rule="evenodd" d="M34.237 16.79C33.4553 16.1078 32.3312 16.1234 31.6861 16.3216C32.1087 15.8051 33.0928 15.3816 33.3828 15.3303C33.6037 15.4127 34.2369 16.0605 34.2369 16.7899L34.237 16.79ZM36.7328 13.9652C36.2188 11.2279 29.828 13.0416 26.6096 11.8789C26.5479 12.6769 27.6003 13.9554 28.6071 14.4287C26.8863 15.9152 25.3413 18.9105 25.0296 22.5698C24.7188 18.9105 23.1738 15.9152 21.4529 14.4287C22.4596 13.9554 23.5129 12.6769 23.4504 11.8789C20.2321 13.0416 13.8412 11.2279 13.3263 13.9652C13.2179 14.5445 13.4979 15.4274 13.8005 15.6812C13.8545 15.4976 14.1371 14.897 15.0279 14.7623C19.5304 14.0852 23.2896 20.9927 19.8963 23.7856C19.8447 23.8279 19.8737 23.9064 19.9438 23.9064H30.1169C30.1862 23.9064 30.2153 23.8279 30.1645 23.7856C26.7703 20.9927 30.5295 14.0852 35.032 14.7623C35.9237 14.897 36.2053 15.4976 36.2595 15.6811C36.562 15.4274 36.842 14.5445 36.7328 13.9651V13.9652ZM37.8278 7.68267C37.7471 7.42408 40.387 7.41767 40.387 9.06242C40.387 10.1648 38.8079 10.6869 38.8079 11.8308C38.8079 12.3636 39.3838 12.7544 39.5604 12.7544C39.1537 10.9178 40.8355 11.8789 41.2896 12.2224C40.3871 9.75258 42.4188 9.76817 42.2188 8.63575C42.0796 7.84425 40.3138 8.08333 39.6746 7.68267C38.5405 6.97208 37.1988 4.20692 36.3147 6.97208C37.963 8.49542 37.0038 10.7375 34.9113 10.7375C34.9113 10.7375 34.8996 11.0662 34.9188 11.0923C37.4147 10.9707 38.2847 9.14492 37.8279 7.68267H37.8278ZM8.70959 12.2224C9.16384 11.8789 10.8454 10.9178 10.4397 12.7544C10.6154 12.7544 11.1913 12.3636 11.1913 11.8308C11.1913 10.6869 9.61209 10.1648 9.61209 9.06242C9.61209 7.41758 12.2522 7.42408 12.1713 7.68267C11.7154 9.14483 12.5856 10.9708 15.0813 11.0923C15.0996 11.0662 15.0879 10.7375 15.0879 10.7375C12.9963 10.7375 12.0371 8.49533 13.6847 6.97208C12.8004 4.20692 11.4588 6.97208 10.3247 7.68267C9.68551 8.08342 7.91967 7.84425 7.78042 8.63575C7.58117 9.76817 9.61201 9.75267 8.70951 12.2224H8.70959ZM15.7963 16.7899C16.5787 16.1077 17.7029 16.1233 18.3472 16.3215C17.9263 15.805 16.9405 15.3815 16.6513 15.3302C16.4304 15.4126 15.7963 16.0604 15.7963 16.7898L15.7963 16.7899ZM26.2171 1.47758L24.9996 0L23.7821 1.47758L24.9997 3.03275L26.2172 1.47758H26.2171ZM33.1671 5.94567L32.3013 4.8955L31.4363 5.94567L32.3013 6.972L33.1671 5.94558V5.94567ZM40.1896 36.2991L39.0921 35.1429L37.9945 36.2991L39.0921 37.3133L40.1896 36.2989V36.2991ZM18.5638 5.9455L17.6978 4.89533L16.8328 5.9455L17.6978 6.97192L18.5637 5.9455H18.5638ZM16.0837 11.0922H19.3128C22.0278 11.0922 23.2495 9.4335 23.6187 7.995H26.3813C26.7504 9.43358 27.9712 11.0923 30.6871 11.0923H33.9163C33.9163 11.0923 34.4811 10.3294 34.6228 9.95175C35.1328 8.59233 34.4811 7.95833 33.5303 7.95833L32.3012 9.06725L31.0719 7.95833C30.1212 7.95833 29.4695 8.59233 29.9795 9.95175C30.0445 10.1256 30.2004 10.3808 30.3478 10.6052C29.2019 10.4485 27.7395 9.66775 27.4186 7.995C27.4186 7.995 28.2653 6.65617 28.4778 6.11442C29.2412 4.16617 28.2662 3.36967 26.8403 3.36967L24.9995 5.52375L23.1588 3.36967C21.7329 3.36967 20.7579 4.16608 21.5221 6.11442C21.7338 6.65625 22.5813 7.99508 22.5813 7.99508C22.2597 9.66783 20.7972 10.4486 19.6513 10.6052C19.7997 10.3809 19.9547 10.1256 20.0197 9.95175C20.5288 8.59242 19.8788 7.95842 18.9271 7.95842L17.698 9.06733L16.4688 7.95842C15.5173 7.95842 14.8672 8.59242 15.3764 9.95175C15.5181 10.3295 16.0839 11.0923 16.0839 11.0923L16.0837 11.0922ZM49.4695 21.0562C48.846 21.3703 45.1894 23.0756 40.5053 22.4448C40.5538 22.2224 40.5949 21.9984 40.6287 21.7733C43.7462 21.4021 46.2803 20.8758 47.8953 19.9816C49.7362 18.9618 50.5412 16.5271 49.6119 14.7158C49.5879 14.6701 49.5213 14.6619 49.4879 14.7002C48.9788 15.2836 45.777 18.7504 40.7329 19.8282C40.72 19.5682 40.6961 19.3088 40.6613 19.0507C43.1111 17.6676 45.5029 16.0741 46.6421 14.617C48.3638 12.4139 48.2053 9.604 46.5671 8.17125C46.5501 8.15667 46.5277 8.15017 46.5054 8.15333C46.4833 8.15642 46.4635 8.16892 46.4512 8.18758C45.9329 9.0385 41.0813 16.8443 35.7547 20.214C35.6897 20.2554 35.6241 20.296 35.5581 20.3357C35.4055 20.4278 35.3888 20.6252 35.5189 20.7427C36.1329 21.2967 36.5147 22.0678 36.5147 22.9237C36.5147 24.4119 35.3622 25.6496 33.8388 25.9181C33.0646 26.0673 31.947 26.0241 30.8738 25.6709C30.8254 25.6553 30.7754 25.6871 30.7754 25.7353V30.4489C30.7754 30.5247 30.8913 30.5434 30.9188 30.4707C31.5712 28.7501 33.5245 28.3844 34.3788 28.3844C34.6863 30.2236 35.2353 31.7469 35.9488 32.5669C37.1103 33.8992 39.007 33.8806 39.8295 32.9593C39.8431 32.9441 39.8489 32.9235 39.8453 32.9034C39.8418 32.8834 39.8292 32.8661 39.8111 32.8564C39.3279 32.58 36.5628 30.8903 36.0094 28.121C36.2279 28.0459 36.4411 27.961 36.6453 27.8606C37.5378 29.331 38.837 30.6405 39.8828 31.1407C41.6395 31.9795 43.2478 31.5715 43.9612 30.3436C43.987 30.3003 43.9553 30.2464 43.9028 30.2416C42.8162 30.1551 39.4812 29.2037 38.0611 26.8858C38.2238 26.7371 38.3828 26.5821 38.5312 26.4173C40.0169 27.5433 42.1179 28.5387 43.6221 28.7418C45.382 28.9801 47.3762 28.4212 47.4246 26.3838C47.4253 26.343 47.3888 26.3096 47.3455 26.3122C46.7195 26.3496 42.577 26.5291 39.6253 24.8426C39.7279 24.6485 39.8235 24.4509 39.912 24.2502C39.912 24.2502 44.3721 25.2996 46.4853 24.9518C48.5854 24.6068 49.8154 23.0484 49.5778 21.1099C49.5713 21.0616 49.5146 21.0331 49.4696 21.0559L49.4695 21.0562ZM10.087 24.2504C10.1758 24.4512 10.2717 24.6487 10.3744 24.8427C7.42367 26.5285 3.28284 26.3506 2.65459 26.3124C2.61042 26.3098 2.57376 26.3449 2.57451 26.3849C2.62384 28.4214 4.61717 28.9803 6.37701 28.7421C7.88051 28.5389 9.98218 27.5435 11.4679 26.4176C11.6171 26.5823 11.7755 26.7373 11.9378 26.8858C10.5171 29.2037 7.18293 30.1552 6.09626 30.2417C6.04376 30.2465 6.01293 30.3003 6.03801 30.3437C6.75134 31.5716 8.35967 31.9795 10.1172 31.1407C11.1623 30.6406 12.4613 29.3311 13.3539 27.8608C13.5588 27.9611 13.7721 28.046 13.9896 28.1211C13.4363 30.8903 10.6713 32.5801 10.1879 32.8565C10.1701 32.8663 10.1576 32.8837 10.1541 32.9036C10.1505 32.9236 10.1562 32.9441 10.1696 32.9594C10.9921 33.8806 12.8897 33.8993 14.0512 32.567C14.7647 31.7469 15.3129 30.2237 15.6204 28.3846C16.4753 28.3846 18.4278 28.7502 19.0803 30.4708C19.1087 30.5435 19.2244 30.5247 19.2244 30.4489V25.7353C19.2244 25.6872 19.1737 25.6554 19.1253 25.6709C18.0521 26.0241 16.9346 26.0674 16.1613 25.9181C14.6371 25.6497 13.4846 24.412 13.4846 22.9237C13.4846 22.0677 13.867 21.2959 14.4803 20.7419C14.6112 20.6252 14.5937 20.4277 14.442 20.3356C14.3754 20.2958 14.3093 20.2553 14.2437 20.2139C8.92034 16.846 4.07118 9.04583 3.54868 8.18908C3.52443 8.14908 3.46609 8.141 3.43026 8.17192C1.79443 9.6055 1.63526 12.4146 3.35692 14.6168C4.49617 16.0739 6.88768 17.6675 9.33693 19.0505C9.30243 19.3086 9.27876 19.5679 9.26618 19.8279C4.22618 18.751 1.02701 15.2897 0.512758 14.7024C0.478675 14.6624 0.410176 14.6706 0.386926 14.7162C-0.540408 16.5284 0.264509 18.9615 2.10376 19.9814C3.71876 20.8756 6.25284 21.4018 9.37042 21.7731C9.40409 21.9983 9.44517 22.2222 9.49367 22.4446C4.81451 23.0745 1.15951 21.3734 0.531175 21.0568C0.484509 21.0331 0.427842 21.0625 0.422008 21.1114C0.185508 23.0501 1.41451 24.6068 3.51451 24.9518C5.62701 25.2996 10.087 24.2502 10.087 24.2502V24.2504ZM39.092 38.8022L37.467 37.5294C36.8187 37.9138 36.342 38.5242 36.157 39.2397C35.1795 39.3759 32.5144 38.7868 32.7735 38.3961C35.6944 34.3067 33.4602 31.872 30.7753 32.0074V34.7539C30.7753 35.6358 30.0019 36.3506 29.0494 36.3506H27.1953C25.8653 36.3506 24.9995 37.6813 24.9995 37.6813C24.9995 37.6813 24.1338 36.3506 22.8038 36.3506H20.9496C19.9964 36.3506 19.2247 35.6358 19.2247 34.7539V32.0075C16.5397 31.8722 14.3038 34.3068 17.2255 38.3962C17.4822 38.7829 14.743 39.4022 13.4581 39.2455C13.1197 38.8962 12.6313 38.676 12.0846 38.676C11.8522 38.6761 11.6217 38.7172 11.4038 38.7976C11.4038 38.7976 6.35468 34.0392 6.26218 33.9927L6.30384 33.8963C6.59134 33.3612 6.15134 32.7777 5.87309 32.8187C6.19634 32.4327 6.21143 30.7429 4.41809 30.3521C4.47051 30.6915 4.49718 31.3842 4.49718 31.3842C4.49718 31.3842 3.11309 30.6393 2.41801 31.2822C1.80726 32.0019 2.65484 33.3073 2.65484 33.3073C2.65484 33.3073 1.94643 33.3244 1.59734 33.2951C2.11068 35.0232 3.83234 34.9008 4.20484 34.5598C4.18059 34.8348 4.80326 35.2263 5.33067 34.9122L5.56234 34.8004C5.60318 34.855 10.5207 39.4797 10.5207 39.4797C10.2948 39.8134 10.1873 40.223 10.2614 40.6595C10.3782 41.3417 10.9491 41.9071 11.6783 42.0538C12.1932 42.1567 12.6773 42.0572 13.0657 41.8311L14.3673 43.0338C14.4833 43.1383 14.6399 43.2035 14.8148 43.1913C15.1332 43.1701 15.3715 42.913 15.3474 42.6186C15.3373 42.4855 15.2691 42.3714 15.1748 42.2848C15.154 42.2619 13.849 41.056 13.849 41.056C14.9256 40.3045 16.9314 39.7751 18.5964 39.7751C18.8889 39.7751 19.0263 39.5287 18.9256 39.2871C18.1713 37.4815 19.7931 36.1737 21.4706 37.2384C22.2023 37.7027 22.9457 38.6173 23.5057 40.143C20.7531 40.8065 17.2973 42.6339 16.5982 44.6289C16.329 45.3993 17.2182 46.4492 18.2982 46.6607C18.3173 46.6648 18.3373 46.6612 18.3538 46.6507C18.3702 46.6401 18.3817 46.6233 18.3857 46.6043C18.9498 43.6262 22.1673 41.4068 23.8415 41.0298C23.9257 41.2542 23.8981 41.1816 23.9823 41.4052C22.159 42.2635 20.3907 44.074 19.8857 46.2263C19.654 47.212 20.7582 48.1005 21.6698 48.3437C21.7156 48.3559 21.7607 48.3241 21.7632 48.2801C21.9365 45.5582 23.144 43.2467 24.2256 42.195C24.2552 42.4005 24.2775 42.6071 24.2923 42.8142C24.2923 42.8142 23.1848 45.8862 23.1848 48.1275C23.1848 49.1702 24.7415 49.898 24.9715 50C25.2589 49.898 26.8148 49.1702 26.8148 48.1275C26.8148 45.8861 25.7073 42.8142 25.7073 42.8142C25.7224 42.6071 25.7449 42.4005 25.7748 42.195C26.8557 43.2467 28.0639 45.5573 28.2365 48.2792C28.239 48.3232 28.2848 48.3559 28.3297 48.3437C29.2423 48.1006 30.3457 47.2121 30.1148 46.2265C29.6088 44.0741 27.8414 42.2637 26.018 41.4053C26.1013 41.1817 26.0739 41.2542 26.1581 41.0299C27.8332 41.4068 31.0498 43.6261 31.6139 46.6042C31.618 46.6233 31.6295 46.6399 31.646 46.6505C31.6624 46.6611 31.6824 46.6647 31.7015 46.6606C32.7806 46.4492 33.6714 45.3992 33.4006 44.629C32.7032 42.634 29.2464 40.8066 26.494 40.1431C27.0548 38.6173 27.7981 37.7027 28.5298 37.2384C30.2064 36.1737 31.8281 37.4817 31.0739 39.2873C30.973 39.5287 31.1097 39.7751 31.4031 39.7751C33.2863 39.7751 35.6063 40.4523 36.5245 41.3605C37.1113 42.2367 38.1954 42.7973 39.4188 42.6772C40.8088 42.5419 41.9422 41.5023 42.0988 40.2174C42.2355 39.0914 41.6505 38.0804 40.718 37.5297L39.0921 38.8026L39.092 38.8022ZM27.1144 30.5998C27.6937 30.3862 28.6012 30.5592 28.5703 31.3913C28.5628 31.5798 28.8288 31.5797 28.8478 31.3872C29.0212 30.1413 28.1753 29.7823 27.2903 29.9283C27.1804 29.4999 27.0904 29.1255 26.9879 28.7542C26.9063 28.4541 26.8762 27.8902 27.2254 27.8902C27.4138 27.8902 27.338 28.4148 27.3205 28.6407C27.3046 28.8391 27.3763 28.959 27.538 28.9648C27.6389 28.9688 27.7648 28.8407 27.8398 28.7557C28.3464 28.1855 28.4639 27.3027 27.8706 26.8769C27.374 26.5194 26.1306 26.7854 25.7888 27.2945C25.7373 27.1027 25.4906 26.7863 25.3721 26.6483C25.2573 26.5138 25.2273 26.4215 25.3864 26.3032C25.4614 26.2461 25.6881 26.0218 25.6881 25.79C25.6881 25.653 25.5814 25.4 25.2423 25.4C24.9748 25.4 24.6773 25.5844 24.6773 25.9956C24.6773 26.0871 24.6998 26.1851 24.7588 26.2903C24.5897 26.2625 24.1306 26.2739 23.8948 26.3318L27.1556 35.2392C28.0889 34.7806 28.7731 34.0545 28.7731 33.2753C28.7731 32.6111 27.7904 32.8314 27.313 33.3496C27.1597 32.5076 27.023 31.73 26.8738 30.9547C26.8332 30.741 26.9423 30.6643 27.1147 30.5999L27.1144 30.5998ZM22.5037 24.5492L23.1887 26.4437C22.6021 26.5824 21.6588 27.0082 21.6588 27.572C21.6588 28.3227 22.9929 28.8114 23.7646 28.7527C23.7262 28.924 23.7704 29.0766 23.8904 29.2161C23.6104 29.2161 23.0822 29.3458 22.9088 29.5318C22.4996 29.1524 21.8596 29.0145 21.5553 29.2455C21.2496 29.478 21.2405 29.8721 21.5596 30.3176C21.782 30.626 21.8654 30.9304 21.6154 31.2877C22.5454 31.2877 22.2028 30.0843 22.5671 30.0843C22.5196 30.3176 22.5488 30.5877 22.6546 30.8871C22.7247 31.0862 22.7247 31.2273 22.6047 31.4191C22.3047 31.8964 21.838 32.9929 21.9013 33.9843C21.5963 33.9826 21.4413 33.9083 21.5488 33.4939C21.5888 33.3396 21.493 33.2295 21.3664 33.4197C21.2263 33.6293 21.1588 33.9875 21.1588 34.1408C21.1588 35.0237 22.2154 35.2015 22.6188 35.0147C23.7855 36.1386 26.0772 35.8388 26.8447 35.4618L22.8097 24.4412C22.7272 24.2332 22.4314 24.3328 22.5038 24.549L22.5037 24.5492ZM22.3637 33.6269C22.2803 33.1732 22.9145 32.3623 23.7212 31.5798C23.5495 32.0897 23.6562 32.9685 23.9928 33.2712C23.4078 33.2712 22.7128 33.3805 22.3638 33.6269H22.3637Z" fill="#2A3338"/>
<path d="M68.8353 17.3937H63.5895V22.917H61.3243V9.88316H69.6045V11.7093H63.5895V15.5854H68.8353V17.3937ZM74.8953 23.096C73.517 23.096 72.3978 22.6633 71.5387 21.798C70.6853 20.9267 70.2587 19.7689 70.2587 18.3247V18.0562C70.2587 17.0893 70.4437 16.227 70.8137 15.4691C71.1895 14.7052 71.7145 14.1114 72.3895 13.6877C73.0637 13.2639 73.8153 13.0521 74.6453 13.0521C75.9637 13.0521 76.9812 13.4728 77.6978 14.3143C78.4195 15.1557 78.7812 16.3463 78.7812 17.8861V18.7633H72.452C72.5178 19.5631 72.7828 20.1957 73.2487 20.6612C73.7203 21.1267 74.3112 21.3594 75.0212 21.3594C76.0178 21.3594 76.8295 20.9566 77.4562 20.1509L78.6287 21.2698C78.2403 21.8487 77.7212 22.2993 77.0712 22.6216C76.4262 22.9379 75.7012 23.096 74.8953 23.096ZM74.6362 14.7977C74.0395 14.7977 73.5562 15.0066 73.1862 15.4243C72.822 15.8421 72.5895 16.4239 72.4878 17.1699H76.632V17.0088C76.5845 16.2807 76.3903 15.7317 76.0503 15.3617C75.7103 14.9857 75.2387 14.7977 74.6362 14.7977ZM79.7028 18.0024C79.7028 16.5105 80.0495 15.3139 80.742 14.4127C81.4337 13.5057 82.362 13.0521 83.5253 13.0521C84.552 13.0521 85.382 13.4102 86.0145 14.1263V9.16699H88.1895V22.917H86.2203L86.1128 21.9144C85.462 22.7022 84.5937 23.096 83.5078 23.096C82.3737 23.096 81.4545 22.6395 80.7503 21.7264C80.052 20.8133 79.7028 19.572 79.7028 18.0024ZM81.8787 18.1904C81.8787 19.1752 82.0662 19.945 82.4428 20.5C82.8245 21.0491 83.3645 21.3236 84.0628 21.3236C84.952 21.3236 85.6028 20.9267 86.0145 20.133V15.9972C85.6145 15.2214 84.9695 14.8335 84.0803 14.8335C83.3762 14.8335 82.8337 15.114 82.4512 15.675C82.0695 16.23 81.8787 17.0685 81.8787 18.1904ZM94.3578 23.096C92.9795 23.096 91.8603 22.6633 91.0003 21.798C90.147 20.9267 89.7203 19.7689 89.7203 18.3247V18.0562C89.7203 17.0893 89.9053 16.227 90.2753 15.4691C90.652 14.7052 91.177 14.1114 91.8512 13.6877C92.5253 13.2639 93.2778 13.0521 94.107 13.0521C95.4262 13.0521 96.4437 13.4728 97.1595 14.3143C97.882 15.1557 98.2428 16.3463 98.2428 17.8861V18.7633H91.9137C91.9795 19.5631 92.2453 20.1957 92.7103 20.6612C93.182 21.1267 93.7728 21.3594 94.4828 21.3594C95.4795 21.3594 96.2912 20.9566 96.9178 20.1509L98.0903 21.2698C97.7028 21.8487 97.1837 22.2993 96.5328 22.6216C95.8887 22.9379 95.1637 23.096 94.3578 23.096ZM94.0978 14.7977C93.5012 14.7977 93.0178 15.0066 92.6478 15.4243C92.2837 15.8421 92.0512 16.4239 91.9495 17.1699H96.0945V17.0088C96.0462 16.2807 95.8528 15.7317 95.5128 15.3617C95.172 14.9857 94.7012 14.7977 94.0978 14.7977ZM104.644 15.2184C104.357 15.1707 104.062 15.1468 103.758 15.1468C102.761 15.1468 102.09 15.5287 101.744 16.2927V22.917H99.5678V13.2312H101.645L101.699 14.3143C102.224 13.4728 102.952 13.0521 103.883 13.0521C104.193 13.0521 104.45 13.0938 104.653 13.1774L104.644 15.2184ZM111.17 22.917C111.075 22.732 110.991 22.4306 110.92 22.0128C110.227 22.735 109.38 23.096 108.377 23.096C107.405 23.096 106.61 22.8185 105.996 22.2635C105.381 21.7085 105.074 21.0222 105.074 20.2046C105.074 19.1722 105.455 18.3814 106.22 17.8323C106.99 17.2773 108.088 16.9998 109.514 16.9998H110.848V16.3642C110.848 15.863 110.707 15.4631 110.427 15.1647C110.146 14.8603 109.72 14.7082 109.147 14.7082C108.651 14.7082 108.245 14.8335 107.93 15.0842C107.613 15.3288 107.455 15.6422 107.455 16.0241H105.28C105.28 15.4929 105.455 14.9976 105.808 14.5381C106.16 14.0726 106.637 13.7086 107.24 13.446C107.849 13.1834 108.526 13.0521 109.272 13.0521C110.406 13.0521 111.31 13.3386 111.985 13.9115C112.659 14.4784 113.005 15.2781 113.023 16.3106V20.6791C113.023 21.5503 113.145 22.2456 113.39 22.7648V22.917H111.17ZM108.78 21.3504C109.21 21.3504 109.612 21.246 109.989 21.0371C110.37 20.8282 110.657 20.5477 110.848 20.1957V18.3695H109.675C108.87 18.3695 108.264 18.5097 107.858 18.7902C107.452 19.0707 107.249 19.4676 107.249 19.9808C107.249 20.3986 107.386 20.7327 107.661 20.9834C107.941 21.2281 108.315 21.3504 108.78 21.3504ZM117.249 22.917H115.074V9.16699H117.249V22.917ZM130.964 19.8823H125.915L124.859 22.917H122.504L127.428 9.88316H129.46L134.392 22.917H132.029L130.964 19.8823ZM126.55 18.0562H130.328L128.439 12.6492L126.55 18.0562ZM134.92 18.0024C134.92 16.4986 135.273 15.299 135.977 14.4038C136.687 13.5027 137.627 13.0521 138.797 13.0521C139.9 13.0521 140.769 13.437 141.402 14.2069L141.5 13.2312H143.46V22.6216C143.46 23.8927 143.064 24.8953 142.27 25.6294C141.482 26.3634 140.417 26.7305 139.075 26.7305C138.364 26.7305 137.669 26.5812 136.989 26.2829C136.314 25.9905 135.801 25.6055 135.449 25.1281L136.478 23.8212C137.146 24.6148 137.97 25.0117 138.949 25.0117C139.671 25.0117 140.241 24.8147 140.659 24.4209C141.076 24.033 141.285 23.4601 141.285 22.7022V22.0487C140.659 22.7469 139.823 23.096 138.779 23.096C137.645 23.096 136.717 22.6455 135.995 21.7443C135.279 20.8432 134.92 19.5958 134.92 18.0024ZM137.087 18.1904C137.087 19.1632 137.284 19.9301 137.678 20.4911C138.078 21.0461 138.63 21.3236 139.334 21.3236C140.211 21.3236 140.861 20.9476 141.285 20.1957V15.9346C140.874 15.2005 140.229 14.8335 139.352 14.8335C138.635 14.8335 138.078 15.117 137.678 15.6839C137.284 16.2509 137.087 17.0864 137.087 18.1904ZM149.602 23.096C148.224 23.096 147.105 22.6633 146.245 21.798C145.391 20.9267 144.965 19.7689 144.965 18.3247V18.0562C144.965 17.0893 145.15 16.227 145.52 15.4691C145.896 14.7052 146.421 14.1114 147.095 13.6877C147.77 13.2639 148.522 13.0521 149.351 13.0521C150.67 13.0521 151.688 13.4728 152.404 14.3143C153.126 15.1557 153.487 16.3463 153.487 17.8861V18.7633H147.158C147.224 19.5631 147.49 20.1957 147.955 20.6612C148.426 21.1267 149.017 21.3594 149.727 21.3594C150.724 21.3594 151.535 20.9566 152.162 20.1509L153.335 21.2698C152.947 21.8487 152.428 22.2993 151.777 22.6216C151.133 22.9379 150.408 23.096 149.602 23.096ZM149.342 14.7977C148.745 14.7977 148.262 15.0066 147.892 15.4243C147.528 15.8421 147.295 16.4239 147.194 17.1699H151.339V17.0088C151.291 16.2807 151.097 15.7317 150.757 15.3617C150.416 14.9857 149.945 14.7977 149.342 14.7977ZM156.835 13.2312L156.898 14.3501C157.615 13.4847 158.554 13.0521 159.718 13.0521C161.735 13.0521 162.761 14.2069 162.797 16.5164V22.917H160.622V16.6417C160.622 16.0271 160.488 15.5735 160.22 15.2811C159.956 14.9827 159.524 14.8335 158.921 14.8335C158.044 14.8335 157.39 15.2303 156.96 16.0241V22.917H154.785V13.2312H156.835ZM168.635 21.3594C169.177 21.3594 169.628 21.2012 169.986 20.8849C170.344 20.5687 170.535 20.1777 170.559 19.7122H172.609C172.585 20.315 172.397 20.879 172.045 21.4042C171.693 21.9233 171.215 22.3352 170.613 22.6395C170.01 22.9438 169.36 23.096 168.661 23.096C167.306 23.096 166.232 22.6574 165.439 21.7801C164.645 20.9028 164.248 19.6913 164.248 18.1457V17.9219C164.248 16.4478 164.642 15.2692 165.43 14.3859C166.217 13.4967 167.291 13.0521 168.652 13.0521C169.804 13.0521 170.741 13.3892 171.463 14.0637C172.191 14.7321 172.573 15.6123 172.609 16.7044H170.559C170.535 16.1494 170.344 15.6929 169.986 15.3348C169.634 14.9767 169.183 14.7977 168.635 14.7977C167.93 14.7977 167.387 15.0543 167.005 15.5676C166.623 16.0748 166.429 16.8477 166.423 17.8861V18.2352C166.423 19.2856 166.611 20.0703 166.987 20.5895C167.369 21.1027 167.918 21.3594 168.635 21.3594ZM177.273 19.8017L179.243 13.2312H181.561L177.712 24.3851C177.121 26.0143 176.118 26.8289 174.704 26.8289C174.388 26.8289 174.039 26.7752 173.656 26.6678V24.9848L174.069 25.0117C174.617 25.0117 175.03 24.9102 175.304 24.7073C175.585 24.5104 175.805 24.1762 175.966 23.7047L176.28 22.8722L172.878 13.2312H175.223L177.273 19.8017ZM61.8794 41.2503V33.1757H60.4023V31.5645H61.8794V30.6782C61.8794 29.604 62.1778 28.7745 62.7746 28.1896C63.3712 27.6047 64.207 27.3123 65.2812 27.3123C65.6628 27.3123 66.0687 27.3661 66.4987 27.4735L66.4445 29.1743C66.2062 29.1266 65.9287 29.1027 65.612 29.1027C64.5737 29.1027 64.0545 29.6368 64.0545 30.7051V31.5645H66.0237V33.1757H64.0545V41.2503H61.8794ZM66.8387 36.3179C66.8387 35.369 67.027 34.5156 67.4028 33.7577C67.7787 32.9937 68.307 32.4089 68.9878 32.0031C69.6678 31.5913 70.4495 31.3854 71.3328 31.3854C72.6395 31.3854 73.6995 31.8062 74.5112 32.6477C75.3287 33.4891 75.7703 34.6051 75.8353 35.9956L75.8445 36.5058C75.8445 37.4607 75.6595 38.3142 75.2895 39.0661C74.9253 39.818 74.4003 40.3999 73.7137 40.8117C73.0337 41.2235 72.2462 41.4293 71.3512 41.4293C69.9845 41.4293 68.8887 40.9758 68.0653 40.0687C67.2478 39.1556 66.8387 37.9412 66.8387 36.4253V36.3179ZM69.0145 36.5058C69.0145 37.5025 69.2203 38.2843 69.632 38.8512C70.0437 39.4122 70.617 39.6927 71.3512 39.6927C72.0845 39.6927 72.6545 39.4062 73.0603 38.8333C73.472 38.2604 73.6778 37.4219 73.6778 36.3179C73.6778 35.3392 73.4662 34.5633 73.0428 33.9904C72.6245 33.4175 72.0553 33.131 71.3328 33.131C70.6228 33.131 70.0587 33.4145 69.6412 33.9814C69.2228 34.5424 69.0145 35.3839 69.0145 36.5058ZM82.3887 33.5517C82.102 33.504 81.807 33.4802 81.5028 33.4802C80.5062 33.4802 79.8345 33.8621 79.4887 34.626V41.2503H77.3128V31.5645H79.3895L79.4437 32.6477C79.9687 31.8062 80.697 31.3854 81.6278 31.3854C81.9378 31.3854 82.1945 31.4272 82.3978 31.5107L82.3887 33.5517ZM96.6853 30.0427H92.6212V41.2503H90.3745V30.0427H86.3462V28.2165H96.6853V30.0427ZM95.5578 36.3179C95.5578 35.369 95.7462 34.5156 96.122 33.7577C96.4978 32.9937 97.0262 32.4089 97.7062 32.0031C98.387 31.5913 99.1687 31.3854 100.052 31.3854C101.359 31.3854 102.418 31.8062 103.23 32.6477C104.047 33.4891 104.489 34.6051 104.555 35.9956L104.564 36.5058C104.564 37.4607 104.379 38.3142 104.009 39.0661C103.645 39.818 103.12 40.3999 102.433 40.8117C101.753 41.2235 100.965 41.4293 100.07 41.4293C98.7028 41.4293 97.6078 40.9758 96.7845 40.0687C95.967 39.1556 95.5578 37.9412 95.5578 36.4253V36.3179ZM97.7328 36.5058C97.7328 37.5025 97.9395 38.2843 98.3512 38.8512C98.7628 39.4122 99.3353 39.6927 100.07 39.6927C100.804 39.6927 101.374 39.4062 101.78 38.8333C102.191 38.2604 102.397 37.4219 102.397 36.3179C102.397 35.3392 102.185 34.5633 101.761 33.9904C101.344 33.4175 100.774 33.131 100.052 33.131C99.3412 33.131 98.7778 33.4145 98.3595 33.9814C97.942 34.5424 97.7328 35.3839 97.7328 36.5058ZM111.905 40.3014C111.266 41.0534 110.359 41.4293 109.183 41.4293C108.133 41.4293 107.336 41.122 106.793 40.5073C106.255 39.8927 105.987 39.0034 105.987 37.8397V31.5645H108.163V37.8128C108.163 39.0422 108.673 39.6569 109.693 39.6569C110.75 39.6569 111.463 39.2779 111.833 38.52V31.5645H114.008V41.2503H111.958L111.905 40.3014ZM120.928 33.5517C120.642 33.504 120.346 33.4802 120.042 33.4802C119.045 33.4802 118.374 33.8621 118.028 34.626V41.2503H115.853V31.5645H117.93L117.983 32.6477C118.508 31.8062 119.236 31.3854 120.167 31.3854C120.478 31.3854 120.735 31.4272 120.937 31.5107L120.928 33.5517ZM124.25 41.2503H122.075V31.5645H124.25V41.2503ZM121.94 29.049C121.94 28.7148 122.045 28.4372 122.254 28.2165C122.468 27.9957 122.773 27.8852 123.166 27.8852C123.56 27.8852 123.865 27.9957 124.08 28.2165C124.295 28.4372 124.402 28.7148 124.402 29.049C124.402 29.3772 124.295 29.6517 124.08 29.8726C123.865 30.0874 123.56 30.1948 123.166 30.1948C122.773 30.1948 122.468 30.0874 122.254 29.8726C122.045 29.6517 121.94 29.3772 121.94 29.049ZM131.689 38.6185C131.689 38.2306 131.528 37.9352 131.205 37.7322C130.89 37.5293 130.361 37.3503 129.621 37.1952C128.881 37.04 128.264 36.8431 127.768 36.6043C126.682 36.0792 126.139 35.3182 126.139 34.3216C126.139 33.4861 126.491 32.7879 127.195 32.2269C127.9 31.6659 128.795 31.3854 129.88 31.3854C131.039 31.3854 131.972 31.6719 132.683 32.2448C133.399 32.8177 133.757 33.5607 133.757 34.4738H131.581C131.581 34.0561 131.426 33.7099 131.116 33.4354C130.805 33.1549 130.394 33.0147 129.88 33.0147C129.403 33.0147 129.012 33.1251 128.708 33.3458C128.41 33.5667 128.26 33.8621 128.26 34.2321C128.26 34.5663 128.4 34.8259 128.681 35.0109C128.962 35.1959 129.529 35.3839 130.382 35.5749C131.235 35.7599 131.904 35.9837 132.387 36.2462C132.876 36.5029 133.238 36.8132 133.47 37.1772C133.709 37.5413 133.829 37.9829 133.829 38.5021C133.829 39.3734 133.467 40.0807 132.745 40.6237C132.023 41.1608 131.077 41.4293 129.908 41.4293C129.114 41.4293 128.407 41.2862 127.786 40.9997C127.165 40.7132 126.682 40.3193 126.335 39.818C125.99 39.3167 125.816 38.7767 125.816 38.1977H127.93C127.959 38.711 128.153 39.1078 128.511 39.3883C128.87 39.6629 129.344 39.8002 129.935 39.8002C130.507 39.8002 130.943 39.6927 131.241 39.4778C131.54 39.2571 131.689 38.9706 131.689 38.6185ZM137.41 31.5645L137.472 32.576C138.153 31.7822 139.084 31.3854 140.265 31.3854C141.56 31.3854 142.446 31.8807 142.924 32.8714C143.628 31.8807 144.619 31.3854 145.896 31.3854C146.964 31.3854 147.758 31.6808 148.277 32.2717C148.802 32.8625 149.07 33.7337 149.083 34.8856V41.2503H146.907V34.9482C146.907 34.3336 146.773 33.883 146.505 33.5965C146.236 33.3101 145.791 33.1668 145.17 33.1668C144.675 33.1668 144.27 33.3011 143.954 33.5697C143.643 33.8322 143.425 34.1784 143.3 34.6081L143.309 41.2503H141.134V34.8767C141.104 33.7367 140.522 33.1668 139.388 33.1668C138.516 33.1668 137.899 33.5219 137.535 34.2321V41.2503H135.36V31.5645H137.41Z" fill="#2A3338"/>
</svg>
