<svg width="232" height="50" viewBox="0 0 232 50" fill="none" xmlns="http://www.w3.org/2000/svg">
<path d="M68.024 10.9036H68.2121C69.1715 10.9036 70.0417 11.1202 70.8235 11.5534C71.6108 11.981 72.2212 12.5852 72.6555 13.3661C73.0945 14.1471 73.3145 15.0249 73.3145 15.9997C73.3145 16.9688 73.0945 17.8409 72.6555 18.6161C72.2212 19.3857 71.6163 19.9842 70.8402 20.4117C70.0704 20.8393 69.2058 21.0559 68.2464 21.0616H68.024V22.6862H65.9442V21.0616H65.7386C64.7744 21.0616 63.8978 20.8479 63.1106 20.4203C62.3231 19.9871 61.7125 19.3857 61.2788 18.6161C60.8508 17.8466 60.6367 16.9801 60.6367 16.0168C60.6367 15.042 60.8536 14.1642 61.2873 13.3832C61.721 12.6023 62.3288 11.9952 63.1106 11.562C63.8923 11.1231 64.7688 10.9036 65.7386 10.9036H65.9442V9.21057H68.024V10.9036ZM65.7386 12.6394C64.78 12.6394 64.0293 12.9386 63.4874 13.5372C62.9508 14.1357 62.6826 14.9623 62.6826 16.0168C62.6826 17.0429 62.9508 17.8523 63.4874 18.4451C64.0237 19.0322 64.7824 19.3259 65.7641 19.3259H65.9442V12.6394H65.7386ZM68.024 12.6394V19.3259H68.2296C69.1883 19.3259 69.9333 19.0266 70.4641 18.428C71.0004 17.8295 71.2681 17.02 71.2681 15.9997C71.2681 14.9565 71.0004 14.1357 70.4641 13.5372C69.9333 12.9386 69.1795 12.6394 68.2041 12.6394H68.024ZM78.7244 22.3441C77.4064 22.3441 76.3362 21.9309 75.5146 21.1043C74.6986 20.2721 74.2906 19.1662 74.2906 17.7868V17.5302C74.2906 16.6068 74.4675 15.7831 74.8214 15.0591C75.1807 14.3295 75.6828 13.7623 76.3274 13.3576C76.9729 12.9528 77.6917 12.7505 78.4854 12.7505C79.746 12.7505 80.719 13.1524 81.4043 13.9562C82.0944 14.7599 82.4395 15.8971 82.4395 17.3678V18.2057H76.388C76.4502 18.9696 76.7044 19.5738 77.1498 20.0185C77.6 20.4631 78.165 20.6854 78.8448 20.6854C79.7978 20.6854 80.574 20.3006 81.1732 19.5311L82.2944 20.5998C81.9231 21.1528 81.4266 21.5832 80.8051 21.891C80.1883 22.1931 79.495 22.3441 78.7244 22.3441ZM78.4766 14.4178C77.906 14.4178 77.4439 14.6174 77.0901 15.0164C76.7418 15.4154 76.5187 15.9712 76.4223 16.6837H80.3851V16.5299C80.3397 15.8344 80.154 15.31 79.8289 14.9565C79.5038 14.5974 79.0527 14.4178 78.4766 14.4178ZM83.7495 20.5143C84.3264 19.8702 84.7113 19.2603 84.9058 18.6846C85.105 18.1031 85.2253 17.3621 85.2652 16.4614L85.3847 12.9216H91.8139V20.5143H93.0976V24.9264H91.0257V22.1732H85.0851V24.9264H82.9797L82.9877 20.5143H83.7495ZM86.1895 20.5143H89.742V14.7086H87.4048L87.345 16.4785C87.2653 18.1772 86.8796 19.5225 86.1895 20.5143ZM98.3108 22.3441C96.9927 22.3441 95.9225 21.9309 95.101 21.1043C94.285 20.2721 93.8769 19.1662 93.8769 17.7868V17.5302C93.8769 16.6068 94.0539 15.7831 94.4077 15.0591C94.7671 14.3295 95.2691 13.7623 95.9138 13.3576C96.5592 12.9528 97.278 12.7505 98.0717 12.7505C99.3323 12.7505 100.305 13.1524 100.991 13.9562C101.681 14.7599 102.026 15.8971 102.026 17.3678V18.2057H95.9743C96.0365 18.9696 96.2907 19.5738 96.7361 20.0185C97.1864 20.4631 97.7513 20.6854 98.4311 20.6854C99.3841 20.6854 100.16 20.3006 100.76 19.5311L101.881 20.5998C101.509 21.1528 101.013 21.5832 100.391 21.891C99.7746 22.1931 99.0813 22.3441 98.3108 22.3441ZM98.0629 14.4178C97.4924 14.4178 97.0302 14.6174 96.6764 15.0164C96.3281 15.4154 96.105 15.9712 96.0086 16.6837H99.9714V16.5299C99.926 15.8344 99.7403 15.31 99.4152 14.9565C99.0901 14.5974 98.6391 14.4178 98.0629 14.4178ZM111.408 17.6414C111.408 19.0722 111.083 20.2151 110.433 21.0702C109.782 21.9195 108.909 22.3441 107.813 22.3441C106.797 22.3441 105.984 22.0107 105.373 21.3437V25.7302H103.294V12.9216H105.211L105.296 13.8621C105.907 13.121 106.738 12.7505 107.787 12.7505C108.917 12.7505 109.802 13.1724 110.441 14.016C111.086 14.8539 111.408 16.0196 111.408 17.5131V17.6414ZM109.337 17.4619C109.337 16.5384 109.151 15.8059 108.78 15.2643C108.415 14.7228 107.89 14.4521 107.205 14.4521C106.355 14.4521 105.745 14.8026 105.373 15.5038V19.608C105.75 20.3263 106.366 20.6854 107.222 20.6854C107.884 20.6854 108.401 20.4203 108.772 19.8901C109.148 19.3544 109.337 18.5449 109.337 17.4619ZM118.359 22.1732C118.268 21.9964 118.189 21.7085 118.12 21.3095C117.458 21.9993 116.648 22.3441 115.689 22.3441C114.758 22.3441 114 22.0791 113.411 21.549C112.824 21.0188 112.53 20.3633 112.53 19.5823C112.53 18.5962 112.895 17.8409 113.626 17.3164C114.362 16.7863 115.412 16.5213 116.776 16.5213H118.052V15.9142C118.052 15.4354 117.917 15.0534 117.649 14.7685C117.381 14.4777 116.973 14.3323 116.425 14.3323C115.951 14.3323 115.563 14.4521 115.261 14.6915C114.958 14.9252 114.807 15.2245 114.807 15.5893H112.727C112.727 15.0819 112.895 14.6088 113.232 14.1699C113.568 13.7253 114.025 13.3776 114.602 13.1268C115.184 12.8759 115.832 12.7505 116.545 12.7505C117.629 12.7505 118.494 13.0242 119.139 13.5714C119.783 14.1129 120.115 14.8767 120.131 15.8629V20.0356C120.131 20.8678 120.249 21.5318 120.482 22.0278V22.1732H118.359ZM116.074 20.6768C116.485 20.6768 116.87 20.5771 117.229 20.3775C117.595 20.178 117.868 19.9101 118.052 19.5738V17.8295H116.93C116.16 17.8295 115.581 17.9635 115.192 18.2314C114.804 18.4993 114.61 18.8784 114.61 19.3686C114.61 19.7676 114.741 20.0868 115.004 20.3263C115.272 20.56 115.629 20.6768 116.074 20.6768ZM129.83 12.9216V22.1732H127.75V14.5974H125.131L124.96 17.8209C124.851 19.3714 124.552 20.4858 124.061 21.1642C123.576 21.8369 122.831 22.1732 121.826 22.1732H121.185L121.176 20.446L121.604 20.4032C122.061 20.3405 122.391 20.0641 122.597 19.5738C122.808 19.0779 122.942 18.1772 122.999 16.8718L123.171 12.9216H129.83ZM133.931 15.8629H135.969C136.727 15.8629 137.389 15.994 137.954 16.2562C138.519 16.5184 138.947 16.8861 139.238 17.3592C139.535 17.8323 139.684 18.3824 139.684 19.0095C139.684 19.9615 139.346 20.7253 138.673 21.301C138 21.8767 137.104 22.1674 135.985 22.1732H131.851V12.9216H133.931V15.8629ZM133.931 17.5302V20.5143H135.96C136.468 20.5143 136.867 20.389 137.158 20.1382C137.455 19.8816 137.604 19.5196 137.604 19.0522C137.604 18.5848 137.458 18.2171 137.167 17.9492C136.882 17.6756 136.494 17.536 136.003 17.5302H133.931ZM148.844 22.1732H146.763V18.4366H143.159V22.1732H141.079V12.9216H143.159V16.7778H146.763V12.9216H148.844V22.1732ZM150.324 17.4619C150.324 16.5555 150.504 15.7403 150.864 15.0164C151.223 14.2867 151.728 13.7281 152.379 13.3405C153.03 12.9472 153.777 12.7505 154.622 12.7505C155.871 12.7505 156.884 13.1524 157.66 13.9562C158.443 14.7599 158.865 15.8258 158.927 17.154L158.936 17.6414C158.936 18.5535 158.759 19.3686 158.405 20.0868C158.057 20.805 157.555 21.3609 156.898 21.7542C156.248 22.1475 155.495 22.3441 154.638 22.3441C153.332 22.3441 152.284 21.911 151.497 21.0445C150.715 20.1723 150.324 19.0123 150.324 17.5645V17.4619ZM152.405 17.6414C152.405 18.5933 152.602 19.3401 152.995 19.8816C153.389 20.4175 153.937 20.6854 154.638 20.6854C155.34 20.6854 155.886 20.4117 156.274 19.8645C156.667 19.3173 156.864 18.5164 156.864 17.4619C156.864 16.527 156.662 15.7859 156.257 15.2387C155.857 14.6915 155.313 14.4178 154.622 14.4178C153.943 14.4178 153.403 14.6886 153.004 15.2301C152.604 15.766 152.405 16.5697 152.405 17.6414ZM164.423 22.3441C163.105 22.3441 162.035 21.9309 161.213 21.1043C160.397 20.2721 159.989 19.1662 159.989 17.7868V17.5302C159.989 16.6068 160.166 15.7831 160.52 15.0591C160.88 14.3295 161.382 13.7623 162.026 13.3576C162.672 12.9528 163.39 12.7505 164.183 12.7505C165.445 12.7505 166.418 13.1524 167.103 13.9562C167.793 14.7599 168.138 15.8971 168.138 17.3678V18.2057H162.087C162.149 18.9696 162.403 19.5738 162.849 20.0185C163.299 20.4631 163.864 20.6854 164.544 20.6854C165.497 20.6854 166.273 20.3006 166.871 19.5311L167.993 20.5998C167.622 21.1528 167.125 21.5832 166.504 21.891C165.887 22.1931 165.194 22.3441 164.423 22.3441ZM164.175 14.4178C163.605 14.4178 163.142 14.6174 162.788 15.0164C162.441 15.4154 162.217 15.9712 162.121 16.6837H166.084V16.5299C166.038 15.8344 165.853 15.31 165.528 14.9565C165.203 14.5974 164.752 14.4178 164.175 14.4178ZM66.5602 39.6846C66.4693 39.5079 66.3889 39.22 66.3203 38.8209C65.6589 39.5107 64.8485 39.8555 63.8899 39.8555C62.9594 39.8555 62.2004 39.5905 61.6126 39.0604C61.0248 38.5302 60.7309 37.8747 60.7309 37.0938C60.7309 36.1076 61.0961 35.3523 61.8266 34.8279C62.5628 34.2977 63.6126 34.0327 64.9768 34.0327H66.2526V33.4256C66.2526 32.9468 66.1179 32.5648 65.8502 32.2799C65.5816 31.9891 65.1736 31.8438 64.6254 31.8438C64.152 31.8438 63.764 31.9635 63.4619 32.2029C63.1591 32.4366 63.0079 32.7359 63.0079 33.1007H60.9278C60.9278 32.5933 61.0961 32.1202 61.4329 31.6813C61.7696 31.2367 62.2261 30.889 62.8025 30.6382C63.3846 30.3874 64.0325 30.2619 64.7457 30.2619C65.8302 30.2619 66.6949 30.5356 67.3395 31.0828C67.9842 31.6243 68.3149 32.3881 68.3324 33.3743V37.547C68.3324 38.3792 68.4496 39.0432 68.6831 39.5392V39.6846H66.5602ZM64.2748 38.1882C64.6859 38.1882 65.0708 38.0885 65.4302 37.8889C65.796 37.6895 66.0693 37.4215 66.2526 37.0852V35.3409H65.1306C64.36 35.3409 63.7815 35.4749 63.3934 35.7428C63.005 36.0107 62.811 36.3898 62.811 36.88C62.811 37.2791 62.9423 37.5982 63.2046 37.8377C63.4731 38.0714 63.8293 38.1882 64.2748 38.1882ZM76.3274 32.1088H72.3048V39.6846H70.233V30.433H76.3274V32.1088ZM81.0617 39.8555C79.7436 39.8555 78.6734 39.4423 77.8519 38.6157C77.0359 37.7835 76.6279 36.6776 76.6279 35.2982V35.0417C76.6279 34.1182 76.8048 33.2945 77.1586 32.5706C77.518 31.8409 78.02 31.2738 78.6655 30.869C79.3101 30.4642 80.0289 30.2619 80.8226 30.2619C82.0833 30.2619 83.0562 30.6638 83.7415 31.4676C84.4316 32.2713 84.7767 33.4085 84.7767 34.8792V35.7171H78.7252C78.7882 36.481 79.0416 37.0852 79.487 37.5299C79.9381 37.9745 80.503 38.1968 81.182 38.1968C82.135 38.1968 82.9112 37.812 83.5104 37.0425L84.6316 38.1112C84.2603 38.6642 83.7639 39.0946 83.1423 39.4024C82.5255 39.7045 81.8322 39.8555 81.0617 39.8555ZM80.8138 31.9292C80.2433 31.9292 79.7811 32.1288 79.4273 32.5278C79.079 32.9268 78.8559 33.4826 78.7595 34.1951H82.7223V34.0413C82.6769 33.3458 82.4912 32.8214 82.1661 32.468C81.841 32.1088 81.39 31.9292 80.8138 31.9292ZM93.8937 39.6846H91.8139V35.948H88.2104V39.6846H86.1298V30.433H88.2104V34.2892H91.8139V30.433H93.8937V39.6846ZM103.054 32.0832H100.049V39.6846H97.9689V32.0832H94.9981V30.433H103.054V32.0832ZM107.351 38.1968C107.871 38.1968 108.301 38.0457 108.644 37.7436C108.986 37.4415 109.169 37.0681 109.191 36.6235H111.152C111.129 37.1992 110.949 37.7379 110.613 38.2396C110.276 38.7354 109.819 39.1288 109.243 39.4195C108.667 39.7102 108.045 39.8555 107.377 39.8555C106.081 39.8555 105.054 39.4366 104.295 38.5986C103.536 37.7607 103.157 36.6035 103.157 35.1271V34.9134C103.157 33.5054 103.533 32.3796 104.286 31.5359C105.04 30.6866 106.068 30.2619 107.368 30.2619C108.47 30.2619 109.366 30.584 110.056 31.2281C110.752 31.8666 111.117 32.7074 111.152 33.7505H109.191C109.169 33.2204 108.986 32.7843 108.644 32.4423C108.307 32.1003 107.876 31.9292 107.351 31.9292C106.678 31.9292 106.158 32.1744 105.793 32.6646C105.428 33.1491 105.243 33.8873 105.237 34.8792V35.2126C105.237 36.216 105.416 36.9655 105.776 37.4614C106.142 37.9517 106.667 38.1968 107.351 38.1968ZM119.661 32.0832H116.656V39.6846H114.576V32.0832H111.606V30.433H119.661V32.0832ZM120.86 39.6846V30.433H124.618C125.885 30.433 126.849 30.6552 127.511 31.0998C128.173 31.5388 128.504 32.1715 128.504 32.9981C128.504 33.4256 128.37 33.8104 128.102 34.1524C127.839 34.4887 127.448 34.7481 126.929 34.9305C127.534 35.0559 128.013 35.3096 128.367 35.6915C128.721 36.0734 128.898 36.5238 128.898 37.0425C128.898 37.9032 128.578 38.5587 127.939 39.0091C127.306 39.4594 126.393 39.6846 125.2 39.6846H120.86ZM122.94 35.7428V38.0429H125.217C126.284 38.0429 126.817 37.661 126.817 36.8971C126.817 36.1275 126.275 35.7428 125.191 35.7428H122.94ZM122.94 34.255H124.652C125.833 34.255 126.424 33.9073 126.424 33.2119C126.424 32.4822 125.865 32.1059 124.746 32.0832H122.94V34.255ZM129.959 34.9733C129.959 34.0669 130.139 33.2517 130.499 32.5278C130.858 31.7981 131.363 31.2395 132.014 30.8519C132.665 30.4586 133.412 30.2619 134.257 30.2619C135.506 30.2619 136.519 30.6638 137.295 31.4676C138.077 32.2713 138.499 33.3372 138.562 34.6654L138.571 35.1528C138.571 36.0649 138.394 36.88 138.04 37.5982C137.692 38.3164 137.19 38.8723 136.534 39.2656C135.883 39.6589 135.13 39.8555 134.274 39.8555C132.967 39.8555 131.92 39.4224 131.132 38.5559C130.351 37.6837 129.959 36.5238 129.959 35.0759V34.9733ZM132.04 35.1528C132.04 36.1048 132.237 36.8515 132.63 37.393C133.024 37.9289 133.572 38.1968 134.274 38.1968C134.976 38.1968 135.521 37.9232 135.909 37.3759C136.302 36.8287 136.499 36.0278 136.499 34.9733C136.499 34.0384 136.297 33.2974 135.892 32.7501C135.492 32.2029 134.947 31.9292 134.257 31.9292C133.578 31.9292 133.038 32.2 132.639 32.7415C132.239 33.2774 132.04 34.0812 132.04 35.1528ZM151.849 39.6846H149.769V32.1088H146.156V39.6846H144.076V30.433H151.849V39.6846ZM153.321 34.9733C153.321 34.0669 153.501 33.2517 153.861 32.5278C154.22 31.7981 154.725 31.2395 155.376 30.8519C156.027 30.4586 156.774 30.2619 157.619 30.2619C158.868 30.2619 159.881 30.6638 160.657 31.4676C161.439 32.2713 161.861 33.3372 161.924 34.6654L161.933 35.1528C161.933 36.0649 161.756 36.88 161.402 37.5982C161.054 38.3164 160.552 38.8723 159.895 39.2656C159.245 39.6589 158.491 39.8555 157.635 39.8555C156.329 39.8555 155.282 39.4224 154.494 38.5559C153.712 37.6837 153.321 36.5238 153.321 35.0759V34.9733ZM155.401 35.1528C155.401 36.1048 155.598 36.8515 155.992 37.393C156.386 37.9289 156.933 38.1968 157.635 38.1968C158.338 38.1968 158.883 37.9232 159.271 37.3759C159.664 36.8287 159.861 36.0278 159.861 34.9733C159.861 34.0384 159.659 33.2974 159.253 32.7501C158.854 32.2029 158.309 31.9292 157.619 31.9292C156.939 31.9292 156.4 32.2 156 32.7415C155.601 33.2774 155.401 34.0812 155.401 35.1528ZM174.646 32.0832H171.64V39.6846H169.561V32.0832H166.59V30.433H174.646V32.0832ZM179.028 36.709L180.911 30.433H183.129L179.447 41.0868C178.882 42.643 177.924 43.4211 176.572 43.4211C176.27 43.4211 175.936 43.3698 175.57 43.2672V41.6597L175.964 41.6854C176.489 41.6854 176.882 41.5885 177.145 41.3946C177.413 41.2065 177.624 40.8874 177.779 40.437L178.078 39.6418L174.826 30.433H177.068L179.028 36.709ZM192.091 35.1528C192.091 36.5836 191.766 37.7265 191.115 38.5816C190.465 39.4309 189.592 39.8555 188.496 39.8555C187.481 39.8555 186.667 39.5221 186.057 38.8552V43.2416H183.977V30.433H185.894L185.979 31.3735C186.59 30.6324 187.42 30.2619 188.47 30.2619C189.6 30.2619 190.485 30.6838 191.124 31.5274C191.769 32.3654 192.091 33.5311 192.091 35.0245V35.1528ZM190.02 34.9733C190.02 34.0498 189.835 33.3173 189.463 32.7758C189.098 32.2343 188.573 31.9635 187.889 31.9635C187.038 31.9635 186.427 32.314 186.057 33.0152V37.1194C186.434 37.8377 187.05 38.1968 187.905 38.1968C188.568 38.1968 189.084 37.9317 189.455 37.4016C189.831 36.8658 190.02 36.0563 190.02 34.9733ZM199.291 30.433H201.362V39.6846H199.291V33.5111L195.661 39.6846H193.59V30.433H195.661V36.6064L199.291 30.433ZM210.239 32.9638C210.239 33.3743 210.114 33.7534 209.863 34.1011C209.618 34.4431 209.27 34.7167 208.819 34.9219C209.88 35.2925 210.411 36.0079 210.411 37.0681C210.411 37.9174 210.066 38.5958 209.375 39.1031C208.685 39.6047 207.76 39.8555 206.602 39.8555C205.894 39.8555 205.249 39.7387 204.667 39.505C204.085 39.2656 203.631 38.9293 203.306 38.496C202.981 38.0571 202.818 37.5384 202.818 36.9399H204.89C204.89 37.3161 205.058 37.6325 205.394 37.8889C205.731 38.1397 206.156 38.2652 206.67 38.2652C207.178 38.2652 207.58 38.1483 207.877 37.9146C208.179 37.6752 208.331 37.3645 208.331 36.9826C208.331 36.5323 208.199 36.2074 207.937 36.0079C207.674 35.8083 207.269 35.7086 206.721 35.7086H205.232V34.2122H206.773C207.703 34.2009 208.168 33.819 208.168 33.0664C208.168 32.6903 208.034 32.3967 207.766 32.1858C207.497 31.9748 207.129 31.8694 206.661 31.8694C206.205 31.8694 205.82 31.9834 205.506 32.2114C205.192 32.4337 205.035 32.7159 205.035 33.0579H202.964C202.964 32.2428 203.306 31.5758 203.991 31.0571C204.676 30.5327 205.546 30.2705 206.602 30.2705C207.748 30.2705 208.642 30.5042 209.281 30.9716C209.92 31.4391 210.239 32.1032 210.239 32.9638ZM217.328 37.128L220.067 30.433H222.669V39.6846H220.589V33.5624L218.038 39.6846H216.626L214.067 33.5282V39.6846H211.986V30.433H214.605L217.328 37.128ZM227.9 36.709L229.783 30.433H232L228.32 41.0868C227.755 42.643 226.796 43.4211 225.443 43.4211C225.141 43.4211 224.807 43.3698 224.442 43.2672V41.6597L224.836 41.6854C225.361 41.6854 225.754 41.5885 226.017 41.3946C226.285 41.2065 226.496 40.8874 226.65 40.437L226.95 39.6418L223.697 30.433H225.939L227.9 36.709Z" fill="#2A3338"/>
<path fill-rule="evenodd" clip-rule="evenodd" d="M34.2992 16.79C33.5162 16.1078 32.39 16.1234 31.7437 16.3216C32.167 15.8051 33.1529 15.3816 33.4435 15.3303C33.6648 15.4127 34.2992 16.0606 34.2992 16.79ZM36.7995 13.9652C36.2846 11.2279 29.8822 13.0416 26.658 11.8789C26.5962 12.6769 27.6505 13.9554 28.6591 14.4287C26.9351 15.9152 25.3873 18.9105 25.0751 22.5698C24.7637 18.9105 23.2159 15.9152 21.4919 14.4287C22.5004 13.9554 23.5557 12.6769 23.4931 11.8789C20.2689 13.0416 13.8663 11.2279 13.3505 13.9652C13.242 14.5445 13.5225 15.4274 13.8256 15.6812C13.8797 15.4976 14.1628 14.897 15.0552 14.7623C19.5659 14.0852 23.3319 20.9927 19.9325 23.7856C19.8808 23.8279 19.9098 23.9064 19.98 23.9064H30.1717C30.2411 23.9064 30.2703 23.8279 30.2193 23.7856C26.819 20.9927 30.585 14.0852 35.0957 14.7623C35.989 14.897 36.2711 15.4976 36.3254 15.6811C36.6285 15.4274 36.909 14.5446 36.7995 13.9652ZM37.8966 7.68267C37.8157 7.42408 40.4604 7.41767 40.4604 9.06242C40.4604 10.1648 38.8785 10.6869 38.8785 11.8308C38.8785 12.3636 39.4554 12.7544 39.6323 12.7544C39.2249 10.9178 40.9097 11.8789 41.3647 12.2224C40.4605 9.75258 42.496 9.76817 42.2956 8.63575C42.1561 7.84425 40.387 8.08333 39.7467 7.68267C38.6106 6.97208 37.2665 4.20692 36.3807 6.97208C38.032 8.49542 37.0711 10.7375 34.9748 10.7375C34.9748 10.7375 34.963 11.0662 34.9822 11.0923C37.4827 10.9707 38.3542 9.14492 37.8966 7.68267ZM8.72543 12.2224C9.1805 11.8789 10.8651 10.9178 10.4587 12.7544C10.6347 12.7544 11.2116 12.3636 11.2116 11.8308C11.2116 10.6869 9.62957 10.1648 9.62957 9.06242C9.62957 7.41758 12.2744 7.42408 12.1934 7.68267C11.7367 9.14483 12.6085 10.9708 15.1087 11.0923C15.127 11.0662 15.1154 10.7375 15.1154 10.7375C13.0199 10.7375 12.059 8.49533 13.7096 6.97208C12.8237 4.20692 11.4796 6.97208 10.3434 7.68267C9.70312 8.08342 7.93407 7.84425 7.79457 8.63575C7.59496 9.76817 9.62957 9.75267 8.72543 12.2224ZM15.825 16.7899C16.6088 16.1077 17.7351 16.1233 18.3805 16.3215C17.9588 15.805 16.9713 15.3815 16.6815 15.3302C16.4603 15.4126 15.825 16.0605 15.825 16.7899ZM26.2648 1.47758L25.045 0L23.8253 1.47758L25.0451 3.03275L26.2648 1.47758ZM33.2274 5.94567L32.36 4.8955L31.4934 5.94567L32.36 6.972L33.2274 5.94567ZM40.2627 36.2991L39.1632 35.1429L38.0636 36.2991L39.1632 37.3133L40.2627 36.2991ZM18.5975 5.9455L17.73 4.89533L16.8634 5.9455L17.73 6.97192L18.5975 5.9455ZM16.1129 11.0922H19.348C22.0679 11.0922 23.2918 9.4335 23.6616 7.995H26.4292C26.7991 9.43358 28.022 11.0923 30.7429 11.0923H33.9779C33.9779 11.0923 34.5438 10.3294 34.6857 9.95175C35.1967 8.59233 34.5438 7.95833 33.5913 7.95833L32.3599 9.06725L31.1284 7.95833C30.1759 7.95833 29.5231 8.59233 30.034 9.95175C30.0991 10.1256 30.2553 10.3808 30.403 10.6052C29.255 10.4485 27.7899 9.66775 27.4684 7.995C27.4684 7.995 28.3166 6.65617 28.5296 6.11442C29.2943 4.16617 28.3176 3.36967 26.8891 3.36967L25.045 5.52375L23.2009 3.36967C21.7724 3.36967 20.7957 4.16608 21.5612 6.11442C21.7734 6.65625 22.6224 7.99508 22.6224 7.99508C22.3001 9.66783 20.835 10.4486 19.6871 10.6052C19.8357 10.3809 19.991 10.1256 20.0561 9.95175C20.5661 8.59242 19.915 7.95842 18.9615 7.95842L17.7302 9.06733L16.4988 7.95842C15.5455 7.95842 14.8942 8.59242 15.4044 9.95175C15.5463 10.3295 16.1129 11.0922 16.1129 11.0922ZM49.5594 21.0562C48.9348 21.3703 45.2716 23.0756 40.5789 22.4448C40.6276 22.2224 40.6687 21.9984 40.7025 21.7733C43.8257 21.4021 46.3645 20.8758 47.9823 19.9816C49.8266 18.9618 50.6331 16.5271 49.7021 14.7158C49.6781 14.6701 49.6113 14.6619 49.5779 14.7002C49.0678 15.2836 45.8602 18.7504 40.807 19.8282C40.794 19.5682 40.7701 19.3088 40.7352 19.0507C43.1895 17.6676 45.5856 16.0741 46.7269 14.617C48.4518 12.4139 48.293 9.604 46.6517 8.17125C46.6347 8.15667 46.6123 8.15017 46.59 8.15333C46.5678 8.15642 46.548 8.16892 46.5356 8.18758C46.0164 9.0385 41.156 16.8443 35.8197 20.214C35.7546 20.2554 35.6889 20.296 35.6227 20.3357C35.4699 20.4278 35.4532 20.6252 35.5835 20.7428C36.1986 21.2967 36.5811 22.0678 36.5811 22.9237C36.5811 24.4119 35.4265 25.6496 33.9004 25.9181C33.1247 26.0673 32.0051 26.0241 30.9299 25.6709C30.8815 25.6553 30.8314 25.6871 30.8314 25.7353V30.4489C30.8314 30.5247 30.9475 30.5434 30.975 30.4707C31.6286 28.7501 33.5855 28.3844 34.4413 28.3844C34.7493 30.2236 35.2994 31.7469 36.0141 32.5669C37.1777 33.8993 39.0779 33.8806 39.9019 32.9593C39.9155 32.9441 39.9214 32.9235 39.9178 32.9034C39.9142 32.8834 39.9016 32.8661 39.8835 32.8564C39.3994 32.58 36.6293 30.8903 36.0749 28.121C36.2938 28.0459 36.5073 27.961 36.712 27.8606C37.6061 29.331 38.9076 30.6405 39.9553 31.1407C41.7152 31.9795 43.3264 31.5715 44.0411 30.3436C44.067 30.3003 44.0352 30.2464 43.9826 30.2416C42.894 30.1551 39.553 29.2037 38.1303 26.8857C38.2933 26.7371 38.4526 26.5821 38.6012 26.4173C40.0897 27.5433 42.1945 28.5387 43.7014 28.7418C45.4645 28.9801 47.4623 28.4212 47.5108 26.3838C47.5116 26.343 47.4749 26.3096 47.4316 26.3122C46.8044 26.3496 42.6544 26.5291 39.6974 24.8426C39.8001 24.6485 39.8959 24.4509 39.9846 24.2502C39.9846 24.2502 44.4528 25.2996 46.5699 24.9518C48.6738 24.6068 49.906 23.0484 49.668 21.1099C49.6614 21.0616 49.6045 21.0333 49.5594 21.0562ZM10.1053 24.2504C10.1943 24.4512 10.2903 24.6487 10.3933 24.8427C7.43717 26.5285 3.28881 26.3506 2.65942 26.3124C2.61517 26.3098 2.57844 26.3449 2.57919 26.3849C2.62861 28.4214 4.62557 28.9803 6.3886 28.7421C7.89483 28.5389 10.0003 27.5435 11.4888 26.4176C11.6382 26.5823 11.7969 26.7373 11.9595 26.8858C10.5362 29.2037 7.19598 30.1552 6.10734 30.2417C6.05475 30.2465 6.02386 30.3003 6.04899 30.3437C6.76362 31.5716 8.37487 31.9795 10.1356 31.1407C11.1825 30.6406 12.484 29.3311 13.3782 27.8608C13.5834 27.9611 13.7971 28.046 14.015 28.1211C13.4607 30.8903 10.6907 32.5801 10.2064 32.8565C10.1886 32.8663 10.1761 32.8837 10.1726 32.9036C10.169 32.9236 10.1746 32.9441 10.1881 32.9594C11.0121 33.8806 12.9131 33.8993 14.0767 32.567C14.7915 31.7469 15.3408 30.2237 15.6488 28.3846C16.5053 28.3846 18.4613 28.7502 19.115 30.4708C19.1434 30.5435 19.2594 30.5247 19.2594 30.4489V25.7353C19.2594 25.6872 19.2085 25.6554 19.1601 25.6709C18.0849 26.0241 16.9654 26.0674 16.1906 25.9181C14.6637 25.6497 13.5091 24.412 13.5091 22.9237C13.5091 22.0677 13.8922 21.2959 14.5067 20.7419C14.6377 20.6252 14.6202 20.4277 14.4683 20.3356C14.4016 20.2958 14.3353 20.2553 14.2696 20.2139C8.93656 16.846 4.07858 9.04583 3.55513 8.18908C3.53083 8.14908 3.47239 8.141 3.4365 8.17192C1.79769 9.6055 1.63823 12.4146 3.36303 14.6168C4.50435 16.0739 6.9002 17.6675 9.3539 19.0505C9.31934 19.3086 9.29563 19.5679 9.28302 19.8279C4.23386 18.751 1.02888 15.2897 0.51369 14.7024C0.479545 14.6624 0.410921 14.6706 0.387629 14.7162C-0.54139 16.5284 0.26499 18.9615 2.10758 19.9814C3.72552 20.8756 6.26421 21.4018 9.38746 21.7731C9.42119 21.9983 9.46235 22.2222 9.51093 22.4446C4.82326 23.0745 1.16162 21.3734 0.532141 21.0567C0.485389 21.0331 0.428619 21.0625 0.422775 21.1114C0.185845 23.0501 1.41708 24.6068 3.5209 24.9518C5.63724 25.2996 10.1053 24.2504 10.1053 24.2504ZM39.1631 38.8022L37.5351 37.5294C36.8856 37.9137 36.4081 38.5242 36.2227 39.2397C35.2435 39.3759 32.5735 38.7868 32.8331 38.3961C35.7593 34.3067 33.521 31.872 30.8312 32.0074V34.7539C30.8312 35.6358 30.0565 36.3506 29.1022 36.3506H27.2448C25.9124 36.3506 25.045 37.6813 25.045 37.6813C25.045 37.6813 24.1776 36.3506 22.8452 36.3506H20.9877C20.0328 36.3506 19.2596 35.6358 19.2596 34.7539V32.0075C16.5697 31.8722 14.3298 34.3068 17.2568 38.3962C17.514 38.7829 14.7698 39.4022 13.4826 39.2455C13.1435 38.8962 12.6542 38.676 12.1066 38.676C11.8737 38.6761 11.6428 38.7172 11.4245 38.7976C11.4245 38.7976 6.36623 34.0392 6.27356 33.9927L6.3153 33.8963C6.60332 33.3612 6.16253 32.7777 5.88377 32.8187C6.20761 32.4328 6.22272 30.7429 4.42612 30.3521C4.47864 30.6915 4.50535 31.3842 4.50535 31.3842C4.50535 31.3842 3.11875 30.6392 2.4224 31.2822C1.81054 32.0019 2.65967 33.3073 2.65967 33.3073C2.65967 33.3073 1.94996 33.3244 1.60025 33.2951C2.11451 35.0232 3.83931 34.9008 4.21249 34.5597C4.18819 34.8348 4.81199 35.2263 5.34037 34.9122L5.57245 34.8004C5.61336 34.855 10.5398 39.4797 10.5398 39.4797C10.3136 39.8134 10.2059 40.223 10.2801 40.6595C10.397 41.3417 10.969 41.9071 11.6995 42.0538C12.2153 42.1567 12.7004 42.0572 13.0894 41.8311L14.3935 43.0338C14.5096 43.1383 14.6665 43.2035 14.8418 43.1913C15.1607 43.1701 15.3995 42.913 15.3753 42.6186C15.3652 42.4855 15.2969 42.3714 15.2024 42.2848C15.1816 42.2619 13.8742 41.056 13.8742 41.056C14.9527 40.3045 16.9622 39.7751 18.6302 39.7751C18.9233 39.7751 19.0609 39.5288 18.96 39.2871C18.2044 37.4815 19.8291 36.1737 21.5096 37.2384C22.2427 37.7027 22.9874 38.6173 23.5484 40.143C20.7908 40.8065 17.3288 42.6339 16.6284 44.6289C16.3587 45.3993 17.2495 46.4492 18.3314 46.6607C18.3506 46.6648 18.3706 46.6612 18.3871 46.6507C18.4036 46.6401 18.4151 46.6233 18.4191 46.6043C18.9843 43.6262 22.2076 41.4067 23.8849 41.0298C23.9692 41.2542 23.9415 41.1816 24.0259 41.4052C22.1993 42.2635 20.4277 44.074 19.9218 46.2263C19.6897 47.212 20.7959 48.1005 21.7092 48.3437C21.7551 48.3559 21.8002 48.3241 21.8027 48.2801C21.9764 45.5582 23.1861 43.2467 24.2696 42.195C24.2993 42.4005 24.3216 42.6071 24.3365 42.8142C24.3365 42.8142 23.227 45.8862 23.227 48.1275C23.227 49.1702 24.7865 49.898 25.0169 50C25.3048 49.898 26.8636 49.1702 26.8636 48.1275C26.8636 45.8861 25.7541 42.8142 25.7541 42.8142C25.7692 42.6071 25.7917 42.4005 25.8217 42.195C26.9045 43.2467 28.1149 45.5573 28.2878 48.2792C28.2903 48.3232 28.3363 48.3559 28.3812 48.3437C29.2954 48.1006 30.4008 47.2121 30.1695 46.2265C29.6627 44.0741 27.892 42.2637 26.0653 41.4053C26.1488 41.1817 26.1213 41.2542 26.2056 41.0299C27.8838 41.4068 31.1062 43.6261 31.6714 46.6042C31.6755 46.6233 31.687 46.6399 31.7035 46.6505C31.72 46.6611 31.74 46.6647 31.7591 46.6606C32.8402 46.4492 33.7326 45.3992 33.4613 44.629C32.7626 42.634 29.2996 40.8066 26.5422 40.1431C27.1039 38.6173 27.8486 37.7027 28.5816 37.2384C30.2613 36.1737 31.886 37.4817 31.1304 39.2873C31.0293 39.5287 31.1662 39.7751 31.4602 39.7751C33.3469 39.7751 35.671 40.4523 36.5909 41.3605C37.1788 42.2367 38.2649 42.7973 39.4905 42.6772C40.8829 42.5419 42.0184 41.5023 42.1754 40.2174C42.3123 39.0914 41.7262 38.0804 40.792 37.5297L39.1631 38.8022ZM27.1637 30.5998C27.744 30.3862 28.6532 30.5592 28.6223 31.3913C28.6148 31.5798 28.8812 31.5798 28.9003 31.3872C29.0739 30.1413 28.2266 29.7823 27.34 29.9283C27.2298 29.4999 27.1397 29.1255 27.037 28.7542C26.9552 28.4541 26.925 27.8902 27.2749 27.8902C27.4637 27.8902 27.3877 28.4148 27.3702 28.6407C27.3542 28.8391 27.426 28.959 27.5881 28.9648C27.6892 28.9688 27.8152 28.8407 27.8904 28.7558C28.398 28.1855 28.5157 27.3027 27.9213 26.8769C27.4238 26.5194 26.1781 26.7854 25.8357 27.2945C25.784 27.1027 25.5369 26.7863 25.4182 26.6483C25.3032 26.5138 25.2731 26.4215 25.4326 26.3032C25.5077 26.2461 25.7348 26.0218 25.7348 25.79C25.7348 25.653 25.6279 25.4 25.2881 25.4C25.0202 25.4 24.7221 25.5844 24.7221 25.9956C24.7221 26.0871 24.7447 26.1851 24.8039 26.2903C24.6344 26.2625 24.1745 26.2739 23.9382 26.3318L27.205 35.2392C28.14 34.7806 28.8254 34.0545 28.8254 33.2753C28.8254 32.6111 27.8409 32.8314 27.3627 33.3496C27.2091 32.5076 27.0721 31.73 26.9227 30.9547C26.882 30.741 26.991 30.6642 27.1637 30.5998ZM22.5446 24.5492L23.2308 26.4437C22.6432 26.5824 21.6981 27.0082 21.6981 27.572C21.6981 28.3227 23.0347 28.8114 23.8078 28.7527C23.7693 28.924 23.8136 29.0766 23.9339 29.2161C23.6533 29.2161 23.1241 29.3458 22.9504 29.5318C22.5405 29.1524 21.8993 29.0145 21.5945 29.2455C21.2882 29.478 21.2791 29.8721 21.5988 30.3176C21.8216 30.626 21.9052 30.9304 21.6547 31.2877C22.5864 31.2877 22.2432 30.0842 22.6081 30.0842C22.5605 30.3176 22.5898 30.5877 22.6958 30.8871C22.766 31.0862 22.766 31.2273 22.6458 31.4191C22.3452 31.8964 21.8777 32.9929 21.9412 33.9843C21.6356 33.9826 21.4803 33.9083 21.588 33.4939C21.6281 33.3396 21.5321 33.2295 21.4053 33.4197C21.2649 33.6293 21.1973 33.9875 21.1973 34.1408C21.1973 35.0237 22.2558 35.2015 22.6599 35.0147C23.8288 36.1386 26.1246 35.8388 26.8935 35.4618L22.8511 24.4412C22.7685 24.2332 22.472 24.3329 22.5446 24.5492ZM22.4043 33.6269C22.3208 33.1732 22.9562 32.3623 23.7643 31.5798C23.5923 32.0897 23.6992 32.9685 24.0365 33.2712C23.4503 33.2712 22.754 33.3805 22.4043 33.6269Z" fill="#2A3338"/>
</svg>
