<svg width="79" height="75" viewBox="0 0 79 75" fill="none" xmlns="http://www.w3.org/2000/svg">
<path d="M9.95765 75.0003L68.1275 64.4222L59.0407 14.6997L0.888672 25.2778L9.95765 75.0003Z" fill="#7D9B1E"/>
<path d="M65.6256 28.4636H63.0285L53.7813 50.6165L50.0847 41.3851H55.2611L50.0847 25.8769H52.6759L44.9084 0.027832H42.3173L34.5498 25.8769H37.1409L31.9646 41.3851H37.1409L32.1845 53.7609L19.0267 7.78196H16.4356L0.900635 62.0667H16.4356V74.9823H19.0267V62.0667H28.8564L26.7823 67.2401H42.3173V74.9823H44.9084V67.2401H60.4434L57.3352 59.48H63.0345V74.9823H65.6256V59.48H78.5754L65.6256 28.4636ZM29.8905 59.4563H19.0148H16.4237H4.35945L17.7193 12.7714L30.5858 57.7299L29.8905 59.4563ZM44.9025 64.6297H42.3113H30.6393L31.6674 62.0727L32.1904 60.7675L32.5589 59.8538L33.3552 57.8723L39.5657 42.364L41.0039 38.7806H37.135H35.5898L39.6192 26.7075L40.7661 23.2665H38.0621L43.6069 4.81558L49.1517 23.2665H46.4476L47.5946 26.7075L51.624 38.7806H50.0788H46.2099L47.6481 42.364L52.3371 54.0694L53.0325 55.8017L53.9893 58.1808L54.5123 59.486L56.5745 64.6297H44.9025ZM63.0285 56.8756H56.2833L55.166 54.0872L64.3241 32.1478L74.6411 56.8756H65.6137H63.0285Z" fill="black"/>
</svg>
