<svg width="69" height="78" viewBox="0 0 69 78" fill="none" xmlns="http://www.w3.org/2000/svg">
<path d="M43.5026 77.47L66.9001 16.6236L23.3975 0L0 60.8049L43.5026 77.47Z" fill="#F59600"/>
<path d="M65.2006 33.6032H60.8444V29.2486C62.4371 27.89 63.4534 25.8669 63.4534 23.6124V20.6817H47.8947V17.739C50.9018 16.7898 53.0769 13.9895 53.0769 10.6731V5.16748H27.1834V10.6731C27.1834 13.9836 29.3645 16.7898 32.3657 17.739V20.6757H16.8248V23.6065C16.8248 25.855 17.8291 27.8662 19.4159 29.2248V33.5973H15.0716C13.1817 33.5973 11.6484 35.1279 11.6484 37.0146V43.1016C11.6484 44.9882 13.1817 46.5188 15.0716 46.5188H19.4159V49.1055C19.4159 55.3587 23.8613 60.5736 29.7745 61.772V64.6138H27.6707C21.6802 64.6138 16.8248 69.4608 16.8248 75.4411V77.5413H27.1834V77.4997C27.1834 74.6698 29.4833 72.3738 32.3181 72.3738H47.9422C50.777 72.3738 53.0769 74.6698 53.0769 77.4997V77.5413H63.4534V75.4411C63.4534 69.4608 58.598 64.6138 52.6074 64.6138H50.4858V61.772C56.3931 60.5736 60.8444 55.3587 60.8444 49.1055V46.5248H65.2006C67.0905 46.5248 68.6238 44.9941 68.6238 43.1075V37.0205C68.6238 35.1339 67.0905 33.6032 65.2006 33.6032ZM19.3862 43.9144H15.0716C14.6259 43.9144 14.2633 43.5525 14.2633 43.1075V37.0205C14.2633 36.5755 14.6259 36.2136 15.0716 36.2136H19.3862V43.9144ZM60.8206 74.9427H55.258C54.1942 71.9348 51.3178 69.7753 47.9422 69.7753H32.3181C28.9425 69.7753 26.0661 71.9348 25.0023 74.9427H19.4575C19.7249 70.6533 23.3026 67.242 27.6707 67.242H52.6134C56.9755 67.236 60.5532 70.6474 60.8206 74.9427ZM29.7983 10.6731V7.7779H50.4561V10.6731C50.4561 13.3191 48.2988 15.4668 45.6542 15.4668H34.6002C31.9556 15.4727 29.7983 13.3191 29.7983 10.6731ZM34.9509 18.0831H45.3095V20.6757H34.9509V18.0831ZM19.4397 23.2921H60.8325V23.6124C60.8325 26.2585 58.6752 28.4061 56.0306 28.4061H24.2416C21.591 28.4061 19.4397 26.2525 19.4397 23.6124V23.2921ZM47.8709 62.0686V64.596H32.3894V62.0686H47.8709ZM58.2295 49.1115C58.2295 54.801 53.594 59.4226 47.9006 59.4226H32.3597C26.6604 59.4226 22.0308 54.795 22.0308 49.1115V31.0403H58.2295V49.1115ZM66.0089 43.1134C66.0089 43.5584 65.6463 43.9203 65.2006 43.9203H60.886V36.2196H65.2006C65.6463 36.2196 66.0089 36.5815 66.0089 37.0264V43.1134Z" fill="black"/>
<path d="M38.8377 51.5914V56.8716H41.4289V51.5914C45.1016 50.9744 47.9008 47.7885 47.9008 43.9441C47.9008 39.6606 44.4182 36.1899 40.1273 36.1899C35.8365 36.1899 32.3599 39.6606 32.3599 43.9441C32.3599 47.7885 35.159 50.9744 38.8377 51.5914ZM40.1273 38.8004C42.9681 38.8004 45.2799 41.1082 45.2799 43.9441C45.2799 46.335 43.6396 48.3462 41.4229 48.9216V43.9441H38.8318V48.9216C36.615 48.3462 34.9748 46.335 34.9748 43.9441C34.9807 41.1082 37.2866 38.8004 40.1273 38.8004Z" fill="black"/>
</svg>
