<svg width="74" height="78" viewBox="0 0 74 78" fill="none" xmlns="http://www.w3.org/2000/svg">
<path d="M41.0423 64.6432C58.9205 64.6432 73.4137 50.175 73.4137 32.3275C73.4137 14.48 58.9205 0.0117188 41.0423 0.0117188C23.1641 0.0117188 8.6709 14.48 8.6709 32.3275C8.6709 50.175 23.1641 64.6432 41.0423 64.6432Z" fill="#F59600"/>
<path d="M13.889 54.2964H11.2622V62.0505H13.889V54.2964Z" fill="black"/>
<path d="M57.8905 54.2964H55.2637V62.0505H57.8905V54.2964Z" fill="black"/>
<path d="M34.5526 13.4316C35.6164 15.0216 37.013 16.5107 37.9223 17.4184C38.2551 17.7507 38.6117 18.0948 38.9742 18.4448C40.6442 20.0526 42.5341 21.868 43.2888 23.8436C44.1387 26.3532 43.3304 27.7652 42.7183 28.4178H41.0424H34.5705H28.0986H26.4108C25.8343 27.8008 24.9904 26.3769 25.8521 23.8436C26.6069 21.8739 28.4967 20.0526 30.1667 18.4448C30.5352 18.0888 30.8858 17.7507 31.2186 17.4184C32.5736 16.0598 33.7206 14.6834 34.5526 13.4316ZM56.5595 31.5266C57.6233 33.1165 59.0199 34.6057 59.9292 35.5134C60.262 35.8456 60.6185 36.1897 60.9811 36.5397C62.651 38.1475 64.5409 39.9629 65.2957 41.9386C66.1455 44.4481 65.3373 45.8601 64.7251 46.5127H63.0314H56.5773H50.0876H48.4473C48.2274 46.2754 47.9778 45.9432 47.7877 45.5041L47.4846 44.8041V43.9616C47.4846 43.3387 47.6094 42.6623 47.853 41.9386C48.6078 39.9689 50.4977 38.1475 52.1676 36.5397C52.5361 36.1838 52.8867 35.8456 53.2195 35.5134C54.5864 34.1548 55.7334 32.7784 56.5595 31.5266ZM12.5577 31.5266C13.6215 33.1165 15.0181 34.6057 15.9273 35.5134C16.2601 35.8456 16.6167 36.1897 16.9793 36.5397C18.6492 38.1475 20.5391 39.9629 21.2939 41.9386C21.5375 42.6623 21.6623 43.3387 21.6623 43.9616V44.8041L21.3592 45.5041C21.1691 45.9432 20.9194 46.2754 20.6996 46.5127H19.0236H12.5696H6.07983H4.42175C3.80962 45.8601 3.00136 44.4481 3.85121 41.9386C4.60597 39.9689 6.49584 38.1475 8.16582 36.5397C8.53428 36.1838 8.88491 35.8456 9.21772 35.5134C10.5846 34.1548 11.7257 32.7784 12.5577 31.5266ZM34.5645 56.901C35.979 56.901 37.1259 58.046 37.1259 59.458V74.9425H32.0031V59.458C32.0031 58.046 33.1501 56.901 34.5645 56.901ZM35.8601 0.0117188H33.2689V2.5984H30.6243V5.18509H33.2689V10.3525C33.263 10.3525 33.2571 10.3525 33.2511 10.3525C32.7816 11.5865 31.4385 13.5028 29.3585 15.5734C27.3616 17.5668 24.515 19.9339 23.3798 22.9596C21.4365 28.5958 25.4837 31.0341 25.4837 31.0341H25.5074V43.9616H24.2832C24.2832 43.1073 24.1287 42.1462 23.7543 41.0605C22.6132 38.0348 19.7725 35.6676 17.7756 33.6742C15.7015 31.6037 14.3168 29.6874 13.8473 28.4534V23.2859H16.4384V20.6993H13.8473V18.1126H11.2562V20.6993H8.66503V23.2859H11.2562V28.4534C10.7867 29.6874 9.44355 31.6037 7.36351 33.6742C5.36667 35.6676 2.51999 38.0348 1.38488 41.0605C-0.558475 46.6966 3.4887 49.135 3.4887 49.135V74.9781V77.547V77.5588H65.6522V74.9722H65.6225V49.1291H65.6582C65.6582 49.1291 69.6994 46.6907 67.762 41.0546C66.6209 38.0289 63.7802 35.6617 61.7834 33.6683C59.7093 31.5977 58.3246 29.6815 57.8551 28.4474V23.28H60.4462V20.6933H57.8551V18.1066H55.2639V20.6933H52.6728V23.28H55.2639V28.4474C54.7944 29.6815 53.4513 31.5977 51.3713 33.6683C49.3744 35.6617 46.5277 38.0289 45.3926 41.0546C45.0182 42.1403 44.8696 43.1014 44.8637 43.9557H43.6276V31.0282H43.6454C43.6454 31.0282 47.6866 28.5898 45.7492 22.9537C44.6081 19.928 41.7674 17.5608 39.7706 15.5674C37.6965 13.4969 36.3118 11.5806 35.8423 10.3466H35.8601V5.17915H38.3977V2.59247H35.8601V0.0117188ZM28.0986 43.9557V31.0282H34.5645H41.0364V43.9557H28.0986ZM21.6148 74.9662V49.1291H21.6504C21.6504 49.1291 22.9935 48.3163 23.7602 46.5424H45.3807C46.1474 48.3103 47.4905 49.1291 47.4905 49.1291V74.9722H39.7468V59.458C39.7468 56.6043 37.429 54.2906 34.5705 54.2906C31.7119 54.2906 29.3941 56.6043 29.3941 59.458V74.9722H21.6148V74.9662ZM50.0816 74.9662V49.1291H56.5714H63.0254V74.9722H50.0816V74.9662ZM6.07983 74.9662V49.1291H12.5696H19.0236V74.9722H6.07983V74.9662Z" fill="black"/>
<path d="M35.8778 36.2017H33.251V41.3691H35.8778V36.2017Z" fill="black"/>
</svg>
