<svg width="73" height="68" viewBox="0 0 73 68" fill="none" xmlns="http://www.w3.org/2000/svg">
<path d="M44.1369 67.9942C59.8718 67.9942 72.6275 55.2604 72.6275 39.5525C72.6275 23.8446 59.8718 11.1108 44.1369 11.1108C28.4019 11.1108 15.6462 23.8446 15.6462 39.5525C15.6462 55.2604 28.4019 67.9942 44.1369 67.9942Z" fill="#E6280F"/>
<path d="M23.4434 0.69873V18.7937H0.13501V41.6763C0.13501 51.7561 5.69764 60.9993 14.5883 65.6921C17.3578 67.1516 19.7468 67.8872 22.13 67.8872C24.5131 67.8872 26.9022 67.1575 29.6716 65.6921C36.1792 62.2571 40.8979 56.3836 42.9661 49.5313C43.7981 49.7033 44.6182 49.7923 45.4383 49.7923C47.8274 49.7923 50.2105 49.0626 52.98 47.5972C61.8707 42.9044 67.4333 33.6611 67.4333 23.5814V0.69873H23.4434ZM41.51 26.9156V29.6625V34.2782V36.8886V41.6763C41.51 43.207 41.3614 44.7257 41.0821 46.2149C40.9989 46.648 40.9098 47.081 40.8028 47.5082C40.6958 47.9354 40.5829 48.3566 40.4522 48.7778C39.8638 50.7238 39.0377 52.5985 37.9799 54.3546C35.68 58.1812 32.3816 61.3019 28.4414 63.3783C25.9632 64.6835 24.0139 65.2709 22.124 65.2709C20.2342 65.2709 18.2789 64.6895 15.8066 63.3783C11.8664 61.3019 8.5681 58.1812 6.26816 54.3546C3.96823 50.528 2.74992 46.1437 2.74992 41.6704V21.3981H23.4434H24.7508H26.0583H41.51V26.9156ZM64.8184 23.5814C64.8184 28.0547 63.6001 32.439 61.3001 36.2656C59.0002 40.0923 55.7019 43.2129 51.7617 45.2894C49.2834 46.5946 47.3341 47.1819 45.4443 47.1819C44.844 47.1819 44.2319 47.1226 43.6079 46.998C43.9526 45.2656 44.1368 43.4858 44.1368 41.6763V36.8886H57.1163C57.1163 31.1753 52.5105 26.5478 46.823 26.5478H44.2497C44.2141 26.5478 44.1725 26.5478 44.1368 26.5478V18.7877H26.0702V3.30321H64.8303V23.5814H64.8184ZM44.1249 34.2722V29.1582C44.1606 29.1582 44.2022 29.1582 44.2379 29.1582H46.8112C50.1392 29.1582 52.98 31.294 54.0497 34.2722H44.1249Z" fill="black"/>
<path d="M41.5395 13.6201H33.8018V16.2068H41.5395V13.6201Z" fill="black"/>
<path d="M57.1638 13.6201H49.3369V16.2068H57.1638V13.6201Z" fill="black"/>
<path d="M18.2611 31.7153H10.4937V34.302H18.2611V31.7153Z" fill="black"/>
<path d="M26.0344 31.8874V34.302H26.9794H28.4235H33.8019V31.7153H27.3538H26.0344V31.8874Z" fill="black"/>
<path d="M10.4878 44.6426C10.4878 50.3558 15.1174 54.9834 20.8226 54.9834H23.4673C29.1725 54.9834 33.8021 50.3558 33.8021 44.6426H10.4878ZM30.7355 47.2589C29.6598 50.2372 26.8072 52.373 23.4673 52.373H20.8226C17.4827 52.373 14.63 50.2372 13.5544 47.2589H30.7355Z" fill="black"/>
</svg>
