<svg width="69" height="78" viewBox="0 0 69 78" fill="none" xmlns="http://www.w3.org/2000/svg">
<path d="M68.271 73.5621L31.1571 0.571289C17.8508 7.32277 8.71045 21.1283 8.71045 37.0696C8.71045 59.6972 27.0505 78.0057 49.717 78.0057C56.385 77.9998 62.7143 76.3979 68.271 73.5621Z" fill="#8CD2FF"/>
<path d="M21.6067 62.7641C25.1904 54.3871 26.8484 46.8525 26.8128 39.1992C26.7236 21.8755 16.5314 13.9434 16.0976 13.6112L15.747 13.3442H11.9375L11.5869 13.6112C11.153 13.9375 0.925172 21.8696 0.836027 39.1992C0.800369 46.5677 2.51789 54.2447 6.07774 62.6158V64.6982L0.830078 73.9592V77.9935H4.64548L13.7917 75.5611L22.8132 77.9935H26.7652V73.9711L21.6067 64.6211V62.7641ZM8.90065 62.5565C8.11618 60.7707 7.41491 59.0324 6.80278 57.3297H20.9292C20.323 59.0384 19.6277 60.7707 18.8492 62.5565H8.90065ZM3.45093 39.2111C3.46282 37.366 3.59951 35.6395 3.82534 34.0318H23.8235C24.0552 35.6395 24.186 37.366 24.1979 39.2111C24.1979 39.2229 24.1979 39.2348 24.1979 39.2407H3.45093C3.45093 39.2348 3.45093 39.2229 3.45093 39.2111ZM24.1384 41.8571C24.0552 43.5598 23.877 45.2625 23.6095 46.983H4.06306C3.78374 45.2566 3.59951 43.5539 3.51037 41.8571H24.1384ZM23.1281 49.5934C22.7775 51.2783 22.3318 52.981 21.7969 54.7193H5.91728C5.37053 52.981 4.91886 51.2724 4.55634 49.5934H23.1281ZM12.8468 15.9606H14.8317C15.5687 16.6013 17.4585 18.399 19.3306 21.4009C20.7688 23.7028 22.3853 27.043 23.348 31.4154H4.30079C5.26356 27.043 6.89193 23.7028 8.33013 21.4009C10.2141 18.399 12.1099 16.6013 12.8468 15.9606ZM24.1503 75.3772H23.1579L13.7977 72.8558L4.30672 75.3772H3.45093V74.6474L8.81744 65.1728H18.9324L24.1563 74.6415V75.3772H24.1503Z" fill="black"/>
<path d="M9.95865 28.8882C10.6718 28.8882 11.2542 28.3068 11.2542 27.583C11.2542 26.8652 10.6718 26.2778 9.95865 26.2778C9.24549 26.2778 8.66309 26.8592 8.66309 27.583C8.66309 28.3009 9.23955 28.8882 9.95865 28.8882Z" fill="black"/>
<path d="M49.4971 44.3549L46.2582 54.3397L48.7483 55.1466L51.3988 46.9712H52.6528V57.3713C52.6528 61.6192 49.188 65.078 44.9329 65.078C40.6777 65.078 37.2129 61.6192 37.2129 57.3713V39.0629C39.4237 38.4874 41.058 36.4762 41.058 34.0853C41.058 31.6944 39.4237 29.6891 37.2129 29.1077V3.15186H34.598V29.1077C32.3872 29.6832 30.7529 31.6944 30.7529 34.0853C30.7529 36.4762 32.3872 38.4814 34.598 39.0629V57.3713C34.598 63.0609 39.2336 67.6944 44.9388 67.6944C50.6381 67.6944 55.2796 63.0668 55.2796 57.3713V44.3549H49.4971ZM33.3678 34.0853C33.3678 32.6911 34.5029 31.5579 35.8995 31.5579C37.2961 31.5579 38.4313 32.6911 38.4313 34.0853C38.4313 35.4795 37.2961 36.6126 35.8995 36.6126C34.5029 36.6126 33.3678 35.4795 33.3678 34.0853Z" fill="black"/>
</svg>
