<svg width="79" height="71" viewBox="0 0 79 71" fill="none" xmlns="http://www.w3.org/2000/svg">
<path d="M10.5865 65.1068L72.6014 53.8286L62.9144 0.813477L0.917236 12.0917L10.5865 65.1068Z" fill="#8CD2FF"/>
<path d="M60.4363 34.2863C58.9803 34.2863 57.5659 34.4583 56.2109 34.7787L51.0999 16.1558H39.7429V18.7662H49.1031L53.7148 35.5618C47.4093 38.0714 42.8392 44.0101 42.3221 51.0701L37.1696 51.0641C36.6704 44.2889 32.4449 38.5519 26.5376 35.8822L28.6592 29.107H37.1577V26.5203H19.0316V29.107H25.9136L24.0772 34.9804C22.4845 34.5236 20.7967 34.2804 19.0554 34.2804C9.02363 34.2804 0.887695 42.4023 0.887695 52.4168C0.887695 62.4313 9.01768 70.5533 19.0554 70.5533C28.6592 70.5533 36.5277 63.1076 37.1755 53.6864L42.3221 53.6923C42.9759 63.1136 50.8384 70.5592 60.4423 70.5592C70.474 70.5592 78.61 62.4372 78.61 52.4227C78.61 42.4082 70.4681 34.2863 60.4363 34.2863ZM54.4101 38.1129L55.1114 40.664C51.0167 42.515 48.0631 46.4306 47.5817 51.0819H44.9489C45.4541 45.2322 49.216 40.3021 54.4101 38.1129ZM57.97 51.0879L50.2204 51.0819C50.672 47.6409 52.8293 44.7279 55.8186 43.227L57.97 51.0879ZM58.2909 42.3548C58.9862 42.2065 59.6994 42.1294 60.4363 42.1294C66.1178 42.1294 70.7415 46.7451 70.7415 52.4168C70.7415 58.0885 66.1178 62.7042 60.4363 62.7042C55.1827 62.7042 50.8444 58.7649 50.2085 53.6923L61.405 53.6983L58.2909 42.3548ZM34.5368 51.0701H31.9041C31.4405 46.6442 28.7424 42.8888 24.9508 40.9428L25.7412 38.4155C30.5907 40.7293 34.0495 45.4814 34.5368 51.0701ZM21.7832 51.0641L24.1545 43.488C26.8882 45.0483 28.8375 47.8248 29.2654 51.0701L21.7832 51.0641ZM29.2773 53.6805C28.6533 58.7589 24.309 62.7101 19.0494 62.7101C13.3679 62.7101 8.74431 58.0945 8.74431 52.4227C8.74431 46.751 13.3679 42.1353 19.0494 42.1353C19.9765 42.1353 20.868 42.2599 21.7238 42.4913L18.2234 53.6805H29.2773ZM19.0494 67.9428C10.4737 67.9428 3.5026 60.9778 3.5026 52.4227C3.5026 43.8618 10.4797 36.9026 19.0494 36.9026C20.5174 36.9026 21.9377 37.1103 23.2868 37.4959L22.5023 39.9936C21.4029 39.691 20.244 39.5249 19.0435 39.5249C11.906 39.5249 6.11751 45.3034 6.11751 52.4287C6.11751 59.5539 11.906 65.3324 19.0435 65.3324C25.7531 65.3324 31.2682 60.2243 31.9041 53.6923H34.5309C33.895 61.6541 27.1973 67.9428 19.0494 67.9428ZM60.4363 67.9428C52.2945 67.9428 45.5967 61.66 44.943 53.6923H47.5757C48.2176 60.2184 53.7327 65.3206 60.4363 65.3206C67.5739 65.3206 73.3623 59.5421 73.3623 52.4168C73.3623 45.2916 67.5739 39.513 60.4363 39.513C59.4617 39.513 58.5108 39.6258 57.5956 39.8275L56.9003 37.3001C58.0354 37.0332 59.218 36.8908 60.4304 36.8908C69.0061 36.8908 75.9772 43.8558 75.9772 52.4109C75.9832 60.9778 69.0061 67.9428 60.4363 67.9428Z" fill="black"/>
</svg>
