<svg width="178" height="82" viewBox="0 0 178 82" fill="none" xmlns="http://www.w3.org/2000/svg">
<path d="M134.219 81.3464L143.157 58.0547L126.54 51.6911L117.603 74.9677L134.219 81.3464Z" fill="#E6280F"/>
<path d="M128.94 51.643L178 42.7041L170.336 0.676117L121.291 9.61754L128.94 51.643Z" fill="#F59600"/>
<path d="M106.028 71.2326C125.689 71.2326 141.628 55.2866 141.628 35.6163C141.628 15.946 125.689 0 106.028 0C86.3666 0 70.428 15.946 70.428 35.6163C70.428 55.2866 86.3666 71.2326 106.028 71.2326Z" fill="#7D9B1E"/>
<path d="M177.871 54.6083L158.516 16.4622C151.575 19.9897 146.809 27.2066 146.809 35.5353C146.809 47.3584 156.374 56.9278 168.192 56.9278C171.672 56.9278 174.973 56.0897 177.871 54.6083Z" fill="#780050"/>
<path d="M110.341 64.0156C112.315 64.0156 113.915 62.4148 113.915 60.4401C113.915 58.4654 112.315 56.8645 110.341 56.8645C108.367 56.8645 106.767 58.4654 106.767 60.4401C106.767 62.4148 108.367 64.0156 110.341 64.0156Z" fill="#8CD2FF"/>
<path d="M7.11747 35.5276H0V42.6484H7.11747V35.5276Z" fill="#E6280F"/>
<path d="M91.8665 63.418L96.5844 13.8034L25.6755 7.07007L20.9575 56.667L91.8665 63.418Z" fill="#780050"/>
<path d="M61.2023 70.9084L72.8429 0.676103L71.2483 0.402618L59.5925 70.6349L61.2023 70.9084Z" fill="#E6280F"/>
<path d="M29.1204 63.3345L43.4186 30.6986L17.3659 19.2629L3.05249 51.8988L29.1204 63.3345Z" fill="#E6280F"/>
<path d="M157.03 31.2482C155.432 31.2482 154.24 32.4561 154.24 33.9881C154.24 35.5201 155.43 36.728 157.03 36.728H157.356L153.818 42.4382V42.6661H155.594L159.28 36.728H159.508V42.6661H161.138V31.2482H157.03ZM159.508 35.0972H157.03C156.344 35.0972 155.873 34.6237 155.873 33.9881C155.873 33.3525 156.346 32.8789 157.03 32.8789H159.508V35.0972Z" fill="white"/>
<path d="M136.014 42.6661V31.2482H134.025L129.231 39.6148H129V31.2482H127.37V42.6661H129.36L134.154 34.297H134.381V42.6661H136.014Z" fill="white"/>
<path d="M106.139 42.8282C107.754 42.8282 109.222 42.1597 110.28 41.0835L109.138 39.9414C108.371 40.7087 107.311 41.1974 106.139 41.1974C103.79 41.1974 101.884 39.2881 101.884 36.9407C101.884 34.6085 103.793 32.7143 106.139 32.7143C107.313 32.7143 108.356 33.1879 109.123 33.9551L110.28 32.7979C109.219 31.7369 107.751 31.0861 106.139 31.0861C102.894 31.0861 100.252 33.712 100.252 36.9432C100.252 40.187 102.894 42.8282 106.139 42.8282Z" fill="white"/>
<path d="M79.4057 42.8282C81.0205 42.8282 82.4886 42.1597 83.5466 41.0835L82.405 39.9414C81.6381 40.7087 80.5776 41.1974 79.4057 41.1974C77.0568 41.1974 75.1509 39.2881 75.1509 36.9407C75.1509 34.6085 77.0593 32.7143 79.4057 32.7143C80.5801 32.7143 81.6229 33.1879 82.3899 33.9551L83.5466 32.7979C82.486 31.7369 81.018 31.0861 79.4057 31.0861C76.1608 31.0861 73.5183 33.712 73.5183 36.9432C73.5208 40.187 76.1608 42.8282 79.4057 42.8282Z" fill="white"/>
<path d="M51.2144 31.0836C47.9695 31.0836 45.3447 33.7095 45.3447 36.9559C45.3447 40.2022 47.9695 42.8282 51.2144 42.8282C54.4592 42.8282 57.084 40.2022 57.084 36.9559C57.084 33.7095 54.4592 31.0836 51.2144 31.0836ZM51.2144 41.1974C48.8655 41.1974 46.9748 39.3058 46.9748 36.9559C46.9748 34.6059 48.8655 32.7143 51.2144 32.7143C53.5632 32.7143 55.454 34.6059 55.454 36.9559C55.454 39.3058 53.5632 41.1974 51.2144 41.1974Z" fill="white"/>
<path d="M24.7819 31.2304H21.6838V42.6484H23.3139V37.9181H24.7819C26.7385 37.9181 28.2065 36.4165 28.2065 34.573C28.2065 32.7295 26.7385 31.2304 24.7819 31.2304ZM24.7819 36.2874H23.3139V32.8612H24.7819C25.8424 32.8612 26.5765 33.6437 26.5765 34.573C26.5765 35.5024 25.8424 36.2874 24.7819 36.2874Z" fill="white"/>
</svg>
