<svg width="200" height="92" viewBox="0 0 200 92" fill="none" xmlns="http://www.w3.org/2000/svg">
<path d="M150.809 91.3616L160.851 65.2002L142.18 58.0562L132.138 84.1976L150.809 91.3616Z" fill="#B9CD00"/>
<path d="M144.876 58.0021L200 47.9601L191.389 0.762207L136.282 10.8013L144.876 58.0021Z" fill="#B9CD00"/>
<path d="M119.133 80C141.224 80 159.133 62.0914 159.133 40C159.133 17.9086 141.224 0 119.133 0C97.0414 0 79.1328 17.9086 79.1328 40C79.1328 62.0914 97.0414 80 119.133 80Z" fill="#E6280F"/>
<path d="M199.855 61.3295L178.11 18.4884C170.312 22.45 164.957 30.5552 164.957 39.9089C164.957 53.1872 175.704 63.9345 188.982 63.9345C192.89 63.9345 196.598 62.9932 199.855 61.3295Z" fill="#0F6923"/>
<path d="M123.981 71.8946C126.199 71.8946 127.997 70.0968 127.997 67.879C127.997 65.6612 126.199 63.8633 123.981 63.8633C121.764 63.8633 119.966 65.6612 119.966 67.879C119.966 70.0968 121.764 71.8946 123.981 71.8946Z" fill="#B9CD00"/>
<path d="M7.99716 39.9003H0V47.8975H7.99716V39.9003Z" fill="#E6280F"/>
<path d="M103.221 71.2236L108.522 15.5023L28.8492 7.94019L23.5481 63.6445L103.221 71.2236Z" fill="#0F6923"/>
<path d="M68.7668 79.6387L81.846 0.762162L80.0544 0.452148L66.958 79.3316L68.7668 79.6387Z" fill="#B9CD00"/>
<path d="M32.7197 71.1297L48.7851 34.4772L19.5124 21.6339L3.42993 58.2866L32.7197 71.1297Z" fill="#E6280F"/>
<path d="M176.429 35.0944C174.635 35.0944 173.295 36.4509 173.295 38.1715C173.295 39.8921 174.632 41.2487 176.429 41.2487H176.796L172.82 47.6617V47.9177H174.817L178.958 41.2487H179.213V47.9177H181.045V35.0944H176.429ZM179.213 39.4171H176.429C175.659 39.4171 175.13 38.8854 175.13 38.1715C175.13 37.4577 175.661 36.9258 176.429 36.9258H179.213V39.4171Z" fill="white"/>
<path d="M152.813 47.9177V35.0944H150.578L145.194 44.4936H144.935V35.0944H143.104V47.9177H145.339L150.726 38.5213H150.982V47.9177H152.813Z" fill="white"/>
<path d="M119.246 48.1025C121.06 48.1025 122.71 47.3517 123.899 46.143L122.616 44.8604C121.754 45.7221 120.563 46.271 119.246 46.271C116.607 46.271 114.465 44.1267 114.465 41.4903C114.465 38.8711 116.61 36.7438 119.246 36.7438C120.565 36.7438 121.737 37.2756 122.599 38.1373L123.899 36.8377C122.707 35.6461 121.057 34.9152 119.246 34.9152C115.6 34.9152 112.631 37.8643 112.631 41.4932C112.634 45.1334 115.6 48.1025 119.246 48.1025Z" fill="white"/>
<path d="M89.2112 48.1025C91.0256 48.1025 92.6751 47.3517 93.8639 46.143L92.5813 44.8604C91.7196 45.7221 90.5279 46.271 89.2112 46.271C86.572 46.271 84.4305 44.1267 84.4305 41.4903C84.4305 38.8711 86.5749 36.7438 89.2112 36.7438C90.5308 36.7438 91.7025 37.2756 92.5642 38.1373L93.8639 36.8377C92.6723 35.6461 91.0228 34.9152 89.2112 34.9152C85.5653 34.9152 82.5962 37.8643 82.5962 41.4932C82.599 45.1334 85.5653 48.1025 89.2112 48.1025Z" fill="white"/>
<path d="M57.5358 34.9094C53.8898 34.9094 50.9407 37.8586 50.9407 41.5045C50.9407 45.1504 53.8898 48.0995 57.5358 48.0995C61.1817 48.0995 64.1309 45.1504 64.1309 41.5045C64.1309 37.8586 61.1817 34.9094 57.5358 34.9094ZM57.5358 46.2709C54.8966 46.2709 52.7722 44.1465 52.7722 41.5073C52.7722 38.8682 54.8966 36.7437 57.5358 36.7437C60.1749 36.7437 62.2994 38.8682 62.2994 41.5073C62.2994 44.1437 60.1721 46.2709 57.5358 46.2709Z" fill="white"/>
<path d="M27.8364 35.0745H24.3555V47.8977H26.187V42.5853H27.8364C30.0348 42.5853 31.6843 40.8988 31.6843 38.8285C31.6843 36.761 30.0348 35.0745 27.8364 35.0745ZM27.8364 40.7566H26.187V36.9088H27.8364C29.0281 36.9088 29.8528 37.7876 29.8528 38.8313C29.8528 39.875 29.0281 40.7566 27.8364 40.7566Z" fill="white"/>
</svg>
