<svg width="200" height="92" viewBox="0 0 200 92" fill="none" xmlns="http://www.w3.org/2000/svg">
<path d="M150.811 91.36L160.853 65.2011L142.182 58.0542L132.14 84.196L150.811 91.36Z" fill="#F59600"/>
<path d="M144.878 58.0002L200 47.9609L191.389 0.759399L136.284 10.8015L144.878 58.0002Z" fill="#F59600"/>
<path d="M119.131 80.0011C141.223 80.0011 159.132 62.0923 159.132 40.0006C159.132 17.9089 141.223 0 119.131 0C97.0392 0 79.1304 17.9089 79.1304 40.0006C79.1304 62.0923 97.0392 80.0011 119.131 80.0011Z" fill="#E6280F"/>
<path d="M199.855 61.3304L178.11 18.4886C170.312 22.4503 164.957 30.5557 164.957 39.9095C164.957 53.188 175.704 63.9354 188.983 63.9354C192.89 63.9354 196.599 62.9941 199.855 61.3304Z" fill="#780050"/>
<path d="M123.981 71.8958C126.198 71.8958 127.996 70.0979 127.996 67.8801C127.996 65.6623 126.198 63.8644 123.981 63.8644C121.763 63.8644 119.965 65.6623 119.965 67.8801C119.965 70.0979 121.763 71.8958 123.981 71.8958Z" fill="#F59600"/>
<path d="M7.99727 39.901H0V47.8983H7.99727V39.901Z" fill="#E6280F"/>
<path d="M103.222 71.2247L108.521 15.5026L28.8464 7.94043L23.5481 63.6426L103.222 71.2247Z" fill="#780050"/>
<path d="M68.7677 79.6371L81.8471 0.759298L80.0554 0.452148L66.9561 79.3299L68.7677 79.6371Z" fill="#E6280F"/>
<path d="M32.7172 71.1308L48.7829 34.4776L19.5126 21.6342L3.42993 58.2874L32.7172 71.1308Z" fill="#E6280F"/>
<path d="M176.432 35.0948C174.637 35.0948 173.298 36.4514 173.298 38.172C173.298 39.8926 174.635 41.2492 176.432 41.2492H176.799L172.823 47.6624V47.9184H174.819L178.96 41.2492H179.216V47.9184H181.048V35.0948H176.432ZM179.216 39.4177H176.432C175.661 39.4177 175.132 38.8859 175.132 38.172C175.132 37.4582 175.664 36.9264 176.432 36.9264H179.216V39.4177Z" fill="white"/>
<path d="M152.816 47.9184V35.0948H150.581L145.194 44.4914H144.938V35.0948H143.107V47.9184H145.342L150.729 38.519H150.985V47.9184H152.816Z" fill="white"/>
<path d="M119.248 48.1004C121.063 48.1004 122.712 47.3496 123.901 46.1409L122.619 44.8582C121.757 45.72 120.565 46.2688 119.248 46.2688C116.609 46.2688 114.468 44.1245 114.468 41.4881C114.468 38.8688 116.612 36.7415 119.248 36.7415C120.568 36.7415 121.74 37.2733 122.601 38.1351L123.901 36.8354C122.71 35.6437 121.06 34.9128 119.248 34.9128C115.602 34.9128 112.633 37.862 112.633 41.491C112.633 45.1341 115.602 48.1004 119.248 48.1004Z" fill="white"/>
<path d="M89.2132 48.1004C91.0277 48.1004 92.6772 47.3496 93.866 46.1409L92.5834 44.8582C91.7216 45.72 90.53 46.2688 89.2132 46.2688C86.574 46.2688 84.4325 44.1245 84.4325 41.4881C84.4325 38.8688 86.5769 36.7415 89.2132 36.7415C90.5328 36.7415 91.7046 37.2733 92.5663 38.1351L93.866 36.8354C92.6744 35.6437 91.0249 34.9128 89.2132 34.9128C85.5673 34.9128 82.5981 37.862 82.5981 41.491C82.5981 45.1341 85.5673 48.1004 89.2132 48.1004Z" fill="white"/>
<path d="M57.5339 34.9099C53.8879 34.9099 50.9387 37.8591 50.9387 41.5051C50.9387 45.1511 53.8879 48.1003 57.5339 48.1003C61.1799 48.1003 64.1291 45.1511 64.1291 41.5051C64.1291 37.8591 61.1799 34.9099 57.5339 34.9099ZM57.5339 46.2688C54.8947 46.2688 52.7702 44.1443 52.7702 41.5051C52.7702 38.8659 54.8947 36.7414 57.5339 36.7414C60.1731 36.7414 62.2976 38.8659 62.2976 41.5051C62.2976 44.1443 60.1731 46.2688 57.5339 46.2688Z" fill="white"/>
<path d="M27.8372 35.075H24.3562V47.8985H26.1877V42.5859H27.8372C30.0356 42.5859 31.6851 40.8994 31.6851 38.829C31.6851 36.7586 30.0356 35.075 27.8372 35.075ZM27.8372 40.7544H26.1877V36.9065H27.8372C29.0289 36.9065 29.8536 37.7853 29.8536 38.829C29.8536 39.8727 29.026 40.7544 27.8372 40.7544Z" fill="white"/>
</svg>
