<svg width="200" height="92" viewBox="0 0 200 92" fill="none" xmlns="http://www.w3.org/2000/svg">
<path d="M150.811 91.3629L160.853 65.2039L142.182 58.057L132.14 84.1989L150.811 91.3629Z" fill="#B9CD00"/>
<path d="M144.878 58.003L200 47.961L191.389 0.762207L136.284 10.8015L144.878 58.003Z" fill="#B9CD00"/>
<path d="M119.131 80.0011C141.223 80.0011 159.132 62.0923 159.132 40.0006C159.132 17.9089 141.223 0 119.131 0C97.0392 0 79.1304 17.9089 79.1304 40.0006C79.1304 62.0923 97.0392 80.0011 119.131 80.0011Z" fill="#7D9B1E"/>
<path d="M199.856 61.3303L178.11 18.4886C170.312 22.4503 164.957 30.5556 164.957 39.9095C164.957 53.188 175.704 63.9354 188.983 63.9354C192.891 63.9354 196.599 62.9969 199.856 61.3303Z" fill="#0F6923"/>
<path d="M123.981 71.8958C126.198 71.8958 127.996 70.0979 127.996 67.8801C127.996 65.6623 126.198 63.8644 123.981 63.8644C121.763 63.8644 119.965 65.6623 119.965 67.8801C119.965 70.0979 121.763 71.8958 123.981 71.8958Z" fill="#B9CD00"/>
<path d="M7.99727 39.9011H0V47.8984H7.99727V39.9011Z" fill="#B9CD00"/>
<path d="M103.222 71.2274L108.521 15.5054L28.8467 7.94324L23.5483 63.6454L103.222 71.2274Z" fill="#0F6923"/>
<path d="M68.7677 79.6399L81.8471 0.762093L80.0554 0.454956L66.9561 79.3327L68.7677 79.6399Z" fill="#7D9B1E"/>
<path d="M32.7175 71.1336L48.7831 34.4804L19.5129 21.6342L3.43018 58.2874L32.7175 71.1336Z" fill="#B9CD00"/>
<path d="M176.432 35.0947C174.638 35.0947 173.298 36.4513 173.298 38.1719C173.298 39.8953 174.635 41.2491 176.432 41.2491H176.799L172.823 47.6622V47.9182H174.82L178.961 41.2491H179.217V47.9182H181.048V35.0947H176.432ZM179.217 39.4204H176.432C175.662 39.4204 175.133 38.8886 175.133 38.1747C175.133 37.4609 175.664 36.9291 176.432 36.9291H179.217V39.4204Z" fill="white"/>
<path d="M152.815 47.9211V35.0947H150.58L145.193 44.4941H144.937V35.0947H143.106V47.9211H145.341L150.728 38.5217H150.984V47.9211H152.815Z" fill="white"/>
<path d="M119.248 48.1031C121.062 48.1031 122.712 47.3523 123.901 46.1436L122.618 44.861C121.756 45.7227 120.565 46.2716 119.248 46.2716C116.609 46.2716 114.467 44.1273 114.467 41.4909C114.467 38.8716 116.612 36.7443 119.248 36.7443C120.568 36.7443 121.739 37.2761 122.601 38.1379L123.901 36.8381C122.709 35.6465 121.06 34.9156 119.248 34.9156C115.602 34.9156 112.633 37.8649 112.633 41.4938C112.633 45.134 115.602 48.1031 119.248 48.1031Z" fill="white"/>
<path d="M89.2127 48.1031C91.0272 48.1031 92.6767 47.3523 93.8655 46.1436L92.5829 44.861C91.7211 45.7227 90.5295 46.2716 89.2127 46.2716C86.5735 46.2716 84.432 44.1273 84.432 41.4909C84.432 38.8716 86.5764 36.7443 89.2127 36.7443C90.5324 36.7443 91.7041 37.2761 92.5658 38.1379L93.8655 36.8381C92.6739 35.6465 91.0244 34.9156 89.2127 34.9156C85.5668 34.9156 82.5977 37.8649 82.5977 41.4938C82.5977 45.134 85.5668 48.1031 89.2127 48.1031Z" fill="white"/>
<path d="M57.5342 34.9127C53.8882 34.9127 50.939 37.8619 50.939 41.5079C50.939 45.1539 53.8882 48.1031 57.5342 48.1031C61.1801 48.1031 64.1293 45.1539 64.1293 41.5079C64.1293 37.8619 61.1801 34.9127 57.5342 34.9127ZM57.5342 46.2716C54.8949 46.2716 52.7705 44.1471 52.7705 41.5079C52.7705 38.8687 54.8949 36.7442 57.5342 36.7442C60.1734 36.7442 62.2978 38.8687 62.2978 41.5079C62.2978 44.1471 60.1734 46.2716 57.5342 46.2716Z" fill="white"/>
<path d="M27.837 35.0778H24.356V47.9012H26.1875V42.5887H27.837C30.0354 42.5887 31.6849 40.9022 31.6849 38.8318C31.6849 36.7614 30.0354 35.0778 27.837 35.0778ZM27.837 40.7572H26.1875V36.9093H27.837C29.0286 36.9093 29.8534 37.7881 29.8534 38.8318C29.8534 39.8755 29.0258 40.7572 27.837 40.7572Z" fill="white"/>
</svg>
