<svg width="60" height="15" viewBox="0 0 60 15" fill="none" xmlns="http://www.w3.org/2000/svg">
<path d="M0.858542 7.45267L0 6.40152C0.682263 5.84657 1.27965 5.20675 1.7889 4.47878C2.72579 3.1469 3.28074 1.65506 3.45375 0L4.81828 0.137106C4.76279 0.682263 4.66812 1.22742 4.53101 1.77584L10.0446 0.287269L10.5212 1.58324L8.40588 2.15778V4.80522H10.8346C10.7791 3.36888 10.753 1.78564 10.753 0.0554951H12.1175C12.1175 1.93906 12.1502 3.52231 12.2122 4.80522H15.4472V6.16975H12.2807C12.3721 7.53428 12.4897 8.73885 12.6366 9.78672C13.2176 8.88574 13.6387 7.92601 13.8934 6.90751L15.2318 7.25027C14.9217 8.55277 14.3765 9.74755 13.593 10.8411C13.4298 11.0794 13.2274 11.3373 12.9924 11.6181C13.1654 12.2807 13.3482 12.7671 13.5441 13.0707C13.7399 13.3743 13.9391 13.5277 14.1382 13.5277C14.4744 13.5277 14.6442 12.8814 14.6442 11.5887H16.0087C16.0087 12.7704 15.8487 13.6159 15.5321 14.1284C15.2122 14.6376 14.7095 14.8923 14.0174 14.8923C13.1164 14.8923 12.4113 14.1676 11.9021 12.7214C11.1545 13.3841 10.3547 13.926 9.49946 14.3471L8.88574 13.1328C9.85854 12.6496 10.7334 12.0131 11.5071 11.2231C11.2329 9.95974 11.0337 8.2753 10.9064 6.17301H8.40914V8.42546L10.4168 7.89336V9.30033L8.40914 9.83243V12.9304C8.40914 13.358 8.29488 13.7203 8.06638 14.0141C7.83787 14.3112 7.55386 14.5299 7.21436 14.6768C6.8716 14.8237 6.52884 14.8955 6.18281 14.8955H5.26877V13.531H6.20892C6.52557 13.531 6.74429 13.4592 6.86507 13.3188C6.98259 13.1785 7.04135 12.9206 7.04135 12.5484V10.2013L4.76279 10.815L4.40696 9.48966L7.04135 8.79434V6.16975H4.42002V4.80522H7.04135V2.51034L4.87051 3.09793L4.52775 1.80196C4.35473 2.47443 4.10337 3.14363 3.77693 3.80958V14.8923H2.41567V5.9086C1.92274 6.49946 1.40696 7.01523 0.858542 7.45267ZM12.9238 1.10664L14.1643 0.519042L15.4603 3.29053L14.2492 3.9173L12.9238 1.10664Z" fill="black"/>
<path d="M24.5519 14.8498L23.6934 13.3482C24.2842 13.4559 24.8751 13.5114 25.4659 13.5114C27.0133 13.5114 28.4725 13.1491 29.8468 12.4211L27.1993 9.76061L28.1819 8.79108L31.0481 11.6703C32.3049 10.753 33.2777 9.56801 33.9697 8.12187H27.6792C27.2973 8.47769 26.8794 8.81393 26.4224 9.13058C25.812 9.54842 25.1721 9.90425 24.4997 10.1948L23.9676 8.93798C24.5486 8.69315 25.1036 8.38303 25.6324 8.01088C26.6607 7.29271 27.5258 6.37867 28.2244 5.26877L29.3996 6.00653C29.2265 6.28074 29.0601 6.52884 28.8936 6.75735H35.4975V8.12187C35.0144 9.24157 34.3811 10.2503 33.5943 11.1513C32.8076 12.0522 31.8903 12.8063 30.8457 13.4168C30.0002 13.9097 29.1156 14.2753 28.1917 14.5169C27.2679 14.7584 26.3375 14.8792 25.4006 14.8792C25.0154 14.876 24.7347 14.8662 24.5519 14.8498ZM24.0492 0.492928H36.8783V5.26877H24.0492V0.492928ZM27.8685 3.90424V1.85745H25.4104V3.90424H27.8685ZM31.6912 3.90424V1.85745H29.2331V3.90424H31.6912ZM35.5105 3.90424V1.85745H33.0524V3.90424H35.5105Z" fill="black"/>
<path d="M53.1578 6.90424H51.1371V9.63329H52.3253V10.9978H46.7562L47.8629 11.7062C47.0435 13.0348 46.0609 14.0958 44.9151 14.8857L44.1382 13.7791C45.0947 13.0968 45.9499 12.1697 46.704 10.9946H44.1382V9.63003H45.679V2.81066H44.3145V1.44613H45.679V0.0946655H47.0435V1.44613H49.7726V0.0946655H51.1371V1.44613H52.5016V2.81066H51.1371V5.53971H53.1708V1.45919L57.9075 0.107723L59.1088 1.17192L54.5353 2.49728V5.53971H56.3765V4.2013H57.741V5.53971H59.1055V6.90424H57.741V14.889H56.3765V6.90424H54.519C54.4635 8.63438 54.2611 10.1817 53.9118 11.5528C53.5626 12.9206 53.0762 14.0696 52.4592 15L51.3003 14.2622C52.4298 12.6594 53.0468 10.2078 53.1578 6.90424ZM49.7726 4.17519V2.81066H47.0435V4.17519H49.7726ZM49.7726 6.90424V5.53971H47.0435V6.90424H49.7726ZM49.7726 9.63656V8.27203H47.0435V9.63656H49.7726ZM49.2666 12.0914L50.3732 11.272C50.9086 11.938 51.3525 12.6464 51.6986 13.4004L50.4842 13.975C50.1806 13.3286 49.7758 12.7018 49.2666 12.0914Z" fill="black"/>
</svg>
