<svg width="178" height="82" viewBox="0 0 178 82" fill="none" xmlns="http://www.w3.org/2000/svg">
<path d="M134.22 81.3092L143.157 58.0281L126.54 51.6674L117.603 74.9334L134.22 81.3092Z" fill="#E6280F"/>
<path d="M128.94 51.6194L178 42.6846L170.336 0.675812L121.291 9.61314L128.94 51.6194Z" fill="#F59600"/>
<path d="M106.028 71.2C125.689 71.2 141.628 55.2613 141.628 35.6C141.628 15.9387 125.689 0 106.028 0C86.3666 0 70.428 15.9387 70.428 35.6C70.428 55.2613 86.3666 71.2 106.028 71.2Z" fill="#7D9B1E"/>
<path d="M177.871 54.5833L158.516 16.4547C151.575 19.9805 146.809 27.1942 146.809 35.519C146.809 47.3367 156.374 56.9018 168.192 56.9018C171.672 56.9018 174.973 56.064 177.871 54.5833Z" fill="#780050"/>
<path d="M110.341 63.9863C112.315 63.9863 113.915 62.3862 113.915 60.4124C113.915 58.4386 112.315 56.8385 110.341 56.8385C108.367 56.8385 106.767 58.4386 106.767 60.4124C106.767 62.3862 108.367 63.9863 110.341 63.9863Z" fill="#8CD2FF"/>
<path d="M7.11747 35.5114H0V42.6289H7.11747V35.5114Z" fill="#E6280F"/>
<path d="M91.8665 63.389L96.5844 13.797L25.6755 7.06683L20.9575 56.6411L91.8665 63.389Z" fill="#780050"/>
<path d="M61.2023 70.876L72.8429 0.675795L71.2483 0.402435L59.5925 70.6026L61.2023 70.876Z" fill="#E6280F"/>
<path d="M29.1203 63.3055L43.4186 30.6846L17.3659 19.2541L3.05249 51.875L29.1203 63.3055Z" fill="#E6280F"/>
<path d="M158.883 31.2136H156.828L153.094 42.3985V42.6263H154.742L155.509 40.3433H160.204L160.971 42.6263H162.619V42.3985L158.883 31.2136ZM156.046 38.7133L157.757 33.5776H157.951L159.662 38.7133H156.046Z" fill="white"/>
<path d="M132.63 31.2136H131V42.6264H132.63V31.2136Z" fill="white"/>
<path d="M104.747 39.5283H103.117C103.117 41.3228 104.585 42.7883 106.377 42.7883C108.172 42.7883 109.638 41.3203 109.638 39.5283C109.638 38.2248 108.952 37.2123 107.78 36.577L105.757 35.4836C105.218 35.19 104.909 34.7166 104.909 34.1471C104.909 33.3321 105.562 32.6791 106.377 32.6791C107.193 32.6791 107.846 33.3321 107.846 34.1471H109.476C109.476 32.4361 108.089 31.0491 106.377 31.0491C104.666 31.0491 103.279 32.4361 103.279 34.1471C103.279 35.3368 103.948 36.3644 104.927 36.8858L107.063 38.0425C107.651 38.3513 108.01 38.8575 108.01 39.5257C108.01 40.4217 107.276 41.1558 106.38 41.1558C105.481 41.1583 104.747 40.4268 104.747 39.5283Z" fill="white"/>
<path d="M52.6042 42.7909C54.6924 42.7909 56.0946 41.3557 56.0946 39.2701V31.2161H54.4646V39.2878C54.4646 40.4774 53.7483 41.1634 52.6068 41.1634C51.4652 41.1634 50.7489 40.4774 50.7489 39.2878V31.2161H49.1189V39.2701C49.1164 41.3557 50.5186 42.7909 52.6042 42.7909Z" fill="white"/>
<path d="M26.6426 36.6909H26.9691C28.5662 36.6909 29.7584 35.4836 29.7584 33.9522C29.7584 32.4184 28.5687 31.2136 26.9691 31.2136H22.8611V42.6263H24.4911V36.6909H24.7189L28.4042 42.6263H30.181V42.3985L26.6426 36.6909ZM24.4911 35.0609V32.8436H26.9691C27.655 32.8436 28.1258 33.3169 28.1258 33.9522C28.1258 34.5876 27.6525 35.0609 26.9691 35.0609H24.4911Z" fill="white"/>
<path d="M77.6796 39.5283H76.0496C76.0496 41.3228 77.5176 42.7883 79.3096 42.7883C81.1042 42.7883 82.5697 41.3203 82.5697 39.5283C82.5697 38.2248 81.8838 37.2123 80.7119 36.577L78.6895 35.4836C78.1504 35.19 77.8416 34.7166 77.8416 34.1471C77.8416 33.3321 78.4946 32.6791 79.3096 32.6791C80.1246 32.6791 80.7777 33.3321 80.7777 34.1471H82.4077C82.4077 32.4361 81.0207 31.0491 79.3096 31.0491C77.5986 31.0491 76.2116 32.4361 76.2116 34.1471C76.2116 35.3368 76.8798 36.3644 77.8593 36.8858L79.9956 38.0425C80.5828 38.3513 80.9422 38.8575 80.9422 39.5257C80.9422 40.4217 80.2082 41.1558 79.3122 41.1558C78.4136 41.1583 77.6796 40.4268 77.6796 39.5283Z" fill="white"/>
</svg>
