<svg width="179" height="15" viewBox="0 0 179 15" fill="none" xmlns="http://www.w3.org/2000/svg">
<path d="M172.94 0.206985C170.899 0.206985 169.376 1.74968 169.376 3.70634C169.376 5.663 170.896 7.20569 172.94 7.20569H173.357L168.836 14.4987V14.7898H171.106L175.815 7.20569H176.106V14.7898H178.189V0.206985H172.94ZM176.106 5.12613H172.94C172.063 5.12613 171.462 4.52134 171.462 3.70957C171.462 2.8978 172.067 2.29301 172.94 2.29301H176.106V5.12613Z" fill="black"/>
<path d="M146.083 14.793V0.206985H143.541L137.416 10.8959H137.125V0.206985H135.042V14.793H137.584L143.71 4.10414H144.001V14.793H146.083Z" fill="black"/>
<path d="M107.911 15C109.974 15 111.85 14.1462 113.202 12.7717L111.743 11.3131C110.763 12.293 109.408 12.9172 107.911 12.9172C104.91 12.9172 102.474 10.4787 102.474 7.48059C102.474 4.50194 104.913 2.08279 107.911 2.08279C109.411 2.08279 110.744 2.68758 111.724 3.66753L113.202 2.18952C111.85 0.834411 109.974 0 107.911 0C103.765 0 100.388 3.35382 100.388 7.48059C100.391 11.6268 103.765 15 107.911 15Z" fill="black"/>
<path d="M73.7548 15C75.8182 15 77.694 14.1462 79.0459 12.7717L77.5873 11.3131C76.6073 12.293 75.2522 12.9172 73.7548 12.9172C70.7535 12.9172 68.3182 10.4787 68.3182 7.48059C68.3182 4.50194 70.7568 2.08279 73.7548 2.08279C75.2555 2.08279 76.5879 2.68758 77.5679 3.66753L79.0459 2.18952C77.694 0.834411 75.8182 0 73.7548 0C69.6086 0 66.2322 3.35382 66.2322 7.48059C66.2354 11.6268 69.6086 15 73.7548 15Z" fill="black"/>
<path d="M37.7329 0C33.5867 0 30.2329 3.35382 30.2329 7.5C30.2329 11.6462 33.5867 15 37.7329 15C41.8791 15 45.2329 11.6462 45.2329 7.5C45.2329 3.35382 41.8791 0 37.7329 0ZM37.7329 12.9172C34.7316 12.9172 32.3157 10.5013 32.3157 7.5C32.3157 4.49871 34.7316 2.08279 37.7329 2.08279C40.7342 2.08279 43.1501 4.49871 43.1501 7.5C43.1501 10.5013 40.731 12.9172 37.7329 12.9172Z" fill="black"/>
<path d="M3.9586 0.187584H0V14.7704H2.08279V8.72898H3.9586C6.4586 8.72898 8.33441 6.81113 8.33441 4.45666C8.33441 2.1022 6.4586 0.187584 3.9586 0.187584ZM3.9586 6.64619H2.08279V2.27038H3.9586C5.31371 2.27038 6.25162 3.26973 6.25162 4.45666C6.25162 5.6436 5.31371 6.64619 3.9586 6.64619Z" fill="black"/>
</svg>
