<svg width="200" height="92" viewBox="0 0 200 92" fill="none" xmlns="http://www.w3.org/2000/svg">
<path d="M150.808 91.3616L160.85 65.2002L142.18 58.0562L132.141 84.1977L150.808 91.3616Z" fill="#F59600"/>
<path d="M144.876 57.9993L200 47.9602L191.389 0.759277L136.282 10.8013L144.876 57.9993Z" fill="#F59600"/>
<path d="M119.133 80C141.224 80 159.133 62.0914 159.133 40C159.133 17.9086 141.224 0 119.133 0C97.0414 0 79.1328 17.9086 79.1328 40C79.1328 62.0914 97.0414 80 119.133 80Z" fill="#8CD2FF"/>
<path d="M199.855 61.3295L178.11 18.4884C170.312 22.45 164.957 30.5553 164.957 39.909C164.957 53.1874 175.704 63.9346 188.982 63.9346C192.89 63.9346 196.598 62.9932 199.855 61.3295Z" fill="#780050"/>
<path d="M123.981 71.8948C126.199 71.8948 127.997 70.0969 127.997 67.8791C127.997 65.6614 126.199 63.8635 123.981 63.8635C121.764 63.8635 119.966 65.6614 119.966 67.8791C119.966 70.0969 121.764 71.8948 123.981 71.8948Z" fill="#F59600"/>
<path d="M7.99716 39.9006H0V47.8977H7.99716V39.9006Z" fill="#F59600"/>
<path d="M103.221 71.2236L108.522 15.5023L28.8494 7.94019L23.5483 63.6446L103.221 71.2236Z" fill="#780050"/>
<path d="M68.7668 79.6389L81.846 0.759316L80.0544 0.452148L66.958 79.3289L68.7668 79.6389Z" fill="#8CD2FF"/>
<path d="M32.7194 71.1295L48.7848 34.4769L19.5122 21.6337L3.42969 58.2863L32.7194 71.1295Z" fill="#F59600"/>
<path d="M176.429 35.0942C174.635 35.0942 173.295 36.4508 173.295 38.1714C173.295 39.892 174.632 41.2486 176.429 41.2486H176.796L172.82 47.6617V47.9177H174.817L178.958 41.2486H179.213V47.9177H181.045V35.0942H176.429ZM179.213 39.417H176.429C175.659 39.417 175.13 38.8853 175.13 38.1714C175.13 37.4576 175.661 36.9257 176.429 36.9257H179.213V39.417Z" fill="white"/>
<path d="M152.816 47.9177V35.0942H150.581L145.194 44.4935H144.936V35.0942H143.104V47.9177H145.339L150.726 38.5184H150.982V47.9177H152.816Z" fill="white"/>
<path d="M119.246 48.1023C121.06 48.1023 122.71 47.3515 123.899 46.1428L122.616 44.8602C121.754 45.7219 120.563 46.2708 119.246 46.2708C116.607 46.2708 114.465 44.1265 114.465 41.4901C114.465 38.8708 116.61 36.7436 119.246 36.7436C120.565 36.7436 121.737 37.2754 122.599 38.1371L123.899 36.8374C122.707 35.6458 121.057 34.9149 119.246 34.9149C115.6 34.9149 112.631 37.8641 112.631 41.493C112.634 45.1332 115.603 48.1023 119.246 48.1023Z" fill="white"/>
<path d="M89.2112 48.1023C91.0256 48.1023 92.6751 47.3515 93.8639 46.1428L92.5813 44.8602C91.7196 45.7219 90.5279 46.2708 89.2112 46.2708C86.572 46.2708 84.4305 44.1265 84.4305 41.4901C84.4305 38.8708 86.5749 36.7436 89.2112 36.7436C90.5308 36.7436 91.7025 37.2754 92.5642 38.1371L93.8639 36.8374C92.6723 35.6458 91.0228 34.9149 89.2112 34.9149C85.5653 34.9149 82.5962 37.8641 82.5962 41.493C82.599 45.1332 85.5653 48.1023 89.2112 48.1023Z" fill="white"/>
<path d="M57.536 34.9094C53.8901 34.9094 50.9409 37.8586 50.9409 41.5045C50.9409 45.1504 53.8901 48.0996 57.536 48.0996C61.1819 48.0996 64.1311 45.1504 64.1311 41.5045C64.1311 37.8586 61.1819 34.9094 57.536 34.9094ZM57.536 46.2681C54.8968 46.2681 52.7724 44.1437 52.7724 41.5045C52.7724 38.8653 54.8968 36.7409 57.536 36.7409C60.1752 36.7409 62.2996 38.8653 62.2996 41.5045C62.2996 44.1437 60.1752 46.2681 57.536 46.2681Z" fill="white"/>
<path d="M27.8364 35.0743H24.3555V47.8976H26.187V42.5852H27.8364C30.0348 42.5852 31.6843 40.8987 31.6843 38.8283C31.6843 36.7579 30.0348 35.0743 27.8364 35.0743ZM27.8364 40.7537H26.187V36.9058H27.8364C29.0281 36.9058 29.8528 37.7846 29.8528 38.8283C29.8528 39.8749 29.0281 40.7537 27.8364 40.7537Z" fill="white"/>
</svg>
