<svg width="567" height="258" viewBox="0 0 567 258" fill="none" xmlns="http://www.w3.org/2000/svg">
<path d="M427.542 258L456.011 184.127L403.08 163.944L374.611 237.769L427.542 258Z" fill="#E6280F"/>
<path d="M410.722 163.792L566.999 135.441L542.585 2.14429L386.357 30.5031L410.722 163.792Z" fill="#F59600"/>
<path d="M337.741 225.923C400.37 225.923 451.141 175.348 451.141 112.961C451.141 50.5745 400.37 0 337.741 0C275.112 0 224.341 50.5745 224.341 112.961C224.341 175.348 275.112 225.923 337.741 225.923Z" fill="#7D9B1E"/>
<path d="M566.588 173.197L504.933 52.212C482.826 63.3998 467.644 86.2892 467.644 112.704C467.644 150.203 498.112 180.553 535.757 180.553C546.843 180.553 557.356 177.895 566.588 173.197Z" fill="#780050"/>
<path d="M351.48 203.033C357.767 203.033 362.864 197.956 362.864 191.693C362.864 185.43 357.767 180.353 351.48 180.353C345.193 180.353 340.096 185.43 340.096 191.693C340.096 197.956 345.193 203.033 351.48 203.033Z" fill="#8CD2FF"/>
<path d="M22.6719 112.68H0V135.265H22.6719V112.68Z" fill="#E6280F"/>
<path d="M292.631 201.138L307.66 43.7793L81.7867 22.4238L66.7581 179.726L292.631 201.138Z" fill="#780050"/>
<path d="M194.953 224.895L232.033 2.14449L226.954 1.2771L189.825 224.027L194.953 224.895Z" fill="#E6280F"/>
<path d="M92.7598 200.873L138.305 97.3646L55.3172 61.0948L9.72339 164.603L92.7598 200.873Z" fill="#E6280F"/>
<path d="M500.201 99.1073C495.113 99.1073 491.316 102.938 491.316 107.797C491.316 112.656 495.105 116.487 500.201 116.487H501.241L489.969 134.598V135.321H495.629L507.368 116.487H508.094V135.321H513.286V99.1073H500.201ZM508.094 111.315H500.201C498.016 111.315 496.516 109.813 496.516 107.797C496.516 105.781 498.024 104.28 500.201 104.28H508.094V111.315Z" fill="white"/>
<path d="M433.257 135.321V99.1073H426.92L411.65 125.643H410.916V99.1073H405.724V135.321H412.061L427.331 108.777H428.057V135.321H433.257Z" fill="white"/>
<path d="M338.095 135.835C343.239 135.835 347.915 133.714 351.285 130.301L347.649 126.679C345.206 129.112 341.828 130.662 338.095 130.662C330.613 130.662 324.542 124.607 324.542 117.162C324.542 109.765 330.621 103.757 338.095 103.757C341.836 103.757 345.158 105.259 347.601 107.693L351.285 104.022C347.907 100.657 343.231 98.593 338.095 98.593C327.759 98.593 319.341 106.922 319.341 117.17C319.341 127.458 327.759 135.835 338.095 135.835Z" fill="white"/>
<path d="M252.939 135.835C258.083 135.835 262.759 133.714 266.129 130.301L262.493 126.679C260.05 129.112 256.672 130.662 252.939 130.662C245.457 130.662 239.385 124.607 239.385 117.162C239.385 109.765 245.465 103.757 252.939 103.757C256.68 103.757 260.001 105.259 262.444 107.693L266.129 104.022C262.751 100.657 258.074 98.593 252.939 98.593C242.602 98.593 234.185 106.922 234.185 117.17C234.193 127.458 242.602 135.835 252.939 135.835Z" fill="white"/>
<path d="M163.137 98.5851C152.801 98.5851 144.44 106.914 144.44 117.21C144.44 127.506 152.801 135.835 163.137 135.835C173.473 135.835 181.834 127.506 181.834 117.21C181.834 106.914 173.473 98.5851 163.137 98.5851ZM163.137 130.662C155.655 130.662 149.632 124.663 149.632 117.21C149.632 109.757 155.655 103.757 163.137 103.757C170.619 103.757 176.642 109.757 176.642 117.21C176.642 124.663 170.619 130.662 163.137 130.662Z" fill="white"/>
<path d="M78.9401 99.0508H69.0715V135.264H74.2638V120.262H78.9401C85.1725 120.262 89.8488 115.499 89.8488 109.652C89.8488 103.805 85.1725 99.0508 78.9401 99.0508ZM78.9401 115.089H74.2638V104.223H78.9401C82.3183 104.223 84.6565 106.705 84.6565 109.652C84.6565 112.6 82.3183 115.089 78.9401 115.089Z" fill="white"/>
</svg>
