<svg width="200" height="92" viewBox="0 0 200 92" fill="none" xmlns="http://www.w3.org/2000/svg">
<path d="M150.811 91.3601L160.853 65.2011L142.182 58.0542L132.14 84.1961L150.811 91.3601Z" fill="#FFD200"/>
<path d="M144.878 58.0002L200 47.9609L191.389 0.759399L136.284 10.8015L144.878 58.0002Z" fill="#FFD200"/>
<path d="M119.131 80.0011C141.223 80.0011 159.132 62.0923 159.132 40.0006C159.132 17.9089 141.223 0 119.131 0C97.0392 0 79.1304 17.9089 79.1304 40.0006C79.1304 62.0923 97.0392 80.0011 119.131 80.0011Z" fill="#F59600"/>
<path d="M199.856 61.3304L178.11 18.4886C170.312 22.4503 164.957 30.5557 164.957 39.9095C164.957 53.188 175.704 63.9355 188.983 63.9355C192.891 63.9355 196.599 62.9941 199.856 61.3304Z" fill="#E6280F"/>
<path d="M123.981 71.8929C126.198 71.8929 127.996 70.0951 127.996 67.8773C127.996 65.6595 126.198 63.8616 123.981 63.8616C121.763 63.8616 119.965 65.6595 119.965 67.8773C119.965 70.0951 121.763 71.8929 123.981 71.8929Z" fill="#FFD200"/>
<path d="M7.99727 39.8982H0V47.8954H7.99727V39.8982Z" fill="#FFD200"/>
<path d="M103.223 71.2247L108.521 15.5026L28.8469 7.94043L23.5486 63.6426L103.223 71.2247Z" fill="#E6280F"/>
<path d="M68.7677 79.6371L81.8471 0.759303L80.0554 0.452148L66.9561 79.3299L68.7677 79.6371Z" fill="#F59600"/>
<path d="M32.7172 71.1308L48.7829 34.4776L19.5126 21.6313L3.42993 58.2845L32.7172 71.1308Z" fill="#FFD200"/>
<path d="M176.432 35.0919C174.638 35.0919 173.298 36.4485 173.298 38.1691C173.298 39.8897 174.635 41.2463 176.432 41.2463H176.799L172.823 47.6595V47.9154H174.82L178.961 41.2491H179.217V47.9183H181.048V35.0948H176.432V35.0919ZM179.217 39.4176H176.432C175.662 39.4176 175.133 38.8858 175.133 38.172C175.133 37.4581 175.664 36.9263 176.432 36.9263H179.217V39.4176Z" fill="white"/>
<path d="M152.815 47.9183V35.0919H150.58L145.193 44.4913H144.937V35.0919H143.106V47.9183H145.341L150.728 38.5189H150.984V47.9183H152.815Z" fill="white"/>
<path d="M119.248 48.1003C121.062 48.1003 122.712 47.3494 123.901 46.1408L122.618 44.8581C121.756 45.7198 120.565 46.2687 119.248 46.2687C116.609 46.2687 114.467 44.1244 114.467 41.488C114.467 38.8687 116.612 36.7414 119.248 36.7414C120.568 36.7414 121.739 37.2732 122.601 38.135L123.901 36.8353C122.709 35.6436 121.06 34.9127 119.248 34.9127C115.602 34.9127 112.633 37.8619 112.633 41.4908C112.633 45.134 115.602 48.1003 119.248 48.1003Z" fill="white"/>
<path d="M89.2127 48.1003C91.0272 48.1003 92.6767 47.3494 93.8655 46.1408L92.5829 44.8581C91.7211 45.7198 90.5295 46.2687 89.2127 46.2687C86.5735 46.2687 84.432 44.1244 84.432 41.488C84.432 38.8687 86.5764 36.7414 89.2127 36.7414C90.5324 36.7414 91.7041 37.2732 92.5658 38.135L93.8655 36.8353C92.6739 35.6436 91.0244 34.9127 89.2127 34.9127C85.5668 34.9127 82.5977 37.8619 82.5977 41.4908C82.5977 45.134 85.5668 48.1003 89.2127 48.1003Z" fill="white"/>
<path d="M57.5339 34.9099C53.8879 34.9099 50.9387 37.8591 50.9387 41.5051C50.9387 45.1511 53.8879 48.1003 57.5339 48.1003C61.1799 48.1003 64.1291 45.1511 64.1291 41.5051C64.1291 37.8591 61.1799 34.9099 57.5339 34.9099ZM57.5339 46.2688C54.8947 46.2688 52.7702 44.1443 52.7702 41.5051C52.7702 38.8659 54.8947 36.7414 57.5339 36.7414C60.1731 36.7414 62.2976 38.8659 62.2976 41.5051C62.2976 44.1443 60.1731 46.2688 57.5339 46.2688Z" fill="white"/>
<path d="M27.837 35.0748H24.356V47.8983H26.1875V42.5858H27.837C30.0354 42.5858 31.6849 40.8993 31.6849 38.8289C31.6849 36.7585 30.0354 35.0748 27.837 35.0748ZM27.837 40.7543H26.1875V36.9063H27.837C29.0286 36.9063 29.8534 37.7851 29.8534 38.8289C29.8534 39.8726 29.0258 40.7543 27.837 40.7543Z" fill="white"/>
</svg>
