<svg width="178" height="82" viewBox="0 0 178 82" fill="none" xmlns="http://www.w3.org/2000/svg">
<path d="M134.22 81.3092L143.157 58.0281L126.54 51.6674L117.603 74.9334L134.22 81.3092Z" fill="#E6280F"/>
<path d="M128.94 51.6194L178 42.6846L170.336 0.675812L121.291 9.61314L128.94 51.6194Z" fill="#F59600"/>
<path d="M106.028 71.2C125.69 71.2 141.628 55.2613 141.628 35.6C141.628 15.9387 125.69 0 106.028 0C86.3669 0 70.4282 15.9387 70.4282 35.6C70.4282 55.2613 86.3669 71.2 106.028 71.2Z" fill="#7D9B1E"/>
<path d="M177.871 54.5833L158.516 16.4547C151.576 19.9805 146.81 27.1942 146.81 35.519C146.81 47.3367 156.375 56.9018 168.192 56.9018C171.673 56.9018 174.973 56.064 177.871 54.5833Z" fill="#780050"/>
<path d="M110.341 63.9863C112.315 63.9863 113.915 62.3862 113.915 60.4124C113.915 58.4386 112.315 56.8385 110.341 56.8385C108.367 56.8385 106.767 58.4386 106.767 60.4124C106.767 62.3862 108.367 63.9863 110.341 63.9863Z" fill="#8CD2FF"/>
<path d="M7.11747 35.5114H0V42.6289H7.11747V35.5114Z" fill="#E6280F"/>
<path d="M91.8665 63.389L96.5844 13.797L25.6755 7.06683L20.9575 56.6411L91.8665 63.389Z" fill="#780050"/>
<path d="M61.2021 70.876L72.8426 0.675795L71.248 0.402435L59.5923 70.6026L61.2021 70.876Z" fill="#E6280F"/>
<path d="M29.1206 63.3055L43.4188 30.6846L17.3661 19.2541L3.05273 51.875L29.1206 63.3055Z" fill="#E6280F"/>
<path d="M75.5435 35.4684L74.7158 34.4559C75.3739 33.9219 75.9459 33.3043 76.437 32.6032C77.3406 31.325 77.8746 29.8873 78.0417 28.2927L79.3553 28.4243C79.3022 28.9508 79.2111 29.4747 79.0794 30.0012L84.3897 28.5686L84.8504 29.8164L82.8128 30.3682V32.917H85.1516C85.0984 31.5325 85.0731 30.0088 85.0731 28.3433H86.3867C86.3867 30.1581 86.4171 31.6818 86.4779 32.917H89.5937V34.2307H86.5437C86.6323 35.5443 86.7462 36.7061 86.8854 37.7135C87.4473 36.8453 87.8497 35.9214 88.0952 34.9394L89.3836 35.2684C89.0849 36.5213 88.561 37.673 87.8067 38.7259C87.6498 38.9537 87.4549 39.2043 87.2271 39.4751C87.3941 40.1155 87.5713 40.5812 87.7586 40.8748C87.9459 41.1684 88.1383 41.3152 88.3306 41.3152C88.6546 41.3152 88.8166 40.6926 88.8166 39.4498H90.1302C90.1302 40.5888 89.9759 41.4038 89.6696 41.8948C89.3633 42.3859 88.8774 42.6314 88.2117 42.6314C87.3435 42.6314 86.6652 41.9353 86.1741 40.5407C85.4553 41.1811 84.6833 41.7025 83.8607 42.1049L83.2684 40.9356C84.2049 40.4698 85.0478 39.8573 85.7919 39.0954C85.5287 37.878 85.3363 36.2555 85.2123 34.2332H82.8078V36.4024L84.739 35.8885V37.2427L82.8078 37.754V40.7381C82.8078 41.1507 82.6989 41.4975 82.4787 41.7835C82.2585 42.067 81.9852 42.2796 81.6561 42.4213C81.3271 42.5605 80.9955 42.6314 80.6639 42.6314H79.7831V41.3178H80.6892C80.9955 41.3178 81.2056 41.2494 81.3195 41.1153C81.4334 40.9786 81.4891 40.7305 81.4891 40.3737V38.1134L79.2946 38.7057L78.9529 37.43L81.4891 36.7592V34.2357H78.9655V32.9221H81.4891V30.715L79.3984 31.2794L79.0693 30.0316C78.9023 30.6795 78.6618 31.325 78.3454 31.9628V42.6365H77.0318V33.9877C76.5686 34.5521 76.07 35.0482 75.5435 35.4684ZM87.1638 29.3558L88.361 28.7913L89.6088 31.4591L88.4395 32.064L87.1638 29.3558Z" fill="white"/>
<path d="M98.3614 42.5909L97.5337 41.1457C98.1032 41.252 98.6727 41.3026 99.2422 41.3026C100.733 41.3026 102.138 40.9533 103.462 40.2522L100.913 37.6882L101.859 36.7542L104.621 39.5283C105.831 38.6424 106.767 37.5034 107.433 36.1113H101.373C101.006 36.453 100.601 36.777 100.164 37.0832C99.5763 37.4857 98.9587 37.8274 98.3107 38.1083L97.7995 36.8985C98.3588 36.6631 98.8954 36.3644 99.4042 36.005C100.394 35.314 101.227 34.4332 101.902 33.3625L103.034 34.0712C102.867 34.3345 102.705 34.5749 102.548 34.7951H108.908V36.1088C108.443 37.187 107.833 38.159 107.076 39.0271C106.319 39.8953 105.436 40.6217 104.428 41.2089C103.613 41.6823 102.76 42.0341 101.872 42.2669C100.984 42.4998 100.088 42.6162 99.184 42.6162C98.8094 42.6188 98.5385 42.6086 98.3614 42.5909ZM97.8754 28.7635H110.232V33.365H97.8754V28.7635ZM101.556 32.0489V30.0771H99.189V32.0489H101.556ZM105.236 32.0489V30.0771H102.869V32.0489H105.236ZM108.916 32.0489V30.0771H106.549V32.0489H108.916Z" fill="white"/>
<path d="M125.912 34.9419H123.966V37.5717H125.11V38.8854H119.747L120.812 39.5688C120.023 40.847 119.076 41.8695 117.972 42.6314L117.223 41.5658C118.144 40.9077 118.967 40.0142 119.694 38.8854H117.223V37.5717H118.709V30.9985H117.395V29.6848H118.709V28.3838H120.023V29.6848H122.652V28.3838H123.966V29.6848H125.28V30.9985H123.966V33.6283H125.925V29.6975L130.486 28.3965L131.643 29.4216L127.239 30.6972V33.6283H129.013V32.3399H130.327V33.6283H131.64V34.9419H130.327V42.6314H129.013V34.9419H127.226C127.173 36.6074 126.978 38.0982 126.641 39.4169C126.305 40.7356 125.837 41.8417 125.242 42.7352L124.125 42.0265C125.211 40.485 125.806 38.1235 125.912 34.9419ZM122.652 32.3121V30.9985H120.023V32.3121H122.652ZM122.652 34.9419V33.6283H120.023V34.9419H122.652ZM122.652 37.5717V36.2581H120.023V37.5717H122.652ZM122.166 39.9358L123.232 39.1461C123.748 39.7864 124.174 40.4698 124.508 41.1963L123.338 41.7481C123.047 41.1279 122.655 40.523 122.166 39.9358Z" fill="white"/>
</svg>
