<svg width="179" height="15" viewBox="0 0 179 15" fill="none" xmlns="http://www.w3.org/2000/svg">
<path d="M173.803 0.206985H171.177L166.407 14.4987V14.7898H168.512L169.492 11.8726H175.491L176.471 14.7898H178.577V14.4987L173.803 0.206985ZM170.178 9.79301L172.364 3.23092H172.613L174.799 9.79301H170.178Z" fill="black"/>
<path d="M140.259 0.206985H138.176V14.7898H140.259V0.206985Z" fill="black"/>
<path d="M104.631 10.8344H102.548C102.548 13.1274 104.424 15 106.714 15C109.004 15 110.88 13.1242 110.88 10.8344C110.88 9.16882 110.003 7.87516 108.506 7.06339L105.922 5.66624C105.233 5.29107 104.838 4.68629 104.838 3.9586C104.838 2.91721 105.673 2.08279 106.714 2.08279C107.755 2.08279 108.59 2.91721 108.59 3.9586H110.673C110.673 1.77232 108.9 0 106.714 0C104.528 0 102.755 1.77232 102.755 3.9586C102.755 5.47865 103.609 6.79172 104.861 7.45796L107.59 8.93596C108.341 9.33053 108.8 9.97736 108.8 10.8312C108.8 11.9761 107.862 12.914 106.717 12.914C105.569 12.9172 104.631 11.9793 104.631 10.8344Z" fill="black"/>
<path d="M38.0079 15C40.6761 15 42.4678 13.1662 42.4678 10.5013V0.206985H40.385V10.5207C40.385 12.0407 39.4697 12.9172 38.0111 12.9172C36.5525 12.9172 35.6373 12.0407 35.6373 10.5207V0.206985H33.5545V10.4981C33.548 13.1662 35.3397 15 38.0079 15Z" fill="black"/>
<path d="M4.83506 7.20893H5.25226C7.29302 7.20893 8.8163 5.66623 8.8163 3.70957C8.8163 1.75291 7.29302 0.206985 5.24903 0.206985H0V14.7898H2.08279V7.20893H2.37387L7.0828 14.793H9.35317V14.5019L4.83506 7.20893ZM2.08279 5.12613V2.29301H5.24903C6.12549 2.29301 6.72704 2.8978 6.72704 3.70957C6.72704 4.52134 6.12225 5.12613 5.24903 5.12613H2.08279V5.12613Z" fill="black"/>
<path d="M70.0452 10.8344H67.9624C67.9624 13.1274 69.8382 15 72.128 15C74.4178 15 76.2936 13.1242 76.2936 10.8344C76.2936 9.16882 75.4171 7.87516 73.9197 7.06339L71.3356 5.66624C70.6468 5.29107 70.2522 4.68629 70.2522 3.9586C70.2522 2.91721 71.0866 2.08279 72.128 2.08279C73.1694 2.08279 74.0038 2.91721 74.0038 3.9586H76.0866C76.0866 1.77232 74.3143 0 72.128 0C69.9417 0 68.1694 1.77232 68.1694 3.9586C68.1694 5.47865 69.0232 6.79172 70.2748 7.45796L73.0044 8.93596C73.7548 9.33053 74.214 9.97736 74.214 10.8312C74.214 11.9761 73.2761 12.914 72.1312 12.914C70.9863 12.914 70.0452 11.9793 70.0452 10.8344Z" fill="black"/>
</svg>
