<svg width="200" height="92" viewBox="0 0 200 92" fill="none" xmlns="http://www.w3.org/2000/svg">
<path d="M150.809 91.3615L160.85 65.203L142.18 58.0562L132.141 84.1976L150.809 91.3615Z" fill="#8CD2FF"/>
<path d="M144.876 58.0021L200 47.9601L191.389 0.762085L136.282 10.8012L144.876 58.0021Z" fill="#8CD2FF"/>
<path d="M119.133 80C141.224 80 159.133 62.0914 159.133 40C159.133 17.9086 141.224 0 119.133 0C97.0414 0 79.1328 17.9086 79.1328 40C79.1328 62.0914 97.0414 80 119.133 80Z" fill="#E6280F"/>
<path d="M199.855 61.3294L178.11 18.4884C170.312 22.45 164.957 30.5552 164.957 39.9089C164.957 53.1872 175.704 63.9345 188.982 63.9345C192.89 63.9345 196.598 62.996 199.855 61.3294Z" fill="#372382"/>
<path d="M123.981 71.8947C126.199 71.8947 127.997 70.0968 127.997 67.879C127.997 65.6612 126.199 63.8633 123.981 63.8633C121.764 63.8633 119.966 65.6612 119.966 67.879C119.966 70.0968 121.764 71.8947 123.981 71.8947Z" fill="#8CD2FF"/>
<path d="M7.99716 39.9004H0V47.8976H7.99716V39.9004Z" fill="#E6280F"/>
<path d="M103.221 71.2235L108.522 15.505L28.8492 7.94299L23.5481 63.6444L103.221 71.2235Z" fill="#372382"/>
<path d="M68.7668 79.6388L81.846 0.762124L80.0544 0.454956L66.958 79.3316L68.7668 79.6388Z" fill="#8CD2FF"/>
<path d="M32.7197 71.1326L48.7851 34.48L19.5124 21.6339L3.42993 58.2866L32.7197 71.1326Z" fill="#E6280F"/>
<path d="M176.429 35.0945C174.635 35.0945 173.295 36.451 173.295 38.1716C173.295 39.8922 174.632 41.2488 176.429 41.2488H176.796L172.82 47.6618V47.9178H174.817L178.958 41.2488H179.213V47.9178H181.045V35.0945H176.429ZM179.213 39.4173H176.429C175.659 39.4173 175.13 38.8854 175.13 38.1716C175.13 37.4578 175.661 36.926 176.429 36.926H179.213V39.4173Z" fill="white"/>
<path d="M152.816 47.9206V35.0945H150.58L145.194 44.4937H144.935V35.0945H143.104V47.9206H145.339L150.726 38.5214H150.981V47.9206H152.816Z" fill="white"/>
<path d="M119.246 48.1025C121.06 48.1025 122.71 47.3517 123.899 46.143L122.616 44.8604C121.754 45.7221 120.563 46.2709 119.246 46.2709C116.607 46.2709 114.465 44.1266 114.465 41.4903C114.465 38.8711 116.61 36.7438 119.246 36.7438C120.565 36.7438 121.737 37.2756 122.599 38.1373L123.899 36.8377C122.707 35.6461 121.057 34.9152 119.246 34.9152C115.6 34.9152 112.631 37.8643 112.631 41.4932C112.634 45.1334 115.603 48.1025 119.246 48.1025Z" fill="white"/>
<path d="M89.2112 48.1025C91.0256 48.1025 92.6751 47.3517 93.8639 46.143L92.5813 44.8604C91.7196 45.7221 90.5279 46.2709 89.2112 46.2709C86.572 46.2709 84.4305 44.1266 84.4305 41.4903C84.4305 38.8711 86.5749 36.7438 89.2112 36.7438C90.5308 36.7438 91.7025 37.2756 92.5642 38.1373L93.8639 36.8377C92.6723 35.6461 91.0228 34.9152 89.2112 34.9152C85.5653 34.9152 82.5962 37.8643 82.5962 41.4932C82.599 45.1334 85.5653 48.1025 89.2112 48.1025Z" fill="white"/>
<path d="M57.5358 34.9124C53.8898 34.9124 50.9407 37.8615 50.9407 41.5074C50.9407 45.1533 53.8898 48.1025 57.5358 48.1025C61.1817 48.1025 64.1309 45.1533 64.1309 41.5074C64.1309 37.8615 61.1817 34.9124 57.5358 34.9124ZM57.5358 46.271C54.8966 46.271 52.7722 44.1466 52.7722 41.5074C52.7722 38.8682 54.8966 36.7438 57.5358 36.7438C60.1749 36.7438 62.2994 38.8682 62.2994 41.5074C62.2994 44.1437 60.1749 46.271 57.5358 46.271Z" fill="white"/>
<path d="M27.8364 35.0774H24.3555V47.9007H26.187V42.5882H27.8364C30.0348 42.5882 31.6843 40.9018 31.6843 38.8314C31.6843 36.761 30.0348 35.0774 27.8364 35.0774ZM27.8364 40.7568H26.187V36.9089H27.8364C29.0281 36.9089 29.8528 37.7877 29.8528 38.8314C29.8528 39.8751 29.0281 40.7568 27.8364 40.7568Z" fill="white"/>
</svg>
