<svg width="300" height="19" viewBox="0 0 300 19" fill="none" xmlns="http://www.w3.org/2000/svg">
<path d="M3.16357 3.95557C3.94323 3.95557 4.64534 4.13518 5.28214 4.49848C5.91485 4.86178 6.41286 5.35162 6.77616 5.97208C7.13946 6.59255 7.31906 7.27017 7.31906 8.00901C7.31906 8.74786 7.13537 9.42547 6.77616 10.0459C6.41286 10.6664 5.91485 11.1563 5.28214 11.5196C4.64942 11.8829 3.94323 12.0625 3.16357 12.0625H1.97978V17.7977H0V3.95557H3.16357ZM4.72698 9.48262C5.13518 9.0785 5.33928 8.58866 5.33928 8.00901C5.33928 7.42937 5.13518 6.93952 4.72698 6.5354C4.31878 6.13537 3.79628 5.93126 3.16357 5.93126H1.97978V10.0827H3.16765C3.79628 10.0868 4.31878 9.88674 4.72698 9.48262Z" fill="black"/>
<path d="M13.0421 17.0384C11.9563 16.3976 11.0909 15.5363 10.45 14.4464C9.80912 13.3565 9.49072 12.1686 9.49072 10.8746C9.49072 9.58059 9.80912 8.39272 10.45 7.30282C11.0909 6.21701 11.9522 5.35162 13.0421 4.71074C14.132 4.06986 15.3199 3.75146 16.6139 3.75146C17.9038 3.75146 19.0957 4.06986 20.1815 4.71074C21.2714 5.35162 22.1327 6.21292 22.7736 7.30282C23.4145 8.39272 23.7329 9.58059 23.7329 10.8746C23.7329 12.1686 23.4145 13.3565 22.7736 14.4464C22.1327 15.5322 21.2714 16.3976 20.1815 17.0384C19.0957 17.6793 17.9038 17.9977 16.6139 17.9977C15.3199 17.9977 14.132 17.6793 13.0421 17.0384ZM19.1937 15.3281C19.9774 14.8668 20.602 14.2423 21.0633 13.4585C21.5245 12.6748 21.7572 11.8135 21.7572 10.8787C21.7572 9.94389 21.5245 9.08259 21.0633 8.29884C20.602 7.51509 19.9774 6.89054 19.1937 6.42927C18.4099 5.968 17.5486 5.73533 16.6139 5.73533C15.6791 5.73533 14.8178 5.968 14.034 6.42927C13.2503 6.89054 12.6257 7.51509 12.1644 8.29884C11.7032 9.08259 11.4705 9.94389 11.4705 10.8787C11.4705 11.8135 11.6991 12.6748 12.1644 13.4585C12.6257 14.2423 13.2503 14.8668 14.034 15.3281C14.8178 15.7893 15.6791 16.022 16.6139 16.022C17.5486 16.022 18.4099 15.7893 19.1937 15.3281Z" fill="black"/>
<path d="M29.856 17.0384C28.7661 16.3976 27.9048 15.5363 27.264 14.4464C26.6231 13.3565 26.3047 12.1686 26.3047 10.8746C26.3047 9.58059 26.6231 8.39272 27.264 7.30282C27.9048 6.21701 28.7661 5.35162 29.856 4.71074C30.9459 4.06986 32.1338 3.75146 33.4278 3.75146V5.72716C32.493 5.72716 31.6317 5.95984 30.848 6.42111C30.0642 6.88238 29.4397 7.50692 28.9784 8.29067C28.5171 9.07442 28.2845 9.93573 28.2845 10.8705C28.2845 11.8053 28.5171 12.6666 28.9784 13.4503C29.4397 14.2341 30.0642 14.8586 30.848 15.3199C31.6317 15.7812 32.493 16.0139 33.4278 16.0139V17.9896C32.1297 17.9977 30.9419 17.6793 29.856 17.0384Z" fill="black"/>
<path d="M39.5465 17.0384C38.4607 16.3976 37.5953 15.5363 36.9544 14.4464C36.3135 13.3565 35.9951 12.1686 35.9951 10.8746C35.9951 9.58059 36.3135 8.39272 36.9544 7.30282C37.5953 6.21701 38.4566 5.35162 39.5465 4.71074C40.6364 4.06986 41.8242 3.75146 43.1182 3.75146C44.4898 3.75146 45.7389 4.10252 46.8655 4.80871C47.9922 5.5149 48.8535 6.45376 49.4454 7.6253V7.90288H47.3105C46.837 7.22935 46.2328 6.69868 45.5021 6.31089C44.7715 5.9231 43.9755 5.72716 43.1182 5.72716C42.1835 5.72716 41.3222 5.95984 40.5384 6.42111C39.7547 6.88238 39.1301 7.50692 38.6688 8.29067C38.2076 9.07442 37.9749 9.93573 37.9749 10.8705C37.9749 11.8053 38.2035 12.6666 38.6688 13.4503C39.1301 14.2341 39.7547 14.8586 40.5384 15.3199C41.3222 15.7812 42.1835 16.0139 43.1182 16.0139C44.0163 16.0139 44.8449 15.8016 45.6083 15.3689C46.3716 14.9403 46.988 14.3647 47.4493 13.6381H49.5474V13.9157C48.98 15.1403 48.1146 16.1282 46.9553 16.8711C45.796 17.6181 44.5143 17.9896 43.1182 17.9896C41.8242 17.9977 40.6323 17.6793 39.5465 17.0384Z" fill="black"/>
<path d="M63.4834 17.8018H61.5077V7.65388H61.2302L55.4174 17.7977H53.0049V3.95557H54.9806V14.0994H55.2582L61.071 3.95557H63.4834V17.8018Z" fill="black"/>
<path d="M74.0477 17.8018V10.6011H73.7701L69.3003 17.8018H67.145V17.5242L71.4352 10.6011H71.0393C70.4066 10.6011 69.831 10.4541 69.3207 10.1562C68.8064 9.85817 68.4023 9.45813 68.1043 8.94788C67.8063 8.44171 67.6594 7.88247 67.6594 7.27833C67.6594 6.67011 67.8063 6.11496 68.1043 5.60879C68.4023 5.10261 68.8064 4.69849 69.3207 4.40051C69.8351 4.10252 70.4106 3.95557 71.0393 3.95557H76.0234V17.8018H74.0477ZM74.0477 5.93535H71.0393C70.6311 5.93535 70.2963 6.06597 70.031 6.32314C69.7657 6.58031 69.6351 6.8987 69.6351 7.28241C69.6351 7.66612 69.7657 7.98452 70.031 8.24169C70.2963 8.49886 70.6311 8.62948 71.0393 8.62948H74.0477V5.93535Z" fill="black"/>
<path d="M85.1226 9.89087H102.524V11.8666H85.1226V9.89087Z" fill="black"/>
<path d="M112.7 17.4832C112.06 17.1158 111.557 16.6096 111.186 15.9687C110.815 15.3279 110.631 14.6339 110.631 13.8828H112.607C112.607 14.491 112.819 15.0054 113.239 15.4258C113.66 15.8463 114.174 16.0585 114.782 16.0585C115.386 16.0585 115.901 15.8463 116.325 15.4258C116.746 15.0054 116.958 14.491 116.958 13.8828C116.958 13.2746 116.746 12.7603 116.325 12.3398C115.901 11.9194 115.39 11.7071 114.782 11.7071H113.713V9.7314H114.782C115.337 9.7314 115.803 9.53955 116.186 9.15584C116.57 8.77213 116.762 8.30678 116.762 7.75162C116.762 7.21279 116.57 6.74744 116.186 6.35557C115.803 5.96778 115.337 5.77184 114.782 5.77184C114.227 5.77184 113.762 5.9637 113.378 6.34741C112.994 6.73112 112.802 7.19647 112.802 7.75162H110.827C110.827 7.02502 111.006 6.36373 111.362 5.76368C111.717 5.16362 112.194 4.68602 112.794 4.33089C113.394 3.97575 114.056 3.79614 114.782 3.79614C115.509 3.79614 116.17 3.97575 116.77 4.33089C117.37 4.68602 117.848 5.1677 118.203 5.77592C118.558 6.38414 118.738 7.04135 118.738 7.7557C118.738 8.33535 118.623 8.87826 118.391 9.38851C118.158 9.89468 117.84 10.3355 117.432 10.7029C117.905 11.0866 118.276 11.552 118.538 12.1071C118.803 12.6623 118.934 13.2542 118.934 13.8869C118.934 14.638 118.75 15.3319 118.379 15.9728C118.007 16.6137 117.505 17.1158 116.864 17.4872C116.223 17.8546 115.529 18.0424 114.778 18.0424C114.035 18.0383 113.341 17.8505 112.7 17.4832Z" fill="black"/>
<path d="M121.016 17.5242L126 3.95557H128.49L133.474 17.5242V17.8018H121.016V17.5242ZM130.747 15.822L127.384 6.66603H127.106L123.742 15.822H130.747Z" fill="black"/>
<path d="M136.442 3.95557H142.969V5.93126H138.421V9.88674H142.969V11.8624H138.421V15.8179H142.969V17.7936H136.442V3.95557Z" fill="black"/>
<path d="M149.781 17.0384C148.691 16.3976 147.83 15.5363 147.189 14.4464C146.548 13.3565 146.23 12.1686 146.23 10.8746C146.23 9.58059 146.548 8.39272 147.189 7.30282C147.83 6.21701 148.691 5.35162 149.781 4.71074C150.871 4.06986 152.059 3.75146 153.353 3.75146C154.725 3.75146 155.974 4.10252 157.1 4.80871C158.227 5.5149 159.088 6.45376 159.68 7.6253V7.90288H157.545C157.072 7.22935 156.468 6.69868 155.737 6.31089C155.006 5.9231 154.21 5.72716 153.353 5.72716C152.418 5.72716 151.557 5.95984 150.773 6.42111C149.99 6.88238 149.365 7.50692 148.904 8.29067C148.442 9.07442 148.21 9.93573 148.21 10.8705C148.21 11.8053 148.442 12.6666 148.904 13.4503C149.365 14.2341 149.99 14.8586 150.773 15.3199C151.557 15.7812 152.418 16.0139 153.353 16.0139C154.251 16.0139 155.08 15.8016 155.843 15.3689C156.606 14.9403 157.223 14.3647 157.684 13.6381H159.782V13.9157C159.215 15.1403 158.354 16.1282 157.19 16.8711C156.031 17.6181 154.749 17.9896 153.353 17.9896C152.059 17.9977 150.871 17.6793 149.781 17.0384Z" fill="black"/>
<path d="M165.22 3.95557V9.69081H166.408C167.187 9.69081 167.889 9.87041 168.522 10.2337C169.155 10.597 169.653 11.0869 170.016 11.7073C170.379 12.3278 170.559 13.0054 170.559 13.7443C170.559 14.4831 170.379 15.1607 170.016 15.7812C169.653 16.4016 169.155 16.8915 168.522 17.2548C167.889 17.6181 167.183 17.7977 166.408 17.7977H163.244V3.95557H165.22ZM165.22 15.822H166.408C167.04 15.822 167.563 15.622 167.971 15.2179C168.379 14.8137 168.583 14.3239 168.583 13.7443C168.583 13.1646 168.379 12.6748 167.971 12.2706C167.563 11.8706 167.04 11.6665 166.408 11.6665H165.22V15.822Z" fill="black"/>
<path d="M190.312 14.9648H180.409V3.95557H182.315V13.3932H188.026V3.95557H189.928V13.3932H192.214V17.6385H190.312V14.9648Z" fill="black"/>
<path d="M195.578 3.95557H202.105V5.93126H197.557V9.88674H202.105V11.8624H197.557V15.8179H202.105V17.7936H195.578V3.95557Z" fill="black"/>
<path d="M209.342 3.95557H211.677L216.543 17.5038V17.8018H214.547L210.653 6.94361H210.375L206.481 17.8018H204.485V17.5038L209.342 3.95557Z" fill="black"/>
<path d="M221.486 9.69081H222.674C223.454 9.69081 224.156 9.87042 224.789 10.2337C225.422 10.597 225.92 11.0869 226.283 11.7073C226.646 12.3278 226.826 13.0054 226.826 13.7443C226.826 14.4831 226.646 15.1607 226.283 15.7812C225.92 16.4017 225.422 16.8915 224.789 17.2548C224.156 17.6181 223.45 17.7977 222.674 17.7977H219.511V3.95557H221.486V9.69081ZM222.67 15.822C223.303 15.822 223.825 15.622 224.234 15.2179C224.642 14.8137 224.846 14.3239 224.846 13.7443C224.846 13.1646 224.642 12.6748 224.234 12.2706C223.825 11.8706 223.303 11.6665 222.67 11.6665H221.482V15.8179H222.67V15.822ZM229.197 3.95557H231.173V17.8018H229.197V3.95557Z" fill="black"/>
<path d="M244.823 17.8017V7.65379H244.546L238.733 17.7976H236.321V3.95548H238.296V14.0993H238.574L244.387 3.95548H246.799V17.8017H244.823ZM240.068 2.57167C239.611 2.30634 239.251 1.94712 238.99 1.49402C238.725 1.04092 238.594 0.542909 238.594 0H240.374C240.374 0.330644 240.488 0.612303 240.721 0.840896C240.954 1.07357 241.231 1.18787 241.562 1.18787C241.905 1.18787 242.186 1.07357 242.411 0.840896C242.635 0.612303 242.746 0.330644 242.746 0H244.525C244.525 0.526581 244.395 1.02051 244.129 1.47361C243.864 1.92671 243.505 2.29001 243.052 2.55943C242.599 2.82884 242.101 2.96355 241.558 2.96355C241.019 2.96763 240.521 2.837 240.068 2.57167Z" fill="black"/>
<path d="M259.221 3.95557H261.556L264.76 14.7933H265.037L268.242 3.95557H270.577L273.406 17.8018H271.389L269.393 7.99269H269.115L266.209 17.8018H263.597L260.69 7.99269H260.413L258.416 17.8018H256.4L259.221 3.95557Z" fill="black"/>
<path d="M287.541 17.8018H285.562V7.65388H285.284L279.471 17.7977H277.059V3.95557H279.039V14.0994H279.316L285.129 3.95557H287.541V17.8018Z" fill="black"/>
<path d="M295.849 3.95557C296.628 3.95557 297.33 4.13518 297.963 4.49848C298.596 4.86178 299.094 5.35162 299.457 5.97208C299.82 6.59255 300 7.27017 300 8.00901C300 8.74786 299.82 9.42547 299.457 10.0459C299.094 10.6664 298.596 11.1563 297.963 11.5196C297.33 11.8829 296.624 12.0625 295.849 12.0625H294.661V17.7977H292.681V3.95557H295.849ZM297.408 9.48262C297.816 9.0785 298.02 8.58866 298.02 8.00901C298.02 7.42937 297.816 6.93952 297.408 6.5354C297 6.13537 296.477 5.93126 295.844 5.93126H294.657V10.0827H295.844C296.481 10.0868 297 9.88674 297.408 9.48262Z" fill="black"/>
</svg>
