<svg width="350" height="14" viewBox="0 0 350 14" fill="none" xmlns="http://www.w3.org/2000/svg">
<path d="M3.55144 2.1393H0V0.192627H9.07816V2.13529H5.52672V13.8073H3.55144V2.1393Z" fill="black"/>
<path d="M12.2344 0.192627H14.2097V5.92829H20.5224V0.192627H22.4977V13.8073H20.5224V7.87497H14.2097V13.8073H12.2344V0.192627Z" fill="black"/>
<path d="M27.6252 0.192627H34.1376V2.13529H29.5965V6.02462H34.1335V7.96728H29.5965V11.8566H34.1335V13.7993H27.6252V0.192627Z" fill="black"/>
<path d="M44.7432 0.192627H46.7551L48.7467 9.8377H49.0236L51.9234 0.192627H54.53L57.4298 9.8377H57.7067L59.6983 0.192627H61.7102L58.8919 13.8073H56.5623L53.3652 3.15077H53.0882L49.8911 13.8073H47.5615L44.7432 0.192627Z" fill="black"/>
<path d="M65.3635 0.192627H67.3388V5.92829H73.6516V0.192627H75.6269V13.8073H73.6516V7.87497H67.3388V13.8073H65.3635V0.192627Z" fill="black"/>
<path d="M83.015 13.0565C81.9275 12.4263 81.0682 11.5794 80.4288 10.5078C79.7894 9.43608 79.4717 8.26807 79.4717 6.99571C79.4717 5.72335 79.7894 4.55535 80.4288 3.48367C81.0682 2.41601 81.9275 1.56509 83.015 0.934933C84.0983 0.304773 85.2876 -0.00830078 86.5786 -0.00830078C87.8697 -0.00830078 89.0549 0.304773 90.1423 0.934933C91.2297 1.56509 92.0891 2.412 92.7285 3.48367C93.3679 4.55535 93.6856 5.72335 93.6856 6.99571C93.6856 8.26807 93.3679 9.43608 92.7285 10.5078C92.0891 11.5754 91.2297 12.4263 90.1423 13.0565C89.0589 13.6867 87.8697 13.9997 86.5786 13.9997C85.2876 13.9997 84.0983 13.6867 83.015 13.0565ZM89.1526 11.3747C89.9346 10.9212 90.5577 10.3071 91.0179 9.53642C91.4781 8.76578 91.7103 7.91888 91.7103 6.99973C91.7103 6.08058 91.4781 5.23367 91.0179 4.46303C90.5577 3.69239 89.9346 3.07828 89.1526 2.62473C88.3706 2.17117 87.5113 1.94239 86.5786 1.94239C85.646 1.94239 84.7866 2.17117 84.0046 2.62473C83.2227 3.07828 82.5995 3.69239 82.1393 4.46303C81.6791 5.23367 81.447 6.08058 81.447 6.99973C81.447 7.91888 81.675 8.76578 82.1393 9.53642C82.5995 10.3071 83.2227 10.9212 84.0046 11.3747C84.7866 11.8283 85.646 12.0571 86.5786 12.0571C87.5113 12.0571 88.3706 11.8283 89.1526 11.3747Z" fill="black"/>
<path d="M97.5259 0.192627H99.5012V11.8606H104.238V13.8033H97.5299V0.192627H97.5259Z" fill="black"/>
<path d="M107 0.192627H113.512V2.13529H108.975V6.02462H113.512V7.96728H108.975V11.8566H113.512V13.7993H107V0.192627Z" fill="black"/>
<path d="M125.193 0.192627H127.168V11.8606H131.114V0.192627H133.09V11.8606H137.036V0.192627H139.007V13.8073H125.193V0.192627Z" fill="black"/>
<path d="M146.395 13.0565C145.308 12.4263 144.449 11.5794 143.809 10.5078C143.17 9.43608 142.852 8.26807 142.852 6.99571C142.852 5.72335 143.17 4.55535 143.809 3.48367C144.449 2.41601 145.308 1.56509 146.395 0.934933C147.479 0.304773 148.668 -0.00830078 149.959 -0.00830078C151.25 -0.00830078 152.435 0.304773 153.523 0.934933C154.61 1.56509 155.469 2.412 156.109 3.48367C156.748 4.55535 157.066 5.72335 157.066 6.99571C157.066 8.26807 156.748 9.43608 156.109 10.5078C155.469 11.5754 154.61 12.4263 153.523 13.0565C152.439 13.6867 151.25 13.9997 149.959 13.9997C148.664 13.9997 147.479 13.6867 146.395 13.0565ZM152.529 11.3747C153.311 10.9212 153.934 10.3071 154.394 9.53642C154.854 8.76578 155.087 7.91888 155.087 6.99973C155.087 6.08058 154.854 5.23367 154.394 4.46303C153.934 3.69239 153.311 3.07828 152.529 2.62473C151.747 2.17117 150.888 1.94239 149.955 1.94239C149.022 1.94239 148.163 2.17117 147.381 2.62473C146.599 3.07828 145.976 3.69239 145.516 4.46303C145.055 5.23367 144.823 6.08058 144.823 6.99973C144.823 7.91888 145.051 8.76578 145.516 9.53642C145.976 10.3071 146.599 10.9212 147.381 11.3747C148.163 11.8283 149.022 12.0571 149.955 12.0571C150.888 12.0571 151.747 11.8283 152.529 11.3747Z" fill="black"/>
<path d="M165.879 0.192627C166.51 0.192627 167.084 0.337122 167.597 0.630127C168.111 0.923132 168.514 1.31648 168.811 1.8182C169.108 2.31591 169.255 2.86579 169.255 3.45983C169.255 4.05788 169.108 4.60375 168.811 5.10146C168.514 5.59916 168.111 5.99653 167.597 6.28953C167.084 6.58254 166.51 6.72703 165.879 6.72703H165.484L169.764 13.5344V13.8073H167.614L163.154 6.72703H162.877V13.8073H160.902V0.192627H165.879ZM166.885 4.40306C167.149 4.1502 167.28 3.83712 167.28 3.45983C167.28 3.08254 167.149 2.76946 166.885 2.51659C166.62 2.26373 166.286 2.13529 165.879 2.13529H162.881V4.78036H165.879C166.286 4.78437 166.62 4.65593 166.885 4.40306Z" fill="black"/>
<path d="M173.418 0.192627H175.393V11.8606H180.13V13.8033H173.418V0.192627Z" fill="black"/>
<path d="M186.438 0.192627C187.86 0.192627 189.126 0.497673 190.238 1.10776C191.35 1.71786 192.21 2.54068 192.825 3.57623C193.44 4.61178 193.741 5.7557 193.741 6.99997C193.741 8.25627 193.435 9.40421 192.825 10.4438C192.214 11.4793 191.354 12.3021 190.251 12.9042C189.147 13.5063 187.876 13.8073 186.443 13.8073H182.891V0.192627H186.438ZM189.253 11.2104C190.063 10.7769 190.682 10.1909 191.118 9.45237C191.554 8.71384 191.77 7.89504 191.77 7.00398C191.77 6.10891 191.554 5.29412 191.118 4.55157C190.682 3.81304 190.063 3.22703 189.253 2.79354C188.442 2.36006 187.506 2.14331 186.443 2.14331H184.862V11.8687H186.443C187.506 11.8606 188.442 11.6439 189.253 11.2104Z" fill="black"/>
<path d="M201.756 0.465563V0.192627H203.849L209.376 10.4036H209.653V0.192627H212.296L217.823 10.4036H218.1V0.192627H220.071V13.8073H217.428L211.901 3.61637H211.624V13.8073H208.981L201.756 0.465563Z" fill="black"/>
<path d="M225.199 0.192627H227.17V13.8073H225.199V0.192627Z" fill="black"/>
<path d="M233.882 2.1393H230.331V0.192627H239.409V2.13529H235.857V13.8073H233.882V2.1393Z" fill="black"/>
<path d="M242.565 0.192627H244.536V5.92829H250.849V0.192627H252.824V13.8073H250.849V7.87497H244.536V13.8073H242.565V0.192627Z" fill="black"/>
<path d="M257.956 0.192627H259.927V13.8073H257.956V0.192627Z" fill="black"/>
<path d="M265.059 0.192627H267.466L273.265 10.1668H273.542V0.192627H275.514V13.8073H273.107L267.307 3.82909H267.03V13.8073H265.055V0.192627H265.059Z" fill="black"/>
<path d="M291.947 0.192627C292.578 0.192627 293.152 0.337122 293.661 0.630127C294.174 0.923132 294.578 1.31648 294.875 1.8182C295.172 2.31591 295.319 2.86579 295.319 3.45983C295.319 4.05788 295.172 4.60375 294.875 5.10146C294.578 5.59916 294.174 5.99653 293.661 6.28953C293.148 6.58254 292.574 6.72703 291.947 6.72703H291.552L295.832 13.5344V13.8073H293.682L289.222 6.72703H288.945V13.8073H286.97V0.192627H291.947ZM292.953 4.40306C293.217 4.1502 293.348 3.83712 293.348 3.45983C293.348 3.08254 293.217 2.76946 292.953 2.51659C292.688 2.26373 292.354 2.13529 291.947 2.13529H288.949V4.78036H291.947C292.354 4.78437 292.688 4.65593 292.953 4.40306Z" fill="black"/>
<path d="M301.111 13.4782C300.471 13.129 299.974 12.6313 299.62 11.9891C299.266 11.3469 299.086 10.6164 299.086 9.80157V0.192627H301.058V9.81763C301.058 10.516 301.257 11.0659 301.66 11.4593C302.06 11.8566 302.609 12.0533 303.306 12.0533C304.002 12.0533 304.552 11.8566 304.955 11.4593C305.358 11.0619 305.558 10.516 305.558 9.81763V0.192627H307.529V9.79756C307.529 10.6124 307.35 11.3429 306.996 11.9851C306.641 12.6273 306.144 13.121 305.505 13.4742C304.866 13.8234 304.133 14 303.306 14C302.483 14 301.75 13.8274 301.111 13.4782Z" fill="black"/>
<path d="M313.838 11.4834C314.225 11.8647 314.689 12.0573 315.231 12.0573C315.773 12.0573 316.233 11.8647 316.624 11.4834C317.011 11.1021 317.206 10.6445 317.206 10.1107C317.206 9.72133 317.108 9.37615 316.909 9.07913C316.713 8.78211 316.428 8.53326 316.062 8.3406L313.475 6.95986C312.869 6.64679 312.388 6.20126 312.026 5.61927C311.663 5.03727 311.484 4.39507 311.484 3.69266C311.484 3.01835 311.651 2.40023 311.989 1.83429C312.323 1.27236 312.779 0.822821 313.349 0.493693C313.919 0.164564 314.547 0 315.231 0C315.915 0 316.542 0.164564 317.117 0.497706C317.691 0.826835 318.143 1.27638 318.477 1.8383C318.811 2.40424 318.982 3.02236 318.982 3.69667H317.007C317.007 3.20298 316.835 2.78956 316.493 2.45241C316.151 2.11525 315.732 1.94667 315.231 1.94667C314.742 1.94667 314.327 2.11525 313.976 2.45241C313.626 2.78956 313.455 3.20298 313.455 3.69667C313.455 4.03383 313.545 4.33888 313.72 4.61181C313.899 4.88475 314.152 5.10952 314.481 5.29415L316.929 6.59862C317.654 6.98796 318.208 7.48165 318.595 8.07569C318.982 8.67374 319.177 9.35206 319.177 10.1187C319.177 10.8171 318.998 11.4673 318.644 12.0614C318.289 12.6594 317.809 13.133 317.202 13.4822C316.595 13.8314 315.939 14.008 315.227 14.008C314.514 14.008 313.858 13.8314 313.256 13.4822C312.649 13.133 312.168 12.6594 311.814 12.0614C311.459 11.4633 311.28 10.8171 311.28 10.1187H313.251C313.256 10.6445 313.451 11.1021 313.838 11.4834Z" fill="black"/>
<path d="M325.551 11.8606C325.958 11.8606 326.288 11.7402 326.537 11.4994C326.785 11.2586 326.911 10.9575 326.911 10.5963C326.911 10.3234 326.83 10.0665 326.663 9.82967C326.5 9.58884 326.239 9.28781 325.885 8.92657L323.535 6.45811C323.034 5.92829 322.643 5.4346 322.362 4.98104C322.081 4.52749 321.938 4.01373 321.938 3.44377C321.938 2.83368 322.081 2.2838 322.374 1.7901C322.663 1.29641 323.067 0.907076 323.588 0.622099C324.109 0.337122 324.696 0.192627 325.356 0.192627H328.789V2.13529H325.315C324.895 2.13529 324.553 2.2557 324.297 2.49653C324.04 2.73735 323.914 3.04641 323.914 3.41969C323.914 3.66453 324.007 3.92543 324.199 4.19836C324.39 4.4713 324.631 4.75627 324.92 5.05329L327.209 7.46556C327.763 8.04756 328.178 8.56935 328.463 9.0229C328.744 9.47646 328.887 9.99022 328.887 10.5602C328.887 11.1703 328.74 11.7201 328.451 12.2138C328.162 12.7075 327.759 13.0969 327.237 13.3818C326.716 13.6668 326.129 13.8113 325.47 13.8113H321.938V11.8687H325.551V11.8606Z" fill="black"/>
<path d="M332.634 0.192627H334.605V13.8073H332.634V0.192627Z" fill="black"/>
<path d="M337.566 13.5143L342.539 0.192627H345.023L349.996 13.5143V13.8073H348.004L346.958 11.0057H340.604L339.557 13.8073H337.566V13.5143ZM346.229 9.06304L343.919 2.85776H343.642L341.333 9.06304H346.229Z" fill="black"/>
</svg>
