<svg width="157" height="63" viewBox="0 0 157 63" fill="none" xmlns="http://www.w3.org/2000/svg">
<path d="M3.63429 2.22156H0V0.200195H9.28996V2.2174H5.65566V14.3373H3.63429V2.22156Z" fill="black"/>
<path d="M12.52 0.200195H14.5414V6.15594H21.0014V0.200195H23.0228V14.3373H21.0014V8.17731H14.5414V14.3373H12.52V0.200195Z" fill="black"/>
<path d="M28.27 0.200195H34.9343V2.2174H30.2872V6.25596H34.9301V8.27316H30.2872V12.3117H34.9301V14.3289H28.27V0.200195Z" fill="black"/>
<path d="M45.7871 0.200195H47.846L49.884 10.2153H50.1674L53.1349 0.200195H55.8023L58.7697 10.2153H59.0531L61.0912 0.200195H63.15L60.2659 14.3373H57.882L54.6103 3.27184H54.3269L51.0552 14.3373H48.6712L45.7871 0.200195Z" fill="black"/>
<path d="M66.8882 0.200195H68.9095V6.15594H75.3696V0.200195H77.391V14.3373H75.3696V8.17731H68.9095V14.3373H66.8882V0.200195Z" fill="black"/>
<path d="M84.9516 13.5578C83.8388 12.9034 82.9594 12.024 82.3051 10.9113C81.6508 9.79846 81.3257 8.58564 81.3257 7.26446C81.3257 5.94327 81.6508 4.73045 82.3051 3.61766C82.9594 2.50903 83.8388 1.62546 84.9516 0.971125C86.0603 0.316785 87.2773 -0.00830078 88.5984 -0.00830078C89.9196 -0.00830078 91.1324 0.316785 92.2452 0.971125C93.358 1.62546 94.2374 2.50486 94.8918 3.61766C95.5461 4.73045 95.8712 5.94327 95.8712 7.26446C95.8712 8.58564 95.5461 9.79846 94.8918 10.9113C94.2374 12.0199 93.358 12.9034 92.2452 13.5578C91.1324 14.2121 89.9196 14.5372 88.5984 14.5372C87.2773 14.5372 86.0603 14.2121 84.9516 13.5578ZM91.2325 11.8115C92.0327 11.3405 92.6703 10.7029 93.1413 9.90265C93.6123 9.10244 93.8498 8.22304 93.8498 7.26862C93.8498 6.31421 93.6123 5.43481 93.1413 4.63459C92.6703 3.83438 92.0327 3.19671 91.2325 2.72576C90.4322 2.2548 89.5529 2.01724 88.5984 2.01724C87.644 2.01724 86.7646 2.2548 85.9644 2.72576C85.1642 3.19671 84.5265 3.83438 84.0556 4.63459C83.5846 5.43481 83.347 6.31421 83.347 7.26862C83.347 8.22304 83.5846 9.10244 84.0556 9.90265C84.5265 10.7029 85.1642 11.3405 85.9644 11.8115C86.7646 12.2825 87.644 12.52 88.5984 12.52C89.5529 12.52 90.4322 12.2825 91.2325 11.8115Z" fill="black"/>
<path d="M99.8013 0.200195H101.823V12.3159H106.67V14.3331H99.8054V0.200195H99.8013Z" fill="black"/>
<path d="M109.496 0.200195H116.16V2.2174H111.517V6.25596H116.16V8.27316H111.517V12.3117H116.16V14.3289H109.496V0.200195Z" fill="black"/>
<path d="M2.01733 24.4316H4.0387V36.5473H8.07727V24.4316H10.0986V36.5473H14.1372V24.4316H16.1544V38.5645H2.01733V24.4316Z" fill="black"/>
<path d="M23.7146 37.7892C22.6018 37.1349 21.7224 36.2555 21.068 35.1427C20.4137 34.0299 20.0886 32.8171 20.0886 31.4959C20.0886 30.1747 20.4137 28.9619 21.068 27.8491C21.7224 26.7405 22.6018 25.8569 23.7146 25.2026C24.8232 24.5482 26.0402 24.2231 27.3614 24.2231C28.6826 24.2231 29.8954 24.5482 31.0082 25.2026C32.121 25.8569 33.0004 26.7363 33.6547 27.8491C34.3091 28.9619 34.6341 30.1747 34.6341 31.4959C34.6341 32.8171 34.3091 34.0299 33.6547 35.1427C33.0004 36.2513 32.121 37.1349 31.0082 37.7892C29.8996 38.4436 28.6826 38.7687 27.3614 38.7687C26.0402 38.7687 24.8274 38.4436 23.7146 37.7892ZM29.9954 36.0429C30.7956 35.572 31.4333 34.9343 31.9043 34.1341C32.3752 33.3339 32.6128 32.4545 32.6128 31.5001C32.6128 30.5457 32.3752 29.6663 31.9043 28.866C31.4333 28.0658 30.7956 27.4282 29.9954 26.9572C29.1952 26.4862 28.3158 26.2487 27.3614 26.2487C26.407 26.2487 25.5276 26.4862 24.7274 26.9572C23.9271 27.4282 23.2895 28.0658 22.8185 28.866C22.3476 29.6663 22.11 30.5457 22.11 31.5001C22.11 32.4545 22.3434 33.3339 22.8185 34.1341C23.2895 34.9343 23.9271 35.572 24.7274 36.0429C25.5276 36.5139 26.407 36.7515 27.3614 36.7515C28.3158 36.7515 29.1952 36.5139 29.9954 36.0429Z" fill="black"/>
<path d="M43.6572 24.4316C44.3032 24.4316 44.8909 24.5817 45.416 24.8859C45.9412 25.1902 46.3538 25.5986 46.658 26.1196C46.9623 26.6364 47.1123 27.2074 47.1123 27.8242C47.1123 28.4452 46.9623 29.012 46.658 29.5288C46.3538 30.0456 45.9412 30.4582 45.416 30.7625C44.8909 31.0667 44.3032 31.2168 43.6572 31.2168H43.253L47.6333 38.2853V38.5687H45.4327L40.869 31.2168H40.5856V38.5687H38.5642V24.4316H43.6572ZM44.6867 28.8036C44.9576 28.5411 45.0909 28.216 45.0909 27.8242C45.0909 27.4324 44.9576 27.1074 44.6867 26.8448C44.4158 26.5822 44.074 26.4488 43.6572 26.4488H40.5897V29.1954H43.6572C44.074 29.1996 44.4158 29.0662 44.6867 28.8036Z" fill="black"/>
<path d="M51.3677 24.4316H53.389V36.5473H58.2362V38.5645H51.3718V24.4316H51.3677Z" fill="black"/>
<path d="M64.6965 24.4316C66.1511 24.4316 67.4473 24.7484 68.5851 25.3819C69.7229 26.0154 70.6023 26.8698 71.2316 27.9451C71.8609 29.0204 72.1693 30.2082 72.1693 31.5002C72.1693 32.8047 71.8568 33.9967 71.2316 35.0761C70.6064 36.1556 69.727 37.0058 68.5976 37.631C67.4681 38.2561 66.1678 38.5687 64.7007 38.5687H61.0664V24.4316H64.6965ZM67.5765 35.8722C68.4058 35.422 69.0393 34.8136 69.4853 34.0467C69.9312 33.2798 70.1521 32.4296 70.1521 31.5043C70.1521 30.5749 69.9312 29.7289 69.4853 28.9578C69.0393 28.191 68.4058 27.5825 67.5765 27.1324C66.7471 26.6822 65.7885 26.4572 64.7007 26.4572H63.0836V36.5557H64.7007C65.7885 36.5473 66.7471 36.3223 67.5765 35.8722Z" fill="black"/>
<path d="M80.7881 24.715V24.4316H82.9303L88.586 35.0344H88.8694V24.4316H91.5743L97.2299 35.0344H97.5133V24.4316H99.5305V38.5645H96.8257L91.17 27.9826H90.8866V38.5645H88.1817L80.7881 24.715Z" fill="black"/>
<path d="M104.777 24.4316H106.795V38.5645H104.777V24.4316Z" fill="black"/>
<path d="M113.664 26.453H110.029V24.4358H119.319V26.453H115.685V38.5687H113.668V26.453H113.664Z" fill="black"/>
<path d="M122.549 24.4316H124.566V30.3874H131.026V24.4316H133.047V38.5645H131.026V32.4088H124.566V38.5687H122.549V24.4316Z" fill="black"/>
<path d="M138.299 24.4316H140.316V38.5645H138.299V24.4316Z" fill="black"/>
<path d="M145.568 24.4316H148.031L153.966 34.7885H154.249V24.4316H156.271V38.5645H153.808L147.873 28.2076H147.589V38.5645H145.572V24.4316H145.568Z" fill="black"/>
<path d="M7.10618 48.667C7.75218 48.667 8.33984 48.817 8.86498 49.1213C9.39012 49.4255 9.80273 49.834 10.107 50.3549C10.4112 50.8717 10.5613 51.4427 10.5613 52.0596C10.5613 52.6806 10.4112 53.2474 10.107 53.7642C9.80273 54.281 9.39012 54.6936 8.86498 54.9978C8.33984 55.3021 7.75218 55.4521 7.10618 55.4521H6.70191L11.0864 62.5165V62.7999H8.88582L4.32211 55.4521H4.0387V62.7999H2.01733V48.667H7.10618ZM8.13979 53.0348C8.41069 52.7722 8.54406 52.4472 8.54406 52.0554C8.54406 51.6636 8.41069 51.3385 8.13979 51.076C7.86888 50.8134 7.52712 50.68 7.11035 50.68H4.0387V53.4266H7.10618C7.52712 53.4308 7.86888 53.2974 8.13979 53.0348Z" fill="black"/>
<path d="M16.4879 62.4581C15.8335 62.0955 15.3251 61.5787 14.9625 60.9119C14.5999 60.245 14.4165 59.4865 14.4165 58.6405V48.667H16.4337V58.6613C16.4337 59.3865 16.6379 59.9575 17.0505 60.3659C17.459 60.7785 18.0216 60.9827 18.7385 60.9827C19.4512 60.9827 20.0138 60.7785 20.4264 60.3659C20.839 59.9575 21.0433 59.3865 21.0433 58.6613V48.667H23.0605V58.6405C23.0605 59.4907 22.8771 60.245 22.5145 60.9119C22.1519 61.5787 21.6434 62.0914 20.9891 62.4581C20.3347 62.8207 19.5845 63.0041 18.7385 63.0041C17.8924 62.9999 17.1422 62.8207 16.4879 62.4581Z" fill="black"/>
<path d="M29.5119 60.3869C29.9078 60.7828 30.3829 60.9829 30.9373 60.9829C31.4874 60.9829 31.9625 60.7828 32.3626 60.3869C32.7586 59.9909 32.9586 59.5158 32.9586 58.9615C32.9586 58.5572 32.8586 58.203 32.6544 57.8904C32.4543 57.582 32.1626 57.3236 31.7875 57.1235L29.1409 55.6898C28.5199 55.3647 28.0281 54.9021 27.6572 54.2978C27.2863 53.6934 27.1029 53.0266 27.1029 52.2972C27.1029 51.5971 27.2738 50.9552 27.6197 50.3676C27.9615 49.7841 28.4283 49.3173 29.0117 48.9755C29.5994 48.6338 30.2412 48.4629 30.9414 48.4629C31.6416 48.4629 32.2834 48.6338 32.8711 48.9755C33.4588 49.3173 33.9214 49.7841 34.2631 50.3676C34.6049 50.951 34.7799 51.5971 34.7799 52.2972H32.7586C32.7586 51.7846 32.5835 51.3553 32.2334 51.0052C31.8833 50.6551 31.4541 50.4801 30.9414 50.4801C30.4413 50.4801 30.0162 50.6551 29.6577 51.0052C29.2993 51.3553 29.1243 51.7888 29.1243 52.2972C29.1243 52.6473 29.216 52.9641 29.3952 53.2475C29.5744 53.5309 29.837 53.7643 30.1745 53.956L32.6794 55.3105C33.4212 55.7148 33.9881 56.2274 34.384 56.8443C34.7799 57.4653 34.98 58.1696 34.98 58.9657C34.98 59.6909 34.7966 60.366 34.434 60.987C34.0714 61.608 33.5796 62.0957 32.9586 62.4624C32.3376 62.825 31.6666 63.0084 30.9373 63.0084C30.2079 63.0084 29.5369 62.825 28.92 62.4624C28.2991 62.0998 27.8073 61.608 27.4447 60.987C27.0821 60.366 26.8987 59.695 26.8987 58.9657H28.92C28.9159 59.5158 29.1159 59.9909 29.5119 60.3869Z" fill="black"/>
<path d="M41.4942 60.7827C41.911 60.7827 42.2485 60.6576 42.5028 60.4076C42.757 60.1575 42.8862 59.8449 42.8862 59.4698C42.8862 59.1864 42.8029 58.9239 42.632 58.6738C42.4653 58.4237 42.1985 58.1111 41.8359 57.736L39.4311 55.1729C38.9185 54.6227 38.5184 54.1101 38.2308 53.6391C37.9432 53.1682 37.7974 52.6347 37.7974 52.0429C37.7974 51.4094 37.9432 50.8384 38.2433 50.3257C38.5392 49.8131 38.9518 49.4088 39.4853 49.1129C40.0188 48.817 40.6189 48.6711 41.2941 48.6711H44.8076V50.6883H41.2524C40.8232 50.6883 40.4731 50.8134 40.2105 51.0634C39.9479 51.3135 39.8187 51.6344 39.8187 52.022C39.8187 52.2763 39.9146 52.5472 40.1105 52.8306C40.3064 53.114 40.5523 53.4099 40.8482 53.7183L43.1905 56.2231C43.7573 56.8316 44.1824 57.3693 44.4741 57.8402C44.7617 58.3112 44.9076 58.8447 44.9076 59.4365C44.9076 60.07 44.7575 60.641 44.4616 61.1536C44.1657 61.6662 43.7531 62.0705 43.2196 62.3664C42.6862 62.6623 42.086 62.8082 41.4108 62.8082H37.8015V60.791H41.4942V60.7827Z" fill="black"/>
<path d="M48.7461 48.667H50.7675V62.7999H48.7461V48.667Z" fill="black"/>
<path d="M53.7935 62.4957L58.8823 48.6628H61.4246L66.5135 62.4957V62.7999H64.4754L63.4043 59.8908H56.9026L55.8315 62.7999H53.7935V62.4957ZM62.6583 57.8736L60.2952 51.4302H60.0118L57.6486 57.8736H62.6583Z" fill="black"/>
</svg>
