<svg width="119" height="63" viewBox="0 0 119 63" fill="none" xmlns="http://www.w3.org/2000/svg">
<path d="M4.08154 0.19043C4.84809 0.19043 5.53839 0.364857 6.16046 0.717676C6.78253 1.0705 7.27216 1.54621 7.62935 2.14877C7.98654 2.75134 8.16313 3.40941 8.16313 4.12694C8.16313 4.84447 7.98654 5.50254 7.62935 6.1051C7.27216 6.70767 6.78253 7.18338 6.16046 7.5362C5.53839 7.88902 4.84408 8.06345 4.08154 8.06345H2.91767V13.6372H0.971191V0.19043H4.08154ZM5.61866 5.562C6.01999 5.16954 6.22066 4.69383 6.22066 4.1309C6.22066 3.56798 6.01999 3.0883 5.61866 2.69981C5.21732 2.31131 4.70361 2.1131 4.08154 2.1131H2.91767V6.14475H4.08556C4.70361 6.14475 5.21732 5.9505 5.61866 5.562Z" fill="black"/>
<path d="M13.7978 12.8957C12.7262 12.2733 11.8794 11.4369 11.2493 10.3784C10.6192 9.31997 10.3062 8.16637 10.3062 6.9097C10.3062 5.65303 10.6192 4.49943 11.2493 3.44098C11.8794 2.38648 12.7262 1.54606 13.7978 0.923672C14.8653 0.309212 16.0332 0 17.3054 0C18.5777 0 19.7456 0.309212 20.8171 0.931601C21.8887 1.55399 22.7355 2.39045 23.3656 3.44891C23.9957 4.50736 24.3087 5.66096 24.3087 6.91763C24.3087 8.1743 23.9957 9.3279 23.3656 10.3864C22.7355 11.4409 21.8887 12.2813 20.8171 12.9037C19.7496 13.5261 18.5777 13.8353 17.3054 13.8353C16.0332 13.8273 14.8653 13.5181 13.7978 12.8957ZM19.8419 11.2347C20.6124 10.7867 21.2265 10.1802 21.68 9.41908C22.1335 8.65794 22.3623 7.82148 22.3623 6.91367C22.3623 6.00585 22.1335 5.16939 21.68 4.40826C21.2265 3.64712 20.6124 3.04059 19.8419 2.59263C19.0713 2.14466 18.2245 1.9187 17.3054 1.9187C16.3864 1.9187 15.5396 2.14466 14.769 2.59263C13.9984 3.04059 13.3844 3.64712 12.9309 4.40826C12.4774 5.16939 12.2486 6.00585 12.2486 6.91367C12.2486 7.82148 12.4734 8.65794 12.9309 9.41908C13.3844 10.1802 13.9984 10.7867 14.769 11.2347C15.5396 11.6827 16.3864 11.9086 17.3054 11.9086C18.2245 11.9086 19.0713 11.6827 19.8419 11.2347Z" fill="black"/>
<path d="M30.3249 12.8957C29.2533 12.2733 28.4065 11.4369 27.7764 10.3784C27.1463 9.31997 26.8333 8.16637 26.8333 6.9097C26.8333 5.65303 27.1463 4.49943 27.7764 3.44098C28.4065 2.38648 29.2533 1.54606 30.3249 0.923672C31.3924 0.309212 32.5643 0 33.8325 0V1.9187C32.9135 1.9187 32.0667 2.14466 31.2961 2.59263C30.5255 3.04059 29.9115 3.64712 29.458 4.40826C29.0045 5.16939 28.7757 6.00585 28.7757 6.91367C28.7757 7.82148 29.0045 8.65794 29.458 9.41908C29.9115 10.1802 30.5255 10.7867 31.2961 11.2347C32.0667 11.6827 32.9135 11.9086 33.8325 11.9086V13.8273C32.5643 13.8273 31.3924 13.5181 30.3249 12.8957Z" fill="black"/>
<path d="M39.853 12.8958C38.7814 12.2735 37.9346 11.437 37.3045 10.3785C36.6744 9.32009 36.3613 8.16649 36.3613 6.90982C36.3613 5.65315 36.6744 4.49955 37.3045 3.44109C37.9346 2.3866 38.7814 1.54618 39.853 0.923788C40.9245 0.3014 42.0924 -0.0078125 43.3646 -0.0078125C44.7131 -0.0078125 45.9412 0.333114 47.0489 1.01893C48.1566 1.70475 49.0034 2.61653 49.5853 3.75427V4.02384H47.4864C47.0208 3.36974 46.4268 2.85438 45.7084 2.47778C44.99 2.10117 44.2074 1.91089 43.3646 1.91089C42.4456 1.91089 41.5988 2.13685 40.8282 2.58481C40.0576 3.03277 39.4436 3.63931 38.9901 4.40044C38.5366 5.16158 38.3078 5.99804 38.3078 6.90585C38.3078 7.81367 38.5326 8.65013 38.9901 9.41127C39.4436 10.1724 40.0576 10.7789 40.8282 11.2269C41.5988 11.6749 42.4456 11.9008 43.3646 11.9008C44.2476 11.9008 45.0623 11.6947 45.8128 11.2745C46.5633 10.8582 47.1693 10.2993 47.6228 9.59362H49.6857V9.86319C49.1278 11.0525 48.281 12.0118 47.1372 12.7333C45.9974 13.4588 44.7372 13.8195 43.3646 13.8195C42.0924 13.8275 40.9205 13.5182 39.853 12.8958Z" fill="black"/>
<path d="M63.3913 13.6372H61.4488V3.78205H61.1759L55.4569 13.6372H53.085V0.19043H55.0314V10.0416H55.3043L61.0194 0.19043H63.3913V13.6372Z" fill="black"/>
<path d="M73.7729 13.6372V6.64424H73.5L69.1054 13.6372H66.9863V13.3676L71.2044 6.64424H70.8151C70.193 6.64424 69.6271 6.50153 69.1254 6.21214C68.6198 5.92275 68.2224 5.53425 67.9295 5.03872C67.6365 4.54715 67.492 4.00405 67.492 3.41734C67.492 2.82666 67.6365 2.28752 67.9295 1.79595C68.2224 1.30439 68.6198 0.911925 69.1254 0.622534C69.6311 0.333143 70.197 0.19043 70.8151 0.19043H75.7154V13.6372H73.7729ZM73.7729 2.1131H70.8191C70.4177 2.1131 70.0846 2.23995 69.8278 2.4897C69.5669 2.73945 69.4385 3.04866 69.4385 3.4213C69.4385 3.79394 69.5669 4.10315 69.8278 4.3529C70.0886 4.60265 70.4177 4.72951 70.8191 4.72951H73.7729V2.1131Z" fill="black"/>
<path d="M84.6619 5.95435H101.775V7.87305H84.6619V5.95435Z" fill="black"/>
<path d="M2.03076 36.3761C1.40066 36.0193 0.907018 35.5277 0.541803 34.9053C0.176588 34.283 0 33.613 0 32.8836H1.94246C1.94246 33.4742 2.15116 33.9737 2.56453 34.3821C2.97791 34.7904 3.48359 34.9965 4.08158 34.9965C4.67957 34.9965 5.18526 34.7904 5.59863 34.3821C6.01201 33.9737 6.2207 33.4742 6.2207 32.8836C6.2207 32.2929 6.01201 31.7934 5.59863 31.3851C5.18526 30.9768 4.67957 30.7706 4.08158 30.7706H3.0341V28.8519H4.0856C4.63141 28.8519 5.08893 28.6656 5.46619 28.293C5.84345 27.9203 6.03207 27.4684 6.03207 26.9293C6.03207 26.406 5.84345 25.954 5.46619 25.5735C5.08893 25.1969 4.63141 25.0066 4.0856 25.0066C3.53978 25.0066 3.08226 25.1929 2.705 25.5655C2.32775 25.9382 2.13912 26.3901 2.13912 26.9293H0.192641C0.192641 26.2236 0.369229 25.5814 0.718391 24.9987C1.06755 24.4159 1.53712 23.9521 2.12708 23.6072C2.71704 23.2623 3.36721 23.0879 4.08158 23.0879C4.79596 23.0879 5.44612 23.2623 6.03609 23.6072C6.62605 23.9521 7.09561 24.4199 7.44477 25.0106C7.79394 25.6012 7.97052 26.2395 7.97052 26.9332C7.97052 27.4961 7.85815 28.0234 7.62939 28.5189C7.40063 29.0105 7.08759 29.4386 6.68625 29.7954C7.1518 30.1681 7.51701 30.62 7.77387 31.1591C8.03474 31.6983 8.16317 32.2731 8.16317 32.8875C8.16317 33.617 7.98256 34.2909 7.61735 34.9133C7.25213 35.5357 6.75849 36.0233 6.12839 36.384C5.4983 36.7408 4.81603 36.9231 4.07757 36.9231C3.34312 36.9152 2.66085 36.7368 2.03076 36.3761Z" fill="black"/>
<path d="M10.21 36.416L15.1103 23.2388H17.5624L22.4627 36.416V36.6855H10.21V36.416ZM19.7738 34.7629L16.4668 25.871H16.1939L12.8869 34.7629H19.7738Z" fill="black"/>
<path d="M25.3765 23.2388H31.7938V25.1575H27.3189V28.9988H31.7898V30.9215H27.3189V34.7629H31.7898V36.6816H25.3765V23.2388Z" fill="black"/>
<path d="M38.4921 35.9442C37.4205 35.3218 36.5737 34.4853 35.9436 33.4269C35.3135 32.3684 35.0005 31.2148 35.0005 29.9582C35.0005 28.7015 35.3135 27.5479 35.9436 26.4894C36.5737 25.4349 37.4205 24.5945 38.4921 23.9721C39.5597 23.3497 40.7316 23.0405 42.0038 23.0405C43.3523 23.0405 44.5804 23.3815 45.6881 24.0673C46.7957 24.7531 47.6426 25.6649 48.2245 26.8026V27.0722H46.1255C45.66 26.4181 45.066 25.9027 44.3476 25.5261C43.6292 25.1495 42.8466 24.9592 42.0038 24.9592C41.0847 24.9592 40.2379 25.1852 39.4674 25.6332C38.6968 26.0811 38.0827 26.6876 37.6292 27.4488C37.1757 28.2099 36.947 29.0464 36.947 29.9542C36.947 30.862 37.1757 31.6985 37.6292 32.4596C38.0827 33.2207 38.6968 33.8273 39.4674 34.2752C40.2379 34.7232 41.0847 34.9492 42.0038 34.9492C42.8867 34.9492 43.7014 34.743 44.4519 34.3228C45.2024 33.9066 45.8085 33.3476 46.262 32.642H48.3248V32.9115C47.767 34.1008 46.9202 35.0602 45.7764 35.7817C44.6366 36.5071 43.3764 36.8679 42.0038 36.8679C40.7316 36.8758 39.5597 36.5666 38.4921 35.9442Z" fill="black"/>
<path d="M53.6666 23.2388V28.8086H54.8345C55.601 28.8086 56.2913 28.983 56.9134 29.3358C57.5355 29.6886 58.0251 30.1643 58.3823 30.7669C58.7395 31.3695 58.9161 32.0275 58.9161 32.7451C58.9161 33.4626 58.7395 34.1207 58.3823 34.7232C58.0251 35.3258 57.5355 35.8015 56.9134 36.1543C56.2913 36.5071 55.597 36.6816 54.8345 36.6816H51.7241V23.2388H53.6666ZM53.6666 34.7629H54.8345C55.4565 34.7629 55.9703 34.5686 56.3716 34.1762C56.7729 33.7837 56.9736 33.308 56.9736 32.7451C56.9736 32.1821 56.7729 31.7064 56.3716 31.314C55.9703 30.9255 55.4565 30.7273 54.8345 30.7273H53.6666V34.7629Z" fill="black"/>
<path d="M11.0848 59.7334H0.971191V46.2866H2.91767V57.8107H8.74907V46.2866H10.6915V57.8107H13.0233V62.996H11.0808V59.7334H11.0848Z" fill="black"/>
<path d="M16.3345 46.2866H22.7518V48.2053H18.2769V52.0467H22.7478V53.9654H18.2769V57.8068H22.7478V59.7255H16.3345V46.2866Z" fill="black"/>
<path d="M29.8674 46.2866H32.1631L36.947 59.444V59.7334H34.9844L31.1557 49.1885H30.8828L27.0541 59.7334H25.0835V59.444L29.8674 46.2866Z" fill="black"/>
<path d="M41.8075 51.8604H42.9753C43.7419 51.8604 44.4322 52.0348 45.0543 52.3876C45.6763 52.7404 46.166 53.2161 46.5231 53.8187C46.8803 54.4213 47.0569 55.0794 47.0569 55.7969C47.0569 56.5144 46.8803 57.1725 46.5231 57.7751C46.166 58.3776 45.6763 58.8533 45.0543 59.2062C44.4322 59.559 43.7379 59.7334 42.9753 59.7334H39.865V46.2866H41.8115V51.8604H41.8075ZM42.9713 57.8107C43.5934 57.8107 44.1071 57.6165 44.5084 57.224C44.9098 56.8316 45.1104 56.3558 45.1104 55.7929C45.1104 55.23 44.9098 54.7543 44.5084 54.3618C44.1071 53.9733 43.5934 53.7751 42.9713 53.7751H41.8034V57.8068H42.9713V57.8107ZM49.3887 46.2866H51.3311V59.7334H49.3887V46.2866Z" fill="black"/>
<path d="M64.7519 59.7334V49.8307H64.479L58.764 59.7334H56.3921V46.2232H58.3346V56.126H58.6075L64.3225 46.2232H66.6944V59.7334H64.7519ZM60.0764 44.8714C59.6269 44.6138 59.2737 44.2649 59.0168 43.8209C58.756 43.3769 58.6275 42.8933 58.6275 42.3621H60.3774C60.3774 42.6832 60.4897 42.9567 60.7185 43.1827C60.9432 43.4086 61.2202 43.5196 61.5452 43.5196C61.8824 43.5196 62.1593 43.4086 62.38 43.1827C62.6008 42.9567 62.7091 42.6832 62.7091 42.3621H64.4589C64.4589 42.8774 64.3305 43.3571 64.0696 43.8011C63.8088 44.2451 63.4556 44.5979 63.0101 44.8635C62.5646 45.1291 62.075 45.2599 61.5412 45.2599C61.0075 45.2599 60.5218 45.1291 60.0764 44.8714Z" fill="black"/>
<path d="M78.9063 46.2866H81.2019L84.3524 56.8117H84.6253L87.7758 46.2866H90.0714L92.8527 59.7334H90.8701L88.9076 50.2073H88.6347L85.7771 59.7334H83.2086L80.3511 50.2073H80.0782L78.1157 59.7334H76.1331L78.9063 46.2866Z" fill="black"/>
<path d="M106.751 59.7334H104.809V49.8822H104.536L98.8209 59.7334H96.449V46.2866H98.3954V56.1378H98.6684L104.383 46.2866H106.755V59.7334H106.751Z" fill="black"/>
<path d="M114.918 46.2867C115.684 46.2867 116.375 46.4611 116.997 46.8139C117.619 47.1667 118.108 47.6425 118.466 48.245C118.823 48.8476 118.999 49.5057 118.999 50.2232C118.999 50.9407 118.823 51.5988 118.466 52.2014C118.108 52.8039 117.619 53.2796 116.997 53.6325C116.375 53.9853 115.68 54.1597 114.918 54.1597H113.75V59.7295H111.803V46.2827H114.918V46.2867ZM116.451 51.6583C116.852 51.2658 117.053 50.7901 117.053 50.2272C117.053 49.6642 116.852 49.1885 116.451 48.7961C116.05 48.4076 115.536 48.2093 114.914 48.2093H113.746V52.241H114.914C115.54 52.241 116.05 52.0467 116.451 51.6583Z" fill="black"/>
</svg>
