<svg width="72" height="72" viewBox="0 0 72 72" fill="none" xmlns="http://www.w3.org/2000/svg">
<rect width="72" height="72" rx="8" fill="#EE3F58"/>
<g clip-path="url(#clip0_1766:10080)">
<path fill-rule="evenodd" clip-rule="evenodd" d="M38.5947 23.9C40.1158 24.53 41.4579 25.43 42.3526 26.78L38.1473 29.57C38.6842 31.19 39.5789 32.63 40.8315 33.71L43.2473 32.72C43.5158 32 43.6052 31.1 43.4263 29.93L50.4947 24.44C52.3737 29.03 54.2526 34.88 45.5737 39.56H40.0263C39.0421 40.55 38.4158 41.63 37.9684 42.8C39.0421 43.88 40.8315 45.14 42.1737 45.77C38.6842 50.09 33.3158 50.09 29.8263 45.77C31.0789 45.14 32.9579 43.88 34.0315 42.8C33.5842 41.63 32.9579 40.55 31.9737 39.56H26.4263C17.7473 34.88 19.6263 29.12 21.5052 24.44L28.5736 29.93C28.4842 31.01 28.5736 32 28.7526 32.72L31.1684 33.71C32.421 32.63 33.3158 31.19 33.8526 29.57L29.6473 26.78C30.5421 25.43 31.8842 24.44 33.4052 23.9L36 26.33L38.5947 23.9Z" stroke="white" stroke-width="2.0013" stroke-miterlimit="22.9256" stroke-linecap="round" stroke-linejoin="round"/>
</g>
<defs>
<clipPath id="clip0_1766:10080">
<rect width="34" height="27" fill="white" transform="translate(19 23)"/>
</clipPath>
</defs>
</svg>
