<svg width="140" height="64" viewBox="0 0 140 64" fill="none" xmlns="http://www.w3.org/2000/svg">
<g clip-path="url(#clip0_2377_23262)">
<path d="M92.498 58.9992L105.578 64.0005L112.606 45.6891L99.5259 40.668L92.498 58.9992Z" fill="#E6280F"/>
<path d="M95.4043 7.57073L101.417 40.6268L140 33.5932L133.988 0.537109L95.4043 7.57073Z" fill="#F59600"/>
<path d="M83.3986 56.0498C98.8679 56.0498 111.391 43.4969 111.391 28.0349C111.391 12.5729 98.8679 0 83.3986 0C67.9294 0 55.3867 12.5529 55.3867 28.0149C55.3867 43.477 67.9294 56.0498 83.3986 56.0498Z" fill="#7D9B1E"/>
<path d="M139.901 42.9586L124.69 12.9512C119.235 15.7208 115.492 21.3995 115.492 27.9549C115.492 37.26 123.018 44.7918 132.315 44.7918C135.023 44.7918 137.631 44.1342 139.901 42.9586Z" fill="#780050"/>
<path d="M86.7837 50.3709C88.3366 50.3709 89.5909 49.1156 89.5909 47.5614C89.5909 46.0072 88.3366 44.752 86.7837 44.752C85.2308 44.752 83.9766 46.0072 83.9766 47.5614C83.9766 49.1156 85.2308 50.3709 86.7837 50.3709Z" fill="#8CD2FF"/>
<path d="M5.59443 27.9551H0V33.5541H5.59443V27.9551Z" fill="#E6280F"/>
<path d="M72.2494 49.8923L75.9724 10.8587L20.1874 5.55859L16.4844 44.5922L72.2494 49.8923Z" fill="#780050"/>
<path d="M48.1394 55.7903L57.2975 0.537537L56.0433 0.318359L46.8652 55.5712L48.1394 55.7903Z" fill="#E6280F"/>
<path d="M22.8946 49.834L34.1431 24.1504L13.6568 15.1641L2.4082 40.8278L22.8946 49.834Z" fill="#E6280F"/>
<path d="M123.515 24.5883C122.261 24.5883 121.325 25.5447 121.325 26.7402C121.325 27.9357 122.261 28.8921 123.515 28.8921H123.774L120.986 33.3753V33.5547H122.38L125.287 28.8722H125.466V33.5547H126.74V24.5684H123.515V24.5883ZM125.466 27.6169H123.515C122.977 27.6169 122.599 27.2383 122.599 26.7402C122.599 26.2421 122.977 25.8635 123.515 25.8635H125.466V27.6169Z" fill="white"/>
<path d="M106.991 33.5742V24.5879H105.418L101.655 31.1632H101.476V24.5879H100.182V33.5742H101.754L105.517 26.9789H105.696V33.5742H106.991Z" fill="white"/>
<path d="M83.4786 33.6946C84.7528 33.6946 85.9075 33.1765 86.7437 32.3197L85.8478 31.4231C85.2505 32.0208 84.4144 32.4193 83.4786 32.4193C81.6271 32.4193 80.1339 30.9249 80.1339 29.0719C80.1339 27.2388 81.6271 25.7444 83.4786 25.7444C84.3944 25.7444 85.2306 26.1229 85.8279 26.7207L86.7437 25.8041C85.9075 24.9673 84.7528 24.4492 83.4786 24.4492C80.9303 24.4492 78.8398 26.5215 78.8398 29.052C78.8598 31.6223 80.9303 33.6946 83.4786 33.6946Z" fill="white"/>
<path d="M62.4552 33.6946C63.7294 33.6946 64.8841 33.1765 65.7203 32.3197L64.8244 31.4231C64.2271 32.0208 63.3909 32.4193 62.4552 32.4193C60.6037 32.4193 59.1105 30.9249 59.1105 29.0719C59.1105 27.2388 60.6037 25.7444 62.4552 25.7444C63.371 25.7444 64.2072 26.1229 64.8045 26.7207L65.7203 25.8041C64.8841 24.9673 63.7294 24.4492 62.4552 24.4492C59.9069 24.4492 57.8164 26.5215 57.8164 29.052C57.8363 31.6223 59.9069 33.6946 62.4552 33.6946Z" fill="white"/>
<path d="M40.2751 24.4688C37.7268 24.4688 35.6562 26.541 35.6562 29.0914C35.6562 31.6418 37.7268 33.7141 40.2751 33.7141C42.8235 33.7141 44.894 31.6418 44.894 29.0914C44.894 26.5211 42.8434 24.4688 40.2751 24.4688ZM40.2751 32.4189C38.4236 32.4189 36.9304 30.9245 36.9304 29.0715C36.9304 27.2184 38.4236 25.724 40.2751 25.724C42.1267 25.724 43.6198 27.2184 43.6198 29.0715C43.6198 30.9245 42.1267 32.4189 40.2751 32.4189Z" fill="white"/>
<path d="M19.4914 24.5684H17.0625V33.5547H18.3367V29.8286H19.4914C21.0244 29.8286 22.1791 28.653 22.1791 27.1985C22.1791 25.7439 21.0244 24.5684 19.4914 24.5684ZM19.4914 28.5534H18.3367V25.8635H19.4914C20.3276 25.8635 20.9049 26.4812 20.9049 27.2184C20.9049 27.9557 20.3276 28.5534 19.4914 28.5534Z" fill="white"/>
</g>
<defs>
<clipPath id="clip0_2377_23262">
<rect width="140" height="64" fill="white"/>
</clipPath>
</defs>
</svg>
