<svg width="240" height="52" viewBox="0 0 240 52" fill="none" xmlns="http://www.w3.org/2000/svg">
<path d="M70.3694 11.3397H70.5639C71.5564 11.3397 72.4566 11.565 73.2653 12.0155C74.0798 12.4601 74.7112 13.0885 75.1605 13.9007C75.6147 14.713 75.8422 15.6259 75.8422 16.6396C75.8422 17.6475 75.6147 18.5545 75.1605 19.3607C74.7112 20.161 74.0855 20.7835 73.2826 21.2282C72.4863 21.6728 71.5919 21.8981 70.5993 21.904H70.3694V23.5936H68.2178V21.904H68.0051C67.0076 21.904 66.1009 21.6817 65.2865 21.2371C64.4718 20.7865 63.8402 20.161 63.3915 19.3607C62.9487 18.5605 62.7273 17.6593 62.7273 16.6574C62.7273 15.6437 62.9517 14.7308 63.4003 13.9185C63.849 13.1063 64.4777 12.475 65.2865 12.0244C66.0951 11.5679 67.0019 11.3397 68.0051 11.3397H68.2178V9.57895H70.3694V11.3397ZM68.0051 13.1449C67.0134 13.1449 66.2369 13.4561 65.6763 14.0786C65.1212 14.701 64.8437 15.5607 64.8437 16.6574C64.8437 17.7245 65.1212 18.5663 65.6763 19.1829C66.2311 19.7935 67.0159 20.0989 68.0315 20.0989H68.2178V13.1449H68.0051ZM70.3694 13.1449V20.0989H70.582C71.5737 20.0989 72.3445 19.7876 72.8935 19.1651C73.4483 18.5427 73.7253 17.7008 73.7253 16.6396C73.7253 15.5548 73.4483 14.701 72.8935 14.0786C72.3445 13.4561 71.5647 13.1449 70.5557 13.1449H70.3694ZM81.4387 23.2378C80.0752 23.2378 78.9681 22.808 78.1182 21.9484C77.2741 21.083 76.852 19.9328 76.852 18.4982V18.2314C76.852 17.271 77.035 16.4144 77.4011 15.6615C77.7728 14.9026 78.2922 14.3128 78.9591 13.8918C79.6268 13.4709 80.3704 13.2605 81.1914 13.2605C82.4955 13.2605 83.5021 13.6784 84.211 14.5144C84.9249 15.3502 85.2818 16.5329 85.2818 18.0624V18.9339H79.0217C79.086 19.7283 79.349 20.3567 79.8098 20.8191C80.2756 21.2816 80.86 21.5128 81.5632 21.5128C82.5491 21.5128 83.352 21.1126 83.972 20.3123L85.1318 21.4238C84.7477 21.9989 84.2341 22.4465 83.5911 22.7666C82.9531 23.0808 82.2359 23.2378 81.4387 23.2378ZM81.1824 14.9945C80.5921 14.9945 80.114 15.202 79.748 15.617C79.3877 16.032 79.1569 16.61 79.0572 17.351H83.1567V17.191C83.1097 16.4677 82.9176 15.9223 82.5813 15.5548C82.2449 15.1812 81.7784 14.9945 81.1824 14.9945ZM86.6371 21.3349C87.2339 20.665 87.6321 20.0307 87.8332 19.4319C88.0393 18.8272 88.1638 18.0565 88.205 17.1198L88.3286 13.4384H94.9795V21.3349H96.3075V25.9234H94.1642V23.06H88.0187V25.9234H85.8408L85.849 21.3349H86.6371ZM89.1612 21.3349H92.8362V15.2969H90.4184L90.3566 17.1376C90.2741 18.9042 89.8751 20.3033 89.1612 21.3349ZM101.7 23.2378C100.337 23.2378 99.2299 22.808 98.38 21.9484C97.5358 21.083 97.1137 19.9328 97.1137 18.4982V18.2314C97.1137 17.271 97.2967 16.4144 97.6628 15.6615C98.0345 14.9026 98.5539 14.3128 99.2208 13.8918C99.8885 13.4709 100.632 13.2605 101.453 13.2605C102.757 13.2605 103.764 13.6784 104.473 14.5144C105.187 15.3502 105.544 16.5329 105.544 18.0624V18.9339H99.2834C99.3477 19.7283 99.6107 20.3567 100.072 20.8191C100.537 21.2816 101.122 21.5128 101.825 21.5128C102.811 21.5128 103.614 21.1126 104.234 20.3123L105.394 21.4238C105.009 21.9989 104.496 22.4465 103.853 22.7666C103.215 23.0808 102.498 23.2378 101.7 23.2378ZM101.444 14.9945C100.854 14.9945 100.376 15.202 100.01 15.617C99.6494 16.032 99.4186 16.61 99.3189 17.351H103.418V17.191C103.371 16.4677 103.179 15.9223 102.843 15.5548C102.507 15.1812 102.04 14.9945 101.444 14.9945ZM115.249 18.347C115.249 19.835 114.913 21.0236 114.24 21.9129C113.567 22.7962 112.664 23.2378 111.531 23.2378C110.48 23.2378 109.638 22.8911 109.007 22.1975V26.7594H106.855V13.4384H108.838L108.927 14.4165C109.559 13.6458 110.418 13.2605 111.504 13.2605C112.673 13.2605 113.588 13.6992 114.249 14.5766C114.916 15.4481 115.249 16.6604 115.249 18.2136V18.347ZM113.107 18.1603C113.107 17.1999 112.915 16.4381 112.531 15.8749C112.153 15.3117 111.61 15.0301 110.902 15.0301C110.022 15.0301 109.391 15.3947 109.007 16.1239V20.3922C109.397 21.1393 110.034 21.5128 110.919 21.5128C111.604 21.5128 112.138 21.2371 112.522 20.6857C112.912 20.1285 113.107 19.2866 113.107 18.1603ZM122.44 23.06C122.346 22.8763 122.264 22.5768 122.193 22.1619C121.508 22.8792 120.67 23.2378 119.678 23.2378C118.715 23.2378 117.93 22.9622 117.322 22.4109C116.714 21.8595 116.41 21.1778 116.41 20.3656C116.41 19.34 116.788 18.5545 117.544 18.0091C118.305 17.4577 119.391 17.1821 120.802 17.1821H122.122V16.5507C122.122 16.0528 121.983 15.6555 121.706 15.3591C121.428 15.0567 121.006 14.9056 120.44 14.9056C119.949 14.9056 119.548 15.0301 119.235 15.2791C118.922 15.5221 118.765 15.8334 118.765 16.2128H116.614C116.614 15.6851 116.788 15.1931 117.136 14.7366C117.484 14.2742 117.957 13.9126 118.553 13.6518C119.155 13.3909 119.825 13.2605 120.563 13.2605C121.685 13.2605 122.58 13.5451 123.246 14.1142C123.913 14.6774 124.256 15.4717 124.274 16.4974V20.8369C124.274 21.7024 124.395 22.3931 124.636 22.9089V23.06H122.44ZM120.076 21.5038C120.501 21.5038 120.9 21.4001 121.271 21.1926C121.65 20.9851 121.932 20.7065 122.122 20.3567V18.5427H120.961C120.165 18.5427 119.566 18.682 119.164 18.9606C118.763 19.2392 118.562 19.6335 118.562 20.1433C118.562 20.5583 118.698 20.8903 118.969 21.1393C119.247 21.3823 119.616 21.5038 120.076 21.5038ZM134.307 13.4384V23.06H132.155V15.1812H129.446L129.268 18.5337C129.156 20.1462 128.846 21.3052 128.338 22.0107C127.836 22.7103 127.067 23.06 126.027 23.06H125.363L125.354 21.2638L125.797 21.2193C126.269 21.1541 126.611 20.8666 126.824 20.3567C127.043 19.8409 127.181 18.9043 127.24 17.5466L127.418 13.4384H134.307ZM138.549 16.4974H140.657C141.442 16.4974 142.127 16.6337 142.711 16.9064C143.295 17.1791 143.738 17.5615 144.039 18.0535C144.347 18.5456 144.5 19.1177 144.5 19.7698C144.5 20.7599 144.151 21.5542 143.455 22.153C142.758 22.7518 141.831 23.0541 140.674 23.06H136.397V13.4384H138.549V16.4974ZM138.549 18.2314V21.3349H140.648C141.174 21.3349 141.587 21.2045 141.888 20.9436C142.194 20.6768 142.348 20.3004 142.348 19.8143C142.348 19.3282 142.197 18.9457 141.897 18.6672C141.601 18.3826 141.2 18.2374 140.692 18.2314H138.549ZM153.976 23.06H151.823V19.174H148.096V23.06H145.943V13.4384H148.096V17.4489H151.823V13.4384H153.976V23.06ZM155.507 18.1603C155.507 17.2177 155.694 16.3699 156.065 15.617C156.437 14.8582 156.96 14.2772 157.633 13.8741C158.306 13.465 159.079 13.2605 159.953 13.2605C161.246 13.2605 162.293 13.6784 163.096 14.5144C163.906 15.3502 164.343 16.4588 164.407 17.8401L164.416 18.347C164.416 19.2956 164.233 20.1433 163.867 20.8903C163.507 21.6372 162.988 22.2152 162.308 22.6243C161.636 23.0334 160.857 23.2378 159.97 23.2378C158.619 23.2378 157.535 22.7873 156.721 21.8862C155.912 20.9792 155.507 19.7728 155.507 18.267V18.1603ZM157.66 18.347C157.66 19.337 157.863 20.1137 158.271 20.6768C158.678 21.2341 159.245 21.5128 159.97 21.5128C160.697 21.5128 161.261 21.2282 161.662 20.659C162.069 20.0899 162.273 19.257 162.273 18.1603C162.273 17.188 162.063 16.4173 161.645 15.8482C161.231 15.2791 160.668 14.9945 159.953 14.9945C159.251 14.9945 158.693 15.2761 158.28 15.8393C157.866 16.3966 157.66 17.2325 157.66 18.347ZM170.093 23.2378C168.729 23.2378 167.622 22.808 166.772 21.9484C165.928 21.083 165.506 19.9328 165.506 18.4982V18.2314C165.506 17.271 165.689 16.4144 166.055 15.6615C166.427 14.9026 166.946 14.3128 167.613 13.8918C168.281 13.4709 169.024 13.2605 169.845 13.2605C171.149 13.2605 172.156 13.6784 172.865 14.5144C173.579 15.3502 173.936 16.5329 173.936 18.0624V18.9339H167.676C167.74 19.7283 168.003 20.3567 168.464 20.8191C168.929 21.2816 169.514 21.5128 170.217 21.5128C171.203 21.5128 172.006 21.1126 172.625 20.3123L173.786 21.4238C173.402 21.9989 172.888 22.4465 172.245 22.7666C171.607 23.0808 170.89 23.2378 170.093 23.2378ZM169.836 14.9945C169.246 14.9945 168.767 15.202 168.401 15.617C168.042 16.032 167.811 16.61 167.711 17.351H171.811V17.191C171.764 16.4677 171.572 15.9223 171.235 15.5548C170.899 15.1812 170.432 14.9945 169.836 14.9945ZM68.855 41.2719C68.761 41.0881 68.6778 40.7887 68.6069 40.3737C67.9227 41.0911 67.0843 41.4497 66.0926 41.4497C65.13 41.4497 64.3449 41.174 63.7368 40.6227C63.1287 40.0714 62.8247 39.3896 62.8247 38.5774C62.8247 37.5519 63.2025 36.7664 63.9582 36.2209C64.7197 35.6696 65.8057 35.3939 67.217 35.3939H68.5368V34.7626C68.5368 34.2646 68.3975 33.8674 68.1205 33.571C67.8427 33.2686 67.4206 33.1174 66.8535 33.1174C66.3638 33.1174 65.9624 33.242 65.6499 33.491C65.3367 33.734 65.1802 34.0453 65.1802 34.4246H63.0284C63.0284 33.897 63.2025 33.4049 63.5509 32.9485C63.8992 32.4861 64.3715 32.1245 64.9677 31.8636C65.57 31.6028 66.2402 31.4723 66.978 31.4723C68.0999 31.4723 68.9943 31.7569 69.6612 32.3261C70.3281 32.8892 70.6702 33.6836 70.6884 34.7093V39.0488C70.6884 39.9143 70.8096 40.6049 71.0511 41.1207V41.2719H68.855ZM66.4908 39.7157C66.9161 39.7157 67.3143 39.612 67.6861 39.4044C68.0645 39.197 68.3472 38.9183 68.5368 38.5686V36.7545H67.3761C66.579 36.7545 65.9805 36.8938 65.579 37.1725C65.1773 37.451 64.9765 37.8453 64.9765 38.3552C64.9765 38.7702 65.1124 39.1021 65.3837 39.3511C65.6615 39.5942 66.03 39.7157 66.4908 39.7157ZM78.9591 33.3931H74.7978V41.2719H72.6544V31.6502H78.9591V33.3931ZM83.8565 41.4497C82.4931 41.4497 81.386 41.0199 80.5361 40.1603C79.6919 39.2948 79.2699 38.1447 79.2699 36.7101V36.4433C79.2699 35.4828 79.4529 34.6262 79.8189 33.8733C80.1907 33.1145 80.71 32.5247 81.3777 32.1037C82.0446 31.6828 82.7882 31.4723 83.6092 31.4723C84.9134 31.4723 85.9199 31.8903 86.6288 32.7262C87.3427 33.5621 87.6997 34.7448 87.6997 36.2743V37.1458H81.4395C81.5047 37.9402 81.7668 38.5686 82.2276 39.031C82.6942 39.4934 83.2787 39.7246 83.981 39.7246C84.9669 39.7246 85.7699 39.3245 86.3898 38.5241L87.5496 39.6356C87.1655 40.2107 86.6519 40.6583 86.0089 40.9784C85.3709 41.2927 84.6537 41.4497 83.8565 41.4497ZM83.6002 33.2064C83.0099 33.2064 82.5318 33.4139 82.1658 33.8289C81.8056 34.2439 81.5747 34.8218 81.475 35.5629H85.5745V35.4029C85.5275 34.6796 85.3354 34.1342 84.9991 33.7666C84.6628 33.3931 84.1962 33.2064 83.6002 33.2064ZM97.1311 41.2719H94.9795V37.3859H91.2518V41.2719H89.0994V31.6502H91.2518V35.6607H94.9795V31.6502H97.1311V41.2719ZM106.607 33.3665H103.498V41.2719H101.347V33.3665H98.2736V31.6502H106.607V33.3665ZM111.053 39.7246C111.59 39.7246 112.035 39.5675 112.39 39.2533C112.744 38.9391 112.933 38.5508 112.956 38.0884H114.984C114.961 38.6871 114.775 39.2474 114.427 39.7691C114.078 40.2848 113.606 40.6939 113.01 40.9962C112.414 41.2985 111.77 41.4497 111.079 41.4497C109.739 41.4497 108.676 41.014 107.891 40.1425C107.106 39.2711 106.713 38.0676 106.713 36.5322V36.3099C106.713 34.8456 107.103 33.6747 107.882 32.7973C108.662 31.914 109.725 31.4723 111.07 31.4723C112.21 31.4723 113.137 31.8073 113.851 32.4772C114.571 33.1412 114.949 34.0156 114.984 35.1005H112.956C112.933 34.5491 112.744 34.0957 112.39 33.74C112.041 33.3843 111.596 33.2064 111.053 33.2064C110.356 33.2064 109.819 33.4613 109.441 33.9712C109.063 34.4751 108.871 35.2428 108.866 36.2743V36.6211C108.866 37.6645 109.051 38.4441 109.423 38.9598C109.801 39.4697 110.345 39.7246 111.053 39.7246ZM123.787 33.3665H120.679V41.2719H118.527V33.3665H115.454V31.6502H123.787V33.3665ZM125.027 41.2719V31.6502H128.915C130.225 31.6502 131.223 31.8814 131.908 32.3438C132.592 32.8003 132.935 33.4583 132.935 34.3179C132.935 34.7626 132.796 35.1627 132.519 35.5184C132.247 35.8682 131.843 36.138 131.305 36.3276C131.931 36.4581 132.427 36.7219 132.793 37.1191C133.159 37.5163 133.342 37.9847 133.342 38.5241C133.342 39.4193 133.012 40.101 132.351 40.5694C131.695 41.0377 130.751 41.2719 129.516 41.2719H125.027ZM127.179 37.1725V39.5645H129.535C130.638 39.5645 131.19 39.1673 131.19 38.3729C131.19 37.5726 130.629 37.1725 129.507 37.1725H127.179ZM127.179 35.6251H128.95C130.172 35.6251 130.783 35.2636 130.783 34.5403C130.783 33.7814 130.205 33.3901 129.047 33.3665H127.179V35.6251ZM134.44 36.3722C134.44 35.4295 134.627 34.5818 134.998 33.8289C135.37 33.07 135.893 32.4891 136.565 32.0859C137.239 31.6769 138.012 31.4723 138.886 31.4723C140.179 31.4723 141.226 31.8903 142.029 32.7262C142.838 33.5621 143.275 34.6707 143.34 36.052L143.349 36.5588C143.349 37.5074 143.166 38.3552 142.8 39.1021C142.44 39.849 141.92 40.4271 141.241 40.8361C140.569 41.2452 139.79 41.4497 138.903 41.4497C137.551 41.4497 136.468 40.9992 135.654 40.0981C134.845 39.191 134.44 37.9847 134.44 36.4789V36.3722ZM136.593 36.5588C136.593 37.5489 136.796 38.3255 137.204 38.8887C137.611 39.446 138.178 39.7246 138.903 39.7246C139.63 39.7246 140.193 39.44 140.595 38.8709C141.002 38.3018 141.206 37.4688 141.206 36.3722C141.206 35.3999 140.996 34.6292 140.578 34.0601C140.164 33.491 139.6 33.2064 138.886 33.2064C138.184 33.2064 137.626 33.488 137.213 34.0511C136.799 34.6084 136.593 35.4443 136.593 36.5588ZM157.084 41.2719H154.933V33.3931H151.195V41.2719H149.044V31.6502H157.084V41.2719ZM158.608 36.3722C158.608 35.4295 158.794 34.5818 159.166 33.8289C159.538 33.07 160.06 32.4891 160.733 32.0859C161.406 31.6769 162.18 31.4723 163.054 31.4723C164.346 31.4723 165.394 31.8903 166.197 32.7262C167.005 33.5621 167.442 34.6707 167.507 36.052L167.517 36.5588C167.517 37.5074 167.334 38.3552 166.968 39.1021C166.607 39.849 166.088 40.4271 165.409 40.8361C164.736 41.2452 163.956 41.4497 163.071 41.4497C161.719 41.4497 160.636 40.9992 159.821 40.0981C159.013 39.191 158.608 37.9847 158.608 36.4789V36.3722ZM160.759 36.5588C160.759 37.5489 160.963 38.3255 161.371 38.8887C161.778 39.446 162.345 39.7246 163.071 39.7246C163.797 39.7246 164.361 39.44 164.762 38.8709C165.17 38.3018 165.373 37.4688 165.373 36.3722C165.373 35.3999 165.164 34.6292 164.744 34.0601C164.331 33.491 163.767 33.2064 163.054 33.2064C162.35 33.2064 161.793 33.488 161.379 34.0511C160.966 34.6084 160.759 35.4443 160.759 36.5588ZM180.667 33.3665H177.559V41.2719H175.407V33.3665H172.334V31.6502H180.667V33.3665ZM185.201 38.1773L187.149 31.6502H189.443L185.635 42.7303C185.05 44.3487 184.059 45.1579 182.66 45.1579C182.347 45.1579 182.002 45.1046 181.624 44.9979V43.326L182.031 43.3528C182.574 43.3528 182.981 43.2519 183.253 43.0504C183.53 42.8548 183.749 42.5228 183.909 42.0544L184.219 41.2274L180.854 31.6502H183.173L185.201 38.1773ZM198.715 36.5588C198.715 38.0469 198.379 39.2355 197.705 40.1248C197.032 41.0081 196.129 41.4497 194.995 41.4497C193.945 41.4497 193.104 41.1029 192.472 40.4093V44.9712H190.321V31.6502H192.304L192.392 32.6284C193.024 31.8577 193.883 31.4723 194.969 31.4723C196.138 31.4723 197.053 31.9111 197.714 32.7885C198.381 33.6599 198.715 34.8722 198.715 36.4255V36.5588ZM196.572 36.3722C196.572 35.4117 196.38 34.65 195.996 34.0867C195.619 33.5236 195.075 33.2419 194.367 33.2419C193.488 33.2419 192.855 33.6065 192.472 34.3357V38.6041C192.862 39.3511 193.499 39.7246 194.385 39.7246C195.07 39.7246 195.604 39.449 195.988 38.8976C196.377 38.3404 196.572 37.4985 196.572 36.3722ZM206.163 31.6502H208.305V41.2719H206.163V34.8515L202.408 41.2719H200.265V31.6502H202.408V38.0706L206.163 31.6502ZM217.489 34.2823C217.489 34.7093 217.359 35.1035 217.1 35.4651C216.846 35.8207 216.485 36.1054 216.019 36.3188C217.117 36.7041 217.666 37.4481 217.666 38.5508C217.666 39.4341 217.309 40.1396 216.594 40.6672C215.88 41.1889 214.924 41.4497 213.725 41.4497C212.993 41.4497 212.327 41.3282 211.724 41.0851C211.122 40.8361 210.652 40.4864 210.316 40.0358C209.98 39.5793 209.811 39.0399 209.811 38.4174H211.955C211.955 38.8087 212.129 39.1377 212.477 39.4044C212.825 39.6653 213.265 39.7957 213.796 39.7957C214.322 39.7957 214.738 39.6742 215.045 39.4312C215.358 39.1822 215.514 38.8591 215.514 38.4619C215.514 37.9935 215.378 37.6556 215.107 37.4481C214.835 37.2406 214.416 37.1369 213.849 37.1369H212.308V35.5807H213.903C214.865 35.5688 215.346 35.1717 215.346 34.3891C215.346 33.9978 215.208 33.6925 214.93 33.4732C214.652 33.2538 214.271 33.1441 213.787 33.1441C213.315 33.1441 212.917 33.2627 212.592 33.4998C212.267 33.731 212.105 34.0245 212.105 34.3802H209.962C209.962 33.5324 210.316 32.8388 211.025 32.2993C211.733 31.754 212.633 31.4813 213.725 31.4813C214.912 31.4813 215.836 31.7243 216.497 32.2104C217.158 32.6966 217.489 33.3872 217.489 34.2823ZM224.821 38.613L227.655 31.6502H230.347V41.2719H228.195V34.9049L225.557 41.2719H224.096L221.448 34.8693V41.2719H219.296V31.6502H222.005L224.821 38.613ZM235.758 38.1773L237.707 31.6502H240L236.192 42.7303C235.608 44.3487 234.616 45.1579 233.216 45.1579C232.904 45.1579 232.559 45.1046 232.181 44.9979V43.326L232.588 43.3528C233.132 43.3528 233.539 43.2519 233.81 43.0504C234.088 42.8548 234.306 42.5228 234.465 42.0544L234.775 41.2274L231.41 31.6502H233.73L235.758 38.1773Z" fill="#2A3338"/>
<path fill-rule="evenodd" clip-rule="evenodd" d="M35.482 17.4616C34.6719 16.7521 33.5069 16.7684 32.8383 16.9744C33.2763 16.4373 34.2961 15.9968 34.5968 15.9435C34.8256 16.0292 35.482 16.703 35.482 17.4616ZM38.0685 14.5238C37.5358 11.677 30.9127 13.5632 27.5772 12.3541C27.5133 13.184 28.604 14.5136 29.6473 15.0058C27.8639 16.5519 26.2628 19.6669 25.9398 23.4726C25.6176 19.6669 24.0164 16.5519 22.233 15.0058C23.2763 14.5136 24.3679 13.184 24.3032 12.3541C20.9678 13.5632 14.3445 11.677 13.8108 14.5238C13.6986 15.1263 13.9888 16.0445 14.3023 16.3084C14.3583 16.1175 14.6512 15.4929 15.5744 15.3528C20.2406 14.6486 24.1365 21.8324 20.6198 24.737C20.5663 24.781 20.5964 24.8627 20.669 24.8627H31.2121C31.2839 24.8627 31.3141 24.781 31.2614 24.737C27.7438 21.8324 31.6397 14.6486 36.3059 15.3528C37.23 15.4929 37.5218 16.1175 37.578 16.3083C37.8915 16.0445 38.1817 15.1264 38.0685 14.5238ZM39.2034 7.98997C39.1197 7.72105 41.8556 7.71437 41.8556 9.42491C41.8556 10.5713 40.2191 11.1144 40.2191 12.3041C40.2191 12.8581 40.8159 13.2646 40.999 13.2646C40.5774 11.3545 42.3204 12.3541 42.791 12.7113C41.8557 10.1427 43.9613 10.1589 43.7541 8.98118C43.6098 8.15802 41.7797 8.40667 41.1173 7.98997C39.942 7.25097 38.5515 4.37519 37.6352 7.25097C39.3435 8.83523 38.3494 11.167 36.1808 11.167C36.1808 11.167 36.1687 11.5089 36.1885 11.536C38.7752 11.4096 39.6768 9.51071 39.2034 7.98997ZM9.0263 12.7113C9.49707 12.3541 11.2398 11.3545 10.8193 13.2646C11.0014 13.2646 11.5982 12.8581 11.5982 12.3041C11.5982 11.1144 9.96162 10.5713 9.96162 9.42491C9.96162 7.71429 12.6977 7.72105 12.6138 7.98997C12.1414 9.51063 13.0432 11.4097 15.6297 11.536C15.6487 11.5089 15.6366 11.167 15.6366 11.167C13.4688 11.167 12.4748 8.83515 14.1823 7.25097C13.2659 4.37519 11.8754 7.25097 10.7001 7.98997C10.0377 8.40675 8.20766 8.15802 8.06335 8.98118C7.85685 10.1589 9.96162 10.1428 9.0263 12.7113ZM16.3707 17.4615C17.1815 16.7521 18.3467 16.7683 19.0143 16.9744C18.5781 16.4372 17.5565 15.9968 17.2568 15.9434C17.0279 16.0291 16.3707 16.7029 16.3707 17.4615ZM27.1704 1.53669L25.9087 0L24.6469 1.53669L25.9088 3.15406L27.1704 1.53669ZM34.3732 6.18349L33.4758 5.09132L32.5794 6.18349L33.4758 7.25088L34.3732 6.18349ZM41.651 37.751L40.5136 36.5486L39.3761 37.751L40.5136 38.8058L41.651 37.751ZM19.2388 6.18332L18.3414 5.09115L17.4449 6.18332L18.3414 7.25079L19.2388 6.18332ZM16.6685 11.5359H20.0151C22.8289 11.5359 24.0949 9.81084 24.4775 8.3148H27.3406C27.7232 9.81093 28.9883 11.536 31.803 11.536H35.1496C35.1496 11.536 35.7349 10.7426 35.8818 10.3498C36.4104 8.93603 35.7349 8.27667 34.7496 8.27667L33.4758 9.42994L32.2018 8.27667C31.2165 8.27667 30.5411 8.93603 31.0697 10.3498C31.137 10.5306 31.2986 10.7961 31.4514 11.0294C30.2638 10.8664 28.7482 10.0545 28.4156 8.3148C28.4156 8.3148 29.2931 6.92241 29.5134 6.35899C30.3045 4.33281 29.294 3.50445 27.8164 3.50445L25.9086 5.7447L24.0009 3.50445C22.5232 3.50445 21.5128 4.33273 22.3047 6.35899C22.5242 6.9225 23.4025 8.31489 23.4025 8.31489C23.0691 10.0545 21.5534 10.8665 20.3659 11.0295C20.5197 10.7962 20.6803 10.5306 20.7477 10.3498C21.2753 8.93611 20.6017 8.27675 19.6153 8.27675L18.3416 9.43003L17.0677 8.27675C16.0815 8.27675 15.4078 8.93611 15.9356 10.3498C16.0824 10.7427 16.6685 11.5359 16.6685 11.5359ZM51.2684 21.8984C50.6222 22.2251 46.8327 23.9986 41.9782 23.3426C42.0285 23.1113 42.0711 22.8784 42.1061 22.6443C45.3369 22.2582 47.9633 21.7109 49.6369 20.7808C51.5448 19.7202 52.379 17.1882 51.416 15.3044C51.3911 15.2569 51.322 15.2484 51.2875 15.2882C50.7598 15.8949 47.4416 19.5004 42.2141 20.6213C42.2007 20.3509 42.1759 20.0811 42.1398 19.8127C44.6788 18.3743 47.1576 16.717 48.3382 15.2017C50.1225 12.9105 49.9583 9.98816 48.2604 8.4981C48.2428 8.48293 48.2196 8.47617 48.1965 8.47947C48.1736 8.48267 48.1531 8.49567 48.1403 8.51509C47.6032 9.40004 42.5752 17.5181 37.0548 21.0226C36.9875 21.0656 36.9195 21.1078 36.8511 21.1491C36.693 21.2449 36.6757 21.4503 36.8105 21.5725C37.4468 22.1486 37.8425 22.9505 37.8425 23.8407C37.8425 25.3884 36.6481 26.6756 35.0693 26.9548C34.2669 27.11 33.1087 27.065 31.9964 26.6978C31.9463 26.6815 31.8945 26.7146 31.8945 26.7647V31.6669C31.8945 31.7457 32.0147 31.7652 32.0431 31.6896C32.7192 29.9001 34.7436 29.5198 35.6289 29.5198C35.9476 31.4325 36.5166 33.0168 37.256 33.8696C38.4597 35.2552 40.4254 35.2358 41.2779 34.2777C41.2919 34.2618 41.298 34.2404 41.2943 34.2196C41.2905 34.1988 41.2775 34.1807 41.2588 34.1707C40.758 33.8832 37.8924 32.1259 37.3189 29.2458C37.5453 29.1678 37.7662 29.0794 37.9779 28.975C38.9029 30.5042 40.2493 31.8661 41.333 32.3863C43.1537 33.2587 44.8204 32.8344 45.5598 31.5573C45.5865 31.5123 45.5537 31.4563 45.4992 31.4512C44.3731 31.3613 40.9169 30.3718 39.4451 27.9612C39.6137 27.8066 39.7786 27.6454 39.9323 27.474C41.4721 28.645 43.6495 29.6802 45.2083 29.8915C47.0323 30.1393 49.0989 29.558 49.1491 27.4392C49.1499 27.3967 49.112 27.362 49.0672 27.3647C48.4184 27.4036 44.1253 27.5902 41.0663 25.8363C41.1726 25.6344 41.2716 25.429 41.3633 25.2202C41.3633 25.2202 45.9856 26.3116 48.1757 25.9499C50.3522 25.5911 51.6269 23.9704 51.3807 21.9543C51.3738 21.904 51.315 21.8747 51.2684 21.8984ZM10.4538 25.2204C10.5458 25.4292 10.6452 25.6347 10.7517 25.8365C7.69363 27.5896 3.40222 27.4046 2.75112 27.3649C2.70535 27.3622 2.66735 27.3987 2.66813 27.4403C2.71925 29.5583 4.78507 30.1395 6.6089 29.8918C8.16707 29.6805 10.3452 28.6452 11.8849 27.4743C12.0395 27.6456 12.2037 27.8068 12.3719 27.9613C10.8995 30.3718 7.44412 31.3614 6.31794 31.4513C6.26353 31.4564 6.23158 31.5123 6.25757 31.5574C6.99684 32.8344 8.66366 33.2587 10.4851 32.3864C11.5682 31.8662 12.9145 30.5043 13.8395 28.9753C14.0518 29.0795 14.2729 29.1678 14.4983 29.2459C13.9248 32.1259 11.0594 33.8833 10.5584 34.1708C10.5399 34.181 10.527 34.199 10.5233 34.2197C10.5196 34.2405 10.5255 34.2618 10.5394 34.2778C11.3918 35.2358 13.3584 35.2553 14.5621 33.8697C15.3016 33.0168 15.8698 31.4326 16.1884 29.52C17.0744 29.52 19.0979 29.9003 19.7742 31.6897C19.8035 31.7652 19.9235 31.7457 19.9235 31.6669V26.7647C19.9235 26.7147 19.8709 26.6816 19.8208 26.6978C18.7085 27.065 17.5504 27.1101 16.7489 26.9548C15.1693 26.6757 13.9749 25.3885 13.9749 23.8407C13.9749 22.9505 14.3713 22.1478 15.0069 21.5716C15.1425 21.4502 15.1244 21.2449 14.9672 21.149C14.8982 21.1077 14.8296 21.0655 14.7616 21.0225C9.24472 17.5198 4.21922 9.40767 3.67772 8.51665C3.65259 8.47505 3.59213 8.46664 3.555 8.49879C1.85968 9.98972 1.69472 12.9112 3.47899 15.2015C4.65967 16.7169 7.13814 18.3742 9.67645 19.8125C9.64069 20.0809 9.61617 20.3506 9.60313 20.621C4.37985 19.501 1.06435 15.9013 0.531404 15.2905C0.496081 15.2489 0.425091 15.2574 0.400996 15.3049C-0.560059 17.1896 0.274127 19.72 2.18026 20.7807C3.85399 21.7106 6.48022 22.2579 9.71117 22.644C9.74606 22.8782 9.78863 23.1111 9.8389 23.3424C4.98958 23.9975 1.20167 22.2284 0.550491 21.899C0.502127 21.8744 0.443399 21.905 0.437354 21.9559C0.192254 23.9721 1.46594 25.5911 3.64231 25.9499C5.83163 26.3116 10.4538 25.2204 10.4538 25.2204ZM40.5135 40.3543L38.8294 39.0306C38.1575 39.4303 37.6635 40.0651 37.4718 40.8093C36.4588 40.951 33.6968 40.3383 33.9653 39.9319C36.9924 35.6789 34.6769 33.1469 31.8944 33.2877V36.1441C31.8944 37.0613 31.0929 37.8046 30.1058 37.8046H28.1843C26.8059 37.8046 25.9086 39.1886 25.9086 39.1886C25.9086 39.1886 25.0113 37.8046 23.633 37.8046H21.7114C20.7236 37.8046 19.9238 37.0613 19.9238 36.1441V33.2878C17.1411 33.147 14.8239 35.6791 17.8519 39.932C18.1179 40.3342 15.2791 40.9783 13.9475 40.8153C13.5968 40.4521 13.0906 40.223 12.524 40.223C12.2832 40.2231 12.0443 40.2659 11.8184 40.3495C11.8184 40.3495 6.58575 35.4007 6.48989 35.3524L6.53307 35.2522C6.83103 34.6956 6.37503 34.0889 6.08666 34.1314C6.42166 33.7301 6.43729 31.9726 4.57875 31.5662C4.63307 31.9192 4.66071 32.6396 4.66071 32.6396C4.66071 32.6396 3.2263 31.8648 2.50594 32.5335C1.87298 33.282 2.75138 34.6396 2.75138 34.6396C2.75138 34.6396 2.0172 34.6574 1.65543 34.6269C2.18743 36.4241 3.9717 36.2968 4.35774 35.9421C4.33261 36.2281 4.97792 36.6354 5.52452 36.3087L5.76461 36.1924C5.80693 36.2492 10.9032 41.0589 10.9032 41.0589C10.6692 41.406 10.5578 41.8319 10.6346 42.2859C10.7556 42.9953 11.3472 43.5834 12.1029 43.736C12.6366 43.843 13.1383 43.7395 13.5408 43.5043L14.8898 44.7552C15.0099 44.8639 15.1723 44.9316 15.3536 44.919C15.6835 44.8969 15.9305 44.6295 15.9055 44.3233C15.8951 44.1849 15.8243 44.0663 15.7267 43.9762C15.7051 43.9524 14.3526 42.6982 14.3526 42.6982C15.4683 41.9167 17.5471 41.3661 19.2727 41.3661C19.5758 41.3661 19.7182 41.1099 19.6138 40.8586C18.8321 38.9808 20.5128 37.6206 22.2513 38.728C23.0097 39.2108 23.7801 40.162 24.3604 41.7487C21.5077 42.4388 17.9263 44.3393 17.2017 46.4141C16.9228 47.2152 17.8443 48.3072 18.9636 48.5271C18.9833 48.5314 19.0041 48.5277 19.0212 48.5167C19.0382 48.5057 19.0501 48.4883 19.0542 48.4684C19.6389 45.3712 22.9734 43.063 24.7085 42.671C24.7957 42.9043 24.7671 42.8288 24.8544 43.0614C22.9648 43.954 21.1322 45.837 20.6088 48.0754C20.3687 49.1005 21.513 50.0245 22.4578 50.2775C22.5052 50.2901 22.552 50.257 22.5546 50.2113C22.7342 47.3805 23.9856 44.9765 25.1065 43.8828C25.1372 44.0965 25.1603 44.3114 25.1757 44.5268C25.1757 44.5268 24.0279 47.7216 24.0279 50.0526C24.0279 51.137 25.6412 51.8939 25.8796 52C26.1774 51.8939 27.7899 51.137 27.7899 50.0526C27.7899 47.7215 26.6422 44.5268 26.6422 44.5268C26.6578 44.3114 26.6811 44.0965 26.7121 43.8828C27.8322 44.9765 29.0844 47.3796 29.2633 50.2103C29.2659 50.2562 29.3134 50.2902 29.3598 50.2774C30.3056 50.0246 31.4492 49.1006 31.2098 48.0756C30.6855 45.837 28.8538 43.9542 26.9641 43.0616C27.0505 42.8289 27.0221 42.9044 27.1093 42.6711C28.8453 43.0631 32.1788 45.3711 32.7635 48.4683C32.7677 48.4882 32.7797 48.5055 32.7968 48.5165C32.8138 48.5275 32.8345 48.5313 32.8543 48.527C33.9726 48.3072 34.8958 47.2151 34.6152 46.4142C33.8924 44.3394 30.3099 42.4388 27.4574 41.7488C28.0386 40.162 28.8089 39.2109 29.5672 38.728C31.3048 37.6207 32.9855 38.9809 32.2039 40.8588C32.0993 41.1099 32.2409 41.3661 32.545 41.3661C34.4967 41.3661 36.901 42.0704 37.8527 43.0149C38.4608 43.9262 39.5843 44.5092 40.8522 44.3843C42.2927 44.2436 43.4673 43.1624 43.6297 41.8261C43.7713 40.6551 43.1651 39.6036 42.1987 39.0309L40.5135 40.3543ZM28.1004 31.8238C28.7007 31.6016 29.6412 31.7815 29.6093 32.647C29.6015 32.8429 29.8771 32.8429 29.8969 32.6427C30.0765 31.347 29.1999 30.9735 28.2827 31.1255C28.1688 30.6799 28.0755 30.2905 27.9693 29.9044C27.8847 29.5922 27.8535 29.0058 28.2154 29.0058C28.4107 29.0058 28.3321 29.5514 28.314 29.7864C28.2975 29.9926 28.3718 30.1174 28.5394 30.1233C28.644 30.1275 28.7744 29.9944 28.8521 29.906C29.3772 29.3129 29.499 28.3949 28.8841 27.952C28.3694 27.5802 27.0808 27.8568 26.7266 28.3863C26.6732 28.1869 26.4175 27.8577 26.2947 27.7142C26.1757 27.5743 26.1446 27.4784 26.3096 27.3554C26.3873 27.2959 26.6222 27.0627 26.6222 26.8216C26.6222 26.6791 26.5117 26.416 26.1602 26.416C25.8829 26.416 25.5746 26.6078 25.5746 27.0354C25.5746 27.1306 25.5979 27.2325 25.6592 27.3419C25.4838 27.313 25.0081 27.3249 24.7637 27.3851L28.1431 36.6487C29.1103 36.1718 29.8194 35.4167 29.8194 34.6063C29.8194 33.9155 28.801 34.1447 28.3062 34.6836C28.1473 33.8079 28.0057 32.9992 27.8511 32.1929C27.8089 31.9706 27.9217 31.8908 28.1004 31.8238ZM23.322 25.5311L24.0319 27.5014C23.424 27.6457 22.4464 28.0886 22.4464 28.6749C22.4464 29.4557 23.829 29.9639 24.6288 29.9028C24.5889 30.081 24.6348 30.2396 24.7592 30.3847C24.469 30.3847 23.9215 30.5197 23.7418 30.7131C23.3178 30.3185 22.6545 30.1751 22.3392 30.4153C22.0223 30.6571 22.0129 31.067 22.3436 31.5303C22.5741 31.851 22.6605 32.1676 22.4014 32.5392C23.3653 32.5392 23.0102 31.2876 23.3877 31.2876C23.3385 31.5303 23.3687 31.8112 23.4784 32.1226C23.551 32.3296 23.551 32.4764 23.4267 32.6758C23.1158 33.1723 22.6321 34.3126 22.6978 35.3437C22.3817 35.3419 22.221 35.2647 22.3324 34.8337C22.3739 34.6732 22.2746 34.5587 22.1434 34.7565C21.9982 34.9745 21.9283 35.347 21.9283 35.5064C21.9283 36.4246 23.0233 36.6096 23.4413 36.4153C24.6504 37.5841 27.0254 37.2724 27.8208 36.8803L23.6391 25.4189C23.5536 25.2026 23.2469 25.3062 23.322 25.5311ZM23.1769 34.972C23.0905 34.5001 23.7478 33.6567 24.5838 32.843C24.4059 33.3733 24.5164 34.2872 24.8653 34.602C24.2589 34.602 23.5387 34.7157 23.1769 34.972Z" fill="#2A3338"/>
</svg>
