<svg width="188" height="52" viewBox="0 0 188 52" fill="none" xmlns="http://www.w3.org/2000/svg">
<path fill-rule="evenodd" clip-rule="evenodd" d="M35.4511 17.4616C34.6417 16.7521 33.4777 16.7684 32.8097 16.9744C33.2473 16.4373 34.2663 15.9968 34.5666 15.9435C34.7953 16.0292 35.451 16.7029 35.451 17.4615L35.4511 17.4616ZM38.0353 14.5238C37.5031 11.677 30.8857 13.5632 27.5532 12.3541C27.4893 13.184 28.5791 14.5136 29.6215 15.0058C27.8397 16.5519 26.2399 19.6669 25.9172 23.4726C25.5953 19.6669 23.9955 16.5519 22.2137 15.0058C23.256 14.5136 24.3467 13.184 24.282 12.3541C20.9495 13.5632 14.332 11.677 13.7988 14.5238C13.6866 15.1263 13.9766 16.0445 14.2899 16.3084C14.3458 16.1175 14.6384 15.4929 15.5608 15.3528C20.223 14.6486 24.1155 21.8324 20.6019 24.737C20.5484 24.781 20.5784 24.8627 20.651 24.8627H31.1849C31.2566 24.8627 31.2868 24.781 31.2342 24.737C27.7196 21.8324 31.6121 14.6486 36.2743 15.3528C37.1976 15.4929 37.4891 16.1175 37.5453 16.3083C37.8585 16.0445 38.1485 15.1263 38.0353 14.5237V14.5238ZM39.1693 7.98997C39.0856 7.72105 41.8192 7.71437 41.8192 9.42491C41.8192 10.5713 40.1841 11.1144 40.1841 12.3041C40.1841 12.8581 40.7803 13.2646 40.9633 13.2646C40.5421 11.3545 42.2836 12.3541 42.7538 12.7113C41.8193 10.1427 43.923 10.1589 43.716 8.98118C43.5718 8.15802 41.7433 8.40667 41.0815 7.98997C39.9072 7.25097 38.5179 4.37519 37.6024 7.25097C39.3092 8.83523 38.316 11.167 36.1493 11.167C36.1493 11.167 36.1372 11.5089 36.157 11.536C38.7414 11.4096 39.6423 9.51071 39.1693 7.98997H39.1693ZM9.01844 12.7113C9.4888 12.3541 11.23 11.3545 10.8099 13.2646C10.9919 13.2646 11.5881 12.8581 11.5881 12.3041C11.5881 11.1144 9.95294 10.5713 9.95294 9.42491C9.95294 7.71429 12.6866 7.72105 12.6029 7.98997C12.1309 9.51063 13.0319 11.4097 15.6161 11.536C15.635 11.5089 15.623 11.167 15.623 11.167C13.4571 11.167 12.4639 8.83515 14.1699 7.25097C13.2543 4.37519 11.8651 7.25097 10.6908 7.98997C10.029 8.40675 8.20051 8.15802 8.05632 8.98118C7.85001 10.1589 9.95286 10.1428 9.01836 12.7113H9.01844ZM16.3564 17.4615C17.1666 16.7521 18.3307 16.7683 18.9978 16.9744C18.5619 16.4372 17.5412 15.9968 17.2417 15.9434C17.0131 16.0291 16.3565 16.7028 16.3565 17.4614L16.3564 17.4615ZM27.1468 1.53669L25.8861 0L24.6254 1.53669L25.8862 3.15406L27.1469 1.53669H27.1468ZM34.3432 6.18349L33.4467 5.09132L32.551 6.18349L33.4467 7.25088L34.3432 6.18341V6.18349ZM41.6147 37.751L40.4783 36.5486L39.3418 37.751L40.4783 38.8058L41.6147 37.7509V37.751ZM19.222 6.18332L18.3254 5.09115L17.4298 6.18332L18.3254 7.25079L19.222 6.18332H19.222ZM16.654 11.5359H19.9977C22.809 11.5359 24.074 9.81084 24.4562 8.3148H27.3168C27.699 9.81093 28.9631 11.536 31.7753 11.536H35.119C35.119 11.536 35.7038 10.7426 35.8505 10.3498C36.3787 8.93603 35.7038 8.27667 34.7194 8.27667L33.4466 9.42994L32.1738 8.27667C31.1893 8.27667 30.5145 8.93603 31.0426 10.3498C31.1099 10.5306 31.2714 10.7961 31.424 11.0294C30.2375 10.8664 28.7232 10.0545 28.3909 8.3148C28.3909 8.3148 29.2676 6.92241 29.4877 6.35899C30.2781 4.33281 29.2685 3.50445 27.7921 3.50445L25.886 5.7447L23.98 3.50445C22.5036 3.50445 21.494 4.33273 22.2853 6.35899C22.5045 6.9225 23.3821 8.31489 23.3821 8.31489C23.049 10.0545 21.5347 10.8665 20.3482 11.0295C20.5018 10.7962 20.6623 10.5306 20.7296 10.3498C21.2567 8.93611 20.5838 8.27675 19.5983 8.27675L18.3256 9.43003L17.0528 8.27675C16.0675 8.27675 15.3944 8.93611 15.9217 10.3498C16.0684 10.7427 16.6543 11.536 16.6543 11.536L16.654 11.5359ZM51.2237 21.8984C50.5781 22.2251 46.7919 23.9986 41.9416 23.3426C41.9919 23.1113 42.0345 22.8784 42.0694 22.6443C45.2975 22.2582 47.9215 21.7109 49.5937 20.7808C51.4999 19.7202 52.3334 17.1882 51.3712 15.3044C51.3464 15.2569 51.2773 15.2484 51.2428 15.2882C50.7156 15.8949 47.4003 19.5004 42.1774 20.6213C42.164 20.3509 42.1392 20.0811 42.1031 19.8127C44.6399 18.3743 47.1165 16.717 48.2961 15.2017C50.0789 12.9105 49.9147 9.98816 48.2184 8.4981C48.2008 8.48293 48.1776 8.47617 48.1546 8.47947C48.1316 8.48267 48.1111 8.49567 48.0984 8.51509C47.5617 9.40004 42.5381 17.5181 37.0226 21.0226C36.9553 21.0656 36.8874 21.1078 36.819 21.1491C36.661 21.2449 36.6438 21.4503 36.7785 21.5725C37.4142 22.1486 37.8095 22.9505 37.8095 23.8407C37.8095 25.3884 36.6161 26.6756 35.0388 26.9548C34.2371 27.11 33.0799 27.065 31.9686 26.6978C31.9185 26.6815 31.8667 26.7146 31.8667 26.7647V31.6669C31.8667 31.7457 31.9868 31.7652 32.0152 31.6896C32.6907 29.9001 34.7133 29.5198 35.5979 29.5198C35.9163 31.4325 36.4848 33.0168 37.2235 33.8696C38.4262 35.2552 40.3902 35.2358 41.2419 34.2777C41.256 34.2618 41.262 34.2404 41.2583 34.2196C41.2546 34.1988 41.2416 34.1807 41.2228 34.1707C40.7225 33.8832 37.8594 32.1259 37.2864 29.2458C37.5126 29.1678 37.7333 29.0794 37.9448 28.975C38.869 30.5042 40.2142 31.8661 41.297 32.3863C43.1161 33.2587 44.7814 32.8344 45.5201 31.5573C45.5468 31.5123 45.514 31.4563 45.4596 31.4512C44.3345 31.3613 40.8812 30.3718 39.4108 27.9612C39.5792 27.8066 39.7439 27.6454 39.8975 27.474C41.436 28.645 43.6115 29.6802 45.169 29.8915C46.9913 30.1393 49.0562 29.558 49.1063 27.4392C49.1071 27.3967 49.0692 27.362 49.0244 27.3647C48.3762 27.4036 44.0868 27.5902 41.0305 25.8363C41.1367 25.6344 41.2357 25.429 41.3273 25.2202C41.3273 25.2202 45.9456 26.3116 48.1338 25.9499C50.3083 25.5911 51.5819 23.9704 51.3359 21.9543C51.3291 21.904 51.2704 21.8744 51.2238 21.8982L51.2237 21.8984ZM10.4447 25.2204C10.5366 25.4292 10.6359 25.6347 10.7423 25.8365C7.68692 27.5896 3.39925 27.4046 2.74873 27.3649C2.70299 27.3622 2.66503 27.3987 2.6658 27.4403C2.71689 29.5583 4.7809 30.1395 6.60314 29.8918C8.15996 29.6805 10.3362 28.6452 11.8746 27.4743C12.029 27.6456 12.1931 27.8068 12.3612 27.9613C10.89 30.3718 7.43764 31.3614 6.31244 31.4513C6.25808 31.4564 6.22615 31.5123 6.25212 31.5574C6.99075 32.8344 8.65612 33.2587 10.4759 32.3864C11.5581 31.8662 12.9032 30.5043 13.8275 28.9753C14.0396 29.0795 14.2605 29.1678 14.4857 29.2459C13.9127 32.1259 11.0498 33.8833 10.5492 34.1708C10.5307 34.181 10.5178 34.199 10.5142 34.2197C10.5105 34.2405 10.5163 34.2618 10.5302 34.2778C11.3819 35.2358 13.3468 35.2553 14.5494 33.8697C15.2882 33.0168 15.8559 31.4326 16.1743 29.52C17.0596 29.52 19.0813 29.9003 19.7569 31.6897C19.7863 31.7652 19.9061 31.7457 19.9061 31.6669V26.7647C19.9061 26.7147 19.8536 26.6816 19.8035 26.6978C18.6922 27.065 17.5351 27.1101 16.7344 26.9548C15.1561 26.6757 13.9628 25.3885 13.9628 23.8407C13.9628 22.9505 14.3587 22.1478 14.9938 21.5716C15.1293 21.4502 15.1112 21.2449 14.9541 21.149C14.8852 21.1077 14.8167 21.0655 14.7488 21.0225C9.23667 17.5198 4.21554 9.40767 3.67451 8.51665C3.6494 8.47505 3.589 8.46664 3.5519 8.49879C1.85806 9.98972 1.69325 12.9112 3.47596 15.2015C4.65561 16.7169 7.13192 18.3742 9.66802 19.8125C9.6323 20.0809 9.60779 20.3506 9.59476 20.621C4.37604 19.501 1.06343 15.9013 0.530941 15.2905C0.495649 15.2489 0.424721 15.2574 0.400646 15.3049C-0.559571 17.1896 0.273889 19.72 2.17836 20.7807C3.85063 21.7106 6.47457 22.2579 9.70271 22.644C9.73757 22.8782 9.78011 23.1111 9.83033 23.3424C4.98523 23.9975 1.20063 22.2284 0.550011 21.899C0.50169 21.8744 0.443013 21.905 0.436973 21.9559C0.192086 23.9721 1.46467 25.5911 3.63914 25.9499C5.82655 26.3116 10.4447 25.2202 10.4447 25.2202V25.2204ZM40.4782 40.3543L38.7956 39.0306C38.1243 39.4303 37.6307 40.0651 37.4392 40.8093C36.427 40.951 33.6674 40.3383 33.9357 39.9319C36.9602 35.6789 34.6467 33.1469 31.8666 33.2877V36.1441C31.8666 37.0613 31.0658 37.8046 30.0795 37.8046H28.1597C26.7825 37.8046 25.886 39.1886 25.886 39.1886C25.886 39.1886 24.9896 37.8046 23.6124 37.8046H21.6925C20.7055 37.8046 19.9064 37.0613 19.9064 36.1441V33.2878C17.1262 33.147 14.811 35.6791 17.8363 39.932C18.1021 40.3342 15.2658 40.9783 13.9353 40.8153C13.5849 40.4521 13.0792 40.223 12.5131 40.223C12.2725 40.2231 12.0338 40.2659 11.8081 40.3495C11.8081 40.3495 6.58002 35.4007 6.48424 35.3524L6.52738 35.2522C6.82508 34.6956 6.36947 34.0889 6.08136 34.1314C6.41607 33.7301 6.43169 31.9726 4.57476 31.5662C4.62904 31.9192 4.65665 32.6396 4.65665 32.6396C4.65665 32.6396 3.22348 31.8648 2.50375 32.5335C1.87135 33.282 2.74899 34.6396 2.74899 34.6396C2.74899 34.6396 2.01545 34.6574 1.65399 34.6269C2.18552 36.4241 3.96824 36.2968 4.35395 35.9421C4.32884 36.2281 4.97359 36.6354 5.5197 36.3087L5.75959 36.1924C5.80187 36.2492 10.8937 41.0589 10.8937 41.0589C10.6599 41.406 10.5486 41.8319 10.6253 42.2859C10.7462 42.9953 11.3374 43.5834 12.0924 43.736C12.6256 43.843 13.1269 43.7395 13.529 43.5043L14.8768 44.7552C14.9968 44.8639 15.1591 44.9316 15.3402 44.919C15.6698 44.8969 15.9166 44.6295 15.8917 44.3233C15.8812 44.1849 15.8105 44.0663 15.713 43.9762C15.6914 43.9524 14.3401 42.6982 14.3401 42.6982C15.4549 41.9167 17.5318 41.3661 19.2559 41.3661C19.5587 41.3661 19.701 41.1099 19.5967 40.8586C18.8157 38.9808 20.495 37.6206 22.232 38.728C22.9897 39.2108 23.7593 40.162 24.3392 41.7487C21.489 42.4388 17.9107 44.3393 17.1868 46.4141C16.9081 47.2152 17.8287 48.3072 18.947 48.5271C18.9668 48.5314 18.9875 48.5277 19.0046 48.5167C19.0216 48.5057 19.0335 48.4883 19.0376 48.4684C19.6218 45.3712 22.9534 43.063 24.6869 42.671C24.7741 42.9043 24.7455 42.8288 24.8328 43.0614C22.9448 43.954 21.1137 45.837 20.5908 48.0754C20.351 49.1005 21.4943 50.0245 22.4383 50.2775C22.4856 50.2901 22.5323 50.257 22.5349 50.2113C22.7144 47.3805 23.9647 44.9765 25.0847 43.8828C25.1153 44.0965 25.1384 44.3114 25.1538 44.5268C25.1538 44.5268 24.007 47.7216 24.007 50.0526C24.007 51.137 25.6189 51.8939 25.857 52C26.1546 51.8939 27.7657 51.137 27.7657 50.0526C27.7657 47.7215 26.6189 44.5268 26.6189 44.5268C26.6346 44.3114 26.6579 44.0965 26.6888 43.8828C27.808 44.9765 29.0591 47.3796 29.2378 50.2103C29.2404 50.2562 29.2878 50.2902 29.3343 50.2774C30.2792 50.0246 31.4218 49.1006 31.1827 48.0756C30.6588 45.837 28.8287 43.9542 26.9406 43.0616C27.0269 42.8289 26.9985 42.9044 27.0857 42.6711C28.8202 43.0631 32.1508 45.3711 32.735 48.4683C32.7392 48.4882 32.7511 48.5055 32.7682 48.5165C32.7852 48.5275 32.8059 48.5313 32.8257 48.527C33.943 48.3072 34.8654 47.2151 34.585 46.4142C33.8629 44.3394 30.2835 42.4388 27.4335 41.7488C28.0141 40.162 28.7838 39.2109 29.5414 38.728C31.2776 37.6207 32.9567 38.9809 32.1758 40.8588C32.0713 41.1099 32.2129 41.3661 32.5167 41.3661C34.4667 41.3661 36.8689 42.0704 37.8197 43.0149C38.4273 43.9262 39.5499 44.5092 40.8167 44.3843C42.2559 44.2436 43.4295 43.1624 43.5917 41.8261C43.7332 40.6551 43.1275 39.6036 42.1619 39.0309L40.4783 40.3547L40.4782 40.3543ZM28.0759 31.8238C28.6757 31.6016 29.6154 31.7815 29.5835 32.647C29.5757 32.8429 29.8511 32.8429 29.8708 32.6427C30.0503 31.347 29.1745 30.9735 28.2581 31.1255C28.1443 30.6799 28.0511 30.2905 27.9449 29.9044C27.8604 29.5922 27.8292 29.0058 28.1909 29.0058C28.386 29.0058 28.3074 29.5514 28.2893 29.7864C28.2728 29.9926 28.347 30.1174 28.5145 30.1233C28.619 30.1275 28.7493 29.9944 28.827 29.906C29.3516 29.3129 29.4733 28.3949 28.8589 27.952C28.3447 27.5802 27.0572 27.8568 26.7033 28.3863C26.6499 28.1869 26.3945 27.8577 26.2718 27.7142C26.1529 27.5743 26.1218 27.4784 26.2866 27.3554C26.3643 27.2959 26.599 27.0627 26.599 26.8216C26.599 26.6791 26.4886 26.416 26.1374 26.416C25.8604 26.416 25.5523 26.6078 25.5523 27.0354C25.5523 27.1306 25.5756 27.2325 25.6368 27.3419C25.4616 27.313 24.9863 27.3249 24.7421 27.3851L28.1186 36.6487C29.085 36.1718 29.7934 35.4167 29.7934 34.6063C29.7934 33.9155 28.7759 34.1447 28.2816 34.6836C28.1228 33.8079 27.9813 32.9992 27.8268 32.1929C27.7847 31.9706 27.8977 31.8909 28.0762 31.8239L28.0759 31.8238ZM23.3017 25.5311L24.011 27.5014C23.4036 27.6457 22.4268 28.0886 22.4268 28.6749C22.4268 29.4557 23.8083 29.9639 24.6073 29.9028C24.5675 30.081 24.6133 30.2396 24.7376 30.3847C24.4477 30.3847 23.9007 30.5197 23.7211 30.7131C23.2974 30.3185 22.6348 30.1751 22.3197 30.4153C22.0031 30.6571 21.9937 31.067 22.3241 31.5303C22.5544 31.851 22.6408 32.1676 22.3819 32.5392C23.3449 32.5392 22.9902 31.2876 23.3673 31.2876C23.3182 31.5303 23.3484 31.8112 23.4579 32.1226C23.5305 32.3296 23.5305 32.4764 23.4063 32.6758C23.0956 33.1723 22.6124 34.3126 22.678 35.3437C22.3622 35.3419 22.2017 35.2647 22.313 34.8337C22.3544 34.6732 22.2552 34.5587 22.1241 34.7565C21.979 34.9745 21.9092 35.347 21.9092 35.5064C21.9092 36.4246 23.0032 36.6096 23.4208 36.4153C24.629 37.5841 27.0019 37.2724 27.7966 36.8803L23.6185 25.4189C23.5331 25.2026 23.2269 25.3061 23.3018 25.531L23.3017 25.5311ZM23.1567 34.972C23.0704 34.5001 23.7271 33.6567 24.5623 32.843C24.3846 33.3733 24.495 34.2872 24.8437 34.602C24.2378 34.602 23.5183 34.7157 23.1568 34.972H23.1567Z" fill="#2A3338"/>
<path d="M71.2768 18.0892H65.845V23.8333H63.4995V10.2782H72.0733V12.1774H65.845V16.2085H71.2768V18.0892ZM77.5517 24.0195C76.1245 24.0195 74.9657 23.5695 74.076 22.6696C73.1924 21.7635 72.7506 20.5593 72.7506 19.0574V18.7781C72.7506 17.7726 72.9422 16.8757 73.3253 16.0875C73.7145 15.293 74.2581 14.6755 74.957 14.2348C75.6551 13.7941 76.4334 13.5738 77.2929 13.5738C78.658 13.5738 79.7115 14.0114 80.4536 14.8866C81.2009 15.7616 81.5754 16.9998 81.5754 18.6012V19.5135H75.0218C75.0899 20.3453 75.3643 21.0032 75.8467 21.4873C76.3351 21.9714 76.9469 22.2135 77.682 22.2135C78.714 22.2135 79.5545 21.7945 80.2034 20.9566L81.4175 22.1203C81.0154 22.7224 80.4778 23.191 79.8047 23.5261C79.1369 23.8551 78.3861 24.0195 77.5517 24.0195ZM77.2834 15.3892C76.6656 15.3892 76.1651 15.6065 75.782 16.041C75.4049 16.4754 75.1641 17.0805 75.0589 17.8564H79.35V17.6888C79.3008 16.9316 79.0998 16.3606 78.7477 15.9758C78.3956 15.5848 77.9072 15.3892 77.2834 15.3892ZM82.5297 18.7222C82.5297 17.1706 82.8887 15.9261 83.6057 14.9889C84.3219 14.0456 85.2832 13.5738 86.4878 13.5738C87.5508 13.5738 88.4103 13.9462 89.0652 14.691V9.53334H91.3173V23.8333H89.2783L89.167 22.7907C88.4931 23.6099 87.594 24.0195 86.4696 24.0195C85.2953 24.0195 84.3435 23.5447 83.6144 22.5951C82.8913 21.6455 82.5297 20.3545 82.5297 18.7222ZM84.7827 18.9177C84.7827 19.9418 84.9769 20.7425 85.3669 21.3197C85.7621 21.8907 86.3212 22.1762 87.0443 22.1762C87.965 22.1762 88.6389 21.7635 89.0652 20.938V16.6368C88.651 15.8299 87.9831 15.4265 87.0624 15.4265C86.3333 15.4265 85.7716 15.7182 85.3755 16.3017C84.9803 16.8789 84.7827 17.7509 84.7827 18.9177ZM97.7044 24.0195C96.2772 24.0195 95.1183 23.5695 94.2278 22.6696C93.3442 21.7635 92.9024 20.5593 92.9024 19.0574V18.7781C92.9024 17.7726 93.094 16.8757 93.4771 16.0875C93.8671 15.293 94.4108 14.6755 95.1088 14.2348C95.8069 13.7941 96.5861 13.5738 97.4447 13.5738C98.8106 13.5738 99.8642 14.0114 100.605 14.8866C101.354 15.7616 101.727 16.9998 101.727 18.6012V19.5135H95.1736C95.2417 20.3453 95.517 21.0032 95.9985 21.4873C96.4869 21.9714 97.0987 22.2135 97.8338 22.2135C98.8658 22.2135 99.7063 21.7945 100.355 20.9566L101.569 22.1203C101.168 22.7224 100.63 23.191 99.9565 23.5261C99.2895 23.8551 98.5388 24.0195 97.7044 24.0195ZM97.4352 15.3892C96.8173 15.3892 96.3169 15.6065 95.9338 16.041C95.5567 16.4754 95.3159 17.0805 95.2107 17.8564H99.5026V17.6888C99.4526 16.9316 99.2524 16.3606 98.9003 15.9758C98.5474 15.5848 98.0599 15.3892 97.4352 15.3892ZM108.355 15.8268C108.058 15.7772 107.753 15.7524 107.438 15.7524C106.406 15.7524 105.71 16.1496 105.352 16.944V23.8333H103.099V13.7601H105.249L105.306 14.8866C105.849 14.0114 106.603 13.5738 107.567 13.5738C107.888 13.5738 108.154 13.6172 108.364 13.7042L108.355 15.8268ZM115.112 23.8333C115.014 23.6409 114.928 23.3275 114.853 22.893C114.136 23.6441 113.259 24.0195 112.221 24.0195C111.214 24.0195 110.391 23.7309 109.755 23.1537C109.119 22.5765 108.8 21.8627 108.8 21.0124C108.8 19.9387 109.195 19.1163 109.987 18.5453C110.784 17.9681 111.921 17.6795 113.398 17.6795H114.779V17.0185C114.779 16.4972 114.633 16.0813 114.343 15.771C114.053 15.4544 113.611 15.2962 113.018 15.2962C112.505 15.2962 112.084 15.4265 111.757 15.6872C111.429 15.9416 111.265 16.2675 111.265 16.6647H109.013C109.013 16.1123 109.195 15.5971 109.56 15.1193C109.925 14.6351 110.419 14.2566 111.044 13.9835C111.674 13.7104 112.375 13.5738 113.147 13.5738C114.322 13.5738 115.258 13.8718 115.956 14.4676C116.654 15.0572 117.013 15.8889 117.031 16.9627V21.5059C117.031 22.412 117.158 23.1351 117.412 23.6751V23.8333H115.112ZM112.637 22.2041C113.083 22.2041 113.499 22.0955 113.89 21.8782C114.285 21.661 114.582 21.3693 114.779 21.0032V19.1039H113.565C112.731 19.1039 112.103 19.2498 111.683 19.5415C111.263 19.8332 111.052 20.2459 111.052 20.7797C111.052 21.2142 111.195 21.5617 111.479 21.8224C111.769 22.0769 112.156 22.2041 112.637 22.2041ZM121.407 23.8333H119.155V9.53334H121.407V23.8333ZM135.608 20.6773H130.38L129.287 23.8333H126.848L131.947 10.2782H134.051L139.158 23.8333H136.711L135.608 20.6773ZM131.038 18.7781H134.95L132.994 13.1549L131.038 18.7781ZM139.705 18.7222C139.705 17.1582 140.07 15.9106 140.799 14.9796C141.535 14.0424 142.508 13.5738 143.719 13.5738C144.862 13.5738 145.761 13.9741 146.417 14.7749L146.519 13.7601H148.548V23.5261C148.548 24.8481 148.137 25.8908 147.316 26.6543C146.5 27.4176 145.397 27.7994 144.007 27.7994C143.271 27.7994 142.551 27.6442 141.847 27.3339C141.148 27.0298 140.617 26.6294 140.252 26.1329L141.318 24.7737C142.01 25.5991 142.863 26.0119 143.876 26.0119C144.625 26.0119 145.215 25.807 145.647 25.3974C146.079 24.994 146.296 24.3981 146.296 23.6099V22.9303C145.647 23.6565 144.782 24.0195 143.7 24.0195C142.526 24.0195 141.566 23.551 140.818 22.6138C140.076 21.6766 139.705 20.3793 139.705 18.7222ZM141.949 18.9177C141.949 19.9294 142.152 20.7269 142.561 21.3104C142.975 21.8876 143.546 22.1762 144.275 22.1762C145.184 22.1762 145.857 21.7851 146.296 21.0032V16.5716C145.87 15.8082 145.202 15.4265 144.294 15.4265C143.552 15.4265 142.975 15.7213 142.561 16.3109C142.152 16.9006 141.949 17.7695 141.949 18.9177ZM154.908 24.0195C153.48 24.0195 152.322 23.5695 151.432 22.6696C150.547 21.7635 150.106 20.5593 150.106 19.0574V18.7781C150.106 17.7726 150.297 16.8757 150.68 16.0875C151.07 15.293 151.614 14.6755 152.312 14.2348C153.01 13.7941 153.789 13.5738 154.648 13.5738C156.014 13.5738 157.067 14.0114 157.809 14.8866C158.557 15.7616 158.93 16.9998 158.93 18.6012V19.5135H152.377C152.445 20.3453 152.72 21.0032 153.202 21.4873C153.69 21.9714 154.302 22.2135 155.037 22.2135C156.069 22.2135 156.909 21.7945 157.558 20.9566L158.772 22.1203C158.371 22.7224 157.834 23.191 157.16 23.5261C156.493 23.8551 155.742 24.0195 154.908 24.0195ZM154.638 15.3892C154.021 15.3892 153.52 15.6065 153.137 16.041C152.76 16.4754 152.519 17.0805 152.414 17.8564H156.706V17.6888C156.657 16.9316 156.456 16.3606 156.104 15.9758C155.751 15.5848 155.263 15.3892 154.638 15.3892ZM162.397 13.7601L162.462 14.9237C163.204 14.0238 164.177 13.5738 165.382 13.5738C167.471 13.5738 168.533 14.7749 168.57 17.1767V23.8333H166.318V17.3071C166.318 16.6678 166.179 16.1961 165.902 15.892C165.629 15.5816 165.181 15.4265 164.557 15.4265C163.649 15.4265 162.972 15.8392 162.527 16.6647V23.8333H160.275V13.7601H162.397ZM174.615 22.2135C175.177 22.2135 175.644 22.049 176.015 21.72C176.385 21.3911 176.583 20.9845 176.607 20.5004H178.73C178.705 21.1273 178.511 21.7138 178.146 22.26C177.782 22.7999 177.287 23.2282 176.663 23.5447C176.039 23.8612 175.366 24.0195 174.643 24.0195C173.24 24.0195 172.127 23.5634 171.306 22.6509C170.483 21.7386 170.073 20.4786 170.073 18.8712V18.6385C170.073 17.1054 170.481 15.8796 171.296 14.961C172.112 14.0362 173.224 13.5738 174.633 13.5738C175.826 13.5738 176.796 13.9245 177.544 14.6259C178.298 15.321 178.693 16.2365 178.73 17.3723H176.607C176.583 16.7951 176.385 16.3203 176.015 15.9479C175.65 15.5755 175.183 15.3892 174.615 15.3892C173.886 15.3892 173.323 15.6562 172.928 16.1899C172.532 16.7175 172.331 17.5212 172.325 18.6012V18.9642C172.325 20.0567 172.52 20.8728 172.909 21.4127C173.304 21.9465 173.873 22.2135 174.615 22.2135ZM183.56 20.5935L185.599 13.7601H188L184.014 25.3601C183.403 27.0546 182.364 27.9017 180.899 27.9017C180.572 27.9017 180.211 27.8459 179.815 27.7342V25.9839L180.242 26.0119C180.81 26.0119 181.237 25.9063 181.521 25.6953C181.811 25.4905 182.04 25.143 182.207 24.6526L182.531 23.7868L179.009 13.7601H181.437L183.56 20.5935ZM64.0743 42.9V34.5024H62.5448V32.8267H64.0743V31.905C64.0743 30.7878 64.3832 29.9251 65.0012 29.3168C65.6189 28.7086 66.4844 28.4045 67.5966 28.4045C67.9918 28.4045 68.4121 28.4604 68.8573 28.5721L68.8012 30.341C68.5544 30.2913 68.2671 30.2665 67.9392 30.2665C66.8641 30.2665 66.3265 30.822 66.3265 31.9329V32.8267H68.3655V34.5024H66.3265V42.9H64.0743ZM69.2094 37.7703C69.2094 36.7834 69.4044 35.8959 69.7935 35.1076C70.1827 34.3132 70.7298 33.7049 71.4348 33.2829C72.1389 32.8546 72.9482 32.6405 73.8629 32.6405C75.2159 32.6405 76.3135 33.0781 77.1539 33.9532C78.0004 34.8283 78.4578 35.9889 78.5251 37.4351L78.5346 37.9657C78.5346 38.9588 78.343 39.8464 77.9599 40.6284C77.5828 41.4104 77.0392 42.0156 76.3282 42.4438C75.6241 42.8721 74.8086 43.0862 73.8819 43.0862C72.4668 43.0862 71.3321 42.6145 70.4795 41.6711C69.633 40.7215 69.2094 39.4585 69.2094 37.882V37.7703ZM71.4624 37.9657C71.4624 39.0023 71.6755 39.8154 72.1018 40.405C72.528 40.9884 73.1217 41.2801 73.8819 41.2801C74.6412 41.2801 75.2314 40.9822 75.6517 40.3863C76.0779 39.7905 76.2911 38.9185 76.2911 37.7703C76.2911 36.7524 76.0719 35.9455 75.6335 35.3497C75.2004 34.7539 74.611 34.4559 73.8629 34.4559C73.1277 34.4559 72.5436 34.7507 72.1113 35.3403C71.6781 35.9238 71.4624 36.7989 71.4624 37.9657ZM85.3108 34.8935C85.014 34.8438 84.7085 34.819 84.3935 34.819C83.3615 34.819 82.6661 35.2162 82.308 36.0107V42.9H80.055V32.8267H82.2053L82.2614 33.9532C82.805 33.0781 83.5591 32.6405 84.523 32.6405C84.844 32.6405 85.1097 32.6839 85.3203 32.7708L85.3108 34.8935ZM100.114 31.244H95.9061V42.9H93.5798V31.244H89.4086V29.3448H100.114V31.244ZM98.9469 37.7703C98.9469 36.7834 99.142 35.8959 99.5311 35.1076C99.9203 34.3132 100.467 33.7049 101.171 33.2829C101.876 32.8546 102.686 32.6405 103.6 32.6405C104.953 32.6405 106.05 33.0781 106.891 33.9532C107.737 34.8283 108.194 35.9889 108.263 37.4351L108.272 37.9657C108.272 38.9588 108.081 39.8464 107.697 40.6284C107.32 41.4104 106.777 42.0156 106.066 42.4438C105.362 42.8721 104.545 43.0862 103.619 43.0862C102.203 43.0862 101.07 42.6145 100.217 41.6711C99.3706 40.7215 98.9469 39.4585 98.9469 37.882V37.7703ZM101.199 37.9657C101.199 39.0023 101.413 39.8154 101.839 40.405C102.266 40.9884 102.858 41.2801 103.619 41.2801C104.379 41.2801 104.969 40.9822 105.389 40.3863C105.816 39.7905 106.029 38.9185 106.029 37.7703C106.029 36.7524 105.809 35.9455 105.37 35.3497C104.938 34.7539 104.348 34.4559 103.6 34.4559C102.864 34.4559 102.281 34.7507 101.848 35.3403C101.416 35.9238 101.199 36.7989 101.199 37.9657ZM115.873 41.9131C115.212 42.6952 114.273 43.0862 113.055 43.0862C111.968 43.0862 111.143 42.7665 110.58 42.1273C110.024 41.488 109.746 40.5632 109.746 39.3529V32.8267H111.999V39.325C111.999 40.6036 112.527 41.2429 113.583 41.2429C114.677 41.2429 115.416 40.8487 115.799 40.0605V32.8267H118.051V42.9H115.929L115.873 41.9131ZM125.217 34.8935C124.921 34.8438 124.614 34.819 124.299 34.819C123.267 34.819 122.572 35.2162 122.214 36.0107V42.9H119.962V32.8267H122.112L122.167 33.9532C122.711 33.0781 123.465 32.6405 124.429 32.6405C124.751 32.6405 125.016 32.6839 125.226 32.7708L125.217 34.8935ZM128.656 42.9H126.404V32.8267H128.656V42.9ZM126.265 30.2106C126.265 29.8631 126.373 29.5744 126.589 29.3448C126.811 29.1152 127.127 29.0003 127.534 29.0003C127.942 29.0003 128.257 29.1152 128.48 29.3448C128.703 29.5744 128.814 29.8631 128.814 30.2106C128.814 30.552 128.703 30.8375 128.48 31.0671C128.257 31.2906 127.942 31.4023 127.534 31.4023C127.127 31.4023 126.811 31.2906 126.589 31.0671C126.373 30.8375 126.265 30.552 126.265 30.2106ZM136.359 40.1629C136.359 39.7595 136.192 39.4522 135.859 39.2412C135.532 39.0302 134.984 38.844 134.218 38.6826C133.452 38.5213 132.813 38.3165 132.299 38.0682C131.175 37.522 130.612 36.7306 130.612 35.6941C130.612 34.8252 130.977 34.0991 131.706 33.5156C132.435 32.9322 133.362 32.6405 134.487 32.6405C135.686 32.6405 136.652 32.9384 137.388 33.5343C138.13 34.1301 138.501 34.9028 138.501 35.8524H136.248C136.248 35.418 136.087 35.058 135.766 34.7725C135.444 34.4808 135.018 34.3349 134.487 34.3349C133.992 34.3349 133.587 34.4497 133.272 34.6793C132.964 34.909 132.809 35.2162 132.809 35.601C132.809 35.9486 132.954 36.2186 133.245 36.411C133.536 36.6034 134.122 36.7989 135.006 36.9976C135.89 37.19 136.582 37.4227 137.082 37.6958C137.589 37.9627 137.963 38.2854 138.204 38.664C138.451 39.0426 138.575 39.5019 138.575 40.0418C138.575 40.948 138.2 41.6836 137.453 42.2483C136.705 42.8069 135.726 43.0862 134.515 43.0862C133.693 43.0862 132.961 42.9373 132.318 42.6393C131.675 42.3414 131.175 41.9318 130.816 41.4104C130.458 40.8891 130.278 40.3274 130.278 39.7253H132.467C132.497 40.2591 132.698 40.6718 133.069 40.9635C133.44 41.2491 133.931 41.3918 134.543 41.3918C135.135 41.3918 135.587 41.2801 135.896 41.0566C136.205 40.827 136.359 40.5291 136.359 40.1629ZM142.283 32.8267L142.347 33.8787C143.052 33.0532 144.016 32.6405 145.24 32.6405C146.581 32.6405 147.498 33.1556 147.992 34.1859C148.722 33.1556 149.748 32.6405 151.07 32.6405C152.176 32.6405 152.998 32.9477 153.536 33.5622C154.079 34.1767 154.357 35.0828 154.37 36.2807V42.9H152.117V36.3458C152.117 35.7066 151.978 35.238 151.7 34.94C151.422 34.6421 150.962 34.4932 150.319 34.4932C149.806 34.4932 149.386 34.6328 149.059 34.9121C148.737 35.1852 148.512 35.5452 148.382 35.9921L148.391 42.9H146.139V36.2714C146.108 35.0859 145.506 34.4932 144.331 34.4932C143.429 34.4932 142.789 34.8625 142.412 35.601V42.9H140.16V32.8267H142.283Z" fill="#2A3338"/>
</svg>
