<svg width="166" height="42" viewBox="0 0 166 42" fill="none" xmlns="http://www.w3.org/2000/svg">
<path fill-rule="evenodd" clip-rule="evenodd" d="M31.7317 35.2873C31.6636 35.2873 31.5121 35.7827 31.668 36.1341C31.751 36.3212 31.9461 36.4003 32.1092 36.3478C32.2701 36.2963 32.3169 36.1492 32.3213 36.0346C32.3365 35.6495 31.9852 35.2873 31.7316 35.2873H31.7317ZM30.5621 29.6685L30.6133 30.2125L30.1249 30.1601V30.7796L30.6133 30.7273L30.5621 31.2956H31.2255L31.1742 30.7273L31.6625 30.7796V30.1602L31.1742 30.2126L31.2255 29.6685H30.5621ZM30.8947 31.8125C30.7626 31.8125 30.6555 31.9178 30.6555 32.0478C30.6555 32.1777 30.7626 32.2831 30.8947 32.2831C31.0268 32.2831 31.1338 32.1777 31.1338 32.0478C31.1338 31.9178 31.0267 31.8125 30.8947 31.8125ZM30.8947 32.7652C30.7626 32.7652 30.6555 32.8706 30.6555 33.0005C30.6555 33.1305 30.7626 33.2358 30.8947 33.2358C31.0268 33.2358 31.1338 33.1304 31.1338 33.0005C31.1338 32.8706 31.0267 32.7652 30.8947 32.7652ZM30.8947 33.7316C30.7626 33.7316 30.6555 33.8369 30.6555 33.9669C30.6555 34.097 30.7626 34.2023 30.8947 34.2023C31.0268 34.2023 31.1338 34.097 31.1338 33.9669C31.1338 33.8369 31.0267 33.7315 30.8947 33.7315V33.7316ZM31.6671 33.9669C31.6671 34.097 31.7742 34.2023 31.9063 34.2023C32.0384 34.2023 32.1454 34.097 32.1454 33.9669C32.1454 33.8369 32.0383 33.7315 31.9063 33.7315C31.7742 33.7315 31.667 33.8369 31.667 33.9668L31.6671 33.9669ZM32.6696 33.9669C32.6696 34.097 32.7768 34.2023 32.9089 34.2023C33.041 34.2023 33.1481 34.097 33.1481 33.9669C33.1481 33.8369 33.041 33.7315 32.9089 33.7315C32.7768 33.7315 32.6696 33.8369 32.6696 33.9668V33.9669ZM30.8947 35.0253C30.6899 35.0253 30.1848 36.0251 30.5613 36.5307C30.6334 36.6275 30.7595 36.6818 30.8947 36.6818C31.0297 36.6818 31.156 36.6274 31.228 36.5307C31.6046 36.0251 31.0994 35.0253 30.8947 35.0253ZM30.0577 35.2872C29.8041 35.2872 29.4529 35.6495 29.4679 36.0345C29.4723 36.1491 29.5192 36.2962 29.68 36.3478C29.8432 36.4002 30.0383 36.3212 30.1213 36.1341C30.2772 35.7827 30.1258 35.2872 30.0577 35.2872ZM29.6685 33.9668C29.6685 34.097 29.7754 34.2022 29.9076 34.2022C30.0398 34.2022 30.1469 34.0969 30.1469 33.9668C30.1469 33.8369 30.0398 33.7315 29.9076 33.7315C29.7754 33.7315 29.6684 33.8369 29.6684 33.9668H29.6685ZM28.6905 33.9668C28.6905 34.097 28.7975 34.2022 28.9296 34.2022C29.0617 34.2022 29.1689 34.0969 29.1689 33.9668C29.1689 33.8369 29.0618 33.7315 28.9296 33.7315C28.7975 33.7315 28.6905 33.8369 28.6905 33.9668ZM28.4546 33.9668C28.4546 33.7662 28.4907 33.5854 28.4907 33.5854H30.4784V33.4196L30.4785 32.0215L30.4784 32.0213V31.6239C29.5189 31.7857 28.7516 32.4985 28.5229 33.4193C28.4671 33.4959 28.2869 33.5351 28.1598 33.5214C27.4263 33.4348 25.9418 33.1771 25.9418 32.8725C25.9418 32.4448 26.2426 32.2735 26.5315 32.2735C26.9438 32.2735 27.3992 32.4885 27.7784 31.9598C26.4288 32.0193 27.4634 30.1412 26.3564 29.7848C26.4113 30.2644 26.3569 31.1081 26.1823 31.5541C26.1823 31.5541 25.7856 31.146 25.3402 30.9921C25.3736 31.3402 25.3059 32.0618 25.1442 32.3904C25.1442 32.3904 24.6726 31.9697 24.1834 31.8124C24.6347 32.4426 24.6192 33.3419 24.4977 33.889C24.4626 34.0473 24.585 34.2442 24.9292 34.2297C25.4675 34.2068 27.306 34.2849 28.1035 34.599C28.3514 34.6966 28.5637 34.8087 28.6675 34.9789C28.752 35.2082 28.961 35.5633 29.2183 35.7454C29.3338 35.3491 29.8261 34.9245 30.1469 34.9399C30.2426 34.9444 30.3486 35.0985 30.3705 35.2496C30.3988 35.1091 30.6355 34.7211 30.8946 34.7211C31.1338 34.7211 31.3637 35.0457 31.4434 35.3139C31.4675 35.1416 31.5732 34.9574 31.6691 34.9574C31.9912 34.9574 32.3962 35.2327 32.5489 35.6872C32.6725 35.5388 33.2401 34.8362 33.3042 34.3751H28.4906C28.4906 34.3751 28.4546 34.1757 28.4546 33.9669L28.4546 33.9668ZM31.3109 31.6242V33.5855H33.3003C33.1274 32.5855 32.3265 31.7962 31.3108 31.6242H31.3109ZM7.83407 33.2391C7.87585 33.2526 7.91809 33.243 7.95973 33.2217C7.82566 33.4015 7.83118 33.5198 7.88892 33.5753C7.97964 33.6618 8.04684 33.5028 8.27609 33.2683C8.50561 33.0342 8.66432 32.9628 8.57393 32.876C8.51566 32.8202 8.39493 32.8186 8.21467 32.9602C8.23458 32.9187 8.24226 32.8775 8.22775 32.8372C8.15187 32.6259 7.7988 32.3444 7.60416 32.3438C7.57605 32.3441 7.54832 32.3497 7.52244 32.3603C7.6081 32.228 7.58603 32.128 7.52868 32.0731C7.46562 32.0128 7.42956 32.055 7.35875 32.1423C7.3684 32.0813 7.35218 32.0099 7.29247 31.9228C7.00028 31.497 5.45501 30.0949 5.1041 29.954C4.89469 29.8697 4.82597 29.9864 4.82597 29.9864C4.82597 29.9864 4.71003 30.0583 4.80167 30.2629C4.95499 30.6052 6.43989 32.0692 6.87915 32.3447C6.96928 32.4011 7.0416 32.4148 7.10282 32.4035C7.01743 32.4755 6.9765 32.5127 7.03923 32.5727C7.09658 32.6276 7.19866 32.6462 7.32984 32.5571C7.31999 32.5831 7.31533 32.6107 7.31618 32.6383C7.32281 32.8305 7.61809 33.1707 7.83414 33.2391H7.83407ZM4.11975 29.0911C4.07397 29.0911 4.00893 29.1016 3.96111 29.1503C3.9127 29.1997 3.89562 29.2762 3.91329 29.3648C3.9326 29.4612 3.98969 29.559 4.07416 29.6401C4.17532 29.7371 4.30256 29.7951 4.4141 29.7951C4.46022 29.7951 4.52479 29.785 4.57268 29.7362C4.67706 29.6295 4.62549 29.4052 4.45982 29.2463C4.35834 29.1494 4.23142 29.0911 4.11975 29.0911V29.0911ZM8.92569 34.2956C8.92438 34.1475 8.63344 33.899 8.28844 33.899C7.776 33.899 7.55417 34.2124 7.55417 34.372C7.55417 34.6727 7.85529 34.7114 7.94758 34.7163C8.30828 34.7379 8.88982 34.3822 8.92569 34.2956ZM8.48426 35.0463C8.34809 35.2146 8.29712 35.3789 8.33232 35.5347C8.37522 35.7233 8.56854 35.808 8.7413 35.808C8.92333 35.808 9.0863 35.7251 9.17735 35.5861C9.3731 35.2884 9.38177 34.6288 9.31575 34.5566C9.15166 34.5566 8.71522 34.7611 8.48426 35.0463V35.0463ZM3.98699 28.179C3.84222 28.0402 3.54602 28.2471 3.36899 28.1508C3.44749 27.7268 3.75859 28.1718 4.05919 27.8652C4.17907 27.7427 4.11476 27.5516 4.04598 27.4939C3.91644 27.6206 3.71596 27.5766 3.70052 27.5063C4.04178 26.7282 3.3751 25.8608 2.7349 25.9696C2.86049 26.1317 2.89807 26.6954 2.84335 26.8477C3.08706 27.0166 2.91285 27.4144 2.64385 27.2989C2.46347 27.2279 2.14527 26.7928 2.51123 26.4862C2.50065 26.3757 2.29938 26.3489 2.0855 26.6151C2.24243 26.1264 1.28166 26.2796 1.0842 26.3969C0.971934 26.5956 0.84752 27.5504 1.33611 27.3799C1.07402 27.5999 1.10752 27.7979 1.21939 27.805C1.51761 27.4338 1.96686 27.735 2.04431 27.9111C2.16958 28.1737 1.77295 28.3579 1.5948 28.1223C1.44233 28.1814 0.871759 28.162 0.703858 28.0429C0.61439 28.6791 1.5115 29.3109 2.28703 28.9495C2.3585 28.9625 2.40921 29.1588 2.28545 29.2911C2.34602 29.3576 2.54092 29.415 2.66093 29.2925C2.96119 28.9859 2.5017 28.6921 2.92782 28.601C3.03063 28.7731 2.83107 29.0725 2.97571 29.2114C3.2074 29.4334 3.49847 29.0027 3.78434 28.9854C3.79269 28.7022 4.21868 28.4012 3.98706 28.179L3.98699 28.179ZM1.58547 27.1967C1.58547 27.1967 1.43563 27.094 1.61536 26.9059C1.79949 26.7221 1.90833 26.8673 1.90833 26.8673C1.90833 26.8673 2.07715 27.2299 2.12708 27.3967C1.95681 27.3526 1.58554 27.1967 1.58554 27.1967H1.58547ZM3.0686 28.2995C2.97558 28.3108 2.75526 28.5001 2.64477 28.3942L2.1391 27.9097L2.39187 27.6509L2.64569 27.3926L3.1509 27.8776C3.26139 27.9833 3.07714 28.2073 3.0686 28.2994V28.2995ZM11.4471 35.7251C11.4642 35.6526 11.4525 35.5943 11.4131 35.5566C11.4007 35.5447 11.3896 35.5381 11.3829 35.5381C11.3544 35.5381 11.2911 35.6136 11.23 35.6868C11.1791 35.7474 11.1157 35.823 11.0348 35.9052C10.9543 35.988 10.8797 36.0528 10.8199 36.1052C10.7489 36.1672 10.6753 36.2314 10.6745 36.2604C10.6745 36.2672 10.6817 36.2781 10.6946 36.2904C10.7208 36.3156 10.7558 36.3281 10.7984 36.3281C10.8633 36.3281 11.0042 36.296 11.2161 36.0793C11.3771 35.9154 11.4307 35.7962 11.4472 35.7251H11.4471ZM11.4502 36.3034C11.34 36.4162 11.228 36.4962 11.166 36.5372C11.21 36.5802 11.335 36.6563 11.4912 36.6563C11.5803 36.6563 11.6635 36.631 11.7396 36.581C11.8955 36.3331 11.7451 36.0796 11.6774 36.0151C11.6379 36.0778 11.5602 36.1911 11.4501 36.3033L11.4502 36.3034ZM9.74372 34.9247C9.66344 34.9972 9.47787 35.5004 9.5588 35.8069C9.59368 35.9381 9.66883 35.9943 9.79601 35.9876C9.92758 35.9796 9.99931 35.9136 10.0215 35.779C10.072 35.473 9.83121 34.9865 9.74365 34.9247L9.74372 34.9247ZM9.6421 33.5262C9.64669 33.5348 10.5941 34.3379 10.912 34.6287C10.9869 34.6973 11.0902 34.7131 11.1951 34.6617C11.2549 34.6322 11.3294 34.5983 11.4065 34.5642C12.3539 34.2416 13.9124 34.2052 14.484 34.2296C14.8282 34.2441 14.9497 34.0474 14.9154 33.8889C14.8035 33.3712 14.7785 32.4426 15.2298 31.8124C14.7406 31.9697 14.269 32.3903 14.269 32.3903C14.1072 32.0618 14.0395 31.3402 14.073 30.9921C13.6276 31.1459 13.2308 31.5541 13.2308 31.5541C13.0563 31.1081 13.0018 30.2645 13.0568 29.7849C11.9497 30.1412 12.9844 32.0193 11.6347 31.9598C12.0139 32.4886 12.4694 32.2736 12.8816 32.2736C13.1706 32.2736 13.5296 32.456 13.4714 32.8726C13.4292 33.1743 11.6183 33.55 10.8899 33.55C10.3809 33.55 10.04 33.3985 9.78451 33.058C9.6616 32.8944 9.53627 32.8203 9.39589 32.841C9.22169 32.8669 9.01792 33.0386 9.01792 33.4361C9.01792 33.7177 9.13603 34.3349 9.48681 34.3349C9.73327 34.3349 9.74418 33.8471 9.6421 33.5263V33.5262ZM10.8131 35.6928C10.9784 35.5237 11.0363 35.4005 10.9954 35.3044C10.9363 35.1657 10.5602 34.7622 10.0679 34.307C10.0532 34.4011 10.0312 34.4939 10.0022 34.5848C10.334 35.0072 10.458 35.4609 10.3462 35.8419C10.3866 35.8678 10.4117 35.8796 10.4264 35.8851C10.5537 35.9339 10.7128 35.7953 10.813 35.6928H10.8131ZM8.41733 33.3954C8.41489 33.3978 8.35361 33.456 8.314 33.5344C8.417 33.535 8.53695 33.552 8.64487 33.5801C8.63771 33.488 8.63062 33.3633 8.64001 33.2558C8.5489 33.2755 8.45109 33.3601 8.41733 33.3954ZM24.9662 36.2972C25.2781 36.1604 25.503 35.7894 25.5622 35.4264C25.3645 35.5196 25.1417 35.565 24.8848 35.565C24.178 35.565 23.2901 35.1874 22.4854 34.8451C22.4854 34.8451 22.3119 34.9854 22.0243 35.0147C22.8363 35.2545 24.432 36.1054 24.5492 36.6513C24.6276 37.0163 24.38 37.1557 24.38 37.1557C24.025 36.5991 23.11 35.7348 21.8888 35.3024C21.8913 35.5059 21.8507 35.6487 21.8507 35.6487C21.8507 35.6487 21.6029 35.7072 21.0765 35.6194C21.5367 35.9884 22.7457 37.2917 22.877 38.2806C22.9645 38.9407 22.4844 38.9713 22.4844 38.9713C22.4159 37.9783 21.8739 36.9508 20.8957 35.919C20.8957 35.919 20.7353 36.1607 20.5221 36.2827C20.5221 36.2827 20.1609 36.2211 19.861 36.0305C19.9765 37.3407 20.0447 39.0425 19.973 39.5576C19.923 39.9164 19.7067 40.0667 19.7067 40.0667C19.7067 40.0667 19.4897 39.9163 19.4396 39.5576C19.3681 39.0425 19.4361 37.3407 19.5516 36.0305C19.2519 36.2211 18.8905 36.2827 18.8905 36.2827C18.6774 36.1608 18.5171 35.9191 18.5171 35.9191C17.5388 36.9509 16.9968 37.9783 16.9283 38.9713C16.9283 38.9713 16.4482 38.9407 16.5358 38.2806C16.667 37.2917 17.876 35.9884 18.3362 35.6194C17.8099 35.7073 17.562 35.6487 17.562 35.6487C17.562 35.6487 17.5214 35.5059 17.5239 35.3025C16.3028 35.7348 15.388 36.5991 15.0328 37.1558C15.0328 37.1558 14.7852 37.0163 14.8637 36.6513C14.9808 36.1055 16.5764 35.2546 17.3885 35.0147C17.101 34.9854 16.9273 34.8451 16.9273 34.8451C16.1227 35.1875 15.2347 35.565 14.528 35.565C14.2711 35.565 14.0483 35.5196 13.8507 35.4264C13.9098 35.7894 14.1348 36.1604 14.4466 36.2972C13.3548 37.0354 14.029 38.7652 12.5648 38.4401C13.3812 39.8967 15.0328 40.043 15.0328 40.043C14.6669 39.2724 15.1231 36.9216 17.315 35.8535C15.9657 37.146 15.351 38.7131 15.709 39.8186C16.0374 40.8334 17.1052 41.2446 17.9091 41.2623C17.3406 39.5845 17.691 37.663 18.8707 36.4534C18.3652 37.78 17.6543 41.3207 19.7069 42C21.7592 41.3207 21.0478 37.78 20.5421 36.4534C21.7221 37.6629 22.0723 39.5845 21.5038 41.2623C22.3077 41.2446 23.3755 40.8334 23.704 39.8186C24.062 38.7131 23.4472 37.146 22.098 35.8535C24.29 36.9216 24.746 39.2724 24.3801 40.043C24.3801 40.043 26.0317 39.8967 26.8482 38.4401C25.3839 38.7652 26.0581 37.0354 24.9662 36.2972L24.9662 36.2972ZM19.881 7.11422C19.881 7.01024 19.7955 6.92553 19.6908 6.92553C19.5858 6.92553 19.5006 7.01024 19.5006 7.11422C19.5006 7.21845 19.5858 7.30322 19.6908 7.30322C19.7955 7.30322 19.881 7.21845 19.881 7.11422ZM20.8405 7.11422C20.8405 7.01024 20.7554 6.92553 20.6503 6.92553C20.5456 6.92553 20.4603 7.01024 20.4603 7.11422C20.4603 7.21845 20.5456 7.30322 20.6503 7.30322C20.7554 7.30322 20.8405 7.21845 20.8405 7.11422ZM19.3497 2.21658C19.3497 2.41124 19.5094 2.57021 19.7056 2.57021C19.9021 2.57021 20.0618 2.41124 20.0618 2.21658C20.0618 2.0216 19.9021 1.86282 19.7056 1.86282C19.5094 1.86282 19.3497 2.0216 19.3497 2.21652V2.21658ZM19.4642 1.46516H19.9489L19.8965 0.901471L20.423 0.955435V0.509599L19.8965 0.563372L19.9488 0H19.4642L19.5163 0.563372L18.99 0.509599V0.955435L19.5163 0.901471L19.4642 1.46516H19.4642ZM18.9214 7.11415C18.9214 7.01017 18.8359 6.92553 18.7311 6.92553C18.6263 6.92553 18.5409 7.01017 18.5409 7.11415C18.5409 7.21839 18.6263 7.30315 18.7311 7.30315C18.8359 7.30315 18.9214 7.21839 18.9214 7.11415ZM17.7791 7.81371C17.8306 7.83153 17.8901 7.84126 17.9604 7.84126H21.4529C21.5232 7.84126 21.5827 7.83153 21.634 7.81371C21.7467 7.77483 21.8153 7.69331 21.8419 7.56304H17.5712C17.5978 7.69331 17.6663 7.77476 17.7791 7.81377V7.81371ZM17.9712 7.11415C17.9712 7.01017 17.8859 6.92553 17.7809 6.92553C17.6761 6.92553 17.5906 7.01017 17.5906 7.11415C17.5906 7.21839 17.6761 7.30315 17.7808 7.30315C17.8858 7.30315 17.9711 7.21839 17.9711 7.11415H17.9712ZM21.7909 7.11415C21.7909 7.01017 21.7054 6.92553 21.6008 6.92553C21.4959 6.92553 21.4105 7.01017 21.4105 7.11415C21.4105 7.21839 21.4959 7.30315 21.6009 7.30315C21.7055 7.30315 21.7909 7.21839 21.7909 7.11415ZM22.0191 6.6666C22.1176 6.54894 22.6071 5.63754 22.6071 4.71748C22.6071 3.88939 21.5263 3.43356 20.8833 3.41275C20.8089 4.59562 20.3304 6.4524 19.7068 6.4524C19.1166 6.4524 18.6037 4.60631 18.5301 3.41269C17.8872 3.43362 16.8065 3.88945 16.8065 4.71755C16.8065 5.6376 17.2957 6.549 17.3943 6.6666H22.0192H22.0191ZM19.7068 5.86497C20.0005 5.86497 20.38 4.68694 20.477 3.57197C20.477 3.34625 20.1831 3.00096 19.7068 2.99199C19.2303 3.00096 18.9364 3.34625 18.9364 3.57197C19.0216 4.61172 19.4176 5.86497 19.7068 5.86497H19.7068ZM10.3702 11.8782C9.80028 12.6328 10.5884 13.4587 10.637 13.5157C10.6713 13.556 10.7007 13.5378 10.6954 13.4927C10.6913 13.4539 11.1056 12.2903 13.4906 12.903C13.5415 12.9161 13.5728 12.9171 13.525 12.8695C13.0845 12.5333 12.5617 11.7796 12.3928 11.1734C12.3928 11.1734 10.9402 11.1236 10.3702 11.8782ZM11.6488 11.7203C11.6488 11.5095 11.9673 11.4514 12.1504 11.4514C12.1504 11.4514 12.2307 11.6549 12.3114 11.7676C12.1255 11.6876 11.8674 11.6795 11.6488 11.7203ZM12.9147 10.7356C12.7561 10.7356 12.6968 10.8329 12.7486 11.0012C13.2966 12.7796 14.7905 13.2013 15.3804 13.9716C15.3804 13.9716 15.3762 13.7316 15.6498 13.1591C15.836 13.4535 16.3404 14.005 16.6683 14.0752C16.5899 13.9166 16.4967 13.2904 16.5693 12.8696C17.3435 13.5217 18.2979 13.6499 18.81 13.2736C18.374 13.2897 17.8061 12.8224 17.5203 12.4079C17.9194 12.4967 18.4687 12.4051 18.582 12.2948C18.3299 12.2355 18.0242 12.0203 17.8401 11.8157C18.1233 11.7967 18.7377 11.5733 18.9133 11.2583C18.6669 11.3122 18.3017 11.2153 18.0638 11.0942C18.245 10.9998 18.6971 10.5333 18.8055 10.1238C18.1635 10.4269 17.1505 10.7284 15.6499 10.7284C15.6499 10.7284 12.9983 10.7356 12.9147 10.7356L12.9147 10.7356ZM14.5713 11.5464C14.147 11.7082 13.9344 11.9266 13.9344 11.9266C13.9344 11.9266 13.7308 11.6049 13.6658 11.5015C13.6008 11.3981 13.5805 11.2714 13.7998 11.2714H15.1149C15.1149 11.3578 14.9954 11.3845 14.5712 11.5464H14.5713ZM10.0816 14.4401C10.2188 14.6153 10.6073 15.1508 11.4593 14.6721C12.3112 14.1934 12.7505 13.9328 12.7505 13.9328C12.7505 13.9328 12.6174 14.1798 12.7184 14.476C12.7244 14.493 12.7443 14.4923 12.7521 14.4746C12.8369 14.2829 13.5768 13.7283 14.5203 13.6515C14.1744 13.3604 13.7949 13.101 13.7949 13.101C13.3918 13.1637 12.6105 13.429 11.5997 14.0609C10.5889 14.6928 10.1232 14.429 10.1039 14.4171C10.0846 14.4052 10.0573 14.4089 10.0816 14.4401H10.0816ZM22.1548 34.6158C22.3003 34.5712 22.4222 34.4997 22.4848 34.4195C21.8319 34.3923 21.293 33.8497 21.0957 33.515C20.8789 33.8603 20.4917 34.1302 20.4917 34.1302C20.2161 34.0602 19.8393 33.7711 19.7066 33.55C19.5741 33.7711 19.1974 34.0602 18.9216 34.1302C18.9216 34.1302 18.5345 33.8603 18.3176 33.515C18.1203 33.8498 17.5814 34.3923 16.9285 34.4195C16.9913 34.4997 17.113 34.5712 17.2586 34.6158C17.356 34.6459 17.4639 34.6645 17.5725 34.6645C17.6875 34.6645 17.803 34.6443 17.9065 34.5977C17.8413 34.8258 17.8196 35.1073 17.8673 35.3004C17.8673 35.3004 18.2145 35.3267 18.573 35.1965C18.5987 35.4049 18.6977 35.6574 18.8599 35.8282C18.8918 35.8615 18.9251 35.893 18.9618 35.919C19.1543 35.919 19.6191 35.7032 19.7067 35.5701C19.7942 35.7031 20.259 35.919 20.4516 35.919C20.4881 35.893 20.5216 35.8615 20.5535 35.828C20.7156 35.6574 20.8146 35.4049 20.8403 35.1963C21.0016 35.2743 21.1888 35.3054 21.3961 35.3054C21.4461 35.3053 21.496 35.3036 21.5459 35.3004C21.5938 35.1073 21.572 34.8257 21.5067 34.5976C21.6104 34.6443 21.7259 34.6645 21.8407 34.6645C21.9496 34.6645 22.0573 34.6459 22.1547 34.6158H22.1548ZM15.639 21.2175C15.5111 21.2175 15.4319 21.2961 15.4319 21.4226V29.1044C15.4319 29.8368 15.7318 30.2085 16.3233 30.2085L17.8031 30.2139C18.8171 30.2139 19.4153 30.5499 19.7066 30.9662C19.9544 30.5779 20.6507 30.2139 21.6102 30.2139L23.0897 30.2085C23.6813 30.2085 23.9812 29.8368 23.9812 29.1044V21.4226C23.9812 21.2961 23.9018 21.2175 23.7742 21.2175H15.639H15.639ZM17.0844 28.4045C17.0702 28.5745 17.2755 28.8837 17.6144 28.7869C17.6041 28.8497 17.6232 29.0213 17.6989 29.1499C17.0986 29.2808 16.8397 28.8057 17.0844 28.4045ZM22.5269 25.8615C22.4442 25.7771 22.3628 25.6917 22.2824 25.6054C22.1968 25.5138 22.1357 25.4782 22.0483 25.4782C21.8518 25.4782 21.6416 25.5818 21.5292 25.6534C21.5218 25.6564 21.5161 25.6634 21.5134 25.682C21.6328 25.6718 21.7526 25.6634 21.8717 25.6504C21.9763 25.6387 22.0739 25.6428 22.164 25.7074C22.2349 25.758 22.2749 25.8206 22.2788 25.9024C22.2901 26.1639 22.507 26.7142 22.5205 26.8794C22.5374 26.9444 22.4562 26.9633 22.3438 27.2671C22.2608 27.3563 22.0364 27.0729 22.0689 27.0065C22.1996 26.8424 22.2357 26.7402 22.2025 26.618C22.176 26.5197 22.1262 26.3441 22.0892 26.2489C22.04 26.122 21.929 26.0744 21.7911 26.12C21.2499 26.2927 21.1665 26.0624 20.6302 26.279L21.2479 27.1989C21.2456 27.1323 21.2124 27.0119 21.1125 26.9254C21.1305 26.8326 21.3253 26.7941 21.3981 26.8811C21.4875 26.9914 21.6618 27.1486 21.8053 27.1738C22.0808 27.2228 22.06 27.6255 22.7965 27.7603C22.7049 27.8516 22.5007 27.8206 22.4116 27.7793C22.4654 27.8592 22.5273 27.9346 22.6382 27.9618C22.524 28.0721 22.1965 27.8137 22.23 28.0738C22.2866 28.0422 22.3651 28.0371 22.4315 28.0532C22.5784 28.0885 22.8195 28.8925 22.3117 29.2439C22.4198 29.275 22.5361 29.2201 22.6457 29.2201C22.71 29.2201 22.77 29.2801 22.7764 29.347C22.8238 29.382 22.8549 29.425 22.8825 29.48C22.8443 29.4922 22.7704 29.4809 22.7295 29.4547C22.746 29.4993 22.7421 29.6065 22.7249 29.6086C22.6789 29.6145 22.6435 29.5891 22.5966 29.5622C22.5312 29.5944 22.3164 29.5813 22.2555 29.5289C22.0934 29.5669 21.9333 29.6178 21.7643 29.6178C21.673 29.6178 21.5529 29.6122 21.5572 29.505C21.5593 29.4526 21.5862 29.4257 21.6073 29.3685C21.5296 29.2915 21.4 29.3661 21.2455 29.3804C21.036 29.3998 20.9496 29.3685 20.9042 29.3274C21.102 29.1511 20.9826 28.7216 20.6771 28.6836C20.9284 28.9154 20.8956 29.2905 20.6143 29.3747C20.6956 29.4001 20.7359 29.4353 20.7669 29.491C20.8659 29.5306 20.8673 29.5996 20.8599 29.6304C20.8057 29.5935 20.7083 29.557 20.6306 29.5669C20.625 29.5996 20.6108 29.6608 20.5815 29.6845C20.5479 29.6774 20.504 29.6478 20.487 29.6242C20.3972 29.5578 19.8376 29.6845 19.8036 29.5959C19.7821 29.5136 19.9315 29.4443 20.0693 29.4152C19.7148 29.2898 19.4074 28.647 18.8616 28.5381C18.6085 28.4879 18.2656 28.5974 18.2656 28.9145C18.2656 29.0703 18.3957 29.1903 18.5363 29.1903C18.6657 29.1903 18.7305 29.104 18.7305 29.0167C18.7097 29.0319 18.6967 29.0414 18.6841 29.0514C18.6048 29.114 18.5039 29.11 18.4309 29.0414C18.3666 28.981 18.3666 28.8762 18.4291 28.8052C18.4804 28.7462 18.542 28.713 18.6243 28.7013C18.838 28.6713 19.0127 28.7369 19.1304 28.9021C19.1865 28.981 19.2175 29.0652 19.2175 29.1469C19.2175 29.5123 18.8376 29.5953 18.6274 29.5953C18.098 29.5953 17.7862 29.2302 17.7862 28.8079C17.7862 28.7586 17.7887 28.7087 17.7974 28.6585C17.8802 28.1831 18.3209 27.9844 18.7021 27.9249C18.6535 27.7595 18.5596 27.6258 18.4248 27.5166C18.3577 27.4624 18.3509 27.418 18.3932 27.3488C18.4507 27.2541 18.5112 27.1609 18.5367 27.0543C18.5424 27.0303 18.5451 27.005 18.547 26.979C18.3571 27.1429 18.0917 27.2931 17.7245 27.4003C17.6087 27.4519 17.5475 27.5536 17.5328 27.6704C17.516 27.8061 17.5121 27.9436 17.5096 28.0805C17.5089 28.1121 17.5327 28.1465 17.5507 28.1767C17.619 28.2896 17.6945 28.3995 17.7113 28.5404C17.7113 28.6086 17.3548 28.6157 17.3548 28.561C17.3515 28.3133 17.1798 28.217 17.1982 28.0535C17.2457 27.7991 17.2562 27.5446 17.213 27.2889C17.2021 27.2245 17.2377 27.1822 17.2853 27.1479C17.361 27.0923 17.4415 27.0425 17.5171 26.9874C17.6956 26.856 17.7693 26.6849 17.7274 26.4727C17.722 26.4451 17.7094 26.4185 17.6969 26.3925C17.6081 26.2037 17.5432 26.0125 17.5432 25.7996C17.5432 25.5661 17.2428 25.5794 17.2625 25.8089C17.2687 25.8806 17.3242 25.9808 17.3554 26.0497C17.6634 26.7323 17.1096 27.2238 16.5368 27.2234C17.1389 27.0226 16.396 26.2802 16.396 25.7263C16.396 25.3866 16.6685 25.1355 16.9937 25.1355C17.3688 25.1355 17.6066 25.3683 17.6747 25.4082C17.8562 25.1312 18.4118 25.0812 18.6203 25.0492C18.6044 24.9 18.6263 24.7674 18.7212 24.6529C18.7275 24.6451 18.7314 24.6308 18.728 24.6225C18.6984 24.552 18.6668 24.4823 18.6259 24.414C18.4548 24.5999 18.4137 24.8465 18.4137 24.9739C17.7804 24.965 17.501 24.6979 17.3138 24.5926C17.3145 24.5462 17.483 24.2541 17.6324 24.0613C17.4686 24.1965 17.334 24.3488 17.2351 24.5313C17.1446 24.4683 17.0493 24.4114 16.9562 24.3741C17.099 24.0796 17.2882 23.8504 17.5292 23.611C17.1898 23.7316 16.8944 24.1012 16.7824 24.3334C16.6855 24.3227 16.5425 24.3191 16.4625 24.3341C16.8325 23.8984 17.0016 23.0401 17.815 22.8475C17.6112 23.6435 18.1179 23.967 18.4667 23.7593C18.4213 23.7593 18.3902 23.7662 18.3609 23.7593C17.6808 23.5931 18.0839 22.6861 17.9192 22.4972C17.8566 22.4256 17.8243 22.3599 17.8345 22.2693C17.8381 22.2374 17.8283 22.2005 17.8132 22.1711L17.4514 21.5896C17.4059 21.5164 17.5467 21.4643 17.5771 21.4979L17.946 22.0795C17.9555 22.0941 17.9673 22.1154 17.981 22.1178C18.1159 22.1406 18.1576 22.2483 18.2121 22.3435C18.2294 22.3743 18.2431 22.4096 18.2462 22.4443C18.2488 22.4707 18.2412 22.5078 18.2229 22.5258C18.1643 22.583 18.1756 22.6392 18.221 22.7134C18.2938 22.8322 20.4791 26.3338 20.4791 26.3338C20.0045 26.5207 19.1459 26.5359 18.8972 26.5127C18.8456 26.6342 18.7649 26.7624 18.6456 26.886C18.7647 26.8114 18.8568 26.7167 18.9419 26.6139C19.0379 26.6245 19.1819 26.6616 19.3291 26.6719C19.242 26.851 19.1112 27.0292 18.9433 27.1785C18.8644 27.2534 18.7666 27.3196 18.8025 27.4396C18.8431 27.5745 19.104 27.8316 19.1992 27.9985C19.2936 28.0177 19.4531 28.05 19.57 28.095C19.6367 28.2329 19.8624 28.4061 20.1343 28.3165C19.5875 28.3099 19.6279 27.7709 19.7978 27.4859C19.7794 27.7506 19.9123 27.9704 20.0806 27.9954C19.8283 27.7739 19.8535 27.2707 20.0993 26.9946C20.1343 27.4428 20.2756 27.6784 20.4778 27.7317C20.2106 27.4951 20.0502 26.948 20.4537 26.5493C20.4849 27.5724 21.4588 27.3879 21.5472 28.5723C21.9079 28.5723 21.9285 28.105 21.7274 28.0192C21.61 27.9769 21.504 27.9025 21.444 27.8013C21.419 27.7587 21.393 27.6828 21.3726 27.6381C21.2654 27.3338 20.9627 27.3531 20.97 27.2801C20.9772 27.2554 21.0249 27.2441 21.0917 27.2441L20.5213 26.3964L20.4916 26.3521C20.5603 26.3387 20.5756 26.3002 20.505 26.193C20.505 26.193 18.3645 22.7689 18.3542 22.7493C18.5533 22.7161 18.7444 22.768 18.9306 22.8373C18.8809 22.793 18.8404 22.7311 18.8317 22.6672C18.8246 22.6158 18.8265 22.5858 18.8696 22.5532C18.9151 22.5175 18.9588 22.4762 18.9907 22.4296C19.0969 22.2742 19.2922 22.1982 19.4696 22.2468C19.7374 22.32 19.8321 22.6112 19.6353 22.7643C19.5305 22.9865 19.4007 22.9585 19.3739 23.0581C19.4265 23.0814 19.7926 23.3536 19.8171 23.4681C19.708 23.6866 19.6537 24.0282 19.7484 24.2188C19.8192 23.3105 20.3878 22.8662 20.9415 22.8662C21.073 22.8662 21.2038 22.8882 21.3349 22.9312C21.4066 22.9545 21.4783 22.9881 21.538 23.0317C21.6246 23.0954 21.7051 23.1665 21.7785 23.244C21.8865 23.3581 21.9855 23.4801 22.1694 23.488C22.1156 23.5617 22.0544 23.6156 21.9918 23.6686C21.9466 23.7075 21.924 23.7542 21.9184 23.8128C21.9056 23.939 21.8625 24.0546 21.7661 24.1474C21.753 24.16 21.7431 24.1752 21.7367 24.1918C21.6752 24.3633 21.6129 24.5342 21.5551 24.7068C21.5408 24.7488 21.544 24.8067 21.485 24.806C21.4338 24.8054 21.3719 24.791 21.3338 24.761C21.2526 24.6978 21.2235 24.6057 21.2526 24.5086C21.2815 24.4119 21.2526 24.329 21.2208 24.2391C21.1882 24.1491 21.1768 24.0519 21.155 23.9493C21.0037 23.8983 20.7199 24.2108 20.9366 24.4726C21.0773 24.6657 21.2038 25.0211 21.2256 25.1666C21.2302 25.1809 21.0976 25.2612 20.915 25.2389C20.2976 25.1629 19.9072 24.7508 19.7886 24.403C19.7789 24.9921 20.2873 25.4288 21.0408 25.3865C21.0715 25.5237 21.1881 25.617 21.3239 25.6213C21.3521 25.5327 21.3515 25.3468 21.3284 25.2286C21.3182 25.1766 21.3466 25.15 21.3966 25.1377C21.5614 25.0974 21.7758 25.113 21.9593 25.05C22.122 24.9938 22.1989 25.0267 22.3 25.216C22.3767 25.3588 22.5077 25.5124 22.6314 25.6184C22.6834 25.6626 22.7354 25.7076 22.7844 25.7549C22.847 25.8151 22.8796 25.886 22.8844 25.9737C22.8683 26.1109 22.8873 26.3873 22.8873 26.3917C22.8516 26.4823 22.5911 26.3863 22.5491 26.289C22.5332 26.2528 22.6605 25.998 22.5269 25.8614V25.8615ZM27.0206 11.1734C26.8517 11.7796 26.3289 12.5333 25.8884 12.8695C25.8405 12.9171 25.8719 12.9161 25.9229 12.903C28.3078 12.2903 28.7221 13.4539 28.7179 13.4927C28.7128 13.5379 28.7421 13.5561 28.7763 13.5158C28.825 13.4587 29.6131 12.6328 29.0432 11.8782C28.4732 11.1236 27.0206 11.1734 27.0206 11.1734ZM27.102 11.7676C27.1826 11.6549 27.2632 11.4514 27.2632 11.4514C27.4461 11.4514 27.7646 11.5096 27.7646 11.7203C27.5458 11.6795 27.2878 11.6876 27.102 11.7676ZM29.3318 14.4401C29.3562 14.4089 29.3286 14.4052 29.3094 14.4171C29.2901 14.429 28.8244 14.6928 27.8136 14.0609C26.8028 13.429 26.0215 13.1636 25.6185 13.101C25.6185 13.101 25.2389 13.3604 24.8929 13.6515C25.8365 13.7283 26.5765 14.2829 26.6613 14.4746C26.6691 14.4923 26.6889 14.493 26.6948 14.476C26.7959 14.1798 26.6627 13.9328 26.6627 13.9328C26.6627 13.9328 27.1021 14.1934 27.954 14.672C28.806 15.1507 29.1944 14.6153 29.3317 14.44L29.3318 14.4401ZM21.3495 11.0942C21.1117 11.2153 20.7464 11.3122 20.5 11.2583C20.6757 11.5733 21.2901 11.7968 21.5732 11.8157C21.3892 12.0203 21.0833 12.2355 20.8314 12.2948C20.9446 12.4051 21.4939 12.4966 21.8931 12.4079C21.6072 12.8224 21.0394 13.2897 20.6033 13.2736C21.1156 13.6499 22.0701 13.5217 22.8441 12.8696C22.9167 13.2904 22.8236 13.9166 22.7451 14.0753C23.0729 14.005 23.5774 13.4535 23.7637 13.1591C24.0372 13.7317 24.0331 13.9717 24.0331 13.9717C24.623 13.2014 26.1168 12.7796 26.6649 11.0012C26.7166 10.8329 26.6573 10.7356 26.4988 10.7356C26.415 10.7356 23.7635 10.7285 23.7635 10.7285C22.2628 10.7285 21.2498 10.4269 20.6078 10.1238C20.7163 10.5333 21.1684 10.9999 21.3497 11.0942H21.3495ZM25.6136 11.2714C25.8328 11.2714 25.8124 11.3981 25.7475 11.5016C25.6825 11.6049 25.4789 11.9267 25.4789 11.9267C25.4789 11.9267 25.2663 11.7082 24.8421 11.5463C24.4179 11.3845 24.2984 11.3578 24.2984 11.2714H25.6136ZM15.8011 13.9352C15.7156 14.1679 15.6904 14.4246 15.7359 14.7585C16.0116 15.3341 16.145 16.4028 16.0599 17.0003C16.4992 16.4114 16.6942 15.7492 16.8199 15.2193C17.0718 15.4669 17.3987 15.8214 17.6267 16.1086C17.6658 15.7976 17.7353 15.4135 17.7961 15.1361C18.1243 15.4372 18.8052 15.8153 19.2657 15.9493C18.9557 14.6927 18.4253 13.8916 18.4253 13.8916C17.9752 13.9351 17.2503 13.8298 16.9243 13.5217C16.9825 13.977 17.3085 14.5005 17.3085 14.5005C16.6101 14.566 16.1154 14.3369 15.8011 13.9352ZM23.6122 13.9352C23.298 14.3369 22.8033 14.566 22.1048 14.5005C22.1048 14.5005 22.4308 13.977 22.489 13.5218C22.163 13.8299 21.4382 13.9352 20.988 13.8916C20.988 13.8916 20.4577 14.6927 20.1475 15.9493C20.6082 15.8153 21.289 15.4371 21.6171 15.136C21.678 15.4134 21.7474 15.7975 21.7865 16.1086C22.0146 15.8214 22.3414 15.4669 22.5935 15.2192C22.7191 15.7491 22.9142 16.4114 23.3534 17.0003C23.2683 16.4028 23.4017 15.334 23.6773 14.7585C23.7229 14.4246 23.6976 14.1679 23.6121 13.9351L23.6122 13.9352ZM17.6045 17.8946C17.8681 18.3017 18.1026 18.7913 18.1839 19.2274C18.4366 18.9336 18.7034 18.4229 18.8843 17.8129C19.106 18.0792 19.4933 18.6216 19.7066 19.0691C19.9199 18.6216 20.3072 18.0792 20.5289 17.8129C20.7098 18.4229 20.9767 18.9336 21.2294 19.2274C21.3106 18.7913 21.5451 18.3017 21.8087 17.8946C22.0092 18.687 22.7824 19.4578 23.5803 19.5158C23.0613 18.8682 23.0398 17.7487 23.0766 17.3759C22.7309 16.8595 22.5033 16.3936 22.3943 16.0769C22.1599 16.2997 21.7973 16.7326 21.4719 17.233C21.4719 17.2269 21.4626 16.6056 21.3328 15.8511C20.9974 16.1424 20.3899 16.3533 20.0652 16.4352C19.8603 16.7564 19.8041 17.0069 19.7066 17.4099C19.6092 17.0069 19.5529 16.7564 19.348 16.4352C19.0233 16.3533 18.4159 16.1424 18.0804 15.8512C17.9507 16.6056 17.9412 17.2269 17.9412 17.233C17.6158 16.7326 17.2534 16.2997 17.0188 16.0769C16.9099 16.3936 16.6823 16.8595 16.3366 17.376C16.3734 17.7489 16.3518 18.8682 15.8328 19.5158C16.6309 19.4579 17.404 18.687 17.6044 17.8946L17.6045 17.8946ZM10.3744 27.2661C10.8223 26.9853 11.1057 26.4752 11.4283 25.8512C11.2405 25.9259 10.9683 26.0068 10.6956 26.0612C10.4295 26.5558 10.0527 26.3639 10.0429 26.2938C10.1243 26.207 10.2173 26.0788 10.2872 25.9672C10.1738 25.7633 10.0372 25.4596 9.96187 25.2717C9.5812 26.0419 8.88194 26.8243 8.29639 27.1295C8.64093 27.5898 9.7087 27.6834 10.3743 27.2661H10.3744ZM11.7586 25.9681C11.4409 26.6122 11.5157 27.605 12.527 27.6332C12.443 26.9302 12.7726 26.2688 13.1249 25.9681C12.8218 26.0398 12.3286 26.4218 12.3286 26.4218C12.3286 26.4218 12.2543 26.5855 12.2394 26.7974C12.0277 26.8337 11.9107 26.677 11.9986 26.3501C11.9986 26.3501 11.8456 26.1821 11.7586 25.9681V25.9681ZM6.75257 26.7037C6.90168 26.7035 7.05014 26.6861 7.19485 26.6517C8.17138 26.4198 9.10128 25.6174 9.65405 24.9436C9.33835 25.0397 9.01936 25.1021 8.66583 25.1365C8.66583 25.1365 8.41824 25.4149 8.22768 25.5178C8.13105 25.5703 8.03455 25.5955 7.94305 25.5955C7.66683 25.5955 7.54951 25.3778 7.54951 25.3778C7.54951 25.3778 7.99507 25.1725 8.27865 24.881C8.22242 24.6662 8.18676 24.3686 8.18025 24.0719C7.4113 24.8141 5.96607 25.5353 4.95656 25.6753C5.15639 26.075 5.86524 26.7037 6.75263 26.7037H6.75257ZM4.79753 25.1293C4.84818 25.1293 4.89882 25.1269 4.94927 25.1223C5.95287 25.0269 7.16411 24.4092 7.9441 23.8747C7.6958 23.9231 7.04298 23.9372 6.73325 23.8957C6.62612 23.9646 6.15381 24.2515 5.76079 24.2994C5.044 24.3866 4.96819 23.9605 4.96819 23.9605C5.42867 23.9064 5.95957 23.757 6.46708 23.53C6.51799 23.1628 6.60641 22.8354 6.68202 22.5941C5.57562 23.1863 3.77055 23.6028 2.69975 23.6165C2.91403 24.1054 3.74473 25.1293 4.79753 25.1293ZM4.95532 21.6556C5.10955 21.3934 5.35372 21.0835 5.57595 20.8307C4.69256 21.0645 3.55542 21.1134 2.95259 21.1134C2.24183 21.1134 1.55125 21.0652 1.15508 20.9888C1.19022 21.6748 1.86938 22.8584 3.20943 22.9739C3.27933 22.9801 3.35664 22.9831 3.43935 22.9831C4.2753 22.9831 5.60485 22.658 6.5197 22.3461C5.86741 22.2654 5.23738 22.1167 5.09366 22.0587C4.75345 22.1525 3.94075 22.2836 3.67681 22.2695C3.07773 22.2379 3.01361 21.7959 3.01361 21.7959C3.01361 21.7959 4.09177 21.8397 4.95525 21.6556H4.95532ZM1.73859 20.3984C2.23645 20.5529 3.03037 20.6416 3.91697 20.6416C4.45785 20.6416 5.02849 20.5951 5.49259 20.5317C4.99131 20.3677 4.37279 20.1198 3.97077 19.8741C3.46831 19.8645 2.78633 19.8508 2.34838 19.722C1.70437 19.5325 1.7135 19.1091 1.72493 19.0141C2.28177 19.2294 3.22894 19.4352 3.92906 19.4752C4.18715 19.2363 4.58582 18.9516 5.00649 18.7037C3.34515 18.7177 1.22431 18.0854 0.0327135 17.4792C-0.239765 19.6096 1.26576 20.2513 1.73859 20.3983V20.3984ZM5.39051 15.9808C5.13412 15.5081 4.88411 14.8722 4.85113 14.3242C4.07416 13.7375 3.18723 12.991 2.67407 12.1377C2.37755 11.6444 2.48699 11.2122 2.69699 11.0634C2.85721 11.5992 3.90055 13.0997 4.84634 13.8521C4.85376 13.3713 4.93797 12.8182 5.06843 12.4022C3.9688 11.2522 2.73621 9.34741 2.43844 8.60114C2.10382 8.86752 1.52694 9.53755 1.38518 10.4817C1.24238 11.432 1.563 12.4082 2.33813 13.3835C2.9342 14.1336 4.2464 15.252 5.39051 15.9808ZM5.07448 18.3976C4.31853 17.9159 3.79453 17.469 3.51522 17.0676C2.88355 16.8315 2.06677 16.471 1.66443 16.1462C1.11159 15.7004 1.28658 15.2991 1.35103 15.2189C1.83778 15.6966 2.89196 16.3851 3.64068 16.6913C4.10812 16.5163 4.75766 16.388 5.39044 16.3132C3.51502 15.6011 1.50185 14.2643 0.449838 13.0041C0.23648 13.4022 -0.63009 15.2748 0.994597 16.8103C1.8502 17.6192 3.6127 18.1773 5.07434 18.3977L5.07448 18.3976ZM29.4515 25.2718C29.3761 25.4597 29.2394 25.7634 29.126 25.9673C29.1958 26.0788 29.289 26.207 29.3704 26.2938C29.3605 26.364 28.9838 26.5558 28.7178 26.0612C28.445 26.0069 28.1728 25.9259 27.985 25.8512C28.3076 26.4752 28.5909 26.9853 29.0389 27.2661C29.7046 27.6835 30.7724 27.5898 31.1168 27.1295C30.5313 26.8243 29.832 26.0419 29.4514 25.2717L29.4515 25.2718ZM27.6547 25.9681C27.5677 26.1821 27.4147 26.3501 27.4147 26.3501C27.5026 26.677 27.3856 26.8337 27.1738 26.7973C27.1589 26.5855 27.0846 26.4218 27.0846 26.4218C27.0846 26.4218 26.5913 26.0398 26.2884 25.9681C26.6406 26.2688 26.9702 26.9302 26.8864 27.6332C27.8976 27.605 27.9724 26.6122 27.6547 25.9681ZM31.1348 24.8811C31.4182 25.1725 31.8637 25.3778 31.8637 25.3778C31.8637 25.3778 31.7464 25.5955 31.4703 25.5955C31.3787 25.5955 31.2822 25.5704 31.1855 25.5178C30.995 25.4149 30.7474 25.1365 30.7474 25.1365C30.3939 25.1021 30.0749 25.0398 29.7591 24.9437C30.3119 25.6174 31.2418 26.4199 32.2183 26.6517C32.363 26.6861 32.5116 26.7035 32.6606 26.7037C33.5479 26.7037 34.2569 26.075 34.4566 25.6753C33.4472 25.5353 32.0019 24.8142 31.233 24.0719C31.2265 24.3686 31.1907 24.6662 31.1348 24.8811ZM32.9461 23.53C33.4536 23.7571 33.9846 23.9065 34.4453 23.9605C34.4453 23.9605 34.3693 24.3868 33.6524 24.2994C33.2595 24.2515 32.787 23.9646 32.68 23.8957C32.3703 23.9372 31.7173 23.9231 31.4691 23.8747C32.2492 24.4092 33.4604 25.0269 34.4639 25.1223C34.5144 25.1269 34.565 25.1293 34.6157 25.1293C35.6686 25.1293 36.4992 24.1054 36.7135 23.6165C35.6427 23.6028 33.8377 23.1863 32.7313 22.5942C32.8069 22.8355 32.8952 23.1628 32.9461 23.53V23.53ZM33.8372 20.8307C34.0595 21.0835 34.3036 21.3934 34.4578 21.6556C35.3214 21.8398 36.3995 21.7959 36.3995 21.7959C36.3995 21.7959 36.3354 22.2379 35.7365 22.2694C35.4724 22.2834 34.6598 22.1525 34.3196 22.0587C34.1758 22.1166 33.5459 22.2654 32.8936 22.3461C33.8083 22.658 35.1381 22.9831 35.974 22.9831C36.0568 22.9831 36.134 22.9801 36.2038 22.9739C37.5438 22.8585 38.2231 21.6749 38.2582 20.9888C37.8622 21.0652 37.1714 21.1134 36.4607 21.1134C35.8581 21.1134 34.7206 21.0646 33.8373 20.8307H33.8372ZM39.3806 17.4793C38.189 18.0855 36.0681 18.7178 34.4068 18.7038C34.8274 18.9516 35.2261 19.2364 35.4842 19.4753C36.1842 19.4352 37.1314 19.2294 37.6882 19.0142C37.6996 19.1092 37.7088 19.5326 37.0648 19.722C36.6269 19.8508 35.9449 19.8645 35.4424 19.8742C35.0404 20.1198 34.4219 20.3677 33.9206 20.5317C34.3847 20.5951 34.9553 20.6416 35.4963 20.6416C36.3829 20.6416 37.1768 20.553 37.6746 20.3984C38.1474 20.2514 39.653 19.6096 39.3806 17.4793ZM36.7163 11.0634C36.9264 11.2122 37.0358 11.6445 36.7392 12.1377C36.2259 12.991 35.3392 13.7375 34.5621 14.3242C34.5292 14.8723 34.279 15.5082 34.0227 15.9808C35.1667 15.252 36.4791 14.1336 37.0751 13.3835C37.8502 12.4083 38.1708 11.4321 38.028 10.4817C37.8862 9.53755 37.3095 8.86752 36.9747 8.60114C36.6771 9.34741 35.4443 11.2522 34.3447 12.4023C34.4752 12.8182 34.5595 13.3713 34.5669 13.8522C35.5126 13.0997 36.5561 11.5993 36.7163 11.0634ZM35.7725 16.6914C36.5213 16.3851 37.5755 15.6966 38.0621 15.219C38.1266 15.2992 38.3016 15.7005 37.7488 16.1463C37.3464 16.4711 36.5296 16.8315 35.8981 17.0676C35.6187 17.469 35.0948 17.916 34.3388 18.3977C35.8004 18.1774 37.563 17.6192 38.4188 16.8104C40.0434 15.2749 39.1767 13.4022 38.9634 13.0042C37.9114 14.2643 35.8983 15.6011 34.0227 16.3132C34.6556 16.3881 35.3051 16.5163 35.7725 16.6915V16.6914ZM31.4025 14.5357C30.7934 15.8944 29.2491 17.1058 28.2502 17.7123C27.7945 17.9889 27.9608 18.5134 28.1066 18.7462C29.4674 20.9202 26.9928 22.5403 24.7576 21.463C25.2453 21.4681 25.7377 21.0696 25.8059 20.7144C25.6509 20.8432 25.0162 20.7725 24.8286 20.6057C25.1165 20.4609 25.185 20.3141 25.1999 20.1768C24.8438 20.387 24.124 20.4159 23.912 20.0608C22.731 20.0302 21.9455 19.1439 21.8585 18.8881C21.771 19.1602 21.6296 19.6357 21.5832 20.1049C21.2629 19.8964 20.7159 19.4245 20.4307 18.7845C20.108 19.2277 19.8646 19.727 19.7066 20.2531C19.5486 19.727 19.3053 19.2277 18.9825 18.7845C18.6973 19.4245 18.1503 19.8965 17.8301 20.105C17.7835 19.6357 17.6424 19.1603 17.5547 18.8882C17.4678 19.144 16.6823 20.0303 15.5013 20.061C15.2892 20.416 14.5695 20.387 14.2134 20.1768C14.2282 20.3142 14.2968 20.461 14.5846 20.6058C14.3971 20.7725 13.7624 20.8433 13.6073 20.7145C13.6755 21.0696 14.1679 21.4681 14.6556 21.463C12.4204 22.5404 9.94578 20.9202 11.3067 18.7464C11.4525 18.5135 11.6187 17.989 11.1631 17.7123C10.1641 17.1057 8.61984 15.8944 8.01071 14.5356C7.93839 15.0897 7.99356 16.4647 8.61222 17.3202C8.16022 17.4865 7.58051 17.7562 7.19078 18.0064C7.43725 18.2758 8.01117 18.7413 8.39683 18.9943C8.08205 19.2635 7.59339 19.779 7.33694 20.1165C7.66184 20.3024 8.31656 20.528 8.81684 20.6803C8.58555 21.0473 8.22991 21.7094 8.14058 22.1035C8.70077 22.1818 9.27266 22.1746 9.77729 22.1594C9.71291 22.6188 9.75528 23.1958 9.80586 23.6161C10.3257 23.5442 10.8977 23.3413 11.2771 23.1491C11.3491 23.4662 11.5475 24.0515 11.7254 24.3647C12.2186 23.9144 12.8691 23.7083 13.4714 23.8276C14.7045 24.072 15.071 25.2719 15.071 25.2719L15.0729 21.622V21.2145C15.0729 20.9869 15.2002 20.8666 15.4285 20.8667H23.9848C24.2132 20.8666 24.3404 20.987 24.3404 21.2145V21.6219L24.3423 25.2717C24.3423 25.2717 24.7089 24.0719 25.9419 23.8276C26.5443 23.7083 27.1949 23.9143 27.6881 24.3647C27.866 24.0514 28.0643 23.4661 28.1363 23.149C28.5157 23.3412 29.0877 23.5441 29.6076 23.6161C29.6581 23.1957 29.7004 22.6188 29.6361 22.1594C30.135 22.2091 30.7089 22.2091 31.2728 22.1034C31.1835 21.7094 30.8278 21.0474 30.5964 20.6803C31.1168 20.5461 31.7514 20.3025 32.0765 20.1165C31.8202 19.779 31.3314 19.2635 31.0166 18.9943C31.4021 18.7413 31.976 18.2758 32.2227 18.0065C31.8329 17.7562 31.2531 17.4865 30.8011 17.3203C31.4198 16.4647 31.4751 15.0897 31.4026 14.5357H31.4025ZM15.8516 10.263L15.8008 10.3911C17.2958 10.3911 18.7329 9.899 19.1164 8.18541H17.9713C17.768 9.41995 17.0137 10.263 15.8516 10.263ZM9.38821 7.4751C9.38821 7.4751 10.206 7.65735 10.5259 8.76437C10.846 9.87138 11.6503 10.4008 12.4755 10.4008L12.4247 10.25C11.9446 10.1925 11.2676 9.53469 11.141 8.31637C11.0133 7.08991 10.7005 6.9319 10.7005 6.9319C10.3775 6.71694 9.5653 7.2847 9.38808 7.4751H9.38821ZM6.99614 7.97025C7.67826 7.94874 8.13723 8.15747 8.99453 7.40624C10.0065 6.51903 10.487 6.67067 10.487 6.67067C9.97054 6.34746 9.25033 6.20384 9.00301 6.39048C8.75562 6.57732 8.42087 7.07839 7.85818 7.4352C7.06525 7.93792 6.25083 7.80524 6.21444 8.27386H6.23651C6.23651 8.27386 6.31416 7.99195 6.99608 7.97025H6.99614ZM7.62531 10.9111C8.03994 11.3043 8.07804 12.1123 8.07804 12.1123C8.07804 12.1123 8.57458 11.2559 8.16541 10.3453C7.75636 9.43503 6.92021 8.7365 7.73987 8.20481C7.23926 8.20889 6.69667 8.0981 6.45841 8.42461C6.38425 8.52631 6.31554 8.77837 6.56509 9.13696C6.88217 9.59272 7.67431 10.6524 7.02524 11.3581C7.49978 11.2739 7.62531 10.9111 7.62531 10.9111ZM12.7464 10.396H15.5557C15.5557 10.396 15.6252 10.2319 15.7137 9.99503H12.5885C12.6771 10.2319 12.7464 10.396 12.7464 10.396ZM14.4275 6.55867C14.4275 6.4111 14.3062 6.29127 14.1568 6.29127C14.0073 6.29127 13.8859 6.4111 13.8859 6.55867C13.8859 6.70637 14.0073 6.82601 14.1568 6.82601C14.3062 6.82601 14.4275 6.70637 14.4275 6.55867ZM15.8306 9.6925C15.9506 9.33003 16.086 8.77881 16.086 8.51281C16.086 8.02676 15.814 7.48859 14.8323 7.32294C14.8323 7.91043 14.5356 9.34982 14.1769 9.34982H14.1365C13.7779 9.34982 13.4812 7.92113 13.4812 7.32282C12.4962 7.48827 12.2161 8.02657 12.2161 8.51281C12.2161 8.77888 12.3516 9.33003 12.4718 9.6925H15.8307H15.8306ZM14.1568 8.94669C14.3437 8.94669 14.4951 8.00684 14.4951 7.53893C14.4951 7.2833 14.3437 7.11562 14.1568 7.11562C13.9698 7.11562 13.8182 7.2833 13.8182 7.53893C13.8182 8.00684 13.9698 8.94669 14.1568 8.94669H14.1568ZM13.9761 5.93484H14.3372L14.2922 5.4892L14.7434 5.53381V5.17732L14.2922 5.22193L14.3372 4.77628H13.9761L14.0213 5.22193L13.57 5.17732V5.53381L14.0213 5.4892L13.9762 5.93484H13.9761ZM21.4419 8.18541H20.2968C20.6803 9.89907 22.1174 10.3911 23.6124 10.3911L23.5617 10.263C22.3996 10.263 21.6452 9.42001 21.4419 8.18541ZM26.9378 10.4008C27.7629 10.4008 28.5672 9.87138 28.8873 8.76437C29.2072 7.65741 30.0251 7.47516 30.0251 7.47516C29.8479 7.28476 29.0359 6.717 28.7127 6.9319C28.7127 6.9319 28.4 7.08991 28.2723 8.3165C28.1457 9.53475 27.4687 10.1926 26.9887 10.25L26.9378 10.4009V10.4008ZM30.4187 7.40624C31.276 8.15747 31.735 7.94881 32.4171 7.97025C33.099 7.99195 33.1766 8.27392 33.1766 8.27392H33.1988C33.1623 7.80531 32.3479 7.93799 31.5551 7.4352C30.9924 7.07845 30.6575 6.57732 30.4103 6.39055C30.1628 6.20384 29.4426 6.34753 28.9262 6.67067C28.9262 6.67067 29.4067 6.51903 30.4187 7.40624ZM32.9548 8.42468C32.7165 8.09816 32.174 8.20895 31.6733 8.20488C32.493 8.7365 31.6571 9.43503 31.2478 10.3453C30.8388 11.2559 31.3352 12.1123 31.3352 12.1123C31.3352 12.1123 31.3733 11.3043 31.7879 10.9111C31.7879 10.9111 31.9134 11.2739 32.3881 11.3581C31.7389 10.6525 32.531 9.59272 32.8483 9.13702C33.0977 8.77837 33.029 8.52631 32.9548 8.42468ZM26.6668 10.396C26.6668 10.396 26.736 10.232 26.8248 9.99503H23.6995C23.788 10.232 23.8575 10.396 23.8575 10.396H26.6668ZM25.5272 6.55867C25.5272 6.41116 25.406 6.29133 25.2564 6.29133C25.107 6.29133 24.9857 6.4111 24.9857 6.55867C24.9857 6.70637 25.107 6.82601 25.2564 6.82601C25.406 6.82601 25.5272 6.70643 25.5272 6.55867ZM26.9414 9.6925C27.0617 9.33009 27.1972 8.77881 27.1972 8.51288C27.1972 8.02657 26.9169 7.48827 25.9321 7.32288C25.9321 7.92106 25.6354 9.34982 25.2767 9.34982H25.2364C24.8777 9.34982 24.5809 7.91043 24.5809 7.32294C23.5991 7.48859 23.3274 8.02676 23.3274 8.51281C23.3274 8.77888 23.4626 9.33003 23.5826 9.6925H26.9415H26.9414ZM25.2564 8.94669C25.4435 8.94669 25.595 8.00684 25.595 7.53893C25.595 7.2833 25.4435 7.11568 25.2564 7.11568C25.0695 7.11568 24.9181 7.2833 24.9181 7.53893C24.9181 8.00684 25.0695 8.94669 25.2564 8.94669ZM25.0761 5.93484H25.437L25.392 5.48926L25.8432 5.53387V5.17738L25.392 5.22199L25.4371 4.77628H25.0761L25.1213 5.22199L24.6698 5.17738V5.53387L25.1213 5.48926L25.0761 5.93491L25.0761 5.93484ZM6.69614 16.6465C5.96647 16.6634 4.68152 16.8035 4.02897 17.0031C4.4725 17.5164 5.63086 18.2534 6.32493 18.5664C5.78523 18.7635 4.81704 19.2637 4.41332 19.6247C4.93351 19.9345 6.07597 20.2886 6.616 20.4043C6.30161 20.6501 5.65425 21.3608 5.41678 21.744C5.86393 21.8784 6.78331 21.9953 7.36715 22.0284C7.17994 22.4043 6.96678 23.0679 6.91029 23.5002C7.19971 23.5285 8.16652 23.4803 8.6452 23.3768C8.60415 23.7536 8.61978 24.4391 8.68455 24.7346C9.15685 24.6693 9.83122 24.4862 10.1449 24.3693C10.2359 24.7052 10.5606 25.4285 10.6747 25.6004C11.0531 25.5303 11.5048 25.3814 11.8368 25.2138C11.9417 25.483 12.1802 25.8858 12.2461 25.9875C13.3521 24.9102 14.9315 25.7838 14.9315 26.9302C14.8181 27.6855 13.7112 27.6433 13.1285 27.9983C12.3624 28.4651 12.495 29.5475 11.7064 29.7136C12.4515 30.1676 12.6684 29.3155 13.4423 29.2913C13.339 29.7508 13.3488 30.5669 13.4264 30.9086C13.7449 30.6717 14.1916 30.4909 14.4838 30.4725C14.4116 30.7406 14.3553 31.3679 14.4598 31.7586C14.6651 31.6087 15.4319 30.9663 17.2524 31.3794C17.4731 31.4293 16.0175 31.3742 16.1991 31.8267C16.3422 32.1833 16.3827 32.4313 16.2116 32.9375C16.2888 32.9642 16.3783 32.9769 16.4747 32.9769C16.883 32.9769 17.4123 32.7487 17.6225 32.3903C17.785 32.5067 17.785 33.3357 17.2406 33.5415C17.8221 33.5824 18.2649 33.1273 18.3508 32.8476C18.3508 32.8476 18.6351 33.4987 18.9721 33.7125C19.1838 33.641 19.5609 33.3029 19.7066 32.9518C19.8522 33.303 20.2294 33.641 20.4409 33.7125C20.778 33.4987 21.0623 32.8476 21.0623 32.8476C21.1483 33.1273 21.5912 33.5824 22.1726 33.5415C21.6282 33.3357 21.6282 32.5067 21.7906 32.3903C22.001 32.7487 22.5301 32.9769 22.9385 32.9769C23.0349 32.9769 23.1245 32.9642 23.2018 32.9375C23.0306 32.4313 23.0711 32.1833 23.2142 31.8267C23.3958 31.3742 21.9402 31.4294 22.1609 31.3794C23.9811 30.9663 24.7482 31.6087 24.9535 31.7586C25.058 31.3679 25.0016 30.7406 24.9294 30.4725C25.2216 30.4909 25.6683 30.6717 25.9869 30.9086C26.0642 30.5668 26.0742 29.7508 25.9708 29.2913C26.7447 29.3155 26.9615 30.1676 27.7067 29.7136C26.9181 29.5474 27.0506 28.4651 26.2845 27.9983C25.7019 27.6433 24.595 27.6855 24.4816 26.9302C24.4816 25.7838 26.061 24.9101 27.1671 25.9874C27.2329 25.8857 27.4713 25.4829 27.5763 25.2137C27.9082 25.3815 28.3601 25.5303 28.7384 25.6004C28.8525 25.4284 29.1773 24.7051 29.2681 24.3692C29.5819 24.4861 30.2563 24.6692 30.7286 24.7346C30.7933 24.4391 30.8089 23.7536 30.7679 23.3768C31.2466 23.4803 32.2132 23.5285 32.5027 23.5002C32.4463 23.0678 32.2332 22.4043 32.0458 22.0283C32.6298 21.9952 33.5491 21.8783 33.9964 21.7439C33.7588 21.3607 33.1114 20.65 32.7972 20.4042C33.337 20.2885 34.4796 19.9344 34.9998 19.6245C34.5961 19.2636 33.6278 18.7634 33.0882 18.5663C33.7823 18.2533 34.9405 17.5163 35.3842 17.003C34.7315 16.8034 33.4465 16.6633 32.7169 16.6464C34.2273 15.6534 34.2738 13.4995 33.8388 12.3291C33.5464 13.0387 32.5768 14.2043 31.9508 14.8328C32.0064 15.431 31.8045 16.492 31.4581 17.1396C31.9539 17.3205 32.5415 17.5935 32.9578 17.8978C32.6815 18.2319 32.0872 18.7503 31.7145 19.0312C32.03 19.3483 32.5605 19.9306 32.7969 20.2673C32.4476 20.5188 31.6874 20.8073 31.2977 20.9397C31.4895 21.3177 31.768 22.0073 31.84 22.4832C31.3962 22.5538 30.7853 22.6015 30.1465 22.5941C30.1775 23.0499 30.1109 23.7556 30.0283 24.1782C29.4359 24.1329 28.737 23.8992 28.4253 23.749C28.2605 24.3789 27.8531 24.9901 27.8353 25.0225C25.9836 23.0827 24.3423 24.9128 24.3423 26.6226V28.9525C24.3423 30.0546 23.981 30.5577 22.9414 30.5577H21.5961C20.7585 30.5577 20.0567 30.8992 19.7065 31.5554C19.3563 30.8992 18.6545 30.5577 17.817 30.5577H16.4715C15.4319 30.5577 15.0705 30.0546 15.0705 28.9525V26.6225C15.0705 24.9128 13.4294 23.0827 11.5777 25.0225C11.5599 24.9901 11.1524 24.3789 10.9875 23.749C10.6758 23.8992 9.97698 24.1329 9.38479 24.1782C9.30196 23.7556 9.23535 23.0499 9.26642 22.5942C8.62773 22.6016 8.01682 22.5539 7.57283 22.4833C7.64495 22.0073 7.92347 21.3178 8.11535 20.9398C7.72568 20.8073 6.9654 20.5189 6.61607 20.2674C6.85235 19.9308 7.38292 19.3484 7.69843 19.0313C7.32557 18.7503 6.73135 18.2319 6.45513 17.8978C6.87133 17.5935 7.45905 17.3205 7.95474 17.1395C7.6085 16.492 7.4065 15.431 7.46207 14.8328C6.83612 14.2043 5.86649 13.0386 5.57404 12.3291C5.13905 13.4995 5.18562 15.6534 6.69608 16.6464L6.69614 16.6465ZM2.5283 27.7711L2.39213 27.9107C2.39213 27.9107 2.67453 28.2654 2.9026 28.1305C3.0324 27.9002 2.66513 27.632 2.66513 27.632L2.52824 27.7711H2.5283Z" fill="#2A3338"/>
<path d="M51.4648 22.8966V29.2727H49.2476V12.9857H55.4481C57.2881 12.9857 58.7273 13.4407 59.7665 14.3505C60.8136 15.2603 61.3372 16.4646 61.3372 17.9635C61.3372 19.5445 60.8255 20.7638 59.8014 21.6214C58.7851 22.4715 57.3269 22.8966 55.4252 22.8966H51.4648ZM51.4648 21.1404H55.4481C56.6338 21.1404 57.5423 20.8719 58.1736 20.335C58.8049 19.7906 59.1202 19.0076 59.1202 17.9859C59.1202 17.0164 58.8049 16.2409 58.1736 15.6592C57.5423 15.0776 56.6759 14.7756 55.5756 14.7532H51.4648V21.1404ZM63.1035 23.1092C63.1035 21.9234 63.3427 20.857 63.8196 19.9099C64.305 18.9628 64.9744 18.232 65.829 17.7175C66.6908 17.2029 67.6729 16.9456 68.7732 16.9456C70.4745 16.9456 71.8487 17.5161 72.8958 18.6571C73.9501 19.798 74.4776 21.3156 74.4776 23.2098V23.3552C74.4776 24.5335 74.2424 25.5924 73.7734 26.5321C73.3116 27.4642 72.6455 28.1913 71.7758 28.7134C70.9133 29.2354 69.9201 29.4964 68.7962 29.4964C67.1027 29.4964 65.7291 28.9259 64.6742 27.7849C63.6271 26.6439 63.1035 25.1338 63.1035 23.2546V23.1092ZM65.2516 23.3552C65.2516 24.6975 65.5708 25.7751 66.21 26.588C66.8564 27.4009 67.7189 27.8073 68.7962 27.8073C69.882 27.8073 70.7438 27.3971 71.383 26.5768C72.0222 25.7491 72.3414 24.5932 72.3414 23.1092C72.3414 21.7817 72.0143 20.7079 71.36 19.8876C70.713 19.0598 69.8511 18.6459 68.7732 18.6459C67.7189 18.6459 66.8682 19.0524 66.2218 19.8652C65.5748 20.678 65.2516 21.8414 65.2516 23.3552ZM82.1678 27.8073C82.9298 27.8073 83.5959 27.5836 84.1654 27.1361C84.735 26.6887 85.0509 26.1293 85.112 25.4582H87.1333C87.0945 26.1517 86.8482 26.8117 86.3943 27.4382C85.9397 28.0646 85.3314 28.5642 84.5694 28.9371C83.8153 29.3099 83.0146 29.4964 82.1678 29.4964C80.4665 29.4964 79.112 28.9482 78.103 27.852C77.1025 26.7483 76.602 25.2419 76.602 23.3328V22.9861C76.602 21.8078 76.8253 20.76 77.272 19.8428C77.718 18.9255 78.3572 18.2134 79.1888 17.7063C80.0277 17.1991 81.0169 16.9456 82.156 16.9456C83.5571 16.9456 84.7198 17.3521 85.6434 18.1649C86.5749 18.9778 87.0715 20.033 87.1333 21.3305H85.112C85.0509 20.5476 84.7428 19.9062 84.1884 19.4066C83.6419 18.8994 82.9646 18.6459 82.156 18.6459C81.0708 18.6459 80.228 19.0262 79.6276 19.7869C79.0345 20.54 78.7382 21.6325 78.7382 23.0644V23.4559C78.7382 24.8504 79.0345 25.9243 79.6276 26.6775C80.2201 27.4307 81.0669 27.8073 82.1678 27.8073ZM98.8187 18.8473H94.6271V29.2727H92.4909V18.8473H88.38V17.1694H98.8187V18.8473ZM105.123 26.2412L108.033 17.1694H110.319L105.296 31.1407C104.519 33.1542 103.283 34.1609 101.589 34.1609L101.185 34.1274L100.389 33.982V32.3041L100.966 32.3488C101.69 32.3488 102.252 32.2071 102.652 31.9237C103.06 31.6404 103.395 31.1221 103.657 30.3689L104.13 29.1384L99.6726 17.1694H102.005L105.123 26.2412ZM122.79 23.3552C122.79 25.1972 122.355 26.6812 121.485 27.8073C120.615 28.9334 119.437 29.4964 117.952 29.4964C116.435 29.4964 115.242 29.0303 114.372 28.0981V33.9261H112.236V17.1694H114.187L114.291 18.5116C115.161 17.4676 116.369 16.9456 117.917 16.9456C119.418 16.9456 120.604 17.4937 121.474 18.59C122.351 19.6862 122.79 21.2112 122.79 23.165V23.3552ZM120.654 23.1203C120.654 21.7556 120.354 20.678 119.753 19.8876C119.153 19.0971 118.329 18.7018 117.282 18.7018C115.988 18.7018 115.019 19.2574 114.372 20.3685V26.1517C115.011 27.2555 115.988 27.8073 117.305 27.8073C118.329 27.8073 119.141 27.4158 119.741 26.6328C120.35 25.8423 120.654 24.6714 120.654 23.1203ZM133.598 17.1694H135.734V29.2727H133.598V20.4469L127.836 29.2727H125.699V17.1694H127.836V26.0063L133.598 17.1694ZM146.034 20.4804C146.034 19.9137 145.811 19.4662 145.364 19.1381C144.917 18.8025 144.306 18.6347 143.528 18.6347C142.774 18.6347 142.143 18.8249 141.634 19.2052C141.134 19.5855 140.884 20.033 140.884 20.5476H138.759C138.759 19.496 139.214 18.6347 140.122 17.9635C141.03 17.2924 142.166 16.9568 143.528 16.9568C144.991 16.9568 146.13 17.2626 146.946 17.8741C147.762 18.4781 148.17 19.3432 148.17 20.4692C148.17 21.0136 148.001 21.5132 147.662 21.9682C147.323 22.423 146.842 22.7847 146.219 23.0532C147.674 23.5305 148.401 24.4701 148.401 25.8721C148.401 26.9832 147.958 27.8632 147.073 28.512C146.188 29.1608 145.006 29.4852 143.528 29.4852C142.089 29.4852 140.899 29.1459 139.96 28.4673C139.028 27.7811 138.563 26.8565 138.563 25.6931H140.688C140.688 26.2823 140.957 26.7894 141.496 27.2144C142.042 27.6321 142.72 27.8408 143.528 27.8408C144.344 27.8408 145.002 27.6581 145.503 27.2927C146.003 26.9273 146.253 26.4538 146.253 25.8721C146.253 25.1934 146.041 24.7087 145.618 24.4179C145.202 24.1196 144.552 23.9705 143.667 23.9705H141.53V22.2254H143.851C145.306 22.1882 146.034 21.6065 146.034 20.4804ZM158.366 26.5321L162.615 17.1694H165.282V29.2727H163.146V20.4692L159.105 29.2727H157.627L153.505 20.2791V29.2727H151.369V17.1694H154.139L158.366 26.5321Z" fill="#2A3338"/>
</svg>
