<svg width="180" height="42" viewBox="0 0 180 42" fill="none" xmlns="http://www.w3.org/2000/svg">
<path fill-rule="evenodd" clip-rule="evenodd" d="M30.8484 34.6635C30.7841 34.6635 30.641 35.1499 30.7883 35.4949C30.8667 35.6785 31.051 35.7561 31.2052 35.7046C31.3571 35.654 31.4013 35.5097 31.4055 35.3972C31.4198 35.0192 31.0879 34.6635 30.8484 34.6635H30.8484ZM29.7435 29.148L29.7918 29.682L29.3304 29.6305V30.2387L29.7918 30.1874L29.7435 30.7452H30.3702L30.3218 30.1874L30.7831 30.2387V29.6306L30.3218 29.6821L30.3702 29.148H29.7435ZM30.0576 31.2526C29.9328 31.2526 29.8317 31.356 29.8317 31.4836C29.8317 31.6111 29.9329 31.7145 30.0576 31.7145C30.1824 31.7145 30.2836 31.6111 30.2836 31.4836C30.2836 31.356 30.1824 31.2526 30.0576 31.2526ZM30.0576 32.1878C29.9328 32.1878 29.8317 32.2912 29.8317 32.4188C29.8317 32.5464 29.9329 32.6497 30.0576 32.6497C30.1824 32.6497 30.2836 32.5463 30.2836 32.4188C30.2836 32.2912 30.1824 32.1878 30.0576 32.1878ZM30.0576 33.1365C29.9328 33.1365 29.8317 33.2399 29.8317 33.3674C29.8317 33.4952 29.9329 33.5985 30.0576 33.5985C30.1824 33.5985 30.2836 33.4951 30.2836 33.3674C30.2836 33.2399 30.1824 33.1364 30.0576 33.1364V33.1365ZM30.7874 33.3674C30.7874 33.4952 30.8886 33.5985 31.0134 33.5985C31.1382 33.5985 31.2394 33.4951 31.2394 33.3674C31.2394 33.2399 31.1381 33.1364 31.0134 33.1364C30.8886 33.1364 30.7874 33.2399 30.7874 33.3674L30.7874 33.3674ZM31.7346 33.3674C31.7346 33.4952 31.8359 33.5985 31.9606 33.5985C32.0854 33.5985 32.1867 33.4951 32.1867 33.3674C32.1867 33.2399 32.0854 33.1364 31.9606 33.1364C31.8359 33.1364 31.7346 33.2399 31.7346 33.3674V33.3674ZM30.0576 34.4064C29.8642 34.4064 29.3869 35.3879 29.7427 35.8842C29.8108 35.9792 29.93 36.0325 30.0576 36.0325C30.1852 36.0325 30.3046 35.9791 30.3726 35.8842C30.7284 35.3879 30.2511 34.4064 30.0576 34.4064ZM29.2668 34.6635C29.0273 34.6635 28.6954 35.0191 28.7097 35.3971C28.7138 35.5095 28.7581 35.654 28.91 35.7046C29.0642 35.756 29.2486 35.6785 29.327 35.4948C29.4743 35.1499 29.3312 34.6635 29.2668 34.6635ZM28.8992 33.3674C28.8992 33.4951 29.0002 33.5984 29.1251 33.5984C29.25 33.5984 29.3511 33.495 29.3511 33.3674C29.3511 33.2399 29.25 33.1364 29.1251 33.1364C29.0002 33.1364 28.8991 33.2398 28.8991 33.3674H28.8992ZM27.9751 33.3674C27.9751 33.4951 28.0763 33.5984 28.2011 33.5984C28.3259 33.5984 28.4272 33.495 28.4272 33.3674C28.4272 33.2399 28.326 33.1364 28.2011 33.1364C28.0763 33.1364 27.9751 33.2398 27.9751 33.3674ZM27.7523 33.3674C27.7523 33.1705 27.7864 32.993 27.7864 32.993H29.6643V32.8302L29.6645 31.4578L29.6643 31.4576V31.0674C28.7579 31.2263 28.0329 31.926 27.8168 32.8299C27.7641 32.9051 27.5938 32.9436 27.4738 32.9301C26.7808 32.8451 25.3782 32.5921 25.3782 32.2932C25.3782 31.8733 25.6624 31.7052 25.9354 31.7052C26.3249 31.7052 26.7552 31.9162 27.1135 31.3972C25.8384 31.4556 26.8158 29.612 25.77 29.2622C25.8218 29.7329 25.7704 30.5612 25.6054 30.999C25.6054 30.999 25.2307 30.5984 24.8099 30.4472C24.8415 30.789 24.7775 31.4973 24.6247 31.8198C24.6247 31.8198 24.1791 31.4069 23.717 31.2525C24.1433 31.8711 24.1287 32.7539 24.0139 33.291C23.9807 33.4463 24.0964 33.6396 24.4215 33.6254C24.9301 33.6029 26.6671 33.6796 27.4206 33.9879C27.6548 34.0837 27.8554 34.1937 27.9535 34.3608C28.0333 34.5859 28.2308 34.9345 28.4738 35.1133C28.5829 34.7242 29.0481 34.3075 29.3511 34.3225C29.4416 34.327 29.5417 34.4783 29.5624 34.6266C29.5892 34.4887 29.8127 34.1078 30.0576 34.1078C30.2835 34.1078 30.5008 34.4264 30.5761 34.6897C30.5989 34.5206 30.6987 34.3398 30.7893 34.3398C31.0936 34.3398 31.4763 34.61 31.6205 35.0562C31.7373 34.9105 32.2736 34.2208 32.3341 33.7681H27.7863C27.7863 33.7681 27.7523 33.5724 27.7523 33.3675L27.7523 33.3674ZM30.4509 31.0678V32.993H32.3305C32.1671 32.0114 31.4105 31.2366 30.4508 31.0678H30.4509ZM8.27039 32.653C8.30986 32.6662 8.34977 32.6568 8.38911 32.6359C8.26245 32.8125 8.26766 32.9286 8.32221 32.983C8.40792 33.0679 8.47141 32.9118 8.688 32.6817C8.90485 32.4519 9.05479 32.3818 8.96939 32.2965C8.91434 32.2418 8.80028 32.2402 8.62998 32.3792C8.64878 32.3385 8.65604 32.298 8.64233 32.2585C8.57065 32.051 8.23706 31.7747 8.05317 31.7741C8.02661 31.7744 8.00042 31.7799 7.97597 31.7904C8.0569 31.6604 8.03605 31.5623 7.98187 31.5084C7.92229 31.4492 7.88821 31.4907 7.82131 31.5763C7.83043 31.5165 7.81511 31.4464 7.75869 31.3609C7.48264 30.9429 6.0227 29.5666 5.69116 29.4283C5.49331 29.3454 5.42839 29.4601 5.42839 29.4601C5.42839 29.4601 5.31885 29.5307 5.40543 29.7315C5.55028 30.0674 6.95319 31.5046 7.3682 31.7751C7.45335 31.8304 7.52168 31.8439 7.57952 31.8328C7.49884 31.9034 7.46017 31.9399 7.51944 31.9989C7.57362 32.0527 7.67007 32.071 7.794 31.9835C7.7847 32.0091 7.78029 32.0361 7.7811 32.0633C7.78736 32.2519 8.06633 32.5859 8.27045 32.653H8.27039ZM4.76117 28.5812C4.71791 28.5812 4.65647 28.5915 4.61129 28.6393C4.56555 28.6878 4.54941 28.7629 4.56611 28.8499C4.58435 28.9445 4.63828 29.0405 4.7181 29.1201C4.81367 29.2153 4.93388 29.2722 5.03927 29.2722C5.08283 29.2722 5.14384 29.2623 5.18908 29.2145C5.2877 29.1097 5.23898 28.8895 5.08246 28.7336C4.98658 28.6384 4.86667 28.5812 4.76117 28.5812V28.5812ZM9.30173 33.6901C9.30049 33.5448 9.02562 33.3008 8.69967 33.3008C8.21553 33.3008 8.00595 33.6084 8.00595 33.7651C8.00595 34.0602 8.29044 34.0982 8.37763 34.1031C8.71842 34.1243 9.26785 33.7751 9.30173 33.6901ZM8.88468 34.427C8.75602 34.5922 8.70787 34.7535 8.74113 34.9064C8.78166 35.0916 8.9643 35.1747 9.12753 35.1747C9.2995 35.1747 9.45348 35.0934 9.53949 34.9569C9.72444 34.6647 9.73263 34.0171 9.67026 33.9463C9.51523 33.9463 9.10289 34.147 8.88468 34.427V34.427ZM4.63574 27.6859C4.49896 27.5496 4.21912 27.7527 4.05186 27.6581C4.12603 27.2419 4.41995 27.6788 4.70394 27.3778C4.81721 27.2576 4.75645 27.0699 4.69147 27.0133C4.56908 27.1377 4.37967 27.0946 4.36509 27.0255C4.6875 26.2617 4.05763 25.4102 3.45278 25.517C3.57144 25.6762 3.60694 26.2294 3.55524 26.379C3.78549 26.5448 3.6209 26.9353 3.36676 26.8219C3.19634 26.7522 2.89571 26.3251 3.24146 26.0242C3.23147 25.9157 3.04131 25.8893 2.83924 26.1507C2.9875 25.6709 2.07978 25.8213 1.89323 25.9365C1.78716 26.1315 1.66962 27.0688 2.13123 26.9014C1.88361 27.1174 1.91526 27.3118 2.02095 27.3188C2.30271 26.9543 2.72715 27.25 2.80032 27.4228C2.91867 27.6806 2.54394 27.8615 2.37563 27.6302C2.23159 27.6882 1.69252 27.6692 1.53389 27.5523C1.44936 28.1767 2.29694 28.797 3.02964 28.4422C3.09716 28.455 3.14508 28.6477 3.02815 28.7776C3.08537 28.8428 3.26951 28.8992 3.3829 28.7789C3.66658 28.478 3.23246 28.1896 3.63505 28.1001C3.73218 28.2691 3.54364 28.563 3.6803 28.6993C3.89919 28.9172 4.17419 28.4944 4.44428 28.4774C4.45216 28.1995 4.85463 27.9039 4.6358 27.6858L4.63574 27.6859ZM2.36682 26.7216C2.36682 26.7216 2.22526 26.6208 2.39506 26.4361C2.56902 26.2557 2.67185 26.3982 2.67185 26.3982C2.67185 26.3982 2.83135 26.7542 2.87852 26.918C2.71766 26.8747 2.36688 26.7216 2.36688 26.7216H2.36682ZM3.76805 27.8041C3.68017 27.8152 3.47202 28.0011 3.36763 27.8971L2.88988 27.4214L3.12869 27.1674L3.3685 26.9139L3.84582 27.39C3.9502 27.4937 3.77612 27.7136 3.76805 27.8041V27.8041ZM11.6839 35.0934C11.7001 35.0222 11.689 34.965 11.6518 34.928C11.6401 34.9163 11.6296 34.9097 11.6233 34.9097C11.5963 34.9097 11.5365 34.9839 11.4788 35.0557C11.4307 35.1152 11.3708 35.1894 11.2944 35.2702C11.2183 35.3514 11.1478 35.415 11.0914 35.4665C11.0243 35.5273 10.9547 35.5904 10.9539 35.6188C10.9539 35.6255 10.9608 35.6362 10.973 35.6482C10.9977 35.673 11.0308 35.6853 11.071 35.6853C11.1324 35.6853 11.2654 35.6538 11.4657 35.4411C11.6178 35.2801 11.6685 35.1632 11.684 35.0934H11.6839ZM11.6868 35.661C11.5827 35.7717 11.4769 35.8503 11.4184 35.8905C11.4599 35.9327 11.578 36.0075 11.7256 36.0075C11.8098 36.0075 11.8884 35.9826 11.9603 35.9335C12.1075 35.6902 11.9654 35.4413 11.9015 35.378C11.8641 35.4396 11.7908 35.5508 11.6868 35.661L11.6868 35.661ZM10.0746 34.3077C9.99875 34.3788 9.82343 34.8727 9.89989 35.1736C9.93284 35.3025 10.0038 35.3576 10.124 35.3511C10.2483 35.3432 10.3161 35.2784 10.3371 35.1463C10.3847 34.8458 10.1573 34.3683 10.0745 34.3076L10.0746 34.3077ZM9.97858 32.9348C9.98292 32.9433 10.878 33.7317 11.1784 34.0171C11.2491 34.0844 11.3467 34.1 11.4458 34.0494C11.5023 34.0205 11.5728 33.9872 11.6456 33.9538C12.5407 33.6371 14.0131 33.6014 14.5532 33.6253C14.8783 33.6395 14.9931 33.4465 14.9607 33.2908C14.855 32.7827 14.8313 31.8711 15.2577 31.2525C14.7956 31.4069 14.35 31.8198 14.35 31.8198C14.1972 31.4973 14.1332 30.789 14.1648 30.4472C13.744 30.5983 13.3691 30.999 13.3691 30.999C13.2042 30.5612 13.1528 29.733 13.2047 29.2622C12.1588 29.612 13.1363 31.4556 11.8612 31.3972C12.2194 31.9163 12.6498 31.7053 13.0392 31.7053C13.3122 31.7053 13.6515 31.8843 13.5965 32.2932C13.5566 32.5894 11.8456 32.9582 11.1575 32.9582C10.6766 32.9582 10.3545 32.8095 10.1131 32.4753C9.99701 32.3146 9.8786 32.2419 9.74597 32.2622C9.58139 32.2877 9.38887 32.4562 9.38887 32.8464C9.38887 33.1228 9.50046 33.7287 9.83187 33.7287C10.0647 33.7287 10.075 33.2498 9.97858 32.9349V32.9348ZM11.0849 35.0617C11.2411 34.8956 11.2958 34.7747 11.2572 34.6804C11.2013 34.5442 10.846 34.1481 10.3809 33.7013C10.367 33.7936 10.3462 33.8847 10.3188 33.974C10.6323 34.3886 10.7494 34.834 10.6438 35.208C10.682 35.2334 10.7057 35.245 10.7195 35.2504C10.8399 35.2983 10.9901 35.1622 11.0848 35.0617H11.0849ZM8.82144 32.8064C8.81914 32.8088 8.76124 32.8659 8.72381 32.9429C8.82113 32.9435 8.93445 32.9602 9.03642 32.9877C9.02966 32.8973 9.02295 32.775 9.03183 32.6694C8.94575 32.6888 8.85334 32.7718 8.82144 32.8064ZM24.4565 35.6549C24.7512 35.5207 24.9637 35.1564 25.0196 34.8002C24.8328 34.8916 24.6223 34.9362 24.3796 34.9362C23.7119 34.9362 22.873 34.5655 22.1127 34.2295C22.1127 34.2295 21.9488 34.3672 21.6771 34.396C22.4443 34.6314 23.9518 35.4667 24.0626 36.0025C24.1366 36.3609 23.9027 36.4977 23.9027 36.4977C23.5673 35.9513 22.7028 35.1028 21.5491 34.6784C21.5514 34.8781 21.513 35.0183 21.513 35.0183C21.513 35.0183 21.2789 35.0758 20.7816 34.9896C21.2164 35.3518 22.3587 36.6311 22.4827 37.6019C22.5653 38.2499 22.1117 38.2799 22.1117 38.2799C22.047 37.3052 21.5349 36.2966 20.6108 35.2837C20.6108 35.2837 20.4592 35.521 20.2578 35.6407C20.2578 35.6407 19.9165 35.5803 19.6332 35.3932C19.7423 36.6792 19.8068 38.3498 19.739 38.8555C19.6918 39.2076 19.4874 39.3552 19.4874 39.3552C19.4874 39.3552 19.2824 39.2076 19.2351 38.8555C19.1675 38.3498 19.2318 36.6792 19.3409 35.3932C19.0577 35.5803 18.7163 35.6407 18.7163 35.6407C18.5149 35.521 18.3636 35.2838 18.3636 35.2838C17.4392 36.2966 16.9271 37.3052 16.8625 38.2799C16.8625 38.2799 16.4089 38.2499 16.4916 37.6019C16.6156 36.6312 17.7578 35.3518 18.1926 34.9896C17.6954 35.0758 17.4612 35.0184 17.4612 35.0184C17.4612 35.0184 17.4228 34.8782 17.4252 34.6785C16.2715 35.1028 15.4072 35.9513 15.0716 36.4977C15.0716 36.4977 14.8377 36.3609 14.9118 36.0025C15.0225 35.4668 16.53 34.6314 17.2973 34.396C17.0256 34.3673 16.8615 34.2295 16.8615 34.2295C16.1014 34.5656 15.2624 34.9362 14.5947 34.9362C14.352 34.9362 14.1414 34.8916 13.9548 34.8002C14.0107 35.1565 14.2232 35.5207 14.5178 35.655C13.4863 36.3796 14.1233 38.0776 12.7399 37.7584C13.5113 39.1883 15.0716 39.3319 15.0716 39.3319C14.7259 38.5755 15.1569 36.2679 17.2278 35.2194C15.953 36.4882 15.3723 38.0265 15.7105 39.1117C16.0208 40.1078 17.0296 40.5115 17.7891 40.5288C17.252 38.8818 17.583 36.9956 18.6976 35.8083C18.22 37.1105 17.5484 40.5862 19.4876 41.253C21.4266 40.5862 20.7545 37.1105 20.2767 35.8083C21.3916 36.9956 21.7224 38.8818 21.1853 40.5288C21.9448 40.5115 22.9537 40.1078 23.264 39.1117C23.6022 38.0265 23.0214 36.4882 21.7467 35.2194C23.8177 36.2679 24.2485 38.5755 23.9028 39.3319C23.9028 39.3319 25.4632 39.1883 26.2346 37.7584C24.8511 38.0776 25.4881 36.3796 24.4566 35.655L24.4565 35.6549ZM19.6521 7.00796C19.6521 6.90589 19.5714 6.82275 19.4724 6.82275C19.3733 6.82275 19.2927 6.90589 19.2927 7.00796C19.2927 7.11028 19.3732 7.19349 19.4724 7.19349C19.5714 7.19349 19.6521 7.11028 19.6521 7.00796ZM20.5586 7.00796C20.5586 6.90589 20.4783 6.82275 20.379 6.82275C20.28 6.82275 20.1994 6.90589 20.1994 7.00796C20.1994 7.11028 20.28 7.19349 20.379 7.19349C20.4783 7.19349 20.5586 7.11028 20.5586 7.00796ZM19.1501 2.20028C19.1501 2.39137 19.301 2.54741 19.4864 2.54741C19.6721 2.54741 19.8229 2.39137 19.8229 2.20028C19.8229 2.00888 19.6721 1.85302 19.4864 1.85302C19.301 1.85302 19.1501 2.00888 19.1501 2.20022V2.20028ZM19.2584 1.46266H19.7163L19.6667 0.909327L20.1642 0.9623V0.524654L19.6667 0.577438L19.7162 0.0244141H19.2583L19.3076 0.577438L18.8104 0.524654V0.9623L19.3076 0.909327L19.2583 1.46266H19.2584ZM18.7455 7.0079C18.7455 6.90583 18.6648 6.82275 18.5657 6.82275C18.4667 6.82275 18.386 6.90583 18.386 7.0079C18.386 7.11022 18.4667 7.19343 18.5657 7.19343C18.6648 7.19343 18.7455 7.11022 18.7455 7.0079ZM17.6663 7.69461C17.715 7.7121 17.7711 7.72165 17.8376 7.72165H21.1372C21.2036 7.72165 21.2598 7.7121 21.3083 7.69461C21.4148 7.65644 21.4796 7.57642 21.5047 7.44854H17.4699C17.495 7.57642 17.5597 7.65637 17.6663 7.69467V7.69461ZM17.8478 7.0079C17.8478 6.90583 17.7672 6.82275 17.668 6.82275C17.5689 6.82275 17.4882 6.90583 17.4882 7.0079C17.4882 7.11022 17.5689 7.19343 17.6679 7.19343C17.7671 7.19343 17.8477 7.11022 17.8477 7.0079H17.8478ZM21.4565 7.0079C21.4565 6.90583 21.3758 6.82275 21.277 6.82275C21.1778 6.82275 21.0971 6.90583 21.0971 7.0079C21.0971 7.11022 21.1778 7.19343 21.2771 7.19343C21.3759 7.19343 21.4565 7.11022 21.4565 7.0079ZM21.6721 6.56857C21.7652 6.45306 22.2277 5.5584 22.2277 4.65525C22.2277 3.84236 21.2066 3.39491 20.5991 3.37448C20.5288 4.53563 20.0767 6.3583 19.4875 6.3583C18.9299 6.3583 18.4453 4.54612 18.3758 3.37442C17.7684 3.39497 16.7474 3.84242 16.7474 4.65531C16.7474 5.55847 17.2096 6.45313 17.3027 6.56857H21.6723H21.6721ZM19.4875 5.78166C19.765 5.78166 20.1236 4.62527 20.2152 3.53077C20.2152 3.3092 19.9376 2.97025 19.4876 2.96145C19.0373 2.97025 18.7597 3.3092 18.7597 3.53077C18.8401 4.55143 19.2143 5.78166 19.4876 5.78166H19.4875ZM10.6665 11.6844C10.128 12.4252 10.8726 13.2359 10.9186 13.2919C10.951 13.3314 10.9787 13.3136 10.9737 13.2693C10.9698 13.2312 11.3613 12.0889 13.6145 12.6904C13.6627 12.7033 13.6922 12.7043 13.6471 12.6576C13.2309 12.3275 12.737 11.5876 12.5774 10.9926C12.5774 10.9926 11.205 10.9437 10.6665 11.6844ZM11.8744 11.5295C11.8744 11.3225 12.1754 11.2655 12.3483 11.2655C12.3483 11.2655 12.4243 11.4653 12.5005 11.5759C12.3249 11.4974 12.081 11.4894 11.8744 11.5295ZM13.0705 10.5629C12.9206 10.5629 12.8646 10.6583 12.9135 10.8235C13.4313 12.5693 14.8427 12.9833 15.4 13.7394C15.4 13.7394 15.396 13.5038 15.6546 12.9418C15.8305 13.2308 16.307 13.7722 16.6168 13.8411C16.5427 13.6854 16.4547 13.0707 16.5233 12.6576C17.2547 13.2977 18.1564 13.4236 18.6403 13.0542C18.2283 13.0701 17.6918 12.6113 17.4218 12.2044C17.7988 12.2916 18.3178 12.2017 18.4248 12.0934C18.1867 12.0352 17.8979 11.8239 17.7239 11.6231C17.9914 11.6044 18.5719 11.3851 18.7379 11.0759C18.5051 11.1288 18.16 11.0337 17.9353 10.9148C18.1064 10.8222 18.5336 10.3642 18.636 9.96223C18.0295 10.2598 17.0724 10.5558 15.6547 10.5558C15.6547 10.5558 13.1495 10.5628 13.0704 10.5628L13.0705 10.5629ZM14.6356 11.3587C14.2347 11.5175 14.0339 11.732 14.0339 11.732C14.0339 11.732 13.8416 11.4162 13.7801 11.3147C13.7187 11.2132 13.6995 11.0888 13.9067 11.0888H15.1492C15.1492 11.1736 15.0363 11.1998 14.6355 11.3587H14.6356ZM10.3938 14.1993C10.5235 14.3713 10.8905 14.8969 11.6955 14.427C12.5003 13.9571 12.9153 13.7013 12.9153 13.7013C12.9153 13.7013 12.7896 13.9438 12.8851 14.2345C12.8906 14.2513 12.9095 14.2505 12.9168 14.2332C12.997 14.045 13.696 13.5005 14.5874 13.4252C14.2607 13.1395 13.9021 12.8848 13.9021 12.8848C13.5213 12.9463 12.783 13.2068 11.8281 13.8271C10.8731 14.4474 10.4331 14.1883 10.4149 14.1767C10.3966 14.165 10.3708 14.1687 10.3938 14.1993H10.3938ZM21.8004 34.0045C21.9378 33.9606 22.053 33.8904 22.1121 33.8117C21.4953 33.785 20.9862 33.2524 20.7997 32.9238C20.5949 33.2628 20.2291 33.5277 20.2291 33.5277C19.9687 33.459 19.6128 33.1753 19.4874 32.9582C19.3621 33.1753 19.0062 33.4591 18.7457 33.5278C18.7457 33.5278 18.38 33.2628 18.175 32.9238C17.9887 33.2525 17.4795 33.785 16.8627 33.8117C16.9219 33.8904 17.037 33.9606 17.1745 34.0045C17.2666 34.034 17.3685 34.0522 17.4711 34.0522C17.5797 34.0522 17.6888 34.0324 17.7866 33.9866C17.725 34.2105 17.7045 34.4869 17.7497 34.6764C17.7497 34.6764 18.0777 34.7023 18.4163 34.5744C18.4407 34.7791 18.5341 35.0269 18.6874 35.1945C18.7175 35.2273 18.749 35.2581 18.7837 35.2837C18.9656 35.2837 19.4047 35.0718 19.4874 34.9412C19.5701 35.0718 20.0093 35.2837 20.1912 35.2837C20.2257 35.2581 20.2573 35.2272 20.2875 35.1944C20.4407 35.0269 20.5341 34.779 20.5584 34.5743C20.7108 34.6508 20.8877 34.6814 21.0836 34.6814C21.1308 34.6813 21.1779 34.6796 21.2251 34.6764C21.2703 34.4869 21.2498 34.2105 21.1881 33.9866C21.286 34.0324 21.3951 34.0522 21.5036 34.0522C21.6065 34.0522 21.7082 34.034 21.8003 34.0045H21.8004ZM15.6444 20.8522C15.5235 20.8522 15.4487 20.9294 15.4487 21.0536V28.5943C15.4487 29.3132 15.732 29.678 16.2908 29.678L17.689 29.6834C18.6469 29.6834 19.2121 30.0132 19.4874 30.4218C19.7215 30.0407 20.3793 29.6834 21.2859 29.6834L22.6836 29.678C23.2426 29.678 23.5259 29.3132 23.5259 28.5943V21.0536C23.5259 20.9294 23.4509 20.8522 23.3304 20.8522H15.6443H15.6444ZM17.0099 27.9072C16.9965 28.074 17.1905 28.3776 17.5107 28.2826C17.501 28.3442 17.519 28.5126 17.5905 28.6389C17.0233 28.7674 16.7788 28.301 17.0099 27.9072ZM22.1519 25.4109C22.0738 25.3281 21.9969 25.2443 21.9209 25.1595C21.84 25.0696 21.7823 25.0347 21.6998 25.0347C21.5141 25.0347 21.3155 25.1363 21.2094 25.2067C21.2023 25.2095 21.1969 25.2164 21.1943 25.2347C21.3072 25.2247 21.4204 25.2164 21.5329 25.2037C21.6317 25.1922 21.7239 25.1962 21.8091 25.2596C21.8761 25.3093 21.9139 25.3708 21.9175 25.4511C21.9282 25.7078 22.1331 26.248 22.1459 26.4101C22.1618 26.4739 22.0851 26.4925 21.9789 26.7906C21.9005 26.8783 21.6885 26.6001 21.7192 26.5349C21.8427 26.3738 21.8768 26.2735 21.8454 26.1535C21.8204 26.057 21.7733 25.8847 21.7384 25.7912C21.6919 25.6666 21.587 25.6199 21.4567 25.6646C20.9455 25.8342 20.8666 25.6081 20.36 25.8208L20.9435 26.7238C20.9414 26.6583 20.91 26.5402 20.8156 26.4553C20.8326 26.3641 21.0167 26.3264 21.0855 26.4118C21.1699 26.52 21.3346 26.6743 21.4701 26.6991C21.7305 26.7472 21.7108 27.1425 22.4067 27.2748C22.3201 27.3645 22.1271 27.3341 22.043 27.2935C22.0939 27.3719 22.1523 27.4459 22.2571 27.4727C22.1492 27.5809 21.8397 27.3272 21.8714 27.5826C21.9249 27.5516 21.999 27.5465 22.0618 27.5623C22.2006 27.597 22.4284 28.3862 21.9486 28.7311C22.0507 28.7617 22.1606 28.7078 22.2642 28.7078C22.3249 28.7078 22.3816 28.7667 22.3877 28.8324C22.4324 28.8668 22.4618 28.9089 22.4879 28.963C22.4518 28.9749 22.382 28.9638 22.3433 28.9381C22.3589 28.9819 22.3552 29.0871 22.3389 29.0891C22.2955 29.095 22.2621 29.0701 22.2177 29.0437C22.156 29.0753 21.953 29.0623 21.8955 29.0109C21.7423 29.0483 21.5911 29.0983 21.4314 29.0983C21.3452 29.0983 21.2317 29.0928 21.2357 28.9874C21.2377 28.9361 21.2632 28.9097 21.2831 28.8535C21.2097 28.7779 21.0873 28.8511 20.9412 28.8652C20.7433 28.8842 20.6617 28.8535 20.6188 28.8132C20.8057 28.6401 20.6929 28.2185 20.4043 28.1812C20.6417 28.4087 20.6107 28.7769 20.345 28.8596C20.4217 28.8845 20.4598 28.9191 20.4891 28.9738C20.5826 29.0126 20.584 29.0803 20.5769 29.1106C20.5258 29.0744 20.4338 29.0385 20.3603 29.0483C20.355 29.0804 20.3416 29.1404 20.3139 29.1637C20.2822 29.1567 20.2408 29.1276 20.2247 29.1045C20.1398 29.0394 19.6111 29.1637 19.579 29.0767C19.5587 28.9959 19.6998 28.9279 19.83 28.8993C19.4951 28.7762 19.2046 28.1453 18.689 28.0384C18.4499 27.989 18.1259 28.0965 18.1259 28.4079C18.1259 28.5608 18.2488 28.6785 18.3817 28.6785C18.504 28.6785 18.5651 28.5939 18.5651 28.5082C18.5455 28.5231 18.5332 28.5324 18.5213 28.5422C18.4464 28.6036 18.3511 28.5997 18.2821 28.5324C18.2214 28.4731 18.2214 28.3702 18.2803 28.3006C18.3288 28.2426 18.387 28.21 18.4648 28.1985C18.6667 28.1691 18.8318 28.2335 18.943 28.3957C18.996 28.4731 19.0252 28.5558 19.0252 28.636C19.0252 28.9946 18.6663 29.0761 18.4677 29.0761C17.9676 29.0761 17.6729 28.7177 17.6729 28.3032C17.6729 28.2548 17.6753 28.2059 17.6836 28.1565C17.7618 27.6899 18.1781 27.4948 18.5383 27.4364C18.4924 27.274 18.4037 27.1428 18.2763 27.0357C18.2129 26.9824 18.2065 26.9388 18.2465 26.8709C18.3008 26.7779 18.358 26.6865 18.382 26.5818C18.3875 26.5583 18.39 26.5334 18.3917 26.5079C18.2124 26.6688 17.9617 26.8162 17.6147 26.9215C17.5053 26.9721 17.4475 27.0719 17.4336 27.1866C17.4177 27.3198 17.414 27.4548 17.4117 27.5892C17.411 27.6202 17.4334 27.6539 17.4505 27.6836C17.515 27.7944 17.5863 27.9023 17.6023 28.0406C17.6023 28.1076 17.2654 28.1145 17.2654 28.0609C17.2623 27.8177 17.1001 27.7232 17.1175 27.5626C17.1623 27.3129 17.1723 27.0631 17.1315 26.8121C17.1212 26.7489 17.1547 26.7073 17.1997 26.6737C17.2713 26.6191 17.3473 26.5703 17.4187 26.5161C17.5874 26.3872 17.6571 26.2192 17.6175 26.0109C17.6124 25.9838 17.6004 25.9576 17.5887 25.9322C17.5048 25.7468 17.4434 25.5591 17.4434 25.3502C17.4434 25.121 17.1596 25.134 17.1782 25.3593C17.184 25.4296 17.2365 25.5281 17.266 25.5956C17.557 26.2657 17.0338 26.7482 16.4925 26.7478C17.0615 26.5507 16.3595 25.8219 16.3595 25.2782C16.3595 24.9447 16.617 24.6982 16.9243 24.6982C17.2787 24.6982 17.5033 24.9267 17.5677 24.966C17.7391 24.694 18.264 24.6449 18.4611 24.6135C18.446 24.467 18.4667 24.3369 18.5564 24.2245C18.5623 24.2169 18.566 24.2028 18.5628 24.1947C18.5348 24.1254 18.5049 24.057 18.4663 23.99C18.3047 24.1725 18.2659 24.4145 18.2659 24.5396C17.6675 24.5309 17.4035 24.2687 17.2267 24.1653C17.2273 24.1197 17.3865 23.833 17.5277 23.6438C17.3729 23.7765 17.2457 23.926 17.1523 24.1052C17.0668 24.0433 16.9768 23.9874 16.8889 23.9508C17.0237 23.6618 17.2025 23.4368 17.4302 23.2017C17.1095 23.3201 16.8304 23.6829 16.7246 23.9108C16.6331 23.9004 16.4979 23.8968 16.4224 23.9115C16.7719 23.4839 16.9317 22.6413 17.7002 22.4523C17.5077 23.2337 17.9864 23.5512 18.3159 23.3473C18.273 23.3473 18.2437 23.3541 18.216 23.3473C17.5734 23.1842 17.9542 22.2938 17.7986 22.1084C17.7395 22.0381 17.709 21.9737 17.7186 21.8847C17.722 21.8534 17.7128 21.8171 17.6985 21.7883L17.3567 21.2174C17.3137 21.1456 17.4467 21.0944 17.4754 21.1275L17.8239 21.6984C17.8329 21.7127 17.844 21.7336 17.857 21.736C17.9845 21.7584 18.0239 21.8641 18.0754 21.9575C18.0917 21.9877 18.1046 22.0224 18.1076 22.0564C18.11 22.0824 18.1029 22.1188 18.0856 22.1365C18.0302 22.1926 18.0409 22.2478 18.0838 22.3206C18.1526 22.4373 20.2172 25.8745 20.2172 25.8745C19.7688 26.058 18.9576 26.0729 18.7226 26.0501C18.6739 26.1694 18.5977 26.2953 18.485 26.4166C18.5975 26.3433 18.6845 26.2504 18.7649 26.1495C18.8556 26.1599 18.9916 26.1963 19.1307 26.2064C19.0484 26.3822 18.9249 26.5572 18.7662 26.7037C18.6916 26.7772 18.5992 26.8423 18.6332 26.96C18.6715 27.0924 18.918 27.3449 19.008 27.5087C19.0971 27.5275 19.2478 27.5592 19.3583 27.6034C19.4214 27.7388 19.6345 27.9088 19.8915 27.8208C19.3749 27.8143 19.413 27.2853 19.5735 27.0055C19.5561 27.2653 19.6817 27.4811 19.8407 27.5057C19.6023 27.2882 19.6262 26.7942 19.8584 26.5232C19.8914 26.9632 20.025 27.1944 20.2159 27.2467C19.9635 27.0145 19.812 26.4774 20.1932 26.0861C20.2226 27.0904 21.1428 26.9093 21.2264 28.0719C21.5671 28.0719 21.5866 27.6132 21.3965 27.529C21.2857 27.4874 21.1855 27.4144 21.1288 27.3151C21.1052 27.2733 21.0806 27.1987 21.0613 27.1549C20.96 26.8562 20.6741 26.8751 20.681 26.8035C20.6878 26.7792 20.7328 26.7681 20.796 26.7681L20.2571 25.936L20.229 25.8925C20.2939 25.8793 20.3084 25.8415 20.2416 25.7363C20.2416 25.7363 18.2193 22.3751 18.2097 22.3559C18.3977 22.3233 18.5783 22.3743 18.7542 22.4423C18.7073 22.3988 18.669 22.338 18.6608 22.2753C18.654 22.2248 18.6559 22.1954 18.6965 22.1634C18.7395 22.1283 18.7808 22.0878 18.811 22.0421C18.9113 21.8895 19.0958 21.8149 19.2635 21.8626C19.5164 21.9344 19.6059 22.2203 19.42 22.3706C19.321 22.5887 19.1983 22.5612 19.173 22.659C19.2227 22.6819 19.5686 22.949 19.5917 23.0615C19.4886 23.2759 19.4374 23.6113 19.5269 23.7984C19.5937 22.9068 20.1309 22.4707 20.6541 22.4707C20.7783 22.4707 20.9018 22.4923 21.0257 22.5344C21.0935 22.5573 21.1613 22.5903 21.2177 22.6331C21.2995 22.6957 21.3755 22.7654 21.4448 22.8415C21.5469 22.9535 21.6404 23.0733 21.8141 23.081C21.7633 23.1534 21.7055 23.2063 21.6463 23.2582C21.6037 23.2965 21.5823 23.3423 21.577 23.3999C21.5649 23.5237 21.5242 23.6372 21.4331 23.7283C21.4208 23.7407 21.4114 23.7555 21.4053 23.7719C21.3473 23.9403 21.2884 24.108 21.2338 24.2774C21.2203 24.3186 21.2233 24.3755 21.1676 24.3748C21.1192 24.3742 21.0607 24.36 21.0247 24.3306C20.948 24.2686 20.9205 24.1782 20.948 24.0828C20.9753 23.9879 20.948 23.9065 20.9179 23.8183C20.8871 23.73 20.8764 23.6345 20.8557 23.5338C20.7129 23.4838 20.4447 23.7905 20.6494 24.0475C20.7824 24.237 20.9018 24.586 20.9225 24.7288C20.9268 24.7428 20.8015 24.8217 20.629 24.7998C20.0458 24.7252 19.6769 24.3206 19.5648 23.9792C19.5557 24.5574 20.036 24.9862 20.7479 24.9447C20.7769 25.0794 20.8871 25.1709 21.0153 25.1751C21.042 25.0882 21.0414 24.9056 21.0196 24.7896C21.0099 24.7386 21.0368 24.7125 21.0841 24.7004C21.2397 24.6608 21.4423 24.6762 21.6157 24.6143C21.7693 24.5592 21.8421 24.5915 21.9376 24.7773C22.01 24.9174 22.1338 25.0682 22.2507 25.1722C22.2998 25.2157 22.3489 25.2598 22.3952 25.3062C22.4544 25.3654 22.4851 25.435 22.4897 25.521C22.4745 25.6557 22.4924 25.927 22.4924 25.9314C22.4587 26.0203 22.2126 25.9261 22.1729 25.8306C22.1578 25.795 22.2781 25.5449 22.1519 25.4108V25.4109ZM26.3975 10.9926C26.2379 11.5876 25.744 12.3275 25.3278 12.6576C25.2826 12.7042 25.3122 12.7033 25.3604 12.6904C27.6136 12.0889 28.0051 13.2312 28.001 13.2693C27.9963 13.3136 28.0239 13.3315 28.0562 13.2919C28.1023 13.2359 28.8469 12.4252 28.3084 11.6845C27.7698 10.9437 26.3975 10.9926 26.3975 10.9926ZM26.4744 11.5759C26.5505 11.4653 26.6267 11.2655 26.6267 11.2655C26.7995 11.2655 27.1004 11.3226 27.1004 11.5295C26.8937 11.4894 26.6499 11.4974 26.4744 11.5759ZM28.5811 14.1993C28.6041 14.1687 28.5781 14.165 28.5599 14.1767C28.5416 14.1883 28.1017 14.4474 27.1467 13.8271C26.1917 13.2068 25.4536 12.9462 25.0728 12.8848C25.0728 12.8848 24.7142 13.1395 24.3873 13.4252C25.2787 13.5005 25.9779 14.045 26.058 14.2332C26.0654 14.2505 26.0841 14.2513 26.0897 14.2345C26.1852 13.9438 26.0594 13.7013 26.0594 13.7013C26.0594 13.7013 26.4745 13.9571 27.2793 14.427C28.0843 14.8968 28.4513 14.3713 28.581 14.1992L28.5811 14.1993ZM21.0395 10.9148C20.8148 11.0337 20.4698 11.1288 20.237 11.076C20.403 11.3852 20.9834 11.6045 21.2509 11.6231C21.077 11.8239 20.7881 12.0352 20.55 12.0934C20.657 12.2017 21.176 12.2915 21.5531 12.2044C21.283 12.6113 20.7466 13.0701 20.3345 13.0542C20.8185 13.4236 21.7203 13.2977 22.4516 12.6576C22.5202 13.0707 22.4322 13.6854 22.3581 13.8412C22.6678 13.7722 23.1444 13.2308 23.3204 12.9418C23.5788 13.5039 23.575 13.7395 23.575 13.7395C24.1323 12.9833 25.5436 12.5693 26.0614 10.8236C26.1103 10.6583 26.0543 10.5629 25.9045 10.5629C25.8253 10.5629 23.3203 10.5559 23.3203 10.5559C21.9024 10.5559 20.9453 10.2598 20.3388 9.9623C20.4413 10.3642 20.8684 10.8223 21.0397 10.9148H21.0395ZM25.0682 11.0888C25.2753 11.0888 25.256 11.2132 25.1947 11.3147C25.1333 11.4162 24.9409 11.7321 24.9409 11.7321C24.9409 11.7321 24.74 11.5175 24.3393 11.3586C23.9385 11.1998 23.8256 11.1736 23.8256 11.0888H25.0682ZM15.7975 13.7037C15.7168 13.9321 15.6929 14.1841 15.7359 14.5119C15.9964 15.0769 16.1224 16.126 16.042 16.7125C16.457 16.1344 16.6413 15.4844 16.7601 14.9642C16.998 15.2073 17.3068 15.5552 17.5223 15.8371C17.5592 15.5318 17.6249 15.1548 17.6824 14.8825C17.9924 15.1781 18.6357 15.5492 19.0708 15.6808C18.778 14.4472 18.2768 13.6609 18.2768 13.6609C17.8516 13.7036 17.1666 13.6002 16.8587 13.2977C16.9137 13.7447 17.2217 14.2586 17.2217 14.2586C16.5618 14.3228 16.0944 14.098 15.7975 13.7037ZM23.1773 13.7037C22.8804 14.098 22.413 14.3228 21.7531 14.2586C21.7531 14.2586 22.0611 13.7447 22.1161 13.2978C21.8081 13.6003 21.1233 13.7037 20.698 13.6609C20.698 13.6609 20.197 14.4472 19.9039 15.6808C20.3392 15.5492 20.9824 15.178 21.2923 14.8824C21.3499 15.1547 21.4155 15.5318 21.4524 15.8371C21.6679 15.5553 21.9766 15.2072 22.2148 14.9641C22.3335 15.4843 22.5178 16.1344 22.9328 16.7125C22.8524 16.126 22.9784 15.0768 23.2388 14.5118C23.2818 14.184 23.258 13.932 23.1772 13.7036L23.1773 13.7037ZM17.5013 17.5903C17.7503 17.99 17.972 18.4706 18.0487 18.8987C18.2875 18.6103 18.5396 18.1089 18.7104 17.5101C18.9199 17.7715 19.2858 18.304 19.4874 18.7432C19.6888 18.304 20.0548 17.7715 20.2642 17.5101C20.4352 18.1089 20.6874 18.6103 20.926 18.8987C21.0028 18.4706 21.2244 17.99 21.4734 17.5903C21.6628 18.3682 22.3933 19.1248 23.1472 19.1817C22.6568 18.546 22.6365 17.4471 22.6712 17.0812C22.3447 16.5742 22.1296 16.1169 22.0266 15.8061C21.8052 16.0247 21.4626 16.4497 21.1552 16.9408C21.1552 16.9349 21.1464 16.325 21.0238 15.5844C20.7068 15.8703 20.133 16.0774 19.8262 16.1578C19.6325 16.473 19.5795 16.7189 19.4874 17.1146C19.3953 16.7189 19.3421 16.473 19.1486 16.1578C18.8418 16.0774 18.2679 15.8703 17.9509 15.5844C17.8284 16.325 17.8195 16.9349 17.8195 16.9408C17.512 16.4497 17.1696 16.0247 16.9479 15.8061C16.8451 16.1169 16.6301 16.5742 16.3034 17.0813C16.3382 17.4473 16.3178 18.5461 15.8274 19.1818C16.5815 19.1249 17.3119 18.3682 17.5012 17.5904L17.5013 17.5903ZM10.6704 26.7897C11.0936 26.5141 11.3614 26.0133 11.6662 25.4008C11.4887 25.4742 11.2315 25.5535 10.9739 25.607C10.7225 26.0925 10.3665 25.9041 10.3572 25.8353C10.4342 25.7501 10.522 25.6243 10.5881 25.5147C10.4809 25.3145 10.3519 25.0164 10.2807 24.832C9.92105 25.588 9.2604 26.356 8.70718 26.6557C9.0327 27.1074 10.0415 27.1994 10.6704 26.7897H10.6704ZM11.9782 25.5155C11.6781 26.1479 11.7487 27.1224 12.7041 27.15C12.6248 26.4599 12.9362 25.8107 13.269 25.5155C12.9827 25.586 12.5167 25.961 12.5167 25.961C12.5167 25.961 12.4465 26.1216 12.4324 26.3296C12.2324 26.3652 12.1219 26.2114 12.2049 25.8906C12.2049 25.8906 12.0604 25.7256 11.9782 25.5156V25.5155ZM7.2486 26.2376C7.38948 26.2374 7.52975 26.2203 7.66647 26.1866C8.58908 25.959 9.46763 25.1712 9.98988 24.5099C9.69161 24.6042 9.39023 24.6654 9.05622 24.6992C9.05622 24.6992 8.82231 24.9725 8.64227 25.0735C8.55097 25.1251 8.4598 25.1498 8.37335 25.1498C8.11238 25.1498 8.00154 24.9361 8.00154 24.9361C8.00154 24.9361 8.4225 24.7346 8.69042 24.4484C8.6373 24.2376 8.6036 23.9454 8.59746 23.6542C7.87096 24.3828 6.50554 25.0907 5.55177 25.2281C5.74056 25.6204 6.41027 26.2376 7.24867 26.2376H7.2486ZM5.40152 24.6921C5.44937 24.6921 5.49722 24.6898 5.54488 24.6852C6.49306 24.5916 7.63742 23.9853 8.37434 23.4606C8.13975 23.5081 7.52298 23.5219 7.23036 23.4812C7.12913 23.5488 6.68291 23.8304 6.31159 23.8775C5.63438 23.9631 5.56276 23.5448 5.56276 23.5448C5.99781 23.4917 6.49939 23.3451 6.97888 23.1222C7.02698 22.7618 7.11052 22.4404 7.18195 22.2035C6.13664 22.7848 4.43125 23.1937 3.41958 23.2071C3.62202 23.6871 4.40686 24.6921 5.40152 24.6921ZM5.55059 21.2822C5.69631 21.0248 5.927 20.7206 6.13695 20.4725C5.30235 20.702 4.22799 20.75 3.65845 20.75C2.98694 20.75 2.33449 20.7027 1.96019 20.6277C1.99339 21.3011 2.63505 22.463 3.90111 22.5763C3.96715 22.5824 4.04019 22.5853 4.11833 22.5853C4.90813 22.5853 6.16426 22.2663 7.02859 21.96C6.41232 21.8809 5.81709 21.7348 5.68129 21.678C5.35988 21.7701 4.59205 21.8987 4.34268 21.8849C3.77668 21.8539 3.71611 21.42 3.71611 21.42C3.71611 21.42 4.73473 21.463 5.55053 21.2822H5.55059ZM2.51149 20.0481C2.98185 20.1998 3.73193 20.2869 4.56958 20.2869C5.0806 20.2869 5.61973 20.2412 6.0582 20.179C5.5846 20.018 5.00023 19.7746 4.62041 19.5335C4.1457 19.5241 3.50137 19.5106 3.08761 19.3841C2.47915 19.1982 2.48778 18.7826 2.49858 18.6893C3.02468 18.9006 3.91955 19.1026 4.581 19.142C4.82484 18.9074 5.20149 18.6279 5.59894 18.3846C4.02933 18.3983 2.02561 17.7777 0.899804 17.1826C0.642371 19.2739 2.06477 19.9037 2.51149 20.048V20.0481ZM5.96175 15.7117C5.71953 15.2477 5.48332 14.6235 5.45216 14.0855C4.7181 13.5096 3.88014 12.7768 3.39531 11.9391C3.11516 11.455 3.21856 11.0307 3.41697 10.8846C3.56834 11.4106 4.55407 12.8835 5.44763 13.6221C5.45465 13.1501 5.53421 12.6072 5.65746 12.1988C4.61855 11.0699 3.45402 9.20013 3.17269 8.46758C2.85655 8.72907 2.31152 9.38678 2.17759 10.3136C2.04267 11.2464 2.3456 12.2048 3.07793 13.1621C3.64107 13.8984 4.88082 14.9963 5.96175 15.7117ZM5.66317 18.0841C4.94897 17.6112 4.4539 17.1725 4.19001 16.7785C3.59322 16.5467 2.82155 16.1929 2.44142 15.8741C1.91911 15.4364 2.08444 15.0425 2.14532 14.9638C2.6052 15.4327 3.60117 16.1085 4.30855 16.4092C4.75018 16.2373 5.36385 16.1114 5.96169 16.0379C4.18983 15.3389 2.28782 14.0267 1.2939 12.7897C1.09232 13.1804 0.273599 15.0187 1.80857 16.526C2.61693 17.32 4.28211 17.8679 5.66305 18.0842L5.66317 18.0841ZM28.6941 24.832C28.6229 25.0165 28.4938 25.3146 28.3866 25.5148C28.4526 25.6243 28.5407 25.7501 28.6176 25.8353C28.6082 25.9042 28.2523 26.0925 28.001 25.607C27.7432 25.5536 27.4861 25.4742 27.3086 25.4008C27.6135 26.0134 27.8811 26.5141 28.3043 26.7897C28.9333 27.1994 29.9421 27.1075 30.2675 26.6557C29.7143 26.356 29.0537 25.588 28.6941 24.832L28.6941 24.832ZM26.9966 25.5155C26.9144 25.7256 26.7698 25.8906 26.7698 25.8906C26.8529 26.2114 26.7424 26.3652 26.5422 26.3295C26.5282 26.1216 26.4579 25.9609 26.4579 25.9609C26.4579 25.9609 25.9919 25.586 25.7057 25.5155C26.0384 25.8107 26.3499 26.4599 26.2707 27.15C27.2261 27.1224 27.2967 26.1479 26.9966 25.5155ZM30.2845 24.4485C30.5523 24.7346 30.9732 24.9361 30.9732 24.9361C30.9732 24.9361 30.8624 25.1498 30.6015 25.1498C30.515 25.1498 30.4238 25.1251 30.3324 25.0735C30.1524 24.9725 29.9185 24.6992 29.9185 24.6992C29.5845 24.6654 29.2831 24.6043 28.9848 24.51C29.5071 25.1713 30.3856 25.959 31.3082 26.1866C31.4449 26.2203 31.5853 26.2374 31.7261 26.2376C32.5644 26.2376 33.2342 25.6204 33.4229 25.2282C32.4692 25.0907 31.1037 24.3828 30.3773 23.6542C30.3711 23.9454 30.3373 24.2376 30.2845 24.4485ZM31.9958 23.1223C32.4753 23.3451 32.977 23.4918 33.4122 23.5448C33.4122 23.5448 33.3405 23.9632 32.6631 23.8775C32.2919 23.8304 31.8455 23.5488 31.7444 23.4812C31.4518 23.5219 30.8348 23.5081 30.6004 23.4606C31.3373 23.9853 32.4817 24.5916 33.4298 24.6852C33.4775 24.6898 33.5253 24.6921 33.5732 24.6921C34.568 24.6921 35.3527 23.6871 35.5551 23.2071C34.5435 23.1937 32.8382 22.7848 31.7928 22.2036C31.8643 22.4405 31.9477 22.7618 31.9958 23.1222V23.1223ZM32.8377 20.4725C33.0477 20.7207 33.2783 21.0249 33.4241 21.2822C34.2399 21.4631 35.2585 21.42 35.2585 21.42C35.2585 21.42 35.198 21.8538 34.6321 21.8848C34.3826 21.8986 33.6148 21.7701 33.2935 21.6779C33.1576 21.7348 32.5624 21.8808 31.9462 21.96C32.8104 22.2663 34.0668 22.5853 34.8565 22.5853C34.9347 22.5853 35.0077 22.5825 35.0736 22.5763C36.3397 22.463 36.9814 21.3012 37.0146 20.6277C36.6404 20.7027 35.9878 20.75 35.3163 20.75C34.747 20.75 33.6724 20.7021 32.8378 20.4725H32.8377ZM38.075 17.1827C36.9492 17.7777 34.9454 18.3984 33.3758 18.3847C33.7732 18.628 34.1499 18.9074 34.3937 19.142C35.0551 19.1026 35.95 18.9006 36.476 18.6894C36.4869 18.7826 36.4956 19.1982 35.8871 19.3842C35.4733 19.5106 34.829 19.5241 34.3543 19.5336C33.9745 19.7747 33.3901 20.018 32.9164 20.179C33.355 20.2412 33.894 20.2869 34.4052 20.2869C35.2428 20.2869 35.9929 20.1999 36.4632 20.0481C36.9099 19.9038 38.3324 19.2739 38.075 17.1827ZM35.5578 10.8846C35.7563 11.0307 35.8597 11.455 35.5795 11.9392C35.0945 12.7768 34.2567 13.5096 33.5226 14.0855C33.4915 14.6236 33.2551 15.2477 33.013 15.7117C34.0938 14.9963 35.3338 13.8984 35.8968 13.1621C36.6291 12.2048 36.932 11.2465 36.7971 10.3136C36.6631 9.38678 36.1182 8.72907 35.802 8.46758C35.5207 9.20013 34.3561 11.07 33.3172 12.1989C33.4405 12.6072 33.5201 13.1501 33.5271 13.6221C34.4206 12.8835 35.4064 11.4107 35.5578 10.8846ZM34.6662 16.4093C35.3736 16.1086 36.3696 15.4328 36.8293 14.9639C36.8902 15.0426 37.0555 15.4365 36.5333 15.8742C36.1531 16.193 35.3814 16.5467 34.7848 16.7786C34.5208 17.1725 34.0258 17.6113 33.3116 18.0842C34.6925 17.8679 36.3578 17.32 37.1663 16.5261C38.7012 15.0187 37.8823 13.1804 37.6809 12.7898C36.687 14.0267 34.7849 15.339 33.013 16.038C33.6109 16.1115 34.2246 16.2374 34.6662 16.4093V16.4093ZM30.5374 14.2931C29.9619 15.6268 28.503 16.816 27.5592 17.4114C27.1286 17.6829 27.2858 18.1978 27.4235 18.4263C28.7092 20.5603 26.3712 22.1508 24.2594 21.0932C24.7203 21.0982 25.1854 20.707 25.2498 20.3584C25.1034 20.4848 24.5038 20.4153 24.3265 20.2517C24.5985 20.1095 24.6632 19.9654 24.6773 19.8306C24.3409 20.0369 23.6609 20.0653 23.4605 19.7168C22.3448 19.6867 21.6026 18.8167 21.5205 18.5656C21.4377 18.8327 21.3041 19.2995 21.2603 19.7601C20.9577 19.5554 20.4409 19.0921 20.1715 18.4639C19.8666 18.899 19.6366 19.3891 19.4873 19.9055C19.3381 19.3891 19.1082 18.899 18.8032 18.4639C18.5337 19.0921 18.017 19.5554 17.7145 19.7601C17.6705 19.2995 17.5371 18.8328 17.4543 18.5657C17.3722 18.8168 16.63 19.6869 15.5142 19.7169C15.3139 20.0654 14.6339 20.037 14.2975 19.8307C14.3114 19.9655 14.3762 20.1096 14.6482 20.2517C14.471 20.4154 13.8713 20.4849 13.7248 20.3584C13.7892 20.7071 14.2545 21.0982 14.7153 21.0932C12.6035 22.1508 10.2655 20.5604 11.5512 18.4264C11.689 18.1979 11.8461 17.683 11.4156 17.4114C10.4718 16.816 9.01277 15.6268 8.43728 14.293C8.36895 14.8369 8.42108 16.1867 9.00558 17.0265C8.57853 17.1897 8.03083 17.4545 7.66262 17.7001C7.89548 17.9646 8.43771 18.4215 8.80207 18.6698C8.50467 18.9341 8.043 19.4401 7.80071 19.7714C8.10767 19.9539 8.72623 20.1754 9.1989 20.3248C8.98038 20.6851 8.64438 21.3351 8.55997 21.7219C9.08924 21.7988 9.62955 21.7918 10.1063 21.7768C10.0455 22.2278 10.0855 22.7942 10.1333 23.2068C10.6245 23.1362 11.1648 22.937 11.5233 22.7483C11.5913 23.0596 11.7787 23.6341 11.9468 23.9416C12.4128 23.4996 13.0274 23.2973 13.5964 23.4144C14.7614 23.6543 15.1077 24.8321 15.1077 24.8321L15.1095 21.2492V20.8492C15.1095 20.6259 15.2298 20.5077 15.4455 20.5078H23.5293C23.7451 20.5077 23.8653 20.6259 23.8653 20.8492V21.2492L23.8671 24.832C23.8671 24.832 24.2134 23.6542 25.3784 23.4144C25.9475 23.2972 26.5621 23.4995 27.0281 23.9416C27.1962 23.634 27.3836 23.0595 27.4516 22.7483C27.81 22.9369 28.3504 23.1361 28.8416 23.2067C28.8893 22.7941 28.9293 22.2278 28.8686 21.7768C29.3399 21.8256 29.8821 21.8256 30.4149 21.7219C30.3305 21.3351 29.9945 20.6852 29.7759 20.3249C30.2675 20.1931 30.8671 19.954 31.1742 19.7714C30.932 19.4402 30.4703 18.9341 30.1729 18.6699C30.5371 18.4215 31.0793 17.9646 31.3123 17.7001C30.9441 17.4545 30.3963 17.1897 29.9693 17.0266C30.5538 16.1867 30.606 14.8369 30.5375 14.2931H30.5374ZM15.8452 10.0989L15.7972 10.2247C17.2097 10.2247 18.5674 9.7416 18.9298 8.05948H17.8478C17.6558 9.27135 16.9432 10.0989 15.8452 10.0989ZM9.73871 7.36222C9.73871 7.36222 10.5113 7.54112 10.8136 8.6278C11.116 9.71449 11.8759 10.2342 12.6555 10.2342L12.6075 10.0861C12.1539 10.0297 11.5144 9.38397 11.3947 8.18803C11.2741 6.9841 10.9786 6.82899 10.9786 6.82899C10.6734 6.61798 9.90603 7.17531 9.73859 7.36222H9.73871ZM7.47873 7.84827C8.12318 7.82716 8.55681 8.03205 9.36678 7.29463C10.3229 6.4237 10.7768 6.57256 10.7768 6.57256C10.2889 6.25529 9.60845 6.1143 9.37478 6.29752C9.14106 6.48092 8.82479 6.97279 8.29317 7.32305C7.54402 7.81654 6.77458 7.6863 6.74019 8.14631H6.76105C6.76105 8.14631 6.8344 7.86958 7.47867 7.84827H7.47873ZM8.07316 10.7351C8.46489 11.1211 8.50089 11.9142 8.50089 11.9142C8.50089 11.9142 8.97001 11.0735 8.58343 10.1797C8.19697 9.28615 7.40699 8.60044 8.18139 8.07853C7.70842 8.08253 7.19579 7.97377 6.97069 8.29429C6.90062 8.39412 6.83571 8.64155 7.07148 8.99355C7.37105 9.44094 8.11946 10.4812 7.50622 11.1739C7.95456 11.0912 8.07316 10.7351 8.07316 10.7351ZM12.9115 10.2295H15.5656C15.5656 10.2295 15.6313 10.0684 15.715 9.83586H12.7623C12.846 10.0684 12.9115 10.2295 12.9115 10.2295ZM14.4997 6.46262C14.4997 6.31776 14.3852 6.20013 14.244 6.20013C14.1027 6.20013 13.9881 6.31776 13.9881 6.46262C13.9881 6.60761 14.1027 6.72505 14.244 6.72505C14.3852 6.72505 14.4997 6.60761 14.4997 6.46262ZM15.8254 9.53889C15.9388 9.18308 16.0667 8.64199 16.0667 8.38087C16.0667 7.90375 15.8097 7.37546 14.8822 7.21285C14.8822 7.78955 14.6019 9.20251 14.263 9.20251H14.2249C13.8861 9.20251 13.6057 7.80005 13.6057 7.21273C12.6751 7.37515 12.4105 7.90356 12.4105 8.38087C12.4105 8.64205 12.5384 9.18308 12.652 9.53889H15.8254H15.8254ZM14.244 8.80678C14.4205 8.80678 14.5636 7.88419 14.5636 7.42487C14.5636 7.17394 14.4206 7.00934 14.244 7.00934C14.0673 7.00934 13.9241 7.17394 13.9241 7.42487C13.9241 7.88419 14.0673 8.80678 14.244 8.80678H14.244ZM14.0733 5.85025H14.4145L14.3719 5.41279L14.7982 5.45658V5.10664L14.3719 5.15043L14.4145 4.71297H14.0733L14.1159 5.15043L13.6896 5.10664V5.45658L14.116 5.41279L14.0734 5.85025H14.0733ZM21.1269 8.05948H20.0449C20.4073 9.74166 21.7651 10.2247 23.1775 10.2247L23.1295 10.0989C22.0317 10.0989 21.3189 9.27141 21.1269 8.05948ZM26.3192 10.2342C27.0988 10.2342 27.8587 9.71449 28.1611 8.6278C28.4634 7.54118 29.2361 7.36228 29.2361 7.36228C29.0687 7.17537 28.3015 6.61804 27.9961 6.82899C27.9961 6.82899 27.7007 6.9841 27.5801 8.18816C27.4605 9.38404 26.8209 10.0298 26.3673 10.0862L26.3192 10.2343V10.2342ZM29.608 7.29463C30.4179 8.03205 30.8515 7.82722 31.496 7.84827C32.1402 7.86958 32.2136 8.14637 32.2136 8.14637H32.2345C32.2001 7.68636 31.4306 7.8166 30.6816 7.32305C30.15 6.97285 29.8336 6.48093 29.6 6.29758C29.3662 6.1143 28.6858 6.25535 28.1979 6.57256C28.1979 6.57256 28.6518 6.4237 29.608 7.29463ZM32.004 8.29435C31.7789 7.97383 31.2663 8.08259 30.7933 8.07859C31.5677 8.60044 30.778 9.28615 30.3913 10.1797C30.0048 11.0736 30.4738 11.9142 30.4738 11.9142C30.4738 11.9142 30.5099 11.1211 30.9016 10.7351C30.9016 10.7351 31.0201 11.0912 31.4686 11.1739C30.8552 10.4813 31.6037 9.44094 31.9034 8.99361C32.1391 8.64155 32.0741 8.39411 32.004 8.29435ZM26.0632 10.2295C26.0632 10.2295 26.1286 10.0685 26.2125 9.83586H23.2598C23.3434 10.0685 23.4091 10.2295 23.4091 10.2295H26.0632ZM24.9866 6.46262C24.9866 6.31782 24.8721 6.20019 24.7307 6.20019C24.5896 6.20019 24.4749 6.31776 24.4749 6.46262C24.4749 6.60761 24.5896 6.72505 24.7307 6.72505C24.8721 6.72505 24.9866 6.60767 24.9866 6.46262ZM26.3227 9.53889C26.4363 9.18314 26.5643 8.64198 26.5643 8.38093C26.5643 7.90356 26.2995 7.37515 25.369 7.21279C25.369 7.79999 25.0888 9.20251 24.7499 9.20251H24.7118C24.3729 9.20251 24.0925 7.78955 24.0925 7.21285C23.1649 7.37546 22.9082 7.90375 22.9082 8.38087C22.9082 8.64205 23.036 9.18308 23.1493 9.53889H26.3228H26.3227ZM24.7307 8.80678C24.9074 8.80678 25.0506 7.88419 25.0506 7.42487C25.0506 7.17394 24.9074 7.0094 24.7307 7.0094C24.5541 7.0094 24.4111 7.17394 24.4111 7.42487C24.4111 7.88419 24.5541 8.80678 24.7307 8.80678ZM24.5603 5.85025H24.9013L24.8588 5.41286L25.2851 5.45665V5.1067L24.8588 5.15049L24.9014 4.71297H24.5604L24.603 5.15049L24.1765 5.1067V5.45665L24.603 5.41286L24.5604 5.85032L24.5603 5.85025ZM7.19529 16.3651C6.50591 16.3818 5.29192 16.5193 4.6754 16.7152C5.09444 17.2191 6.18884 17.9426 6.84458 18.2498C6.33468 18.4433 5.41995 18.9342 5.03852 19.2886C5.52999 19.5928 6.60937 19.9403 7.11958 20.0539C6.82255 20.2952 6.21093 20.9929 5.98658 21.369C6.40903 21.501 7.27765 21.6157 7.82925 21.6482C7.65238 22.0172 7.45099 22.6686 7.39761 23.093C7.67106 23.1208 8.58449 23.0735 9.03673 22.9719C8.99794 23.3418 9.01271 24.0147 9.0739 24.3047C9.52013 24.2406 10.1573 24.0608 10.4537 23.9461C10.5396 24.2758 10.8464 24.9858 10.9542 25.1546C11.3117 25.0858 11.7384 24.9396 12.0521 24.7751C12.1512 25.0393 12.3765 25.4347 12.4388 25.5346C13.4837 24.477 14.9759 25.3346 14.9759 26.46C14.8687 27.2014 13.823 27.16 13.2725 27.5085C12.5487 27.9667 12.674 29.0292 11.9289 29.1923C12.6329 29.6379 12.8378 28.8015 13.5689 28.7777C13.4714 29.2288 13.4806 30.0298 13.5539 30.3653C13.8548 30.1327 14.2769 29.9553 14.553 29.9372C14.4848 30.2004 14.4315 30.8162 14.5303 31.1997C14.7242 31.0526 15.4486 30.4219 17.1686 30.8274C17.3772 30.8765 16.0019 30.8224 16.1735 31.2665C16.3087 31.6166 16.347 31.86 16.1853 32.3569C16.2582 32.3832 16.3428 32.3957 16.4339 32.3957C16.8197 32.3957 17.3197 32.1716 17.5184 31.8198C17.6718 31.934 17.6718 32.7478 17.1575 32.9499C17.7069 32.99 18.1253 32.5432 18.2064 32.2687C18.2064 32.2687 18.475 32.9078 18.7934 33.1177C18.9934 33.0475 19.3497 32.7156 19.4874 32.371C19.6249 32.7157 19.9813 33.0475 20.1811 33.1177C20.4996 32.9078 20.7682 32.2687 20.7682 32.2687C20.8494 32.5432 21.2679 32.99 21.8172 32.9499C21.3029 32.7478 21.3029 31.934 21.4563 31.8198C21.655 32.1716 22.155 32.3957 22.5408 32.3957C22.6319 32.3957 22.7165 32.3832 22.7895 32.3569C22.6278 31.86 22.6661 31.6166 22.8012 31.2665C22.9728 30.8224 21.5976 30.8765 21.8061 30.8274C23.5258 30.4219 24.2506 31.0526 24.4446 31.1997C24.5433 30.8162 24.49 30.2004 24.4218 29.9372C24.6978 29.9553 25.1199 30.1327 25.4209 30.3653C25.4939 30.0298 25.5033 29.2288 25.4057 28.7777C26.1368 28.8015 26.3416 29.6379 27.0457 29.1922C26.3007 29.0291 26.4258 27.9667 25.7021 27.5085C25.1516 27.16 24.1058 27.2014 23.9987 26.4599C23.9987 25.3346 25.4909 24.477 26.5359 25.5345C26.5981 25.4347 26.8233 25.0393 26.9225 24.775C27.2361 24.9397 27.663 25.0858 28.0205 25.1546C28.1282 24.9858 28.4351 24.2758 28.5209 23.946C28.8174 24.0608 29.4545 24.2405 29.9007 24.3047C29.9619 24.0146 29.9766 23.3418 29.9379 22.9719C30.3901 23.0735 31.3034 23.1208 31.5768 23.093C31.5236 22.6686 31.3223 22.0172 31.1452 21.6481C31.6969 21.6157 32.5655 21.5009 32.9881 21.369C32.7636 20.9927 32.152 20.2951 31.8551 20.0539C32.3652 19.9402 33.4446 19.5927 33.9361 19.2885C33.5547 18.9342 32.6399 18.4432 32.13 18.2497C32.7858 17.9425 33.8801 17.219 34.2993 16.7152C33.6826 16.5192 32.4686 16.3816 31.7793 16.3651C33.2062 15.3903 33.2502 13.276 32.8392 12.1271C32.5629 12.8236 31.6469 13.9678 31.0555 14.5848C31.108 15.172 30.9172 16.2135 30.59 16.8492C31.0584 17.0268 31.6136 17.2948 32.0069 17.5935C31.7458 17.9215 31.1844 18.4303 30.8322 18.7061C31.1302 19.0173 31.6315 19.589 31.8549 19.9195C31.5248 20.1664 30.8066 20.4495 30.4384 20.5795C30.6196 20.9506 30.8827 21.6275 30.9508 22.0947C30.5315 22.1639 29.9543 22.2108 29.3508 22.2035C29.3801 22.6509 29.3172 23.3437 29.2391 23.7585C28.6794 23.7141 28.0191 23.4846 27.7247 23.3372C27.5689 23.9556 27.184 24.5555 27.1672 24.5874C25.4177 22.6831 23.8671 24.4796 23.8671 26.158V28.4452C23.8671 29.527 23.5257 30.0208 22.5436 30.0208H21.2725C20.4812 30.0208 19.8181 30.3561 19.4873 31.0002C19.1563 30.3561 18.4933 30.0208 17.7021 30.0208H16.4309C15.4486 30.0208 15.1072 29.527 15.1072 28.4451V26.1579C15.1072 24.4796 13.5568 22.6831 11.8073 24.5874C11.7905 24.5555 11.4054 23.9556 11.2497 23.3372C10.9552 23.4846 10.295 23.7141 9.73549 23.7585C9.65723 23.3437 9.59429 22.6509 9.62365 22.2036C9.02022 22.2109 8.44305 22.1641 8.02357 22.0948C8.09172 21.6275 8.35486 20.9506 8.53614 20.5796C8.16799 20.4496 7.44969 20.1664 7.11964 19.9195C7.34288 19.5891 7.84415 19.0174 8.14223 18.7061C7.78997 18.4303 7.22856 17.9215 6.96759 17.5935C7.36081 17.2948 7.91608 17.0268 8.3844 16.8491C8.05727 16.2135 7.86643 15.172 7.91893 14.5848C7.32755 13.9678 6.41145 12.8236 6.13515 12.127C5.72418 13.276 5.76818 15.3903 7.19523 16.365L7.19529 16.3651ZM3.25759 27.2854L3.12894 27.4225C3.12894 27.4225 3.39574 27.7707 3.61122 27.6383C3.73386 27.4122 3.38687 27.1489 3.38687 27.1489L3.25753 27.2854H3.25759Z" fill="#2A3338"/>
<path d="M51.8335 10.2327H51.9799C52.7271 10.2327 53.4049 10.4027 54.0137 10.7427C54.6269 11.0782 55.1023 11.5524 55.4405 12.1653C55.7825 12.7782 55.9537 13.4671 55.9537 14.2321C55.9537 14.9926 55.7825 15.6771 55.4405 16.2855C55.1023 16.8894 54.6312 17.3592 54.0267 17.6947C53.4272 18.0302 52.7538 18.2002 52.0066 18.2046H51.8335V19.4796H50.2136V18.2046H50.0535C49.3026 18.2046 48.6199 18.0369 48.0068 17.7014C47.3934 17.3614 46.9179 16.8894 46.5801 16.2855C46.2468 15.6816 46.0801 15.0016 46.0801 14.2455C46.0801 13.4805 46.249 12.7917 46.5868 12.1787C46.9246 11.5659 47.3979 11.0894 48.0068 10.7494C48.6156 10.405 49.2982 10.2327 50.0535 10.2327H50.2136V8.90405H51.8335V10.2327ZM50.0535 11.595C49.3069 11.595 48.7223 11.8298 48.3003 12.2995C47.8824 12.7692 47.6735 13.418 47.6735 14.2455C47.6735 15.0508 47.8824 15.686 48.3003 16.1513C48.718 16.612 49.3088 16.8425 50.0734 16.8425H50.2136V11.595H50.0535ZM51.8335 11.595V16.8425H51.9936C52.7402 16.8425 53.3205 16.6076 53.7338 16.1378C54.1515 15.6682 54.36 15.0329 54.36 14.2321C54.36 13.4135 54.1515 12.7692 53.7338 12.2995C53.3205 11.8298 52.7334 11.595 51.9737 11.595H51.8335ZM60.1671 19.2112C59.1406 19.2112 58.3071 18.8869 57.6673 18.2382C57.0318 17.5851 56.714 16.7172 56.714 15.6346V15.4333C56.714 14.7085 56.8518 14.0621 57.1273 13.494C57.4072 12.9213 57.7982 12.4763 58.3003 12.1586C58.803 11.841 59.3628 11.6822 59.9809 11.6822C60.9628 11.6822 61.7205 11.9976 62.2543 12.6284C62.7917 13.2591 63.0604 14.1516 63.0604 15.3058V15.9634H58.3475C58.3959 16.5629 58.5939 17.0371 58.9408 17.386C59.2914 17.735 59.7314 17.9094 60.2608 17.9094C61.0031 17.9094 61.6076 17.6075 62.0743 17.0035L62.9475 17.8423C62.6583 18.2762 62.2716 18.614 61.7876 18.8556C61.3072 19.0927 60.7673 19.2112 60.1671 19.2112ZM59.9741 12.9907C59.5297 12.9907 59.1698 13.1473 58.8942 13.4604C58.623 13.7736 58.4492 14.2097 58.3742 14.7689H61.4605V14.6482C61.4251 14.1024 61.2805 13.6908 61.0273 13.4135C60.7741 13.1316 60.4228 12.9907 59.9741 12.9907ZM64.0807 17.7752C64.5301 17.2697 64.8298 16.791 64.9813 16.3392C65.1364 15.8829 65.2301 15.3013 65.2612 14.5945L65.3542 11.8164H70.3614V17.7752H71.3612V21.2378H69.7476V19.077H65.1209V21.2378H63.4812L63.4874 17.7752H64.0807ZM65.9811 17.7752H68.7478V13.2189H66.9275L66.881 14.6079C66.8189 15.941 66.5185 16.9968 65.9811 17.7752ZM75.4213 19.2112C74.3948 19.2112 73.5613 18.8869 72.9215 18.2382C72.2859 17.5851 71.9682 16.7172 71.9682 15.6346V15.4333C71.9682 14.7085 72.106 14.0621 72.3815 13.494C72.6614 12.9213 73.0524 12.4763 73.5545 12.1586C74.0572 11.841 74.617 11.6822 75.2351 11.6822C76.2169 11.6822 76.9747 11.9976 77.5084 12.6284C78.0459 13.2591 78.3146 14.1516 78.3146 15.3058V15.9634H73.6016C73.6501 16.5629 73.848 17.0371 74.195 17.386C74.5456 17.735 74.9856 17.9094 75.515 17.9094C76.2573 17.9094 76.8618 17.6075 77.3285 17.0035L78.2017 17.8423C77.9125 18.2762 77.5258 18.614 77.0417 18.8556C76.5614 19.0927 76.0214 19.2112 75.4213 19.2112ZM75.2283 12.9907C74.7839 12.9907 74.424 13.1473 74.1484 13.4604C73.8772 13.7736 73.7034 14.2097 73.6283 14.7689H76.7147V14.6482C76.6793 14.1024 76.5347 13.6908 76.2815 13.4135C76.0283 13.1316 75.677 12.9907 75.2283 12.9907ZM85.6218 15.5205C85.6218 16.6434 85.3686 17.5403 84.8621 18.2114C84.3551 18.8779 83.6755 19.2112 82.8222 19.2112C82.0309 19.2112 81.3972 18.9495 80.9218 18.4261V21.8686H79.302V11.8164H80.7952L80.8616 12.5545C81.3377 11.973 81.9843 11.6822 82.8017 11.6822C83.6817 11.6822 84.3706 12.0132 84.8684 12.6753C85.3711 13.3329 85.6218 14.2478 85.6218 15.4198V15.5205ZM84.0088 15.3796C84.0088 14.6549 83.8642 14.08 83.575 13.655C83.2907 13.2301 82.8817 13.0175 82.3486 13.0175C81.6864 13.0175 81.211 13.2926 80.9218 13.8429V17.0639C81.2154 17.6276 81.6951 17.9094 82.3617 17.9094C82.8774 17.9094 83.2796 17.7014 83.5688 17.2853C83.8617 16.8648 84.0088 16.2296 84.0088 15.3796ZM91.0354 19.077C90.9647 18.9383 90.9026 18.7124 90.8493 18.3992C90.3335 18.9406 89.7024 19.2112 88.9557 19.2112C88.2309 19.2112 87.64 19.0032 87.182 18.5871C86.7246 18.1711 86.4956 17.6566 86.4956 17.0438C86.4956 16.2698 86.7799 15.6771 87.349 15.2655C87.9224 14.8495 88.7398 14.6414 89.8023 14.6414H90.7959V14.165C90.7959 13.7893 90.691 13.4895 90.4825 13.2658C90.2733 13.0377 89.9556 12.9236 89.5292 12.9236C89.1599 12.9236 88.8577 13.0175 88.6225 13.2054C88.3866 13.3888 88.2687 13.6237 88.2687 13.91H86.6489C86.6489 13.5118 86.7799 13.1405 87.0424 12.7961C87.3043 12.4471 87.6599 12.1743 88.1092 11.9775C88.5623 11.7806 89.0668 11.6822 89.6223 11.6822C90.4669 11.6822 91.1403 11.8969 91.6424 12.3264C92.1445 12.7514 92.4027 13.3508 92.4157 14.1248V17.3994C92.4157 18.0525 92.5069 18.5737 92.6888 18.9629V19.077H91.0354ZM89.2555 17.9027C89.5757 17.9027 89.8755 17.8244 90.1554 17.6678C90.4403 17.5113 90.6531 17.301 90.7959 17.0371V15.6682H89.922C89.3225 15.6682 88.8713 15.7733 88.5691 15.9836C88.2669 16.1938 88.1154 16.4913 88.1154 16.876C88.1154 17.1892 88.2178 17.4397 88.422 17.6276C88.6312 17.811 88.9092 17.9027 89.2555 17.9027ZM99.9692 11.8164V19.077H98.3494V13.1316H96.3095L96.176 15.6614C96.0916 16.8782 95.8583 17.7528 95.476 18.2852C95.098 18.8131 94.5183 19.077 93.7357 19.077H93.2361L93.2293 17.7215L93.5626 17.688C93.9182 17.6388 94.1758 17.4218 94.3359 17.0371C94.5003 16.6478 94.6046 15.941 94.6493 14.9165L94.7827 11.8164H99.9692ZM103.163 14.1248H104.75C105.341 14.1248 105.856 14.2277 106.296 14.4334C106.736 14.6392 107.07 14.9277 107.296 15.299C107.528 15.6703 107.643 16.1021 107.643 16.5942C107.643 17.3413 107.381 17.9407 106.856 18.3926C106.332 18.8444 105.634 19.0725 104.763 19.077H101.543V11.8164H103.163V14.1248ZM103.163 15.4333V17.7752H104.743C105.139 17.7752 105.45 17.6768 105.676 17.48C105.907 17.2786 106.023 16.9945 106.023 16.6277C106.023 16.2609 105.91 15.9723 105.683 15.7621C105.461 15.5473 105.159 15.4378 104.777 15.4333H103.163ZM114.777 19.077H113.157V16.1446H110.35V19.077H108.73V11.8164H110.35V14.8428H113.157V11.8164H114.777V19.077ZM115.93 15.3796C115.93 14.6683 116.071 14.0286 116.35 13.4604C116.63 12.8878 117.024 12.4494 117.531 12.1452C118.037 11.8365 118.619 11.6822 119.277 11.6822C120.25 11.6822 121.039 11.9976 121.644 12.6284C122.253 13.2591 122.582 14.0957 122.63 15.138L122.637 15.5205C122.637 16.2363 122.5 16.876 122.224 17.4397C121.953 18.0033 121.562 18.4395 121.05 18.7482C120.544 19.0569 119.957 19.2112 119.29 19.2112C118.273 19.2112 117.457 18.8712 116.844 18.1912C116.235 17.5068 115.93 16.5964 115.93 15.4601V15.3796ZM117.551 15.5205C117.551 16.2676 117.704 16.8537 118.011 17.2786C118.317 17.6992 118.744 17.9094 119.29 17.9094C119.837 17.9094 120.262 17.6947 120.564 17.2652C120.87 16.8357 121.024 16.2072 121.024 15.3796C121.024 14.6459 120.866 14.0644 120.551 13.6349C120.239 13.2054 119.815 12.9907 119.277 12.9907C118.749 12.9907 118.328 13.2032 118.017 13.6282C117.706 14.0487 117.551 14.6795 117.551 15.5205ZM126.911 19.2112C125.884 19.2112 125.051 18.8869 124.411 18.2382C123.776 17.5851 123.458 16.7172 123.458 15.6346V15.4333C123.458 14.7085 123.596 14.0621 123.871 13.494C124.151 12.9213 124.542 12.4763 125.044 12.1586C125.547 11.841 126.107 11.6822 126.724 11.6822C127.707 11.6822 128.464 11.9976 128.998 12.6284C129.535 13.2591 129.804 14.1516 129.804 15.3058V15.9634H125.091C125.14 16.5629 125.338 17.0371 125.685 17.386C126.035 17.735 126.475 17.9094 127.005 17.9094C127.747 17.9094 128.351 17.6075 128.817 17.0035L129.691 17.8423C129.402 18.2762 129.015 18.614 128.531 18.8556C128.051 19.0927 127.511 19.2112 126.911 19.2112ZM126.718 12.9907C126.274 12.9907 125.913 13.1473 125.637 13.4604C125.367 13.7736 125.193 14.2097 125.118 14.7689H128.204V14.6482C128.169 14.1024 128.024 13.6908 127.771 13.4135C127.518 13.1316 127.167 12.9907 126.718 12.9907ZM50.6934 32.8199C50.6226 32.6812 50.5599 32.4552 50.5066 32.1421C49.9915 32.6834 49.3603 32.954 48.6137 32.954C47.889 32.954 47.2979 32.746 46.8401 32.33C46.3823 31.9139 46.1534 31.3995 46.1534 30.7866C46.1534 30.0127 46.4379 29.4199 47.0068 29.0083C47.5801 28.5923 48.3977 28.3843 49.4602 28.3843H50.4538V27.9079C50.4538 27.5321 50.3489 27.2323 50.1404 27.0087C49.9313 26.7805 49.6135 26.6664 49.1865 26.6664C48.8179 26.6664 48.5156 26.7604 48.2804 26.9483C48.0446 27.1317 47.9268 27.3666 47.9268 27.6529H46.3068C46.3068 27.2547 46.4379 26.8834 46.7001 26.5389C46.9623 26.19 47.3179 25.9171 47.7668 25.7203C48.2202 25.5235 48.7248 25.425 49.2802 25.425C50.1249 25.425 50.7983 25.6398 51.3003 26.0692C51.8024 26.4942 52.06 27.0936 52.0736 27.8676V31.1423C52.0736 31.7954 52.1649 32.3166 52.3467 32.7058V32.8199H50.6934ZM48.9134 31.6455C49.2337 31.6455 49.5334 31.5673 49.8133 31.4107C50.0982 31.2541 50.3111 31.0438 50.4538 30.7799V29.411H49.58C48.9799 29.411 48.5293 29.5161 48.227 29.7264C47.9246 29.9366 47.7734 30.2341 47.7734 30.6189C47.7734 30.932 47.8757 31.1825 48.08 31.3704C48.2891 31.5538 48.5665 31.6455 48.9134 31.6455ZM58.3003 26.8744H55.1674V32.8199H53.5538V25.5593H58.3003V26.8744ZM61.9874 32.954C60.9609 32.954 60.1274 32.6297 59.4875 31.981C58.852 31.3279 58.5343 30.46 58.5343 29.3775V29.1761C58.5343 28.4514 58.6721 27.805 58.9476 27.2368C59.2275 26.6642 59.6185 26.2191 60.1212 25.9015C60.6233 25.5838 61.1831 25.425 61.8012 25.425C62.783 25.425 63.5408 25.7404 64.0745 26.3712C64.612 27.0019 64.8807 27.8944 64.8807 29.0486V29.7062H60.1677C60.2168 30.3057 60.4141 30.7799 60.7611 31.1289C61.1123 31.4778 61.5523 31.6523 62.0811 31.6523C62.8234 31.6523 63.4278 31.3503 63.8946 30.7464L64.7678 31.5851C64.4786 32.0191 64.0919 32.3568 63.6078 32.5984C63.1275 32.8355 62.5875 32.954 61.9874 32.954ZM61.7944 26.7335C61.35 26.7335 60.9901 26.8901 60.7145 27.2033C60.4433 27.5164 60.2695 27.9526 60.1944 28.5118H63.2808V28.391C63.2454 27.8453 63.1008 27.4337 62.8476 27.1563C62.5944 26.8744 62.2431 26.7335 61.7944 26.7335ZM71.9812 32.8199H70.3614V29.8874H67.555V32.8199H65.9345V25.5593H67.555V28.5856H70.3614V25.5593H71.9812V32.8199ZM79.1152 26.8543H76.7749V32.8199H75.1551V26.8543H72.8414V25.5593H79.1152V26.8543ZM82.4622 31.6523C82.8669 31.6523 83.202 31.5337 83.4689 31.2966C83.7357 31.0595 83.8778 30.7665 83.8952 30.4175H85.4219C85.4046 30.8694 85.2643 31.2921 85.0024 31.6858C84.7399 32.075 84.3843 32.3837 83.9356 32.6118C83.4869 32.84 83.0022 32.954 82.4821 32.954C81.4729 32.954 80.673 32.6253 80.0821 31.9676C79.4907 31.31 79.1953 30.4019 79.1953 29.2432V29.0755C79.1953 27.9705 79.4888 27.087 80.0753 26.4249C80.6624 25.7583 81.4624 25.425 82.4753 25.425C83.3336 25.425 84.0311 25.6778 84.5686 26.1833C85.111 26.6844 85.3953 27.3442 85.4219 28.1628H83.8952C83.8778 27.7468 83.7357 27.4046 83.4689 27.1362C83.2063 26.8678 82.8712 26.7335 82.4622 26.7335C81.9378 26.7335 81.5332 26.9259 81.2489 27.3107C80.964 27.6909 80.8201 28.2702 80.8157 29.0486V29.3103C80.8157 30.0977 80.9554 30.686 81.2353 31.0751C81.5201 31.4599 81.9291 31.6523 82.4622 31.6523ZM92.0495 26.8543H89.7092V32.8199H88.0894V26.8543H85.7757V25.5593H92.0495V26.8543ZM92.9829 32.8199V25.5593H95.9098C96.8966 25.5593 97.6475 25.7337 98.1632 26.0826C98.6784 26.4271 98.9365 26.9237 98.9365 27.5723C98.9365 27.9078 98.8316 28.2098 98.6231 28.4782C98.4183 28.7422 98.1142 28.9457 97.7096 29.0889C98.1806 29.1873 98.5542 29.3864 98.8298 29.6861C99.1053 29.9858 99.2431 30.3393 99.2431 30.7464C99.2431 31.4218 98.9942 31.9363 98.4965 32.2898C98.0031 32.6431 97.2919 32.8199 96.3628 32.8199H92.9829ZM94.6028 29.7264V31.5315H96.3765C97.2075 31.5315 97.6227 31.2317 97.6227 30.6322C97.6227 30.0283 97.2007 29.7264 96.356 29.7264H94.6028ZM94.6028 28.5588H95.9365C96.8562 28.5588 97.3161 28.2859 97.3161 27.7401C97.3161 27.1675 96.881 26.8722 96.0097 26.8543H94.6028V28.5588ZM100.07 29.1225C100.07 28.4111 100.21 27.7714 100.49 27.2033C100.77 26.6306 101.163 26.1922 101.67 25.888C102.177 25.5794 102.759 25.425 103.417 25.425C104.39 25.425 105.179 25.7404 105.783 26.3712C106.392 27.0019 106.721 27.8385 106.77 28.8808L106.777 29.2633C106.777 29.9791 106.639 30.6189 106.363 31.1825C106.092 31.7462 105.701 32.1824 105.19 32.491C104.683 32.7997 104.097 32.954 103.43 32.954C102.412 32.954 101.596 32.6141 100.983 31.9341C100.374 31.2496 100.07 30.3393 100.07 29.203V29.1225ZM101.69 29.2633C101.69 30.0104 101.844 30.5965 102.15 31.0215C102.457 31.442 102.884 31.6523 103.43 31.6523C103.977 31.6523 104.401 31.4375 104.703 31.008C105.01 30.5786 105.163 29.95 105.163 29.1225C105.163 28.3888 105.006 27.8072 104.69 27.3777C104.379 26.9483 103.954 26.7335 103.417 26.7335C102.888 26.7335 102.468 26.946 102.157 27.371C101.845 27.7915 101.69 28.4223 101.69 29.2633ZM117.118 32.8199H115.498V26.8744H112.684V32.8199H111.064V25.5593H117.118V32.8199ZM118.264 29.1225C118.264 28.4111 118.405 27.7714 118.685 27.2033C118.965 26.6306 119.358 26.1922 119.864 25.888C120.371 25.5794 120.954 25.425 121.611 25.425C122.585 25.425 123.373 25.7404 123.978 26.3712C124.587 27.0019 124.916 27.8385 124.965 28.8808L124.971 29.2633C124.971 29.9791 124.834 30.6189 124.558 31.1825C124.287 31.7462 123.896 32.1824 123.385 32.491C122.878 32.7997 122.291 32.954 121.624 32.954C120.607 32.954 119.791 32.6141 119.178 31.9341C118.569 31.2496 118.264 30.3393 118.264 29.203V29.1225ZM119.884 29.2633C119.884 30.0104 120.038 30.5965 120.345 31.0215C120.651 31.442 121.078 31.6523 121.624 31.6523C122.171 31.6523 122.596 31.4375 122.898 31.008C123.205 30.5786 123.358 29.95 123.358 29.1225C123.358 28.3888 123.2 27.8072 122.884 27.3777C122.573 26.9483 122.149 26.7335 121.611 26.7335C121.082 26.7335 120.663 26.946 120.351 27.371C120.04 27.7915 119.884 28.4223 119.884 29.2633ZM134.872 26.8543H132.532V32.8199H130.912V26.8543H128.598V25.5593H134.872V26.8543ZM138.286 30.4846L139.752 25.5593H141.479L138.612 33.9203C138.172 35.1416 137.425 35.7523 136.372 35.7523C136.137 35.7523 135.877 35.712 135.592 35.6315V34.3699L135.899 34.3901C136.308 34.3901 136.614 34.314 136.819 34.1619C137.028 34.0143 137.192 33.7638 137.312 33.4104L137.546 32.7863L135.012 25.5593H136.759L138.286 30.4846ZM148.459 29.2633C148.459 30.3862 148.206 31.2832 147.699 31.9542C147.193 32.6208 146.513 32.954 145.659 32.954C144.868 32.954 144.235 32.6924 143.759 32.1689V35.6114H142.14V25.5593H143.633L143.699 26.2974C144.175 25.7158 144.821 25.425 145.639 25.425C146.519 25.425 147.208 25.7561 147.706 26.4182C148.208 27.0758 148.459 27.9906 148.459 29.1627V29.2633ZM146.846 29.1225C146.846 28.3977 146.702 27.8229 146.413 27.3979C146.128 26.9729 145.719 26.7604 145.186 26.7604C144.524 26.7604 144.048 27.0355 143.759 27.5858V30.8067C144.053 31.3704 144.533 31.6523 145.199 31.6523C145.715 31.6523 146.117 31.4443 146.406 31.0282C146.699 30.6077 146.846 29.9724 146.846 29.1225ZM154.067 25.5593H155.68V32.8199H154.067V27.9749L151.24 32.8199H149.626V25.5593H151.24V30.4041L154.067 25.5593ZM162.593 27.5455C162.593 27.8676 162.496 28.1651 162.3 28.438C162.109 28.7064 161.838 28.9211 161.487 29.0822C162.313 29.373 162.727 29.9344 162.727 30.7665C162.727 31.433 162.458 31.9654 161.92 32.3635C161.383 32.7572 160.663 32.954 159.76 32.954C159.209 32.954 158.707 32.8623 158.253 32.6789C157.8 32.491 157.447 32.2271 157.193 31.8871C156.94 31.5426 156.814 31.1355 156.814 30.6659H158.427C158.427 30.9611 158.558 31.2094 158.82 31.4107C159.083 31.6075 159.413 31.7059 159.814 31.7059C160.209 31.7059 160.522 31.6142 160.754 31.4308C160.989 31.2429 161.107 30.9991 161.107 30.6994C161.107 30.346 161.005 30.091 160.8 29.9344C160.596 29.7778 160.28 29.6995 159.853 29.6995H158.693V28.5252H159.894C160.618 28.5163 160.98 28.2166 160.98 27.626C160.98 27.3308 160.876 27.1004 160.667 26.9349C160.458 26.7693 160.171 26.6865 159.807 26.6865C159.451 26.6865 159.151 26.7761 158.907 26.955C158.662 27.1294 158.54 27.3509 158.54 27.6193H156.927C156.927 26.9796 157.193 26.4562 157.727 26.0491C158.26 25.6375 158.938 25.4318 159.76 25.4318C160.653 25.4318 161.349 25.6152 161.847 25.982C162.344 26.3488 162.593 26.87 162.593 27.5455ZM168.114 30.8135L170.247 25.5593H172.274V32.8199H170.654V28.0152L168.667 32.8199H167.568L165.574 27.9884V32.8199H163.954V25.5593H165.994L168.114 30.8135ZM176.347 30.4846L177.815 25.5593H179.541L176.675 33.9203C176.235 35.1416 175.488 35.7523 174.434 35.7523C174.199 35.7523 173.939 35.712 173.655 35.6315V34.3699L173.961 34.3901C174.37 34.3901 174.677 34.314 174.881 34.1619C175.09 34.0143 175.255 33.7638 175.374 33.4104L175.608 32.7863L173.074 25.5593H174.821L176.347 30.4846Z" fill="#2A3338"/>
</svg>
