<svg width="76" height="64" viewBox="0 0 76 64" fill="none" xmlns="http://www.w3.org/2000/svg">
<path fill-rule="evenodd" clip-rule="evenodd" d="M50.9334 37.7866C50.8604 37.7866 50.6982 38.3172 50.8652 38.6935C50.9541 38.8938 51.1629 38.9784 51.3377 38.9223C51.5099 38.8671 51.56 38.7096 51.5647 38.587C51.5809 38.1746 51.2048 37.7866 50.9333 37.7866H50.9334ZM49.681 31.7699L49.7357 32.3525L49.2128 32.2963V32.9596L49.7357 32.9038L49.681 33.5122H50.3913L50.3364 32.9038L50.8592 32.9597V32.2964L50.3364 32.3525L50.3913 31.7699H49.681ZM50.037 34.0657C49.8956 34.0657 49.7809 34.1786 49.7809 34.3177C49.7809 34.4569 49.8956 34.5697 50.037 34.5697C50.1784 34.5697 50.2931 34.4569 50.2931 34.3177C50.2931 34.1785 50.1784 34.0657 50.037 34.0657ZM50.037 35.0859C49.8956 35.0859 49.7809 35.1988 49.7809 35.3379C49.7809 35.4771 49.8956 35.5899 50.037 35.5899C50.1784 35.5899 50.2931 35.4771 50.2931 35.3379C50.2931 35.1988 50.1784 35.0859 50.037 35.0859ZM50.037 36.1208C49.8956 36.1208 49.7809 36.2336 49.7809 36.3727C49.7809 36.5121 49.8956 36.6248 50.037 36.6248C50.1784 36.6248 50.2931 36.512 50.2931 36.3727C50.2931 36.2336 50.1784 36.1207 50.037 36.1207V36.1208ZM50.8642 36.3727C50.8642 36.5121 50.9789 36.6248 51.1203 36.6248C51.2618 36.6248 51.3764 36.512 51.3764 36.3727C51.3764 36.2336 51.2617 36.1207 51.1203 36.1207C50.9788 36.1207 50.8641 36.2335 50.8641 36.3727L50.8642 36.3727ZM51.9377 36.3727C51.9377 36.5121 52.0526 36.6248 52.194 36.6248C52.3355 36.6248 52.4501 36.512 52.4501 36.3727C52.4501 36.2336 52.3354 36.1207 52.194 36.1207C52.0526 36.1207 51.9377 36.2335 51.9377 36.3727V36.3727ZM50.037 37.5061C49.8178 37.5061 49.2769 38.5767 49.6801 39.1182C49.7572 39.2218 49.8923 39.28 50.037 39.28C50.1817 39.28 50.3169 39.2218 50.394 39.1182C50.7973 38.5767 50.2563 37.5061 50.037 37.5061ZM49.1408 37.7865C48.8692 37.7865 48.4931 38.1745 48.5092 38.5869C48.5139 38.7095 48.5642 38.8671 48.7364 38.9222C48.9111 38.9784 49.1201 38.8938 49.2089 38.6934C49.3758 38.3172 49.2137 37.7865 49.1408 37.7865ZM48.724 36.3727C48.724 36.512 48.8386 36.6248 48.9801 36.6248C49.1217 36.6248 49.2363 36.5119 49.2363 36.3727C49.2363 36.2335 49.1216 36.1207 48.98 36.1207C48.8385 36.1207 48.7239 36.2335 48.7239 36.3727H48.724ZM47.6768 36.3727C47.6768 36.512 47.7914 36.6248 47.9329 36.6248C48.0743 36.6248 48.1891 36.5119 48.1891 36.3727C48.1891 36.2335 48.0743 36.1207 47.9329 36.1207C47.7914 36.1207 47.6768 36.2335 47.6768 36.3727ZM47.4242 36.3727C47.4242 36.1579 47.4628 35.9643 47.4628 35.9643H49.5914V35.7867V34.2896V34.2894V33.8637C48.5639 34.0372 47.7422 34.8004 47.4972 35.7864C47.4376 35.8684 47.2445 35.9104 47.1084 35.8956C46.3229 35.803 44.7334 35.527 44.7334 35.2009C44.7334 34.7428 45.0555 34.5595 45.3649 34.5595C45.8063 34.5595 46.294 34.7897 46.7001 34.2235C45.2549 34.2872 46.3627 32.2761 45.1774 31.8945C45.2362 32.408 45.1779 33.3116 44.9909 33.7891C44.9909 33.7891 44.5662 33.3521 44.0892 33.1873C44.1249 33.5601 44.0524 34.3327 43.8793 34.6846C43.8793 34.6846 43.3742 34.2342 42.8504 34.0657C43.3337 34.7405 43.3171 35.7035 43.187 36.2893C43.1494 36.4588 43.2805 36.6697 43.649 36.6541C44.2254 36.6297 46.1942 36.7133 47.0482 37.0496C47.3137 37.1542 47.541 37.2741 47.6522 37.4565C47.7426 37.7019 47.9664 38.0823 48.2419 38.2772C48.3656 37.8528 48.8928 37.3983 49.2363 37.4146C49.3388 37.4195 49.4523 37.5846 49.4758 37.7463C49.5061 37.5959 49.7595 37.1804 50.037 37.1804C50.2931 37.1804 50.5393 37.5279 50.6247 37.8152C50.6505 37.6307 50.7637 37.4335 50.8663 37.4335C51.2113 37.4335 51.645 37.7282 51.8085 38.2149C51.9408 38.0561 52.5486 37.3036 52.6172 36.8099H47.4627C47.4627 36.8099 47.4241 36.5963 47.4241 36.3728L47.4242 36.3727ZM50.4827 33.8642V35.9643H52.6131C52.4279 34.8936 51.5704 34.0483 50.4827 33.8642ZM25.3431 35.5934C25.3878 35.6078 25.4331 35.5976 25.4776 35.5747C25.334 35.7673 25.34 35.8941 25.4018 35.9534C25.4989 36.046 25.5709 35.8757 25.8164 35.6247C26.0622 35.374 26.2321 35.2976 26.1354 35.2046C26.073 35.1448 25.9437 35.1432 25.7506 35.2947C25.772 35.2504 25.7802 35.2062 25.7647 35.1631C25.6834 34.9368 25.3053 34.6354 25.0969 34.6347C25.0668 34.635 25.037 34.641 25.0094 34.6524C25.1011 34.5106 25.0774 34.4036 25.0161 34.3448C24.9485 34.2803 24.9099 34.3255 24.8341 34.4189C24.8444 34.3536 24.8271 34.2772 24.7631 34.1839C24.4502 33.7279 22.7955 32.2265 22.4197 32.0757C22.1955 31.9853 22.1219 32.1103 22.1219 32.1103C22.1219 32.1103 21.9978 32.1874 22.0958 32.4064C22.2601 32.773 23.8501 34.3406 24.3206 34.6357C24.417 34.696 24.4945 34.7108 24.5601 34.6987C24.4686 34.7757 24.4248 34.8155 24.492 34.8798C24.5534 34.9386 24.6626 34.9585 24.8032 34.8631C24.7926 34.8909 24.7876 34.9205 24.7885 34.9501C24.7956 35.1559 25.1117 35.5202 25.3432 35.5933L25.3431 35.5934ZM21.3657 31.1516C21.3167 31.1516 21.247 31.1628 21.1958 31.215C21.1439 31.2679 21.1257 31.3498 21.1446 31.4447C21.1653 31.548 21.2264 31.6526 21.3168 31.7394C21.4252 31.8434 21.5614 31.9055 21.6809 31.9055C21.7302 31.9055 21.7994 31.8947 21.8507 31.8424C21.9625 31.7281 21.9073 31.4879 21.7298 31.3178C21.6212 31.214 21.4853 31.1517 21.3657 31.1517V31.1516ZM26.512 36.7248C26.5106 36.5662 26.1991 36.3001 25.8296 36.3001C25.2809 36.3001 25.0434 36.6356 25.0434 36.8066C25.0434 37.1285 25.3658 37.17 25.4646 37.1753C25.8509 37.1983 26.4736 36.8174 26.512 36.7248ZM26.0393 37.5286C25.8935 37.7088 25.8389 37.8848 25.8766 38.0516C25.9225 38.2536 26.1296 38.3443 26.3145 38.3443C26.5094 38.3443 26.6841 38.2556 26.7815 38.1067C26.9911 37.7879 27.0004 37.0815 26.9297 37.0043C26.7539 37.0043 26.2866 37.2231 26.0393 37.5287L26.0393 37.5286ZM21.2235 30.175C21.0684 30.0262 20.7513 30.2479 20.5617 30.1447C20.6458 29.6906 20.9789 30.1672 21.3009 29.8389C21.4292 29.7078 21.3604 29.5031 21.2867 29.4413C21.148 29.5769 20.9333 29.5299 20.9168 29.4545C21.2822 28.6214 20.5682 27.6925 19.8828 27.809C20.0173 27.9826 20.0575 28.5862 19.9988 28.7493C20.2598 28.9302 20.0733 29.3562 19.7853 29.2324C19.592 29.1565 19.2514 28.6905 19.6432 28.3622C19.6319 28.2439 19.4163 28.2151 19.1873 28.5002C19.3554 27.977 18.3265 28.141 18.1152 28.2666C17.995 28.4793 17.8617 29.5018 18.3849 29.3192C18.1043 29.5548 18.1401 29.7668 18.2599 29.7745C18.5792 29.3769 19.0603 29.6994 19.1433 29.888C19.2774 30.1692 18.8527 30.3665 18.6619 30.1142C18.4986 30.1775 17.8876 30.1567 17.7079 30.0292C17.612 30.7105 18.5727 31.387 19.4031 30.9999C19.4797 31.014 19.534 31.2242 19.4015 31.3658C19.4663 31.437 19.675 31.4985 19.8035 31.3673C20.125 31.039 19.633 30.7244 20.0893 30.6269C20.1994 30.8112 19.9857 31.1317 20.1406 31.2804C20.3887 31.5182 20.7004 31.0569 21.0065 31.0384C21.0154 30.7352 21.4717 30.4128 21.2236 30.1749L21.2235 30.175ZM18.6519 29.1231C18.6519 29.1231 18.4914 29.013 18.6839 28.8115C18.8811 28.6148 18.9976 28.7703 18.9976 28.7703C18.9976 28.7703 19.1784 29.1585 19.2318 29.3373C19.0495 29.29 18.6519 29.1231 18.6519 29.1231ZM20.2401 30.3039C20.1405 30.3161 19.9045 30.5188 19.7862 30.4053L19.2447 29.8865L19.5154 29.6094L19.7872 29.3328L20.3282 29.8522C20.4465 29.9653 20.2492 30.2052 20.2401 30.3039V30.3039ZM29.212 38.2555C29.2304 38.1779 29.2178 38.1154 29.1756 38.0751C29.1623 38.0624 29.1505 38.0552 29.1433 38.0552C29.1128 38.0552 29.0449 38.1361 28.9795 38.2144C28.9251 38.2794 28.8571 38.3603 28.7706 38.4484C28.6843 38.5369 28.6044 38.6064 28.5404 38.6625C28.4644 38.7289 28.3855 38.7977 28.3847 38.8287C28.3847 38.8359 28.3924 38.8477 28.4062 38.8608C28.4343 38.8879 28.4718 38.9012 28.5173 38.9012C28.5869 38.9012 28.7377 38.8669 28.9647 38.6349C29.1371 38.4592 29.1945 38.3317 29.2121 38.2556L29.212 38.2555ZM29.2153 38.8748C29.0973 38.9955 28.9774 39.0813 28.911 39.1251C28.9581 39.1711 29.0919 39.2527 29.2592 39.2527C29.3547 39.2527 29.4439 39.2256 29.5252 39.1721C29.6922 38.9066 29.5311 38.6351 29.4586 38.566C29.4163 38.6332 29.3331 38.7545 29.2152 38.8748H29.2153ZM27.388 37.3984C27.3021 37.476 27.1033 38.0149 27.19 38.343C27.2273 38.4836 27.3078 38.5437 27.444 38.5366C27.5849 38.5281 27.6617 38.4573 27.6854 38.3132C27.7394 37.9855 27.4817 37.4646 27.3879 37.3983L27.388 37.3984ZM27.2792 35.9008C27.2841 35.91 28.2986 36.7701 28.6391 37.0814C28.7193 37.1549 28.8298 37.1719 28.9422 37.1168C29.0062 37.0852 29.086 37.0489 29.1685 37.0124C30.1831 36.6669 31.8519 36.6279 32.4641 36.6541C32.8326 36.6695 32.9627 36.459 32.926 36.2892C32.8061 35.7348 32.7793 34.7405 33.2627 34.0657C32.7388 34.2342 32.2338 34.6845 32.2338 34.6845C32.0606 34.3327 31.9881 33.5601 32.0239 33.1872C31.5469 33.352 31.1221 33.7891 31.1221 33.7891C30.9352 33.3116 30.8769 32.408 30.9357 31.8945C29.7502 32.2761 30.8582 34.2872 29.4129 34.2235C29.819 34.7898 30.3068 34.5595 30.7481 34.5595C31.0576 34.5595 31.4421 34.7548 31.3798 35.201C31.3345 35.5241 29.3953 35.9263 28.6154 35.9263C28.0703 35.9263 27.7052 35.7641 27.4317 35.3995C27.3001 35.2242 27.1659 35.1449 27.0155 35.1672C26.8289 35.1949 26.6108 35.3787 26.6108 35.8043C26.6108 36.1059 26.7372 36.7669 27.1129 36.7669C27.3768 36.7669 27.3884 36.2445 27.2792 35.901L27.2792 35.9008ZM28.5331 38.221C28.7101 38.0398 28.7721 37.9079 28.7284 37.805C28.6651 37.6565 28.2623 37.2244 27.7351 36.737C27.7193 36.8376 27.6958 36.937 27.6648 37.0344C28.0201 37.4868 28.1528 37.9725 28.0331 38.3805C28.0764 38.4083 28.1033 38.421 28.119 38.4269C28.2554 38.4791 28.4257 38.3306 28.533 38.221H28.5331ZM25.9676 35.7608C25.965 35.7633 25.8995 35.8256 25.857 35.9096C25.9672 35.9103 26.0958 35.9285 26.2113 35.9585C26.2036 35.8599 26.196 35.7265 26.2061 35.6113C26.1086 35.6325 26.0038 35.7229 25.9677 35.7608H25.9676ZM43.6886 38.868C44.0226 38.7216 44.2634 38.3243 44.3268 37.9357C44.1152 38.0354 43.8766 38.0841 43.6015 38.0841C42.8447 38.0841 41.8939 37.6797 41.0322 37.3132C41.0322 37.3132 40.8463 37.4633 40.5384 37.4948C41.408 37.7516 43.1166 38.6628 43.2422 39.2473C43.3261 39.6382 43.0609 39.7874 43.0609 39.7874C42.6807 39.1914 41.701 38.2658 40.3933 37.8029C40.396 38.0208 40.3525 38.1736 40.3525 38.1736C40.3525 38.1736 40.0871 38.2364 39.5234 38.1424C40.0163 38.5374 41.3109 39.933 41.4515 40.992C41.5451 41.6989 41.0311 41.7316 41.0311 41.7316C40.9577 40.6683 40.3773 39.568 39.3298 38.4632C39.3298 38.4632 39.1581 38.722 38.9298 38.8526C38.9298 38.8526 38.5429 38.7867 38.2219 38.5826C38.3455 39.9855 38.4185 41.8079 38.3419 42.3595C38.2883 42.7437 38.0567 42.9045 38.0567 42.9045C38.0567 42.9045 37.8243 42.7436 37.7706 42.3595C37.694 41.8079 37.767 39.9855 37.8905 38.5826C37.5696 38.7867 37.1827 38.8526 37.1827 38.8526C36.9544 38.7221 36.7828 38.4632 36.7828 38.4632C35.7352 39.5681 35.1548 40.6683 35.0815 41.7316C35.0815 41.7316 34.5673 41.6989 34.6611 40.992C34.8016 39.9331 36.0963 38.5375 36.589 38.1424C36.0254 38.2364 35.7601 38.1737 35.7601 38.1737C35.7601 38.1737 35.7165 38.0208 35.7193 37.8029C34.4117 38.2658 33.432 39.1914 33.0516 39.7874C33.0516 39.7874 32.7865 39.6382 32.8706 39.2473C32.996 38.6629 34.7047 37.7516 35.5743 37.4948C35.2664 37.4634 35.0804 37.3132 35.0804 37.3132C34.2189 37.6798 33.2679 38.0841 32.5111 38.0841C32.2361 38.0841 31.9973 38.0354 31.7859 37.9357C31.8492 38.3244 32.0902 38.7216 32.4239 38.8681C31.2548 39.6586 31.9768 41.511 30.4089 41.1628C31.2832 42.7225 33.0516 42.8792 33.0516 42.8792C32.6599 42.0541 33.1483 39.5368 35.4955 38.393C34.0507 39.7771 33.3924 41.4551 33.7758 42.6389C34.1275 43.7256 35.2709 44.166 36.1317 44.1849C35.523 42.3883 35.8982 40.3306 37.1616 39.0354C36.6201 40.456 35.8589 44.2475 38.0569 44.9748C40.2545 44.2475 39.4928 40.456 38.9512 39.0354C40.2148 40.3306 40.5898 42.3883 39.9811 44.1849C40.8419 44.166 41.9853 43.7256 42.3371 42.6389C42.7204 41.4551 42.0621 39.7771 40.6174 38.393C42.9646 39.5368 43.4529 42.0541 43.061 42.8792C43.061 42.8792 44.8296 42.7225 45.704 41.1628C44.1359 41.5109 44.858 39.6586 43.6887 38.8681L43.6886 38.868ZM38.2432 7.61809C38.2432 7.50674 38.1518 7.4161 38.0396 7.4161C37.9272 7.4161 37.8359 7.50674 37.8359 7.61809C37.8359 7.72969 37.9271 7.82049 38.0396 7.82049C38.1518 7.82049 38.2432 7.72969 38.2432 7.61809ZM39.2707 7.61809C39.2707 7.50674 39.1796 7.4161 39.0671 7.4161C38.9549 7.4161 38.8636 7.50674 38.8636 7.61809C38.8636 7.72969 38.9549 7.82049 39.0671 7.82049C39.1796 7.82049 39.2707 7.72969 39.2707 7.61809ZM37.6743 2.37356C37.6743 2.58202 37.8453 2.75225 38.0554 2.75225C38.266 2.75225 38.4369 2.58202 38.4369 2.37356C38.4369 2.16477 38.266 1.99471 38.0554 1.99471C37.8453 1.99471 37.6743 2.16477 37.6743 2.37356ZM37.797 1.56895H38.316L38.2599 0.965342L38.8236 1.02315V0.545636L38.2599 0.603278L38.3159 0H37.797L37.8528 0.603278L37.2892 0.545636V1.02315L37.8528 0.965342L37.797 1.56895ZM37.2157 7.61809C37.2157 7.50674 37.1242 7.41602 37.012 7.41602C36.8996 7.41602 36.8083 7.50674 36.8083 7.61809C36.8083 7.72969 36.8996 7.82049 37.012 7.82049C37.1242 7.82049 37.2157 7.72969 37.2157 7.61809ZM35.9926 8.36719C36.0477 8.38627 36.1113 8.39667 36.1867 8.39667H39.9264C40.0018 8.39667 40.0655 8.38627 40.1204 8.36719C40.2412 8.32552 40.3145 8.23823 40.343 8.09871H35.7699C35.7983 8.23823 35.8718 8.32543 35.9926 8.36719ZM36.1982 7.61809C36.1982 7.50674 36.1069 7.41602 35.9944 7.41602C35.8822 7.41602 35.7907 7.50674 35.7907 7.61809C35.7907 7.72969 35.8822 7.82049 35.9944 7.82049C36.1068 7.82049 36.1981 7.72969 36.1981 7.61809H36.1982ZM40.2884 7.61809C40.2884 7.50674 40.197 7.41602 40.085 7.41602C39.9726 7.41602 39.8811 7.50674 39.8811 7.61809C39.8811 7.72969 39.9726 7.82049 40.085 7.82049C40.197 7.82049 40.2885 7.72969 40.2885 7.61809H40.2884ZM40.5329 7.13886C40.6383 7.01285 41.1624 6.03686 41.1624 5.05163C41.1624 4.16489 40.0051 3.67673 39.3165 3.65446C39.2369 4.92111 38.7246 6.90944 38.0567 6.90944C37.4247 6.90944 36.8755 4.93257 36.7967 3.65446C36.1083 3.67681 34.951 4.16489 34.951 5.05171C34.951 6.03695 35.4749 7.01285 35.5805 7.13886H40.5329H40.5329ZM38.0567 6.28037C38.3712 6.28037 38.7776 5.01896 38.8815 3.82501C38.8815 3.58331 38.5669 3.21355 38.0568 3.20388C37.5465 3.21346 37.2319 3.58323 37.2319 3.82501C37.323 4.93839 37.747 6.28037 38.0568 6.28037H38.0567ZM28.0588 12.7195C27.4485 13.5276 28.2925 14.4119 28.3446 14.473C28.3813 14.5161 28.4127 14.4967 28.4071 14.4484C28.4027 14.4068 28.8463 13.1607 31.4002 13.817C31.4548 13.831 31.4883 13.8321 31.4372 13.781C30.9654 13.421 30.4056 12.614 30.2247 11.9647C30.2247 11.9647 28.6692 11.9114 28.0588 12.7195ZM29.428 12.5505C29.428 12.3248 29.769 12.2625 29.9651 12.2625C29.9651 12.2625 30.0511 12.4805 30.1375 12.6011C29.9385 12.5155 29.6622 12.5068 29.428 12.5505ZM30.7836 11.496C30.6137 11.496 30.5502 11.6001 30.6057 11.7804C31.1926 13.6848 32.7923 14.1364 33.4239 14.9612C33.4239 14.9612 33.4194 14.7042 33.7124 14.0911C33.9118 14.4064 34.452 14.997 34.803 15.0722C34.719 14.9023 34.6193 14.2318 34.6971 13.7811C35.5261 14.4795 36.548 14.6167 37.0965 14.2138C36.6295 14.231 36.0215 13.7306 35.7154 13.2867C36.1428 13.3818 36.731 13.2838 36.8523 13.1656C36.5823 13.1022 36.255 12.8716 36.0578 12.6525C36.3611 12.6323 37.019 12.393 37.207 12.0557C36.9432 12.1134 36.5521 12.0096 36.2974 11.8799C36.4914 11.779 36.9755 11.2793 37.0917 10.8408C36.4042 11.1655 35.3194 11.4884 33.7126 11.4884C33.7126 11.4884 30.8732 11.496 30.7835 11.496H30.7836ZM32.5575 12.3642C32.1032 12.5375 31.8756 12.7714 31.8756 12.7714C31.8756 12.7714 31.6575 12.4269 31.5879 12.3162C31.5183 12.2055 31.4965 12.0698 31.7314 12.0698H33.1396C33.1396 12.1623 33.0117 12.1909 32.5574 12.3641L32.5575 12.3642ZM27.7498 15.4628C27.8968 15.6506 28.3127 16.2239 29.2251 15.7113C30.1373 15.1987 30.6078 14.9196 30.6078 14.9196C30.6078 14.9196 30.4653 15.1842 30.5735 15.5013C30.5797 15.5196 30.6012 15.5187 30.6094 15.4998C30.7002 15.2946 31.4926 14.7006 32.5029 14.6184C32.1325 14.3067 31.7261 14.029 31.7261 14.029C31.2945 14.096 30.4577 14.3802 29.3755 15.0569C28.293 15.7335 27.7944 15.4509 27.7737 15.4383C27.753 15.4255 27.7237 15.4295 27.7498 15.4628H27.7498ZM40.6781 37.0677C40.834 37.0198 40.9644 36.9433 41.0315 36.8574C40.3325 36.8283 39.7554 36.2473 39.5441 35.8888C39.3118 36.2587 38.8972 36.5476 38.8972 36.5476C38.6021 36.4726 38.1987 36.1631 38.0566 35.9263C37.9146 36.1631 37.5112 36.4727 37.216 36.5476C37.216 36.5476 36.8014 36.2587 36.5692 35.8889C36.3579 36.2474 35.7809 36.8283 35.0817 36.8574C35.1488 36.9433 35.2793 37.0198 35.4352 37.0677C35.5395 37.0999 35.655 37.1198 35.7712 37.1198C35.8944 37.1198 36.0181 37.0983 36.129 37.0482C36.0591 37.2925 36.0359 37.5939 36.087 37.8007C36.087 37.8007 36.4588 37.8289 36.8426 37.6894C36.8702 37.9126 36.9761 38.183 37.1499 38.3658C37.184 38.4016 37.2197 38.4352 37.259 38.4632C37.4651 38.4632 37.9628 38.232 38.0566 38.0895C38.1503 38.2319 38.6481 38.4632 38.8543 38.4632C38.8934 38.4352 38.9292 38.4015 38.9634 38.3658C39.137 38.183 39.243 37.9126 39.2706 37.6893C39.4432 37.7728 39.6437 37.8061 39.8657 37.8061C39.9192 37.806 39.9727 37.8042 40.0261 37.8007C40.0774 37.5939 40.0541 37.2924 39.9842 37.0482C40.0951 37.0982 40.2188 37.1197 40.3418 37.1197C40.4584 37.1197 40.5737 37.0999 40.6781 37.0676L40.6781 37.0677ZM33.7008 22.7204C33.5639 22.7204 33.4791 22.8046 33.4791 22.94V31.1659C33.4791 31.9502 33.8002 32.3481 34.4335 32.3481L36.0182 32.354C37.104 32.354 37.7446 32.7137 38.0566 33.1595C38.3219 32.7437 39.0676 32.354 40.0951 32.354L41.6793 32.3481C42.3127 32.3481 42.6338 31.9502 42.6338 31.1659V22.94C42.6338 22.8046 42.5489 22.7204 42.4123 22.7204H33.7008H33.7008ZM35.2486 30.4164C35.2334 30.5984 35.4533 30.9295 35.8161 30.8259C35.8052 30.8931 35.8256 31.0769 35.9066 31.2147C35.2638 31.3548 34.9865 30.846 35.2486 30.4164ZM41.0766 27.6933C40.9881 27.6029 40.9009 27.5115 40.8148 27.419C40.7231 27.321 40.6577 27.2828 40.5641 27.2828C40.3538 27.2828 40.1287 27.3937 40.0082 27.4705C40.0003 27.4736 39.9942 27.481 39.9913 27.5011C40.1191 27.4901 40.2474 27.481 40.375 27.4672C40.487 27.4547 40.5915 27.4591 40.688 27.5282C40.7639 27.5824 40.8068 27.6495 40.8109 27.7371C40.8231 28.0171 41.0554 28.6064 41.0697 28.7833C41.0878 28.8528 41.0009 28.8731 40.8805 29.1983C40.7916 29.294 40.5513 28.9905 40.5861 28.9194C40.7262 28.7437 40.7648 28.6342 40.7292 28.5033C40.7008 28.3981 40.6475 28.2101 40.608 28.1081C40.5552 27.9722 40.4363 27.9213 40.2887 27.97C39.7092 28.1551 39.6199 27.9084 39.0456 28.1404L39.707 29.1254C39.7046 29.0541 39.669 28.9252 39.562 28.8325C39.5813 28.7331 39.7899 28.6919 39.8679 28.7851C39.9636 28.9032 40.1502 29.0715 40.3038 29.0985C40.5989 29.151 40.5766 29.5823 41.3653 29.7265C41.2672 29.8243 41.0485 29.7912 40.9533 29.7469C41.0107 29.8325 41.077 29.9132 41.1958 29.9424C41.0735 30.0605 40.7228 29.7838 40.7586 30.0622C40.8193 30.0284 40.9033 30.0229 40.9744 30.0401C41.1318 30.078 41.39 30.9389 40.8462 31.3151C40.962 31.3486 41.0865 31.2897 41.2039 31.2897C41.2727 31.2897 41.337 31.3539 41.3438 31.4257C41.3945 31.4632 41.4278 31.5091 41.4574 31.5681C41.4164 31.5811 41.3374 31.569 41.2935 31.5409C41.3112 31.5887 41.307 31.7036 41.2885 31.7058C41.2394 31.7122 41.2015 31.685 41.1512 31.6561C41.0812 31.6906 40.8512 31.6765 40.786 31.6205C40.6124 31.6611 40.4409 31.7157 40.2599 31.7157C40.1623 31.7157 40.0336 31.7096 40.0383 31.5947C40.0405 31.5387 40.0693 31.5099 40.0919 31.4487C40.0087 31.3662 39.8699 31.4461 39.7044 31.4614C39.4801 31.4822 39.3876 31.4487 39.3389 31.4046C39.5507 31.2159 39.4229 30.756 39.0958 30.7153C39.3649 30.9635 39.3297 31.3651 39.0286 31.4553C39.1156 31.4825 39.1587 31.5202 39.192 31.5798C39.2979 31.6223 39.2995 31.6961 39.2915 31.7292C39.2335 31.6896 39.1292 31.6505 39.0459 31.6611C39.0399 31.6962 39.0248 31.7617 38.9933 31.787C38.9574 31.7795 38.9105 31.7477 38.8923 31.7226C38.7961 31.6514 38.1968 31.787 38.1604 31.6922C38.1374 31.604 38.2974 31.5299 38.445 31.4986C38.0654 31.3644 37.7361 30.6761 37.1517 30.5595C36.8807 30.5056 36.5135 30.6229 36.5135 30.9625C36.5135 31.1293 36.6528 31.2578 36.8034 31.2578C36.942 31.2578 37.0113 31.1655 37.0113 31.072C36.989 31.0883 36.9752 31.0984 36.9615 31.1091C36.8767 31.1761 36.7687 31.1718 36.6905 31.0984C36.6216 31.0337 36.6216 30.9215 36.6885 30.8455C36.7434 30.7823 36.8094 30.7467 36.8976 30.7342C37.1264 30.7021 37.3135 30.7724 37.4395 30.9493C37.4996 31.0337 37.5328 31.1239 37.5328 31.2114C37.5328 31.6026 37.126 31.6914 36.9008 31.6914C36.334 31.6914 36.0001 31.3006 36.0001 30.8483C36.0001 30.7956 36.0028 30.7421 36.0121 30.6884C36.1008 30.1793 36.5727 29.9665 36.9809 29.9028C36.9289 29.7256 36.8283 29.5825 36.6839 29.4657C36.6121 29.4075 36.6048 29.36 36.65 29.2859C36.7117 29.1845 36.7765 29.0848 36.8037 28.9705C36.81 28.9448 36.8127 28.9178 36.8148 28.89C36.6115 29.0655 36.3274 29.2263 35.9341 29.3411C35.8101 29.3963 35.7445 29.5051 35.7287 29.6303C35.7108 29.7756 35.7066 29.9229 35.7039 30.0694C35.7032 30.1033 35.7286 30.14 35.7479 30.1724C35.8211 30.2934 35.9019 30.4111 35.9199 30.5619C35.9199 30.6351 35.5382 30.6426 35.5382 30.584C35.5346 30.3187 35.3507 30.2157 35.3705 30.0405C35.4213 29.768 35.4326 29.4956 35.3863 29.2218C35.3746 29.1528 35.4128 29.1075 35.4637 29.0708C35.5448 29.0112 35.631 28.9579 35.712 28.8989C35.9031 28.7582 35.9821 28.575 35.9372 28.3477C35.9315 28.3182 35.9179 28.2897 35.9046 28.2618C35.8094 28.0597 35.7399 27.855 35.7399 27.6269C35.7399 27.377 35.4183 27.3912 35.4393 27.6369C35.4459 27.7136 35.5054 27.821 35.5388 27.8948C35.8686 28.6257 35.2756 29.152 34.6622 29.1517C35.307 28.9367 34.5115 28.1416 34.5115 27.5485C34.5115 27.1847 34.8033 26.9158 35.1515 26.9158C35.5532 26.9158 35.8078 27.1651 35.8808 27.208C36.0751 26.9112 36.67 26.8576 36.8934 26.8235C36.8763 26.6636 36.8997 26.5217 37.0014 26.399C37.0081 26.3907 37.0122 26.3754 37.0086 26.3665C36.9769 26.2909 36.9431 26.2163 36.8993 26.1432C36.7161 26.3424 36.6721 26.6063 36.6721 26.7428C35.9938 26.7332 35.6947 26.4472 35.4942 26.3346C35.495 26.2848 35.6755 25.972 35.8355 25.7656C35.6601 25.9104 35.5159 26.0734 35.41 26.2689C35.313 26.2014 35.2111 26.1404 35.1114 26.1005C35.2643 25.7852 35.4669 25.5398 35.725 25.2833C35.3615 25.4125 35.0451 25.8083 34.9252 26.0569C34.8215 26.0455 34.6682 26.0416 34.5827 26.0577C34.9788 25.5911 35.1599 24.672 36.0309 24.4659C35.8127 25.3182 36.3552 25.6646 36.7288 25.4422C36.6802 25.4422 36.6469 25.4496 36.6156 25.4422C35.8873 25.2642 36.3189 24.2929 36.1425 24.0907C36.0755 24.014 36.0409 23.9437 36.0518 23.8466C36.0557 23.8125 36.0452 23.7729 36.029 23.7415L35.6416 23.1187C35.5929 23.0404 35.7437 22.9846 35.7761 23.0206L36.1712 23.6434C36.1815 23.659 36.194 23.6818 36.2087 23.6844C36.3532 23.7089 36.3978 23.8241 36.4562 23.9261C36.4748 23.9591 36.4894 23.9968 36.4928 24.034C36.4955 24.0624 36.4874 24.102 36.4677 24.1213C36.4049 24.1825 36.4171 24.2428 36.4657 24.3222C36.5436 24.4494 38.8838 28.199 38.8838 28.199C38.3756 28.3992 37.4561 28.4154 37.1898 28.3905C37.1345 28.5207 37.0481 28.658 36.9204 28.7903C37.048 28.7104 37.1465 28.6091 37.2377 28.4989C37.3405 28.5104 37.4946 28.5499 37.6523 28.5611C37.559 28.7528 37.419 28.9437 37.2392 29.1035C37.1546 29.1838 37.0499 29.2547 37.0884 29.3831C37.1319 29.5276 37.4112 29.803 37.5132 29.9816C37.6143 30.0022 37.7851 30.0369 37.9103 30.085C37.9817 30.2327 38.2234 30.4182 38.5145 30.3221C37.9291 30.3151 37.9723 29.7379 38.1542 29.4327C38.1345 29.7162 38.2769 29.9515 38.4571 29.9784C38.1869 29.7411 38.2139 29.2023 38.4771 28.9066C38.5145 29.3866 38.6658 29.6388 38.8824 29.6959C38.5962 29.4427 38.4244 28.8567 38.8566 28.4297C38.8899 29.5254 39.9328 29.3278 40.0275 30.5961C40.4138 30.5961 40.4357 30.0957 40.2205 30.0038C40.0948 29.9585 39.9813 29.8788 39.917 29.7705C39.8902 29.7249 39.8625 29.6435 39.8406 29.5957C39.7258 29.2698 39.4016 29.2905 39.4095 29.2123C39.4171 29.1859 39.4682 29.1738 39.5398 29.1738L38.9289 28.266L38.8971 28.2186C38.9708 28.2043 38.9871 28.163 38.9114 28.0482C38.9114 28.0482 36.6194 24.3817 36.6084 24.3607C36.8215 24.3251 37.0262 24.3807 37.2256 24.4549C37.1724 24.4074 37.129 24.3411 37.1197 24.2726C37.112 24.2177 37.1141 24.1855 37.1602 24.1506C37.209 24.1124 37.2557 24.0682 37.2899 24.0183C37.4037 23.8518 37.6128 23.7705 37.8028 23.8226C38.0895 23.9009 38.1909 24.2128 37.9802 24.3767C37.868 24.6146 37.7289 24.5847 37.7003 24.6913C37.7566 24.7163 38.1487 25.0077 38.1749 25.1303C38.058 25.3643 37.9999 25.7301 38.1013 25.9343C38.1771 24.9616 38.7859 24.4859 39.379 24.4859C39.5198 24.4859 39.6598 24.5094 39.8002 24.5554C39.877 24.5803 39.9537 24.6163 40.0177 24.663C40.1104 24.7312 40.1966 24.8073 40.2752 24.8903C40.3909 25.0126 40.4969 25.1433 40.6937 25.1517C40.6361 25.2306 40.5706 25.2883 40.5036 25.345C40.4553 25.3867 40.4309 25.4367 40.425 25.4995C40.4113 25.6346 40.3652 25.7583 40.2619 25.8578C40.2479 25.8713 40.2372 25.8874 40.2304 25.9053C40.1646 26.0889 40.0979 26.2719 40.0361 26.4567C40.0207 26.5017 40.0241 26.5637 39.961 26.563C39.9062 26.5623 39.8399 26.5469 39.799 26.5148C39.712 26.4472 39.6809 26.3486 39.712 26.2445C39.743 26.141 39.712 26.0522 39.6779 25.9559C39.643 25.8596 39.631 25.7555 39.6075 25.6457C39.4456 25.591 39.1416 25.9257 39.3737 26.2059C39.5243 26.4128 39.6597 26.7933 39.6832 26.9491C39.6881 26.9645 39.5461 27.0505 39.3505 27.0265C38.6895 26.9452 38.2714 26.5038 38.1443 26.1314C38.1339 26.7623 38.6784 27.2299 39.4853 27.1846C39.5182 27.3316 39.643 27.4314 39.7884 27.4361C39.8186 27.3412 39.8179 27.1421 39.7932 27.0156C39.7823 26.9599 39.8127 26.9314 39.8663 26.9181C40.0427 26.875 40.2724 26.8918 40.4688 26.8244C40.643 26.7641 40.7254 26.7994 40.8337 27.002C40.9157 27.1549 41.0561 27.3195 41.1886 27.4329C41.2442 27.4803 41.2999 27.5284 41.3524 27.5791C41.4194 27.6436 41.4542 27.7195 41.4594 27.8134C41.4422 27.9603 41.4625 28.2563 41.4625 28.261C41.4243 28.358 41.1454 28.2553 41.1003 28.1511C41.0833 28.1122 41.2197 27.8394 41.0766 27.6932V27.6933ZM45.8886 11.9647C45.7077 12.614 45.1479 13.421 44.6762 13.781C44.625 13.8321 44.6585 13.831 44.7131 13.817C47.2669 13.1607 47.7106 14.4068 47.7061 14.4484C47.7006 14.4967 47.732 14.5162 47.7686 14.4731C47.8208 14.412 48.6647 13.5276 48.0545 12.7195C47.444 11.9114 45.8886 11.9648 45.8886 11.9648V11.9647ZM45.9758 12.6011C46.0621 12.4805 46.1483 12.2625 46.1483 12.2625C46.3442 12.2625 46.6853 12.3248 46.6853 12.5505C46.451 12.5067 46.1748 12.5155 45.9758 12.6011ZM48.3635 15.4628C48.3896 15.4295 48.3601 15.4255 48.3395 15.4383C48.3188 15.4509 47.8201 15.7335 46.7378 15.0569C45.6554 14.3802 44.8187 14.096 44.3871 14.029C44.3871 14.029 43.9807 14.3067 43.6102 14.6184C44.6205 14.7006 45.413 15.2946 45.5038 15.4998C45.5121 15.5187 45.5334 15.5196 45.5397 15.5013C45.648 15.1842 45.5054 14.9196 45.5054 14.9196C45.5054 14.9196 45.9759 15.1987 46.8881 15.7112C47.8005 16.2239 48.2164 15.6506 48.3634 15.4628H48.3635ZM39.8158 11.88C39.5611 12.0097 39.1701 12.1134 38.9062 12.0557C39.0943 12.393 39.7522 12.6323 40.0553 12.6526C39.8583 12.8716 39.5308 13.1022 39.2609 13.1656C39.3823 13.2838 39.9705 13.3818 40.3979 13.2867C40.0917 13.7306 39.4837 14.231 39.0168 14.2138C39.5653 14.6167 40.5874 14.4795 41.4162 13.7812C41.494 14.2318 41.3943 14.9023 41.3103 15.0722C41.6614 14.997 42.2016 14.4064 42.401 14.0911C42.6938 14.7043 42.6895 14.9612 42.6895 14.9612C43.3212 14.1365 44.9208 13.6848 45.5077 11.7804C45.5631 11.6001 45.4996 11.496 45.3297 11.496C45.2401 11.496 42.4008 11.4884 42.4008 11.4884C40.7938 11.4884 39.709 11.1655 39.0216 10.8409C39.1377 11.2793 39.6218 11.779 39.816 11.8799L39.8158 11.88ZM44.3819 12.0698C44.6167 12.0698 44.5949 12.2055 44.5253 12.3162C44.4557 12.4269 44.2377 12.7715 44.2377 12.7715C44.2377 12.7715 44.0101 12.5375 43.5559 12.3641C43.1016 12.1909 42.9736 12.1623 42.9736 12.0698H44.3819ZM33.8744 14.9223C33.7829 15.1714 33.7559 15.4463 33.8045 15.8038C34.0998 16.4202 34.2427 17.5646 34.1515 18.2045C34.6219 17.5739 34.8308 16.8647 34.9654 16.2972C35.2351 16.5624 35.5851 16.942 35.8293 17.2496C35.8712 16.9165 35.9457 16.5052 36.0107 16.2082C36.3622 16.5306 37.0913 16.9355 37.5844 17.0791C37.2525 15.7333 36.6845 14.8756 36.6845 14.8756C36.2025 14.9222 35.4262 14.8094 35.0772 14.4794C35.1395 14.967 35.4886 15.5276 35.4886 15.5276C34.7407 15.5977 34.2109 15.3524 33.8744 14.9223H33.8744ZM42.2388 14.9223C41.9023 15.3524 41.3726 15.5977 40.6246 15.5276C40.6246 15.5276 40.9736 14.967 41.0359 14.4795C40.6869 14.8094 39.9108 14.9223 39.4287 14.8756C39.4287 14.8756 38.8608 15.7333 38.5287 17.079C39.022 16.9355 39.7511 16.5306 40.1024 16.2081C40.1676 16.5051 40.2419 16.9165 40.2839 17.2496C40.528 16.9421 40.8779 16.5624 41.1479 16.2972C41.2825 16.8647 41.4913 17.5739 41.9617 18.2044C41.8705 17.5646 42.0134 16.4202 42.3085 15.8038C42.3573 15.4462 42.3302 15.1713 42.2387 14.9222L42.2388 14.9223ZM35.8056 19.162C36.0878 19.598 36.339 20.1223 36.426 20.5893C36.6965 20.2747 36.9824 19.7278 37.176 19.0745C37.4134 19.3597 37.8282 19.9406 38.0566 20.4197C38.2849 19.9406 38.6997 19.3597 38.9371 19.0745C39.1309 19.7278 39.4166 20.2747 39.6872 20.5893C39.7741 20.1223 40.0253 19.598 40.3075 19.1621C40.5222 20.0106 41.3502 20.836 42.2046 20.8981C41.6488 20.2046 41.6259 19.0059 41.6652 18.6067C41.2951 18.0537 41.0513 17.5547 40.9347 17.2157C40.6836 17.4542 40.2954 17.9178 39.9469 18.4536C39.9469 18.4471 39.9369 17.7818 39.798 16.9739C39.4388 17.2858 38.7882 17.5117 38.4406 17.5993C38.2211 17.9432 38.161 18.2115 38.0566 18.643C37.9522 18.2115 37.892 17.9432 37.6726 17.5993C37.3248 17.5116 36.6745 17.2858 36.3152 16.9739C36.1762 17.7818 36.1662 18.4471 36.1662 18.4536C35.8176 17.9178 35.4295 17.4542 35.1783 17.2157C35.0618 17.5547 34.8181 18.0537 34.4478 18.6068C34.4873 19.006 34.4642 20.2047 33.9083 20.8981C34.763 20.8361 35.5909 20.0106 35.8054 19.1621L35.8056 19.162ZM28.0633 29.1974C28.543 28.8967 28.8464 28.3504 29.1919 27.6822C28.9907 27.7622 28.6993 27.8488 28.4072 27.9071C28.1223 28.4367 27.7188 28.2313 27.7083 28.1562C27.7956 28.0633 27.8951 27.926 27.97 27.8065C27.8486 27.5881 27.7023 27.2629 27.6216 27.0617C27.2139 27.8865 26.4651 28.7243 25.8381 29.0511C26.2071 29.5439 27.3505 29.6442 28.0633 29.1974ZM29.5455 27.8073C29.2054 28.4972 29.2855 29.5602 30.3683 29.5904C30.2785 28.8376 30.6314 28.1294 31.0086 27.8074C30.6842 27.8843 30.1559 28.2933 30.1559 28.2933C30.1559 28.2933 30.0764 28.4686 30.0604 28.6954C29.8337 28.7343 29.7085 28.5665 29.8026 28.2165C29.8026 28.2165 29.6388 28.0365 29.5455 27.8074V27.8073ZM24.185 28.5951C24.3446 28.5949 24.5036 28.5762 24.6586 28.5394C25.7043 28.2911 26.7001 27.4318 27.292 26.7104C26.9538 26.8132 26.6124 26.88 26.2338 26.9169C26.2338 26.9169 25.9687 27.215 25.7646 27.3251C25.6611 27.3815 25.5578 27.4084 25.4598 27.4084C25.164 27.4084 25.0384 27.1752 25.0384 27.1752C25.0384 27.1752 25.5155 26.9555 25.8192 26.6433C25.759 26.4133 25.7207 26.0946 25.7138 25.7769C24.8904 26.5717 23.3428 27.344 22.2618 27.4939C22.4758 27.9219 23.2348 28.5951 24.1851 28.5951H24.185ZM22.0914 26.9092C22.1457 26.9091 22.1999 26.9067 22.2539 26.9017C23.3286 26.7996 24.6257 26.1381 25.4609 25.5657C25.1951 25.6176 24.4959 25.6326 24.1643 25.5882C24.0496 25.662 23.5437 25.9692 23.1229 26.0205C22.3554 26.1139 22.2742 25.6576 22.2742 25.6576C22.7673 25.5997 23.3358 25.4397 23.8792 25.1966C23.9338 24.8034 24.0285 24.4529 24.1094 24.1944C22.9246 24.8285 20.9917 25.2745 19.8451 25.2892C20.0746 25.8128 20.9641 26.9091 22.0914 26.9091V26.9092ZM22.2604 23.1895C22.4256 22.9086 22.6871 22.5768 22.925 22.3062C21.9791 22.5565 20.7614 22.6088 20.1158 22.6088C19.3548 22.6088 18.6153 22.5572 18.191 22.4753C18.2287 23.2101 18.956 24.4775 20.3908 24.6011C20.4657 24.6078 20.5485 24.611 20.637 24.611C21.5323 24.611 22.9559 24.2629 23.9357 23.9288C23.2371 23.8425 22.5625 23.6832 22.4086 23.6211C22.0443 23.7216 21.174 23.8619 20.8914 23.8469C20.2499 23.8131 20.1812 23.3397 20.1812 23.3397C20.1812 23.3397 21.3357 23.3866 22.2604 23.1895ZM18.8158 21.8432C19.349 22.0086 20.1992 22.1036 21.1486 22.1036C21.7278 22.1036 22.3388 22.0538 22.8358 21.986C22.299 21.8103 21.6367 21.5448 21.2062 21.2818C20.6681 21.2715 19.9378 21.2568 19.4688 21.1189C18.7791 20.916 18.7889 20.4627 18.8012 20.3609C19.3975 20.5913 20.4118 20.8117 21.1615 20.8546C21.4379 20.5988 21.8648 20.2939 22.3152 20.0285C20.5362 20.0435 18.2652 19.3664 16.9891 18.7172C16.6974 20.9986 18.3096 21.6856 18.8158 21.8431V21.8432ZM22.7264 17.1127C22.4519 16.6066 22.1842 15.9257 22.1488 15.3388C21.3168 14.7105 20.3671 13.9111 19.8176 12.9974C19.5 12.4692 19.6172 12.0063 19.8421 11.847C20.0137 12.4208 21.131 14.0276 22.1438 14.8333C22.1517 14.3183 22.2418 13.7261 22.3815 13.2807C21.204 12.0492 19.8841 10.0095 19.5653 9.21037C19.207 9.49555 18.5892 10.213 18.4374 11.2241C18.2845 12.2417 18.6279 13.2872 19.4578 14.3314C20.0962 15.1347 21.5013 16.3323 22.7264 17.1127V17.1127ZM22.388 19.7007C21.5785 19.1849 21.0174 18.7063 20.7183 18.2765C20.0419 18.0236 19.1673 17.6377 18.7365 17.2899C18.1444 16.8125 18.3319 16.3828 18.4008 16.2969C18.9221 16.8084 20.0509 17.5456 20.8527 17.8736C21.3533 17.6861 22.0488 17.5487 22.7264 17.4686C20.7181 16.7061 18.5623 15.2746 17.4358 13.9252C17.2073 14.3515 16.2794 16.3567 18.0191 18.001C18.9353 18.8672 20.8227 19.4648 22.3879 19.7008L22.388 19.7007ZM48.4916 27.0618C48.4109 27.2629 48.2646 27.5882 48.143 27.8066C48.2179 27.926 48.3177 28.0633 48.4048 28.1562C48.3942 28.2314 47.9908 28.4367 47.706 27.9071C47.4138 27.8489 47.1224 27.7622 46.9212 27.6822C47.2668 28.3504 47.5701 28.8967 48.0498 29.1974C48.7627 29.6442 49.9061 29.544 50.275 29.0511C49.6479 28.7243 48.8992 27.8865 48.4916 27.0617V27.0618ZM46.5676 27.8074C46.4745 28.0365 46.3106 28.2165 46.3106 28.2165C46.4047 28.5665 46.2795 28.7343 46.0526 28.6954C46.0367 28.4686 45.9571 28.2933 45.9571 28.2933C45.9571 28.2933 45.4289 27.8842 45.1045 27.8073C45.4816 28.1294 45.8347 28.8376 45.7448 29.5904C46.8277 29.5603 46.9078 28.4972 46.5676 27.8074ZM50.2941 26.6434C50.5977 26.9555 51.0747 27.1753 51.0747 27.1753C51.0747 27.1753 50.9492 27.4084 50.6534 27.4084C50.5554 27.4084 50.4521 27.3815 50.3485 27.3252C50.1445 27.215 49.8793 26.917 49.8793 26.917C49.5008 26.8801 49.1592 26.8134 48.8211 26.7105C49.413 27.4319 50.4088 28.2912 51.4544 28.5394C51.6094 28.5762 51.7685 28.5949 51.9282 28.5951C52.8782 28.5951 53.6375 27.9219 53.8514 27.494C52.7704 27.344 51.2228 26.5718 50.3994 25.777C50.3924 26.0947 50.3541 26.4133 50.2941 26.6434ZM52.2339 25.1966C52.7773 25.4398 53.3459 25.5997 53.8391 25.6577C53.8391 25.6577 53.7578 26.1141 52.9901 26.0205C52.5694 25.9692 52.0635 25.662 51.9489 25.5882C51.6172 25.6326 50.918 25.6176 50.6522 25.5657C51.4875 26.1381 52.7845 26.7996 53.8592 26.9017C53.9132 26.9067 53.9674 26.9091 54.0217 26.9092C55.1491 26.9092 56.0386 25.8128 56.268 25.2893C55.1214 25.2745 53.1886 24.8285 52.0038 24.1945C52.0847 24.4529 52.1793 24.8034 52.2339 25.1966ZM53.1881 22.3062C53.426 22.5769 53.6874 22.9087 53.8526 23.1895C54.7773 23.3866 55.9317 23.3397 55.9317 23.3397C55.9317 23.3397 55.8631 23.813 55.2219 23.8468C54.9391 23.8618 54.0689 23.7216 53.7046 23.6211C53.5506 23.6831 52.876 23.8425 52.1776 23.9288C53.1571 24.2629 54.581 24.611 55.4761 24.611C55.5648 24.611 55.6475 24.6078 55.7222 24.6011C57.1572 24.4775 57.8846 23.2101 57.9222 22.4754C57.4981 22.5572 56.7583 22.6089 55.9973 22.6089C55.3519 22.6089 54.134 22.5566 53.1881 22.3062ZM59.1241 18.7173C57.848 19.3665 55.5769 20.0436 53.7979 20.0286C54.2484 20.294 54.6753 20.5989 54.9517 20.8547C55.7013 20.8117 56.7156 20.5914 57.3118 20.361C57.324 20.4627 57.3338 20.9161 56.6442 21.1189C56.1753 21.2568 55.445 21.2715 54.9069 21.2818C54.4764 21.5449 53.8141 21.8103 53.2772 21.986C53.7743 22.0537 54.3853 22.1036 54.9646 22.1036C55.914 22.1036 56.7642 22.0087 57.2972 21.8432C57.8035 21.6858 59.4158 20.9986 59.124 18.7173H59.1241ZM56.2711 11.8471C56.496 12.0064 56.6131 12.4693 56.2956 12.9974C55.746 13.9111 54.7964 14.7105 53.9643 15.3388C53.929 15.9257 53.6611 16.6066 53.3866 17.1127C54.6117 16.3323 56.017 15.1347 56.6552 14.3315C57.4852 13.2872 57.8286 12.2417 57.6756 11.2242C57.5238 10.213 56.9062 9.49555 56.5477 9.21037C56.229 10.0095 54.909 12.0492 53.7315 13.2807C53.8713 13.7261 53.9614 14.3183 53.9695 14.8333C54.9821 14.0276 56.0994 12.4209 56.2711 11.8471ZM55.2604 17.8737C56.0622 17.5456 57.1911 16.8084 57.7121 16.297C57.7812 16.3828 57.9686 16.8125 57.3766 17.2899C56.9457 17.6377 56.0711 18.0237 55.3948 18.2765C55.0957 18.7063 54.5346 19.1849 53.7251 19.7008C55.2902 19.4648 57.1777 18.8672 58.0941 18.0011C59.8337 16.3568 58.9056 14.3515 58.6773 13.9252C57.5508 15.2747 55.395 16.7061 53.3866 17.4687C54.0644 17.5488 54.7599 17.6862 55.2604 17.8737ZM50.5808 15.5652C49.9286 17.0202 48.275 18.3174 47.2053 18.9669C46.7173 19.263 46.8954 19.8248 47.0515 20.074C48.5087 22.402 45.8587 24.1369 43.4653 22.9831C43.9876 22.9887 44.5148 22.562 44.5878 22.1816C44.4218 22.3195 43.7422 22.2438 43.5413 22.0652C43.8496 21.9101 43.9229 21.7529 43.9389 21.606C43.5576 21.831 42.7869 21.862 42.5598 21.4818C41.2951 21.4489 40.4539 20.4999 40.3609 20.226C40.2671 20.5174 40.1158 21.0265 40.0661 21.529C39.723 21.3056 39.1374 20.8003 38.832 20.115C38.4864 20.5896 38.2257 21.1243 38.0565 21.6876C37.8873 21.1243 37.6269 20.5896 37.2812 20.115C36.9757 20.8003 36.39 21.3057 36.0471 21.529C35.9972 21.0266 35.8461 20.5175 35.7523 20.2261C35.6592 20.5 34.818 21.4491 33.5533 21.4818C33.3262 21.8621 32.5556 21.831 32.1742 21.606C32.1901 21.753 32.2635 21.9102 32.5717 22.0653C32.3709 22.2438 31.6913 22.3197 31.5252 22.1817C31.5982 22.562 32.1256 22.9887 32.6477 22.9832C30.2543 24.1369 27.6043 22.402 29.0617 20.0741C29.2178 19.8249 29.3959 19.2631 28.9079 18.9669C27.8382 18.3173 26.1845 17.0202 25.5322 15.5652C25.4547 16.1585 25.5138 17.6309 26.1763 18.547C25.6923 18.7251 25.0715 19.0139 24.6542 19.2818C24.9182 19.5703 25.5327 20.0687 25.9457 20.3396C25.6086 20.6279 25.0854 21.1799 24.8108 21.5414C25.1586 21.7404 25.8597 21.982 26.3955 22.145C26.1478 22.5381 25.767 23.2471 25.6713 23.669C26.2712 23.753 26.8835 23.7453 27.4239 23.7289C27.355 24.2209 27.4004 24.8387 27.4545 25.2888C28.0113 25.2119 28.6237 24.9946 29.03 24.7888C29.1071 25.1283 29.3195 25.755 29.51 26.0905C30.0381 25.6082 30.7347 25.3876 31.3797 25.5154C32.7001 25.777 33.0926 27.0618 33.0926 27.0618L33.0947 23.1535V22.7171C33.0947 22.4735 33.2309 22.3445 33.4754 22.3446H42.6378C42.8824 22.3445 43.0186 22.4735 43.0186 22.7171V23.1534L43.0206 27.0617C43.0206 27.0617 43.4131 25.7769 44.7335 25.5153C45.3785 25.3875 46.0752 25.6082 46.6034 26.0904C46.7939 25.7549 47.0063 25.1282 47.0833 24.7887C47.4895 24.9945 48.1021 25.2118 48.6588 25.2888C48.7129 24.8387 48.7582 24.2209 48.6894 23.7289C49.2236 23.7821 49.8381 23.7821 50.4419 23.669C50.3464 23.2471 49.9655 22.5381 49.7177 22.1451C50.275 22.0013 50.9545 21.7404 51.3025 21.5414C51.028 21.1799 50.5047 20.628 50.1677 20.3397C50.5805 20.0687 51.195 19.5703 51.4592 19.2819C51.0417 19.0139 50.4209 18.7251 49.9369 18.5471C50.5993 17.6309 50.6586 16.1585 50.5809 15.5652H50.5808ZM33.9285 10.99L33.874 11.1271C35.475 11.1271 37.0139 10.6002 37.4245 8.7652H36.1983C35.9807 10.0871 35.1729 10.99 33.9285 10.99ZM27.0073 8.00455C27.0073 8.00455 27.883 8.19975 28.2256 9.3851C28.5684 10.5705 29.4297 11.1375 30.3132 11.1375L30.2589 10.976C29.7447 10.9144 29.0198 10.21 28.8843 8.90546C28.7475 7.59205 28.4126 7.42289 28.4126 7.42289C28.0666 7.19265 27.1969 7.80068 27.0072 8.00455H27.0073ZM24.4458 8.5348C25.1762 8.51179 25.6677 8.73523 26.5858 7.93086C27.6694 6.98075 28.1838 7.14312 28.1838 7.14312C27.6308 6.79702 26.8597 6.64325 26.5948 6.84311C26.3299 7.04314 25.9714 7.57977 25.3689 7.96181C24.5199 8.50016 23.6477 8.3581 23.6087 8.85993H23.6323C23.6323 8.85993 23.7155 8.55797 24.4457 8.5348H24.4458ZM25.1196 11.6839C25.5636 12.105 25.6043 12.9702 25.6043 12.9702C25.6043 12.9702 26.136 12.0531 25.6979 11.0781C25.2598 10.1033 24.3645 9.35529 25.2422 8.786C24.7061 8.79034 24.1251 8.6717 23.87 9.02132C23.7905 9.13021 23.717 9.40016 23.9842 9.78417C24.3238 10.2722 25.172 11.4069 24.4769 12.1626C24.985 12.0724 25.1195 11.6839 25.1195 11.6839H25.1196ZM30.6034 11.1323H33.6116C33.6116 11.1323 33.686 10.9567 33.7809 10.703H30.4343C30.5292 10.9567 30.6034 11.1323 30.6034 11.1323ZM32.4035 7.02325C32.4035 6.86522 32.2736 6.73692 32.1136 6.73692C31.9535 6.73692 31.8236 6.86522 31.8236 7.02325C31.8236 7.18135 31.9535 7.30949 32.1136 7.30949C32.2736 7.30949 32.4035 7.18144 32.4035 7.02325ZM33.906 10.379C34.0345 9.99091 34.1795 9.40065 34.1795 9.1158C34.1795 8.5953 33.8882 8.01905 32.837 7.84162C32.837 8.47069 32.5193 10.012 32.1351 10.012H32.0919C31.708 10.012 31.3902 8.48215 31.3902 7.84145C30.3354 8.01864 30.0356 8.59506 30.0356 9.1158C30.0356 9.40065 30.1806 9.99091 30.3093 10.379H33.906ZM32.1136 9.58038C32.3138 9.58038 32.476 8.57393 32.476 8.07292C32.476 7.79912 32.3138 7.61965 32.1136 7.61965C31.9134 7.61965 31.7511 7.79912 31.7511 8.07292C31.7511 8.57393 31.9134 9.58038 32.1136 9.58038ZM31.9202 6.3552H32.3069L32.2586 5.87802L32.7418 5.92584V5.54404L32.2586 5.59177L32.3069 5.11459H31.9202L31.9685 5.59177L31.4853 5.54404V5.92584L31.9685 5.87802L31.9202 6.3552ZM39.9148 8.7652H38.6886C39.0992 10.6002 40.6382 11.1271 42.239 11.1271L42.1847 10.99C40.9403 10.99 40.1324 10.0872 39.9149 8.7652H39.9148ZM45.7999 11.1375C46.6834 11.1375 47.5447 10.5706 47.8875 9.3851C48.2301 8.19975 49.1059 8.00464 49.1059 8.00464C48.9161 7.80076 48.0466 7.19273 47.7005 7.42289C47.7005 7.42289 47.3657 7.59213 47.229 8.90554C47.0934 10.2101 46.3685 10.9145 45.8544 10.9761L45.7999 11.1376V11.1375ZM49.5275 7.93086C50.4454 8.73523 50.9368 8.51187 51.6673 8.5348C52.3975 8.55805 52.4807 8.85993 52.4807 8.85993H52.5043C52.4654 8.35818 51.5932 8.50024 50.7443 7.9619C50.1418 7.57977 49.7831 7.04323 49.5183 6.8432C49.2534 6.64325 48.4821 6.7971 47.9292 7.1432C47.9292 7.1432 48.4437 6.98075 49.5274 7.93086H49.5275ZM52.2431 9.0214C51.9879 8.67178 51.407 8.79042 50.8709 8.786C51.7486 9.35529 50.8535 10.1033 50.4152 11.0781C49.9772 12.0532 50.5087 12.9702 50.5087 12.9702C50.5087 12.9702 50.5496 12.105 50.9935 11.6839C50.9935 11.6839 51.128 12.0724 51.6362 12.1626C50.9411 11.407 51.7893 10.2722 52.1291 9.78417C52.3961 9.40016 52.3226 9.13021 52.2431 9.0214ZM45.5097 11.1324C45.5097 11.1324 45.5839 10.9567 45.6789 10.703H42.3323C42.427 10.9567 42.5015 11.1324 42.5015 11.1324H45.5097ZM44.2895 7.02325C44.2895 6.86522 44.1596 6.73692 43.9995 6.73692C43.8395 6.73692 43.7096 6.86522 43.7096 7.02325C43.7096 7.18144 43.8394 7.30949 43.9995 7.30949C44.1596 7.30949 44.2895 7.18144 44.2895 7.02325ZM45.8038 10.379C45.9326 9.99091 46.0777 9.40065 46.0777 9.1158C46.0777 8.59514 45.7776 8.01864 44.7229 7.84154C44.7229 8.48215 44.4053 10.012 44.0212 10.012H43.978C43.5939 10.012 43.2761 8.47077 43.2761 7.84162C42.2248 8.01905 41.9337 8.5953 41.9337 9.1158C41.9337 9.40065 42.0786 9.99091 42.2071 10.379H45.8039H45.8038ZM43.9995 9.58038C44.1997 9.58038 44.3621 8.57402 44.3621 8.07292C44.3621 7.7992 44.1997 7.61965 43.9995 7.61965C43.7993 7.61965 43.6371 7.7992 43.6371 8.07292C43.6371 8.57402 43.7993 9.58038 43.9995 9.58038ZM43.8063 6.3552H44.1929L44.1446 5.87802L44.6279 5.92584V5.54404L44.1446 5.59186L44.1929 5.11459H43.8064L43.8547 5.59186L43.3713 5.54404V5.92584L43.8547 5.87802L43.8064 6.35529L43.8063 6.3552ZM24.1246 17.8256C23.3432 17.8437 21.9673 17.9937 21.2684 18.2074C21.7434 18.7571 22.9838 19.5463 23.7271 19.8814C23.1491 20.0925 22.1123 20.6281 21.68 21.0147C22.2371 21.3465 23.4605 21.7256 24.0388 21.8495C23.7021 22.1127 23.0088 22.8738 22.7546 23.2841C23.2334 23.4281 24.218 23.5533 24.8431 23.5886C24.6427 23.9912 24.4144 24.7018 24.3539 25.1648C24.6638 25.195 25.6991 25.1434 26.2117 25.0326C26.1677 25.4361 26.1845 26.1702 26.2538 26.4865C26.7595 26.4166 27.4817 26.2205 27.8176 26.0953C27.915 26.455 28.2627 27.2296 28.3849 27.4136C28.7901 27.3386 29.2738 27.1791 29.6293 26.9997C29.7417 27.288 29.997 27.7192 30.0676 27.8281C31.252 26.6745 32.9432 27.6101 32.9432 28.8377C32.8217 29.6465 31.6365 29.6013 31.0126 29.9814C30.1922 30.4813 30.3342 31.6403 29.4898 31.8182C30.2876 32.3044 30.5198 31.3919 31.3485 31.366C31.2379 31.8581 31.2484 32.7319 31.3314 33.0979C31.6725 32.8441 32.1509 32.6505 32.4639 32.6308C32.3866 32.9179 32.3262 33.5897 32.4381 34.0081C32.658 33.8475 33.479 33.1597 35.4285 33.602C35.6648 33.6554 34.1061 33.5964 34.3007 34.0809C34.4538 34.4628 34.4972 34.7284 34.314 35.2705C34.3966 35.2991 34.4925 35.3127 34.5958 35.3127C35.0329 35.3127 35.5997 35.0683 35.8248 34.6845C35.9988 34.8091 35.9988 35.6968 35.4159 35.9172C36.0386 35.961 36.5127 35.4736 36.6047 35.1742C36.6047 35.1742 36.9091 35.8715 37.27 36.1003C37.4967 36.0238 37.9005 35.6618 38.0565 35.2858C38.2125 35.6618 38.6164 36.0238 38.8429 36.1003C39.2039 35.8714 39.5082 35.1742 39.5082 35.1742C39.6003 35.4736 40.0746 35.961 40.6972 35.9172C40.1142 35.6968 40.1142 34.8091 40.2882 34.6845C40.5134 35.0683 41.0801 35.3127 41.5173 35.3127C41.6205 35.3127 41.7165 35.2991 41.7992 35.2705C41.6161 34.7284 41.6593 34.4628 41.8126 34.0809C42.007 33.5964 40.4483 33.6555 40.6847 33.602C42.6337 33.1597 43.4553 33.8475 43.6751 34.0081C43.787 33.5897 43.7267 32.9179 43.6493 32.6308C43.9622 32.6505 44.4405 32.8441 44.7817 33.0979C44.8645 32.7319 44.8752 31.8581 44.7644 31.3659C45.5932 31.3919 45.8253 32.3044 46.6233 31.8182C45.7789 31.6403 45.9208 30.4813 45.1004 29.9814C44.4765 29.6012 43.2912 29.6465 43.1698 28.8377C43.1698 27.6101 44.861 26.6745 46.0455 27.8281C46.1159 27.7191 46.3712 27.2879 46.4836 26.9996C46.8391 27.1791 47.3229 27.3386 47.7281 27.4136C47.8502 27.2295 48.1981 26.4549 48.2952 26.0953C48.6313 26.2204 49.3534 26.4165 49.8592 26.4865C49.9285 26.1701 49.9452 25.436 49.9013 25.0326C50.4139 25.1434 51.449 25.195 51.7589 25.1647C51.6986 24.7017 51.4704 23.9911 51.2697 23.5886C51.895 23.5532 52.8795 23.428 53.3585 23.284C53.104 22.8737 52.4108 22.1126 52.0743 21.8494C52.6524 21.7255 53.8759 21.3464 54.433 21.0146C54.0006 20.628 52.9639 20.0924 52.3859 19.8814C53.1293 19.5462 54.3694 18.757 54.8446 18.2074C54.1456 17.9936 52.7697 17.8435 51.9884 17.8255C53.6057 16.7621 53.6556 14.4557 53.1898 13.2024C52.8766 13.9622 51.8383 15.2105 51.168 15.8834C51.2275 16.524 51.0113 17.6601 50.6405 18.3536C51.1714 18.5473 51.8005 18.8396 52.2464 19.1655C51.9506 19.5232 51.3141 20.0784 50.9149 20.3792C51.2528 20.7187 51.8209 21.3423 52.074 21.7029C51.7 21.9721 50.8859 22.281 50.4686 22.4229C50.674 22.8276 50.9722 23.566 51.0493 24.0757C50.5741 24.1513 49.9199 24.2024 49.236 24.1944C49.2692 24.6825 49.1978 25.4382 49.1094 25.8907C48.475 25.8422 47.7265 25.5919 47.3929 25.4311C47.2163 26.1056 46.7801 26.7601 46.7609 26.7949C44.7781 24.7176 43.0206 26.6773 43.0206 28.5082V31.0032C43.0206 32.1833 42.6337 32.7221 41.5205 32.7221H40.0798C39.1829 32.7221 38.4315 33.0878 38.0564 33.7905C37.6814 33.0878 36.9299 32.7221 36.0331 32.7221H34.5923C33.479 32.7221 33.0921 32.1833 33.0921 31.0032V28.5082C33.0921 26.6773 31.3347 24.7176 29.3518 26.7949C29.3328 26.7601 28.8964 26.1056 28.7199 25.4311C28.3862 25.5919 27.6378 25.8422 27.0036 25.8908C26.915 25.4383 26.8436 24.6825 26.8768 24.1945C26.1929 24.2025 25.5387 24.1514 25.0634 24.0758C25.1406 23.5661 25.4388 22.8277 25.6442 22.4229C25.227 22.2811 24.4129 21.9722 24.0388 21.703C24.2918 21.3424 24.86 20.7188 25.1978 20.3792C24.7986 20.0784 24.1623 19.5233 23.8665 19.1655C24.3121 18.8396 24.9415 18.5473 25.4723 18.3535C25.1015 17.6601 24.8852 16.524 24.9447 15.8833C24.2745 15.2104 23.2362 13.9622 22.9229 13.2024C22.4572 14.4557 22.5071 16.7621 24.1245 17.8254L24.1246 17.8256ZM19.6615 29.7381L19.5157 29.8876C19.5157 29.8876 19.8181 30.2675 20.0623 30.123C20.2013 29.8764 19.808 29.5892 19.808 29.5892L19.6614 29.7381H19.6615Z" fill="#2A3338"/>
<path d="M2.75036 56.8409V60.8011H0.838623V50.1431H5.04742C6.27659 50.1431 7.25135 50.453 7.9717 51.0727C8.69713 51.6924 9.0598 52.5124 9.0598 53.5322C9.0598 54.5766 8.70465 55.3891 7.99435 55.9698C7.28913 56.5506 6.29924 56.8409 5.02477 56.8409H2.75036ZM2.75036 55.355H5.04742C5.72755 55.355 6.24641 55.2012 6.60401 54.8938C6.9617 54.5815 7.14054 54.1325 7.14054 53.5469C7.14054 52.971 6.95916 52.5124 6.59649 52.1707C6.23382 51.8243 5.73507 51.6461 5.10033 51.6364H2.75036V55.355ZM9.80061 56.7677C9.80061 55.9919 9.95934 55.294 10.2767 54.6742C10.5941 54.0495 11.0398 53.5713 11.6141 53.2394C12.1884 52.9028 12.8483 52.7343 13.5938 52.7343C14.6971 52.7343 15.5913 53.0784 16.2763 53.7665C16.9665 54.4546 17.3392 55.3672 17.3947 56.5042L17.4022 56.9215C17.4022 57.7023 17.2461 58.4001 16.9337 59.015C16.6265 59.6299 16.1832 60.1057 15.6039 60.4425C15.0296 60.7792 14.3646 60.9475 13.609 60.9475C12.4554 60.9475 11.531 60.5767 10.8358 59.8349C10.1457 59.0882 9.80061 58.0951 9.80061 56.8556V56.7677ZM11.6368 56.9215C11.6368 57.7364 11.8106 58.3757 12.1582 58.8393C12.5057 59.2981 12.9894 59.5274 13.609 59.5274C14.2286 59.5274 14.7097 59.2932 15.0522 58.8247C15.3998 58.3562 15.5736 57.6706 15.5736 56.7677C15.5736 55.9675 15.3948 55.333 15.0371 54.8646C14.6845 54.396 14.2034 54.1618 13.5938 54.1618C12.9944 54.1618 12.5183 54.3936 12.1657 54.8572C11.8131 55.316 11.6368 56.004 11.6368 56.9215ZM22.0043 59.5274C22.4627 59.5274 22.843 59.3981 23.1453 59.1395C23.4475 58.8808 23.6087 58.5612 23.6289 58.1805H25.3592C25.3391 58.6734 25.1804 59.1346 24.8832 59.564C24.586 59.9886 24.183 60.3253 23.6742 60.5742C23.1654 60.8231 22.6163 60.9475 22.0269 60.9475C20.8834 60.9475 19.9766 60.5889 19.3067 59.8715C18.6367 59.1541 18.3017 58.1634 18.3017 56.8996V56.7166C18.3017 55.5111 18.6342 54.5474 19.2991 53.825C19.964 53.098 20.8709 52.7343 22.0194 52.7343C22.9916 52.7343 23.7825 53.0101 24.392 53.5615C25.0066 54.1081 25.329 54.828 25.3592 55.721H23.6289C23.6087 55.2672 23.4475 54.8938 23.1453 54.601C22.8481 54.3082 22.4678 54.1618 22.0043 54.1618C21.4098 54.1618 20.9514 54.3716 20.629 54.7914C20.3066 55.2061 20.1429 55.8381 20.1379 56.6872V56.9727C20.1379 57.8316 20.2965 58.4733 20.6139 58.8979C20.9364 59.3176 21.3998 59.5274 22.0043 59.5274ZM32.8705 54.2935H30.2183V60.8011H28.3821V54.2935H25.76V52.8808H32.8705V54.2935ZM36.7396 58.2537L38.4019 52.8808H40.359L37.1098 62.0016C36.6111 63.3339 35.7648 64 34.5709 64C34.3039 64 34.0092 63.9561 33.6868 63.8683V62.4921L34.0345 62.514C34.4979 62.514 34.8454 62.4311 35.0772 62.2652C35.3139 62.1041 35.5004 61.8308 35.6364 61.4453L35.9008 60.7645L33.0294 52.8808H35.0091L36.7396 58.2537ZM48.2707 56.9215C48.2707 58.1464 47.9836 59.1248 47.4093 59.8568C46.835 60.584 46.0642 60.9475 45.0971 60.9475C44.2004 60.9475 43.4825 60.6621 42.9435 60.0911V63.8463H41.1074V52.8808H42.7999L42.8755 53.686C43.4146 53.0516 44.1475 52.7343 45.0743 52.7343C46.0718 52.7343 46.8526 53.0955 47.4168 53.8177C47.986 54.5352 48.2707 55.5331 48.2707 56.8117V56.9215ZM46.442 56.7677C46.442 55.9772 46.2783 55.3501 45.9509 54.8865C45.6285 54.4229 45.165 54.1911 44.5606 54.1911C43.8099 54.1911 43.271 54.4912 42.9435 55.0914V58.6051C43.276 59.22 43.8201 59.5274 44.5757 59.5274C45.1601 59.5274 45.6159 59.3005 45.9434 58.8467C46.2758 58.3879 46.442 57.695 46.442 56.7677ZM54.6258 52.8808H56.4544V60.8011H54.6258V55.516L51.4219 60.8011H49.5933V52.8808H51.4219V58.1659L54.6258 52.8808ZM64.2905 55.0476C64.2905 55.3989 64.1797 55.7235 63.958 56.0211C63.7414 56.3139 63.4341 56.5481 63.0362 56.7238C63.9732 57.041 64.4417 57.6535 64.4417 58.5612C64.4417 59.2883 64.1369 59.869 63.5273 60.3034C62.9178 60.7328 62.1018 60.9475 61.0792 60.9475C60.4545 60.9475 59.8852 60.8475 59.3714 60.6474C58.8576 60.4425 58.4571 60.1545 58.17 59.7836C57.8828 59.4079 57.7393 58.9638 57.7393 58.4514H59.5679C59.5679 58.7735 59.7165 59.0443 60.0137 59.2639C60.3109 59.4786 60.6862 59.586 61.1396 59.586C61.5879 59.586 61.943 59.486 62.205 59.2859C62.4719 59.0809 62.6055 58.8149 62.6055 58.488C62.6055 58.1024 62.4896 57.8243 62.2579 57.6535C62.0262 57.4827 61.6685 57.3973 61.1849 57.3973H59.8701V56.1163H61.2303C62.0514 56.1065 62.4619 55.7795 62.4619 55.1354C62.4619 54.8133 62.3436 54.5619 62.1067 54.3814C61.87 54.2009 61.5451 54.1105 61.132 54.1105C60.729 54.1105 60.389 54.2081 60.1119 54.4033C59.8349 54.5937 59.6963 54.8352 59.6963 55.128H57.8677C57.8677 54.4302 58.17 53.8593 58.7745 53.4152C59.379 52.9662 60.1472 52.7417 61.0792 52.7417C62.0917 52.7417 62.88 52.9418 63.4443 53.342C64.0084 53.7421 64.2905 54.3107 64.2905 55.0476ZM70.5472 58.6124L72.9653 52.8808H75.2625V60.8011H73.4267V55.5599L71.1743 60.8011H69.9276L67.6684 55.5306V60.8011H65.8323V52.8808H68.1443L70.5472 58.6124Z" fill="#2A3338"/>
</svg>
