<svg width="240" height="56" viewBox="0 0 240 56" fill="none" xmlns="http://www.w3.org/2000/svg">
<path fill-rule="evenodd" clip-rule="evenodd" d="M41.1313 46.2181C41.0455 46.2181 40.8546 46.8666 41.0511 47.3265C41.1556 47.5714 41.4014 47.6748 41.6069 47.6062C41.8095 47.5387 41.8685 47.3462 41.874 47.1962C41.8931 46.6922 41.4506 46.2181 41.1312 46.2181H41.1313ZM39.658 38.864L39.7225 39.576L39.1072 39.5074V40.3182L39.7225 40.2499L39.658 40.9935H40.4936L40.4291 40.2499L41.0441 40.3182V39.5075L40.4291 39.5761L40.4936 38.864H39.658ZM40.0769 41.6701C39.9105 41.6701 39.7756 41.808 39.7756 41.9781C39.7756 42.1481 39.9106 42.286 40.0769 42.286C40.2433 42.286 40.3782 42.1482 40.3782 41.9781C40.3782 41.808 40.2432 41.6701 40.0769 41.6701ZM40.0769 42.917C39.9105 42.917 39.7756 43.055 39.7756 43.2251C39.7756 43.3952 39.9106 43.533 40.0769 43.533C40.2433 43.533 40.3782 43.3951 40.3782 43.2251C40.3782 43.055 40.2432 42.917 40.0769 42.917ZM40.0769 44.182C39.9105 44.182 39.7756 44.3198 39.7756 44.4899C39.7756 44.6602 39.9106 44.798 40.0769 44.798C40.2433 44.798 40.3782 44.6601 40.3782 44.4899C40.3782 44.3198 40.2432 44.1819 40.0769 44.1819V44.182ZM41.0499 44.4899C41.0499 44.6602 41.1849 44.798 41.3512 44.798C41.5176 44.798 41.6525 44.6601 41.6525 44.4899C41.6525 44.3198 41.5175 44.1819 41.3512 44.1819C41.1848 44.1819 41.0498 44.3198 41.0498 44.4898L41.0499 44.4899ZM42.3129 44.4899C42.3129 44.6602 42.4479 44.798 42.6142 44.798C42.7806 44.798 42.9156 44.6601 42.9156 44.4899C42.9156 44.3198 42.7806 44.1819 42.6142 44.1819C42.4479 44.1819 42.3129 44.3198 42.3129 44.4898V44.4899ZM40.0769 45.8752C39.819 45.8752 39.1826 47.1838 39.6569 47.8456C39.7477 47.9722 39.9067 48.0433 40.0769 48.0433C40.247 48.0433 40.4061 47.9722 40.4968 47.8456C40.9712 47.1838 40.3348 45.8752 40.0769 45.8752ZM39.0225 46.218C38.7031 46.218 38.2606 46.6922 38.2796 47.1962C38.2851 47.3461 38.3442 47.5386 38.5468 47.6061C38.7523 47.6747 38.9982 47.5713 39.1027 47.3264C39.299 46.8665 39.1083 46.218 39.0225 46.218ZM38.5323 44.4898C38.5323 44.6601 38.667 44.7979 38.8335 44.7979C39.0001 44.7979 39.1349 44.6601 39.1349 44.4898C39.1349 44.3198 39 44.1819 38.8335 44.1819C38.6669 44.1819 38.5322 44.3197 38.5322 44.4898H38.5323ZM37.3002 44.4898C37.3002 44.6601 37.4351 44.7979 37.6015 44.7979C37.7679 44.7979 37.903 44.6601 37.903 44.4898C37.903 44.3198 37.768 44.1819 37.6015 44.1819C37.4351 44.1819 37.3002 44.3197 37.3002 44.4898ZM37.0032 44.4898C37.0032 44.2273 37.0486 43.9907 37.0486 43.9907H39.5525V43.7736L39.5527 41.9437L39.5525 41.9435V41.4232C38.3439 41.6351 37.3773 42.5681 37.0891 43.7732C37.0189 43.8735 36.7918 43.9248 36.6317 43.9068C35.7077 43.7935 33.8377 43.4562 33.8377 43.0576C33.8377 42.4977 34.2166 42.2735 34.5806 42.2735C35.0999 42.2735 35.6736 42.555 36.1514 41.8629C34.4512 41.9408 35.7545 39.4827 34.36 39.0162C34.4292 39.6439 34.3606 40.7483 34.1406 41.332C34.1406 41.332 33.641 40.7978 33.0799 40.5963C33.122 41.052 33.0367 41.9964 32.833 42.4265C32.833 42.4265 32.2389 41.8759 31.6227 41.67C32.1911 42.4948 32.1716 43.6719 32.0186 44.388C31.9743 44.5951 32.1286 44.8529 32.5621 44.8339C33.2402 44.8039 35.5562 44.9061 36.5608 45.3172C36.8732 45.445 37.1406 45.5917 37.2714 45.8145C37.3778 46.1146 37.6411 46.5794 37.9651 46.8178C38.1106 46.299 38.7308 45.7433 39.1349 45.7634C39.2555 45.7693 39.389 45.971 39.4166 46.1688C39.4523 45.985 39.7504 45.477 40.0768 45.477C40.3781 45.477 40.6677 45.9019 40.7682 46.2529C40.7985 46.0274 40.9317 45.7864 41.0524 45.7864C41.4582 45.7864 41.9684 46.1466 42.1608 46.7416C42.3164 46.5473 43.0314 45.6277 43.1122 45.0242H37.0484C37.0484 45.0242 37.0031 44.7632 37.0031 44.49L37.0032 44.4898ZM40.6012 41.4237V43.9907H43.1073C42.8894 42.6819 41.8806 41.6489 40.6011 41.4237H40.6012ZM11.0272 43.5373C11.0799 43.555 11.1331 43.5425 11.1855 43.5146C11.0166 43.7499 11.0236 43.9048 11.0963 43.9773C11.2106 44.0906 11.2953 43.8825 11.584 43.5756C11.8732 43.2692 12.0731 43.1757 11.9592 43.0621C11.8858 42.9891 11.7337 42.987 11.5067 43.1722C11.5318 43.118 11.5414 43.0641 11.5231 43.0113C11.4276 42.7347 10.9828 42.3663 10.7376 42.3655C10.7022 42.3659 10.6673 42.3732 10.6347 42.3872C10.7426 42.2139 10.7148 42.0831 10.6425 42.0112C10.5631 41.9323 10.5177 41.9876 10.4285 42.1018C10.4406 42.022 10.4202 41.9286 10.345 41.8145C9.9769 41.2572 8.0303 39.4221 7.58826 39.2377C7.32445 39.1273 7.2379 39.2801 7.2379 39.2801C7.2379 39.2801 7.09185 39.3742 7.20728 39.642C7.40042 40.0899 9.27096 42.0061 9.82431 42.3667C9.93784 42.4405 10.0289 42.4585 10.1061 42.4437C9.99849 42.5379 9.94694 42.5866 10.026 42.6652C10.0982 42.737 10.2268 42.7614 10.392 42.6447C10.3796 42.6788 10.3738 42.7148 10.3748 42.7511C10.3832 43.0026 10.7552 43.4479 11.0273 43.5373H11.0272ZM6.34826 38.1082C6.29059 38.1082 6.20866 38.122 6.14842 38.1858C6.08744 38.2504 6.06592 38.3505 6.08818 38.4665C6.11251 38.5927 6.18442 38.7206 6.29083 38.8268C6.41827 38.9538 6.57855 39.0297 6.71906 39.0297C6.77715 39.0297 6.85849 39.0164 6.91882 38.9526C7.05031 38.8129 6.98535 38.5193 6.77666 38.3115C6.64881 38.1846 6.48894 38.1083 6.34826 38.1083V38.1082ZM12.4024 44.9202C12.4007 44.7264 12.0342 44.4011 11.5996 44.4011C10.9541 44.4011 10.6746 44.8112 10.6746 45.0202C10.6746 45.4137 11.054 45.4643 11.1702 45.4708C11.6246 45.499 12.3572 45.0334 12.4024 44.9202ZM11.8463 45.9027C11.6747 46.123 11.6105 46.338 11.6549 46.5419C11.7089 46.7888 11.9524 46.8996 12.1701 46.8996C12.3994 46.8996 12.6047 46.7912 12.7194 46.6092C12.966 46.2196 12.9769 45.3562 12.8937 45.2617C12.687 45.2617 12.1372 45.5294 11.8463 45.9027V45.9027ZM6.18103 36.9145C5.99865 36.7328 5.62553 37.0036 5.40252 36.8775C5.50141 36.3226 5.89331 36.905 6.27197 36.5037C6.42298 36.3435 6.34197 36.0933 6.25534 36.0177C6.09215 36.1836 5.8396 36.1261 5.82016 36.034C6.25004 35.0157 5.41022 33.8803 4.60375 34.0227C4.76196 34.2349 4.8093 34.9726 4.74037 35.172C5.04736 35.3931 4.82791 35.9138 4.48905 35.7625C4.26183 35.6697 3.86099 35.1001 4.32199 34.6989C4.30866 34.5542 4.05512 34.5191 3.78569 34.8676C3.98338 34.2279 2.77309 34.4285 2.52434 34.582C2.38292 34.842 2.2262 36.0918 2.84169 35.8685C2.51152 36.1565 2.55372 36.4157 2.69464 36.425C3.07032 35.9391 3.63624 36.3333 3.7338 36.5638C3.89161 36.9075 3.39197 37.1486 3.16755 36.8403C2.97549 36.9176 2.25673 36.8923 2.04523 36.7363C1.93252 37.569 3.06263 38.396 4.03956 37.9229C4.12959 37.94 4.19348 38.1969 4.03758 38.3701C4.11387 38.4571 4.35939 38.5322 4.51057 38.3719C4.88882 37.9706 4.30999 37.5861 4.84678 37.4668C4.97628 37.6921 4.72489 38.084 4.9071 38.2657C5.19896 38.5563 5.56562 37.9925 5.92575 37.9699C5.93625 37.5993 6.47288 37.2053 6.18111 36.9144L6.18103 36.9145ZM3.1558 35.6288C3.1558 35.6288 2.96705 35.4944 3.19345 35.2481C3.4254 35.0077 3.56251 35.1977 3.56251 35.1977C3.56251 35.1977 3.77518 35.6722 3.83807 35.8906C3.62358 35.8329 3.15588 35.6288 3.15588 35.6288H3.1558ZM5.02411 37.0722C4.90694 37.087 4.6294 37.3348 4.49021 37.1961L3.85321 36.5619L4.17163 36.2232L4.49137 35.8852L5.1278 36.52C5.26698 36.6583 5.03487 36.9515 5.02411 37.0721V37.0722ZM15.5786 46.7912C15.6002 46.6962 15.5854 46.62 15.5357 46.5706C15.5202 46.5551 15.5062 46.5463 15.4977 46.5463C15.4618 46.5463 15.3821 46.6452 15.3051 46.741C15.241 46.8203 15.1611 46.9192 15.0593 47.0269C14.9578 47.1352 14.8638 47.2201 14.7885 47.2887C14.6991 47.3698 14.6063 47.4538 14.6053 47.4917C14.6053 47.5007 14.6144 47.5149 14.6307 47.531C14.6636 47.564 14.7077 47.5804 14.7614 47.5804C14.8432 47.5804 15.0206 47.5384 15.2877 47.2548C15.4904 47.0401 15.558 46.8842 15.5787 46.7912H15.5786ZM15.5825 47.548C15.4436 47.6956 15.3026 47.8004 15.2245 47.8541C15.2799 47.9103 15.4373 48.01 15.6341 48.01C15.7464 48.01 15.8513 47.9768 15.9471 47.9114C16.1434 47.5869 15.9539 47.2551 15.8687 47.1707C15.8189 47.2528 15.7211 47.401 15.5824 47.548L15.5825 47.548ZM13.4328 45.7436C13.3317 45.8384 13.0979 46.497 13.1999 46.8981C13.2438 47.07 13.3385 47.1434 13.4987 47.1348C13.6644 47.1243 13.7548 47.0378 13.7828 46.8617C13.8463 46.4611 13.5431 45.8244 13.4327 45.7435L13.4328 45.7436ZM13.3048 43.9131C13.3106 43.9244 14.5041 44.9756 14.9045 45.3561C14.9989 45.4459 15.129 45.4666 15.2612 45.3993C15.3365 45.3607 15.4304 45.3163 15.5275 45.2717C16.7209 44.8495 18.6842 44.8018 19.4043 44.8337C19.8378 44.8527 19.9909 44.5953 19.9477 44.3878C19.8067 43.7102 19.7751 42.4948 20.3437 41.67C19.7275 41.8759 19.1334 42.4264 19.1334 42.4264C18.9296 41.9964 18.8443 41.052 18.8864 40.5963C18.3254 40.7977 17.8256 41.332 17.8256 41.332C17.6057 40.7483 17.5371 39.644 17.6064 39.0163C16.2117 39.4827 17.5152 41.9408 15.8149 41.8629C16.2926 42.5551 16.8664 42.2737 17.3857 42.2737C17.7497 42.2737 18.202 42.5124 18.1287 43.0576C18.0755 43.4526 15.7942 43.9443 14.8767 43.9443C14.2355 43.9443 13.806 43.746 13.4842 43.3004C13.3294 43.0861 13.1715 42.9892 12.9947 43.0163C12.7752 43.0502 12.5185 43.2749 12.5185 43.7952C12.5185 44.1637 12.6673 44.9716 13.1092 44.9716C13.4197 44.9716 13.4334 44.3331 13.3048 43.9132V43.9131ZM14.7799 46.7489C14.9882 46.5275 15.0611 46.3662 15.0096 46.2406C14.9351 46.0589 14.4614 45.5309 13.8412 44.9351C13.8227 45.0582 13.795 45.1796 13.7584 45.2986C14.1764 45.8515 14.3326 46.4453 14.1917 46.9439C14.2427 46.9779 14.2743 46.9933 14.2928 47.0006C14.4532 47.0644 14.6535 46.883 14.7798 46.7489H14.7799ZM11.762 43.7419C11.7589 43.745 11.6817 43.8212 11.6318 43.9239C11.7615 43.9247 11.9126 43.9469 12.0486 43.9837C12.0396 43.8631 12.0306 43.7 12.0425 43.5592C11.9277 43.585 11.8045 43.6957 11.762 43.7419ZM32.6087 47.5399C33.0016 47.3609 33.2849 46.8752 33.3595 46.4002C33.1105 46.5222 32.8298 46.5816 32.5062 46.5816C31.6159 46.5816 30.4974 46.0874 29.4837 45.6394C29.4837 45.6394 29.2651 45.8229 28.9029 45.8613C29.9257 46.1752 31.9358 47.2889 32.0835 48.0034C32.1822 48.4811 31.8702 48.6636 31.8702 48.6636C31.4231 47.935 30.2705 46.8038 28.7321 46.2379C28.7353 46.5042 28.6841 46.6911 28.6841 46.6911C28.6841 46.6911 28.3719 46.7677 27.7089 46.6529C28.2886 47.1358 29.8116 48.8415 29.9769 50.1359C30.0872 50.9999 29.4824 51.0399 29.4824 51.0399C29.396 49.7402 28.7133 48.3954 27.4811 47.045C27.4811 47.045 27.279 47.3613 27.0105 47.5209C27.0105 47.5209 26.5554 47.4404 26.1777 47.1909C26.3232 48.9057 26.409 51.1331 26.3188 51.8073C26.2558 52.2768 25.9833 52.4736 25.9833 52.4736C25.9833 52.4736 25.7099 52.2768 25.6468 51.8073C25.5567 51.1331 25.6425 48.9057 25.7879 47.1909C25.4104 47.4404 24.9551 47.5209 24.9551 47.5209C24.6866 47.3614 24.4848 47.0451 24.4848 47.0451C23.2523 48.3955 22.5696 49.7402 22.4833 51.0399C22.4833 51.0399 21.8785 50.9999 21.9888 50.1359C22.1542 48.8416 23.6772 47.1358 24.2568 46.6529C23.5938 46.7678 23.2816 46.6912 23.2816 46.6912C23.2816 46.6912 23.2305 46.5043 23.2336 46.238C21.6954 46.8038 20.543 47.935 20.0955 48.6636C20.0955 48.6636 19.7836 48.4811 19.8825 48.0034C20.0301 47.289 22.0401 46.1753 23.0631 45.8613C22.7008 45.823 22.4821 45.6394 22.4821 45.6394C21.4685 46.0875 20.3499 46.5816 19.4596 46.5816C19.1361 46.5816 18.8553 46.5222 18.6065 46.4002C18.6809 46.8753 18.9644 47.3609 19.3571 47.54C17.9818 48.5061 18.8311 50.7702 16.9866 50.3446C18.0151 52.2511 20.0955 52.4426 20.0955 52.4426C19.6346 51.434 20.2092 48.3572 22.9704 46.9592C21.2707 48.6509 20.4964 50.702 20.9474 52.1489C21.3611 53.4771 22.7061 54.0153 23.7188 54.0384C23.0027 51.8425 23.4441 49.3275 24.9302 47.7444C24.2934 49.4807 23.3979 54.115 25.9836 55.004C28.5689 54.115 27.6727 49.4807 27.0356 47.7444C28.5221 49.3275 28.9633 51.8425 28.2472 54.0384C29.2598 54.0153 30.6049 53.4771 31.0188 52.1489C31.4697 50.702 30.6952 48.6509 28.9957 46.9592C31.757 48.3572 32.3313 51.434 31.8704 52.4426C31.8704 52.4426 33.951 52.2511 34.9795 50.3446C33.1349 50.7702 33.9842 48.5061 32.6088 47.54L32.6087 47.5399ZM26.2028 9.34396C26.2028 9.20786 26.0952 9.097 25.9633 9.097C25.831 9.097 25.7236 9.20786 25.7236 9.34396C25.7236 9.48039 25.831 9.59133 25.9633 9.59133C26.0952 9.59133 26.2028 9.48039 26.2028 9.34396ZM27.4116 9.34396C27.4116 9.20786 27.3044 9.097 27.172 9.097C27.04 9.097 26.9326 9.20786 26.9326 9.34396C26.9326 9.48039 27.04 9.59133 27.172 9.59133C27.3044 9.59133 27.4116 9.48039 27.4116 9.34396ZM25.5336 2.93372C25.5336 3.1885 25.7347 3.39656 25.9819 3.39656C26.2295 3.39656 26.4306 3.1885 26.4306 2.93372C26.4306 2.67852 26.2295 2.47071 25.9819 2.47071C25.7347 2.47071 25.5336 2.67852 25.5336 2.93363V2.93372ZM25.6779 1.95023H26.2884L26.2224 1.21245L26.8856 1.28308V0.699548L26.2224 0.769928L26.2883 0.0325623H25.6778L25.7435 0.769928L25.0805 0.699548V1.28308L25.7435 1.21245L25.6778 1.95023H25.6779ZM24.994 9.34388C24.994 9.20778 24.8864 9.097 24.7543 9.097C24.6222 9.097 24.5147 9.20778 24.5147 9.34388C24.5147 9.48031 24.6222 9.59125 24.7543 9.59125C24.8864 9.59125 24.994 9.48031 24.994 9.34388ZM23.5551 10.2595C23.62 10.2828 23.6949 10.2955 23.7835 10.2955H28.1829C28.2716 10.2955 28.3465 10.2828 28.4111 10.2595C28.5531 10.2086 28.6395 10.1019 28.673 9.9314H23.2932C23.3266 10.1019 23.413 10.2085 23.5551 10.2596V10.2595ZM23.7971 9.34388C23.7971 9.20778 23.6897 9.097 23.5573 9.097C23.4253 9.097 23.3176 9.20778 23.3176 9.34388C23.3176 9.48031 23.4253 9.59125 23.5573 9.59125C23.6895 9.59125 23.797 9.48031 23.797 9.34388H23.7971ZM28.6088 9.34388C28.6088 9.20778 28.5011 9.097 28.3694 9.097C28.2371 9.097 28.1296 9.20778 28.1296 9.34388C28.1296 9.48031 28.2371 9.59125 28.3695 9.59125C28.5012 9.59125 28.6088 9.48031 28.6088 9.34388ZM28.8962 8.7581C29.0203 8.6041 29.6369 7.41122 29.6369 6.20701C29.6369 5.12316 28.2755 4.52655 27.4655 4.49932C27.3717 6.04751 26.769 8.47774 25.9834 8.47774C25.2399 8.47774 24.5938 6.0615 24.5011 4.49924C23.6912 4.52664 22.3298 5.12324 22.3298 6.20709C22.3298 7.4113 22.9462 8.60418 23.0703 8.7581H28.8964H28.8962ZM25.9834 7.7089C26.3534 7.7089 26.8315 6.16703 26.9536 4.70771C26.9536 4.41228 26.5835 3.96035 25.9835 3.9486C25.3831 3.96035 25.013 4.41228 25.013 4.70771C25.1202 6.06858 25.6191 7.7089 25.9835 7.7089H25.9834ZM14.222 15.5792C13.5041 16.5669 14.4969 17.6479 14.5581 17.7225C14.6013 17.7752 14.6383 17.7514 14.6317 17.6924C14.6265 17.6416 15.1484 16.1186 18.1528 16.9206C18.217 16.9378 18.2564 16.9391 18.1962 16.8768C17.6412 16.4367 16.9827 15.4502 16.7699 14.6568C16.7699 14.6568 14.9401 14.5916 14.222 15.5792ZM15.8326 15.3727C15.8326 15.0967 16.2339 15.0207 16.4645 15.0207C16.4645 15.0207 16.5657 15.287 16.6673 15.4345C16.4332 15.3298 16.1081 15.3192 15.8326 15.3727ZM17.4274 14.0838C17.2275 14.0838 17.1529 14.2111 17.2181 14.4314C17.9085 16.759 19.7904 17.3111 20.5334 18.3192C20.5334 18.3192 20.5281 18.0051 20.8728 17.2558C21.1073 17.6411 21.7427 18.3629 22.1557 18.4548C22.057 18.2472 21.9396 17.4276 22.0311 16.8769C23.0063 17.7303 24.2086 17.8981 24.8538 17.4057C24.3045 17.4267 23.5891 16.8151 23.2291 16.2725C23.7318 16.3888 24.4238 16.2689 24.5665 16.1245C24.249 16.047 23.8639 15.7652 23.6319 15.4974C23.9886 15.4726 24.7626 15.1802 24.9839 14.7679C24.6735 14.8384 24.2134 14.7116 23.9137 14.5531C24.142 14.4296 24.7115 13.819 24.8481 13.283C24.0394 13.6797 22.7633 14.0744 20.873 14.0744C20.873 14.0744 17.5327 14.0837 17.4273 14.0837L17.4274 14.0838ZM19.5141 15.1449C18.9797 15.3567 18.7119 15.6427 18.7119 15.6427C18.7119 15.6427 18.4555 15.2216 18.3735 15.0862C18.2917 14.951 18.266 14.7851 18.5423 14.7851H20.199C20.199 14.8981 20.0485 14.933 19.5141 15.1449H19.5141ZM13.8585 18.9324C14.0314 19.1618 14.5206 19.8626 15.594 19.2361C16.6671 18.6095 17.2205 18.2684 17.2205 18.2684C17.2205 18.2684 17.0529 18.5917 17.1801 18.9794C17.1876 19.0017 17.2127 19.0007 17.2225 18.9776C17.3293 18.7267 18.2614 18.0007 19.4499 17.9003C19.0143 17.5193 18.5361 17.1797 18.5361 17.1797C18.0284 17.2617 17.0441 17.6091 15.7708 18.4361C14.4975 19.2632 13.9109 18.9178 13.8865 18.9023C13.8622 18.8867 13.8278 18.8916 13.8584 18.9324H13.8585ZM29.0672 45.3393C29.2505 45.2808 29.404 45.1873 29.4828 45.0823C28.6605 45.0467 27.9816 44.3366 27.733 43.8984C27.4599 44.3505 26.9722 44.7036 26.9722 44.7036C26.6249 44.612 26.1504 44.2337 25.9832 43.9443C25.8162 44.2337 25.3417 44.6121 24.9943 44.7037C24.9943 44.7037 24.5066 44.3505 24.2334 43.8984C23.9849 44.3366 23.306 45.0467 22.4836 45.0823C22.5626 45.1873 22.716 45.2808 22.8994 45.3393C23.0221 45.3787 23.158 45.4029 23.2948 45.4029C23.4397 45.4029 23.5852 45.3766 23.7156 45.3155C23.6334 45.6141 23.6061 45.9825 23.6662 46.2352C23.6662 46.2352 24.1036 46.2697 24.5551 46.0992C24.5876 46.3721 24.7122 46.7025 24.9166 46.926C24.9567 46.9697 24.9987 47.0108 25.0449 47.045C25.2875 47.045 25.8729 46.7625 25.9833 46.5883C26.0935 46.7624 26.6791 47.045 26.9217 47.045C26.9677 47.0108 27.0098 46.9696 27.05 46.9259C27.2542 46.7025 27.3789 46.372 27.4113 46.0991C27.6145 46.2011 27.8504 46.2418 28.1114 46.2418C28.1744 46.2417 28.2373 46.2395 28.3001 46.2352C28.3604 45.9825 28.333 45.614 28.2508 45.3155C28.3814 45.3766 28.5268 45.4029 28.6716 45.4029C28.8087 45.4029 28.9443 45.3787 29.0671 45.3393H29.0672ZM20.8592 27.803C20.698 27.803 20.5983 27.9059 20.5983 28.0714V38.1257C20.5983 39.0843 20.9761 39.5707 21.7211 39.5707L23.5853 39.5779C24.8626 39.5779 25.6162 40.0176 25.9832 40.5624C26.2954 40.0543 27.1725 39.5779 28.3812 39.5779L30.2449 39.5707C30.9901 39.5707 31.3679 39.0843 31.3679 38.1257V28.0714C31.3679 27.9059 31.2679 27.803 31.1072 27.803H20.8591H20.8592ZM22.68 37.2096C22.6621 37.4321 22.9207 37.8368 23.3476 37.7102C23.3347 37.7923 23.3587 38.0168 23.4541 38.1853C22.6978 38.3566 22.3717 37.7347 22.68 37.2096ZM29.5359 33.8813C29.4318 33.7708 29.3292 33.659 29.2279 33.546C29.1201 33.4262 29.0431 33.3796 28.9331 33.3796C28.6856 33.3796 28.4208 33.5151 28.2792 33.6089C28.2698 33.6127 28.2626 33.6219 28.2592 33.6463C28.4096 33.6329 28.5605 33.6219 28.7105 33.6049C28.8423 33.5897 28.9653 33.595 29.0788 33.6795C29.1682 33.7457 29.2185 33.8277 29.2233 33.9348C29.2377 34.2771 29.5109 34.9973 29.5279 35.2135C29.5491 35.2985 29.4469 35.3233 29.3053 35.7209C29.2007 35.8377 28.918 35.4668 28.959 35.3799C29.1236 35.1651 29.1691 35.0313 29.1273 34.8713C29.0938 34.7426 29.0311 34.5129 28.9846 34.3883C28.9226 34.2222 28.7827 34.1599 28.609 34.2195C27.9273 34.4456 27.8222 34.1442 27.1467 34.4277L27.9248 35.6317C27.9219 35.5445 27.8801 35.387 27.7542 35.2737C27.7769 35.1522 28.0223 35.1019 28.114 35.2157C28.2266 35.3601 28.4462 35.5658 28.6269 35.5988C28.974 35.663 28.9478 36.1901 29.8756 36.3665C29.7602 36.486 29.5029 36.4454 29.3907 36.3914C29.4585 36.4959 29.5364 36.5946 29.6761 36.6302C29.5323 36.7746 29.1197 36.4363 29.1619 36.7767C29.2333 36.7354 29.3321 36.7287 29.4157 36.7498C29.6008 36.796 29.9045 37.8483 29.2649 38.3082C29.401 38.349 29.5475 38.277 29.6856 38.277C29.7666 38.277 29.8422 38.3556 29.8503 38.4432C29.9099 38.489 29.9491 38.5452 29.9839 38.6173C29.9357 38.6332 29.8427 38.6185 29.7912 38.5841C29.8119 38.6425 29.807 38.7829 29.7853 38.7855C29.7274 38.7934 29.6829 38.7601 29.6237 38.7249C29.5414 38.767 29.2708 38.7498 29.1941 38.6813C28.9898 38.7311 28.7882 38.7977 28.5753 38.7977C28.4603 38.7977 28.309 38.7904 28.3143 38.6499C28.317 38.5815 28.3509 38.5462 28.3776 38.4713C28.2796 38.3706 28.1164 38.4682 27.9217 38.4869C27.6578 38.5123 27.549 38.4713 27.4918 38.4176C27.741 38.1868 27.5905 37.6246 27.2058 37.5749C27.5223 37.8783 27.481 38.3693 27.1266 38.4794C27.229 38.5127 27.2797 38.5588 27.3189 38.6317C27.4435 38.6835 27.4453 38.7738 27.436 38.8142C27.3678 38.7659 27.2451 38.7181 27.1471 38.7311C27.1401 38.7739 27.1222 38.8539 27.0853 38.8849C27.043 38.8757 26.9877 38.8368 26.9663 38.806C26.8532 38.7192 26.1481 38.8849 26.1054 38.769C26.0783 38.6613 26.2665 38.5706 26.4401 38.5324C25.9936 38.3683 25.6062 37.527 24.9187 37.3845C24.5999 37.3187 24.168 37.4621 24.168 37.8772C24.168 38.0811 24.3318 38.2381 24.509 38.2381C24.672 38.2381 24.7536 38.1252 24.7536 38.0109C24.7273 38.0308 24.711 38.0432 24.6951 38.0562C24.5953 38.1382 24.4682 38.133 24.3762 38.0433C24.2952 37.9642 24.2952 37.827 24.3738 37.7341C24.4385 37.6569 24.5161 37.6134 24.6198 37.5981C24.8889 37.5588 25.1091 37.6447 25.2573 37.8609C25.328 37.9641 25.367 38.0744 25.367 38.1813C25.367 38.6595 24.8885 38.7681 24.6237 38.7681C23.9569 38.7681 23.564 38.2903 23.564 37.7376C23.564 37.6731 23.5671 37.6078 23.5781 37.542C23.6825 36.9198 24.2375 36.6597 24.7178 36.5819C24.6566 36.3654 24.5383 36.1904 24.3685 36.0475C24.284 35.9765 24.2754 35.9184 24.3287 35.8278C24.4011 35.7039 24.4774 35.582 24.5094 35.4424C24.5167 35.411 24.5201 35.3779 24.5224 35.3439C24.2832 35.5584 23.9489 35.7549 23.4863 35.8953C23.3405 35.9628 23.2633 36.0959 23.2448 36.2488C23.2237 36.4263 23.2187 36.6064 23.2156 36.7856C23.2148 36.8269 23.2446 36.8719 23.2673 36.9114C23.3534 37.0593 23.4485 37.2031 23.4697 37.3875C23.4697 37.4768 23.0206 37.486 23.0206 37.4145C23.0164 37.0902 22.8001 36.9642 22.8234 36.7502C22.8831 36.4172 22.8964 36.0841 22.842 35.7494C22.8282 35.6652 22.873 35.6098 22.933 35.5649C23.0284 35.4921 23.1298 35.427 23.225 35.3548C23.4499 35.1829 23.5428 34.9589 23.49 34.6812C23.4832 34.645 23.4672 34.6102 23.4516 34.5762C23.3397 34.3291 23.258 34.0788 23.258 33.8002C23.258 33.4946 22.8795 33.512 22.9043 33.8124C22.9121 33.9062 22.982 34.0374 23.0214 34.1275C23.4093 35.0209 22.7117 35.6642 21.9901 35.6637C22.7486 35.401 21.8127 34.4292 21.8127 33.7043C21.8127 33.2597 22.1561 32.931 22.5658 32.931C23.0383 32.931 23.3378 33.2357 23.4236 33.288C23.6522 32.9253 24.3521 32.8599 24.6148 32.8181C24.5948 32.6227 24.6222 32.4492 24.7419 32.2993C24.7498 32.2892 24.7546 32.2704 24.7504 32.2596C24.7131 32.1672 24.6733 32.076 24.6217 31.9867C24.4063 32.23 24.3546 32.5527 24.3546 32.7195C23.5567 32.7079 23.2048 32.3582 22.9689 32.2205C22.9698 32.1597 23.1821 31.7774 23.3703 31.5251C23.164 31.7021 22.9943 31.9013 22.8698 32.1402C22.7558 32.0578 22.6358 31.9832 22.5185 31.9344C22.6983 31.5491 22.9366 31.249 23.2403 30.9356C22.8127 31.0935 22.4406 31.5772 22.2995 31.8811C22.1775 31.8672 21.9973 31.8625 21.8966 31.882C22.3626 31.3118 22.5756 30.1884 23.6003 29.9364C23.3436 30.9783 23.9819 31.4016 24.4212 31.1298C24.3641 31.1298 24.3249 31.1389 24.288 31.1298C23.4312 30.9123 23.939 29.7251 23.7315 29.4779C23.6527 29.3842 23.612 29.2982 23.6249 29.1796C23.6294 29.1379 23.6171 29.0895 23.598 29.0511L23.1423 28.2899C23.0849 28.1941 23.2623 28.1259 23.3006 28.17L23.7653 28.9312C23.7773 28.9502 23.7921 28.9781 23.8094 28.9813C23.9794 29.0112 24.0319 29.1521 24.1006 29.2767C24.1224 29.317 24.1396 29.3632 24.1435 29.4086C24.1468 29.4432 24.1373 29.4917 24.1142 29.5154C24.0403 29.5902 24.0546 29.6637 24.1118 29.7608C24.2035 29.9164 26.9564 34.4993 26.9564 34.4993C26.3585 34.7441 25.2769 34.7639 24.9635 34.7335C24.8985 34.8926 24.7969 35.0604 24.6467 35.2221C24.7967 35.1244 24.9127 35.0006 25.0199 34.866C25.1408 34.8799 25.3222 34.9284 25.5076 34.9419C25.3979 35.1763 25.2332 35.4096 25.0217 35.6049C24.9222 35.703 24.799 35.7897 24.8443 35.9467C24.8954 36.1233 25.2241 36.4598 25.344 36.6782C25.4629 36.7034 25.6638 36.7457 25.8111 36.8046C25.8952 36.9851 26.1794 37.2118 26.522 37.0944C25.8332 37.0858 25.884 36.3804 26.0981 36.0073C26.0749 36.3538 26.2423 36.6415 26.4543 36.6742C26.1365 36.3843 26.1682 35.7256 26.4779 35.3642C26.5219 35.9509 26.7 36.2593 26.9546 36.329C26.6181 36.0194 26.416 35.3033 26.9243 34.7815C26.9636 36.1206 28.1904 35.879 28.3019 37.4292C28.7562 37.4292 28.7821 36.8176 28.5287 36.7053C28.381 36.6499 28.2474 36.5526 28.1718 36.4201C28.1402 36.3644 28.1076 36.265 28.0818 36.2065C27.9468 35.8082 27.5655 35.8335 27.5747 35.738C27.5838 35.7056 27.6438 35.6908 27.728 35.6908L27.0095 34.5813L26.972 34.5233C27.0586 34.5058 27.0779 34.4554 26.9889 34.3151C26.9889 34.3151 24.2925 29.8335 24.2796 29.8079C24.5303 29.7644 24.7711 29.8324 25.0056 29.9231C24.9431 29.865 24.892 29.784 24.8811 29.7004C24.8721 29.6331 24.8745 29.5938 24.9288 29.5512C24.9861 29.5045 25.0411 29.4504 25.0813 29.3894C25.2151 29.186 25.4612 29.0865 25.6847 29.1501C26.0219 29.2459 26.1413 29.6271 25.8934 29.8275C25.7614 30.1183 25.5978 30.0817 25.5641 30.212C25.6303 30.2426 26.0915 30.5987 26.1223 30.7486C25.9849 31.0346 25.9165 31.4818 26.0358 31.7312C26.125 30.5424 26.8412 29.9609 27.5388 29.9609C27.7045 29.9609 27.8692 29.9897 28.0343 30.0459C28.1247 30.0764 28.215 30.1204 28.2903 30.1775C28.3993 30.2609 28.5007 30.3538 28.5931 30.4553C28.7293 30.6047 28.854 30.7644 29.0856 30.7747C29.0178 30.8712 28.9408 30.9417 28.8618 31.011C28.805 31.062 28.7764 31.1231 28.7694 31.1998C28.7533 31.365 28.699 31.5162 28.5775 31.6378C28.5611 31.6542 28.5485 31.6741 28.5405 31.6958C28.463 31.9204 28.3846 32.144 28.3118 32.3699C28.2937 32.4248 28.2978 32.5006 28.2235 32.4997C28.1589 32.4989 28.081 32.4801 28.033 32.4408C27.9307 32.3581 27.8941 32.2376 27.9307 32.1104C27.9671 31.9839 27.9307 31.8754 27.8906 31.7577C27.8495 31.64 27.8352 31.5127 27.8077 31.3785C27.6172 31.3118 27.2596 31.7207 27.5326 32.0634C27.7099 32.3161 27.8692 32.7813 27.8967 32.9717C27.9025 32.9905 27.7354 33.0956 27.5054 33.0663C26.7277 32.9669 26.2359 32.4274 26.0864 31.9722C26.0742 32.7433 26.7147 33.3149 27.6639 33.2596C27.7026 33.4392 27.8495 33.5612 28.0205 33.5668C28.056 33.4509 28.0553 33.2075 28.0262 33.0529C28.0133 32.9848 28.0491 32.95 28.1121 32.9338C28.3196 32.8811 28.5898 32.9016 28.8209 32.8191C29.0258 32.7456 29.1228 32.7887 29.2502 33.0364C29.3467 33.2233 29.5118 33.4243 29.6676 33.563C29.7331 33.6209 29.7985 33.6798 29.8603 33.7417C29.9392 33.8205 29.9802 33.9133 29.9863 34.028C29.966 34.2077 29.9899 34.5694 29.9899 34.5751C29.9449 34.6938 29.6168 34.5681 29.5639 34.4408C29.5438 34.3933 29.7042 34.0598 29.5359 33.8811V33.8813ZM35.1967 14.6568C34.9839 15.4502 34.3254 16.4367 33.7705 16.8768C33.7102 16.939 33.7496 16.9378 33.8139 16.9206C36.8181 16.1186 37.3401 17.6416 37.3347 17.6924C37.3284 17.7515 37.3653 17.7753 37.4083 17.7226C37.4697 17.6479 38.4625 16.5669 37.7446 15.5793C37.0265 14.5916 35.1967 14.6568 35.1967 14.6568ZM35.2993 15.4345C35.4007 15.287 35.5023 15.0207 35.5023 15.0207C35.7327 15.0207 36.1339 15.0968 36.1339 15.3727C35.8583 15.3192 35.5333 15.3298 35.2993 15.4345ZM38.1081 18.9324C38.1388 18.8916 38.1041 18.8867 38.0799 18.9023C38.0556 18.9178 37.469 19.2632 36.1957 18.4361C34.9224 17.6091 33.9381 17.2617 33.4304 17.1797C33.4304 17.1797 32.9523 17.5193 32.5164 17.9003C33.705 18.0007 34.6372 18.7267 34.744 18.9776C34.7539 19.0007 34.7789 19.0017 34.7863 18.9794C34.9137 18.5917 34.7459 18.2684 34.7459 18.2684C34.7459 18.2684 35.2994 18.6095 36.3725 19.236C37.4458 19.8625 37.9351 19.1618 38.108 18.9323L38.1081 18.9324ZM28.0527 14.5531C27.7531 14.7117 27.2931 14.8384 26.9827 14.768C27.204 15.1803 27.978 15.4727 28.3345 15.4974C28.1028 15.7652 27.7175 16.047 27.4001 16.1245C27.5427 16.2689 28.2347 16.3887 28.7375 16.2725C28.3773 16.8151 27.6621 17.4267 27.1127 17.4057C27.7581 17.8982 28.9605 17.7303 29.9356 16.8769C30.0269 17.4276 29.9097 18.2472 29.8109 18.4549C30.2238 18.3629 30.8593 17.6411 31.0939 17.2558C31.4385 18.0052 31.4333 18.3193 31.4333 18.3193C32.1764 17.3111 34.0582 16.7591 34.7486 14.4315C34.8138 14.2111 34.7391 14.0838 34.5393 14.0838C34.4338 14.0838 31.0937 14.0745 31.0937 14.0745C29.2032 14.0745 27.9272 13.6798 27.1185 13.2831C27.2551 13.819 27.8246 14.4297 28.0529 14.5531H28.0527ZM33.4243 14.7851C33.7004 14.7851 33.6748 14.951 33.5929 15.0863C33.5111 15.2216 33.2546 15.6428 33.2546 15.6428C33.2546 15.6428 32.9868 15.3567 32.4525 15.1449C31.9181 14.933 31.7675 14.8981 31.7675 14.7851H33.4243ZM21.0634 18.2716C20.9557 18.5761 20.9239 18.9121 20.9812 19.3492C21.3286 20.1025 21.4966 21.5013 21.3894 22.2833C21.9427 21.5125 22.1884 20.6458 22.3468 19.9523C22.6641 20.2763 23.0758 20.7403 23.3631 21.1162C23.4124 20.7091 23.4999 20.2064 23.5765 19.8433C23.9899 20.2374 24.8477 20.7323 25.4277 20.9078C25.0373 19.263 24.3691 18.2145 24.3691 18.2145C23.8021 18.2715 22.8889 18.1335 22.4783 17.7303C22.5516 18.3263 22.9623 19.0114 22.9623 19.0114C22.0824 19.0971 21.4592 18.7973 21.0634 18.2716ZM30.9031 18.2716C30.5073 18.7974 29.8841 19.0971 29.0042 19.0114C29.0042 19.0114 29.4148 18.3263 29.4881 17.7304C29.0775 18.1337 28.1645 18.2716 27.5973 18.2145C27.5973 18.2145 26.9294 19.263 26.5386 20.9078C27.119 20.7323 27.9766 20.2374 28.3898 19.8432C28.4666 20.2063 28.554 20.709 28.6033 21.1162C28.8906 20.7404 29.3022 20.2763 29.6198 19.9522C29.778 20.6457 30.0238 21.5125 30.5771 22.2833C30.4699 21.5013 30.6379 20.1024 30.9852 19.3491C31.0425 18.9121 31.0107 18.5761 30.903 18.2715L30.9031 18.2716ZM23.3352 23.4538C23.6672 23.9867 23.9627 24.6275 24.065 25.1983C24.3834 24.8137 24.7195 24.1452 24.9473 23.3468C25.2266 23.6954 25.7145 24.4054 25.9832 24.991C26.2518 24.4054 26.7398 23.6954 27.019 23.3468C27.247 24.1452 27.5832 24.8137 27.9014 25.1983C28.0038 24.6275 28.2992 23.9867 28.6312 23.4538C28.8837 24.4909 29.8578 25.4998 30.8629 25.5757C30.2091 24.728 30.1821 23.2629 30.2283 22.775C29.7929 22.099 29.5062 21.4892 29.3689 21.0748C29.0737 21.3663 28.6169 21.9329 28.2069 22.5878C28.2069 22.5799 28.1952 21.7667 28.0318 20.7792C27.6092 21.1605 26.844 21.4365 26.4349 21.5437C26.1768 21.9641 26.106 22.2919 25.9832 22.8194C25.8605 22.2919 25.7895 21.9641 25.5315 21.5437C25.1224 21.4365 24.3573 21.1605 23.9346 20.7793C23.7713 21.7667 23.7593 22.5799 23.7593 22.5878C23.3493 21.9329 22.8928 21.3663 22.5973 21.0748C22.4602 21.4892 22.1735 22.099 21.7379 22.775C21.7844 23.263 21.7571 24.7281 21.1033 25.5758C22.1087 25.4999 23.0826 24.491 23.335 23.4539L23.3352 23.4538ZM14.2273 35.7196C14.7915 35.3522 15.1485 34.6844 15.5549 33.8678C15.3183 33.9655 14.9754 34.0714 14.6319 34.1426C14.2967 34.7899 13.822 34.5388 13.8097 34.447C13.9123 34.3334 14.0294 34.1657 14.1175 34.0196C13.9746 33.7527 13.8026 33.3552 13.7076 33.1093C13.2281 34.1174 12.3472 35.1413 11.6096 35.5409C12.0436 36.1432 13.3887 36.2658 14.2272 35.7196H14.2273ZM15.971 34.0207C15.5708 34.8638 15.665 36.1632 16.9389 36.2C16.8332 35.2799 17.2483 34.4143 17.6921 34.0207C17.3104 34.1146 16.689 34.6146 16.689 34.6146C16.689 34.6146 16.5954 34.8288 16.5766 35.1061C16.3099 35.1537 16.1626 34.9485 16.2733 34.5208C16.2733 34.5208 16.0806 34.3008 15.971 34.0208V34.0207ZM9.66485 34.9835C9.85269 34.9833 10.0397 34.9604 10.222 34.9155C11.4521 34.612 12.6235 33.5617 13.3199 32.6799C12.9222 32.8056 12.5204 32.8873 12.075 32.9323C12.075 32.9323 11.7631 33.2966 11.5231 33.4313C11.4013 33.5001 11.2798 33.533 11.1645 33.533C10.8165 33.533 10.6688 33.2481 10.6688 33.2481C10.6688 33.2481 11.23 32.9795 11.5873 32.5979C11.5164 32.3168 11.4715 31.9273 11.4633 31.539C10.4947 32.5104 8.67409 33.4543 7.4024 33.6375C7.65413 34.1606 8.54707 34.9835 9.66493 34.9835H9.66485ZM7.20207 32.9228C7.26587 32.9228 7.32967 32.9198 7.39322 32.9137C8.65746 32.7888 10.1833 31.9804 11.1658 31.2808C10.853 31.3442 10.0307 31.3626 9.64052 31.3083C9.50555 31.3985 8.91059 31.7739 8.4155 31.8367C7.51254 31.9508 7.41705 31.3931 7.41705 31.3931C7.99712 31.3223 8.6659 31.1268 9.30522 30.8296C9.36935 30.349 9.48073 29.9206 9.57597 29.6047C8.18223 30.3797 5.90837 30.9249 4.55947 30.9429C4.8294 31.5828 5.87585 32.9228 7.20207 32.9228ZM7.40083 28.3763C7.59513 28.0331 7.9027 27.6275 8.18264 27.2967C7.06983 27.6027 5.63737 27.6667 4.87798 27.6667C3.98263 27.6667 3.11269 27.6036 2.61363 27.5036C2.6579 28.4015 3.51344 29.9506 5.20152 30.1018C5.28957 30.1099 5.38697 30.1138 5.49115 30.1138C6.54421 30.1138 8.21905 29.6884 9.3715 29.2801C8.5498 29.1745 7.75616 28.9798 7.5751 28.904C7.14654 29.0268 6.12277 29.1983 5.79029 29.1799C5.03561 29.1386 4.95485 28.56 4.95485 28.56C4.95485 28.56 6.31301 28.6173 7.40075 28.3763H7.40083ZM3.34869 26.7308C3.97585 26.9331 4.97595 27.0491 6.09282 27.0491C6.77417 27.0491 7.49301 26.9883 8.07764 26.9053C7.44618 26.6907 6.66701 26.3662 6.16059 26.0447C5.52764 26.0321 4.66854 26.0141 4.11685 25.8455C3.30558 25.5976 3.31708 25.0434 3.33148 24.9191C4.03294 25.2008 5.2261 25.4701 6.10804 25.5226C6.43316 25.2099 6.93537 24.8372 7.46529 24.5128C5.37249 24.5311 2.70085 23.7036 1.19978 22.9101C0.856535 25.6985 2.75306 26.5383 3.34869 26.7307V26.7308ZM7.94905 20.9489C7.62608 20.3302 7.31113 19.498 7.26959 18.7807C6.29083 18.0128 5.17356 17.0357 4.52712 15.9189C4.15359 15.2733 4.29145 14.7076 4.556 14.5128C4.75782 15.2141 6.07213 17.178 7.26355 18.1628C7.2729 17.5334 7.37898 16.8096 7.54332 16.2651C6.1581 14.7599 4.6054 12.2669 4.2303 11.2901C3.80877 11.6388 3.08207 12.5157 2.9035 13.7514C2.7236 14.9953 3.1275 16.273 4.10394 17.5494C4.85481 18.5313 6.5078 19.9951 7.94905 20.9489ZM7.55094 24.1122C6.59866 23.4817 5.93857 22.8967 5.58672 22.3713C4.79101 22.0623 3.7621 21.5906 3.25527 21.1655C2.55885 20.5819 2.77929 20.0567 2.86047 19.9518C3.47364 20.5769 4.8016 21.4781 5.74477 21.8789C6.33362 21.6498 7.15184 21.4819 7.94896 21.3839C5.58648 20.4519 3.05046 18.7022 1.72523 17.0529C1.45647 17.5739 0.364839 20.0249 2.41147 22.0347C3.48928 23.0934 5.70952 23.8238 7.55077 24.1123L7.55094 24.1122ZM38.2589 33.1094C38.1639 33.3553 37.9918 33.7528 37.8489 34.0197C37.9368 34.1657 38.0543 34.3334 38.1568 34.447C38.1443 34.5389 37.6697 34.7899 37.3347 34.1426C36.991 34.0715 36.6482 33.9655 36.4115 33.8678C36.818 34.6845 37.1749 35.3522 37.7391 35.7196C38.5777 36.2659 39.9228 36.1433 40.3567 35.5409C39.6191 35.1413 38.7383 34.1174 38.2588 33.1093L38.2589 33.1094ZM35.9955 34.0207C35.8859 34.3008 35.6932 34.5208 35.6932 34.5208C35.8039 34.9485 35.6565 35.1537 35.3896 35.106C35.3709 34.8288 35.2773 34.6145 35.2773 34.6145C35.2773 34.6145 34.6559 34.1146 34.2743 34.0207C34.718 34.4143 35.1332 35.2799 35.0276 36.2C36.3015 36.1632 36.3956 34.8638 35.9955 34.0207ZM40.3793 32.598C40.7364 32.9795 41.2976 33.2481 41.2976 33.2481C41.2976 33.2481 41.1499 33.5331 40.802 33.5331C40.6867 33.5331 40.5651 33.5002 40.4432 33.4313C40.2032 33.2966 39.8914 32.9323 39.8914 32.9323C39.446 32.8873 39.0442 32.8057 38.6464 32.68C39.3428 33.5618 40.5142 34.612 41.7443 34.9155C41.9266 34.9604 42.1138 34.9833 42.3015 34.9835C43.4192 34.9835 44.3123 34.1606 44.564 33.6376C43.2924 33.4543 41.4717 32.5105 40.5031 31.539C40.4949 31.9273 40.4498 32.3168 40.3793 32.598ZM42.6611 30.8297C43.3005 31.1269 43.9693 31.3224 44.5496 31.3931C44.5496 31.3931 44.454 31.951 43.5509 31.8367C43.0559 31.7739 42.4607 31.3985 42.3259 31.3083C41.9358 31.3626 41.1132 31.3442 40.8005 31.2808C41.7832 31.9804 43.309 32.7888 44.5731 32.9137C44.6367 32.9198 44.7005 32.9228 44.7644 32.9228C46.0907 32.9228 47.137 31.5828 47.4069 30.9429C46.058 30.9249 43.7843 30.3797 42.3905 29.6048C42.4857 29.9207 42.597 30.349 42.6611 30.8296V30.8297ZM43.7836 27.2967C44.0637 27.6276 44.3712 28.0332 44.5654 28.3763C45.6533 28.6174 47.0113 28.56 47.0113 28.56C47.0113 28.56 46.9307 29.1385 46.1762 29.1798C45.8435 29.1981 44.8198 29.0268 44.3913 28.9039C44.2101 28.9797 43.4166 29.1745 42.5949 29.2801C43.7472 29.6884 45.4224 30.1138 46.4754 30.1138C46.5796 30.1138 46.677 30.11 46.7648 30.1018C48.4529 29.9507 49.3085 28.4016 49.3528 27.5037C48.8539 27.6036 47.9837 27.6667 47.0885 27.6667C46.3293 27.6667 44.8965 27.6028 43.7837 27.2967H43.7836ZM50.7668 22.9102C49.2656 23.7036 46.594 24.5312 44.5012 24.5129C45.031 24.8373 45.5332 25.2099 45.8583 25.5227C46.7402 25.4701 47.9334 25.2008 48.6347 24.9192C48.6492 25.0435 48.6608 25.5977 47.8495 25.8456C47.2978 26.0142 46.4387 26.0321 45.8058 26.0448C45.2994 26.3663 44.5202 26.6907 43.8886 26.9053C44.4733 26.9883 45.1921 27.0491 45.8736 27.0491C46.9905 27.0491 47.9906 26.9332 48.6177 26.7308C49.2132 26.5384 51.1099 25.6985 50.7668 22.9102ZM47.4104 14.5128C47.6751 14.7076 47.8129 15.2734 47.4393 15.919C46.7927 17.0357 45.6757 18.0128 44.6968 18.7807C44.6553 19.4981 44.3402 20.3303 44.0173 20.9489C45.4585 19.9951 47.1117 18.5313 47.8624 17.5495C48.8389 16.2731 49.2428 14.9953 49.0629 13.7515C48.8842 12.5157 48.1577 11.6388 47.736 11.2901C47.361 12.2669 45.8082 14.76 44.423 16.2652C44.5874 16.8096 44.6935 17.5334 44.7029 18.1629C45.8941 17.178 47.2086 15.2142 47.4104 14.5128ZM46.2216 21.879C47.1648 21.4781 48.4928 20.577 49.1058 19.9518C49.187 20.0568 49.4074 20.582 48.7111 21.1655C48.2042 21.5907 47.1753 22.0623 46.3797 22.3714C46.0278 22.8967 45.3678 23.4818 44.4155 24.1123C46.2567 23.8239 48.4771 23.0934 49.5551 22.0348C51.6016 20.025 50.5098 17.5739 50.2412 17.053C48.916 18.7023 46.38 20.452 44.0173 21.384C44.8146 21.482 45.6328 21.6499 46.2216 21.8791V21.879ZM40.7166 19.0575C39.9493 20.8358 38.004 22.4214 36.7457 23.2152C36.1715 23.5772 36.3811 24.2638 36.5647 24.5684C38.2789 27.4138 35.1617 29.5344 32.346 28.1243C32.9604 28.131 33.5806 27.6094 33.6665 27.1445C33.4713 27.313 32.6717 27.2205 32.4354 27.0023C32.7981 26.8127 32.8843 26.6205 32.9031 26.4408C32.4545 26.7159 31.5478 26.7538 31.2807 26.289C29.7931 26.249 28.8035 25.0889 28.694 24.7542C28.5837 25.1103 28.4055 25.7327 28.3471 26.3468C27.9436 26.0738 27.2546 25.4561 26.8954 24.6185C26.4888 25.1986 26.1822 25.8521 25.9831 26.5407C25.7841 25.8521 25.4777 25.1986 25.071 24.6185C24.7117 25.4561 24.0226 26.0739 23.6193 26.3468C23.5607 25.7327 23.3828 25.1104 23.2724 24.7543C23.163 25.0891 22.1734 26.2491 20.6857 26.2892C20.4185 26.7539 19.5119 26.716 19.0633 26.4409C19.0819 26.6207 19.1683 26.8128 19.5309 27.0023C19.2947 27.2206 18.4952 27.3132 18.2998 27.1446C18.3857 27.6094 19.0061 28.131 19.6204 28.1243C16.8047 29.5344 13.6874 27.4139 15.4017 24.5686C15.5854 24.2638 15.7948 23.5773 15.2208 23.2152C13.9624 22.4213 12.0171 20.8358 11.2497 19.0574C11.1586 19.7826 11.2281 21.5822 12.0075 22.702C11.4381 22.9196 10.7078 23.2727 10.2169 23.6001C10.5273 23.9528 11.2503 24.5619 11.7361 24.8931C11.3396 25.2455 10.724 25.9202 10.401 26.3619C10.8103 26.6052 11.635 26.9006 12.2652 27.0998C11.9739 27.5802 11.5259 28.4468 11.4133 28.9626C12.119 29.0651 12.8394 29.0557 13.4751 29.0357C13.394 29.6371 13.4474 30.3922 13.5111 30.9424C14.166 30.8483 14.8865 30.5826 15.3644 30.3311C15.4551 30.7461 15.705 31.5122 15.9291 31.9222C16.5504 31.3328 17.3699 31.0631 18.1286 31.2192C19.682 31.5391 20.1437 33.1095 20.1437 33.1095L20.146 28.3323V27.799C20.146 27.5012 20.3064 27.3437 20.594 27.3437H31.3725C31.6602 27.3437 31.8204 27.5012 31.8204 27.799V28.3322L31.8228 33.1093C31.8228 33.1093 32.2846 31.539 33.8379 31.2191C34.5967 31.063 35.4162 31.3327 36.0376 31.9221C36.2617 31.5121 36.5115 30.7461 36.6022 30.331C37.08 30.5826 37.8006 30.8482 38.4555 30.9423C38.5191 30.3922 38.5724 29.6371 38.4915 29.0357C39.12 29.1007 39.8429 29.1007 40.5532 28.9625C40.4407 28.4468 39.9926 27.5803 39.7012 27.0999C40.3567 26.9241 41.1562 26.6053 41.5656 26.3619C41.2427 25.9202 40.6271 25.2455 40.2305 24.8932C40.7161 24.562 41.4391 23.9528 41.7498 23.6002C41.2588 23.2727 40.5284 22.9196 39.959 22.7021C40.7384 21.5823 40.8081 19.7826 40.7167 19.0575H40.7166ZM21.127 13.4652L21.063 13.6329C22.9462 13.6329 24.7566 12.9888 25.2397 10.746H23.7972C23.5411 12.3618 22.5909 13.4652 21.127 13.4652ZM12.985 9.8163C12.985 9.8163 14.0151 10.0548 14.4182 11.5037C14.8214 12.9527 15.8346 13.6456 16.874 13.6456L16.8101 13.4482C16.2053 13.3729 15.3525 12.512 15.193 10.9174C15.0321 9.31214 14.6382 9.10534 14.6382 9.10534C14.2312 8.82398 13.2081 9.56709 12.9848 9.8163H12.985ZM9.97168 10.4644C10.8309 10.4362 11.4091 10.7094 12.4891 9.72618C13.7639 8.56495 14.3691 8.76343 14.3691 8.76343C13.7186 8.3404 12.8113 8.15241 12.4998 8.3967C12.1881 8.64124 11.7664 9.29707 11.0576 9.76407C10.0587 10.4221 9.03281 10.2484 8.98697 10.8618H9.01477C9.01477 10.8618 9.11258 10.4928 9.9716 10.4644H9.97168ZM10.7643 14.3135C11.2866 14.8282 11.3346 15.8856 11.3346 15.8856C11.3346 15.8856 11.9601 14.7647 11.4446 13.573C10.9293 12.3815 9.87602 11.4673 10.9086 10.7714C10.2779 10.7767 9.59443 10.6317 9.2943 11.0591C9.20087 11.1922 9.11432 11.5221 9.42868 11.9914C9.82811 12.5879 10.826 13.9749 10.0083 14.8986C10.6061 14.7883 10.7643 14.3135 10.7643 14.3135ZM17.2154 13.6393H20.7542C20.7542 13.6393 20.8418 13.4246 20.9533 13.1145H17.0164C17.1281 13.4246 17.2154 13.6393 17.2154 13.6393ZM19.333 8.61684C19.333 8.42369 19.1803 8.26685 18.992 8.26685C18.8037 8.26685 18.6508 8.42369 18.6508 8.61684C18.6508 8.81015 18.8037 8.96674 18.992 8.96674C19.1803 8.96674 19.333 8.81015 19.333 8.61684ZM21.1005 12.7185C21.2517 12.2441 21.4223 11.5227 21.4223 11.1745C21.4223 10.5383 21.0797 9.83395 19.843 9.61715C19.843 10.3861 19.4692 12.27 19.0173 12.27H18.9665C18.5148 12.27 18.1409 10.4001 18.1409 9.61699C16.9002 9.83354 16.5473 10.5381 16.5473 11.1745C16.5473 11.5227 16.718 12.2441 16.8694 12.7185H21.1006H21.1005ZM18.992 11.7424C19.2274 11.7424 19.4182 10.5123 19.4182 9.89984C19.4182 9.56526 19.2275 9.34579 18.9921 9.34579C18.7565 9.34579 18.5655 9.56526 18.5655 9.89984C18.5655 10.5123 18.7565 11.7424 18.9921 11.7424H18.992ZM18.7644 7.80035H19.2193L19.1625 7.21707L19.7309 7.27545V6.80886L19.1625 6.86725L19.2193 6.28397H18.7644L18.8213 6.86725L18.2529 6.80886V7.27545L18.8214 7.21707L18.7645 7.80035H18.7644ZM28.1692 10.746H26.7266C27.2098 12.9889 29.0201 13.6329 30.9034 13.6329L30.8394 13.4652C29.3756 13.4652 28.4252 12.3619 28.1692 10.746ZM35.0923 13.6456C36.1317 13.6456 37.1449 12.9527 37.5482 11.5037C37.9512 10.0549 38.9815 9.81638 38.9815 9.81638C38.7583 9.56718 37.7353 8.82407 37.3282 9.10534C37.3282 9.10534 36.9343 9.31214 36.7735 10.9176C36.614 12.5121 35.7612 13.373 35.1565 13.4482L35.0923 13.6457V13.6456ZM39.4774 9.72618C40.5572 10.7094 41.1354 10.4363 41.9948 10.4644C42.8537 10.4928 42.9515 10.8618 42.9515 10.8618H42.9794C42.9335 10.2485 41.9075 10.4221 40.9088 9.76407C40.2 9.29715 39.7782 8.64124 39.4667 8.39679C39.155 8.15242 38.2477 8.34048 37.5972 8.76343C37.5972 8.76343 38.2024 8.56495 39.4774 9.72618ZM42.6721 11.0591C42.3718 10.6318 41.6885 10.7768 41.0578 10.7715C42.0903 11.4673 41.0374 12.3815 40.5217 13.573C40.0065 14.7648 40.6318 15.8856 40.6318 15.8856C40.6318 15.8856 40.6799 14.8282 41.2021 14.3135C41.2021 14.3135 41.3602 14.7883 41.9582 14.8986C41.1404 13.975 42.1382 12.5879 42.5378 11.9915C42.8521 11.5221 42.7656 11.1922 42.6721 11.0591ZM34.751 13.6393C34.751 13.6393 34.8382 13.4247 34.95 13.1145H31.0131C31.1246 13.4247 31.2121 13.6393 31.2121 13.6393H34.751ZM33.3155 8.61684C33.3155 8.42377 33.1628 8.26694 32.9744 8.26694C32.7861 8.26694 32.6333 8.42369 32.6333 8.61684C32.6333 8.81015 32.7861 8.96674 32.9744 8.96674C33.1628 8.96674 33.3155 8.81024 33.3155 8.61684ZM35.097 12.7185C35.2485 12.2442 35.4191 11.5227 35.4191 11.1746C35.4191 10.5381 35.0661 9.83354 33.8254 9.61707C33.8254 10.4 33.4517 12.27 32.9999 12.27H32.9491C32.4972 12.27 32.1234 10.3861 32.1234 9.61715C30.8866 9.83395 30.5443 10.5383 30.5443 11.1745C30.5443 11.5227 30.7146 12.2441 30.8658 12.7185H35.097H35.097ZM32.9744 11.7424C33.21 11.7424 33.4009 10.5123 33.4009 9.89984C33.4009 9.56526 33.21 9.34588 32.9744 9.34588C32.7389 9.34588 32.5481 9.56526 32.5481 9.89984C32.5481 10.5123 32.7389 11.7424 32.9744 11.7424ZM32.7471 7.80035H33.2018L33.1452 7.21715L33.7136 7.27554V6.80895L33.1452 6.86733L33.2019 6.28397H32.7472L32.8041 6.86733L32.2354 6.80895V7.27554L32.8041 7.21715L32.7472 7.80043L32.7471 7.80035ZM9.59377 21.8202C8.67459 21.8424 7.05593 22.0258 6.2339 22.287C6.79263 22.9588 8.25182 23.9234 9.12615 24.3331C8.44628 24.591 7.22664 25.2457 6.71807 25.7182C7.37336 26.1237 8.81253 26.5871 9.49281 26.7386C9.09678 27.0603 8.28128 27.9905 7.98215 28.4921C8.54542 28.668 9.70357 28.821 10.439 28.8643C10.2032 29.3563 9.93469 30.2248 9.86353 30.7907C10.2281 30.8277 11.446 30.7646 12.049 30.6292C11.9973 31.1224 12.017 32.0196 12.0986 32.4063C12.6935 32.3208 13.5431 32.0811 13.9383 31.9282C14.0528 32.3678 14.4619 33.3145 14.6056 33.5394C15.0823 33.4477 15.6512 33.2528 16.0695 33.0334C16.2017 33.3858 16.5021 33.913 16.5851 34.0461C17.9783 32.6361 19.9679 33.7795 19.9679 35.28C19.825 36.2686 18.4307 36.2133 17.6967 36.678C16.7316 37.289 16.8987 38.7056 15.9053 38.923C16.8439 39.5172 17.1171 38.402 18.0919 38.3702C17.9619 38.9718 17.9742 40.0398 18.0719 40.4871C18.4732 40.177 19.0359 39.9403 19.404 39.9163C19.3131 40.2672 19.2421 41.0882 19.3737 41.5997C19.6323 41.4034 20.5982 40.5626 22.8915 41.1032C23.1696 41.1686 21.3359 41.0965 21.5648 41.6887C21.745 42.1554 21.796 42.48 21.5805 43.1426C21.6777 43.1776 21.7905 43.1942 21.912 43.1942C22.4263 43.1942 23.093 42.8955 23.3578 42.4264C23.5625 42.5787 23.5625 43.6637 22.8767 43.9332C23.6092 43.9867 24.167 43.391 24.2753 43.025C24.2753 43.025 24.6333 43.8771 25.0579 44.1569C25.3245 44.0634 25.7996 43.6208 25.9832 43.1613C26.1666 43.6209 26.6417 44.0634 26.9082 44.1569C27.3329 43.8771 27.691 43.025 27.691 43.025C27.7992 43.391 28.3572 43.9867 29.0896 43.9332C28.4039 43.6637 28.4039 42.5787 28.6084 42.4264C28.8734 42.8955 29.54 43.1942 30.0544 43.1942C30.1759 43.1942 30.2887 43.1776 30.3861 43.1426C30.1705 42.48 30.2215 42.1555 30.4017 41.6887C30.6305 41.0965 28.7969 41.1687 29.0749 41.1032C31.3678 40.5626 32.3341 41.4034 32.5928 41.5997C32.7244 41.0882 32.6534 40.2672 32.5624 39.9163C32.9305 39.9403 33.4932 40.177 33.8945 40.4871C33.9919 40.0397 34.0045 38.9718 33.8743 38.3702C34.8491 38.402 35.1222 39.5172 36.061 38.923C35.0676 38.7055 35.2345 37.2889 34.2695 36.678C33.5355 36.2133 32.1412 36.2685 31.9983 35.2799C31.9983 33.7795 33.9879 32.636 35.3812 34.046C35.4641 33.9129 35.7644 33.3857 35.8967 33.0334C36.3149 33.2529 36.884 33.4477 37.3606 33.5394C37.5043 33.3144 37.9135 32.3677 38.0278 31.928C38.4232 32.081 39.2727 32.3207 39.8677 32.4063C39.9492 32.0195 39.9689 31.1224 39.9172 30.6292C40.5202 30.7646 41.7379 30.8277 42.1025 30.7906C42.0315 30.2247 41.7631 29.3563 41.527 28.8642C42.2626 28.8209 43.4207 28.6679 43.9842 28.492C43.6848 27.9903 42.8693 27.0601 42.4735 26.7385C43.1536 26.587 44.5928 26.1236 45.2482 25.718C44.7396 25.2456 43.5199 24.5909 42.84 24.333C43.7145 23.9233 45.1735 22.9587 45.7324 22.2869C44.9102 22.0256 43.2915 21.8422 42.3724 21.8201C44.275 20.5204 44.3337 17.7014 43.7857 16.1695C43.4173 17.0982 42.1958 18.6238 41.4073 19.4464C41.4773 20.2293 41.223 21.618 40.7867 22.4656C41.4112 22.7024 42.1515 23.0597 42.6759 23.458C42.3278 23.8953 41.5792 24.5738 41.1097 24.9414C41.507 25.3564 42.1754 26.1186 42.4732 26.5593C42.0332 26.8885 41.0755 27.266 40.5846 27.4394C40.8262 27.9341 41.177 28.8366 41.2677 29.4596C40.7087 29.5519 39.9391 29.6144 39.1345 29.6047C39.1735 30.2013 39.0896 31.1249 38.9855 31.6781C38.2393 31.6188 37.3588 31.3128 36.9663 31.1163C36.7586 31.9408 36.2454 32.7407 36.2229 32.7832C33.8903 30.2442 31.8228 32.6395 31.8228 34.8773V37.9269C31.8228 39.3693 31.3677 40.0278 30.0581 40.0278H28.3633C27.3083 40.0278 26.4242 40.4748 25.9831 41.3336C25.5418 40.4748 24.6578 40.0278 23.6028 40.0278H21.9079C20.5982 40.0278 20.143 39.3693 20.143 37.9268V34.8772C20.143 32.6395 18.0757 30.2442 15.7431 32.7832C15.7207 32.7407 15.2073 31.9408 14.9996 31.1163C14.607 31.3128 13.7267 31.6188 12.9807 31.6781C12.8763 31.1249 12.7924 30.2013 12.8316 29.6048C12.027 29.6145 11.2574 29.5521 10.6981 29.4597C10.789 28.8367 11.1398 27.9342 11.3816 27.4394C10.8907 27.2661 9.93295 26.8886 9.4929 26.5594C9.79054 26.1188 10.4589 25.3565 10.8564 24.9415C10.3867 24.5738 9.63812 23.8953 9.29016 23.458C9.81446 23.0597 10.5548 22.7024 11.1792 22.4655C10.7431 21.618 10.4886 20.2293 10.5586 19.4464C9.7701 18.6238 8.54865 17.0981 8.18025 16.1694C7.63228 17.7014 7.69095 20.5204 9.59368 21.82L9.59377 21.8202ZM4.3435 36.3805L4.17196 36.5634C4.17196 36.5634 4.5277 37.0276 4.815 36.851C4.97852 36.5496 4.51587 36.1985 4.51587 36.1985L4.34342 36.3805H4.3435Z" fill="#2A3338"/>
<path d="M69.1114 13.6437H69.3066C70.3029 13.6437 71.2066 13.8704 72.0183 14.3237C72.8359 14.7711 73.4698 15.4033 73.9207 16.2205C74.3767 17.0377 74.6051 17.9562 74.6051 18.9762C74.6051 19.9903 74.3767 20.9029 73.9207 21.714C73.4698 22.5193 72.8417 23.1456 72.0357 23.593C71.2364 24.0403 70.3385 24.267 69.3422 24.2729H69.1114V25.9729H66.9516V24.2729H66.7381C65.7368 24.2729 64.8266 24.0493 64.0091 23.602C63.1913 23.1486 62.5573 22.5193 62.1069 21.714C61.6624 20.9089 61.4402 20.0022 61.4402 18.9941C61.4402 17.9741 61.6654 17.0556 62.1157 16.2384C62.5662 15.4212 63.1973 14.786 64.0091 14.3326C64.8208 13.8734 65.7311 13.6437 66.7381 13.6437H66.9516V11.8721H69.1114V13.6437ZM66.7381 15.46C65.7426 15.46 64.9631 15.7731 64.4005 16.3995C63.8432 17.0257 63.5647 17.8907 63.5647 18.9941C63.5647 20.0678 63.8432 20.9148 64.4005 21.5351C64.9574 22.1495 65.7451 22.4567 66.7646 22.4567H66.9516V15.46H66.7381ZM69.1114 15.46V22.4567H69.3248C70.3203 22.4567 71.094 22.1435 71.6451 21.5172C72.202 20.8909 72.4801 20.0439 72.4801 18.9762C72.4801 17.8847 72.202 17.0257 71.6451 16.3995C71.094 15.7731 70.3112 15.46 69.2984 15.46H69.1114ZM80.2229 25.615C78.8542 25.615 77.7429 25.1825 76.8898 24.3177C76.0424 23.4469 75.6187 22.2896 75.6187 20.8462V20.5778C75.6187 19.6114 75.8025 18.7496 76.1699 17.992C76.5431 17.2285 77.0644 16.6351 77.7338 16.2116C78.4041 15.788 79.1505 15.5763 79.9747 15.5763C81.2838 15.5763 82.2941 15.9968 83.0058 16.8379C83.7224 17.6789 84.0807 18.8688 84.0807 20.4078V21.2846H77.7967C77.8612 22.0839 78.1252 22.7162 78.5878 23.1814C79.0553 23.6467 79.642 23.8793 80.3479 23.8793C81.3375 23.8793 82.1435 23.4767 82.7658 22.6714L83.9301 23.7898C83.5445 24.3684 83.0289 24.8187 82.3835 25.1408C81.743 25.457 81.0231 25.615 80.2229 25.615ZM79.9656 17.321C79.3731 17.321 78.8931 17.5298 78.5257 17.9473C78.1641 18.3648 77.9324 18.9464 77.8323 19.692H81.9474V19.531C81.9002 18.8033 81.7074 18.2545 81.3698 17.8847C81.0322 17.5089 80.5638 17.321 79.9656 17.321ZM85.4411 23.7003C86.0402 23.0263 86.4398 22.3881 86.6418 21.7857C86.8486 21.1772 86.9736 20.4018 87.015 19.4594L87.1391 15.7553H93.8153V23.7003H95.1484V28.3171H92.9969V25.4361H86.8279V28.3171H84.6417L84.65 23.7003H85.4411ZM87.9748 23.7003H91.6638V17.6252H89.2368L89.1747 19.4773C89.092 21.2548 88.6914 22.6624 87.9748 23.7003ZM100.562 25.615C99.1931 25.615 98.0818 25.1825 97.2287 24.3177C96.3813 23.4469 95.9576 22.2896 95.9576 20.8462V20.5778C95.9576 19.6114 96.1413 18.7496 96.5088 17.992C96.882 17.2285 97.4033 16.6351 98.0727 16.2116C98.743 15.788 99.4894 15.5763 100.314 15.5763C101.623 15.5763 102.633 15.9968 103.345 16.8379C104.061 17.6789 104.42 18.8688 104.42 20.4078V21.2846H98.1356C98.2002 22.0839 98.4641 22.7162 98.9267 23.1814C99.3942 23.6467 99.9809 23.8793 100.687 23.8793C101.676 23.8793 102.482 23.4767 103.105 22.6714L104.269 23.7898C103.883 24.3684 103.368 24.8187 102.722 25.1408C102.082 25.457 101.362 25.615 100.562 25.615ZM100.304 17.321C99.712 17.321 99.232 17.5298 98.8646 17.9473C98.503 18.3648 98.2713 18.9464 98.1712 19.692H102.286V19.531C102.239 18.8033 102.046 18.2545 101.709 17.8847C101.371 17.5089 100.903 17.321 100.304 17.321ZM114.162 20.6941C114.162 22.1913 113.825 23.3872 113.15 24.2819C112.474 25.1706 111.567 25.615 110.43 25.615C109.375 25.615 108.53 25.2661 107.896 24.5682V29.1581H105.736V15.7553H107.727L107.816 16.7394C108.45 15.964 109.313 15.5763 110.402 15.5763C111.576 15.5763 112.494 16.0177 113.158 16.9005C113.828 17.7773 114.162 18.9971 114.162 20.5599V20.6941ZM112.012 20.5062C112.012 19.5399 111.819 18.7735 111.433 18.2068C111.054 17.6401 110.509 17.3568 109.798 17.3568C108.915 17.3568 108.281 17.7236 107.896 18.4573V22.7519C108.287 23.5035 108.927 23.8793 109.816 23.8793C110.503 23.8793 111.04 23.602 111.425 23.0472C111.816 22.4865 112.012 21.6395 112.012 20.5062ZM121.381 25.4361C121.286 25.2512 121.204 24.9499 121.132 24.5324C120.445 25.2542 119.603 25.615 118.608 25.615C117.641 25.615 116.853 25.3376 116.243 24.7829C115.633 24.2282 115.328 23.5422 115.328 22.7251C115.328 21.6932 115.707 20.9029 116.465 20.3541C117.23 19.7994 118.32 19.522 119.736 19.522H121.061V18.8867C121.061 18.3858 120.921 17.986 120.643 17.6879C120.364 17.3836 119.941 17.2315 119.372 17.2315C118.88 17.2315 118.477 17.3568 118.163 17.6073C117.849 17.8519 117.692 18.165 117.692 18.5468H115.532C115.532 18.0159 115.707 17.5208 116.057 17.0615C116.406 16.5963 116.88 16.2325 117.479 15.97C118.083 15.7076 118.756 15.5763 119.496 15.5763C120.623 15.5763 121.521 15.8627 122.19 16.4353C122.859 17.0019 123.204 17.8011 123.221 18.8331V23.1993C123.221 24.0701 123.343 24.765 123.585 25.284V25.4361H121.381ZM119.007 23.8703C119.434 23.8703 119.834 23.766 120.207 23.5571C120.587 23.3484 120.871 23.0681 121.061 22.7162V20.8909H119.896C119.097 20.8909 118.495 21.0311 118.092 21.3115C117.689 21.5918 117.487 21.9885 117.487 22.5014C117.487 22.919 117.624 23.253 117.896 23.5035C118.175 23.748 118.546 23.8703 119.007 23.8703ZM133.292 15.7553V25.4361H131.133V17.5089H128.413L128.235 20.882C128.122 22.5044 127.811 23.6705 127.301 24.3803C126.797 25.0842 126.025 25.4361 124.981 25.4361H124.315L124.306 23.6288L124.75 23.584C125.224 23.5184 125.568 23.2292 125.781 22.7162C126.001 22.1972 126.14 21.2548 126.199 19.8888L126.377 15.7553H133.292ZM137.551 18.8331H139.667C140.454 18.8331 141.142 18.9703 141.729 19.2446C142.315 19.519 142.76 19.9037 143.062 20.3988C143.37 20.8939 143.524 21.4695 143.524 22.1256C143.524 23.1218 143.174 23.921 142.475 24.5235C141.776 25.1259 140.846 25.4301 139.684 25.4361H135.391V15.7553H137.551V18.8331ZM137.551 20.5778V23.7003H139.657C140.185 23.7003 140.6 23.5691 140.902 23.3067C141.21 23.0382 141.365 22.6594 141.365 22.1704C141.365 21.6813 141.213 21.2965 140.911 21.0162C140.615 20.7299 140.212 20.5838 139.702 20.5778H137.551ZM153.036 25.4361H150.876V21.5262H147.134V25.4361H144.973V15.7553H147.134V19.7904H150.876V15.7553H153.036V25.4361ZM154.574 20.5062C154.574 19.5578 154.761 18.7048 155.134 17.9473C155.507 17.1838 156.032 16.5993 156.708 16.1936C157.383 15.7821 158.159 15.5763 159.036 15.5763C160.334 15.5763 161.386 15.9968 162.192 16.8379C163.004 17.6789 163.443 18.7943 163.507 20.1841L163.517 20.6941C163.517 21.6485 163.333 22.5014 162.965 23.253C162.604 24.0045 162.082 24.5861 161.401 24.9976C160.725 25.4093 159.943 25.615 159.054 25.615C157.697 25.615 156.609 25.1617 155.792 24.255C154.98 23.3424 154.574 22.1286 154.574 20.6136V20.5062ZM156.734 20.6941C156.734 21.6902 156.939 22.4716 157.348 23.0382C157.756 23.599 158.326 23.8793 159.054 23.8793C159.783 23.8793 160.349 23.593 160.752 23.0203C161.161 22.4477 161.365 21.6097 161.365 20.5062C161.365 19.528 161.155 18.7526 160.734 18.1799C160.319 17.6073 159.754 17.321 159.036 17.321C158.331 17.321 157.771 17.6043 157.357 18.171C156.941 18.7317 156.734 19.5727 156.734 20.6941ZM169.215 25.615C167.846 25.615 166.735 25.1825 165.881 24.3177C165.034 23.4469 164.61 22.2896 164.61 20.8462V20.5778C164.61 19.6114 164.794 18.7496 165.162 17.992C165.535 17.2285 166.056 16.6351 166.726 16.2116C167.396 15.788 168.142 15.5763 168.966 15.5763C170.275 15.5763 171.286 15.9968 171.997 16.8379C172.714 17.6789 173.072 18.8688 173.072 20.4078V21.2846H166.788C166.853 22.0839 167.117 22.7162 167.579 23.1814C168.047 23.6467 168.634 23.8793 169.34 23.8793C170.329 23.8793 171.135 23.4767 171.757 22.6714L172.922 23.7898C172.536 24.3684 172.021 24.8187 171.375 25.1408C170.735 25.457 170.015 25.615 169.215 25.615ZM168.957 17.321C168.365 17.321 167.884 17.5298 167.517 17.9473C167.156 18.3648 166.924 18.9464 166.824 19.692H170.939V19.531C170.892 18.8033 170.699 18.2545 170.362 17.8847C170.024 17.5089 169.556 17.321 168.957 17.321ZM67.5913 43.7599C67.4969 43.575 67.4133 43.2737 67.3422 42.8562C66.6554 43.578 65.8138 43.9388 64.8183 43.9388C63.8521 43.9388 63.064 43.6614 62.4535 43.1067C61.8432 42.552 61.538 41.866 61.538 41.0489C61.538 40.017 61.9172 39.2267 62.6758 38.6779C63.4402 38.1231 64.5304 37.8458 65.947 37.8458H67.2718V37.2105C67.2718 36.7096 67.132 36.3098 66.854 36.0117C66.5751 35.7074 66.1514 35.5553 65.5821 35.5553C65.0906 35.5553 64.6876 35.6806 64.374 35.9311C64.0595 36.1757 63.9025 36.4888 63.9025 36.8705H61.7425C61.7425 36.3397 61.9172 35.8446 62.2669 35.3853C62.6165 34.9201 63.0906 34.5563 63.6891 34.2938C64.2937 34.0314 64.9665 33.9001 65.7071 33.9001C66.8333 33.9001 67.7311 34.1864 68.4005 34.7591C69.07 35.3257 69.4134 36.1249 69.4316 37.1569V41.5231C69.4316 42.3939 69.5532 43.0888 69.7957 43.6078V43.7599H67.5913ZM65.218 42.1941C65.645 42.1941 66.0447 42.0898 66.4179 41.8809C66.7977 41.6722 67.0815 41.3919 67.2718 41.04V39.2147H66.1067C65.3066 39.2147 64.7058 39.3549 64.3028 39.6353C63.8995 39.9155 63.698 40.3123 63.698 40.8252C63.698 41.2428 63.8344 41.5768 64.1067 41.8273C64.3856 42.0718 64.7554 42.1941 65.218 42.1941ZM77.7338 35.8327H73.5566V43.7599H71.4052V34.0791H77.7338V35.8327ZM82.6499 43.9388C81.2813 43.9388 80.17 43.5063 79.3168 42.6415C78.4695 41.7707 78.0458 40.6134 78.0458 39.17V38.9016C78.0458 37.9352 78.2295 37.0734 78.5969 36.3158C78.9701 35.5523 79.4914 34.9589 80.1617 34.5353C80.8311 34.1118 81.5775 33.9001 82.4017 33.9001C83.7108 33.9001 84.7212 34.3206 85.4328 35.1617C86.1494 36.0027 86.5077 37.1926 86.5077 38.7316V39.6084H80.2237C80.2891 40.4077 80.5522 41.04 81.0148 41.5052C81.4832 41.9705 82.0699 42.2031 82.7749 42.2031C83.7646 42.2031 84.5705 41.8005 85.1928 40.9952L86.3571 42.1136C85.9715 42.6922 85.456 43.1425 84.8105 43.4646C84.17 43.7808 83.4501 43.9388 82.6499 43.9388ZM82.3926 35.6448C81.8001 35.6448 81.3202 35.8536 80.9528 36.2711C80.5911 36.6886 80.3594 37.2702 80.2593 38.0158H84.3744V37.8548C84.3273 37.1271 84.1345 36.5783 83.7968 36.2085C83.4592 35.8327 82.9909 35.6448 82.3926 35.6448ZM95.975 43.7599H93.8153V39.85H90.0734V43.7599H87.9128V34.0791H90.0734V38.1142H93.8153V34.0791H95.975V43.7599ZM105.487 35.8059H102.367V43.7599H100.207V35.8059H97.1219V34.0791H105.487V35.8059ZM109.95 42.2031C110.489 42.2031 110.936 42.045 111.292 41.7289C111.648 41.4128 111.837 41.0221 111.86 40.5568H113.896C113.873 41.1592 113.686 41.7229 113.337 42.2478C112.987 42.7667 112.512 43.1783 111.914 43.4825C111.316 43.7867 110.67 43.9388 109.976 43.9388C108.631 43.9388 107.564 43.5004 106.776 42.6236C105.988 41.7468 105.594 40.5359 105.594 38.991V38.7674C105.594 37.2941 105.985 36.116 106.767 35.2332C107.55 34.3444 108.617 33.9001 109.967 33.9001C111.111 33.9001 112.042 34.2371 112.758 34.9112C113.481 35.5792 113.86 36.459 113.896 37.5505H111.86C111.837 36.9958 111.648 36.5396 111.292 36.1817C110.942 35.8238 110.495 35.6448 109.95 35.6448C109.25 35.6448 108.711 35.9013 108.332 36.4143C107.952 36.9213 107.76 37.6937 107.754 38.7316V39.0805C107.754 40.1304 107.941 40.9147 108.314 41.4336C108.694 41.9466 109.239 42.2031 109.95 42.2031ZM122.733 35.8059H119.612V43.7599H117.453V35.8059H114.368V34.0791H122.733V35.8059ZM123.977 43.7599V34.0791H127.88C129.195 34.0791 130.197 34.3116 130.884 34.7769C131.571 35.2362 131.915 35.8983 131.915 36.7632C131.915 37.2105 131.776 37.6132 131.498 37.9711C131.224 38.323 130.819 38.5944 130.28 38.7852C130.908 38.9165 131.406 39.1819 131.773 39.5816C132.141 39.9812 132.324 40.4524 132.324 40.9952C132.324 41.8959 131.992 42.5818 131.329 43.0531C130.671 43.5243 129.723 43.7599 128.484 43.7599H123.977ZM126.137 39.6353V42.042H128.502C129.61 42.042 130.164 41.6424 130.164 40.8431C130.164 40.0378 129.601 39.6353 128.475 39.6353H126.137ZM126.137 38.0784H127.915C129.142 38.0784 129.755 37.7146 129.755 36.9869C129.755 36.2234 129.175 35.8297 128.013 35.8059H126.137V38.0784ZM133.426 38.83C133.426 37.8816 133.613 37.0286 133.987 36.2711C134.36 35.5076 134.884 34.9231 135.56 34.5174C136.236 34.1059 137.012 33.9001 137.889 33.9001C139.187 33.9001 140.238 34.3206 141.044 35.1617C141.856 36.0027 142.295 37.1181 142.36 38.5079L142.369 39.0178C142.369 39.9723 142.185 40.8252 141.818 41.5768C141.456 42.3283 140.935 42.9099 140.253 43.3214C139.578 43.7331 138.796 43.9388 137.906 43.9388C136.549 43.9388 135.462 43.4855 134.645 42.5788C133.833 41.6662 133.426 40.4524 133.426 38.9374V38.83ZM135.587 39.0178C135.587 40.014 135.791 40.7954 136.2 41.362C136.609 41.9228 137.178 42.2031 137.906 42.2031C138.636 42.2031 139.202 41.9168 139.604 41.3441C140.013 40.7715 140.218 39.9335 140.218 38.83C140.218 37.8518 140.007 37.0764 139.587 36.5037C139.172 35.9311 138.606 35.6448 137.889 35.6448C137.184 35.6448 136.624 35.9281 136.209 36.4947C135.794 37.0555 135.587 37.8965 135.587 39.0178ZM156.157 43.7599H153.997V35.8327H150.245V43.7599H148.085V34.0791H156.157V43.7599ZM157.686 38.83C157.686 37.8816 157.873 37.0286 158.246 36.2711C158.619 35.5076 159.144 34.9231 159.819 34.5174C160.495 34.1059 161.272 33.9001 162.149 33.9001C163.446 33.9001 164.498 34.3206 165.304 35.1617C166.116 36.0027 166.554 37.1181 166.62 38.5079L166.629 39.0178C166.629 39.9723 166.445 40.8252 166.078 41.5768C165.716 42.3283 165.195 42.9099 164.513 43.3214C163.838 43.7331 163.055 43.9388 162.166 43.9388C160.809 43.9388 159.722 43.4855 158.904 42.5788C158.092 41.6662 157.686 40.4524 157.686 38.9374V38.83ZM159.846 39.0178C159.846 40.014 160.05 40.7954 160.46 41.362C160.869 41.9228 161.437 42.2031 162.166 42.2031C162.895 42.2031 163.461 41.9168 163.864 41.3441C164.273 40.7715 164.477 39.9335 164.477 38.83C164.477 37.8518 164.267 37.0764 163.846 36.5037C163.431 35.9311 162.865 35.6448 162.149 35.6448C161.443 35.6448 160.883 35.9281 160.468 36.4947C160.053 37.0555 159.846 37.8965 159.846 39.0178ZM179.83 35.8059H176.709V43.7599H174.549V35.8059H171.465V34.0791H179.83V35.8059ZM184.381 40.6463L186.336 34.0791H188.639L184.816 45.2272C184.229 46.8556 183.234 47.6698 181.83 47.6698C181.516 47.6698 181.169 47.6161 180.79 47.5088V45.8266L181.198 45.8535C181.744 45.8535 182.152 45.7521 182.426 45.5493C182.704 45.3525 182.923 45.0185 183.083 44.5472L183.395 43.7151L180.017 34.0791H182.345L184.381 40.6463ZM197.946 39.0178C197.946 40.5151 197.608 41.7109 196.932 42.6057C196.257 43.4944 195.35 43.9388 194.212 43.9388C193.158 43.9388 192.313 43.5899 191.679 42.892V47.4819H189.52V34.0791H191.511L191.599 35.0632C192.233 34.2878 193.095 33.9001 194.186 33.9001C195.359 33.9001 196.278 34.3415 196.941 35.2243C197.611 36.1011 197.946 37.3209 197.946 38.8837V39.0178ZM195.794 38.83C195.794 37.8637 195.602 37.0973 195.217 36.5306C194.838 35.9639 194.293 35.6806 193.582 35.6806C192.699 35.6806 192.064 36.0474 191.679 36.7811V41.0757C192.071 41.8273 192.71 42.2031 193.599 42.2031C194.287 42.2031 194.823 41.9257 195.209 41.371C195.599 40.8103 195.794 39.9633 195.794 38.83ZM205.422 34.0791H207.573V43.7599H205.422V37.3L201.653 43.7599H199.502V34.0791H201.653V40.5389L205.422 34.0791ZM216.791 36.7274C216.791 37.1569 216.661 37.5535 216.401 37.9174C216.146 38.2752 215.784 38.5616 215.316 38.7763C216.418 39.164 216.969 39.9126 216.969 41.0221C216.969 41.9108 216.611 42.6206 215.893 43.1514C215.177 43.6763 214.217 43.9388 213.014 43.9388C212.279 43.9388 211.609 43.8165 211.005 43.572C210.4 43.3214 209.929 42.9695 209.591 42.5162C209.254 42.0569 209.085 41.5141 209.085 40.8879H211.236C211.236 41.2815 211.411 41.6126 211.76 41.8809C212.11 42.1434 212.551 42.2746 213.085 42.2746C213.612 42.2746 214.03 42.1524 214.339 41.9078C214.652 41.6573 214.809 41.3322 214.809 40.9326C214.809 40.4613 214.673 40.1214 214.401 39.9126C214.128 39.7038 213.707 39.5995 213.138 39.5995H211.591V38.0337H213.192C214.157 38.0218 214.641 37.6222 214.641 36.8347C214.641 36.4411 214.502 36.1339 214.223 35.9132C213.944 35.6925 213.562 35.5821 213.076 35.5821C212.602 35.5821 212.202 35.7015 211.876 35.94C211.55 36.1727 211.387 36.4679 211.387 36.8258H209.236C209.236 35.9728 209.591 35.275 210.303 34.7322C211.014 34.1834 211.917 33.9091 213.014 33.9091C214.204 33.9091 215.132 34.1536 215.796 34.6427C216.459 35.1319 216.791 35.8268 216.791 36.7274ZM224.152 41.0847L226.997 34.0791H229.698V43.7599H227.539V37.3537L224.89 43.7599H223.424L220.766 37.3179V43.7599H218.605V34.0791H221.325L224.152 41.0847ZM235.13 40.6463L237.086 34.0791H239.388L235.566 45.2272C234.979 46.8556 233.984 47.6698 232.579 47.6698C232.265 47.6698 231.919 47.6161 231.54 47.5088V45.8266L231.948 45.8535C232.494 45.8535 232.902 45.7521 233.175 45.5493C233.454 45.3525 233.673 45.0185 233.833 44.5472L234.144 43.7151L230.766 34.0791H233.094L235.13 40.6463Z" fill="#2A3338"/>
</svg>
