<svg width="185" height="56" viewBox="0 0 185 56" fill="none" xmlns="http://www.w3.org/2000/svg">
<path fill-rule="evenodd" clip-rule="evenodd" d="M41.0601 47.0497C40.972 47.0497 40.7759 47.7103 40.9777 48.1789C41.0851 48.4283 41.3375 48.5337 41.5487 48.4638C41.7568 48.395 41.8174 48.199 41.8231 48.0461C41.8427 47.5327 41.3881 47.0497 41.06 47.0497H41.0601ZM39.5468 39.558L39.613 40.2834L38.981 40.2135V41.0395L39.613 40.9698L39.5468 41.7274H40.4051L40.3388 40.9698L40.9706 41.0395V40.2135L40.3388 40.2835L40.4051 39.558H39.5468ZM39.977 42.4166C39.8061 42.4166 39.6675 42.5571 39.6675 42.7304C39.6675 42.9036 39.8062 43.0441 39.977 43.0441C40.148 43.0441 40.2865 42.9037 40.2865 42.7304C40.2865 42.5571 40.1479 42.4166 39.977 42.4166ZM39.977 43.6869C39.8061 43.6869 39.6675 43.8274 39.6675 44.0007C39.6675 44.174 39.8062 44.3143 39.977 44.3143C40.148 44.3143 40.2865 44.1739 40.2865 44.0007C40.2865 43.8274 40.1479 43.6869 39.977 43.6869ZM39.977 44.9755C39.8061 44.9755 39.6675 45.1159 39.6675 45.2892C39.6675 45.4627 39.8062 45.603 39.977 45.603C40.148 45.603 40.2865 45.4626 40.2865 45.2892C40.2865 45.1159 40.1479 44.9754 39.977 44.9754V44.9755ZM40.9765 45.2892C40.9765 45.4627 41.1152 45.603 41.286 45.603C41.457 45.603 41.5955 45.4626 41.5955 45.2892C41.5955 45.1159 41.4569 44.9754 41.286 44.9754C41.1151 44.9754 40.9765 45.1159 40.9765 45.2891L40.9765 45.2892ZM42.2738 45.2892C42.2738 45.4627 42.4125 45.603 42.5834 45.603C42.7543 45.603 42.893 45.4626 42.893 45.2892C42.893 45.1159 42.7543 44.9754 42.5834 44.9754C42.4125 44.9754 42.2738 45.1159 42.2738 45.2891V45.2892ZM39.977 46.7004C39.7121 46.7004 39.0584 48.0335 39.5457 48.7076C39.6389 48.8367 39.8022 48.9091 39.977 48.9091C40.1518 48.9091 40.3152 48.8366 40.4084 48.7076C40.8957 48.0335 40.242 46.7004 39.977 46.7004ZM38.894 47.0496C38.5659 47.0496 38.1114 47.5326 38.1308 48.0461C38.1365 48.1988 38.1972 48.395 38.4053 48.4637C38.6164 48.5336 38.869 48.4282 38.9763 48.1788C39.178 47.7102 38.9821 47.0496 38.894 47.0496ZM38.3904 45.2891C38.3904 45.4626 38.5288 45.6029 38.6998 45.6029C38.8709 45.6029 39.0094 45.4625 39.0094 45.2891C39.0094 45.1159 38.8708 44.9754 38.6998 44.9754C38.5287 44.9754 38.3903 45.1158 38.3903 45.2891H38.3904ZM37.1248 45.2891C37.1248 45.4626 37.2634 45.6029 37.4343 45.6029C37.6053 45.6029 37.744 45.4625 37.744 45.2891C37.744 45.1159 37.6054 44.9754 37.4343 44.9754C37.2634 44.9754 37.1248 45.1158 37.1248 45.2891ZM36.8197 45.2891C36.8197 45.0216 36.8664 44.7806 36.8664 44.7806H39.4384V44.5595L39.4386 42.6954L39.4384 42.6951V42.1651C38.1969 42.381 37.204 43.3314 36.908 44.559C36.8358 44.6612 36.6026 44.7135 36.4381 44.6951C35.489 44.5798 33.5681 44.2361 33.5681 43.83C33.5681 43.2597 33.9573 43.0314 34.3312 43.0314C34.8647 43.0314 35.454 43.3181 35.9447 42.6131C34.1983 42.6924 35.537 40.1883 34.1046 39.7131C34.1757 40.3525 34.1052 41.4775 33.8793 42.0721C33.8793 42.0721 33.3661 41.528 32.7897 41.3228C32.8329 41.787 32.7453 42.7491 32.5361 43.1871C32.5361 43.1871 31.9258 42.6263 31.2928 42.4165C31.8768 43.2568 31.8567 44.4559 31.6995 45.1853C31.6541 45.3963 31.8125 45.6589 32.2578 45.6396C32.9544 45.609 35.3334 45.7132 36.3653 46.132C36.6862 46.2621 36.9609 46.4115 37.0952 46.6385C37.2045 46.9442 37.475 47.4178 37.8078 47.6606C37.9573 47.1321 38.5943 46.5661 39.0094 46.5865C39.1333 46.5925 39.2704 46.798 39.2988 46.9995C39.3354 46.8122 39.6416 46.2948 39.9769 46.2948C40.2864 46.2948 40.5839 46.7276 40.6871 47.0852C40.7183 46.8555 40.8551 46.6099 40.9791 46.6099C41.3959 46.6099 41.92 46.9769 42.1176 47.583C42.2775 47.3851 43.012 46.4483 43.0949 45.8335H36.8662C36.8662 45.8335 36.8196 45.5676 36.8196 45.2893L36.8197 45.2891ZM40.5156 42.1656V44.7807H43.0899C42.8661 43.4474 41.8299 42.395 40.5155 42.1656H40.5156ZM10.1371 44.3188C10.1912 44.3367 10.2458 44.324 10.2997 44.2956C10.1262 44.5354 10.1334 44.6931 10.2081 44.767C10.3255 44.8824 10.4124 44.6704 10.7091 44.3578C11.0061 44.0456 11.2114 43.9504 11.0945 43.8346C11.0191 43.7603 10.8629 43.7582 10.6296 43.9469C10.6554 43.8916 10.6653 43.8367 10.6465 43.7829C10.5484 43.5012 10.0915 43.1259 9.83962 43.125C9.80324 43.1254 9.76737 43.1329 9.73388 43.1471C9.84472 42.9706 9.81616 42.8373 9.74196 42.7641C9.66036 42.6837 9.61369 42.7401 9.52206 42.8564C9.53455 42.7751 9.51356 42.6799 9.4363 42.5638C9.05822 41.996 7.05867 40.1266 6.6046 39.9387C6.33362 39.8262 6.24471 39.9819 6.24471 39.9819C6.24471 39.9819 6.09468 40.0778 6.21326 40.3506C6.41165 40.8069 8.33308 42.7589 8.90147 43.1263C9.0181 43.2015 9.11168 43.2198 9.1909 43.2047C9.0804 43.3007 9.02744 43.3502 9.10862 43.4303C9.18282 43.5034 9.31492 43.5283 9.48466 43.4094C9.47191 43.4441 9.46587 43.4809 9.46698 43.5178C9.47556 43.774 9.85764 44.2276 10.1372 44.3188H10.1371ZM5.33087 38.7881C5.27163 38.7881 5.18748 38.8021 5.1256 38.8671C5.06295 38.9329 5.04085 39.0349 5.06371 39.1531C5.08871 39.2816 5.16257 39.412 5.27188 39.5201C5.40278 39.6495 5.56743 39.7268 5.71176 39.7268C5.77143 39.7268 5.85498 39.7133 5.91695 39.6483C6.05201 39.506 5.98529 39.2069 5.77092 38.9951C5.63959 38.8659 5.47537 38.7882 5.33087 38.7882V38.7881ZM11.5497 45.7275C11.548 45.5301 11.1715 45.1987 10.7251 45.1987C10.062 45.1987 9.77494 45.6165 9.77494 45.8294C9.77494 46.2302 10.1646 46.2818 10.284 46.2884C10.7507 46.3172 11.5032 45.8429 11.5497 45.7275ZM10.9785 46.7284C10.8022 46.9528 10.7363 47.1719 10.7818 47.3796C10.8374 47.6311 11.0875 47.744 11.3111 47.744C11.5466 47.744 11.7575 47.6335 11.8753 47.4481C12.1286 47.0512 12.1398 46.1717 12.0544 46.0755C11.8421 46.0755 11.2773 46.3481 10.9785 46.7285V46.7284ZM5.15909 37.572C4.97175 37.3869 4.58848 37.6628 4.3594 37.5344C4.46098 36.969 4.86354 37.5624 5.2525 37.1536C5.40763 36.9903 5.32441 36.7354 5.23542 36.6585C5.06779 36.8274 4.80837 36.7689 4.7884 36.675C5.22998 35.6377 4.36731 34.4811 3.5389 34.6261C3.70142 34.8423 3.75004 35.5938 3.67923 35.7969C3.99458 36.0221 3.76916 36.5526 3.42109 36.3985C3.18768 36.3039 2.77594 35.7237 3.24947 35.315C3.23579 35.1676 2.97535 35.1318 2.69859 35.4868C2.90165 34.8352 1.65844 35.0395 1.40293 35.1959C1.25766 35.4608 1.09667 36.7339 1.7289 36.5065C1.38975 36.7998 1.4331 37.0639 1.57786 37.0734C1.96376 36.5784 2.54508 36.98 2.64529 37.2147C2.80739 37.5649 2.29415 37.8105 2.06363 37.4964C1.86635 37.5752 1.12804 37.5494 0.910777 37.3905C0.795007 38.2388 1.95585 39.0812 2.95937 38.5993C3.05185 38.6167 3.11747 38.8784 2.95733 39.0548C3.0357 39.1435 3.28789 39.22 3.44319 39.0567C3.83172 38.6479 3.23715 38.2562 3.78854 38.1347C3.92157 38.3642 3.66334 38.7634 3.85051 38.9485C4.1503 39.2446 4.52694 38.6702 4.89686 38.6472C4.90765 38.2697 5.45888 37.8682 5.15917 37.572L5.15909 37.572ZM2.05156 36.2623C2.05156 36.2623 1.85768 36.1254 2.09024 35.8745C2.3285 35.6295 2.46934 35.8231 2.46934 35.8231C2.46934 35.8231 2.68779 36.3065 2.75239 36.529C2.53207 36.4702 2.05165 36.2623 2.05165 36.2623H2.05156ZM3.9707 37.7327C3.85034 37.7478 3.56525 38.0002 3.42228 37.8589L2.76794 37.2129L3.09503 36.8678L3.42347 36.5235L4.0772 37.1702C4.22017 37.311 3.98175 37.6097 3.9707 37.7326V37.7327ZM14.8123 47.6335C14.8345 47.5368 14.8193 47.4591 14.7683 47.4089C14.7523 47.393 14.7379 47.3841 14.7293 47.3841C14.6924 47.3841 14.6104 47.4848 14.5314 47.5824C14.4655 47.6632 14.3835 47.7639 14.2788 47.8736C14.1746 47.984 14.0781 48.0704 14.0007 48.1403C13.9088 48.223 13.8135 48.3086 13.8125 48.3472C13.8125 48.3563 13.8219 48.3708 13.8386 48.3872C13.8725 48.4208 13.9178 48.4375 13.9728 48.4375C14.0569 48.4375 14.2391 48.3947 14.5134 48.1058C14.7217 47.8871 14.7911 47.7283 14.8124 47.6335H14.8123ZM14.8163 48.4045C14.6737 48.5549 14.5288 48.6616 14.4486 48.7163C14.5054 48.7736 14.6672 48.8751 14.8693 48.8751C14.9847 48.8751 15.0924 48.8413 15.1908 48.7747C15.3925 48.4442 15.1979 48.1061 15.1103 48.0201C15.0591 48.1038 14.9587 48.2548 14.8162 48.4045L14.8163 48.4045ZM12.6082 46.5663C12.5043 46.6629 12.2642 47.3338 12.3689 47.7425C12.414 47.9175 12.5113 47.9924 12.6758 47.9835C12.8461 47.9728 12.9389 47.8848 12.9676 47.7054C13.0329 47.2973 12.7214 46.6487 12.6081 46.5662L12.6082 46.5663ZM12.4767 44.7016C12.4826 44.713 13.7086 45.7839 14.1199 46.1716C14.2168 46.2631 14.3505 46.2842 14.4862 46.2155C14.5636 46.1763 14.6601 46.131 14.7598 46.0856C15.9857 45.6555 18.0024 45.6069 18.742 45.6394C19.1873 45.6588 19.3446 45.3966 19.3002 45.1851C19.1554 44.4949 19.123 43.2568 19.707 42.4165C19.074 42.6263 18.4638 43.187 18.4638 43.187C18.2545 42.7491 18.1668 41.787 18.2101 41.3228C17.6338 41.5279 17.1204 42.0721 17.1204 42.0721C16.8946 41.4775 16.8241 40.3526 16.8952 39.7132C15.4626 40.1883 16.8016 42.6924 15.0551 42.6131C15.5458 43.3181 16.1352 43.0315 16.6685 43.0315C17.0424 43.0315 17.5071 43.2747 17.4318 43.8301C17.3771 44.2325 15.0338 44.7333 14.0913 44.7333C13.4327 44.7333 12.9915 44.5314 12.6609 44.0774C12.5019 43.8591 12.3397 43.7604 12.1581 43.788C11.9327 43.8226 11.669 44.0515 11.669 44.5815C11.669 44.9569 11.8218 45.7799 12.2757 45.7799C12.5946 45.7799 12.6088 45.1295 12.4767 44.7017V44.7016ZM13.9919 47.5904C14.2058 47.3649 14.2807 47.2006 14.2278 47.0726C14.1513 46.8875 13.6647 46.3496 13.0276 45.7427C13.0086 45.8681 12.9802 45.9918 12.9426 46.113C13.372 46.6763 13.5324 47.2812 13.3877 47.7891C13.4401 47.8238 13.4725 47.8395 13.4915 47.8468C13.6563 47.9118 13.8621 47.727 13.9918 47.5904H13.9919ZM10.8918 44.5271C10.8887 44.5304 10.8094 44.608 10.7581 44.7125C10.8914 44.7134 11.0466 44.736 11.1863 44.7735C11.177 44.6507 11.1678 44.4845 11.18 44.3411C11.0621 44.3674 10.9355 44.4801 10.8918 44.5271ZM32.3057 48.3962C32.7093 48.2139 33.0003 47.7191 33.0769 47.2352C32.8211 47.3595 32.5328 47.4201 32.2004 47.4201C31.2858 47.4201 30.1369 46.9166 29.0956 46.4602C29.0956 46.4602 28.8711 46.6472 28.499 46.6863C29.5497 47.006 31.6145 48.1406 31.7662 48.8684C31.8676 49.3551 31.5471 49.5409 31.5471 49.5409C31.0878 48.7988 29.9038 47.6463 28.3237 47.0699C28.3269 47.3411 28.2743 47.5315 28.2743 47.5315C28.2743 47.5315 27.9537 47.6096 27.2726 47.4926C27.8681 47.9845 29.4325 49.7222 29.6023 51.0408C29.7155 51.921 29.0943 51.9617 29.0943 51.9617C29.0056 50.6378 28.3043 49.2678 27.0386 47.8921C27.0386 47.8921 26.831 48.2143 26.5552 48.3769C26.5552 48.3769 26.0877 48.2948 25.6997 48.0407C25.8491 49.7876 25.9374 52.0567 25.8446 52.7435C25.78 53.2218 25.5001 53.4222 25.5001 53.4222C25.5001 53.4222 25.2192 53.2217 25.1544 52.7435C25.0619 52.0567 25.1499 49.7876 25.2994 48.0407C24.9115 48.2948 24.4439 48.3769 24.4439 48.3769C24.1681 48.2144 23.9608 47.8921 23.9608 47.8921C22.6948 49.2679 21.9935 50.6378 21.9049 51.9617C21.9049 51.9617 21.2836 51.921 21.3969 51.0408C21.5668 49.7223 23.1312 47.9845 23.7266 47.4926C23.0456 47.6097 22.7249 47.5316 22.7249 47.5316C22.7249 47.5316 22.6724 47.3412 22.6756 47.07C21.0955 47.6463 19.9117 48.7988 19.4521 49.541C19.4521 49.541 19.1317 49.3551 19.2332 48.8684C19.3849 48.1407 21.4495 47.0061 22.5004 46.6863C22.1283 46.6473 21.9036 46.4602 21.9036 46.4602C20.8624 46.9166 19.7134 47.4201 18.7989 47.4201C18.4665 47.4201 18.1781 47.3595 17.9225 47.2352C17.999 47.7192 18.2902 48.2139 18.6936 48.3963C17.2809 49.3806 18.1532 51.687 16.2586 51.2534C17.315 53.1956 19.4521 53.3907 19.4521 53.3907C18.9787 52.3632 19.5689 49.2288 22.4052 47.8047C20.6593 49.528 19.8639 51.6175 20.3271 53.0915C20.7521 54.4446 22.1337 54.9928 23.1739 55.0163C22.4383 52.7793 22.8917 50.2173 24.4183 48.6045C23.7642 50.3734 22.8443 55.0943 25.5003 56C28.156 55.0943 27.2354 50.3734 26.581 48.6045C28.1079 50.2172 28.5611 52.7793 27.8255 55.0163C28.8657 54.9928 30.2474 54.4446 30.6725 53.0915C31.1357 51.6175 30.3401 49.528 28.5944 47.8047C31.4308 49.2288 32.0208 52.3632 31.5473 53.3907C31.5473 53.3907 33.6845 53.1956 34.741 51.2534C32.8462 51.687 33.7186 49.3806 32.3058 48.3963L32.3057 48.3962ZM25.7256 9.48562C25.7256 9.34698 25.615 9.23405 25.4795 9.23405C25.3437 9.23405 25.2333 9.34698 25.2333 9.48562C25.2333 9.6246 25.3436 9.73762 25.4795 9.73762C25.615 9.73762 25.7256 9.6246 25.7256 9.48562ZM26.9672 9.48562C26.9672 9.34698 26.8571 9.23405 26.7211 9.23405C26.5855 9.23405 26.4752 9.34698 26.4752 9.48562C26.4752 9.6246 26.5855 9.73762 26.7211 9.73762C26.8571 9.73762 26.9672 9.6246 26.9672 9.48562ZM25.0381 2.95544C25.0381 3.21499 25.2447 3.42694 25.4986 3.42694C25.7529 3.42694 25.9595 3.21499 25.9595 2.95544C25.9595 2.69546 25.7529 2.48377 25.4986 2.48377C25.2447 2.48377 25.0381 2.69546 25.0381 2.95535V2.95544ZM25.1863 1.95355H25.8134L25.7456 1.20196L26.4269 1.27391V0.679466L25.7456 0.751162L25.8134 0H25.1862L25.2537 0.751162L24.5727 0.679466V1.27391L25.2537 1.20196L25.1862 1.95355H25.1863ZM24.4839 9.48554C24.4839 9.3469 24.3733 9.23405 24.2376 9.23405C24.102 9.23405 23.9915 9.3469 23.9915 9.48554C23.9915 9.62452 24.102 9.73754 24.2376 9.73754C24.3733 9.73754 24.4839 9.62452 24.4839 9.48554ZM23.0058 10.4183C23.0724 10.442 23.1494 10.455 23.2404 10.455H27.7595C27.8506 10.455 27.9275 10.442 27.9939 10.4183C28.1397 10.3664 28.2285 10.2577 28.2629 10.0841H22.7368C22.7711 10.2577 22.8599 10.3663 23.0058 10.4184V10.4183ZM23.2543 9.48554C23.2543 9.3469 23.144 9.23405 23.0081 9.23405C22.8724 9.23405 22.7619 9.3469 22.7619 9.48554C22.7619 9.62452 22.8724 9.73754 23.008 9.73754C23.1438 9.73754 23.2543 9.62452 23.2543 9.48554H23.2543ZM28.1969 9.48554C28.1969 9.3469 28.0864 9.23405 27.951 9.23405C27.8152 9.23405 27.7047 9.3469 27.7047 9.48554C27.7047 9.62452 27.8152 9.73754 27.9511 9.73754C28.0864 9.73754 28.1969 9.62452 28.1969 9.48554ZM28.4922 8.8888C28.6196 8.73191 29.2531 7.51672 29.2531 6.28998C29.2531 5.18585 27.8546 4.57808 27.0226 4.55033C26.9263 6.12749 26.3071 8.6032 25.5001 8.6032C24.7364 8.6032 24.0727 6.14175 23.9775 4.55025C23.1456 4.57816 21.7472 5.18593 21.7472 6.29006C21.7472 7.5168 22.3803 8.732 22.5078 8.8888H28.4924H28.4922ZM25.5001 7.81996C25.8802 7.81996 26.3713 6.24925 26.4968 4.76262C26.4968 4.46167 26.1166 4.00128 25.5002 3.98932C24.8835 4.00128 24.5033 4.46167 24.5033 4.76262C24.6135 6.14896 25.126 7.81996 25.5002 7.81996H25.5001ZM13.4188 15.8375C12.6813 16.8438 13.7012 17.9449 13.7641 18.0209C13.8084 18.0746 13.8464 18.0504 13.8396 17.9902C13.8343 17.9386 14.3704 16.387 17.4565 17.204C17.5224 17.2215 17.5629 17.2229 17.5011 17.1594C16.931 16.7111 16.2546 15.7061 16.036 14.8978C16.036 14.8978 14.1564 14.8314 13.4188 15.8375ZM15.0733 15.6271C15.0733 15.346 15.4854 15.2685 15.7223 15.2685C15.7223 15.2685 15.8263 15.5399 15.9306 15.6902C15.6902 15.5835 15.3562 15.5726 15.0733 15.6271ZM16.7114 14.3142C16.5061 14.3142 16.4294 14.4438 16.4964 14.6682C17.2056 17.0394 19.1386 17.6018 19.9019 18.6288C19.9019 18.6288 19.8964 18.3088 20.2505 17.5455C20.4914 17.938 21.1441 18.6733 21.5684 18.7669C21.467 18.5554 21.3463 17.7205 21.4404 17.1595C22.4421 18.0289 23.6771 18.1998 24.3398 17.6982C23.7756 17.7196 23.0407 17.0965 22.6709 16.5438C23.1873 16.6623 23.8981 16.5402 24.0447 16.393C23.7185 16.314 23.3229 16.027 23.0847 15.7542C23.4511 15.7289 24.2461 15.431 24.4734 15.011C24.1546 15.0829 23.682 14.9537 23.3742 14.7922C23.6086 14.6664 24.1936 14.0444 24.3339 13.4984C23.5032 13.9025 22.1924 14.3046 20.2507 14.3046C20.2507 14.3046 16.8196 14.3141 16.7113 14.3141L16.7114 14.3142ZM18.8549 15.3951C18.3059 15.6109 18.0308 15.9022 18.0308 15.9022C18.0308 15.9022 17.7674 15.4732 17.6833 15.3353C17.5992 15.1975 17.5729 15.0286 17.8566 15.0286H19.5584C19.5584 15.1437 19.4038 15.1793 18.8548 15.3951H18.8549ZM13.0454 19.2535C13.223 19.4871 13.7256 20.201 14.8281 19.5628C15.9304 18.9245 16.4989 18.577 16.4989 18.577C16.4989 18.577 16.3267 18.9064 16.4574 19.3013C16.465 19.324 16.4909 19.323 16.5009 19.2995C16.6106 19.0439 17.5681 18.3043 18.7889 18.202C18.3414 17.8139 17.8503 17.468 17.8503 17.468C17.3287 17.5516 16.3177 17.9054 15.0098 18.7479C13.7018 19.5905 13.0992 19.2386 13.0742 19.2228C13.0492 19.207 13.0139 19.2119 13.0453 19.2535H13.0454ZM28.6678 46.1545C28.8561 46.0949 29.0138 45.9996 29.0948 45.8927C28.2501 45.8564 27.5527 45.133 27.2974 44.6867C27.0168 45.1471 26.5158 45.5069 26.5158 45.5069C26.1591 45.4136 25.6717 45.0282 25.5 44.7333C25.3284 45.0282 24.841 45.4136 24.4841 45.507C24.4841 45.507 23.9832 45.1471 23.7026 44.6867C23.4473 45.133 22.75 45.8564 21.9051 45.8927C21.9863 45.9996 22.1439 46.0949 22.3323 46.1545C22.4583 46.1946 22.5979 46.2193 22.7384 46.2193C22.8872 46.2193 23.0367 46.1925 23.1706 46.1303C23.0862 46.4344 23.0582 46.8097 23.12 47.0672C23.12 47.0672 23.5692 47.1023 24.033 46.9286C24.0664 47.2066 24.1944 47.5432 24.4043 47.7709C24.4455 47.8154 24.4886 47.8573 24.5362 47.8921C24.7853 47.8921 25.3867 47.6043 25.5001 47.4268C25.6133 47.6042 26.2147 47.8921 26.464 47.8921C26.5112 47.8573 26.5545 47.8153 26.5958 47.7707C26.8056 47.5432 26.9336 47.2065 26.9669 46.9284C27.1756 47.0324 27.4179 47.0739 27.6861 47.0739C27.7508 47.0738 27.8154 47.0715 27.8799 47.0672C27.9419 46.8097 27.9137 46.4343 27.8292 46.1302C27.9634 46.1925 28.1128 46.2193 28.2615 46.2193C28.4023 46.2193 28.5416 46.1946 28.6678 46.1545H28.6678ZM20.2366 28.2901C20.071 28.2901 19.9686 28.3948 19.9686 28.5635V38.8059C19.9686 39.7824 20.3566 40.2779 21.1219 40.2779L23.0368 40.2852C24.3489 40.2852 25.123 40.7332 25.5 41.2882C25.8206 40.7706 26.7216 40.2852 27.9632 40.2852L29.8776 40.2779C30.6431 40.2779 31.0311 39.7824 31.0311 38.8059V28.5635C31.0311 28.3948 30.9284 28.2901 30.7633 28.2901H20.2365H20.2366ZM22.1068 37.8727C22.0885 38.0993 22.3541 38.5116 22.7926 38.3826C22.7794 38.4663 22.804 38.695 22.902 38.8666C22.1252 39.0411 21.7902 38.4075 22.1068 37.8727ZM29.1493 34.482C29.0424 34.3695 28.937 34.2557 28.8329 34.1405C28.7222 34.0184 28.6431 33.971 28.5301 33.971C28.2758 33.971 28.0038 34.109 27.8584 34.2046C27.8488 34.2085 27.8414 34.2178 27.8378 34.2427C27.9923 34.229 28.1474 34.2178 28.3015 34.2005C28.4368 34.185 28.5631 34.1904 28.6797 34.2765C28.7715 34.344 28.8233 34.4275 28.8282 34.5366C28.8429 34.8852 29.1236 35.619 29.141 35.8392C29.1629 35.9258 29.0578 35.9511 28.9124 36.3561C28.8049 36.4751 28.5146 36.0972 28.5567 36.0087C28.7258 35.7899 28.7725 35.6536 28.7295 35.4906C28.6952 35.3595 28.6308 35.1255 28.583 34.9986C28.5193 34.8293 28.3756 34.7659 28.1972 34.8266C27.497 35.057 27.389 34.7499 26.6951 35.0387L27.4943 36.2652C27.4914 36.1764 27.4484 36.0159 27.3191 35.9005C27.3424 35.7767 27.5945 35.7255 27.6887 35.8415C27.8044 35.9885 28.0299 36.1981 28.2156 36.2317C28.5721 36.2971 28.5452 36.834 29.4982 37.0137C29.3797 37.1355 29.1154 37.0942 29.0002 37.0391C29.0698 37.1456 29.1498 37.2461 29.2934 37.2825C29.1456 37.4295 28.7217 37.0849 28.7651 37.4317C28.8384 37.3896 28.9399 37.3827 29.0259 37.4042C29.216 37.4513 29.528 38.5233 28.8709 38.9918C29.0107 39.0334 29.1612 38.9601 29.303 38.9601C29.3863 38.9601 29.464 39.0401 29.4722 39.1293C29.5335 39.176 29.5738 39.2333 29.6095 39.3067C29.56 39.3229 29.4645 39.3079 29.4115 39.2729C29.4328 39.3324 29.4277 39.4754 29.4055 39.4781C29.346 39.486 29.3002 39.4522 29.2395 39.4163C29.1549 39.4592 28.8769 39.4417 28.7981 39.3718C28.5884 39.4226 28.3812 39.4905 28.1625 39.4905C28.0444 39.4905 27.889 39.483 27.8945 39.3399C27.8972 39.2702 27.9321 39.2343 27.9594 39.1579C27.8588 39.0554 27.6912 39.1548 27.4912 39.1739C27.2201 39.1997 27.1083 39.1579 27.0496 39.1032C27.3055 38.8682 27.151 38.2955 26.7558 38.2448C27.0809 38.5539 27.0385 39.054 26.6745 39.1663C26.7796 39.2001 26.8317 39.2471 26.872 39.3214C27 39.3741 27.0018 39.4661 26.9922 39.5073C26.9222 39.458 26.7961 39.4093 26.6955 39.4226C26.6883 39.4662 26.6699 39.5477 26.632 39.5793C26.5886 39.5699 26.5318 39.5303 26.5098 39.4989C26.3936 39.4104 25.6694 39.5793 25.6254 39.4612C25.5976 39.3515 25.7909 39.2591 25.9693 39.2202C25.5106 39.0531 25.1127 38.196 24.4065 38.0508C24.079 37.9838 23.6353 38.1298 23.6353 38.5527C23.6353 38.7604 23.8036 38.9204 23.9856 38.9204C24.1531 38.9204 24.2369 38.8054 24.2369 38.689C24.2099 38.7093 24.1932 38.7218 24.1768 38.7351C24.0743 38.8186 23.9437 38.8133 23.8492 38.7219C23.766 38.6414 23.766 38.5016 23.8468 38.407C23.9132 38.3283 23.9929 38.284 24.0994 38.2684C24.3759 38.2284 24.602 38.3159 24.7543 38.5362C24.8269 38.6413 24.867 38.7536 24.867 38.8626C24.867 39.3497 24.3754 39.4603 24.1034 39.4603C23.4185 39.4603 23.0149 38.9736 23.0149 38.4105C23.0149 38.3448 23.0181 38.2783 23.0294 38.2113C23.1366 37.5775 23.7068 37.3125 24.2001 37.2332C24.1372 37.0126 24.0157 36.8344 23.8413 36.6889C23.7545 36.6165 23.7456 36.5573 23.8004 36.465C23.8748 36.3388 23.9531 36.2146 23.986 36.0723C23.9935 36.0404 23.997 36.0067 23.9994 35.9721C23.7537 36.1905 23.4103 36.3908 22.9352 36.5338C22.7853 36.6026 22.7061 36.7381 22.6871 36.8938C22.6654 37.0747 22.6603 37.2582 22.6571 37.4407C22.6562 37.4828 22.6869 37.5286 22.7102 37.5689C22.7986 37.7195 22.8962 37.866 22.9181 38.0539C22.9181 38.1448 22.4567 38.1543 22.4567 38.0814C22.4525 37.7511 22.2303 37.6227 22.2542 37.4046C22.3155 37.0654 22.3292 36.7261 22.2733 36.3852C22.2592 36.2993 22.3052 36.2429 22.3668 36.1972C22.4648 36.123 22.5689 36.0567 22.6667 35.9832C22.8977 35.808 22.9931 35.5799 22.9389 35.2969C22.9319 35.2601 22.9155 35.2246 22.8995 35.19C22.7845 34.9383 22.7006 34.6833 22.7006 34.3995C22.7006 34.0882 22.3119 34.1059 22.3373 34.4119C22.3453 34.5074 22.4171 34.6411 22.4576 34.7329C22.856 35.643 22.1395 36.2984 21.3982 36.2979C22.1774 36.0302 21.216 35.0403 21.216 34.3017C21.216 33.8488 21.5687 33.514 21.9895 33.514C22.4749 33.514 22.7826 33.8244 22.8707 33.8777C23.1055 33.5082 23.8244 33.4415 24.0943 33.3989C24.0737 33.2 24.102 33.0231 24.2249 32.8705C24.233 32.8602 24.238 32.8411 24.2336 32.83C24.1953 32.7359 24.1544 32.643 24.1015 32.552C23.8801 32.7999 23.827 33.1286 23.827 33.2986C23.0074 33.2867 22.6459 32.9305 22.4037 32.7902C22.4046 32.7282 22.6226 32.3388 22.816 32.0818C22.604 32.2621 22.4298 32.465 22.3018 32.7084C22.1847 32.6244 22.0615 32.5485 21.941 32.4988C22.1257 32.1062 22.3705 31.8006 22.6825 31.4813C22.2432 31.6421 21.8609 32.1349 21.716 32.4445C21.5907 32.4303 21.4056 32.4255 21.3021 32.4454C21.7809 31.8645 21.9997 30.7201 23.0522 30.4634C22.7885 31.5247 23.4442 31.956 23.8955 31.6791C23.8368 31.6791 23.7966 31.6883 23.7587 31.6791C22.8786 31.4575 23.4001 30.2481 23.187 29.9963C23.106 29.9008 23.0643 29.8133 23.0775 29.6924C23.0821 29.6499 23.0695 29.6006 23.0498 29.5615L22.5817 28.7861C22.5228 28.6885 22.7051 28.619 22.7443 28.6639L23.2217 29.4393C23.234 29.4588 23.2492 29.4872 23.267 29.4904C23.4416 29.5209 23.4956 29.6644 23.5661 29.7914C23.5885 29.8323 23.6062 29.8794 23.6102 29.9257C23.6136 29.961 23.6038 30.0104 23.5801 30.0345C23.5042 30.1106 23.5189 30.1856 23.5776 30.2845C23.6718 30.443 26.4996 35.1117 26.4996 35.1117C25.8854 35.361 24.7744 35.3812 24.4525 35.3502C24.3858 35.5123 24.2814 35.6832 24.127 35.848C24.2812 35.7485 24.4003 35.6223 24.5104 35.4852C24.6347 35.4994 24.821 35.5487 25.0114 35.5625C24.8988 35.8013 24.7295 36.039 24.5123 36.238C24.4101 36.3378 24.2835 36.4262 24.33 36.5861C24.3826 36.766 24.7202 37.1089 24.8433 37.3313C24.9655 37.357 25.1719 37.4001 25.3232 37.46C25.4095 37.6439 25.7015 37.8749 26.0534 37.7553C25.3459 37.7465 25.3981 37.0279 25.6179 36.6479C25.5941 37.0008 25.7661 37.2939 25.9839 37.3273C25.6574 37.0319 25.69 36.3609 26.0081 35.9928C26.0533 36.5904 26.2362 36.9045 26.4978 36.9756C26.1521 36.6602 25.9445 35.9306 26.4667 35.3991C26.507 36.7633 27.7672 36.5172 27.8817 38.0964C28.3484 38.0964 28.375 37.4734 28.1147 37.3589C27.9629 37.3025 27.8257 37.2034 27.7481 37.0684C27.7157 37.0116 27.6821 36.9104 27.6557 36.8508C27.5169 36.4451 27.1253 36.4708 27.1348 36.3735C27.144 36.3405 27.2057 36.3255 27.2922 36.3255L26.5541 35.1952L26.5156 35.1361C26.6046 35.1182 26.6244 35.0669 26.533 34.924C26.533 34.924 23.7632 30.3586 23.75 30.3324C24.0075 30.2881 24.2549 30.3574 24.4958 30.4498C24.4315 30.3906 24.3791 30.3081 24.3678 30.2229C24.3586 30.1544 24.3611 30.1144 24.4168 30.0709C24.4757 30.0233 24.5322 29.9683 24.5736 29.9062C24.711 29.6989 24.9637 29.5976 25.1933 29.6624C25.5397 29.76 25.6623 30.1483 25.4077 30.3525C25.2721 30.6487 25.104 30.6113 25.0694 30.7441C25.1374 30.7753 25.6112 31.1381 25.6429 31.2908C25.5017 31.5821 25.4315 32.0376 25.554 32.2918C25.6456 31.0807 26.3813 30.4883 27.0979 30.4883C27.2681 30.4883 27.4372 30.5177 27.6069 30.5749C27.6997 30.606 27.7925 30.6508 27.8698 30.709C27.9818 30.7939 28.0859 30.8886 28.1809 30.992C28.3207 31.1442 28.4488 31.3068 28.6867 31.3174C28.6171 31.4156 28.538 31.4875 28.4569 31.5581C28.3985 31.61 28.3692 31.6723 28.3619 31.7504C28.3454 31.9187 28.2896 32.0728 28.1648 32.1966C28.148 32.2134 28.1351 32.2336 28.1268 32.2557C28.0473 32.4844 27.9667 32.7123 27.8919 32.9424C27.8733 32.9984 27.8775 33.0756 27.8012 33.0747C27.7349 33.0738 27.6548 33.0546 27.6055 33.0147C27.5004 32.9304 27.4628 32.8076 27.5004 32.6781C27.5378 32.5492 27.5004 32.4386 27.4592 32.3187C27.4171 32.1988 27.4024 32.0692 27.3741 31.9324C27.1784 31.8645 26.8111 32.2811 27.0915 32.6301C27.2736 32.8876 27.4372 33.3615 27.4655 33.5555C27.4715 33.5746 27.2998 33.6817 27.0635 33.6519C26.2647 33.5506 25.7595 33.001 25.606 32.5373C25.5935 33.3228 26.2514 33.9051 27.2264 33.8487C27.2661 34.0317 27.417 34.156 27.5927 34.1617C27.6291 34.0436 27.6284 33.7957 27.5985 33.6381C27.5853 33.5688 27.622 33.5333 27.6868 33.5169C27.8999 33.4632 28.1775 33.484 28.4149 33.4C28.6253 33.3251 28.725 33.369 28.8558 33.6213C28.955 33.8117 29.1245 34.0166 29.2846 34.1578C29.3518 34.2168 29.4191 34.2768 29.4826 34.3398C29.5636 34.4202 29.6056 34.5147 29.6119 34.6315C29.5911 34.8146 29.6157 35.1831 29.6157 35.1889C29.5694 35.3097 29.2324 35.1818 29.178 35.052C29.1574 35.0037 29.3222 34.6639 29.1493 34.4819V34.482ZM34.9641 14.8978C34.7455 15.7061 34.0691 16.7111 33.4991 17.1594C33.4371 17.2228 33.4777 17.2215 33.5436 17.204C36.6296 16.387 37.1658 17.9385 37.1603 17.9902C37.1537 18.0505 37.1917 18.0747 37.2359 18.021C37.2989 17.9449 38.3188 16.8438 37.5813 15.8376C36.8437 14.8314 34.9641 14.8978 34.9641 14.8978ZM35.0695 15.6902C35.1737 15.5399 35.278 15.2685 35.278 15.2685C35.5147 15.2685 35.9268 15.3461 35.9268 15.6271C35.6437 15.5726 35.3098 15.5835 35.0695 15.6902ZM37.9547 19.2535C37.9862 19.2119 37.9506 19.207 37.9257 19.2228C37.9007 19.2386 37.2982 19.5905 35.9903 18.7479C34.6823 17.9054 33.6713 17.5515 33.1497 17.468C33.1497 17.468 32.6586 17.8139 32.2109 18.202C33.4318 18.3043 34.3894 19.0439 34.4991 19.2995C34.5092 19.323 34.5349 19.324 34.5425 19.3013C34.6734 18.9064 34.501 18.577 34.501 18.577C34.501 18.577 35.0695 18.9245 36.1718 19.5627C37.2744 20.201 37.777 19.4871 37.9546 19.2534L37.9547 19.2535ZM27.6257 14.7922C27.318 14.9538 26.8454 15.0829 26.5266 15.0111C26.754 15.4311 27.549 15.729 27.9152 15.7542C27.6772 16.027 27.2814 16.314 26.9553 16.393C27.1019 16.5402 27.8127 16.6622 28.3292 16.5438C27.9592 17.0965 27.2245 17.7196 26.6602 17.6982C27.3231 18.1999 28.5582 18.0289 29.5598 17.1595C29.6537 17.7205 29.5332 18.5554 29.4317 18.767C29.8559 18.6733 30.5087 17.938 30.7497 17.5455C31.1036 18.3089 31.0983 18.6289 31.0983 18.6289C31.8616 17.6019 33.7946 17.0395 34.5038 14.6683C34.5708 14.4438 34.494 14.3142 34.2888 14.3142C34.1804 14.3142 30.7495 14.3047 30.7495 14.3047C28.8076 14.3047 27.4968 13.9026 26.6661 13.4984C26.8064 14.0444 27.3914 14.6665 27.626 14.7922H27.6257ZM33.1434 15.0286C33.4271 15.0286 33.4007 15.1975 33.3167 15.3354C33.2326 15.4732 32.9691 15.9023 32.9691 15.9023C32.9691 15.9023 32.694 15.6109 32.1452 15.3951C31.5963 15.1793 31.4416 15.1437 31.4416 15.0286H33.1434ZM20.4463 18.5803C20.3357 18.8906 20.3031 19.2328 20.3619 19.678C20.7187 20.4455 20.8913 21.8704 20.7812 22.6671C21.3496 21.8819 21.6019 20.9989 21.7646 20.2924C22.0905 20.6226 22.5135 21.0952 22.8085 21.4781C22.8592 21.0634 22.9491 20.5513 23.0278 20.1814C23.4524 20.5829 24.3335 21.087 24.9294 21.2658C24.5283 19.5902 23.842 18.5221 23.842 18.5221C23.2595 18.5802 22.3215 18.4397 21.8997 18.0289C21.975 18.636 22.3969 19.334 22.3969 19.334C21.4931 19.4213 20.8529 19.1158 20.4463 18.5803ZM30.5537 18.5803C30.1471 19.1159 29.507 19.4213 28.6032 19.334C28.6032 19.334 29.0249 18.636 29.1002 18.029C28.6785 18.4398 27.7406 18.5803 27.158 18.5221C27.158 18.5221 26.4719 19.5902 26.0705 21.2658C26.6666 21.087 27.5475 20.5829 27.972 20.1813C28.0509 20.5512 28.1407 21.0633 28.1913 21.4781C28.4864 21.0953 28.9092 20.6225 29.2355 20.2923C29.398 20.9989 29.6504 21.8819 30.2188 22.6671C30.1087 21.8704 30.2813 20.4454 30.638 19.6779C30.6969 19.2327 30.6642 18.8905 30.5536 18.5802L30.5537 18.5803ZM22.7799 23.8594C23.1209 24.4023 23.4244 25.0551 23.5296 25.6366C23.8566 25.2448 24.2018 24.5639 24.4359 23.7505C24.7227 24.1056 25.2239 24.8288 25.5 25.4254C25.7759 24.8288 26.2771 24.1056 26.5639 23.7505C26.7981 24.5639 27.1434 25.2448 27.4704 25.6366C27.5755 25.0551 27.879 24.4023 28.22 23.8594C28.4794 24.916 29.4799 25.9437 30.5124 26.021C29.8408 25.1575 29.813 23.665 29.8606 23.1679C29.4133 22.4793 29.1188 21.8581 28.9778 21.4359C28.6745 21.7329 28.2053 22.3101 27.7842 22.9773C27.7842 22.9692 27.7721 22.1408 27.6042 21.1348C27.1701 21.5232 26.3841 21.8044 25.964 21.9136C25.6988 22.3418 25.6261 22.6758 25.5 23.2132C25.3739 22.6758 25.301 22.3418 25.0359 21.9136C24.6157 21.8044 23.8298 21.5232 23.3956 21.1349C23.2278 22.1408 23.2156 22.9692 23.2156 22.9773C22.7944 22.3101 22.3255 21.7329 22.0219 21.4359C21.8811 21.8581 21.5866 22.4793 21.1392 23.168C21.1869 23.6651 21.1589 25.1576 20.4873 26.0211C21.52 25.9438 22.5205 24.9161 22.7797 23.8595L22.7799 23.8594ZM13.4242 36.3548C14.0038 35.9805 14.3706 35.3002 14.788 34.4683C14.545 34.5679 14.1927 34.6757 13.8398 34.7483C13.4956 35.4077 13.0079 35.1519 12.9953 35.0584C13.1007 34.9427 13.2209 34.7718 13.3115 34.623C13.1647 34.3511 12.9879 33.9461 12.8904 33.6957C12.3979 34.7226 11.493 35.7657 10.7354 36.1727C11.1812 36.7863 12.5629 36.9112 13.4242 36.3548H13.4242ZM15.2154 34.6241C14.8043 35.483 14.901 36.8067 16.2096 36.8442C16.101 35.9069 16.5274 35.0251 16.9833 34.6241C16.5912 34.7198 15.9529 35.2291 15.9529 35.2291C15.9529 35.2291 15.8568 35.4474 15.8375 35.7298C15.5635 35.7783 15.4121 35.5693 15.5259 35.1335C15.5259 35.1335 15.3279 34.9094 15.2154 34.6242V34.6241ZM8.73768 35.6049C8.93063 35.6047 9.12273 35.5814 9.30998 35.5356C10.5736 35.2264 11.7769 34.1565 12.4921 33.2582C12.0836 33.3863 11.6709 33.4695 11.2134 33.5154C11.2134 33.5154 10.893 33.8865 10.6464 34.0237C10.5214 34.0938 10.3965 34.1273 10.2781 34.1273C9.92071 34.1273 9.7689 33.837 9.7689 33.837C9.7689 33.837 10.3455 33.5634 10.7124 33.1747C10.6396 32.8883 10.5935 32.4915 10.5851 32.0959C9.59006 33.0855 7.71997 34.0471 6.41369 34.2337C6.67226 34.7666 7.5895 35.6049 8.73776 35.6049H8.73768ZM6.2079 33.5057C6.27344 33.5057 6.33897 33.5025 6.40425 33.4963C7.70289 33.3692 9.2702 32.5456 10.2795 31.8329C9.95819 31.8975 9.11346 31.9162 8.71269 31.8609C8.57405 31.9528 7.9629 32.3353 7.45434 32.3992C6.52682 32.5155 6.42873 31.9473 6.42873 31.9473C7.02458 31.8752 7.71156 31.676 8.36827 31.3733C8.43414 30.8837 8.54855 30.4472 8.64639 30.1255C7.21473 30.915 4.87901 31.4703 3.49342 31.4887C3.77069 32.1406 4.8456 33.5057 6.2079 33.5057ZM6.41207 28.8741C6.61165 28.5245 6.9276 28.1113 7.21515 27.7743C6.07207 28.086 4.60063 28.1512 3.82059 28.1512C2.90089 28.1512 2.00728 28.0869 1.49464 27.985C1.54012 28.8998 2.41893 30.4779 4.15294 30.6319C4.24338 30.6401 4.34342 30.6441 4.45044 30.6441C5.53215 30.6441 7.25255 30.2107 8.43635 29.7948C7.5923 29.6873 6.77706 29.4889 6.59108 29.4117C6.15087 29.5367 5.09924 29.7114 4.75771 29.6927C3.98251 29.6506 3.89955 29.0612 3.89955 29.0612C3.89955 29.0612 5.29466 29.1196 6.41199 28.8741H6.41207ZM2.2497 27.1978C2.89392 27.4039 3.92123 27.5221 5.06848 27.5221C5.76837 27.5221 6.50676 27.4601 7.10729 27.3756C6.45865 27.1569 5.65829 26.8263 5.13809 26.4988C4.48792 26.486 3.60545 26.4677 3.03876 26.2959C2.20541 26.0434 2.21723 25.4789 2.23202 25.3522C2.95257 25.6391 4.17818 25.9135 5.08412 25.967C5.41808 25.6484 5.93395 25.2688 6.47829 24.9383C4.32855 24.957 1.58423 24.1139 0.0423305 23.3056C-0.31025 26.1462 1.63787 27.0017 2.2497 27.1977V27.1978ZM6.9752 21.3077C6.64344 20.6775 6.31993 19.8297 6.27726 19.0989C5.27188 18.3166 4.12421 17.3213 3.46019 16.1836C3.0765 15.5259 3.21811 14.9496 3.48985 14.7512C3.69717 15.4656 5.04723 17.4663 6.27106 18.4695C6.28066 17.8283 6.38963 17.0909 6.55844 16.5363C5.13554 15.0029 3.5406 12.4632 3.15529 11.4682C2.7223 11.8234 1.97583 12.7167 1.7924 13.9755C1.60761 15.2427 2.02249 16.5443 3.0255 17.8446C3.79679 18.8448 5.49475 20.336 6.9752 21.3077ZM6.56626 24.5302C5.58808 23.8879 4.91003 23.292 4.54861 22.7568C3.73125 22.442 2.67436 21.9614 2.15373 21.5283C1.43837 20.9339 1.66481 20.3988 1.7482 20.2919C2.37805 20.9288 3.74213 21.8468 4.71096 22.2551C5.31582 22.0217 6.15631 21.8507 6.97512 21.7509C4.54836 20.8014 1.94336 19.019 0.58208 17.3388C0.306 17.8696 -0.815323 20.3664 1.28699 22.4138C2.39411 23.4923 4.67475 24.2364 6.56609 24.5303L6.56626 24.5302ZM38.1096 33.6957C38.012 33.9462 37.8352 34.3512 37.6884 34.6231C37.7788 34.7718 37.8994 34.9427 38.0047 35.0584C37.9919 35.152 37.5044 35.4077 37.1602 34.7483C36.8072 34.6758 36.455 34.5679 36.2119 34.4683C36.6295 35.3003 36.9961 35.9805 37.5757 36.3548C38.4371 36.9113 39.8188 36.7864 40.2645 36.1727C39.5068 35.7657 38.602 34.7226 38.1095 33.6957L38.1096 33.6957ZM35.7846 34.6241C35.672 34.9094 35.4741 35.1335 35.4741 35.1335C35.5878 35.5693 35.4364 35.7783 35.1623 35.7297C35.1431 35.4474 35.0468 35.229 35.0468 35.229C35.0468 35.229 34.4086 34.7198 34.0166 34.6241C34.4723 35.0251 34.8989 35.9069 34.7904 36.8442C36.0989 36.8067 36.1956 35.483 35.7846 34.6241ZM40.2877 33.1748C40.6545 33.5634 41.2309 33.837 41.2309 33.837C41.2309 33.837 41.0792 34.1274 40.7219 34.1274C40.6034 34.1274 40.4785 34.0938 40.3533 34.0237C40.1068 33.8865 39.7865 33.5154 39.7865 33.5154C39.329 33.4695 38.9162 33.3864 38.5076 33.2583C39.223 34.1566 40.4263 35.2265 41.6898 35.5356C41.877 35.5814 42.0693 35.6047 42.2622 35.6049C43.4103 35.6049 44.3277 34.7666 44.5862 34.2338C43.28 34.0471 41.4098 33.0856 40.4149 32.0959C40.4064 32.4915 40.3601 32.8883 40.2877 33.1748ZM42.6316 31.3734C43.2883 31.6761 43.9753 31.8753 44.5715 31.9474C44.5715 31.9474 44.4732 32.5157 43.5455 32.3992C43.0371 32.3353 42.4257 31.9528 42.2873 31.8609C41.8865 31.9162 41.0415 31.8975 40.7204 31.8329C41.7297 32.5456 43.2971 33.3692 44.5956 33.4963C44.6609 33.5025 44.7264 33.5057 44.792 33.5057C46.1544 33.5057 47.2292 32.1406 47.5064 31.4887C46.1208 31.4703 43.7853 30.915 42.3535 30.1256C42.4514 30.4473 42.5657 30.8837 42.6316 31.3733V31.3734ZM43.7846 27.7743C44.0723 28.1114 44.3881 28.5246 44.5877 28.8741C45.7051 29.1197 47.1001 29.0612 47.1001 29.0612C47.1001 29.0612 47.0173 29.6505 46.2422 29.6926C45.9005 29.7113 44.849 29.5367 44.4089 29.4116C44.2227 29.4888 43.4076 29.6872 42.5636 29.7948C43.7472 30.2107 45.468 30.6441 46.5496 30.6441C46.6567 30.6441 46.7566 30.6402 46.8469 30.6319C48.5809 30.478 49.4598 28.8999 49.5053 27.9851C48.9928 28.0869 48.099 28.1512 47.1793 28.1512C46.3996 28.1512 44.9278 28.0861 43.7847 27.7743H43.7846ZM50.9577 23.3057C49.4157 24.114 46.6714 24.957 44.5216 24.9384C45.0659 25.2689 45.5818 25.6485 45.9157 25.9671C46.8216 25.9135 48.0473 25.6391 48.7677 25.3523C48.7825 25.4789 48.7944 26.0434 47.9611 26.296C47.3944 26.4678 46.5119 26.486 45.8618 26.4989C45.3416 26.8264 44.5412 27.1569 43.8925 27.3756C44.4931 27.4601 45.2314 27.5221 45.9315 27.5221C47.0787 27.5221 48.106 27.404 48.7501 27.1978C49.3619 27.0018 51.3102 26.1462 50.9577 23.3057ZM47.5101 14.7512C47.7819 14.9496 47.9235 15.526 47.5397 16.1836C46.8756 17.3213 45.7281 18.3166 44.7227 19.0989C44.68 19.8297 44.3563 20.6775 44.0247 21.3077C45.505 20.336 47.2032 18.8448 47.9744 17.8447C48.9774 16.5444 49.3922 15.2428 49.2075 13.9756C49.0239 12.7167 48.2776 11.8234 47.8445 11.4682C47.4593 12.4632 45.8642 15.003 44.4413 16.5364C44.6102 17.0909 44.7193 17.8283 44.7289 18.4695C45.9525 17.4663 47.3028 15.4657 47.5101 14.7512ZM46.2889 22.2552C47.2578 21.8468 48.6219 20.9289 49.2516 20.292C49.335 20.3989 49.5614 20.934 48.8461 21.5284C48.3254 21.9615 47.2685 22.442 46.4513 22.7568C46.0898 23.292 45.4119 23.888 44.4337 24.5303C46.3249 24.2365 48.6057 23.4923 49.7131 22.4139C51.8153 20.3665 50.6938 17.8696 50.4179 17.3389C49.0566 19.0191 46.4516 20.8015 44.0247 21.751C44.8436 21.8507 45.6841 22.0218 46.2889 22.2553V22.2552ZM40.6342 19.3809C39.846 21.1925 37.8478 22.8077 36.5552 23.6164C35.9654 23.9852 36.1807 24.6846 36.3693 24.995C38.1301 27.8936 34.9281 30.0538 32.0358 28.6173C32.6669 28.6242 33.304 28.0928 33.3922 27.6192C33.1917 27.7909 32.3704 27.6966 32.1277 27.4743C32.5002 27.2812 32.5888 27.0855 32.6081 26.9024C32.1473 27.1826 31.216 27.2212 30.9416 26.7478C29.4135 26.707 28.3969 25.5252 28.2845 25.1842C28.1712 25.547 27.9882 26.181 27.9282 26.8066C27.5137 26.5285 26.8059 25.8993 26.4369 25.046C26.0193 25.6369 25.7044 26.3027 25.4999 27.0041C25.2955 26.3027 24.9807 25.6369 24.5629 25.046C24.1939 25.8993 23.4861 26.5286 23.0718 26.8067C23.0115 26.181 22.8288 25.5471 22.7154 25.1843C22.603 25.5254 21.5865 26.7071 20.0583 26.7479C19.7839 27.2213 18.8526 27.1827 18.3918 26.9024C18.411 27.0856 18.4997 27.2813 18.8722 27.4744C18.6295 27.6967 17.8082 27.7911 17.6075 27.6193C17.6958 28.0929 18.333 28.6242 18.964 28.6174C16.0717 30.0539 12.8696 27.8936 14.6306 24.9951C14.8193 24.6847 15.0344 23.9853 14.4448 23.6164C13.1522 22.8077 11.1539 21.1925 10.3657 19.3808C10.2721 20.1196 10.3435 21.9529 11.144 23.0936C10.5591 23.3153 9.80902 23.675 9.30472 24.0085C9.62364 24.3678 10.3663 24.9884 10.8653 25.3257C10.458 25.6847 9.82568 26.372 9.49384 26.822C9.91425 27.0698 10.7614 27.3707 11.4088 27.5737C11.1095 28.0631 10.6493 28.9459 10.5337 29.4713C11.2586 29.5758 11.9986 29.5662 12.6516 29.5458C12.5683 30.1584 12.6231 30.9277 12.6886 31.4882C13.3613 31.3923 14.1014 31.1217 14.5923 30.8655C14.6855 31.2883 14.9422 32.0686 15.1724 32.4863C15.8105 31.8859 16.6524 31.6111 17.4317 31.7702C19.0273 32.096 19.5016 33.6958 19.5016 33.6958L19.504 28.8293V28.286C19.504 27.9826 19.6687 27.8221 19.9642 27.8222H31.0359C31.3314 27.8221 31.496 27.9826 31.496 28.286V28.8292L31.4984 33.6957C31.4984 33.6957 31.9727 32.0959 33.5683 31.7701C34.3477 31.611 35.1896 31.8858 35.8278 32.4862C36.058 32.0685 36.3146 31.2882 36.4078 30.8654C36.8987 31.1216 37.6388 31.3922 38.3115 31.4881C38.3769 30.9277 38.4316 30.1584 38.3485 29.5458C38.9941 29.6121 39.7366 29.6121 40.4663 29.4712C40.3508 28.9459 39.8905 28.0632 39.5911 27.5738C40.2645 27.3947 41.0857 27.0699 41.5063 26.822C41.1746 26.3721 40.5422 25.6847 40.1349 25.3258C40.6337 24.9884 41.3763 24.3678 41.6955 24.0086C41.1911 23.675 40.4409 23.3153 39.856 23.0937C40.6565 21.9529 40.7281 20.1196 40.6343 19.3809H40.6342ZM20.5116 13.684L20.4459 13.8548C22.3804 13.8548 24.24 13.1987 24.7362 10.9139H23.2544C22.9914 12.5599 22.0154 13.684 20.5116 13.684ZM12.1481 9.9668C12.1481 9.9668 13.2063 10.2098 13.6203 11.6858C14.0345 13.1618 15.0753 13.8678 16.143 13.8678L16.0773 13.6666C15.456 13.59 14.5801 12.7129 14.4162 11.0885C14.251 9.45321 13.8463 9.24253 13.8463 9.24253C13.4282 8.95592 12.3773 9.71293 12.148 9.9668H12.1481ZM9.05286 10.627C9.9355 10.5983 10.5294 10.8766 11.6387 9.87499C12.9482 8.69204 13.5699 8.89423 13.5699 8.89423C12.9017 8.46328 11.9697 8.27178 11.6497 8.52064C11.3296 8.76975 10.8964 9.43785 10.1683 9.9136C9.14228 10.5839 8.08845 10.407 8.04136 11.0318H8.06992C8.06992 11.0318 8.17039 10.6559 9.05277 10.627H9.05286ZM9.86699 14.5481C10.4035 15.0725 10.4528 16.1497 10.4528 16.1497C10.4528 16.1497 11.0953 15.0078 10.5659 13.7938C10.0366 12.58 8.9546 11.6487 10.0152 10.9398C9.36744 10.9452 8.66534 10.7975 8.35705 11.2328C8.26108 11.3684 8.17217 11.7045 8.49509 12.1826C8.90539 12.7903 9.9304 14.2032 9.09051 15.1442C9.70455 15.0318 9.86699 14.5481 9.86699 14.5481ZM16.4936 13.8613H20.1287C20.1287 13.8613 20.2187 13.6426 20.3332 13.3267H16.2893C16.4039 13.6426 16.4936 13.8613 16.4936 13.8613ZM18.6688 8.74489C18.6688 8.54813 18.5119 8.38836 18.3186 8.38836C18.1251 8.38836 17.9681 8.54813 17.9681 8.74489C17.9681 8.94183 18.1251 9.10134 18.3186 9.10134C18.5119 9.10134 18.6688 8.94183 18.6688 8.74489ZM20.4844 12.9233C20.6397 12.44 20.8149 11.7051 20.8149 11.3504C20.8149 10.7023 20.463 9.98479 19.1927 9.76392C19.1927 10.5472 18.8088 12.4664 18.3446 12.4664H18.2924C17.8284 12.4664 17.4443 10.5615 17.4443 9.76376C16.1698 9.98436 15.8074 10.7021 15.8074 11.3504C15.8074 11.7052 15.9827 12.44 16.1382 12.9233H20.4845H20.4844ZM18.3186 11.9289C18.5604 11.9289 18.7564 10.6758 18.7564 10.0519C18.7564 9.71107 18.5605 9.48749 18.3186 9.48749C18.0766 9.48749 17.8805 9.71107 17.8805 10.0519C17.8805 10.6758 18.0766 11.9289 18.3186 11.9289H18.3186ZM18.0848 7.91313H18.5521L18.4937 7.31893L19.0776 7.37841V6.90309L18.4937 6.96257L18.5521 6.36838H18.0848L18.1432 6.96257L17.5593 6.90309V7.37841L18.1433 7.31893L18.0849 7.91313H18.0848ZM27.7454 10.9139H26.2636C26.7599 13.1988 28.6195 13.8548 30.554 13.8548L30.4883 13.684C28.9846 13.684 28.0084 12.56 27.7454 10.9139ZM34.8569 13.8678C35.9246 13.8678 36.9653 13.1618 37.3795 11.6858C37.7935 10.2099 38.8519 9.96688 38.8519 9.96688C38.6226 9.71302 37.5718 8.956 37.1536 9.24253C37.1536 9.24253 36.749 9.45321 36.5837 11.0887C36.4199 12.713 35.5439 13.5901 34.9227 13.6667L34.8569 13.8679V13.8678ZM39.3612 9.87499C40.4705 10.8766 41.0644 10.5984 41.9471 10.627C42.8294 10.6559 42.9298 11.0319 42.9298 11.0319H42.9585C42.9113 10.4071 41.8575 10.584 40.8316 9.9136C40.1035 9.43794 39.6702 8.76976 39.3502 8.52073C39.03 8.27178 38.0981 8.46337 37.4299 8.89423C37.4299 8.89423 38.0516 8.69204 39.3612 9.87499ZM42.6428 11.2329C42.3344 10.7975 41.6325 10.9453 40.9846 10.9398C42.0453 11.6487 40.9636 12.58 40.434 13.7938C39.9047 15.0079 40.547 16.1497 40.547 16.1497C40.547 16.1497 40.5964 15.0725 41.1329 14.5481C41.1329 14.5481 41.2953 15.0318 41.9095 15.1442C41.0695 14.2034 42.0945 12.7903 42.5049 12.1827C42.8278 11.7045 42.7389 11.3684 42.6428 11.2329ZM34.5062 13.8613C34.5062 13.8613 34.5958 13.6427 34.7107 13.3267H30.6667C30.7812 13.6427 30.8711 13.8613 30.8711 13.8613H34.5062ZM33.0317 8.74489C33.0317 8.54822 32.8748 8.38845 32.6813 8.38845C32.4879 8.38845 32.3309 8.54813 32.3309 8.74489C32.3309 8.94183 32.4879 9.10134 32.6813 9.10134C32.8748 9.10134 33.0317 8.94191 33.0317 8.74489ZM34.8616 12.9233C35.0173 12.4401 35.1925 11.7051 35.1925 11.3505C35.1925 10.7021 34.8299 9.98436 33.5555 9.76384C33.5555 10.5614 33.1717 12.4664 32.7076 12.4664H32.6554C32.1912 12.4664 31.8072 10.5472 31.8072 9.76392C30.5367 9.98479 30.1851 10.7023 30.1851 11.3504C30.1851 11.7052 30.3601 12.44 30.5154 12.9233H34.8617H34.8616ZM32.6813 11.9289C32.9233 11.9289 33.1194 10.6758 33.1194 10.0519C33.1194 9.71107 32.9233 9.48757 32.6813 9.48757C32.4394 9.48757 32.2435 9.71107 32.2435 10.0519C32.2435 10.6758 32.4394 11.9289 32.6813 11.9289ZM32.4479 7.91313H32.915L32.8567 7.31902L33.4406 7.3785V6.90318L32.8567 6.96266L32.915 6.36838H32.448L32.5064 6.96266L31.9222 6.90318V7.3785L32.5064 7.31902L32.448 7.91321L32.4479 7.91313ZM8.66466 22.1953C7.72048 22.2179 6.05779 22.4047 5.2134 22.6708C5.78732 23.3552 7.28622 24.3379 8.18433 24.7552C7.48597 25.018 6.23315 25.6849 5.71074 26.1662C6.38385 26.5793 7.86218 27.0514 8.56096 27.2057C8.15415 27.5335 7.31648 28.481 7.0092 28.992C7.5878 29.1712 8.77746 29.3271 9.53294 29.3712C9.29069 29.8724 9.01486 30.7572 8.94176 31.3337C9.31627 31.3713 10.5673 31.3071 11.1867 31.1691C11.1336 31.6715 11.1538 32.5855 11.2376 32.9795C11.8488 32.8924 12.7214 32.6482 13.1273 32.4924C13.245 32.9403 13.6652 33.9046 13.8129 34.1338C14.3025 34.0404 14.8869 33.8419 15.3166 33.6184C15.4524 33.9773 15.7609 34.5144 15.8462 34.6499C17.2773 33.2136 19.321 34.3783 19.321 35.907C19.1743 36.914 17.742 36.8577 16.9881 37.3311C15.9967 37.9535 16.1683 39.3966 15.1479 39.6182C16.112 40.2235 16.3926 39.0873 17.394 39.055C17.2604 39.6678 17.2731 40.7558 17.3734 41.2114C17.7856 40.8955 18.3636 40.6545 18.7418 40.63C18.6484 40.9874 18.5754 41.8239 18.7107 42.3448C18.9763 42.1449 19.9685 41.2884 22.3242 41.8391C22.6098 41.9058 20.7263 41.8323 20.9613 42.4355C21.1464 42.911 21.1989 43.2417 20.9774 43.9167C21.0773 43.9523 21.1932 43.9693 21.318 43.9693C21.8462 43.9693 22.5311 43.6649 22.8032 43.187C23.0134 43.3422 23.0134 44.4476 22.309 44.722C23.0614 44.7765 23.6344 44.1697 23.7456 43.7969C23.7456 43.7969 24.1134 44.6649 24.5495 44.9499C24.8234 44.8547 25.3114 44.4039 25.5 43.9358C25.6883 44.4039 26.1764 44.8547 26.4501 44.9499C26.8863 44.6649 27.2542 43.7969 27.2542 43.7969C27.3654 44.1697 27.9385 44.7765 28.6909 44.722C27.9865 44.4476 27.9865 43.3422 28.1966 43.187C28.4688 43.6649 29.1535 43.9693 29.6819 43.9693C29.8067 43.9693 29.9226 43.9523 30.0226 43.9167C29.8011 43.2417 29.8535 42.9111 30.0386 42.4355C30.2737 41.8323 28.3901 41.9058 28.6757 41.8391C31.031 41.2884 32.0236 42.1449 32.2894 42.3448C32.4245 41.8239 32.3516 40.9874 32.2582 40.63C32.6362 40.6545 33.2142 40.8955 33.6265 41.2114C33.7265 40.7557 33.7395 39.6678 33.6057 39.055C34.6071 39.0873 34.8876 40.2235 35.8519 39.6181C34.8315 39.3965 35.0029 37.9534 34.0116 37.3311C33.2577 36.8577 31.8254 36.914 31.6786 35.9069C31.6786 34.3783 33.7224 33.2135 35.1536 34.6499C35.2388 34.5143 35.5472 33.9772 35.6831 33.6183C36.1127 33.8419 36.6973 34.0404 37.1869 34.1338C37.3345 33.9046 37.7548 32.9402 37.8722 32.4923C38.2784 32.6481 39.151 32.8923 39.7621 32.9795C39.8459 32.5854 39.8661 31.6715 39.813 31.1691C40.4324 31.3071 41.6832 31.3713 42.0577 31.3336C41.9848 30.7571 41.7091 29.8724 41.4666 29.3711C42.2222 29.327 43.4118 29.1711 43.9907 28.9919C43.6831 28.4809 42.8454 27.5333 42.4389 27.2056C43.1374 27.0513 44.6158 26.5793 45.289 26.166C44.7666 25.6848 43.5137 25.0179 42.8154 24.7551C43.7136 24.3377 45.2123 23.3551 45.7864 22.6707C44.9418 22.4045 43.2791 22.2177 42.335 22.1952C44.2893 20.8712 44.3496 17.9994 43.7867 16.4389C43.4083 17.3849 42.1536 18.9391 41.3437 19.7771C41.4156 20.5746 41.1543 21.9893 40.7062 22.8528C41.3477 23.094 42.1081 23.458 42.6467 23.8638C42.2892 24.3092 41.5202 25.0004 41.0379 25.3749C41.4461 25.7977 42.1326 26.5742 42.4385 27.0231C41.9865 27.3584 41.0028 27.743 40.4985 27.9196C40.7467 28.4236 41.1071 29.343 41.2003 29.9776C40.626 30.0717 39.8355 30.1353 39.009 30.1254C39.0491 30.7332 38.9629 31.6741 38.856 32.2376C38.0894 32.1772 37.185 31.8656 36.7818 31.6653C36.5684 32.5052 36.0413 33.3201 36.0182 33.3634C33.6222 30.7769 31.4984 33.217 31.4984 35.4967V38.6034C31.4984 40.0728 31.0309 40.7436 29.6857 40.7436H27.9448C26.8611 40.7436 25.9529 41.199 25.4998 42.0738C25.0466 41.199 24.1385 40.7436 23.0548 40.7436H21.3138C19.9685 40.7436 19.5009 40.0728 19.5009 38.6033V35.4967C19.5009 33.217 17.3774 30.7769 14.9813 33.3634C14.9582 33.3201 14.4309 32.5052 14.2176 31.6653C13.8143 31.8656 12.91 32.1772 12.1437 32.2376C12.0365 31.6741 11.9503 30.7332 11.9905 30.1256C11.1641 30.1354 10.3736 30.0719 9.79908 29.9778C9.89241 29.3431 10.2528 28.4237 10.5011 27.9197C9.99687 27.7431 9.01308 27.3585 8.56105 27.0232C8.86679 26.5743 9.55334 25.7978 9.9616 25.375C9.47914 25.0004 8.71022 24.3092 8.3528 23.8638C8.89136 23.458 9.65185 23.094 10.2933 22.8527C9.84523 21.9893 9.58385 20.5746 9.65576 19.7771C8.8458 18.9391 7.59111 17.3848 7.21269 16.4388C6.64982 17.9994 6.71008 20.8712 8.66458 22.1951L8.66466 22.1953ZM3.27157 37.0281L3.09537 37.2143C3.09537 37.2143 3.46078 37.6873 3.7559 37.5074C3.92386 37.2003 3.44863 36.8427 3.44863 36.8427L3.27149 37.0281H3.27157Z" fill="#2A3338"/>
<path d="M70.5611 20.4149H65.2356V26.0644H62.936V12.7325H71.342V14.6005H65.2356V18.5652H70.5611V20.4149ZM76.7132 26.2475C75.314 26.2475 74.1778 25.8049 73.3056 24.9198C72.4393 24.0286 72.0061 22.8443 72.0061 21.3671V21.0924C72.0061 20.1035 72.1939 19.2214 72.5695 18.4462C72.9511 17.6648 73.4841 17.0575 74.1693 16.624C74.8537 16.1906 75.6168 15.9739 76.4594 15.9739C77.7978 15.9739 78.8308 16.4043 79.5583 17.265C80.291 18.1257 80.6581 19.3435 80.6581 20.9184V21.8157H74.2328C74.2996 22.6338 74.5686 23.2808 75.0416 23.757C75.5204 24.2331 76.1202 24.4712 76.841 24.4712C77.8528 24.4712 78.6768 24.0591 79.313 23.2351L80.5033 24.3796C80.1091 24.9717 79.582 25.4326 78.9221 25.7622C78.2673 26.0858 77.5313 26.2475 76.7132 26.2475ZM76.4501 17.7594C75.8444 17.7594 75.3537 17.9731 74.9781 18.4004C74.6084 18.8277 74.3724 19.4228 74.2692 20.1859H78.4763V20.0211C78.4281 19.2764 78.231 18.7148 77.8858 18.3363C77.5406 17.9517 77.0618 17.7594 76.4501 17.7594ZM81.5938 21.0374C81.5938 19.5114 81.9457 18.2875 82.6488 17.3657C83.3509 16.4379 84.2934 15.9739 85.4744 15.9739C86.5167 15.9739 87.3593 16.3402 88.0014 17.0727V12H90.2094V26.0644H88.2103L88.1012 25.0389C87.4405 25.8446 86.559 26.2475 85.4566 26.2475C84.3052 26.2475 83.3721 25.7805 82.6572 24.8466C81.9483 23.9126 81.5938 22.6429 81.5938 21.0374ZM83.8027 21.2297C83.8027 22.237 83.993 23.0244 84.3754 23.5921C84.7629 24.1538 85.3111 24.4345 86.0201 24.4345C86.9227 24.4345 87.5835 24.0286 88.0014 23.2167V18.9864C87.5953 18.1928 86.9405 17.7961 86.0378 17.7961C85.323 17.7961 84.7722 18.083 84.3839 18.6568C83.9964 19.2245 83.8027 20.0822 83.8027 21.2297ZM96.4715 26.2475C95.0722 26.2475 93.9361 25.8049 93.063 24.9198C92.1967 24.0286 91.7635 22.8443 91.7635 21.3671V21.0924C91.7635 20.1035 91.9513 19.2214 92.327 18.4462C92.7093 17.6648 93.2423 17.0575 93.9267 16.624C94.6112 16.1906 95.3751 15.9739 96.2169 15.9739C97.5561 15.9739 98.589 16.4043 99.3157 17.265C100.049 18.1257 100.416 19.3435 100.416 20.9184V21.8157H93.9902C94.057 22.6338 94.3269 23.2808 94.799 23.757C95.2778 24.2331 95.8776 24.4712 96.5984 24.4712C97.6102 24.4712 98.4342 24.0591 99.0704 23.2351L100.261 24.3796C99.8673 24.9717 99.3403 25.4326 98.6796 25.7622C98.0256 26.0858 97.2896 26.2475 96.4715 26.2475ZM96.2076 17.7594C95.6018 17.7594 95.1111 17.9731 94.7355 18.4004C94.3658 18.8277 94.1298 19.4228 94.0266 20.1859H98.2346V20.0211C98.1855 19.2764 97.9892 18.7148 97.6441 18.3363C97.298 17.9517 96.8201 17.7594 96.2076 17.7594ZM106.914 18.1898C106.623 18.1409 106.323 18.1166 106.014 18.1166C105.003 18.1166 104.321 18.5072 103.97 19.2886V26.0644H101.761V16.1571H103.869L103.924 17.265C104.457 16.4043 105.196 15.9739 106.141 15.9739C106.456 15.9739 106.717 16.0166 106.923 16.1021L106.914 18.1898ZM113.539 26.0644C113.442 25.8752 113.358 25.5669 113.285 25.1396C112.582 25.8782 111.721 26.2475 110.704 26.2475C109.716 26.2475 108.91 25.9636 108.287 25.3959C107.662 24.8283 107.35 24.1262 107.35 23.29C107.35 22.2339 107.738 21.4251 108.513 20.8635C109.295 20.2958 110.41 20.0119 111.858 20.0119H113.212V19.3618C113.212 18.8491 113.069 18.44 112.785 18.1349C112.5 17.8235 112.067 17.6679 111.485 17.6679C110.982 17.6679 110.57 17.7961 110.249 18.0525C109.928 18.3027 109.767 18.6232 109.767 19.0139H107.559C107.559 18.4706 107.738 17.9639 108.096 17.4939C108.453 17.0177 108.937 16.6454 109.55 16.3768C110.167 16.1083 110.855 15.9739 111.612 15.9739C112.764 15.9739 113.682 16.267 114.366 16.853C115.05 17.4329 115.402 18.2508 115.42 19.3069V23.7753C115.42 24.6665 115.545 25.3776 115.793 25.9087V26.0644H113.539ZM111.112 24.462C111.549 24.462 111.957 24.3552 112.34 24.1415C112.727 23.9279 113.018 23.641 113.212 23.2808V21.4129H112.022C111.204 21.4129 110.589 21.5564 110.177 21.8433C109.765 22.1301 109.558 22.5361 109.558 23.0611C109.558 23.4884 109.698 23.8302 109.977 24.0866C110.261 24.3369 110.64 24.462 111.112 24.462ZM119.71 26.0644H117.502V12H119.71V26.0644ZM133.634 22.9603H128.508L127.436 26.0644H125.045L130.044 12.7325H132.107L137.114 26.0644H134.715L133.634 22.9603ZM129.153 21.0924H132.988L131.07 15.5619L129.153 21.0924ZM137.65 21.0374C137.65 19.4992 138.008 18.2722 138.723 17.3566C139.444 16.4348 140.398 15.9739 141.586 15.9739C142.706 15.9739 143.588 16.3676 144.231 17.1552L144.33 16.1571H146.32V25.7622C146.32 27.0625 145.917 28.088 145.112 28.8388C144.312 29.5896 143.231 29.9651 141.868 29.9651C141.146 29.9651 140.44 29.8124 139.75 29.5073C139.065 29.2082 138.545 28.8144 138.187 28.326L139.232 26.9892C139.91 27.801 140.747 28.207 141.74 28.207C142.473 28.207 143.052 28.0055 143.476 27.6027C143.9 27.2059 144.112 26.6199 144.112 25.8446V25.1762C143.476 25.8904 142.627 26.2475 141.567 26.2475C140.416 26.2475 139.474 25.7867 138.741 24.8649C138.014 23.9431 137.65 22.6673 137.65 21.0374ZM139.85 21.2297C139.85 22.2247 140.05 23.0092 140.45 23.583C140.856 24.1507 141.416 24.4345 142.131 24.4345C143.022 24.4345 143.682 24.0499 144.112 23.2808V18.9223C143.694 18.1715 143.039 17.7961 142.149 17.7961C141.422 17.7961 140.856 18.086 140.45 18.6659C140.05 19.2459 139.85 20.1005 139.85 21.2297ZM152.555 26.2475C151.156 26.2475 150.02 25.8049 149.147 24.9198C148.28 24.0286 147.847 22.8443 147.847 21.3671V21.0924C147.847 20.1035 148.035 19.2214 148.411 18.4462C148.793 17.6648 149.326 17.0575 150.01 16.624C150.695 16.1906 151.459 15.9739 152.301 15.9739C153.64 15.9739 154.673 16.4043 155.399 17.265C156.133 18.1257 156.499 19.3435 156.499 20.9184V21.8157H150.074C150.141 22.6338 150.411 23.2808 150.883 23.757C151.361 24.2331 151.961 24.4712 152.682 24.4712C153.694 24.4712 154.518 24.0591 155.154 23.2351L156.344 24.3796C155.951 24.9717 155.424 25.4326 154.763 25.7622C154.109 26.0858 153.373 26.2475 152.555 26.2475ZM152.291 17.7594C151.685 17.7594 151.195 17.9731 150.819 18.4004C150.449 18.8277 150.213 19.4228 150.11 20.1859H154.318V20.0211C154.27 19.2764 154.073 18.7148 153.728 18.3363C153.382 17.9517 152.904 17.7594 152.291 17.7594ZM159.898 16.1571L159.962 17.3016C160.689 16.4165 161.643 15.9739 162.825 15.9739C164.873 15.9739 165.914 17.1552 165.951 19.5175V26.0644H163.743V19.6457C163.743 19.0169 163.606 18.553 163.334 18.2539C163.067 17.9486 162.628 17.7961 162.016 17.7961C161.125 17.7961 160.462 18.202 160.025 19.0139V26.0644H157.817V16.1571H159.898ZM171.877 24.4712C172.428 24.4712 172.885 24.3094 173.249 23.9858C173.612 23.6624 173.807 23.2625 173.83 22.7864H175.911C175.887 23.4029 175.697 23.9798 175.339 24.517C174.982 25.048 174.497 25.4693 173.885 25.7805C173.273 26.0918 172.613 26.2475 171.904 26.2475C170.528 26.2475 169.438 25.7989 168.632 24.9015C167.826 24.0042 167.424 22.765 167.424 21.184V20.9551C167.424 19.4473 167.824 18.2417 168.623 17.3382C169.423 16.4287 170.513 15.9739 171.895 15.9739C173.064 15.9739 174.016 16.3188 174.748 17.0086C175.488 17.6923 175.875 18.5927 175.911 19.7098H173.83C173.807 19.1421 173.612 18.6751 173.249 18.3089C172.891 17.9426 172.434 17.7594 171.877 17.7594C171.162 17.7594 170.61 18.0219 170.223 18.5469C169.835 19.0658 169.638 19.8563 169.632 20.9184V21.2755C169.632 22.3499 169.823 23.1526 170.204 23.6837C170.592 24.2087 171.149 24.4712 171.877 24.4712ZM180.647 22.8779L182.646 16.1571H185L181.092 27.566C180.493 29.2325 179.474 30.0658 178.038 30.0658C177.718 30.0658 177.363 30.0109 176.975 29.901V28.1795L177.394 28.207C177.95 28.207 178.369 28.1032 178.647 27.8957C178.933 27.6942 179.157 27.3524 179.32 26.8702L179.638 26.0186L176.185 16.1571H178.565L180.647 22.8779ZM63.4995 44.8169V36.5577H62V34.9096H63.4995V34.0031C63.4995 32.9043 63.8024 32.0558 64.4083 31.4575C65.014 30.8593 65.8625 30.5602 66.953 30.5602C67.3404 30.5602 67.7524 30.6152 68.189 30.7251L68.134 32.4648C67.892 32.416 67.6103 32.3916 67.2888 32.3916C66.2347 32.3916 65.7077 32.9379 65.7077 34.0305V34.9096H67.7068V36.5577H65.7077V44.8169H63.4995ZM68.5341 39.7717C68.5341 38.8011 68.7253 37.9282 69.1069 37.1529C69.4884 36.3715 70.0248 35.7733 70.716 35.3582C71.4063 34.9371 72.1998 34.7264 73.0966 34.7264C74.4231 34.7264 75.4992 35.1568 76.3232 36.0175C77.1532 36.8782 77.6015 38.0197 77.6675 39.442L77.6768 39.9639C77.6768 40.9407 77.489 41.8136 77.1134 42.5827C76.7437 43.3518 76.2107 43.9471 75.5136 44.3682C74.8233 44.7895 74.0238 45 73.1152 45C71.7278 45 70.6153 44.5361 69.7795 43.6082C68.9495 42.6743 68.5341 41.4321 68.5341 39.8816V39.7717ZM70.743 39.9639C70.743 40.9834 70.952 41.7831 71.3699 42.363C71.7878 42.9368 72.3699 43.2237 73.1152 43.2237C73.8597 43.2237 74.4384 42.9307 74.8504 42.3446C75.2683 41.7586 75.4772 40.901 75.4772 39.7717C75.4772 38.7706 75.2624 37.977 74.8326 37.391C74.4079 36.805 73.8301 36.5119 73.0966 36.5119C72.3758 36.5119 71.8031 36.8019 71.3792 37.3818C70.9545 37.9556 70.743 38.8164 70.743 39.9639ZM84.3204 36.9423C84.0294 36.8935 83.7299 36.8691 83.4212 36.8691C82.4093 36.8691 81.7275 37.2597 81.3764 38.0411V44.8169H79.1675V34.9096H81.2757L81.3307 36.0175C81.8637 35.1568 82.6031 34.7264 83.5481 34.7264C83.8628 34.7264 84.1233 34.7691 84.3298 34.8546L84.3204 36.9423ZM98.8344 33.353H94.7084V44.8169H92.4276V33.353H88.3381V31.4851H98.8344V33.353ZM97.6897 39.7717C97.6897 38.8011 97.8809 37.9282 98.2625 37.1529C98.644 36.3715 99.1804 35.7733 99.8707 35.3582C100.562 34.9371 101.355 34.7264 102.252 34.7264C103.579 34.7264 104.654 35.1568 105.478 36.0175C106.308 36.8782 106.756 38.0197 106.823 39.442L106.832 39.9639C106.832 40.9407 106.645 41.8136 106.269 42.5827C105.899 43.3518 105.366 43.9471 104.669 44.3682C103.979 44.7895 103.179 45 102.27 45C100.883 45 99.7709 44.5361 98.935 43.6082C98.1051 42.6743 97.6897 41.4321 97.6897 39.8816V39.7717ZM99.8978 39.9639C99.8978 40.9834 100.108 41.7831 100.526 42.363C100.943 42.9368 101.525 43.2237 102.27 43.2237C103.015 43.2237 103.594 42.9307 104.006 42.3446C104.424 41.7586 104.633 40.901 104.633 39.7717C104.633 38.7706 104.418 37.977 103.987 37.391C103.563 36.805 102.985 36.5119 102.252 36.5119C101.531 36.5119 100.959 36.8019 100.534 37.3818C100.11 37.9556 99.8978 38.8164 99.8978 39.9639ZM114.285 43.8463C113.637 44.6155 112.715 45 111.522 45C110.456 45 109.647 44.6856 109.095 44.0569C108.55 43.4282 108.277 42.5186 108.277 41.3283V34.9096H110.486V41.3008C110.486 42.5583 111.004 43.1871 112.04 43.1871C113.112 43.1871 113.836 42.7994 114.212 42.0241V34.9096H116.42V44.8169H114.339L114.285 43.8463ZM123.445 36.9423C123.155 36.8935 122.855 36.8691 122.546 36.8691C121.534 36.8691 120.852 37.2597 120.501 38.0411V44.8169H118.293V34.9096H120.401L120.456 36.0175C120.988 35.1568 121.728 34.7264 122.673 34.7264C122.988 34.7264 123.249 34.7691 123.455 34.8546L123.445 36.9423ZM126.817 44.8169H124.609V34.9096H126.817V44.8169ZM124.473 32.3366C124.473 31.9948 124.579 31.7109 124.791 31.4851C125.009 31.2592 125.318 31.1462 125.718 31.1462C126.118 31.1462 126.427 31.2592 126.645 31.4851C126.863 31.7109 126.972 31.9948 126.972 32.3366C126.972 32.6723 126.863 32.9531 126.645 33.179C126.427 33.3988 126.118 33.5086 125.718 33.5086C125.318 33.5086 125.009 33.3988 124.791 33.179C124.579 32.9531 124.473 32.6723 124.473 32.3366ZM134.37 42.1249C134.37 41.7281 134.206 41.4259 133.879 41.2184C133.558 41.0108 133.022 40.8277 132.271 40.669C131.519 40.5103 130.893 40.3089 130.389 40.0647C129.287 39.5275 128.735 38.7492 128.735 37.7297C128.735 36.8751 129.093 36.161 129.808 35.5872C130.523 35.0133 131.431 34.7264 132.534 34.7264C133.71 34.7264 134.657 35.0195 135.379 35.6055C136.106 36.1915 136.469 36.9515 136.469 37.8855H134.26C134.26 37.4582 134.103 37.1041 133.788 36.8233C133.473 36.5364 133.055 36.3929 132.534 36.3929C132.049 36.3929 131.652 36.5059 131.343 36.7317C131.041 36.9576 130.889 37.2597 130.889 37.6382C130.889 37.9801 131.031 38.2456 131.316 38.4348C131.602 38.6241 132.177 38.8164 133.043 39.0117C133.909 39.201 134.588 39.4298 135.079 39.6984C135.575 39.9609 135.942 40.2784 136.178 40.6507C136.42 41.0231 136.542 41.4748 136.542 42.0058C136.542 42.8971 136.175 43.6205 135.442 44.1759C134.709 44.7254 133.749 45 132.562 45C131.756 45 131.038 44.8536 130.408 44.5605C129.778 44.2675 129.287 43.8646 128.935 43.3518C128.584 42.8391 128.408 42.2867 128.408 41.6945H130.553C130.583 42.2195 130.78 42.6254 131.144 42.9123C131.508 43.1932 131.989 43.3336 132.589 43.3336C133.17 43.3336 133.612 43.2237 133.915 43.0039C134.218 42.7781 134.37 42.485 134.37 42.1249ZM140.177 34.9096L140.241 35.9442C140.932 35.1323 141.877 34.7264 143.077 34.7264C144.391 34.7264 145.291 35.2331 145.775 36.2464C146.49 35.2331 147.496 34.7264 148.793 34.7264C149.877 34.7264 150.683 35.0286 151.21 35.6329C151.743 36.2373 152.015 37.1285 152.028 38.3066V44.8169H149.819V38.3707C149.819 37.742 149.683 37.2811 149.411 36.9881C149.138 36.6951 148.686 36.5486 148.056 36.5486C147.554 36.5486 147.142 36.6859 146.821 36.9606C146.505 37.2292 146.285 37.5833 146.157 38.0228L146.166 44.8169H143.958V38.2975C143.928 37.1315 143.337 36.5486 142.186 36.5486C141.301 36.5486 140.674 36.9118 140.304 37.6382V44.8169H138.096V34.9096H140.177Z" fill="#2A3338"/>
</svg>
