<svg width="280" height="65" viewBox="0 0 280 65" fill="none" xmlns="http://www.w3.org/2000/svg">
<path fill-rule="evenodd" clip-rule="evenodd" d="M46.9467 53.8912C46.846 53.8912 46.6218 54.6479 46.8525 55.1845C46.9753 55.4703 47.2639 55.591 47.5053 55.511C47.7432 55.4322 47.8125 55.2076 47.8191 55.0326C47.8414 54.4445 47.3217 53.8912 46.9466 53.8912H46.9467ZM45.2164 45.3102L45.292 46.141L44.5695 46.0609V47.0071L45.292 46.9273L45.2164 47.7949H46.1977L46.122 46.9273L46.8444 47.0071V46.061L46.122 46.1411L46.1977 45.3102H45.2164ZM45.7083 48.5844C45.5129 48.5844 45.3544 48.7453 45.3544 48.9438C45.3544 49.1423 45.5129 49.3032 45.7083 49.3032C45.9037 49.3032 46.0621 49.1423 46.0621 48.9438C46.0621 48.7453 45.9037 48.5844 45.7083 48.5844ZM45.7083 50.0395C45.5129 50.0395 45.3544 50.2003 45.3544 50.3988C45.3544 50.5973 45.5129 50.7582 45.7083 50.7582C45.9037 50.7582 46.0621 50.5973 46.0621 50.3988C46.0621 50.2003 45.9037 50.0395 45.7083 50.0395ZM45.7083 51.5154C45.5129 51.5154 45.3544 51.6762 45.3544 51.8747C45.3544 52.0734 45.5129 52.2342 45.7083 52.2342C45.9037 52.2342 46.0621 52.0733 46.0621 51.8747C46.0621 51.6762 45.9037 51.5153 45.7083 51.5153V51.5154ZM46.8511 51.8747C46.8511 52.0734 47.0096 52.2342 47.205 52.2342C47.4004 52.2342 47.5588 52.0733 47.5588 51.8747C47.5588 51.6762 47.4004 51.5153 47.205 51.5153C47.0095 51.5153 46.8511 51.6762 46.8511 51.8746V51.8747ZM48.3343 51.8747C48.3343 52.0734 48.493 52.2342 48.6884 52.2342C48.8839 52.2342 49.0423 52.0733 49.0423 51.8747C49.0423 51.6762 48.8838 51.5153 48.6884 51.5153C48.493 51.5153 48.3343 51.6762 48.3343 51.8746V51.8747ZM45.7083 53.4912C45.4054 53.4912 44.6581 55.0181 45.2151 55.7903C45.3217 55.938 45.5084 56.0209 45.7083 56.0209C45.9082 56.0209 46.0949 55.938 46.2016 55.7903C46.7587 55.0181 46.0112 53.4912 45.7083 53.4912ZM44.47 53.8911C44.0949 53.8911 43.5751 54.4444 43.5975 55.0325C43.604 55.2074 43.6733 55.432 43.9112 55.5109C44.1526 55.5909 44.4414 55.4702 44.5642 55.1844C44.7947 54.6478 44.5707 53.8911 44.47 53.8911ZM43.8942 51.8746C43.8942 52.0734 44.0524 52.2342 44.2481 52.2342C44.4437 52.2342 44.602 52.0733 44.602 51.8746C44.602 51.6762 44.4436 51.5153 44.2479 51.5153C44.0523 51.5153 43.8941 51.6762 43.8941 51.8746H43.8942ZM42.4473 51.8746C42.4473 52.0734 42.6056 52.2342 42.8011 52.2342C42.9965 52.2342 43.1552 52.0733 43.1552 51.8746C43.1552 51.6762 42.9966 51.5153 42.8011 51.5153C42.6056 51.5153 42.4473 51.6762 42.4473 51.8746ZM42.0984 51.8746C42.0984 51.5683 42.1517 51.2922 42.1517 51.2922H45.0925V51.039L45.0927 48.9037L45.0925 48.9034V48.2964C43.673 48.5437 42.5377 49.6322 42.1993 51.0384C42.1169 51.1554 41.8501 51.2152 41.6621 51.1943C40.5768 51.0621 38.3806 50.6686 38.3806 50.2034C38.3806 49.5501 38.8256 49.2887 39.2532 49.2887C39.8631 49.2887 40.5369 49.6171 41.0979 48.8094C39.1012 48.9003 40.6318 46.032 38.994 45.4878C39.0752 46.2203 38.9948 47.5089 38.7364 48.1899C38.7364 48.1899 38.1496 47.5667 37.4905 47.3316C37.5399 47.8633 37.4397 48.9653 37.2006 49.4671C37.2006 49.4671 36.5028 48.8247 35.7791 48.5844C36.4467 49.5469 36.4239 50.9203 36.2442 51.7557C36.1921 51.9974 36.3734 52.2983 36.8824 52.2761C37.6788 52.2411 40.3989 52.3603 41.5788 52.8401C41.9456 52.9892 42.2597 53.1603 42.4133 53.4202C42.5383 53.7704 42.8475 54.3129 43.2281 54.591C43.399 53.9856 44.1274 53.3373 44.602 53.3606C44.7436 53.3676 44.9004 53.603 44.9328 53.8337C44.9747 53.6191 45.3248 53.0265 45.7083 53.0265C46.0621 53.0265 46.4022 53.5224 46.5202 53.9319C46.5559 53.6688 46.7123 53.3875 46.8541 53.3875C47.3306 53.3875 47.9299 53.8079 48.1557 54.502C48.3386 54.2754 49.1784 53.2023 49.2732 52.4982H42.1515C42.1515 52.4982 42.0983 52.1936 42.0983 51.8748L42.0984 51.8746ZM46.3241 48.2969V51.2923H49.2675C49.0116 49.7651 47.8268 48.5596 46.3241 48.2969ZM11.5905 50.7632C11.6522 50.7839 11.7147 50.7692 11.7764 50.7366C11.578 51.0113 11.5862 51.1919 11.6716 51.2767C11.8057 51.4087 11.9052 51.1659 12.2444 50.8079C12.5839 50.4503 12.8188 50.3413 12.6851 50.2087C12.5988 50.1234 12.4202 50.1211 12.1536 50.3372C12.183 50.274 12.1944 50.211 12.1729 50.1495C12.0606 49.8266 11.5382 49.3969 11.2503 49.3959C11.2087 49.3963 11.1676 49.4049 11.1294 49.4211C11.2561 49.219 11.2234 49.0662 11.1387 48.9825C11.0453 48.8905 10.9919 48.955 10.8872 49.0881C10.9015 48.9951 10.8775 48.886 10.7891 48.753C10.3568 48.1027 8.07062 45.9614 7.55142 45.7463C7.24161 45.6173 7.13991 45.7957 7.13991 45.7957C7.13991 45.7957 6.96844 45.9055 7.10401 46.2179C7.33092 46.7406 9.52779 48.9765 10.1776 49.3973C10.311 49.4834 10.418 49.5043 10.5086 49.4871C10.3822 49.5971 10.3216 49.6538 10.4145 49.7456C10.4993 49.8293 10.6503 49.8577 10.8445 49.7216C10.8298 49.7614 10.823 49.8035 10.8242 49.8457C10.834 50.1392 11.2708 50.6589 11.5906 50.7631L11.5905 50.7632ZM6.0951 44.4283C6.02737 44.4283 5.93123 44.4443 5.8604 44.5188C5.78871 44.5942 5.76361 44.711 5.78967 44.8464C5.81831 44.9936 5.9027 45.143 6.02769 45.2667C6.17736 45.415 6.3656 45.5034 6.53065 45.5034C6.59881 45.5034 6.69432 45.488 6.76525 45.4136C6.91962 45.2506 6.84335 44.908 6.59817 44.6653C6.44807 44.5174 6.26037 44.4284 6.0951 44.4284V44.4283ZM13.2054 52.3768C13.2035 52.1506 12.7731 51.7711 12.2626 51.7711C11.5045 51.7711 11.1763 52.2497 11.1763 52.4935C11.1763 52.9526 11.6219 53.0117 11.7584 53.0193C12.292 53.0522 13.1524 52.5089 13.2054 52.3768ZM12.5524 53.5232C12.3509 53.7802 12.2755 54.0312 12.3276 54.2691C12.3911 54.5572 12.677 54.6865 12.9326 54.6865C13.2019 54.6865 13.4431 54.56 13.5777 54.3476C13.8675 53.8929 13.8802 52.8855 13.7825 52.7754C13.5398 52.7754 12.8941 53.0875 12.5524 53.5233V53.5232ZM5.89875 43.0354C5.68445 42.8234 5.24634 43.1394 4.98439 42.9923C5.10051 42.3447 5.56074 43.0244 6.00558 42.5562C6.18292 42.3691 6.08773 42.0772 5.98592 41.989C5.79427 42.1825 5.49771 42.1155 5.47495 42.0079C5.97973 40.8198 4.99336 39.4951 4.04631 39.6611C4.23209 39.9087 4.28764 40.7695 4.20666 41.0022C4.56732 41.2601 4.30954 41.8677 3.91159 41.6912C3.64473 41.5829 3.17393 40.9184 3.71524 40.4501C3.69975 40.2813 3.40191 40.2404 3.08537 40.647C3.31762 39.9006 1.89613 40.1347 1.60405 40.3138C1.43804 40.6171 1.25386 42.0753 1.97678 41.815C1.58899 42.151 1.63856 42.4534 1.80415 42.4643C2.24525 41.8973 2.90995 42.3573 3.02458 42.6263C3.20993 43.0273 2.62311 43.3087 2.35945 42.9489C2.13393 43.0391 1.28976 43.0095 1.04138 42.8275C0.909014 43.7992 2.23628 44.764 3.38364 44.2121C3.4894 44.232 3.5644 44.5318 3.38129 44.7338C3.47081 44.8354 3.75926 44.9231 3.93681 44.736C4.38101 44.2677 3.70124 43.819 4.33165 43.6799C4.48378 43.9427 4.1885 44.4 4.40248 44.612C4.7453 44.9512 5.17593 44.2934 5.59888 44.2669C5.61127 43.8345 6.24146 43.3747 5.89875 43.0353V43.0354ZM2.34567 41.5353C2.34567 41.5353 2.124 41.3784 2.3899 41.091C2.66232 40.8104 2.82331 41.0321 2.82331 41.0321C2.82331 41.0321 3.07308 41.5858 3.14701 41.8407C2.8951 41.7733 2.34578 41.5353 2.34578 41.5353H2.34567ZM4.53997 43.2194C4.40237 43.2367 4.07633 43.5258 3.91288 43.3639L3.16474 42.624L3.53876 42.2287L3.91427 41.8343L4.66176 42.5752C4.82521 42.7365 4.55258 43.0786 4.53997 43.2193V43.2194ZM16.9358 54.56C16.9613 54.4492 16.9439 54.3602 16.8855 54.3026C16.8673 54.2844 16.8508 54.2742 16.8409 54.2742C16.7988 54.2742 16.705 54.3896 16.6146 54.5013C16.5394 54.594 16.4455 54.7093 16.3258 54.835C16.2067 54.9614 16.0964 55.0604 16.0079 55.1404C15.9029 55.2351 15.7939 55.3332 15.7928 55.3775C15.7928 55.3877 15.8034 55.4044 15.8226 55.4232C15.8612 55.4618 15.913 55.4809 15.976 55.4809C16.0722 55.4809 16.2805 55.4318 16.5941 55.1009C16.8322 54.8505 16.9117 54.6685 16.936 54.56H16.9358ZM16.9404 55.4431C16.7774 55.6153 16.6117 55.7376 16.5201 55.8002C16.585 55.8658 16.7699 55.9821 17.001 55.9821C17.133 55.9821 17.2561 55.9435 17.3686 55.8671C17.5992 55.4885 17.3766 55.1013 17.2766 55.0027C17.2181 55.0985 17.1033 55.2716 16.9403 55.4431H16.9404ZM14.4157 53.3375C14.2969 53.4482 14.0224 54.2167 14.1421 54.6848C14.1937 54.8853 14.3049 54.971 14.4931 54.9608C14.6877 54.9486 14.7939 54.8477 14.8267 54.6423C14.9014 54.1749 14.5452 53.432 14.4156 53.3374L14.4157 53.3375ZM14.2654 51.2017C14.2721 51.2148 15.674 52.4414 16.1442 52.8854C16.255 52.9902 16.4079 53.0145 16.563 52.9357C16.6516 52.8908 16.7618 52.8391 16.8758 52.787C18.2775 52.2942 20.5833 52.2387 21.4289 52.276C21.9381 52.2981 22.118 51.9977 22.0672 51.7556C21.9016 50.9649 21.8646 49.5468 22.5324 48.5843C21.8086 48.8247 21.1109 49.4669 21.1109 49.4669C20.8715 48.9653 20.7713 47.8632 20.8207 47.3315C20.1618 47.5665 19.5748 48.1899 19.5748 48.1899C19.3167 47.5089 19.2361 46.2203 19.3174 45.4879C17.6795 46.032 19.2103 48.9003 17.2134 48.8095C17.7745 49.6171 18.4484 49.2888 19.0581 49.2888C19.4858 49.2888 20.0169 49.5673 19.9308 50.2036C19.8683 50.6643 17.1891 51.238 16.1115 51.238C15.3584 51.238 14.854 51.0067 14.4761 50.4868C14.2942 50.2368 14.1088 50.1235 13.9011 50.1554C13.6433 50.1949 13.3419 50.4571 13.3419 51.0641C13.3419 51.4942 13.5166 52.4368 14.0357 52.4368C14.4003 52.4368 14.4164 51.6918 14.2654 51.2018V51.2017ZM15.9978 54.5106C16.2424 54.2522 16.3281 54.0642 16.2676 53.9174C16.1801 53.7056 15.6238 53.0894 14.8953 52.3942C14.8736 52.5378 14.8411 52.6796 14.7982 52.8183C15.2891 53.4635 15.4725 54.1563 15.307 54.7383C15.3668 54.7778 15.404 54.7959 15.4257 54.8043C15.6141 54.8788 15.8494 54.667 15.9977 54.5106H15.9978ZM12.4533 51.0019C12.4497 51.0056 12.3591 51.0944 12.3005 51.2143C12.4528 51.2151 12.6304 51.2412 12.7901 51.284C12.7794 51.1433 12.7689 50.9531 12.7828 50.7888C12.648 50.8189 12.5033 50.9481 12.4533 51.0019ZM36.9371 55.4336C37.3986 55.2247 37.7314 54.6581 37.8189 54.1037C37.5265 54.2461 37.1968 54.3155 36.8167 54.3155C35.7711 54.3155 34.4575 53.7388 33.2669 53.216C33.2669 53.216 33.0102 53.4302 32.5848 53.4749C33.7861 53.8412 36.1469 55.1407 36.3204 55.9744C36.4363 56.5319 36.07 56.7448 36.07 56.7448C35.5447 55.8946 34.1909 54.5746 32.3843 53.9144C32.3879 54.2251 32.3279 54.4432 32.3279 54.4432C32.3279 54.4432 31.9612 54.5325 31.1825 54.3985C31.8634 54.962 33.6521 56.9525 33.8463 58.4626C33.9756 59.4709 33.2654 59.5175 33.2654 59.5175C33.1639 58.0011 32.3621 56.4318 30.915 54.8561C30.915 54.8561 30.6777 55.2252 30.3622 55.4114C30.3622 55.4114 29.8277 55.3174 29.3842 55.0264C29.555 57.0272 29.6558 59.6263 29.5499 60.413C29.4758 60.9609 29.1559 61.1904 29.1559 61.1904C29.1559 61.1904 28.8347 60.9607 28.7606 60.413C28.6548 59.6262 28.7556 57.0272 28.9264 55.0264C28.4829 55.3174 27.9484 55.4114 27.9484 55.4114C27.6329 55.2253 27.396 54.8562 27.396 54.8562C25.9484 56.4319 25.1465 58.0011 25.0453 59.5175C25.0453 59.5175 24.3349 59.4709 24.4645 58.4627C24.6586 56.9525 26.4474 54.9621 27.1282 54.3986C26.3494 54.5326 25.9828 54.4432 25.9828 54.4432C25.9828 54.4432 25.9228 54.2252 25.9265 53.9144C24.1199 54.5746 22.7663 55.8946 22.2408 56.7448C22.2408 56.7448 21.8745 56.5319 21.9906 55.9744C22.1639 55.1408 24.5247 53.8412 25.7262 53.4749C25.3007 53.4303 25.0439 53.216 25.0439 53.216C23.8534 53.7388 22.5395 54.3155 21.494 54.3155C21.114 54.3155 20.7842 54.2461 20.492 54.1038C20.5795 54.6581 20.9124 55.2247 21.3736 55.4337C19.7583 56.561 20.7557 59.2029 18.5895 58.7063C19.7974 60.9307 22.2408 61.1542 22.2408 61.1542C21.6996 59.9775 22.3744 56.3873 25.6173 54.7559C23.6211 56.7299 22.7116 59.1233 23.2413 60.8116C23.7273 62.3614 25.3069 62.9894 26.4963 63.0163C25.6553 60.4541 26.1736 57.5194 27.9191 55.6721C27.1712 57.6981 26.1194 63.1057 29.1561 64.143C32.1925 63.1057 31.14 57.6982 30.3918 55.6721C32.1376 57.5194 32.6558 60.4541 31.8147 63.0163C33.004 62.9894 34.5837 62.3614 35.0698 60.8116C35.5994 59.1233 34.6898 56.7299 32.6938 54.7559C35.9368 56.3873 36.6115 59.9775 36.0701 61.1542C36.0701 61.1542 38.5137 60.9307 39.7216 58.7063C37.5552 59.2027 38.5527 56.561 36.9373 55.4337L36.9371 55.4336ZM29.4137 10.8649C29.4137 10.7061 29.2873 10.5768 29.1323 10.5768C28.977 10.5768 28.851 10.7061 28.851 10.8649C28.851 11.0242 28.9769 11.1535 29.1323 11.1535C29.2873 11.1535 29.4137 11.0242 29.4137 10.8649ZM30.8333 10.8649C30.8333 10.7061 30.7074 10.5768 30.5519 10.5768C30.3969 10.5768 30.2709 10.7061 30.2709 10.8649C30.2709 11.0242 30.3969 11.1535 30.5519 11.1535C30.7074 11.1535 30.8333 11.0242 30.8333 10.8649ZM28.6276 3.38514C28.6276 3.68245 28.8639 3.92528 29.1542 3.92528C29.4451 3.92528 29.6812 3.68245 29.6812 3.38514C29.6812 3.08741 29.4451 2.8449 29.1542 2.8449C28.8639 2.8449 28.6276 3.08741 28.6276 3.38514ZM28.7971 2.23767H29.5142L29.4366 1.37673L30.2155 1.4592V0.778261L29.4366 0.860415L29.5141 0H28.797L28.8743 0.860415L28.0956 0.778261V1.4592L28.8743 1.37673L28.797 2.23757L28.7971 2.23767ZM27.994 10.8649C27.994 10.7061 27.8676 10.5768 27.7124 10.5768C27.5573 10.5768 27.431 10.7061 27.431 10.8649C27.431 11.0241 27.5573 11.1535 27.7124 11.1535C27.8676 11.1535 27.994 11.0241 27.994 10.8649ZM26.304 11.9332C26.3802 11.9604 26.4681 11.9753 26.5723 11.9753H31.7393C31.8434 11.9753 31.9313 11.9604 32.0072 11.9332C32.1741 11.8738 32.2754 11.7493 32.3149 11.5503H25.9965C26.0357 11.7493 26.1372 11.8737 26.304 11.9333V11.9332ZM26.5882 10.8649C26.5882 10.7061 26.462 10.5768 26.3067 10.5768C26.1515 10.5768 26.0251 10.7061 26.0251 10.8649C26.0251 11.0241 26.1515 11.1535 26.3066 11.1535C26.4619 11.1535 26.5881 11.0241 26.5881 10.8649H26.5882ZM32.2393 10.8649C32.2393 10.7061 32.1129 10.5768 31.9583 10.5768C31.8029 10.5768 31.6767 10.7061 31.6767 10.8649C31.6767 11.0241 31.8029 11.1535 31.9584 11.1535C32.1129 11.1535 32.2394 11.0241 32.2394 10.8649H32.2393ZM32.577 10.1814C32.7227 10.0017 33.4469 8.6098 33.4469 7.20466C33.4469 5.93999 31.8479 5.24378 30.8966 5.21195C30.7865 7.01856 30.0787 9.85427 29.156 9.85427C28.2828 9.85427 27.5238 7.0349 27.4151 5.21195C26.464 5.24389 24.8649 5.93999 24.8649 7.20466C24.8649 8.6098 25.5889 10.0017 25.7346 10.1814H32.5771H32.577ZM29.156 8.957C29.5905 8.957 30.1521 7.15797 30.2954 5.4552C30.2954 5.11046 29.8607 4.58314 29.156 4.56936C28.451 4.58303 28.0163 5.11046 28.0163 5.4552C28.1423 7.04313 28.7281 8.957 29.156 8.957ZM15.3426 18.1405C14.4994 19.293 15.6654 20.5543 15.7374 20.6414C15.7881 20.7029 15.8315 20.6751 15.8237 20.6061C15.8177 20.5469 16.4305 18.7698 19.9592 19.7058C20.0346 19.7257 20.0808 19.7272 20.0101 19.6546C19.3583 19.1411 18.585 17.99 18.335 17.0642C18.335 17.0642 16.1859 16.9881 15.3426 18.1405ZM17.2342 17.8995C17.2342 17.5775 17.7055 17.4887 17.9764 17.4887C17.9764 17.4887 18.0953 17.7996 18.2146 17.9717C17.9396 17.8495 17.5577 17.8371 17.2342 17.8995ZM19.1072 16.3956C18.8725 16.3956 18.7848 16.5441 18.8615 16.8011C19.6722 19.5172 21.8824 20.1613 22.7551 21.3376C22.7551 21.3376 22.7489 20.9712 23.1537 20.0968C23.4291 20.5464 24.1755 21.3887 24.6604 21.4959C24.5445 21.2536 24.4067 20.2973 24.5142 19.6547C25.6595 20.6506 27.0715 20.8463 27.8293 20.2716C27.1841 20.2962 26.344 19.5826 25.9212 18.9495C26.5115 19.0852 27.3244 18.9453 27.4919 18.7768C27.1189 18.6863 26.6666 18.3575 26.3943 18.0451C26.8132 18.0161 27.7222 17.6749 27.982 17.1939C27.6175 17.2761 27.0772 17.1281 26.7253 16.9431C26.9933 16.7991 27.6621 16.0866 27.8226 15.4612C26.8727 15.9241 25.374 16.3847 23.1539 16.3847C23.1539 16.3847 19.2309 16.3956 19.1071 16.3956H19.1072ZM21.558 17.6338C20.9304 17.8809 20.6158 18.2146 20.6158 18.2146C20.6158 18.2146 20.3146 17.7232 20.2184 17.5653C20.1223 17.4074 20.0922 17.2139 20.4166 17.2139H22.3624C22.3624 17.3459 22.1855 17.3866 21.558 17.6338ZM14.9157 22.053C15.1187 22.3208 15.6933 23.1384 16.9539 22.4074C18.2143 21.6764 18.8642 21.2783 18.8642 21.2783C18.8642 21.2783 18.6674 21.6556 18.8168 22.108C18.8255 22.1339 18.8552 22.1327 18.8665 22.1058C18.992 21.8131 20.0867 20.966 21.4826 20.8487C20.9709 20.4042 20.4094 20.0081 20.4094 20.0081C19.813 20.1038 18.657 20.509 17.1617 21.474C15.6662 22.4391 14.9772 22.0361 14.9486 22.018C14.9201 21.9998 14.8796 22.0055 14.9156 22.053H14.9157ZM32.7778 52.8659C32.9931 52.7976 33.1733 52.6884 33.266 52.566C32.3001 52.5244 31.5028 51.6959 31.2109 51.1846C30.8901 51.7121 30.3172 52.1241 30.3172 52.1241C29.9095 52.0172 29.3521 51.5758 29.1558 51.2381C28.9596 51.5758 28.4023 52.0173 27.9943 52.1241C27.9943 52.1241 27.4216 51.7121 27.1007 51.1846C26.8088 51.6959 26.0115 52.5244 25.0456 52.566C25.1383 52.6884 25.3185 52.7976 25.5339 52.8659C25.6781 52.9118 25.8376 52.9401 25.9983 52.9401C26.1685 52.9401 26.3393 52.9094 26.4925 52.8381C26.396 53.1864 26.364 53.6165 26.4346 53.9113C26.4346 53.9113 26.9482 53.9515 27.4785 53.7525C27.5167 54.0709 27.6629 54.4565 27.903 54.7173C27.9502 54.7683 27.9994 54.8163 28.0537 54.856C28.3386 54.856 29.0263 54.5265 29.1559 54.3233C29.2853 54.5263 29.973 54.856 30.2579 54.856C30.312 54.8162 30.3615 54.7682 30.4087 54.7171C30.6486 54.4565 30.795 54.0708 30.833 53.7524C31.0716 53.8714 31.3487 53.9189 31.6553 53.9189C31.7292 53.9188 31.8031 53.9162 31.8769 53.9112C31.9477 53.6164 31.9156 53.1864 31.819 52.838C31.9724 52.9094 32.1432 52.94 32.3131 52.94C32.4741 52.94 32.6335 52.9117 32.7776 52.8658L32.7778 52.8659ZM23.1378 32.4038C22.9485 32.4038 22.8314 32.5237 22.8314 32.717V44.4487C22.8314 45.5672 23.2751 46.1348 24.15 46.1348L26.3395 46.1432C27.8397 46.1432 28.7247 46.6562 29.1558 47.292C29.5224 46.6991 30.5525 46.1432 31.9721 46.1432L34.161 46.1348C35.0362 46.1348 35.4798 45.5672 35.4798 44.4487V32.717C35.4798 32.5237 35.3624 32.4038 35.1737 32.4038H23.1377H23.1378ZM25.2762 43.3797C25.2552 43.6393 25.5589 44.1116 26.0602 43.9639C26.0452 44.0596 26.0733 44.3217 26.1853 44.5182C25.2972 44.7181 24.9142 43.9924 25.2762 43.3797ZM33.3283 39.4961C33.206 39.3673 33.0854 39.2369 32.9665 39.1049C32.8399 38.9651 32.7494 38.9107 32.6203 38.9107C32.3296 38.9107 32.0186 39.0689 31.8523 39.1783C31.8413 39.1828 31.8328 39.1934 31.8288 39.222C32.0055 39.2063 32.1827 39.1934 32.359 39.1736C32.5137 39.1559 32.6581 39.1621 32.7913 39.2607C32.8963 39.3379 32.9555 39.4336 32.9612 39.5586C32.9781 39.958 33.2989 40.7984 33.3189 41.0506C33.3438 41.1499 33.2238 41.1787 33.0573 41.6427C32.9346 41.779 32.6026 41.3461 32.6506 41.2447C32.8441 40.9941 32.8974 40.838 32.8484 40.6513C32.8092 40.5012 32.7355 40.2332 32.6809 40.0878C32.6079 39.8939 32.4437 39.8212 32.2396 39.8908C31.4391 40.1546 31.3157 39.8029 30.5222 40.1337L31.436 41.5386C31.4327 41.4368 31.3835 41.253 31.2358 41.1209C31.2624 40.979 31.5506 40.9204 31.6583 41.0532C31.7905 41.2216 32.0484 41.4617 32.2606 41.5002C32.6684 41.5752 32.6375 42.1901 33.7272 42.3959C33.5917 42.5354 33.2895 42.4881 33.1579 42.425C33.2373 42.547 33.3288 42.6622 33.493 42.7038C33.3241 42.8722 32.8394 42.4774 32.889 42.8746C32.9728 42.8265 33.089 42.8187 33.1871 42.8432C33.4045 42.8971 33.7612 44.125 33.0099 44.6616C33.1698 44.7092 33.3419 44.6253 33.5041 44.6253C33.5992 44.6253 33.6881 44.7169 33.6975 44.8192C33.7675 44.8726 33.8136 44.9382 33.8544 45.0223C33.7979 45.0408 33.6886 45.0237 33.628 44.9836C33.6524 45.0518 33.6466 45.2155 33.6212 45.2186C33.5532 45.2278 33.5008 45.189 33.4313 45.1478C33.3347 45.197 33.0168 45.177 32.9268 45.0969C32.6868 45.1551 32.45 45.2328 32.2 45.2328C32.0651 45.2328 31.8873 45.2242 31.8936 45.0604C31.8967 44.9805 31.9366 44.9394 31.9679 44.852C31.8528 44.7345 31.6611 44.8483 31.4324 44.8701C31.1225 44.8997 30.9948 44.852 30.9276 44.7892C31.2202 44.5201 31.0435 43.8641 30.5916 43.806C30.9633 44.16 30.9148 44.7329 30.4986 44.8615C30.6189 44.9002 30.6784 44.954 30.7245 45.0391C30.8708 45.0996 30.873 45.2049 30.862 45.2521C30.7819 45.1957 30.6377 45.1399 30.5227 45.1551C30.5144 45.2049 30.4934 45.2984 30.45 45.3345C30.4003 45.3238 30.3355 45.2785 30.3104 45.2425C30.1775 45.1412 29.3495 45.3345 29.2992 45.1993C29.2674 45.0735 29.4884 44.9678 29.6924 44.9232C29.1679 44.7319 28.713 43.7501 27.9055 43.5839C27.5311 43.5071 27.0238 43.6744 27.0238 44.1586C27.0238 44.3967 27.2162 44.5798 27.4243 44.5798C27.6158 44.5798 27.7115 44.4482 27.7115 44.3148C27.6808 44.338 27.6616 44.3524 27.6428 44.3677C27.5256 44.4633 27.3764 44.4572 27.2684 44.3524C27.1732 44.2602 27.1732 44.1001 27.2655 43.9918C27.3415 43.9017 27.4326 43.8509 27.5545 43.833C27.8706 43.7873 28.1291 43.8875 28.3033 44.1397C28.3863 44.2601 28.432 44.3889 28.432 44.5136C28.432 45.0716 27.8701 45.1983 27.559 45.1983C26.7759 45.1983 26.3144 44.6408 26.3144 43.9958C26.3144 43.9206 26.3181 43.8443 26.3311 43.7676C26.4536 43.0417 27.1056 42.7381 27.6695 42.6473C27.5976 42.3947 27.4588 42.1905 27.2593 42.0239C27.16 41.941 27.1499 41.8732 27.2125 41.7675C27.2977 41.6229 27.3872 41.4806 27.4248 41.3177C27.4333 41.2812 27.4373 41.2425 27.44 41.2028C27.1591 41.4531 26.7665 41.6824 26.2233 41.8462C26.052 41.9249 25.9613 42.0801 25.9395 42.2587C25.9147 42.4658 25.909 42.6759 25.9052 42.8849C25.9043 42.9332 25.9394 42.9856 25.966 43.0318C26.0671 43.2043 26.1787 43.3723 26.2037 43.5874C26.2037 43.6916 25.6762 43.7024 25.6762 43.6188C25.6713 43.2404 25.4172 43.0934 25.4446 42.8437C25.5148 42.4551 25.5305 42.0665 25.4665 41.676C25.4504 41.5776 25.5029 41.513 25.5734 41.4606C25.6855 41.3757 25.8045 41.2997 25.9163 41.2155C26.1803 41.0149 26.2896 40.7535 26.2275 40.4295C26.2196 40.3873 26.2008 40.3467 26.1825 40.307C26.0511 40.0186 25.955 39.7267 25.955 39.4015C25.955 39.045 25.5106 39.0653 25.5397 39.4157C25.5487 39.5252 25.631 39.6783 25.6772 39.7835C26.1328 40.8259 25.3135 41.5765 24.4659 41.576C25.3569 41.2694 24.2577 40.1355 24.2577 39.2896C24.2577 38.7709 24.6609 38.3872 25.142 38.3872C25.6969 38.3872 26.0488 38.7428 26.1496 38.8039C26.418 38.3806 27.24 38.3043 27.5486 38.2555C27.5251 38.0276 27.5574 37.8251 27.6979 37.6503C27.707 37.6385 27.7128 37.6166 27.7079 37.6038C27.664 37.4962 27.6173 37.3896 27.5568 37.2855C27.3038 37.5693 27.243 37.9459 27.243 38.1406C26.3058 38.1269 25.8925 37.7189 25.6155 37.5582C25.6166 37.4873 25.8659 37.0413 26.0871 36.7468C25.8447 36.9533 25.6454 37.1858 25.4992 37.4646C25.3652 37.3684 25.2243 37.2814 25.0866 37.2245C25.2978 36.7747 25.5777 36.4248 25.9343 36.059C25.4321 36.2431 24.995 36.8076 24.8293 37.1623C24.6861 37.146 24.4743 37.1405 24.3562 37.1634C24.9035 36.498 25.1537 35.1871 26.357 34.8931C26.0557 36.1087 26.8052 36.6028 27.3213 36.2855C27.2542 36.2855 27.2081 36.2961 27.1649 36.2855C26.1585 36.0317 26.7549 34.6464 26.5112 34.3581C26.4187 34.2487 26.3709 34.1485 26.386 34.0101C26.3913 33.9613 26.3768 33.9049 26.3543 33.8601L25.8191 32.9719C25.7518 32.8601 25.9601 32.7805 26.005 32.8319L26.5508 33.7201C26.565 33.7423 26.5824 33.7749 26.6027 33.7787C26.8023 33.8136 26.864 33.9779 26.9447 34.1234C26.9702 34.1703 26.9904 34.2241 26.9951 34.2771C26.9989 34.3176 26.9878 34.3742 26.9606 34.4018C26.8739 34.4891 26.8906 34.575 26.9577 34.6882C27.0655 34.8697 30.2988 40.2173 30.2988 40.2173C29.5965 40.5028 28.3262 40.526 27.9582 40.4905C27.8818 40.6761 27.7625 40.872 27.586 41.0607C27.7622 40.9468 27.8985 40.8022 28.0243 40.6451C28.1664 40.6614 28.3794 40.718 28.5972 40.7337C28.4683 41.0072 28.2748 41.2794 28.0265 41.5074C27.9096 41.6217 27.7649 41.723 27.8181 41.9061C27.8782 42.1122 28.2642 42.5049 28.405 42.7597C28.5447 42.7891 28.7807 42.8384 28.9536 42.9071C29.0524 43.1178 29.3862 43.3823 29.7885 43.2453C28.9796 43.2353 29.0393 42.4122 29.2907 41.9768C29.2635 42.3812 29.4601 42.7169 29.709 42.7551C29.3357 42.4167 29.3731 41.6481 29.7367 41.2266C29.7885 41.911 29.9976 42.2708 30.2966 42.3522C29.9013 41.9909 29.6641 41.1553 30.261 40.5465C30.3071 42.109 31.748 41.8272 31.8789 43.636C32.4126 43.636 32.443 42.9224 32.1454 42.7912C31.9718 42.7267 31.815 42.6131 31.7261 42.4585C31.6892 42.3935 31.6507 42.2776 31.6206 42.2093C31.4619 41.7446 31.0141 41.774 31.025 41.6625C31.0356 41.6248 31.1061 41.6075 31.205 41.6075L30.361 40.313L30.317 40.2453C30.4188 40.2248 30.4414 40.1661 30.3369 40.0023C30.3369 40.0023 27.17 34.773 27.1549 34.7431C27.4494 34.6924 27.7322 34.7717 28.0077 34.8775C27.9342 34.8098 27.8741 34.7152 27.8613 34.6176C27.8507 34.5392 27.8537 34.4934 27.9173 34.4436C27.9846 34.389 28.0493 34.3261 28.0964 34.2548C28.2537 34.0174 28.5427 33.9014 28.8052 33.9757C29.2013 34.0874 29.3413 34.5321 29.0502 34.766C28.8952 35.1053 28.7031 35.0626 28.6635 35.2146C28.7413 35.2504 29.283 35.6659 29.3192 35.8408C29.1577 36.1746 29.0775 36.6962 29.2175 36.9874C29.3222 35.6001 30.1635 34.9216 30.9828 34.9216C31.1773 34.9216 31.3707 34.9553 31.5647 35.0209C31.6709 35.0565 31.777 35.1077 31.8653 35.1744C31.9934 35.2717 32.1124 35.3802 32.221 35.4985C32.3809 35.6729 32.5273 35.8592 32.7993 35.8713C32.7199 35.9839 32.6293 36.0661 32.5366 36.147C32.4698 36.2064 32.4362 36.2777 32.428 36.3673C32.4091 36.56 32.3453 36.7365 32.2027 36.8783C32.1835 36.8976 32.1686 36.9207 32.1592 36.946C32.0683 37.208 31.9761 37.469 31.8906 37.7326C31.8694 37.7967 31.8742 37.8851 31.7869 37.8842C31.7112 37.8831 31.6196 37.8612 31.5631 37.8154C31.443 37.7188 31.4 37.5782 31.443 37.4298C31.4857 37.2823 31.443 37.1555 31.3959 37.0182C31.3477 36.8809 31.3309 36.7324 31.2986 36.5757C31.0749 36.4979 30.6549 36.975 30.9754 37.3749C31.1836 37.6699 31.3707 38.2127 31.4032 38.4348C31.4099 38.4568 31.2138 38.5794 30.9436 38.5452C30.0302 38.4292 29.4525 37.7997 29.277 37.2686C29.2627 38.1683 30.0149 38.8353 31.1297 38.7706C31.1751 38.9802 31.3476 39.1227 31.5485 39.1293C31.5902 38.9939 31.5893 38.71 31.5552 38.5295C31.54 38.4501 31.582 38.4095 31.6561 38.3905C31.8998 38.3291 32.2171 38.353 32.4886 38.2568C32.7291 38.1709 32.843 38.2212 32.9927 38.5103C33.106 38.7282 33.2999 38.9629 33.4831 39.1247C33.5599 39.1923 33.6368 39.261 33.7093 39.3332C33.8019 39.4252 33.85 39.5335 33.8573 39.6674C33.8335 39.877 33.8616 40.2991 33.8616 40.3057C33.8087 40.4441 33.4233 40.2976 33.361 40.1491C33.3375 40.0936 33.5259 39.7046 33.3283 39.4959V39.4961ZM39.9766 17.0642C39.7268 17.99 38.9534 19.1411 38.3016 19.6546C38.2308 19.7272 38.2772 19.7257 38.3526 19.7058C41.881 18.7698 42.4941 20.5469 42.4878 20.6062C42.4802 20.6752 42.5237 20.703 42.5742 20.6415C42.6462 20.5543 43.8123 19.293 42.9691 18.1406C42.1258 16.9881 39.9766 17.0642 39.9766 17.0642ZM40.0971 17.9717C40.2164 17.7996 40.3355 17.4887 40.3355 17.4887C40.6063 17.4887 41.0774 17.5776 41.0774 17.8995C40.7537 17.8371 40.372 17.8495 40.0971 17.9717ZM43.3961 22.053C43.4321 22.0055 43.3915 21.9998 43.363 22.018C43.3344 22.0361 42.6454 22.4391 41.1501 21.474C39.6545 20.509 38.4986 20.1037 37.9022 20.0081C37.9022 20.0081 37.3407 20.4042 36.8288 20.8487C38.2247 20.966 39.3196 21.8131 39.445 22.1058C39.4566 22.1327 39.486 22.1339 39.4947 22.108C39.6443 21.6556 39.4472 21.2783 39.4472 21.2783C39.4472 21.2783 40.0973 21.6764 41.3576 22.4074C42.6182 23.1384 43.1929 22.3208 43.396 22.053H43.3961ZM31.5864 16.9432C31.2345 17.1282 30.6941 17.2761 30.3296 17.1939C30.5895 17.6749 31.4985 18.0161 31.9172 18.0451C31.645 18.3575 31.1926 18.6863 30.8198 18.7768C30.9874 18.9453 31.8 19.0851 32.3906 18.9495C31.9676 19.5825 31.1275 20.2962 30.4823 20.2716C31.2403 20.8464 32.6523 20.6506 33.7977 19.6547C33.9049 20.2973 33.7672 21.2535 33.6512 21.4959C34.1362 21.3887 34.8826 20.5464 35.1581 20.0968C35.5627 20.9712 35.5567 21.3377 35.5567 21.3377C36.4296 20.1614 38.6396 19.5173 39.4504 16.8013C39.527 16.5441 39.4392 16.3956 39.2046 16.3956C39.0808 16.3956 35.1579 16.3847 35.1579 16.3847C32.9376 16.3847 31.4388 15.9242 30.489 15.4613C30.6495 16.0866 31.3183 16.7992 31.5866 16.9431L31.5864 16.9432ZM37.895 17.2139C38.2193 17.2139 38.1893 17.4074 38.0931 17.5653C37.997 17.7232 37.6957 18.2146 37.6957 18.2146C37.6957 18.2146 37.3813 17.8809 36.7537 17.6337C36.126 17.3866 35.9492 17.3459 35.9492 17.2139H37.895ZM23.3775 21.282C23.2511 21.6375 23.2139 22.0294 23.2811 22.5394C23.689 23.4184 23.8864 25.0506 23.7604 25.9632C24.4104 25.0637 24.6989 24.0524 24.8849 23.2431C25.2575 23.6213 25.7411 24.1627 26.0785 24.6013C26.1364 24.1263 26.2392 23.5397 26.3292 23.116C26.8147 23.5759 27.8221 24.1533 28.5034 24.3581C28.0448 22.4389 27.2601 21.2155 27.2601 21.2155C26.5942 21.2819 25.5215 21.1211 25.0394 20.6505C25.1255 21.3458 25.6077 22.1453 25.6077 22.1453C24.5744 22.2453 23.8424 21.8955 23.3776 21.282H23.3775ZM34.934 21.282C34.4691 21.8956 33.7372 22.2454 32.7038 22.1453C32.7038 22.1453 33.1861 21.3459 33.2722 20.6506C32.7899 21.1212 31.7176 21.282 31.0515 21.2155C31.0515 21.2155 30.2669 22.4388 29.8081 24.358C30.4895 24.1533 31.4969 23.5758 31.9823 23.1159C32.0724 23.5396 32.175 24.1262 32.233 24.6013C32.5704 24.1627 33.0538 23.6212 33.4269 23.2431C33.6126 24.0524 33.9013 25.0637 34.5511 25.9632C34.4252 25.0506 34.6226 23.4184 35.0304 22.5393C35.0977 22.0293 35.0604 21.6374 34.9339 21.282H34.934ZM26.0457 27.3289C26.4357 27.9506 26.7826 28.6984 26.9029 29.3644C27.2767 28.9157 27.6716 28.1358 27.9391 27.2041C28.2672 27.6108 28.8401 28.4393 29.1558 29.1226C29.4712 28.4393 30.0444 27.6108 30.3722 27.2041C30.64 28.1358 31.0348 28.9157 31.4086 29.3644C31.5288 28.6984 31.8758 27.9506 32.2657 27.3289C32.5623 28.5391 33.7063 29.7162 34.8868 29.8048C34.1189 28.8157 34.0872 27.1061 34.1416 26.5368C33.6302 25.7481 33.2933 25.0365 33.1322 24.553C32.7853 24.8931 32.2488 25.5543 31.7675 26.3185C31.7675 26.3092 31.7537 25.3603 31.5617 24.208C31.0654 24.653 30.1667 24.9751 29.6863 25.1002C29.3831 25.5905 29.3 25.9732 29.1558 26.5887C29.0117 25.9732 28.9282 25.5905 28.6252 25.1002C28.1447 24.975 27.2462 24.653 26.7497 24.2081C26.5579 25.3603 26.5439 26.3092 26.5439 26.3185C26.0624 25.5543 25.5261 24.893 25.1791 24.5529C25.0181 25.0365 24.6813 25.7481 24.1698 26.5368C24.2244 27.1062 24.1924 28.8158 23.4244 29.8049C24.6052 29.7163 25.7492 28.5392 26.0455 27.329L26.0457 27.3289ZM15.3488 41.6412C16.0114 41.2124 16.4308 40.4332 16.9081 39.4803C16.6302 39.5944 16.2275 39.718 15.824 39.801C15.4303 40.5564 14.8728 40.2634 14.8583 40.1562C14.9788 40.0238 15.1163 39.8279 15.2198 39.6576C15.052 39.3461 14.8499 38.8823 14.7384 38.5954C14.1752 39.7716 13.1408 40.9664 12.2744 41.4325C12.7842 42.1355 14.364 42.2785 15.3488 41.6412ZM17.3967 39.6587C16.9268 40.6426 17.0373 42.1588 18.5335 42.2017C18.4094 41.1281 18.8969 40.1181 19.4181 39.6588C18.9698 39.7684 18.24 40.3517 18.24 40.3517C18.24 40.3517 18.1301 40.6018 18.108 40.9253C17.7948 40.9808 17.6217 40.7415 17.7518 40.2423C17.7518 40.2423 17.5254 39.9856 17.3967 39.6588V39.6587ZM9.99036 40.7823C10.211 40.7819 10.4306 40.7553 10.6447 40.7028C12.0895 40.3487 13.4652 39.1232 14.283 38.0943C13.816 38.241 13.3441 38.3363 12.8211 38.3888C12.8211 38.3888 12.4547 38.8139 12.1727 38.9711C12.0298 39.0514 11.887 39.0897 11.7517 39.0897C11.3429 39.0897 11.1693 38.7573 11.1693 38.7573C11.1693 38.7573 11.8286 38.4439 12.2481 37.9987C12.165 37.6706 12.1122 37.216 12.1026 36.763C10.965 37.8966 8.82676 38.9979 7.33316 39.2116C7.62877 39.8221 8.67752 40.7823 9.99047 40.7823H9.99036ZM7.09782 38.3778C7.17281 38.3777 7.2477 38.3742 7.32237 38.367C8.80721 38.2214 10.5993 37.2781 11.7533 36.4617C11.3859 36.5357 10.42 36.5571 9.96173 36.4938C9.80319 36.5991 9.10442 37.0372 8.52304 37.1104C7.46254 37.2436 7.35037 36.5928 7.35037 36.5928C8.03173 36.5102 8.81715 36.282 9.56795 35.9353C9.64327 35.3745 9.77414 34.8746 9.88599 34.5061C8.24902 35.4104 5.57847 36.0465 3.99428 36.0675C4.31125 36.8142 5.54033 38.3777 7.09792 38.3777L7.09782 38.3778ZM7.33135 33.0727C7.55954 32.6723 7.92073 32.199 8.24956 31.813C6.94259 32.17 5.26022 32.2447 4.3683 32.2447C3.31676 32.2447 2.29504 32.1711 1.70886 32.0543C1.76099 33.1022 2.76573 34.9097 4.74829 35.0861C4.8517 35.0956 4.96612 35.1001 5.08844 35.1001C6.32522 35.1001 8.29229 34.6036 9.64583 34.1273C8.68073 34.0041 7.74863 33.7768 7.53604 33.6884C7.03265 33.8318 5.83027 34.0317 5.43981 34.0103C4.55354 33.9621 4.45857 33.287 4.45857 33.287C4.45857 33.287 6.05365 33.3539 7.33124 33.0727H7.33135ZM2.57226 31.1527C3.30875 31.3888 4.48335 31.5241 5.79512 31.5241C6.59539 31.5241 7.43957 31.4531 8.12628 31.3563C7.38466 31.1058 6.46944 30.7271 5.87471 30.3521C5.13139 30.3373 4.12237 30.3164 3.47444 30.1197C2.52152 29.8303 2.53508 29.1838 2.55207 29.0387C3.37584 29.3673 4.77724 29.6816 5.81296 29.7428C6.19478 29.378 6.7847 28.9432 7.40698 28.5646C4.94913 28.5859 1.81141 27.6204 0.0483863 26.6945C-0.354686 29.9481 1.87273 30.928 2.57226 31.1526V31.1527ZM7.97522 24.4061C7.59586 23.6842 7.22601 22.7131 7.17719 21.8761C6.0277 20.9801 4.7155 19.8399 3.95625 18.5368C3.5175 17.7836 3.67945 17.1234 3.99022 16.8962C4.22717 17.7145 5.77087 20.0061 7.17014 21.1551C7.18115 20.4208 7.3056 19.5761 7.49864 18.9409C5.87172 17.1846 4.04823 14.2755 3.60766 13.1358C3.11261 13.5426 2.25914 14.5658 2.04932 16.0077C1.83812 17.4591 2.31245 18.95 3.45917 20.4394C4.34116 21.585 6.28259 23.2931 7.97522 24.4061ZM7.50762 28.0972C6.38921 27.3615 5.61394 26.6789 5.20072 26.0658C4.26616 25.7053 3.05781 25.1549 2.46244 24.6587C1.64454 23.9779 1.9035 23.365 1.9989 23.2426C2.71905 23.9721 4.27866 25.0236 5.38639 25.4913C6.07791 25.2239 7.03895 25.028 7.97511 24.9136C5.2004 23.8261 2.22196 21.7846 0.665438 19.86C0.349861 20.468 -0.932212 23.3279 1.47148 25.673C2.73731 26.9084 5.34494 27.7607 7.50751 28.0972H7.50762ZM43.5731 38.5954C43.4616 38.8823 43.2594 39.3462 43.0916 39.6577C43.1949 39.8279 43.3327 40.0238 43.4532 40.1563C43.4386 40.2635 42.8813 40.5564 42.4877 39.801C42.0841 39.7181 41.6813 39.5944 41.4035 39.4803C41.8809 40.4334 42.3 41.2125 42.9628 41.6412C43.9475 42.2786 45.5275 42.1356 46.037 41.4326C45.1706 40.9664 44.1361 39.7716 43.5731 38.5954ZM40.9148 39.6588C40.7861 39.9856 40.5597 40.2422 40.5597 40.2422C40.6898 40.7415 40.5168 40.9808 40.2033 40.9252C40.1813 40.6018 40.0713 40.3517 40.0713 40.3517C40.0713 40.3517 39.3415 39.7684 38.8934 39.6587C39.4144 40.1181 39.9021 41.1281 39.778 42.2017C41.2742 42.1588 41.3849 40.6426 40.9148 39.6588ZM46.0635 37.9987C46.4828 38.4439 47.142 38.7573 47.142 38.7573C47.142 38.7573 46.9685 39.0899 46.56 39.0899C46.4244 39.0899 46.2818 39.0515 46.1386 38.9712C45.8567 38.8139 45.4905 38.3889 45.4905 38.3889C44.9673 38.3364 44.4955 38.2412 44.0283 38.0944C44.8462 39.1233 46.222 40.3489 47.6666 40.7028C47.8807 40.7553 48.1005 40.7819 48.3211 40.7823C49.6338 40.7823 50.6828 39.8221 50.9783 39.2118C49.4848 38.998 47.3466 37.8967 46.2089 36.7631C46.1992 37.2162 46.1463 37.6706 46.0635 37.9987ZM48.7435 35.9354C49.4944 36.2821 50.2798 36.5103 50.9614 36.5929C50.9614 36.5929 50.849 37.2438 49.7884 37.1104C49.2071 37.0372 48.5081 36.5991 48.3498 36.4938C47.8915 36.5571 46.9254 36.5357 46.5583 36.4617C47.7122 37.2781 49.5043 38.2214 50.9891 38.367C51.0637 38.3742 51.1386 38.3777 51.2136 38.3778C52.7713 38.3778 54.0002 36.8142 54.3172 36.0675C52.733 36.0465 50.0625 35.4104 48.4256 34.5062C48.5374 34.8747 48.6682 35.3746 48.7435 35.9354ZM50.0619 31.813C50.3907 32.1991 50.7518 32.6723 50.98 33.0727C52.2577 33.354 53.8527 33.287 53.8527 33.287C53.8527 33.287 53.7578 33.9621 52.8717 34.0103C52.4811 34.0316 51.2788 33.8316 50.7755 33.6884C50.5627 33.7768 49.6308 34.0041 48.6657 34.1273C50.019 34.6036 51.9864 35.1002 53.2231 35.1002C53.3455 35.1002 53.4598 35.0956 53.5631 35.0862C55.5457 34.9098 56.5507 33.1022 56.6027 32.0544C56.0167 32.1711 54.9947 32.2448 53.9432 32.2448C53.0515 32.2448 51.3688 32.1701 50.0619 31.813ZM58.2633 26.6946C56.5001 27.6205 53.3624 28.5861 50.9044 28.5647C51.5267 28.9433 52.1167 29.3781 52.4985 29.7429C53.5341 29.6817 54.9356 29.3674 55.7593 29.0388C55.7762 29.1839 55.7898 29.8304 54.837 30.1197C54.1892 30.3165 53.1802 30.3374 52.4367 30.3521C51.8419 30.7273 50.9269 31.1059 50.1851 31.3563C50.8719 31.4531 51.716 31.5241 52.5164 31.5241C53.8281 31.5241 55.0027 31.3888 55.7392 31.1527C56.4386 30.9282 58.6663 29.9481 58.2633 26.6946ZM54.3214 16.8962C54.6322 17.1234 54.794 17.7837 54.3553 18.5369C53.5958 19.84 52.284 20.9801 51.1342 21.8761C51.0855 22.7131 50.7155 23.6842 50.3362 24.4061C52.0288 23.2931 53.9705 21.585 54.8522 20.4395C55.999 18.9501 56.4733 17.4592 56.2621 16.0078C56.0522 14.5658 55.1989 13.5426 54.7037 13.1359C54.2633 14.2756 52.4396 17.1846 50.8127 18.9409C51.0057 19.5762 51.1304 20.4208 51.1414 21.1551C52.5405 20.0061 54.0843 17.7145 54.3214 16.8962ZM52.925 25.4914C54.0329 25.0236 55.5926 23.9721 56.3124 23.2427C56.4079 23.3651 56.6668 23.978 55.8489 24.6589C55.2536 25.1549 54.0452 25.7054 53.1108 26.0659C52.6975 26.6789 51.9223 27.3616 50.8039 28.0972C52.9664 27.7608 55.5741 26.9084 56.8402 25.6731C59.2436 23.328 57.9615 20.4681 57.646 19.8601C56.0896 21.7847 53.111 23.8262 50.3362 24.9138C51.2726 25.0281 52.2335 25.224 52.925 25.4915V25.4914ZM46.4597 22.1991C45.5584 24.2742 43.2739 26.1243 41.796 27.0505C41.1216 27.4729 41.3677 28.274 41.5834 28.6295C43.5967 31.9496 39.9355 34.424 36.6286 32.7785C37.3502 32.7864 38.0787 32.1778 38.1795 31.6354C37.9502 31.832 37.0111 31.724 36.7337 31.4694C37.1596 31.2482 37.2609 31.024 37.283 30.8143C36.7561 31.1352 35.6912 31.1795 35.3775 30.6372C33.6303 30.5904 32.4681 29.2369 32.3394 28.8463C32.2099 29.2619 32.0007 29.988 31.9321 30.7046C31.4582 30.386 30.6489 29.6654 30.2271 28.688C29.7495 29.3648 29.3895 30.1273 29.1557 30.9308C28.9219 30.1273 28.5621 29.3648 28.0844 28.688C27.6624 29.6653 26.8531 30.3861 26.3795 30.7046C26.3106 29.988 26.1016 29.262 25.972 28.8464C25.8435 29.237 24.6812 30.5906 22.934 30.6373C22.6202 31.1796 21.5554 31.1354 21.0285 30.8143C21.0504 31.0241 21.1519 31.2483 21.5777 31.4694C21.3003 31.7241 20.3614 31.8322 20.1319 31.6355C20.2327 32.1779 20.9613 32.7865 21.6828 32.7786C18.3758 34.424 14.7146 31.9497 16.7281 28.6296C16.9439 28.2741 17.1898 27.473 16.5157 27.0506C15.0377 26.1241 12.753 24.2742 11.8518 22.199C11.7447 23.0452 11.8264 25.145 12.7418 26.4517C12.0729 26.7056 11.2153 27.1176 10.6386 27.4997C11.0033 27.9112 11.8525 28.6219 12.423 29.0084C11.9573 29.4195 11.2343 30.2068 10.8549 30.7222C11.3357 31.0061 12.3042 31.3507 13.0444 31.5832C12.7023 32.1438 12.1761 33.155 12.0439 33.7568C12.8727 33.8764 13.7188 33.8655 14.4654 33.8421C14.3702 34.5438 14.4328 35.4249 14.5076 36.0669C15.2768 35.9572 16.123 35.6471 16.6844 35.3537C16.7909 35.8379 17.0843 36.7317 17.3475 37.2102C18.0772 36.5225 19.0398 36.2078 19.9307 36.3899C21.7551 36.7631 22.2973 38.5955 22.2973 38.5955L22.3002 33.0214V32.3992C22.3002 32.0515 22.4885 31.8677 22.8263 31.8678H35.4853C35.8232 31.8677 36.0113 32.0516 36.0113 32.3991V33.0213L36.0142 38.5954C36.0142 38.5954 36.5565 36.763 38.3808 36.3898C39.2719 36.2077 40.2345 36.5224 40.9643 37.2101C41.2275 36.7316 41.5209 35.8378 41.6274 35.3536C42.1887 35.647 43.0349 35.957 43.8041 36.0669C43.8788 35.4249 43.9413 34.5438 43.8464 33.8421C44.5845 33.9181 45.4334 33.9181 46.2677 33.7567C46.1357 33.155 45.6094 32.1438 45.2671 31.5833C46.037 31.3783 46.976 31.0062 47.4568 30.7222C47.0776 30.2069 46.3544 29.4195 45.8889 29.0085C46.4591 28.6219 47.3082 27.9112 47.6731 27.4997C47.0964 27.1177 46.2387 26.7056 45.5699 26.4518C46.4852 25.1451 46.567 23.0453 46.4598 22.1991H46.4597ZM23.4523 15.6739L23.3771 15.8695C25.5889 15.8695 27.7152 15.1179 28.2825 12.5009H26.5883C26.2876 14.3862 25.1715 15.6739 23.4523 15.6739ZM13.8898 11.4161C13.8898 11.4161 15.0996 11.6944 15.573 13.385C16.0466 15.0757 17.2365 15.8843 18.4573 15.8843L18.3822 15.6539C17.6718 15.5661 16.6703 14.5615 16.483 12.701C16.294 10.8278 15.8313 10.5865 15.8313 10.5865C15.3534 10.2582 14.1517 11.1252 13.8896 11.4161H13.8898ZM10.3507 12.1723C11.3599 12.1395 12.0389 12.4582 13.3073 11.3109C14.8046 9.95597 15.5153 10.1876 15.5153 10.1876C14.7513 9.69392 13.6857 9.47459 13.3198 9.75962C12.9538 10.045 12.4586 10.8103 11.6262 11.3551C10.453 12.1229 9.2481 11.9204 9.19415 12.636H9.22685C9.22685 12.636 9.34169 12.2054 10.3506 12.1723H10.3507ZM11.2816 16.6637C11.895 17.2641 11.9515 18.498 11.9515 18.498C11.9515 18.498 12.686 17.1901 12.0806 15.7996C11.4754 14.4093 10.2384 13.3425 11.4511 12.5306C10.7104 12.5368 9.90767 12.3676 9.55513 12.8662C9.44542 13.0215 9.34372 13.4065 9.71292 13.9541C10.1821 14.6501 11.3541 16.2686 10.3938 17.3463C11.0958 17.2176 11.2815 16.6635 11.2815 16.6635L11.2816 16.6637ZM18.8583 15.877H23.0145C23.0145 15.877 23.1173 15.6264 23.2484 15.2646H18.6245C18.7557 15.6264 18.8583 15.877 18.8583 15.877ZM21.3453 10.0165C21.3453 9.79113 21.1659 9.60813 20.9448 9.60813C20.7235 9.60813 20.544 9.79113 20.544 10.0165C20.544 10.2421 20.7235 10.4247 20.9448 10.4247C21.1659 10.4247 21.3453 10.2421 21.3453 10.0165ZM23.4212 14.8026C23.5988 14.249 23.799 13.4071 23.799 13.001C23.799 12.2586 23.3966 11.4366 21.9443 11.1837C21.9443 12.0809 21.5052 14.2792 20.9745 14.2792H20.9149C20.3843 14.2792 19.9453 12.0973 19.9453 11.1835C18.488 11.4362 18.0737 12.2583 18.0737 13.001C18.0737 13.4072 18.274 14.249 18.4519 14.8026H23.4212ZM20.9448 13.6635C21.2214 13.6635 21.4454 12.2282 21.4454 11.5136C21.4454 11.1231 21.2214 10.8671 20.9449 10.8671C20.6682 10.8671 20.4439 11.1231 20.4439 11.5136C20.4439 12.2282 20.6682 13.6635 20.9449 13.6635H20.9448ZM20.6776 9.06372H21.2117L21.1451 8.38321L21.8127 8.45137V7.90685L21.1451 7.97501L21.2117 7.29439H20.6776L20.7444 7.97501L20.0768 7.90685V8.45137L20.7444 8.38321L20.6776 9.06383V9.06372ZM31.7231 12.5009H30.0289C30.5964 15.1179 32.7225 15.8695 34.9343 15.8695L34.8592 15.6739C33.14 15.6739 32.0239 14.3863 31.7231 12.5009ZM39.8541 15.8843C41.0749 15.8843 42.2648 15.0757 42.7384 13.385C43.2118 11.6945 44.4219 11.4161 44.4219 11.4161C44.1597 11.1254 42.9583 10.2583 42.4801 10.5865C42.4801 10.5865 42.0175 10.8278 41.8285 12.7011C41.6413 14.5617 40.6397 15.5662 39.9294 15.654L39.8541 15.8844V15.8843ZM45.0042 11.311C46.2725 12.4582 46.9515 12.1396 47.9608 12.1724C48.9696 12.2055 49.0845 12.636 49.0845 12.636H49.1173C49.0633 11.9204 47.8583 12.123 46.6855 11.3552C45.853 10.8103 45.3575 10.045 44.9916 9.75972C44.6256 9.47459 43.5601 9.69403 42.796 10.1876C42.796 10.1876 43.5069 9.95597 45.0042 11.311ZM48.7562 12.8664C48.4037 12.3677 47.6011 12.5369 46.8604 12.5306C48.073 13.3425 46.8363 14.4093 46.2308 15.7996C45.6255 17.1902 46.3601 18.498 46.3601 18.498C46.3601 18.498 46.4165 17.2641 47.0299 16.6637C47.0299 16.6637 47.2156 17.2177 47.9178 17.3463C46.9574 16.2687 48.1293 14.6502 48.5987 13.9542C48.9677 13.4065 48.866 13.0215 48.7563 12.8662L48.7562 12.8664ZM39.4533 15.877C39.4533 15.877 39.5557 15.6264 39.687 15.2646H35.0632C35.1942 15.6264 35.2969 15.877 35.2969 15.877H39.4533ZM37.7673 10.0165C37.7673 9.79124 37.5879 9.60824 37.3667 9.60824C37.1455 9.60824 36.966 9.79113 36.966 10.0165C36.966 10.2421 37.1455 10.4249 37.3667 10.4249C37.5879 10.4249 37.7673 10.2422 37.7673 10.0165ZM39.8596 14.8026C40.0375 14.2491 40.2378 13.4072 40.2378 13.001C40.2378 12.2584 39.8233 11.4362 38.3662 11.1836C38.3662 12.0972 37.9273 14.2792 37.3966 14.2792H37.3371C36.8063 14.2792 36.3672 12.0809 36.3672 11.1837C34.9147 11.4366 34.5126 12.2586 34.5126 13.001C34.5126 13.4072 34.7127 14.249 34.8902 14.8026H39.8597H39.8596ZM37.3667 13.6635C37.6434 13.6635 37.8676 12.2283 37.8676 11.5136C37.8676 11.1232 37.6434 10.8671 37.3667 10.8671C37.0901 10.8671 36.8659 11.1232 36.8659 11.5136C36.8659 12.2283 37.0901 13.6635 37.3667 13.6635ZM37.0998 9.06383H37.6338L37.5672 8.38332L38.2349 8.45137V7.90696L37.5672 7.97512L37.6338 7.29439H37.0999L37.1667 7.97512L36.4988 7.90696V8.45137L37.1667 8.38332L37.0999 9.06383H37.0998ZM9.90693 25.4227C8.8273 25.4485 6.92635 25.6626 5.96082 25.9674C6.61708 26.7513 8.33075 27.8769 9.35771 28.3549C8.55915 28.6559 7.12677 29.4198 6.52937 29.9711C7.29898 30.4443 8.98936 30.9849 9.78834 31.1617C9.3232 31.5371 8.36536 32.6225 8.01399 33.2078C8.6756 33.4131 10.0359 33.5916 10.8996 33.642C10.6227 34.2162 10.3072 35.2296 10.2237 35.89C10.6519 35.933 12.0823 35.8595 12.7905 35.7015C12.7297 36.2769 12.7529 37.3237 12.8486 37.7751C13.5474 37.6753 14.5452 37.3956 15.0094 37.2171C15.1438 37.7301 15.6243 38.8347 15.7932 39.0972C16.353 38.9903 17.0212 38.7628 17.5124 38.5069C17.6676 38.918 18.0204 39.5331 18.1179 39.6884C19.7542 38.0431 22.091 39.3774 22.091 41.1282C21.9231 42.2817 20.2856 42.2172 19.4236 42.7595C18.2901 43.4724 18.4863 45.1252 17.3196 45.3791C18.422 46.0724 18.7427 44.7711 19.8877 44.734C19.7349 45.4359 19.7494 46.6821 19.8642 47.2041C20.3354 46.8422 20.9963 46.5661 21.4287 46.5381C21.3219 46.9475 21.2384 47.9055 21.393 48.5023C21.6969 48.2733 22.8313 47.2922 25.5247 47.923C25.8513 47.9993 23.6977 47.9151 23.9665 48.6061C24.1781 49.1508 24.238 49.5296 23.9849 50.3027C24.0991 50.3435 24.2315 50.3628 24.3743 50.3628C24.9782 50.3628 25.7612 50.0142 26.0723 49.4669C26.3127 49.6447 26.3127 50.9107 25.5073 51.2251C26.3676 51.2876 27.0227 50.5924 27.1498 50.1654C27.1498 50.1654 27.5704 51.1598 28.069 51.4862C28.3822 51.3771 28.9401 50.8607 29.1558 50.3245C29.3711 50.8608 29.9291 51.3771 30.2421 51.4862C30.7409 51.1597 31.1614 50.1654 31.1614 50.1654C31.2885 50.5924 31.9439 51.2876 32.8041 51.2251C31.9988 50.9107 31.9987 49.6447 32.239 49.4669C32.5502 50.0142 33.3332 50.3628 33.9373 50.3628C34.0798 50.3628 34.2125 50.3434 34.3267 50.3027C34.0736 49.5296 34.1334 49.1508 34.3451 48.6061C34.6139 47.9151 32.4603 47.9994 32.7868 47.923C35.4797 47.2922 36.6147 48.2733 36.9185 48.5023C37.0731 47.9055 36.9897 46.9475 36.8828 46.5381C37.3152 46.5661 37.976 46.8422 38.4474 47.2041C38.5618 46.6821 38.5765 45.4359 38.4235 44.734C39.5685 44.7711 39.8893 46.0724 40.9917 45.379C39.825 45.1252 40.0211 43.4723 38.8876 42.7594C38.0257 42.2172 36.3881 42.2817 36.2203 41.1282C36.2203 39.3774 38.557 38.0431 40.1934 39.6884C40.2907 39.533 40.6435 38.9179 40.7988 38.5068C41.2899 38.7628 41.9583 38.9902 42.5181 39.0972C42.6869 38.8346 43.1676 37.73 43.3017 37.217C43.7661 37.3955 44.7639 37.6752 45.4626 37.775C45.5583 37.3237 45.5815 36.2769 45.5207 35.7014C46.2289 35.8595 47.6592 35.933 48.0873 35.8898C48.004 35.2295 47.6887 34.2161 47.4114 33.6419C48.2753 33.5915 49.6355 33.413 50.2973 33.2077C49.9458 32.6223 48.988 31.5369 48.5231 31.1615C49.3218 30.9848 51.0121 30.4442 51.782 29.9709C51.1846 29.4197 49.7521 28.6557 48.9535 28.3548C49.9806 27.8767 51.694 26.7512 52.3505 25.9673C51.3849 25.6624 49.4838 25.4484 48.4043 25.4226C50.6389 23.9061 50.7078 20.6167 50.0642 18.8292C49.6316 19.9129 48.1969 21.6931 47.2709 22.6529C47.3531 23.5664 47.0543 25.1868 46.542 26.1758C47.2755 26.4522 48.1448 26.8691 48.7607 27.3338C48.3521 27.844 47.4728 28.6357 46.9213 29.0648C47.388 29.5489 48.1729 30.4384 48.5228 30.9526C48.0058 31.3366 46.8811 31.7771 46.3045 31.9794C46.5883 32.5567 47.0004 33.6098 47.1069 34.3367C46.4504 34.4444 45.5465 34.5174 44.6016 34.506C44.6474 35.2021 44.5488 36.2799 44.4266 36.9252C43.5501 36.8561 42.5161 36.4992 42.055 36.2698C41.811 37.2319 41.2084 38.1652 41.1819 38.2148C38.4423 35.2522 36.0142 38.0471 36.0142 40.6583V44.2167C36.0142 45.8998 35.4797 46.6682 33.9416 46.6682H31.9512C30.712 46.6682 29.6737 47.1898 29.1556 48.1918C28.6374 47.1898 27.599 46.6682 26.36 46.6682H24.3694C22.8313 46.6682 22.2967 45.8998 22.2967 44.2167V40.6583C22.2967 38.0471 19.8687 35.2522 17.1291 38.2148C17.1027 38.1652 16.4999 37.2319 16.2559 36.2698C15.7948 36.4992 14.7608 36.8561 13.8847 36.9254C13.7621 36.28 13.6636 35.2022 13.7096 34.5062C12.7645 34.5175 11.8608 34.4446 11.204 34.3369C11.3106 33.6099 11.7227 32.5568 12.0066 31.9795C11.4301 31.7772 10.3053 31.3367 9.78834 30.9527C10.138 30.4385 10.923 29.549 11.3897 29.0648C10.8382 28.6357 9.95896 27.8441 9.55033 27.3338C10.1661 26.8691 11.0356 26.4521 11.769 26.1757C11.2567 25.1868 10.9578 23.5664 11.0401 22.6528C10.114 21.693 8.67945 19.9128 8.24678 18.8292C7.60323 20.6167 7.67214 23.906 9.90671 25.4225L9.90693 25.4227ZM3.74056 42.4124L3.53918 42.6256C3.53918 42.6256 3.957 43.1675 4.29437 42.9614C4.48634 42.6096 3.943 42.2 3.943 42.2L3.74056 42.4124Z" fill="black"/>
<path d="M82.9625 28.1008C81.7895 29.1989 80.1262 29.7978 77.9714 29.8976V31.4282H75.7749V29.8976C73.6127 29.7728 71.9483 29.1655 70.7678 28.0841C69.5862 26.9944 69.004 25.5054 69.004 23.6088C69.004 21.7121 69.5948 20.2147 70.7678 19.1166C71.9408 18.0186 73.6127 17.4114 75.7749 17.2866V15.8225H77.9714V17.2866C80.1336 17.4114 81.798 18.0186 82.9625 19.1166C84.1355 20.2064 84.7177 21.7038 84.7177 23.6088C84.7177 25.5137 84.127 26.9944 82.9625 28.1008ZM72.4643 26.5285C73.2292 27.2273 74.3274 27.6515 75.7664 27.7847V19.4079C72.8051 19.6574 71.3244 21.055 71.3244 23.6004C71.3244 24.8482 71.7068 25.8298 72.4643 26.5285ZM81.2906 26.5369C82.047 25.8298 82.4219 24.8399 82.4219 23.5754C82.4219 22.311 82.0395 21.3294 81.2821 20.6223C80.5172 19.9236 79.4104 19.516 77.9628 19.4079V27.7847C79.4275 27.6682 80.5417 27.2523 81.2906 26.5369Z" fill="black"/>
<path d="M96.0728 26.1541H88.412C88.5444 26.9694 88.8938 27.6099 89.46 28.0841C90.0251 28.5583 90.7323 28.7995 91.572 28.7995C92.6457 28.7995 93.527 28.4003 94.2257 27.6016L95.4489 29.1905C95.0077 29.7811 94.4511 30.2303 93.7856 30.5298C93.1115 30.8293 92.354 30.9873 91.5143 30.9873C90.4407 30.9873 89.4931 30.746 88.678 30.2636C87.8629 29.7811 87.2304 29.1156 86.7807 28.2505C86.332 27.3937 86.1151 26.4204 86.1151 25.3307C86.1151 24.2576 86.332 23.2926 86.7646 22.4275C87.1973 21.5707 87.7956 20.8968 88.569 20.4143C89.3435 19.9319 90.2003 19.6907 91.165 19.6907C92.1137 19.6907 92.9704 19.9319 93.7182 20.406C94.4671 20.8802 95.0579 21.5457 95.4735 22.4108C95.8987 23.2676 96.1059 24.2659 96.1059 25.3889C96.1145 25.5719 96.0974 25.8298 96.0728 26.1541ZM89.3179 22.494C88.8105 22.9848 88.5028 23.6337 88.3949 24.4406H93.9351C93.8347 23.6419 93.5356 22.9931 93.0367 22.5023C92.5378 22.0115 91.9139 21.7619 91.1735 21.7619C90.4407 21.7619 89.8253 22.0032 89.3179 22.494Z" fill="black"/>
<path d="M108.916 28.6581V33.2998H106.778V30.8458H99.2413V33.2998H97.1196V28.6581H97.5769C98.2007 28.6332 98.6259 28.1839 98.8503 27.3105C99.0746 26.437 99.2242 25.2058 99.299 23.6087L99.424 19.832H107.477V28.6664H108.916V28.6581ZM101.104 26.8779C100.971 27.6765 100.731 28.2672 100.373 28.6497H105.18V22.0033H101.429L101.37 23.775C101.329 25.0478 101.238 26.0793 101.104 26.8779Z" fill="black"/>
<path d="M120.081 26.1541H112.419C112.552 26.9694 112.902 27.6099 113.467 28.0841C114.033 28.5583 114.74 28.7995 115.58 28.7995C116.654 28.7995 117.535 28.4003 118.234 27.6016L119.457 29.1905C119.016 29.7811 118.458 30.2303 117.792 30.5298C117.119 30.8293 116.362 30.9873 115.522 30.9873C114.449 30.9873 113.5 30.746 112.685 30.2636C111.87 29.7811 111.237 29.1156 110.789 28.2505C110.339 27.3937 110.123 26.4204 110.123 25.3307C110.123 24.2576 110.339 23.2926 110.772 22.4275C111.204 21.5707 111.803 20.8968 112.577 20.4143C113.342 19.9319 114.207 19.6907 115.173 19.6907C116.121 19.6907 116.977 19.9319 117.726 20.406C118.475 20.8802 119.066 21.5457 119.481 22.4108C119.906 23.2676 120.114 24.2659 120.114 25.3889C120.114 25.5719 120.105 25.8298 120.081 26.1541ZM113.317 22.494C112.81 22.9848 112.502 23.6337 112.394 24.4406H117.934C117.834 23.6419 117.535 22.9931 117.036 22.5023C116.537 22.0115 115.913 21.7619 115.173 21.7619C114.44 21.7619 113.825 22.0032 113.317 22.494Z" fill="black"/>
<path d="M130.587 20.3977C131.335 20.8636 131.926 21.529 132.35 22.3776C132.774 23.2344 132.99 24.2159 132.99 25.3307C132.99 26.4454 132.774 27.4353 132.35 28.2921C131.926 29.1489 131.335 29.8144 130.587 30.2803C129.838 30.7461 128.989 30.979 128.032 30.979C126.718 30.979 125.67 30.4798 124.905 29.4899V34.8305H122.617V19.8237H124.796V21.2711C125.171 20.7471 125.637 20.3561 126.195 20.0982C126.751 19.8404 127.359 19.7072 128.032 19.7072C128.989 19.6989 129.838 19.9319 130.587 20.3977ZM129.855 27.8263C130.395 27.194 130.67 26.3622 130.67 25.3307C130.67 24.2991 130.395 23.4673 129.855 22.835C129.314 22.2029 128.623 21.8868 127.775 21.8868C127.226 21.8868 126.735 22.0281 126.294 22.311C125.853 22.5938 125.504 22.9931 125.255 23.5173C124.996 24.0413 124.872 24.6485 124.872 25.3307C124.872 26.0128 124.996 26.62 125.255 27.1442C125.512 27.6682 125.861 28.0675 126.294 28.3503C126.735 28.6332 127.226 28.7746 127.775 28.7746C128.623 28.7829 129.314 28.4585 129.855 27.8263Z" fill="black"/>
<path d="M142.074 20.8636C142.839 21.6373 143.221 22.8102 143.221 24.3824V30.8377H141.059V29.4984C140.776 29.9809 140.376 30.3469 139.86 30.6048C139.346 30.8627 138.722 30.9874 137.989 30.9874C137.257 30.9874 136.617 30.846 136.068 30.5632C135.519 30.2803 135.095 29.8893 134.795 29.3902C134.495 28.8911 134.346 28.3171 134.346 27.6849C134.346 26.695 134.671 25.8964 135.328 25.2975C135.976 24.6985 137.008 24.3991 138.414 24.3991H140.943V24.2327C140.943 23.4591 140.734 22.8684 140.327 22.4609C139.919 22.0532 139.312 21.8453 138.505 21.8453C137.956 21.8453 137.415 21.9451 136.883 22.1364C136.35 22.3277 135.901 22.594 135.535 22.9433L134.636 21.0633C135.152 20.6224 135.768 20.2896 136.484 20.0567C137.199 19.8239 137.964 19.7074 138.771 19.7074C140.211 19.6991 141.317 20.0901 142.074 20.8636ZM139.994 28.6665C140.444 28.3671 140.751 27.9511 140.934 27.3938V26.121H138.572C137.257 26.121 136.591 26.6119 136.591 27.5851C136.591 28.051 136.758 28.4253 137.083 28.6998C137.415 28.9743 137.872 29.1158 138.456 29.1158C139.038 29.1074 139.545 28.9576 139.994 28.6665Z" fill="black"/>
<path d="M154.91 19.8237V30.8459H152.622V22.0115H148.962L148.871 24.1993C148.813 25.6551 148.688 26.878 148.513 27.8595C148.339 28.8411 148.038 29.6231 147.614 30.1888C147.19 30.7544 146.616 31.0455 145.885 31.0455C145.543 31.0455 145.119 30.9707 144.62 30.821L144.728 28.6498C144.903 28.6914 145.044 28.7163 145.169 28.7163C145.635 28.7163 145.975 28.5084 146.208 28.0841C146.441 27.6599 146.591 27.1608 146.658 26.5784C146.724 25.9962 146.783 25.156 146.832 24.0745L146.999 19.8237H154.91Z" fill="black"/>
<path d="M165.75 24.4073C166.415 25.0395 166.748 25.938 166.748 27.0942C166.748 28.3088 166.382 29.2404 165.649 29.8975C164.918 30.5548 163.886 30.8792 162.556 30.8709L157.98 30.8542V19.8237H160.267V23.4341L162.879 23.4506C164.127 23.4506 165.084 23.7751 165.75 24.4073ZM163.894 28.4918C164.243 28.159 164.427 27.6765 164.427 27.0443C164.427 26.4288 164.252 25.9712 163.911 25.6801C163.57 25.3889 163.054 25.2392 162.356 25.2309L160.267 25.2059V28.941L162.356 28.9576C163.029 28.9742 163.536 28.8245 163.894 28.4918Z" fill="black"/>
<path d="M168.761 19.8237H171.049V24.2992H175.974V19.8237H178.261V30.8459H175.974V26.4953H171.049V30.8459H168.761V19.8237Z" fill="black"/>
<path d="M183.01 30.2636C182.22 29.7811 181.596 29.1156 181.155 28.2505C180.706 27.3937 180.489 26.4204 180.489 25.3307C180.489 24.2409 180.714 23.2759 181.155 22.4191C181.596 21.5623 182.22 20.8968 183.01 20.4143C183.8 19.9319 184.691 19.6907 185.68 19.6907C186.679 19.6907 187.577 19.9319 188.367 20.4143C189.157 20.8968 189.781 21.5623 190.223 22.4191C190.663 23.2759 190.888 24.2409 190.888 25.3307C190.888 26.4204 190.663 27.3937 190.223 28.2505C189.773 29.1073 189.157 29.7811 188.367 30.2636C187.577 30.746 186.679 30.9873 185.68 30.9873C184.691 30.9873 183.8 30.746 183.01 30.2636ZM187.769 27.8263C188.318 27.194 188.591 26.3621 188.591 25.3307C188.591 24.2991 188.318 23.4672 187.769 22.835C187.22 22.2028 186.521 21.8867 185.68 21.8867C184.84 21.8867 184.149 22.2028 183.6 22.835C183.052 23.4672 182.785 24.2991 182.785 25.3307C182.785 26.3621 183.06 27.194 183.6 27.8263C184.142 28.4585 184.84 28.7746 185.68 28.7746C186.521 28.7828 187.22 28.4585 187.769 27.8263Z" fill="black"/>
<path d="M202.261 26.1541H194.599C194.733 26.9694 195.082 27.6099 195.647 28.0841C196.214 28.5583 196.92 28.7995 197.761 28.7995C198.833 28.7995 199.716 28.4003 200.414 27.6016L201.637 29.1905C201.196 29.7811 200.639 30.2303 199.973 30.5298C199.299 30.8293 198.543 30.9873 197.702 30.9873C196.629 30.9873 195.681 30.746 194.865 30.2636C194.05 29.7811 193.418 29.1156 192.969 28.2505C192.519 27.3937 192.304 26.4204 192.304 25.3307C192.304 24.2576 192.519 23.2926 192.952 22.4275C193.385 21.5707 193.984 20.8968 194.757 20.4143C195.522 19.9319 196.388 19.6907 197.352 19.6907C198.301 19.6907 199.158 19.9319 199.907 20.406C200.656 20.8802 201.246 21.5457 201.662 22.4108C202.086 23.2676 202.294 24.2659 202.294 25.3889C202.294 25.5719 202.286 25.8298 202.261 26.1541ZM195.498 22.494C194.99 22.9848 194.683 23.6337 194.575 24.4406H200.115C200.015 23.6419 199.716 22.9931 199.217 22.5023C198.717 22.0115 198.093 21.7619 197.352 21.7619C196.621 21.7619 196.005 22.0032 195.498 22.494Z" fill="black"/>
<path d="M76.7652 41.6601C77.5301 42.4337 77.9051 43.6067 77.9051 45.1789V51.6342H75.7418V50.2948C75.4587 50.7773 75.0602 51.1433 74.5442 51.4012C74.0282 51.6591 73.4043 51.7838 72.6726 51.7838C71.9408 51.7838 71.2998 51.6424 70.7507 51.3596C70.2016 51.0767 69.7775 50.6858 69.4783 50.1867C69.1781 49.6876 69.0286 49.1136 69.0286 48.4814C69.0286 47.4915 69.3533 46.6928 70.0103 46.0939C70.6588 45.4949 71.6908 45.1955 73.0967 45.1955H75.6168V45.0291C75.6168 44.2555 75.4096 43.6649 75.0015 43.2572C74.5944 42.8497 73.9866 42.6417 73.18 42.6417C72.6309 42.6417 72.0903 42.7415 71.5572 42.9328C71.0252 43.1241 70.5765 43.3904 70.2101 43.7398L69.3117 41.8597C69.8277 41.4189 70.443 41.0861 71.1588 40.8532C71.8735 40.6202 72.6394 40.5038 73.446 40.5038C74.9021 40.4955 76.0003 40.8865 76.7652 41.6601ZM74.6767 49.4629C75.1179 49.1635 75.4341 48.7476 75.6168 48.1902V46.9175H73.2548C71.9408 46.9175 71.2752 47.4083 71.2752 48.3815C71.2752 48.8474 71.4408 49.2217 71.7656 49.4963C72.0989 49.7707 72.5561 49.9122 73.1383 49.9122C73.7291 49.9038 74.2366 49.7542 74.6767 49.4629Z" fill="black"/>
<path d="M88.2463 42.8079H83.0298V51.6423H80.7426V40.6201H88.2463V42.8079Z" fill="black"/>
<path d="M98.6014 46.9506H90.9406C91.073 47.7659 91.4224 48.4064 91.9886 48.8805C92.5537 49.3546 93.2609 49.596 94.1017 49.596C95.1743 49.596 96.0567 49.1966 96.7554 48.3981L97.9775 49.9869C97.5374 50.5775 96.9797 51.0268 96.3142 51.3262C95.6401 51.6256 94.8837 51.7838 94.0429 51.7838C92.9704 51.7838 92.0217 51.5424 91.2066 51.06C90.3915 50.5775 89.759 49.912 89.3093 49.0469C88.8606 48.1901 88.6448 47.2169 88.6448 46.1271C88.6448 45.054 88.8606 44.089 89.2932 43.2238C89.7259 42.3671 90.3242 41.6933 91.0987 41.2107C91.8721 40.7283 92.7289 40.4871 93.6936 40.4871C94.6423 40.4871 95.499 40.7283 96.2479 41.2024C96.9957 41.6766 97.5865 42.3421 98.0031 43.2072C98.4273 44.0641 98.6345 45.0623 98.6345 46.1853C98.6345 46.3683 98.627 46.6262 98.6014 46.9506ZM91.839 43.2904C91.3316 43.7812 91.0239 44.4301 90.9149 45.237H96.4552C96.3558 44.4384 96.0567 43.7895 95.5567 43.2987C95.0578 42.808 94.4339 42.5584 93.6936 42.5584C92.9618 42.5584 92.3465 42.7996 91.839 43.2904Z" fill="black"/>
<path d="M101.147 40.6201H103.434V45.0955H108.359V40.6201H110.647V51.6423H108.359V47.2916H103.434V51.6423H101.147V40.6201Z" fill="black"/>
<path d="M121.452 42.8079H118.033V51.6423H115.746V42.8079H112.31V40.6201H121.46V42.8079H121.452Z" fill="black"/>
<path d="M124.414 51.06C123.607 50.5775 122.983 49.912 122.525 49.0469C122.076 48.1901 121.852 47.2168 121.852 46.1271C121.852 45.0373 122.076 44.0724 122.525 43.2155C122.975 42.3587 123.599 41.6933 124.397 41.2107C125.196 40.7283 126.11 40.4871 127.134 40.4871C128.098 40.4871 128.939 40.7033 129.671 41.1442C130.403 41.5851 130.943 42.2173 131.31 43.0408L129.555 44.1972C129.271 43.6897 128.922 43.3071 128.507 43.0492C128.082 42.7913 127.625 42.6665 127.125 42.6665C126.268 42.6665 125.561 42.9826 125.005 43.6065C124.447 44.2304 124.164 45.0706 124.164 46.1104C124.164 47.1503 124.438 47.9904 124.996 48.6143C125.554 49.2382 126.261 49.5543 127.125 49.5543C127.625 49.5543 128.082 49.4295 128.507 49.1716C128.931 48.9137 129.28 48.5394 129.555 48.0237L131.31 49.18C130.927 50.0035 130.378 50.6441 129.654 51.085C128.931 51.5342 128.091 51.7588 127.142 51.7588C126.127 51.7837 125.22 51.5424 124.414 51.06Z" fill="black"/>
<path d="M140.967 42.8079H137.549V51.6423H135.26V42.8079H131.825V40.6201H140.976V42.8079H140.967Z" fill="black"/>
<path d="M151.524 48.5477C151.524 49.5377 151.191 50.3029 150.534 50.8354C149.877 51.376 148.904 51.6423 147.606 51.6423H142.632V40.6201H147.406C148.605 40.6201 149.536 40.8697 150.209 41.3605C150.883 41.8512 151.217 42.5583 151.217 43.465C151.217 44.0307 151.083 44.5132 150.826 44.9291C150.567 45.345 150.193 45.6611 149.719 45.9025C150.925 46.3184 151.524 47.1918 151.524 48.5477ZM144.811 45.2202H147.206C148.388 45.2202 148.978 44.7628 148.978 43.8394C148.978 42.941 148.388 42.5001 147.206 42.5001H144.811V45.2202ZM149.311 48.3814C149.311 47.8989 149.161 47.5411 148.871 47.2999C148.579 47.0587 148.122 46.9422 147.498 46.9422H144.811V49.7706H147.423C148.687 49.7623 149.311 49.2964 149.311 48.3814Z" fill="black"/>
<path d="M155.643 51.06C154.853 50.5775 154.229 49.912 153.788 49.0469C153.338 48.1901 153.122 47.2169 153.122 46.1271C153.122 45.0373 153.347 44.0724 153.788 43.2155C154.229 42.3587 154.853 41.6933 155.643 41.2107C156.433 40.7283 157.323 40.4871 158.313 40.4871C159.311 40.4871 160.21 40.7283 161 41.2107C161.791 41.6933 162.415 42.3587 162.855 43.2155C163.296 44.0724 163.52 45.0373 163.52 46.1271C163.52 47.2169 163.296 48.1901 162.855 49.0469C162.406 49.9038 161.791 50.5775 161 51.06C160.21 51.5424 159.311 51.7838 158.313 51.7838C157.323 51.7838 156.433 51.5424 155.643 51.06ZM160.401 48.6226C160.95 47.9904 161.224 47.1585 161.224 46.1271C161.224 45.0955 160.95 44.2637 160.401 43.6315C159.852 42.9993 159.153 42.6832 158.313 42.6832C157.473 42.6832 156.782 42.9993 156.233 43.6315C155.684 44.2637 155.418 45.0955 155.418 46.1271C155.418 47.1585 155.693 47.9904 156.233 48.6226C156.774 49.2549 157.473 49.571 158.313 49.571C159.153 49.5793 159.852 49.2549 160.401 48.6226Z" fill="black"/>
<path d="M180.191 40.6201V51.6423H177.92V42.8079H173.113V51.6423H170.824V40.6201H180.191Z" fill="black"/>
<path d="M184.965 51.06C184.175 50.5775 183.551 49.912 183.11 49.0469C182.661 48.1901 182.444 47.2169 182.444 46.1271C182.444 45.0373 182.67 44.0724 183.11 43.2155C183.551 42.3587 184.175 41.6933 184.965 41.2107C185.755 40.7283 186.646 40.4871 187.635 40.4871C188.634 40.4871 189.532 40.7283 190.322 41.2107C191.112 41.6933 191.736 42.3587 192.178 43.2155C192.618 44.0724 192.843 45.0373 192.843 46.1271C192.843 47.2169 192.618 48.1901 192.178 49.0469C191.728 49.9038 191.112 50.5775 190.322 51.06C189.532 51.5424 188.634 51.7838 187.635 51.7838C186.653 51.7838 185.763 51.5424 184.965 51.06ZM189.724 48.6226C190.273 47.9904 190.547 47.1585 190.547 46.1271C190.547 45.0955 190.273 44.2637 189.724 43.6315C189.175 42.9993 188.476 42.6832 187.635 42.6832C186.795 42.6832 186.104 42.9993 185.556 43.6315C185.007 44.2637 184.74 45.0955 184.74 46.1271C184.74 47.1585 185.015 47.9904 185.556 48.6226C186.097 49.2549 186.795 49.571 187.635 49.571C188.483 49.5793 189.175 49.2549 189.724 48.6226Z" fill="black"/>
<path d="M207.891 42.8079H204.472V51.6423H202.184V42.8079H198.749V40.6201H207.899V42.8079H207.891Z" fill="black"/>
<path d="M218.848 40.6201L214.272 52.524C213.848 53.7219 213.324 54.562 212.717 55.0528C212.109 55.5437 211.369 55.7849 210.504 55.7849C210.013 55.7849 209.531 55.6934 209.057 55.5187C208.582 55.3357 208.191 55.0945 207.884 54.7784L208.798 52.8817C209.015 53.1146 209.281 53.2976 209.573 53.439C209.863 53.5805 210.171 53.647 210.479 53.647C210.878 53.647 211.21 53.5306 211.478 53.2977C211.744 53.0647 211.985 52.6737 212.201 52.1247L212.367 51.6921L208.108 40.6285H210.487L213.565 48.7807L216.66 40.6285H218.848V40.6201Z" fill="black"/>
<path d="M228.405 41.1941C229.154 41.6599 229.745 42.3254 230.169 43.1739C230.593 44.0307 230.81 45.0123 230.81 46.127C230.81 47.2417 230.593 48.2316 230.169 49.0884C229.745 49.9452 229.154 50.6107 228.405 51.0766C227.657 51.5424 226.808 51.7753 225.852 51.7753C224.538 51.7753 223.49 51.2762 222.724 50.2863V55.6268H220.436V40.6201H222.616V42.0675C222.99 41.5434 223.455 41.1524 224.013 40.8945C224.571 40.6368 225.178 40.5036 225.852 40.5036C226.808 40.4953 227.657 40.7282 228.405 41.1941ZM227.673 48.6226C228.214 47.9903 228.488 47.1585 228.488 46.127C228.488 45.0954 228.214 44.2636 227.673 43.6314C227.133 42.9992 226.442 42.6831 225.594 42.6831C225.045 42.6831 224.554 42.8245 224.114 43.1073C223.672 43.3902 223.323 43.7894 223.073 44.3135C222.816 44.8376 222.691 45.4449 222.691 46.127C222.691 46.8091 222.816 47.4163 223.073 47.9404C223.332 48.4646 223.681 48.8638 224.114 49.1467C224.554 49.4294 225.045 49.5709 225.594 49.5709C226.442 49.5792 227.133 49.2548 227.673 48.6226Z" fill="black"/>
<path d="M233.081 40.6201H235.368V47.8822L240.767 40.6201H242.855V51.6423H240.568V44.3801L235.194 51.6423H233.089V40.6201H233.081Z" fill="black"/>
<path d="M253.053 46.8425C253.385 47.2751 253.552 47.7992 253.552 48.3981C253.552 49.072 253.352 49.6709 252.944 50.1867C252.545 50.7024 251.988 51.1017 251.28 51.3929C250.573 51.684 249.767 51.8254 248.868 51.8254C248.111 51.8254 247.371 51.7256 246.656 51.526C245.932 51.3263 245.283 51.0434 244.701 50.6691L245.358 48.7476C245.832 49.047 246.373 49.2799 246.971 49.4463C247.57 49.6127 248.17 49.6959 248.768 49.6959C249.534 49.6959 250.141 49.5628 250.573 49.2965C251.006 49.0303 251.222 48.6643 251.222 48.1902C251.222 47.766 251.056 47.4332 250.714 47.2003C250.382 46.9673 249.908 46.8509 249.301 46.8509H247.396V45.1206H249.117C249.692 45.1206 250.141 45.0124 250.465 44.7879C250.79 44.5715 250.948 44.2555 250.948 43.8562C250.948 43.4569 250.756 43.1408 250.365 42.9079C249.974 42.675 249.442 42.5585 248.752 42.5585C247.779 42.5585 246.747 42.8246 245.657 43.3654L245.075 41.4688C246.356 40.795 247.645 40.4539 248.952 40.4539C249.783 40.4539 250.523 40.5786 251.181 40.8365C251.838 41.0944 252.353 41.4521 252.728 41.9096C253.102 42.3672 253.286 42.8995 253.286 43.4902C253.286 44.0309 253.135 44.5051 252.844 44.921C252.553 45.3369 252.146 45.6697 251.638 45.9025C252.245 46.0939 252.711 46.41 253.053 46.8425Z" fill="black"/>
<path d="M265.54 51.6423V44.3385L262.246 50.4859H261.256L258.02 44.3136V51.6423H255.932V40.6201H258.328L261.805 47.5162L265.448 40.6201H267.587L267.603 51.6423H265.54Z" fill="black"/>
<path d="M279.897 40.6201L275.323 52.524C274.898 53.7219 274.374 54.562 273.766 55.0528C273.159 55.5437 272.419 55.7849 271.554 55.7849C271.063 55.7849 270.581 55.6934 270.106 55.5187C269.632 55.3357 269.241 55.0945 268.933 54.7784L269.849 52.8817C270.065 53.1146 270.331 53.2976 270.622 53.439C270.914 53.5805 271.222 53.647 271.529 53.647C271.929 53.647 272.261 53.5306 272.527 53.2977C272.793 53.0647 273.034 52.6737 273.251 52.1247L273.417 51.6921L269.159 40.6285H271.538L274.616 48.7807L277.709 40.6285H279.897V40.6201Z" fill="black"/>
</svg>
