<svg width="262" height="103" viewBox="0 0 262 103" fill="none" xmlns="http://www.w3.org/2000/svg">
<rect x="0.5" y="0.5" width="261" height="101.396" fill="white"/>
<path fill-rule="evenodd" clip-rule="evenodd" d="M65.0111 69.5876C64.9234 69.5876 64.7284 70.2253 64.9291 70.6776C65.0359 70.9184 65.2871 71.0202 65.4971 70.9527C65.7041 70.8863 65.7643 70.697 65.77 70.5495C65.7895 70.0539 65.3374 69.5876 65.011 69.5876H65.0111ZM63.5057 62.3555L63.5716 63.0557L62.943 62.9883V63.7856L63.5716 63.7184L63.5057 64.4497H64.3595L64.2936 63.7184L64.922 63.7856V62.9883L64.2936 63.0558L64.3595 62.3555H63.5057ZM63.9337 65.1151C63.7637 65.1151 63.6259 65.2506 63.6259 65.418C63.6259 65.5852 63.7638 65.7208 63.9337 65.7208C64.1038 65.7208 64.2416 65.5852 64.2416 65.418C64.2416 65.2506 64.1037 65.1151 63.9337 65.1151ZM63.9337 66.3413C63.7637 66.3413 63.6259 66.477 63.6259 66.6442C63.6259 66.8116 63.7638 66.947 63.9337 66.947C64.1038 66.947 64.2416 66.8115 64.2416 66.6442C64.2416 66.477 64.1037 66.3413 63.9337 66.3413ZM63.9337 67.5853C63.7637 67.5853 63.6259 67.7208 63.6259 67.8881C63.6259 68.0556 63.7638 68.1911 63.9337 68.1911C64.1038 68.1911 64.2416 68.0555 64.2416 67.8881C64.2416 67.7208 64.1037 67.5852 63.9337 67.5852V67.5853ZM64.928 67.8881C64.928 68.0556 65.0659 68.1911 65.2358 68.1911C65.4058 68.1911 65.5437 68.0555 65.5437 67.8881C65.5437 67.7208 65.4058 67.5852 65.2358 67.5852C65.0658 67.5852 64.9279 67.7208 64.9279 67.888L64.928 67.8881ZM66.2184 67.8881C66.2184 68.0556 66.3564 68.1911 66.5263 68.1911C66.6963 68.1911 66.8342 68.0555 66.8342 67.8881C66.8342 67.7208 66.6963 67.5852 66.5263 67.5852C66.3564 67.5852 66.2184 67.7208 66.2184 67.888V67.8881ZM63.9337 69.2504C63.6702 69.2504 63.02 70.5373 63.5047 71.1881C63.5974 71.3127 63.7598 71.3825 63.9337 71.3825C64.1076 71.3825 64.2702 71.3126 64.3628 71.1881C64.8476 70.5373 64.1973 69.2504 63.9337 69.2504ZM62.8564 69.5875C62.53 69.5875 62.0779 70.0538 62.0973 70.5494C62.103 70.6969 62.1633 70.8862 62.3703 70.9526C62.5803 71.0201 62.8315 70.9184 62.9383 70.6775C63.139 70.2252 62.9441 69.5875 62.8564 69.5875ZM62.3555 67.888C62.3555 68.0555 62.4932 68.191 62.6633 68.191C62.8335 68.191 62.9712 68.0554 62.9712 67.888C62.9712 67.7208 62.8334 67.5852 62.6633 67.5852C62.4931 67.5852 62.3554 67.7207 62.3554 67.888H62.3555ZM61.0967 67.888C61.0967 68.0555 61.2345 68.191 61.4045 68.191C61.5745 68.191 61.7125 68.0554 61.7125 67.888C61.7125 67.7208 61.5746 67.5852 61.4045 67.5852C61.2345 67.5852 61.0967 67.7207 61.0967 67.888ZM60.7931 67.888C60.7931 67.6298 60.8395 67.3971 60.8395 67.3971H63.3979V67.1837L63.3981 65.3842L63.3979 65.3839V64.8723C62.163 65.0807 61.1754 65.9981 60.881 67.1833C60.8092 67.2819 60.5772 67.3323 60.4136 67.3146C59.4695 67.2032 57.5587 66.8715 57.5587 66.4795C57.5587 65.9289 57.9459 65.7085 58.3178 65.7085C58.8485 65.7085 59.4347 65.9853 59.9228 65.3047C58.1856 65.3813 59.5173 62.9639 58.0924 62.5052C58.1631 63.1225 58.093 64.2085 57.8683 64.7825C57.8683 64.7825 57.3578 64.2573 56.7844 64.0591C56.8275 64.5072 56.7403 65.436 56.5322 65.8589C56.5322 65.8589 55.9251 65.3175 55.2955 65.115C55.8764 65.9261 55.8564 67.0837 55.7001 67.7878C55.6548 67.9915 55.8124 68.245 56.2554 68.2264C56.9483 68.1969 59.3147 68.2974 60.3411 68.7017C60.6603 68.8273 60.9336 68.9716 61.0671 69.1907C61.1759 69.4858 61.4449 69.9429 61.776 70.1773C61.9247 69.6671 62.5584 69.1207 62.9712 69.1405C63.0945 69.1463 63.2309 69.3447 63.2591 69.5391C63.2956 69.3583 63.6001 68.8589 63.9337 68.8589C64.2415 68.8589 64.5374 69.2767 64.6401 69.6218C64.6711 69.4001 64.8071 69.1631 64.9305 69.1631C65.3451 69.1631 65.8665 69.5173 66.063 70.1024C66.222 69.9114 66.9526 69.007 67.0351 68.4135H60.8394C60.8394 68.4135 60.793 68.1568 60.793 67.8882L60.7931 67.888ZM64.4694 64.8728V67.3972H67.0301C66.8075 66.1101 65.7768 65.0942 64.4694 64.8728H64.4694ZM34.2518 66.9513C34.3056 66.9687 34.3599 66.9564 34.4135 66.9289C34.241 67.1604 34.2481 67.3127 34.3224 67.384C34.4392 67.4954 34.5257 67.2907 34.8207 66.989C35.1162 66.6876 35.3204 66.5957 35.2041 66.4839C35.1291 66.4122 34.9737 66.4101 34.7417 66.5923C34.7673 66.539 34.7772 66.4859 34.7585 66.434C34.6608 66.162 34.2064 65.7997 33.9559 65.7989C33.9197 65.7993 33.884 65.8065 33.8507 65.8202C33.9609 65.6499 33.9325 65.5212 33.8587 65.4505C33.7776 65.3729 33.7311 65.4273 33.64 65.5396C33.6524 65.4611 33.6315 65.3692 33.5547 65.2571C33.1786 64.7091 31.1896 62.9044 30.738 62.723C30.4684 62.6144 30.38 62.7647 30.38 62.7647C30.38 62.7647 30.2308 62.8573 30.3487 63.1206C30.546 63.5611 32.4573 65.4455 33.0227 65.8002C33.1387 65.8727 33.2318 65.8904 33.3106 65.8758C33.2007 65.9685 33.148 66.0163 33.2287 66.0936C33.3025 66.1642 33.4339 66.1882 33.6028 66.0735C33.5901 66.107 33.5841 66.1425 33.5852 66.1781C33.5937 66.4254 33.9738 66.8633 34.2519 66.9513H34.2518ZM29.471 61.6123C29.4121 61.6123 29.3283 61.6258 29.2668 61.6885C29.2045 61.7521 29.1825 61.8506 29.2052 61.9646C29.2301 62.0887 29.3036 62.2146 29.4123 62.3189C29.5425 62.4438 29.7063 62.5184 29.8499 62.5184C29.9092 62.5184 29.9923 62.5054 30.054 62.4427C30.1883 62.3053 30.1219 62.0166 29.9087 61.8121C29.7781 61.6874 29.6147 61.6124 29.471 61.6124V61.6123ZM35.6568 68.3112C35.6552 68.1206 35.2807 67.8008 34.8366 67.8008C34.1771 67.8008 33.8915 68.2041 33.8915 68.4096C33.8915 68.7965 34.2791 68.8463 34.3979 68.8527C34.8622 68.8805 35.6107 68.4226 35.6568 68.3112ZM35.0887 69.2774C34.9134 69.494 34.8478 69.7055 34.8931 69.906C34.9483 70.1488 35.1971 70.2578 35.4195 70.2578C35.6538 70.2578 35.8636 70.1512 35.9808 69.9722C36.2327 69.5891 36.2439 68.74 36.1589 68.6471C35.9477 68.6471 35.3859 68.9103 35.0887 69.2775V69.2774ZM29.3001 60.4384C29.1138 60.2597 28.7325 60.526 28.5047 60.402C28.6057 59.8563 29.0061 60.429 29.393 60.0344C29.5473 59.8768 29.4646 59.6308 29.376 59.5565C29.2093 59.7195 28.9513 59.663 28.9314 59.5724C29.3706 58.571 28.5125 57.4545 27.6885 57.5945C27.8502 57.8032 27.8985 58.5287 27.8281 58.7248C28.1418 58.9422 27.9175 59.4543 27.5713 59.3055C27.3391 59.2142 26.9296 58.6541 27.4006 58.2595C27.387 58.1173 27.1279 58.0827 26.8526 58.4254C27.0546 57.7963 25.818 57.9936 25.5638 58.1445C25.4193 58.4003 25.2592 59.6293 25.8881 59.4098C25.5507 59.6929 25.5939 59.9478 25.7378 59.957C26.1217 59.4792 26.6999 59.8668 26.7996 60.0935C26.9609 60.4315 26.4503 60.6686 26.221 60.3654C26.0248 60.4414 25.2904 60.4165 25.0743 60.2632C24.9591 61.082 26.1138 61.8953 27.112 61.43C27.204 61.4468 27.2693 61.6995 27.11 61.8698C27.188 61.9554 27.4388 62.0293 27.5933 61.8716C27.9798 61.477 27.3883 61.0988 27.9368 60.9815C28.0691 61.2031 27.8123 61.5884 27.9985 61.7672C28.2967 62.0529 28.6713 61.4985 29.0393 61.4762C29.05 61.1118 29.5983 60.7243 29.3002 60.4383L29.3001 60.4384ZM26.209 59.174C26.209 59.174 26.0162 59.0418 26.2475 58.7996C26.4845 58.5632 26.6246 58.75 26.6246 58.75C26.6246 58.75 26.8419 59.2167 26.9062 59.4315C26.687 59.3747 26.2091 59.174 26.2091 59.174H26.209ZM28.118 60.5934C27.9983 60.608 27.7147 60.8517 27.5725 60.7153L26.9216 60.0917L27.247 59.7585L27.5737 59.4262L28.224 60.0505C28.3662 60.1864 28.129 60.4747 28.118 60.5933V60.5934ZM38.9022 70.1512C38.9243 70.0578 38.9092 69.9828 38.8584 69.9343C38.8425 69.919 38.8282 69.9104 38.8196 69.9104C38.7829 69.9104 38.7014 70.0076 38.6228 70.1018C38.5573 70.1799 38.4757 70.2771 38.3716 70.383C38.2679 70.4895 38.1719 70.5729 38.0949 70.6404C38.0035 70.7202 37.9088 70.8029 37.9077 70.8401C37.9077 70.8489 37.917 70.8629 37.9337 70.8787C37.9674 70.9112 38.0124 70.9273 38.0672 70.9273C38.1508 70.9273 38.3321 70.886 38.6049 70.6071C38.8121 70.396 38.8812 70.2427 38.9023 70.1512H38.9022ZM38.9062 70.8955C38.7643 71.0406 38.6202 71.1437 38.5404 71.1964C38.597 71.2517 38.7579 71.3498 38.959 71.3498C39.0737 71.3498 39.1808 71.3172 39.2787 71.2528C39.4794 70.9337 39.2857 70.6074 39.1987 70.5244C39.1478 70.6051 39.0478 70.7509 38.9061 70.8954L38.9062 70.8955ZM36.7098 69.121C36.6064 69.2142 36.3676 69.8619 36.4717 70.2564C36.5166 70.4253 36.6134 70.4976 36.7771 70.4891C36.9464 70.4787 37.0387 70.3937 37.0673 70.2206C37.1323 69.8266 36.8224 69.2005 36.7097 69.1209L36.7098 69.121ZM36.579 67.3209C36.5849 67.3319 37.8043 68.3657 38.2135 68.7399C38.3099 68.8282 38.4429 68.8486 38.5779 68.7823C38.6548 68.7444 38.7508 68.7008 38.85 68.6569C40.0694 68.2417 42.0754 68.1948 42.8112 68.2262C43.2541 68.2449 43.4105 67.9918 43.3664 67.7877C43.2223 67.1213 43.1901 65.9261 43.771 65.115C43.1414 65.3175 42.5344 65.8588 42.5344 65.8588C42.3262 65.436 42.239 64.5072 42.282 64.0591C41.7088 64.2572 41.1981 64.7825 41.1981 64.7825C40.9735 64.2085 40.9034 63.1226 40.9741 62.5053C39.5491 62.9639 40.881 65.3813 39.1437 65.3047C39.6318 65.9854 40.2181 65.7087 40.7486 65.7087C41.1206 65.7087 41.5827 65.9434 41.5078 66.4796C41.4534 66.868 39.1226 67.3515 38.1851 67.3515C37.5299 67.3515 37.0911 67.1566 36.7623 66.7183C36.6041 66.5076 36.4427 66.4123 36.2621 66.439C36.0378 66.4723 35.7756 66.6933 35.7756 67.2049C35.7756 67.5673 35.9276 68.3618 36.3791 68.3618C36.6963 68.3618 36.7103 67.7339 36.579 67.3209V67.3209ZM38.0861 70.1096C38.299 69.8919 38.3734 69.7333 38.3209 69.6097C38.2448 69.4311 37.7607 68.9118 37.127 68.3259C37.1081 68.4469 37.0798 68.5664 37.0425 68.6834C37.4695 69.2271 37.6291 69.811 37.4852 70.3014C37.5372 70.3348 37.5695 70.35 37.5884 70.3571C37.7523 70.4199 37.957 70.2415 38.0861 70.1096H38.0861ZM35.0025 67.1525C34.9994 67.1556 34.9205 67.2305 34.8695 67.3314C35.0021 67.3322 35.1565 67.3541 35.2954 67.3902C35.2862 67.2717 35.2771 67.1113 35.2891 66.9728C35.1719 66.9982 35.046 67.1071 35.0025 67.1525ZM56.303 70.8875C56.7044 70.7114 56.9939 70.2338 57.0701 69.7667C56.8157 69.8866 56.5289 69.9451 56.1982 69.9451C55.2886 69.9451 54.1457 69.4591 53.11 69.0185C53.11 69.0185 52.8866 69.199 52.5165 69.2368C53.5616 69.5454 55.6154 70.6407 55.7664 71.3433C55.8672 71.8131 55.5485 71.9925 55.5485 71.9925C55.0916 71.276 53.9139 70.1636 52.3421 69.6071C52.3453 69.8689 52.293 70.0527 52.293 70.0527C52.293 70.0527 51.974 70.1281 51.2965 70.0152C51.8889 70.4901 53.445 72.1675 53.614 73.4404C53.7266 74.2901 53.1086 74.3294 53.1086 74.3294C53.0204 73.0513 52.3228 71.7288 51.0638 70.4008C51.0638 70.4008 50.8573 70.7119 50.5829 70.8688C50.5829 70.8688 50.118 70.7896 49.732 70.5443C49.8806 72.2306 49.9684 74.4211 49.8762 75.0841C49.8118 75.5458 49.5334 75.7393 49.5334 75.7393C49.5334 75.7393 49.254 75.5457 49.1896 75.0841C49.0975 74.4211 49.1851 72.2306 49.3338 70.5443C48.948 70.7896 48.4829 70.8688 48.4829 70.8688C48.2085 70.7119 48.0023 70.4009 48.0023 70.4009C46.743 71.7289 46.0454 73.0513 45.9573 74.3294C45.9573 74.3294 45.3393 74.2901 45.452 73.4404C45.6209 72.1676 47.1771 70.4901 47.7693 70.0152C47.0919 70.1282 46.7729 70.0528 46.7729 70.0528C46.7729 70.0528 46.7207 69.869 46.7239 69.6072C45.1522 70.1636 43.9746 71.276 43.5175 71.9926C43.5175 71.9926 43.1987 71.8131 43.2998 71.3433C43.4506 70.6408 45.5043 69.5455 46.5496 69.2368C46.1795 69.1991 45.956 69.0185 45.956 69.0185C44.9203 69.4592 43.7774 69.9451 42.8677 69.9451C42.5371 69.9451 42.2502 69.8866 41.996 69.7667C42.0721 70.2339 42.3617 70.7114 42.763 70.8876C41.3577 71.8377 42.2255 74.0642 40.3408 73.6456C41.3917 75.5205 43.5175 75.7088 43.5175 75.7088C43.0465 74.717 43.6337 71.6912 46.4549 70.3164C44.7183 71.98 43.927 73.9971 44.3878 75.42C44.8106 76.7262 46.1849 77.2555 47.2196 77.2782C46.4879 75.1187 46.9389 72.6455 48.4574 71.0886C47.8067 72.7961 46.8917 77.3535 49.5337 78.2277C52.1753 77.3535 51.2596 72.7961 50.6086 71.0886C52.1275 72.6454 52.5782 75.1187 51.8465 77.2782C52.8813 77.2555 54.2556 76.7262 54.6785 75.42C55.1392 73.9971 54.3479 71.98 52.6114 70.3164C55.4327 71.6912 56.0196 74.717 55.5486 75.7088C55.5486 75.7088 57.6745 75.5205 58.7254 73.6456C56.8407 74.0642 57.7085 71.8377 56.3031 70.8876L56.303 70.8875ZM49.7577 33.3252C49.7577 33.1914 49.6477 33.0824 49.5129 33.0824C49.3778 33.0824 49.2681 33.1914 49.2681 33.3252C49.2681 33.4594 49.3777 33.5685 49.5129 33.5685C49.6477 33.5685 49.7577 33.4594 49.7577 33.3252ZM50.9927 33.3252C50.9927 33.1914 50.8832 33.0824 50.748 33.0824C50.6131 33.0824 50.5034 33.1914 50.5034 33.3252C50.5034 33.4594 50.6131 33.5685 50.748 33.5685C50.8832 33.5685 50.9927 33.4594 50.9927 33.3252ZM49.0739 27.0214C49.0739 27.2719 49.2794 27.4765 49.532 27.4765C49.7849 27.4765 49.9904 27.2719 49.9904 27.0214C49.9904 26.7704 49.7849 26.566 49.532 26.566C49.2794 26.566 49.0739 26.7704 49.0739 27.0213V27.0214ZM49.2213 26.0542H49.8451L49.7777 25.3286L50.4553 25.3981V24.8243L49.7777 24.8935L49.8451 24.1683H49.2212L49.2884 24.8935L48.611 24.8243V25.3981L49.2884 25.3286L49.2212 26.0542H49.2213ZM48.5226 33.3252C48.5226 33.1913 48.4126 33.0824 48.2777 33.0824C48.1427 33.0824 48.0328 33.1913 48.0328 33.3252C48.0328 33.4593 48.1427 33.5684 48.2777 33.5684C48.4126 33.5684 48.5226 33.4593 48.5226 33.3252ZM47.0524 34.2256C47.1186 34.2485 47.1952 34.261 47.2857 34.261H51.7809C51.8715 34.261 51.948 34.2485 52.014 34.2256C52.1591 34.1755 52.2474 34.0706 52.2816 33.9029H46.7848C46.8189 34.0706 46.9072 34.1755 47.0524 34.2257V34.2256ZM47.2996 33.3252C47.2996 33.1913 47.1898 33.0824 47.0546 33.0824C46.9197 33.0824 46.8097 33.1913 46.8097 33.3252C46.8097 33.4593 46.9197 33.5684 47.0546 33.5684C47.1897 33.5684 47.2995 33.4593 47.2995 33.3252H47.2996ZM52.216 33.3252C52.216 33.1913 52.106 33.0824 51.9714 33.0824C51.8363 33.0824 51.7264 33.1913 51.7264 33.3252C51.7264 33.4593 51.8363 33.5684 51.9715 33.5684C52.1061 33.5684 52.216 33.4593 52.216 33.3252ZM52.5097 32.7491C52.6365 32.5977 53.2665 31.4246 53.2665 30.2403C53.2665 29.1745 51.8754 28.5878 51.0479 28.561C50.9521 30.0835 50.3362 32.4734 49.5335 32.4734C48.7738 32.4734 48.1136 30.0973 48.0189 28.5609C47.1914 28.5878 45.8004 29.1746 45.8004 30.2404C45.8004 31.4247 46.4302 32.5977 46.557 32.7491H52.5099H52.5097ZM49.5335 31.7173C49.9115 31.7173 50.4 30.201 50.5248 28.7659C50.5248 28.4754 50.1466 28.031 49.5336 28.0194C48.9202 28.031 48.542 28.4754 48.542 28.7659C48.6515 30.1042 49.1613 31.7173 49.5336 31.7173H49.5335ZM37.5161 39.457C36.7826 40.4284 37.797 41.4914 37.8596 41.5648C37.9037 41.6166 37.9415 41.5932 37.9347 41.5351C37.9294 41.4853 38.4626 39.9875 41.5324 40.7762C41.598 40.7931 41.6383 40.7944 41.5768 40.7331C41.0097 40.3003 40.3369 39.3302 40.1194 38.5499C40.1194 38.5499 38.2498 38.4858 37.5161 39.457ZM39.1618 39.2539C39.1618 38.9826 39.5718 38.9078 39.8074 38.9078C39.8074 38.9078 39.9108 39.1697 40.0147 39.3148C39.7755 39.2118 39.4433 39.2013 39.1618 39.2539ZM40.7912 37.9865C40.5871 37.9865 40.5108 38.1116 40.5774 38.3283C41.2828 40.6173 43.2057 41.1602 43.9648 42.1516C43.9648 42.1516 43.9594 41.8427 44.3117 41.1058C44.5513 41.4848 45.2005 42.1946 45.6225 42.2849C45.5217 42.0807 45.4017 41.2748 45.4952 40.7332C46.4916 41.5725 47.7201 41.7375 48.3793 41.2532C47.818 41.2739 47.0871 40.6724 46.7192 40.1389C47.2329 40.2532 47.94 40.1353 48.0857 39.9933C47.7613 39.917 47.3678 39.64 47.1308 39.3766C47.4953 39.3522 48.2861 39.0646 48.5122 38.6592C48.1951 38.7286 47.725 38.6038 47.4188 38.4479C47.652 38.3265 48.2339 37.726 48.3735 37.1989C47.5471 37.5891 46.2433 37.9772 44.3118 37.9772C44.3118 37.9772 40.8989 37.9864 40.7912 37.9864L40.7912 37.9865ZM42.9234 39.03C42.3773 39.2383 42.1037 39.5195 42.1037 39.5195C42.1037 39.5195 41.8417 39.1053 41.758 38.9722C41.6744 38.8392 41.6482 38.6761 41.9304 38.6761H43.6232C43.6232 38.7873 43.4694 38.8216 42.9233 39.03H42.9234ZM37.1447 42.7546C37.3213 42.9802 37.8213 43.6693 38.918 43.0532C40.0144 42.437 40.5799 42.1016 40.5799 42.1016C40.5799 42.1016 40.4086 42.4196 40.5386 42.8008C40.5462 42.8227 40.5719 42.8218 40.5819 42.7991C40.6911 42.5523 41.6434 41.8384 42.8578 41.7396C42.4127 41.3649 41.9241 41.031 41.9241 41.031C41.4053 41.1117 40.3996 41.4532 39.0986 42.2666C37.7976 43.0799 37.1982 42.7403 37.1733 42.725C37.1485 42.7097 37.1133 42.7145 37.1446 42.7546H37.1447ZM52.6844 68.7234C52.8717 68.6659 53.0285 68.5739 53.1091 68.4707C52.2689 68.4356 51.5752 67.7373 51.3212 67.3064C51.0421 67.751 50.5438 68.0983 50.5438 68.0983C50.189 68.0082 49.7041 67.6361 49.5333 67.3515C49.3627 67.6361 48.8778 68.0082 48.5229 68.0983C48.5229 68.0983 48.0246 67.751 47.7454 67.3064C47.4915 67.7374 46.7979 68.4356 45.9575 68.4707C46.0383 68.5739 46.195 68.6659 46.3824 68.7234C46.5078 68.7621 46.6466 68.786 46.7864 68.786C46.9344 68.786 47.083 68.7601 47.2163 68.7C47.1323 68.9936 47.1044 69.356 47.1659 69.6045C47.1659 69.6045 47.6128 69.6384 48.0742 69.4707C48.1073 69.739 48.2346 70.064 48.4435 70.2838C48.4845 70.3267 48.5273 70.3672 48.5746 70.4008C48.8224 70.4008 49.4206 70.1229 49.5334 69.9517C49.646 70.1229 50.2443 70.4008 50.4922 70.4008C50.5392 70.3672 50.5822 70.3266 50.6233 70.2836C50.832 70.064 50.9593 69.739 50.9925 69.4705C51.2001 69.5709 51.4411 69.6109 51.7079 69.6109C51.7722 69.6109 51.8365 69.6086 51.9006 69.6045C51.9623 69.356 51.9343 68.9935 51.8502 68.7C51.9837 68.7601 52.1323 68.786 52.2802 68.786C52.4203 68.786 52.5589 68.7621 52.6843 68.7234H52.6844ZM44.2978 51.478C44.1331 51.478 44.0312 51.5792 44.0312 51.742V61.6295C44.0312 62.5722 44.4172 63.0505 45.1785 63.0505L47.0832 63.0576C48.3883 63.0576 49.1583 63.4899 49.5333 64.0258C49.8522 63.5261 50.7485 63.0576 51.9835 63.0576L53.8877 63.0505C54.6492 63.0505 55.0352 62.5722 55.0352 61.6295V51.742C55.0352 51.5792 54.933 51.478 54.7688 51.478H44.2977H44.2978ZM46.1582 60.7286C46.1399 60.9473 46.4041 61.3453 46.8403 61.2208C46.8271 61.3016 46.8516 61.5224 46.9491 61.688C46.1764 61.8565 45.8432 61.2449 46.1582 60.7286ZM53.1633 57.4554C53.0569 57.3468 52.9521 57.2369 52.8486 57.1258C52.7384 57.0079 52.6598 56.9621 52.5474 56.9621C52.2945 56.9621 52.0239 57.0954 51.8792 57.1876C51.8697 57.1914 51.8623 57.2004 51.8588 57.2244C52.0125 57.2112 52.1667 57.2004 52.32 57.1837C52.4546 57.1687 52.5803 57.1739 52.6963 57.2571C52.7876 57.3222 52.8391 57.4028 52.844 57.5081C52.8586 57.8447 53.1378 58.553 53.1551 58.7656C53.1768 58.8492 53.0723 58.8736 52.9277 59.2645C52.8208 59.3795 52.532 59.0147 52.5738 58.9292C52.7421 58.718 52.7885 58.5864 52.7458 58.4291C52.7116 58.3025 52.6476 58.0766 52.6 57.9541C52.5366 57.7907 52.3937 57.7294 52.2163 57.7881C51.5197 58.0105 51.4124 57.714 50.7221 57.9928L51.5171 59.1768C51.5142 59.0911 51.4715 58.9362 51.3429 58.8248C51.366 58.7053 51.6168 58.6558 51.7105 58.7678C51.8256 58.9097 52.0499 59.112 52.2345 59.1445C52.5892 59.2076 52.5624 59.7259 53.5104 59.8994C53.3925 60.017 53.1296 59.9771 53.015 59.9239C53.0843 60.0267 53.1638 60.1238 53.3066 60.1588C53.1597 60.3008 52.738 59.9681 52.7811 60.3029C52.8541 60.2623 52.9551 60.2556 53.0405 60.2764C53.2297 60.3218 53.54 61.3566 52.8864 61.8089C53.0255 61.8491 53.1751 61.7783 53.3163 61.7783C53.399 61.7783 53.4763 61.8555 53.4845 61.9417C53.5455 61.9868 53.5856 62.0421 53.6211 62.1129C53.5719 62.1285 53.4768 62.1141 53.4241 62.0803C53.4454 62.1377 53.4403 62.2757 53.4181 62.2784C53.359 62.2861 53.3135 62.2534 53.253 62.2187C53.1689 62.2602 52.8924 62.2432 52.814 62.1758C52.6054 62.2248 52.3993 62.2903 52.1818 62.2903C52.0643 62.2903 51.9097 62.2831 51.9152 62.145C51.9179 62.0777 51.9526 62.043 51.9798 61.9693C51.8797 61.8703 51.7129 61.9663 51.514 61.9847C51.2444 62.0096 51.1332 61.9693 51.0748 61.9165C51.3293 61.6896 51.1756 61.1367 50.7825 61.0878C51.1059 61.3862 51.0637 61.869 50.7016 61.9773C50.8062 62.01 50.858 62.0554 50.898 62.1271C51.0254 62.178 51.0272 62.2668 51.0177 62.3065C50.948 62.259 50.8226 62.212 50.7225 62.2248C50.7153 62.2669 50.6971 62.3456 50.6594 62.3761C50.6161 62.367 50.5597 62.3288 50.5378 62.2985C50.4222 62.2131 49.7018 62.3761 49.6581 62.2621C49.6305 62.1561 49.8227 62.067 50.0001 62.0294C49.5439 61.8681 49.1481 61.0407 48.4457 60.9006C48.1199 60.8359 47.6785 60.9768 47.6785 61.3851C47.6785 61.5856 47.8459 61.74 48.027 61.74C48.1935 61.74 48.2769 61.629 48.2769 61.5166C48.2501 61.5362 48.2334 61.5483 48.2171 61.5612C48.1152 61.6418 47.9853 61.6366 47.8913 61.5484C47.8086 61.4707 47.8086 61.3357 47.8889 61.2444C47.9549 61.1684 48.0342 61.1257 48.1402 61.1106C48.4152 61.072 48.6401 61.1565 48.7916 61.3691C48.8638 61.4706 48.9037 61.579 48.9037 61.6842C48.9037 62.1544 48.4147 62.2612 48.1442 62.2612C47.4629 62.2612 47.0614 61.7913 47.0614 61.2478C47.0614 61.1844 47.0646 61.1202 47.0759 61.0555C47.1825 60.4436 47.7496 60.1878 48.2404 60.1113C48.1778 59.8984 48.0569 59.7263 47.8834 59.5858C47.7971 59.5159 47.7883 59.4588 47.8427 59.3697C47.9168 59.2478 47.9947 59.1279 48.0274 58.9907C48.0348 58.9599 48.0383 58.9273 48.0407 58.8938C47.7963 59.1047 47.4547 59.2981 46.9821 59.4361C46.833 59.5025 46.7542 59.6333 46.7353 59.7837C46.7137 59.9583 46.7087 60.1354 46.7055 60.3116C46.7046 60.3522 46.7351 60.3964 46.7583 60.4353C46.8462 60.5807 46.9434 60.7222 46.9651 60.9035C46.9651 60.9913 46.5062 61.0004 46.5062 60.9301C46.5019 60.6112 46.2809 60.4873 46.3047 60.2768C46.3657 59.9493 46.3793 59.6217 46.3237 59.2926C46.3097 59.2098 46.3554 59.1553 46.4167 59.1111C46.5142 59.0396 46.6178 58.9756 46.7151 58.9046C46.9448 58.7355 47.0398 58.5153 46.9858 58.2421C46.9789 58.2065 46.9626 58.1723 46.9466 58.1389C46.8323 57.8959 46.7487 57.6497 46.7487 57.3758C46.7487 57.0752 46.3621 57.0924 46.3874 57.3877C46.3953 57.4799 46.4668 57.609 46.507 57.6976C46.9034 58.5762 46.1906 59.2089 45.4533 59.2084C46.2283 58.9499 45.2721 57.9943 45.2721 57.2814C45.2721 56.8442 45.6229 56.521 46.0415 56.521C46.5243 56.521 46.8303 56.8206 46.918 56.872C47.1515 56.5154 47.8667 56.451 48.1351 56.4099C48.1146 56.2178 48.1427 56.0471 48.265 55.8998C48.273 55.8898 48.278 55.8713 48.2737 55.8607C48.2356 55.7699 48.1949 55.6802 48.1422 55.5923C47.922 55.8316 47.8692 56.1489 47.8692 56.313C47.054 56.3015 46.6944 55.9577 46.4534 55.8222C46.4543 55.7624 46.6712 55.3864 46.8636 55.1383C46.6527 55.3124 46.4794 55.5083 46.3521 55.7433C46.2356 55.6622 46.113 55.5889 45.9932 55.5409C46.1769 55.1619 46.4204 54.8669 46.7307 54.5587C46.2938 54.7139 45.9136 55.1896 45.7694 55.4885C45.6448 55.4748 45.4606 55.4702 45.3577 55.4894C45.8339 54.9287 46.0515 53.8239 47.0985 53.576C46.8363 54.6006 47.4884 55.017 47.9373 54.7496C47.8789 54.7496 47.8389 54.7585 47.8012 54.7496C46.9258 54.5358 47.4446 53.3682 47.2326 53.1251C47.152 53.033 47.1105 52.9485 47.1236 52.8318C47.1283 52.7908 47.1157 52.7432 47.0962 52.7054L46.6305 51.9569C46.5719 51.8627 46.7532 51.7956 46.7923 51.8389L47.2671 52.5875C47.2794 52.6062 47.2945 52.6337 47.3122 52.6368C47.4858 52.6662 47.5395 52.8048 47.6097 52.9273C47.632 52.9669 47.6495 53.0123 47.6536 53.057C47.6569 53.0911 47.6472 53.1387 47.6236 53.162C47.5481 53.2355 47.5627 53.3079 47.6211 53.4034C47.7148 53.5564 50.5276 58.0633 50.5276 58.0633C49.9168 58.3039 48.8116 58.3234 48.4914 58.2935C48.425 58.45 48.3212 58.615 48.1677 58.7741C48.321 58.678 48.4395 58.5562 48.549 58.4238C48.6726 58.4375 48.8579 58.4852 49.0473 58.4985C48.9353 58.729 48.767 58.9585 48.5508 59.1505C48.4492 59.2469 48.3233 59.3322 48.3696 59.4866C48.4218 59.6602 48.7577 59.9912 48.8802 60.206C49.0017 60.2307 49.207 60.2723 49.3575 60.3303C49.4434 60.5078 49.7338 60.7307 50.0838 60.6153C49.38 60.6068 49.4319 59.9131 49.6507 59.5462C49.627 59.887 49.798 60.1699 50.0147 60.2021C49.6899 59.9169 49.7224 59.2692 50.0388 58.9138C50.0837 59.4908 50.2657 59.794 50.5259 59.8626C50.182 59.5581 49.9755 58.8539 50.4949 58.3407C50.535 59.6576 51.7885 59.4201 51.9024 60.9446C52.3667 60.9446 52.3931 60.3431 52.1343 60.2326C51.9832 60.1782 51.8468 60.0825 51.7695 59.9522C51.7373 59.8974 51.7039 59.7997 51.6776 59.7422C51.5396 59.3505 51.15 59.3753 51.1595 59.2813C51.1687 59.2496 51.2301 59.235 51.3161 59.235L50.5819 58.1439L50.5436 58.0869C50.6321 58.0696 50.6518 58.02 50.5609 57.8821C50.5609 57.8821 47.8058 53.4749 47.7926 53.4497C48.0488 53.4069 48.2948 53.4737 48.5344 53.5629C48.4705 53.5058 48.4184 53.4261 48.4072 53.3439C48.398 53.2778 48.4005 53.2391 48.4559 53.1972C48.5145 53.1513 48.5707 53.0981 48.6118 53.0381C48.7485 52.838 48.9999 52.7402 49.2283 52.8028C49.5729 52.897 49.6948 53.2719 49.4415 53.469C49.3066 53.7549 49.1395 53.7189 49.1051 53.8471C49.1727 53.8771 49.644 54.2274 49.6754 54.3748C49.535 54.656 49.4652 55.0958 49.5871 55.3411C49.6782 54.172 50.41 53.6001 51.1228 53.6001C51.292 53.6001 51.4603 53.6285 51.6291 53.6837C51.7214 53.7137 51.8137 53.757 51.8906 53.8132C52.002 53.8951 52.1056 53.9866 52.2 54.0863C52.3391 54.2333 52.4665 54.3903 52.7032 54.4004C52.6339 54.4953 52.5552 54.5647 52.4746 54.6328C52.4165 54.6829 52.3873 54.7431 52.3801 54.8185C52.3636 54.9809 52.3082 55.1297 52.184 55.2492C52.1673 55.2654 52.1545 55.2849 52.1463 55.3063C52.0671 55.5271 51.987 55.747 51.9126 55.9691C51.8941 56.0232 51.8983 56.0977 51.8223 56.0968C51.7564 56.096 51.6768 56.0775 51.6277 56.0389C51.5232 55.9576 51.4858 55.8391 51.5232 55.714C51.5604 55.5896 51.5232 55.4829 51.4822 55.3671C51.4403 55.2514 51.4256 55.1262 51.3975 54.9942C51.2028 54.9286 50.8375 55.3308 51.1164 55.6677C51.2975 55.9162 51.4603 56.3738 51.4885 56.561C51.4944 56.5794 51.3237 56.6828 51.0886 56.6541C50.294 56.5563 49.7914 56.0257 49.6388 55.5781C49.6263 56.3363 50.2807 56.8985 51.2506 56.8441C51.2901 57.0207 51.4402 57.1407 51.6149 57.1462C51.6512 57.0322 51.6505 56.7929 51.6208 56.6408C51.6076 56.5739 51.6441 56.5396 51.7085 56.5237C51.9206 56.4719 52.1966 56.492 52.4328 56.411C52.6421 56.3386 52.7412 56.381 52.8714 56.6246C52.97 56.8084 53.1387 57.0061 53.2979 57.1425C53.3648 57.1994 53.4317 57.2573 53.4948 57.3182C53.5754 57.3957 53.6173 57.487 53.6235 57.5998C53.6028 57.7764 53.6272 58.1322 53.6272 58.1378C53.5812 58.2545 53.246 58.1309 53.1919 58.0057C53.1714 57.959 53.3353 57.6311 53.1633 57.4553V57.4554ZM58.9473 38.5499C58.7299 39.3302 58.0571 40.3003 57.4901 40.7331C57.4284 40.7943 57.4688 40.7931 57.5344 40.7762C60.6041 39.9875 61.1374 41.4852 61.1319 41.5351C61.1254 41.5933 61.1631 41.6167 61.2071 41.5649C61.2698 41.4914 62.2843 40.4284 61.5507 39.4571C60.817 38.4858 58.9473 38.5499 58.9473 38.5499ZM59.0522 39.3148C59.1558 39.1697 59.2596 38.9078 59.2596 38.9078C59.495 38.9078 59.9049 38.9826 59.9049 39.2539C59.6234 39.2013 59.2913 39.2118 59.0522 39.3148ZM61.9221 42.7546C61.9535 42.7145 61.9181 42.7097 61.8933 42.725C61.8684 42.7403 61.2691 43.0799 59.9681 42.2666C58.667 41.4532 57.6614 41.1116 57.1426 41.031C57.1426 41.031 56.6541 41.3649 56.2087 41.7396C57.4232 41.8384 58.3757 42.5523 58.4848 42.7991C58.4949 42.8218 58.5204 42.8227 58.528 42.8008C58.6581 42.4196 58.4867 42.1016 58.4867 42.1016C58.4867 42.1016 59.0522 42.437 60.1487 43.0531C61.2454 43.6693 61.7453 42.9802 61.922 42.7545L61.9221 42.7546ZM51.6478 38.4479C51.3418 38.6039 50.8717 38.7286 50.5545 38.6593C50.7807 39.0647 51.5715 39.3523 51.9358 39.3766C51.699 39.64 51.3053 39.917 50.981 39.9933C51.1268 40.1353 51.8338 40.2531 52.3476 40.1389C51.9795 40.6724 51.2488 41.2739 50.6874 41.2532C51.3468 41.7375 52.5753 41.5725 53.5717 40.7332C53.665 41.2748 53.5452 42.0807 53.4443 42.285C53.8662 42.1946 54.5155 41.4848 54.7552 41.1058C55.1073 41.8428 55.102 42.1517 55.102 42.1517C55.8613 41.1602 57.7841 40.6174 58.4895 38.3284C58.5561 38.1116 58.4797 37.9865 58.2756 37.9865C58.1678 37.9865 54.7551 37.9773 54.7551 37.9773C52.8234 37.9773 51.5196 37.5891 50.6933 37.199C50.8329 37.726 51.4147 38.3266 51.6481 38.4479H51.6478ZM57.1363 38.6761C57.4185 38.6761 57.3923 38.8392 57.3086 38.9723C57.225 39.1053 56.9629 39.5195 56.9629 39.5195C56.9629 39.5195 56.6893 39.2383 56.1434 39.0299C55.5973 38.8216 55.4435 38.7873 55.4435 38.6761H57.1363ZM44.5064 42.1047C44.3964 42.4043 44.3639 42.7347 44.4224 43.1645C44.7774 43.9053 44.949 45.2809 44.8395 46.0499C45.4049 45.2919 45.6559 44.4396 45.8178 43.7576C46.1419 44.0763 46.5626 44.5325 46.8561 44.9021C46.9065 44.5019 46.996 44.0075 47.0743 43.6504C47.4966 44.038 48.373 44.5246 48.9657 44.6972C48.5668 43.0797 47.8841 42.0486 47.8841 42.0486C47.3047 42.1046 46.3716 41.969 45.9521 41.5725C46.027 42.1585 46.4466 42.8323 46.4466 42.8323C45.5476 42.9166 44.9109 42.6217 44.5064 42.1047ZM54.5602 42.1047C54.1558 42.6218 53.5191 42.9166 52.6201 42.8323C52.6201 42.8323 53.0396 42.1585 53.1145 41.5726C52.695 41.9692 51.7621 42.1047 51.1826 42.0486C51.1826 42.0486 50.5001 43.0797 50.1008 44.6972C50.6938 44.5246 51.57 44.0379 51.9923 43.6503C52.0708 44.0074 52.16 44.5018 52.2104 44.9021C52.504 44.5326 52.9245 44.0762 53.249 43.7575C53.4107 44.4395 53.6618 45.2919 54.2272 46.0499C54.1176 45.2809 54.2894 43.9052 54.6441 43.1644C54.7027 42.7346 54.6702 42.4042 54.5602 42.1046L54.5602 42.1047ZM46.8276 47.201C47.1668 47.725 47.4688 48.3552 47.5734 48.9165C47.8986 48.5384 48.2421 47.881 48.4748 47.0958C48.7602 47.4386 49.2587 48.1368 49.5333 48.7127C49.8078 48.1368 50.3064 47.4386 50.5916 47.0958C50.8246 47.881 51.1681 48.5384 51.4933 48.9165C51.5979 48.3552 51.8997 47.725 52.2389 47.201C52.497 48.2209 53.4922 49.213 54.5192 49.2877C53.8512 48.4541 53.8236 47.0132 53.8708 46.5334C53.4259 45.8686 53.133 45.269 52.9927 44.8614C52.691 45.1481 52.2243 45.7053 51.8054 46.3494C51.8054 46.3416 51.7934 45.5418 51.6264 44.5707C51.1946 44.9457 50.4128 45.2172 49.9949 45.3226C49.7311 45.736 49.6588 46.0583 49.5333 46.5772C49.4079 46.0583 49.3354 45.736 49.0718 45.3226C48.6537 45.2172 47.872 44.9457 47.4401 44.5708C47.2732 45.5418 47.261 46.3416 47.261 46.3494C46.8421 45.7053 46.3756 45.1481 46.0737 44.8614C45.9336 45.269 45.6406 45.8686 45.1956 46.5335C45.2431 47.0134 45.2153 48.4542 44.5471 49.2877C45.5744 49.2131 46.5696 48.221 46.8275 47.201L46.8276 47.201ZM37.5215 59.2633C38.098 58.9019 38.4628 58.2453 38.878 57.4422C38.6363 57.5383 38.2859 57.6424 37.9349 57.7125C37.5925 58.3491 37.1074 58.1021 37.0948 58.0118C37.1996 57.9001 37.3193 57.7352 37.4093 57.5915C37.2633 57.3291 37.0875 56.9381 36.9905 56.6963C36.5006 57.6877 35.6005 58.6946 34.8469 59.0876C35.2903 59.6799 36.6647 59.8005 37.5214 59.2633H37.5215ZM39.3032 57.5926C38.8943 58.4217 38.9905 59.6996 40.2921 59.7358C40.1841 58.8309 40.6083 57.9797 41.0617 57.5926C40.6717 57.685 40.0368 58.1767 40.0368 58.1767C40.0368 58.1767 39.9412 58.3873 39.922 58.66C39.6495 58.7068 39.4989 58.505 39.612 58.0843C39.612 58.0843 39.4151 57.868 39.3032 57.5926V57.5926ZM32.8598 58.5394C33.0517 58.5392 33.2428 58.5167 33.429 58.4725C34.686 58.174 35.8829 57.1412 36.5943 56.274C36.188 56.3977 35.7774 56.478 35.3224 56.5223C35.3224 56.5223 35.0037 56.8805 34.7584 57.013C34.634 57.0806 34.5098 57.113 34.3921 57.113C34.0365 57.113 33.8855 56.8328 33.8855 56.8328C33.8855 56.8328 34.459 56.5686 34.824 56.1934C34.7517 55.917 34.7057 55.5339 34.6974 55.152C33.7076 56.1073 31.8474 57.0356 30.5481 57.2157C30.8053 57.7302 31.7177 58.5394 32.8598 58.5394H32.8598ZM30.3434 56.5129C30.4086 56.5129 30.4738 56.5099 30.5387 56.5039C31.8304 56.3811 33.3895 55.5861 34.3934 54.8981C34.0738 54.9604 33.2336 54.9785 32.8349 54.9251C32.697 55.0138 32.0891 55.3831 31.5832 55.4448C30.6606 55.5571 30.563 55.0085 30.563 55.0085C31.1557 54.939 31.8391 54.7467 32.4923 54.4544C32.5578 53.9818 32.6716 53.5605 32.769 53.2499C31.3449 54.012 29.0215 54.5481 27.6433 54.5658C27.9191 55.1951 28.9883 56.5129 30.3434 56.5129ZM30.5465 52.0418C30.745 51.7044 31.0593 51.3055 31.3453 50.9801C30.2083 51.2811 28.7446 51.344 27.9687 51.344C27.0539 51.344 26.165 51.282 25.6551 51.1836C25.7003 52.0666 26.5745 53.59 28.2993 53.7387C28.3893 53.7466 28.4888 53.7505 28.5952 53.7505C29.6712 53.7505 31.3825 53.3321 32.56 52.9306C31.7204 52.8268 30.9095 52.6353 30.7245 52.5608C30.2866 52.6815 29.2406 52.8502 28.9009 52.8321C28.1298 52.7914 28.0472 52.2225 28.0472 52.2225C28.0472 52.2225 29.435 52.2789 30.5464 52.0418H30.5465ZM26.4061 50.4236C27.0469 50.6226 28.0688 50.7367 29.21 50.7367C29.9062 50.7367 30.6407 50.6768 31.238 50.5952C30.5928 50.3842 29.7967 50.065 29.2792 49.7489C28.6325 49.7365 27.7547 49.7188 27.191 49.553C26.3621 49.3092 26.3738 48.7643 26.3885 48.642C27.1053 48.919 28.3244 49.1839 29.2255 49.2355C29.5577 48.9279 30.0709 48.5615 30.6123 48.2424C28.474 48.2604 25.7442 47.4466 24.2104 46.6664C23.8597 49.4085 25.7975 50.2344 26.4061 50.4236V50.4236ZM31.1066 44.7377C30.7766 44.1293 30.4548 43.3108 30.4124 42.6054C29.4123 41.8502 28.2707 40.8894 27.6102 39.7911C27.2285 39.1562 27.3694 38.5999 27.6397 38.4084C27.8459 39.098 29.1888 41.0294 30.4062 41.9978C30.4158 41.3789 30.5241 40.667 30.6921 40.1316C29.2767 38.6513 27.6902 36.1996 27.3069 35.2391C26.8762 35.582 26.1337 36.4444 25.9512 37.6596C25.7674 38.8828 26.1801 40.1393 27.1778 41.3946C27.945 42.3601 29.634 43.7997 31.1066 44.7377ZM30.6998 47.8484C29.7268 47.2284 29.0524 46.6532 28.6929 46.1365C27.8798 45.8326 26.8285 45.3687 26.3107 44.9506C25.5991 44.3768 25.8243 43.8603 25.9073 43.7571C26.5338 44.3719 27.8907 45.258 28.8544 45.6523C29.456 45.4269 30.2921 45.2618 31.1065 45.1655C28.6926 44.2489 26.1014 42.5283 24.7473 40.9063C24.4727 41.4187 23.3573 43.829 25.4485 45.8054C26.5498 46.8466 28.8183 47.5649 30.6997 47.8485L30.6998 47.8484ZM62.0762 56.6964C61.9791 56.9382 61.8032 57.3291 61.6572 57.5916C61.7471 57.7352 61.8671 57.9001 61.9718 58.0118C61.9591 58.1022 61.4742 58.3491 61.1318 57.7125C60.7807 57.6425 60.4304 57.5383 60.1886 57.4422C60.6039 58.2454 60.9686 58.9019 61.5451 59.2633C62.4019 59.8006 63.7763 59.68 64.2197 59.0876C63.466 58.6946 62.566 57.6877 62.0761 56.6963L62.0762 56.6964ZM59.7635 57.5926C59.6515 57.868 59.4546 58.0843 59.4546 58.0843C59.5677 58.505 59.4172 58.7068 59.1445 58.6599C59.1254 58.3873 59.0297 58.1766 59.0297 58.1766C59.0297 58.1766 58.3948 57.685 58.0048 57.5926C58.4582 57.9797 58.8825 58.8309 58.7746 59.7358C60.0761 59.6996 60.1724 58.4217 59.7635 57.5926ZM64.2428 56.1935C64.6076 56.5686 65.181 56.8328 65.181 56.8328C65.181 56.8328 65.0301 57.1131 64.6747 57.1131C64.5568 57.1131 64.4326 57.0807 64.308 57.013C64.0629 56.8805 63.7442 56.5223 63.7442 56.5223C63.2891 56.478 62.8786 56.3978 62.4721 56.2741C63.1837 57.1412 64.3806 58.1741 65.6374 58.4725C65.8237 58.5167 66.0149 58.5392 66.2068 58.5394C67.3488 58.5394 68.2614 57.7302 68.5185 57.2158C67.2192 57.0356 65.3589 56.1074 64.3693 55.152C64.3608 55.5339 64.3148 55.917 64.2428 56.1935ZM66.5742 54.4545C67.2275 54.7467 67.9109 54.9391 68.5038 55.0086C68.5038 55.0086 68.4061 55.5572 67.4833 55.4448C66.9776 55.3831 66.3695 55.0138 66.2317 54.9251C65.8331 54.9785 64.9926 54.9604 64.6731 54.8981C65.6772 55.5861 67.2362 56.3811 68.5279 56.5039C68.5928 56.5099 68.658 56.5129 68.7233 56.5129C70.0784 56.5129 71.1475 55.1951 71.4233 54.5658C70.045 54.5481 67.7218 54.012 66.2977 53.25C66.395 53.5606 66.5087 53.9818 66.5742 54.4544V54.4545ZM67.7212 50.9801C68.0073 51.3055 68.3215 51.7044 68.52 52.0418C69.6315 52.2789 71.0191 52.2225 71.0191 52.2225C71.0191 52.2225 70.9367 52.7914 70.1658 52.832C69.8259 52.85 68.7799 52.6815 68.3421 52.5607C68.1569 52.6352 67.3462 52.8267 66.5066 52.9306C67.684 53.3321 69.3956 53.7505 70.4715 53.7505C70.578 53.7505 70.6775 53.7467 70.7673 53.7387C72.4921 53.5901 73.3663 52.0667 73.4116 51.1837C72.9018 51.282 72.0127 51.344 71.0979 51.344C70.3223 51.344 68.8583 51.2811 67.7213 50.9801H67.7212ZM74.8563 46.6664C73.3225 47.4467 70.5927 48.2605 68.4543 48.2425C68.9957 48.5615 69.5088 48.928 69.841 49.2356C70.7421 49.1839 71.9613 48.919 72.6778 48.6421C72.6926 48.7643 72.7045 49.3093 71.8755 49.5531C71.3118 49.7189 70.434 49.7365 69.7873 49.749C69.2699 50.0651 68.4737 50.3842 67.8285 50.5952C68.4259 50.6768 69.1603 50.7367 69.8567 50.7367C70.9978 50.7367 72.0197 50.6227 72.6604 50.4236C73.2689 50.2344 75.2069 49.4085 74.8563 46.6664ZM71.4269 38.4084C71.6973 38.5999 71.8382 39.1563 71.4564 39.7912C70.7958 40.8894 69.6544 41.8502 68.6543 42.6054C68.6118 43.3109 68.2899 44.1293 67.9599 44.7377C69.4325 43.7997 71.1217 42.3601 71.8887 41.3947C72.8864 40.1394 73.2991 38.8829 73.1153 37.6597C72.9328 36.4444 72.1904 35.582 71.7595 35.2391C71.3764 36.1996 69.7898 38.6514 68.3744 40.1316C68.5424 40.667 68.6509 41.3789 68.6604 41.9978C69.8776 41.0294 71.2207 39.0981 71.4269 38.4084ZM70.2122 45.6523C71.176 45.2581 72.5328 44.3719 73.1592 43.7571C73.2421 43.8603 73.4674 44.3769 72.7559 44.9507C72.2379 45.3688 71.1866 45.8326 70.3738 46.1366C70.0142 46.6532 69.3398 47.2285 68.3668 47.8485C70.248 47.565 72.5168 46.8466 73.6183 45.8055C75.7093 43.8291 74.5938 41.4187 74.3193 40.9064C72.9652 42.5284 70.374 44.249 67.9599 45.1656C68.7746 45.2619 69.6106 45.427 70.2122 45.6524V45.6523ZM64.5874 42.8776C63.8034 44.6264 61.8158 46.1857 60.53 46.9664C59.9434 47.3224 60.1575 47.9975 60.3451 48.2971C62.0966 51.0953 58.9115 53.1807 56.0345 51.794C56.6623 51.8006 57.296 51.2876 57.3838 50.8305C57.1843 50.9962 56.3674 50.9052 56.1259 50.6906C56.4965 50.5042 56.5846 50.3152 56.6038 50.1384C56.1455 50.409 55.2191 50.4462 54.9461 49.9892C53.4261 49.9498 52.415 48.809 52.3031 48.4798C52.1904 48.83 52.0084 49.4421 51.9487 50.046C51.5364 49.7775 50.8323 49.1701 50.4653 48.3464C50.0499 48.9169 49.7367 49.5595 49.5332 50.2366C49.3299 49.5595 49.0168 48.9169 48.6012 48.3464C48.2341 49.1701 47.5301 49.7776 47.118 50.046C47.058 49.4421 46.8763 48.8301 46.7635 48.4799C46.6517 48.8091 45.6405 49.95 44.1205 49.9894C43.8475 50.4463 42.9212 50.4091 42.4628 50.1385C42.4818 50.3154 42.5701 50.5042 42.9406 50.6907C42.6992 50.9053 41.8823 50.9963 41.6827 50.8306C41.7704 51.2877 42.4043 51.8006 43.032 51.794C40.155 53.1807 36.9698 51.0954 38.7215 48.2973C38.9092 47.9976 39.1232 47.3224 38.5366 46.9664C37.2509 46.1856 35.2632 44.6264 34.4791 42.8775C34.3861 43.5907 34.4571 45.3605 35.2534 46.4617C34.6716 46.6757 33.9254 47.0229 33.4238 47.3449C33.741 47.6917 34.4797 48.2908 34.9761 48.6164C34.571 48.963 33.942 49.6264 33.6119 50.0609C34.0301 50.3001 34.8728 50.5906 35.5168 50.7865C35.219 51.2589 34.7613 52.1112 34.6463 52.6184C35.3674 52.7192 36.1034 52.7099 36.753 52.6903C36.6701 53.2817 36.7246 54.0243 36.7897 54.5653C37.4589 54.4728 38.195 54.2116 38.6834 53.9642C38.7761 54.3723 39.0314 55.1257 39.2604 55.5289C39.8952 54.9493 40.7326 54.684 41.5077 54.8376C43.0949 55.1521 43.5667 56.6965 43.5667 56.6965L43.5691 51.9986V51.4741C43.5691 51.1812 43.7329 51.0263 44.0268 51.0264H55.0399C55.3339 51.0263 55.4976 51.1813 55.4976 51.4741V51.9985L55.5 56.6963C55.5 56.6963 55.9718 55.152 57.5589 54.8375C58.3342 54.6839 59.1716 54.9491 59.8065 55.5288C60.0355 55.1256 60.2907 54.3723 60.3834 53.9641C60.8717 54.2115 61.6079 54.4727 62.2771 54.5652C62.3421 54.0242 62.3965 53.2817 62.3138 52.6903C62.956 52.7543 63.6946 52.7543 64.4204 52.6183C64.3055 52.1112 63.8477 51.259 63.5499 50.7866C64.2197 50.6137 65.0365 50.3002 65.4549 50.0609C65.125 49.6265 64.4959 48.963 64.0908 48.6165C64.5869 48.2908 65.3256 47.6917 65.6431 47.345C65.1414 47.0229 64.3951 46.6757 63.8133 46.4617C64.6096 45.3605 64.6808 43.5907 64.5875 42.8776H64.5874ZM44.5714 37.3781L44.506 37.543C46.4302 37.543 48.28 36.9096 48.7736 34.704H47.2997C47.0381 36.293 46.0672 37.3781 44.5714 37.3781ZM36.2522 33.7897C36.2522 33.7897 37.3047 34.0243 37.7166 35.4492C38.1286 36.8741 39.1638 37.5556 40.2259 37.5556L40.1605 37.3614C39.5425 37.2874 38.6712 36.4407 38.5082 34.8726C38.3439 33.294 37.9413 33.0906 37.9413 33.0906C37.5255 32.8139 36.4801 33.5447 36.252 33.7897H36.2522ZM33.1733 34.4271C34.0512 34.3994 34.642 34.668 35.7455 33.7011C37.048 32.5592 37.6664 32.7543 37.6664 32.7543C37.0017 32.3383 36.0747 32.1535 35.7564 32.3937C35.438 32.6342 35.0071 33.2791 34.2828 33.7384C33.2622 34.3855 32.214 34.2147 32.1671 34.8179H32.1955C32.1955 34.8179 32.2955 34.455 33.1732 34.4271H33.1733ZM33.9831 38.2123C34.5168 38.7185 34.5658 39.7584 34.5658 39.7584C34.5658 39.7584 35.2049 38.6561 34.6783 37.4841C34.1518 36.3124 33.0755 35.4133 34.1305 34.729C33.4862 34.7342 32.7878 34.5916 32.4811 35.0119C32.3857 35.1428 32.2972 35.4672 32.6185 35.9288C33.0266 36.5154 34.0462 37.8793 33.2107 38.7877C33.8215 38.6792 33.9831 38.2123 33.9831 38.2123ZM40.5746 37.5493H44.1905C44.1905 37.5493 44.28 37.3382 44.3939 37.0332H40.3714C40.4854 37.3382 40.5746 37.5493 40.5746 37.5493ZM42.7384 32.6102C42.7384 32.4202 42.5823 32.266 42.3899 32.266C42.1975 32.266 42.0413 32.4202 42.0413 32.6102C42.0413 32.8003 42.1975 32.9543 42.3899 32.9543C42.5823 32.9543 42.7384 32.8003 42.7384 32.6102ZM44.5443 36.6438C44.6988 36.1773 44.8731 35.4678 44.8731 35.1254C44.8731 34.4998 44.523 33.8071 43.2594 33.5939C43.2594 34.3501 42.8775 36.2028 42.4158 36.2028H42.3639C41.9023 36.2028 41.5203 34.3638 41.5203 33.5937C40.2526 33.8067 39.8921 34.4996 39.8921 35.1254C39.8921 35.4679 40.0664 36.1773 40.2211 36.6438H44.5444H44.5443ZM42.3899 35.6839C42.6305 35.6839 42.8254 34.4742 42.8254 33.8719C42.8254 33.5429 42.6306 33.3271 42.39 33.3271C42.1493 33.3271 41.9542 33.5429 41.9542 33.8719C41.9542 34.4742 42.1493 35.6839 42.39 35.6839H42.3899ZM42.1574 31.8072H42.6222L42.5642 31.2336L43.145 31.2911V30.8322L42.5642 30.8896L42.6222 30.316H42.1574L42.2155 30.8896L41.6347 30.8322V31.2911L42.2156 31.2336L42.1575 31.8072H42.1574ZM51.7669 34.704H50.2929C50.7866 36.9097 52.6363 37.543 54.5606 37.543L54.4952 37.3781C52.9995 37.3781 52.0285 36.2931 51.7669 34.704ZM58.8407 37.5556C59.9027 37.5556 60.938 36.8741 61.35 35.4492C61.7618 34.0244 62.8145 33.7898 62.8145 33.7898C62.5864 33.5448 61.5412 32.814 61.1252 33.0906C61.1252 33.0906 60.7228 33.294 60.5584 34.8727C60.3955 36.4408 59.5241 37.2875 58.9062 37.3614L58.8407 37.5556V37.5556ZM63.3212 33.7011C64.4246 34.668 65.0153 34.3995 65.8934 34.4271C66.771 34.455 66.8709 34.8179 66.8709 34.8179H66.8994C66.8525 34.2148 65.8042 34.3855 64.7838 33.7384C64.0596 33.2792 63.6285 32.6342 63.3103 32.3938C62.9918 32.1535 62.0648 32.3384 61.4001 32.7543C61.4001 32.7543 62.0185 32.5592 63.3212 33.7011ZM66.5854 35.012C66.2787 34.5917 65.5804 34.7343 64.936 34.7291C65.991 35.4133 64.9151 36.3124 64.3883 37.4841C63.8618 38.6562 64.5007 39.7584 64.5007 39.7584C64.5007 39.7584 64.5499 38.7185 65.0835 38.2123C65.0835 38.2123 65.245 38.6792 65.856 38.7877C65.0204 37.8795 66.04 36.5154 66.4483 35.9289C66.7694 35.4672 66.6809 35.1428 66.5854 35.012ZM58.4919 37.5493C58.4919 37.5493 58.581 37.3383 58.6953 37.0332H54.6727C54.7866 37.3383 54.876 37.5493 54.876 37.5493H58.4919ZM57.0251 32.6102C57.0251 32.4203 56.8691 32.2661 56.6766 32.2661C56.4843 32.2661 56.3281 32.4202 56.3281 32.6102C56.3281 32.8003 56.4843 32.9543 56.6766 32.9543C56.8691 32.9543 57.0251 32.8004 57.0251 32.6102ZM58.8454 36.6438C59.0002 36.1774 59.1746 35.4678 59.1746 35.1255C59.1746 34.4996 58.8139 33.8067 57.5462 33.5938C57.5462 34.3638 57.1644 36.2028 56.7028 36.2028H56.6508C56.1891 36.2028 55.8071 34.3501 55.8071 33.5939C54.5434 33.8071 54.1936 34.4998 54.1936 35.1254C54.1936 35.4679 54.3677 36.1773 54.5222 36.6438H58.8455H58.8454ZM56.6766 35.6839C56.9173 35.6839 57.1124 34.4742 57.1124 33.8719C57.1124 33.5429 56.9173 33.3271 56.6766 33.3271C56.436 33.3271 56.2411 33.5429 56.2411 33.8719C56.2411 34.4742 56.436 35.6839 56.6766 35.6839ZM56.4445 31.8072H56.9091L56.8511 31.2337L57.4319 31.2911V30.8323L56.8511 30.8897L56.9091 30.316H56.4445L56.5026 30.8897L55.9216 30.8323V31.2911L56.5026 31.2337L56.4445 31.8073L56.4445 31.8072ZM32.7871 45.5945C31.8479 45.6163 30.1941 45.7967 29.3541 46.0535C29.925 46.7142 31.416 47.6628 32.3093 48.0657C31.6147 48.3193 30.3685 48.9631 29.8488 49.4278C30.5184 49.8266 31.9889 50.2823 32.684 50.4313C32.2793 50.7477 31.4461 51.6624 31.1404 52.1557C31.716 52.3287 32.8993 52.4791 33.6508 52.5217C33.4098 53.0055 33.1355 53.8597 33.0628 54.4162C33.4353 54.4525 34.6797 54.3905 35.2958 54.2573C35.243 54.7423 35.2631 55.6246 35.3465 56.0049C35.9544 55.9209 36.8224 55.6852 37.2262 55.5348C37.3432 55.9671 37.7612 56.8981 37.9081 57.1193C38.3951 57.0291 38.9765 56.8375 39.4039 56.6217C39.5389 56.9682 39.8458 57.4867 39.9306 57.6175C41.3542 56.2309 43.3871 57.3554 43.3871 58.831C43.2411 59.8032 41.8164 59.7488 41.0665 60.2058C40.0803 60.8066 40.2511 62.1997 39.236 62.4136C40.1951 62.9979 40.4742 61.9012 41.4703 61.87C41.3374 62.4615 41.35 63.5118 41.4498 63.9517C41.8598 63.6467 42.4347 63.414 42.8109 63.3903C42.718 63.7354 42.6454 64.5429 42.78 65.0458C43.0442 64.8528 44.0311 64.026 46.3743 64.5576C46.6584 64.6219 44.7849 64.551 45.0187 65.1333C45.2028 65.5924 45.255 65.9116 45.0347 66.5631C45.1341 66.5975 45.2493 66.6139 45.3734 66.6139C45.8989 66.6139 46.5801 66.3201 46.8508 65.8588C47.0599 66.0086 47.0599 67.0756 46.3592 67.3406C47.1077 67.3932 47.6776 66.8074 47.7882 66.4475C47.7882 66.4475 48.154 67.2855 48.5879 67.5606C48.8603 67.4686 49.3457 67.0335 49.5333 66.5816C49.7207 67.0335 50.2062 67.4686 50.4784 67.5606C50.9123 67.2855 51.2783 66.4475 51.2783 66.4475C51.3889 66.8074 51.959 67.3932 52.7073 67.3406C52.0067 67.0756 52.0067 66.0086 52.2157 65.8588C52.4864 66.3201 53.1675 66.6139 53.6931 66.6139C53.8172 66.6139 53.9325 66.5975 54.032 66.5631C53.8117 65.9116 53.8638 65.5924 54.048 65.1333C54.2817 64.551 52.4082 64.622 52.6923 64.5576C55.0351 64.026 56.0225 64.8528 56.2868 65.0458C56.4212 64.5429 56.3487 63.7354 56.2557 63.3903C56.6318 63.414 57.2068 63.6467 57.6168 63.9517C57.7163 63.5117 57.7292 62.4615 57.5961 61.87C58.5922 61.9012 58.8712 62.9979 59.8304 62.4135C58.8154 62.1996 58.986 60.8066 57.9999 60.2058C57.25 59.7488 55.8253 59.8031 55.6793 58.8309C55.6793 57.3554 57.7122 56.2308 59.1359 57.6175C59.2206 57.4866 59.5274 56.9681 59.6625 56.6216C60.0898 56.8375 60.6714 57.0291 61.1584 57.1193C61.3052 56.898 61.7233 55.967 61.8401 55.5346C62.2441 55.6851 63.1121 55.9208 63.72 56.0049C63.8033 55.6246 63.8234 54.7423 63.7706 54.2573C64.3867 54.3905 65.6309 54.4525 66.0034 54.4161C65.9309 53.8596 65.6566 53.0055 65.4154 52.5216C66.1671 52.479 67.3503 52.3286 67.9261 52.1556C67.6202 51.6623 66.787 50.7475 66.3826 50.4312C67.0774 50.2822 68.548 49.8265 69.2176 49.4276C68.698 48.9631 67.4517 48.3193 66.757 48.0656C67.6505 47.6627 69.1413 46.7141 69.7123 46.0534C68.8722 45.7965 67.2183 45.6161 66.2793 45.5944C68.2232 44.3162 68.2832 41.544 67.7233 40.0375C67.3469 40.9508 66.0988 42.4511 65.2931 43.26C65.3647 44.03 65.1048 45.3956 64.659 46.2292C65.2971 46.4621 66.0535 46.8135 66.5893 47.2051C66.2337 47.6352 65.4688 48.3024 64.989 48.6639C65.395 49.0721 66.0779 49.8216 66.3822 50.255C65.9326 50.5787 64.9541 50.95 64.4525 51.1204C64.6993 51.607 65.0578 52.4945 65.1505 53.1071C64.5793 53.1979 63.793 53.2594 62.9708 53.2498C63.0107 53.8365 62.925 54.7449 62.8186 55.2888C62.0561 55.2305 61.1565 54.9296 60.7554 54.7363C60.5432 55.5472 60.0189 56.3338 59.9959 56.3756C57.6125 53.8787 55.5 56.2343 55.5 58.435V61.434C55.5 62.8525 55.035 63.5 53.6969 63.5H51.9652C50.8872 63.5 49.9839 63.9396 49.5331 64.7842C49.0823 63.9396 48.1791 63.5 47.1011 63.5H45.3693C44.0311 63.5 43.566 62.8525 43.566 61.4339V58.4349C43.566 56.2343 41.4537 53.8787 39.0703 56.3756C39.0474 56.3338 38.5229 55.5472 38.3106 54.7363C37.9095 54.9296 37.01 55.2305 36.2478 55.2888C36.1412 54.7449 36.0554 53.8365 36.0954 53.25C35.2733 53.2595 34.487 53.1981 33.9155 53.1073C34.0084 52.4946 34.3669 51.607 34.6138 51.1205C34.1123 50.9501 33.1337 50.5788 32.6841 50.2551C32.9882 49.8218 33.6711 49.0722 34.0772 48.664C33.5973 48.3024 32.8325 47.6352 32.4769 47.2051C33.0126 46.8135 33.7691 46.4621 34.4071 46.2291C33.9614 45.3956 33.7015 44.03 33.773 43.26C32.9673 42.4511 31.7193 40.9507 31.3428 40.0374C30.783 41.544 30.8429 44.3162 32.787 45.5943L32.7871 45.5945ZM27.4226 59.9133L27.2473 60.0931C27.2473 60.0931 27.6108 60.5496 27.9044 60.376C28.0714 60.0795 27.5987 59.7343 27.5987 59.7343L27.4225 59.9133H27.4226Z" fill="#2A3338"/>
<path d="M90.4101 53.6392V61.846H87.5563V40.8826H95.5372C97.9055 40.8826 99.758 41.4681 101.096 42.6392C102.443 43.8102 103.117 45.3603 103.117 47.2897C103.117 49.3246 102.459 50.8939 101.14 51.9978C99.8324 53.092 97.9554 53.6392 95.5076 53.6392H90.4101ZM90.4101 51.3787H95.5372C97.0634 51.3787 98.2327 51.0331 99.0452 50.342C99.8577 49.6413 100.264 48.6334 100.264 47.3185C100.264 46.0706 99.8577 45.0724 99.0452 44.3237C98.2327 43.575 97.1175 43.1863 95.7013 43.1575H90.4101V51.3787ZM105.391 53.9127C105.391 52.3866 105.698 51.0139 106.312 49.7949C106.937 48.5759 107.799 47.6352 108.899 46.9729C110.008 46.3106 111.272 45.9795 112.688 45.9795C114.878 45.9795 116.647 46.7138 117.995 48.1824C119.352 49.6509 120.031 51.6043 120.031 54.0423V54.2295C120.031 55.746 119.728 57.109 119.124 58.3185C118.53 59.5183 117.672 60.4542 116.553 61.1261C115.443 61.798 114.164 62.1339 112.718 62.1339C110.538 62.1339 108.77 61.3996 107.412 59.931C106.065 58.4624 105.391 56.5187 105.391 54.0999V53.9127ZM108.156 54.2295C108.156 55.9572 108.566 57.3442 109.389 58.3904C110.221 59.4367 111.331 59.9599 112.718 59.9599C114.115 59.9599 115.225 59.4319 116.047 58.3761C116.87 57.3106 117.281 55.8228 117.281 53.9127C117.281 52.2041 116.86 50.8219 116.018 49.7662C115.185 48.7007 114.076 48.168 112.688 48.168C111.331 48.168 110.236 48.6911 109.404 49.7373C108.571 50.7835 108.156 52.281 108.156 54.2295ZM129.929 59.9599C130.91 59.9599 131.767 59.6719 132.5 59.096C133.233 58.5201 133.64 57.8001 133.718 56.9363H136.32C136.27 57.8289 135.953 58.6784 135.369 59.4847C134.784 60.291 134.001 60.9341 133.02 61.4141C132.049 61.894 131.019 62.1339 129.929 62.1339C127.739 62.1339 125.996 61.4284 124.697 60.0174C123.409 58.5968 122.765 56.6579 122.765 54.2007V53.7543C122.765 52.2377 123.052 50.8891 123.627 49.7085C124.201 48.5279 125.024 47.6112 126.095 46.9585C127.174 46.3058 128.448 45.9795 129.914 45.9795C131.717 45.9795 133.214 46.5026 134.402 47.5488C135.601 48.5951 136.241 49.9533 136.32 51.6234H133.718C133.64 50.6156 133.243 49.7901 132.53 49.147C131.826 48.4943 130.954 48.168 129.914 48.168C128.517 48.168 127.432 48.6574 126.659 49.6366C125.896 50.606 125.515 52.0122 125.515 53.8551V54.3591C125.515 56.154 125.896 57.5362 126.659 58.5057C127.422 59.4751 128.512 59.9599 129.929 59.9599ZM151.361 48.4271H145.966V61.846H143.216V48.4271H137.925V46.2674H151.361V48.4271ZM159.475 57.9441L163.221 46.2674H166.163L159.698 64.2504C158.697 66.842 157.107 68.1378 154.927 68.1378L154.407 68.0946L153.381 67.9075V65.7478L154.125 65.8054C155.056 65.8054 155.779 65.623 156.295 65.2582C156.82 64.8935 157.25 64.2264 157.588 63.257L158.197 61.6732L152.46 46.2674H155.462L159.475 57.9441ZM182.215 54.2295C182.215 56.6003 181.655 58.5104 180.535 59.9599C179.415 61.4092 177.899 62.1339 175.988 62.1339C174.035 62.1339 172.5 61.534 171.38 60.3342V67.8355H168.63V46.2674H171.142L171.276 47.9951C172.395 46.6514 173.951 45.9795 175.943 45.9795C177.875 45.9795 179.401 46.6849 180.52 48.096C181.65 49.5069 182.215 51.4698 182.215 53.9847V54.2295ZM179.465 53.9271C179.465 52.1706 179.079 50.7835 178.306 49.7662C177.533 48.7487 176.473 48.24 175.125 48.24C173.46 48.24 172.212 48.955 171.38 50.3852V57.8289C172.202 59.2496 173.46 59.9599 175.155 59.9599C176.473 59.9599 177.518 59.4559 178.291 58.4481C179.074 57.4306 179.465 55.9236 179.465 53.9271ZM196.126 46.2674H198.875V61.846H196.126V50.486L188.709 61.846H185.96V46.2674H188.709V57.6418L196.126 46.2674ZM212.133 50.5292C212.133 49.7997 211.845 49.2238 211.27 48.8014C210.696 48.3695 209.908 48.1535 208.907 48.1535C207.937 48.1535 207.124 48.3983 206.47 48.8879C205.826 49.3773 205.504 49.9533 205.504 50.6156H202.769C202.769 49.2622 203.354 48.1535 204.523 47.2897C205.692 46.4258 207.154 45.9939 208.907 45.9939C210.79 45.9939 212.256 46.3874 213.306 47.1745C214.357 47.952 214.882 49.0654 214.882 50.5148C214.882 51.2155 214.664 51.8586 214.228 52.4441C213.792 53.0296 213.173 53.4952 212.37 53.8408C214.243 54.4551 215.179 55.6644 215.179 57.469C215.179 58.8991 214.609 60.0319 213.47 60.8669C212.331 61.702 210.81 62.1195 208.907 62.1195C207.055 62.1195 205.524 61.6828 204.315 60.8093C203.116 59.9262 202.517 58.736 202.517 57.2386H205.251C205.251 57.9969 205.598 58.6497 206.291 59.1967C206.995 59.7343 207.867 60.003 208.907 60.003C209.957 60.003 210.805 59.7679 211.449 59.2976C212.093 58.8272 212.415 58.2177 212.415 57.469C212.415 56.5955 212.142 55.9716 211.598 55.5973C211.062 55.2133 210.225 55.0214 209.086 55.0214H206.336V52.7753H209.323C211.196 52.7273 212.133 51.9786 212.133 50.5292ZM228.006 58.3185L233.475 46.2674H236.908V61.846H234.158V50.5148L228.957 61.846H227.054L221.749 50.2701V61.846H218.999V46.2674H222.566L228.006 58.3185Z" fill="#2A3338"/>
<circle cx="81.4455" cy="51.8416" r="5.79208" fill="#1F5BFF"/>
<circle cx="49.2673" cy="18.3762" r="5.79208" fill="#1F5BFF"/>
<circle cx="49.2673" cy="6.79208" r="5.79208" fill="#1F5BFF" fill-opacity="0.3"/>
<circle cx="49.2674" cy="84.0198" r="5.79208" transform="rotate(-180 49.2674 84.0198)" fill="#1F5BFF"/>
<circle cx="49.2674" cy="95.6039" r="5.79208" transform="rotate(-180 49.2674 95.6039)" fill="#1F5BFF" fill-opacity="0.3"/>
<circle cx="243.624" cy="51.8416" r="5.79208" transform="rotate(90 243.624 51.8416)" fill="#1F5BFF"/>
<circle cx="255.208" cy="51.8416" r="5.79208" transform="rotate(90 255.208 51.8416)" fill="#1F5BFF" fill-opacity="0.3"/>
<circle cx="18.3762" cy="51.8416" r="5.79208" transform="rotate(-90 18.3762 51.8416)" fill="#1F5BFF"/>
<circle cx="6.79208" cy="51.8416" r="5.79208" transform="rotate(-90 6.79208 51.8416)" fill="#1F5BFF" fill-opacity="0.3"/>
<rect x="0.5" y="0.5" width="261" height="101.396" stroke="#E2E8EE"/>
</svg>
