<svg width="282" height="101" viewBox="0 0 282 101" fill="none" xmlns="http://www.w3.org/2000/svg">
<rect x="0.5" y="0.5" width="281" height="99.396" fill="white"/>
<circle cx="78.4456" cy="49.7921" r="5.79208" fill="#1F5BFF"/>
<circle cx="48.2674" cy="17.3762" r="5.79208" fill="#1F5BFF"/>
<circle cx="48.2674" cy="5.79208" r="5.79208" fill="#1F5BFF" fill-opacity="0.3"/>
<circle cx="48.2672" cy="83.0198" r="5.79208" transform="rotate(-180 48.2672 83.0198)" fill="#1F5BFF"/>
<circle cx="48.2672" cy="94.6039" r="5.79208" transform="rotate(-180 48.2672 94.6039)" fill="#1F5BFF" fill-opacity="0.3"/>
<circle cx="264.624" cy="49.7921" r="5.79208" transform="rotate(90 264.624 49.7921)" fill="#1F5BFF"/>
<circle cx="276.208" cy="49.7921" r="5.79208" transform="rotate(90 276.208 49.7921)" fill="#1F5BFF" fill-opacity="0.3"/>
<circle cx="17.3763" cy="50.2079" r="5.79208" transform="rotate(-90 17.3763 50.2079)" fill="#1F5BFF"/>
<circle cx="5.79208" cy="50.2079" r="5.79208" transform="rotate(-90 5.79208 50.2079)" fill="#1F5BFF" fill-opacity="0.3"/>
<path fill-rule="evenodd" clip-rule="evenodd" d="M63.4299 68.3693C63.3453 68.3693 63.1571 69.0064 63.3508 69.4582C63.4539 69.6987 63.6964 69.8003 63.8991 69.7329C64.0989 69.6666 64.1571 69.4776 64.1626 69.3302C64.1815 68.8351 63.7449 68.3693 63.4299 68.3693H63.4299ZM61.9767 61.1452L62.0403 61.8447L61.4334 61.7773V62.5738L62.0403 62.5066L61.9767 63.2371H62.8009L62.7373 62.5066L63.344 62.5738V61.7773L62.7373 61.8448L62.8009 61.1452H61.9767ZM62.3899 63.9017C62.2257 63.9017 62.0927 64.0372 62.0927 64.2043C62.0927 64.3713 62.2258 64.5068 62.3899 64.5068C62.554 64.5068 62.6871 64.3714 62.6871 64.2043C62.6871 64.0372 62.5539 63.9017 62.3899 63.9017ZM62.3899 65.1266C62.2257 65.1266 62.0927 65.2621 62.0927 65.4292C62.0927 65.5964 62.2258 65.7317 62.3899 65.7317C62.554 65.7317 62.6871 65.5963 62.6871 65.4292C62.6871 65.2621 62.5539 65.1266 62.3899 65.1266ZM62.3899 66.3692C62.2257 66.3692 62.0927 66.5046 62.0927 66.6717C62.0927 66.839 62.2258 66.9743 62.3899 66.9743C62.554 66.9743 62.6871 66.8389 62.6871 66.6717C62.6871 66.5046 62.5539 66.3691 62.3899 66.3691V66.3692ZM63.3497 66.6717C63.3497 66.839 63.4828 66.9743 63.6469 66.9743C63.811 66.9743 63.9441 66.8389 63.9441 66.6717C63.9441 66.5046 63.811 66.3691 63.6469 66.3691C63.4827 66.3691 63.3496 66.5046 63.3496 66.6716L63.3497 66.6717ZM64.5955 66.6717C64.5955 66.839 64.7287 66.9743 64.8927 66.9743C65.0569 66.9743 65.19 66.8389 65.19 66.6717C65.19 66.5046 65.0569 66.3691 64.8927 66.3691C64.7287 66.3691 64.5955 66.5046 64.5955 66.6716V66.6717ZM62.3899 68.0325C62.1354 68.0325 61.5077 69.318 61.9756 69.9681C62.0652 70.0925 62.222 70.1623 62.3899 70.1623C62.5577 70.1623 62.7146 70.0924 62.8041 69.9681C63.2721 69.318 62.6443 68.0325 62.3899 68.0325ZM61.3498 68.3693C61.0347 68.3693 60.5983 68.835 60.617 69.3301C60.6224 69.4774 60.6807 69.6666 60.8805 69.7328C61.0833 69.8003 61.3258 69.6986 61.4289 69.4581C61.6226 69.0063 61.4344 68.3693 61.3498 68.3693ZM60.8662 66.6716C60.8662 66.8389 60.9991 66.9743 61.1634 66.9743C61.3277 66.9743 61.4606 66.8389 61.4606 66.6716C61.4606 66.5046 61.3276 66.3691 61.1634 66.3691C60.999 66.3691 60.8662 66.5045 60.8662 66.6716H60.8662ZM59.6509 66.6716C59.6509 66.8389 59.784 66.9743 59.9481 66.9743C60.1123 66.9743 60.2455 66.8389 60.2455 66.6716C60.2455 66.5046 60.1123 66.3691 59.9481 66.3691C59.784 66.3691 59.6509 66.5045 59.6509 66.6716ZM59.3579 66.6716C59.3579 66.4137 59.4027 66.1813 59.4027 66.1813H61.8726V65.9681L61.8728 64.1705L61.8726 64.1703V63.6592C60.6804 63.8674 59.7269 64.7838 59.4427 65.9677C59.3734 66.0662 59.1494 66.1166 58.9915 66.0989C58.08 65.9876 56.2354 65.6562 56.2354 65.2647C56.2354 64.7147 56.6091 64.4945 56.9682 64.4945C57.4805 64.4945 58.0464 64.771 58.5176 64.0912C56.8406 64.1677 58.1262 61.753 56.7506 61.2948C56.8188 61.9114 56.7512 62.9962 56.5342 63.5696C56.5342 63.5696 56.0414 63.0449 55.4879 62.8469C55.5294 63.2946 55.4452 64.2223 55.2444 64.6447C55.2444 64.6447 54.6583 64.1039 54.0504 63.9017C54.6112 64.7119 54.5919 65.8682 54.441 66.5716C54.3973 66.775 54.5495 67.0283 54.9771 67.0096C55.646 66.9801 57.9306 67.0805 58.9215 67.4844C59.2296 67.6099 59.4935 67.754 59.6224 67.9729C59.7274 68.2676 59.9871 68.7243 60.3068 68.9584C60.4503 68.4488 61.0621 67.903 61.4606 67.9227C61.5797 67.9285 61.7113 68.1267 61.7386 68.3209C61.7738 68.1403 62.0678 67.6414 62.3898 67.6414C62.687 67.6414 62.9727 68.0588 63.0718 68.4035C63.1017 68.1821 63.2331 67.9453 63.3521 67.9453C63.7524 67.9453 64.2557 68.2991 64.4454 68.8836C64.599 68.6928 65.3043 67.7894 65.384 67.1966H59.4025C59.4025 67.1966 59.3578 66.9401 59.3578 66.6718L59.3579 66.6716ZM62.907 63.6597V66.1814H65.3792C65.1642 64.8957 64.1691 63.8809 62.907 63.6597H62.907ZM33.7347 65.7359C33.7866 65.7533 33.8391 65.741 33.8908 65.7136C33.7242 65.9448 33.7311 66.0969 33.8028 66.1682C33.9155 66.2795 33.999 66.075 34.2839 65.7736C34.5691 65.4726 34.7663 65.3808 34.654 65.2691C34.5816 65.1974 34.4316 65.1954 34.2076 65.3773C34.2323 65.3241 34.2419 65.2711 34.2238 65.2193C34.1296 64.9475 33.6908 64.5857 33.449 64.5848C33.414 64.5853 33.3796 64.5925 33.3474 64.6061C33.4539 64.4359 33.4264 64.3074 33.3552 64.2368C33.2768 64.1593 33.232 64.2136 33.144 64.3258C33.156 64.2474 33.1359 64.1556 33.0617 64.0436C32.6986 63.4962 30.7784 61.6935 30.3424 61.5123C30.0822 61.4038 29.9968 61.554 29.9968 61.554C29.9968 61.554 29.8527 61.6464 29.9666 61.9095C30.1571 62.3495 32.0022 64.2318 32.5481 64.5861C32.6601 64.6586 32.7499 64.6762 32.826 64.6617C32.7199 64.7542 32.669 64.802 32.747 64.8792C32.8182 64.9498 32.9451 64.9737 33.1081 64.8591C33.0959 64.8926 33.0901 64.928 33.0911 64.9636C33.0994 65.2107 33.4663 65.6481 33.7347 65.7359H33.7347ZM29.1192 60.4028C29.0623 60.4028 28.9815 60.4163 28.9221 60.479C28.8619 60.5425 28.8407 60.6408 28.8627 60.7548C28.8867 60.8787 28.9576 61.0044 29.0626 61.1086C29.1883 61.2334 29.3464 61.3079 29.485 61.3079C29.5423 61.3079 29.6225 61.2949 29.682 61.2323C29.8117 61.0951 29.7477 60.8067 29.5418 60.6024C29.4157 60.4778 29.258 60.4029 29.1192 60.4029V60.4028ZM35.0911 67.0944C35.0895 66.904 34.728 66.5845 34.2993 66.5845C33.6625 66.5845 33.3869 66.9874 33.3869 67.1926C33.3869 67.5791 33.761 67.6289 33.8757 67.6353C34.3239 67.663 35.0465 67.2056 35.0911 67.0944ZM34.5426 68.0595C34.3734 68.2759 34.31 68.4872 34.3538 68.6875C34.4071 68.93 34.6473 69.0389 34.862 69.0389C35.0882 69.0389 35.2907 68.9323 35.4038 68.7536C35.6471 68.3708 35.6578 67.5227 35.5758 67.4299C35.3719 67.4299 34.8296 67.6928 34.5426 68.0596V68.0595ZM28.9543 59.2302C28.7744 59.0517 28.4063 59.3177 28.1863 59.1939C28.2839 58.6487 28.6704 59.2209 29.044 58.8267C29.1929 58.6692 29.113 58.4235 29.0276 58.3492C28.8666 58.5121 28.6175 58.4557 28.5983 58.3652C29.0223 57.3649 28.1939 56.2496 27.3984 56.3895C27.5545 56.5979 27.6012 57.3226 27.5332 57.5185C27.836 57.7356 27.6195 58.2471 27.2853 58.0986C27.0611 58.0073 26.6657 57.4479 27.1205 57.0537C27.1073 56.9116 26.8572 56.8771 26.5914 57.2194C26.7865 56.5911 25.5926 56.7881 25.3472 56.9389C25.2077 57.1943 25.0531 58.422 25.6603 58.2027C25.3346 58.4855 25.3762 58.7402 25.5152 58.7493C25.8858 58.272 26.444 58.6593 26.5403 58.8856C26.6959 59.2233 26.2031 59.4602 25.9817 59.1573C25.7923 59.2332 25.0833 59.2083 24.8746 59.0552C24.7634 59.8731 25.8782 60.6855 26.8419 60.2208C26.9307 60.2375 26.9937 60.4899 26.8399 60.66C26.9152 60.7455 27.1574 60.8193 27.3065 60.6618C27.6796 60.2676 27.1086 59.8899 27.6381 59.7727C27.7659 59.994 27.5179 60.379 27.6976 60.5575C27.9855 60.843 28.3472 60.2892 28.7024 60.2669C28.7128 59.9029 29.2422 59.5158 28.9543 59.2301L28.9543 59.2302ZM25.9701 57.9672C25.9701 57.9672 25.7839 57.8352 26.0073 57.5932C26.236 57.357 26.3713 57.5437 26.3713 57.5437C26.3713 57.5437 26.5811 58.0099 26.6431 58.2244C26.4315 58.1677 25.9702 57.9672 25.9702 57.9672H25.9701ZM27.8131 59.3851C27.6975 59.3996 27.4237 59.643 27.2864 59.5068L26.6581 58.8838L26.9721 58.5511L27.2875 58.2191L27.9153 58.8427C28.0526 58.9785 27.8237 59.2665 27.8131 59.385V59.3851ZM38.2242 68.9323C38.2455 68.8391 38.2309 68.7641 38.1819 68.7157C38.1666 68.7004 38.1528 68.6918 38.1445 68.6918C38.109 68.6918 38.0304 68.7889 37.9545 68.883C37.8912 68.961 37.8124 69.0581 37.7119 69.1639C37.6119 69.2702 37.5191 69.3536 37.4449 69.421C37.3566 69.5007 37.2651 69.5833 37.2641 69.6205C37.2641 69.6293 37.2731 69.6432 37.2892 69.659C37.3217 69.6915 37.3652 69.7076 37.4181 69.7076C37.4988 69.7076 37.6738 69.6663 37.9372 69.3877C38.1372 69.1769 38.2039 69.0237 38.2243 68.9323H38.2242ZM38.2281 69.6758C38.0911 69.8208 37.952 69.9237 37.8749 69.9764C37.9296 70.0316 38.0849 70.1296 38.279 70.1296C38.3898 70.1296 38.4932 70.097 38.5877 70.0327C38.7814 69.714 38.5945 69.3881 38.5104 69.3051C38.4613 69.3858 38.3648 69.5314 38.228 69.6757L38.2281 69.6758ZM36.1076 67.9032C36.0078 67.9964 35.7773 68.6433 35.8778 69.0374C35.9212 69.2062 36.0145 69.2783 36.1726 69.2698C36.3361 69.2595 36.4252 69.1746 36.4528 69.0016C36.5155 68.6081 36.2163 67.9827 36.1075 67.9031L36.1076 67.9032ZM35.9813 66.1051C35.987 66.1161 37.1643 67.1488 37.5593 67.5226C37.6524 67.6108 37.7808 67.6312 37.9111 67.565C37.9854 67.5271 38.078 67.4835 38.1738 67.4397C39.3511 67.0249 41.2876 66.9781 41.9979 67.0094C42.4256 67.0281 42.5766 66.7753 42.534 66.5714C42.3949 65.9058 42.3638 64.7119 42.9246 63.9017C42.3168 64.1039 41.7308 64.6447 41.7308 64.6447C41.5297 64.2223 41.4456 63.2946 41.4871 62.8469C40.9337 63.0448 40.4407 63.5696 40.4407 63.5696C40.2238 62.9962 40.1561 61.9114 40.2245 61.2949C38.8487 61.753 40.1345 64.1677 38.4573 64.0912C38.9286 64.7711 39.4946 64.4947 40.0068 64.4947C40.3658 64.4947 40.812 64.7292 40.7397 65.2648C40.6872 65.6527 38.4369 66.1357 37.5319 66.1357C36.8994 66.1357 36.4757 65.941 36.1583 65.5032C36.0056 65.2927 35.8498 65.1975 35.6754 65.2242C35.4589 65.2575 35.2057 65.4782 35.2057 65.9893C35.2057 66.3513 35.3525 67.1449 35.7884 67.1449C36.0946 67.1449 36.1082 66.5177 35.9813 66.1052V66.1051ZM37.4364 68.8908C37.6418 68.6733 37.7137 68.5149 37.663 68.3914C37.5895 68.213 37.1222 67.6943 36.5104 67.109C36.4921 67.2299 36.4649 67.3492 36.4288 67.4662C36.8411 68.0093 36.9951 68.5925 36.8562 69.0824C36.9065 69.1158 36.9376 69.1309 36.9558 69.138C37.1141 69.2007 37.3117 69.0225 37.4363 68.8908H37.4364ZM34.4594 65.9369C34.4564 65.94 34.3802 66.0149 34.331 66.1157C34.459 66.1165 34.6081 66.1383 34.7422 66.1744C34.7333 66.056 34.7244 65.8957 34.7361 65.7575C34.6229 65.7828 34.5014 65.8916 34.4594 65.9369ZM55.0231 69.6678C55.4106 69.492 55.6901 69.0149 55.7637 68.5483C55.5181 68.6681 55.2412 68.7265 54.9219 68.7265C54.0437 68.7265 52.9404 68.241 51.9405 67.8009C51.9405 67.8009 51.7248 67.9812 51.3676 68.0189C52.3765 68.3272 54.3593 69.4213 54.505 70.1231C54.6024 70.5924 54.2947 70.7716 54.2947 70.7716C53.8535 70.0559 52.7166 68.9447 51.1992 68.3888C51.2023 68.6504 51.1517 68.834 51.1517 68.834C51.1517 68.834 50.8439 68.9093 50.1898 68.7964C50.7617 69.2708 52.264 70.9464 52.4271 72.2179C52.5358 73.0667 51.9392 73.1059 51.9392 73.1059C51.854 71.8293 51.1806 70.5082 49.9651 69.1816C49.9651 69.1816 49.7657 69.4924 49.5009 69.6491C49.5009 69.6491 49.052 69.57 48.6794 69.325C48.8229 71.0094 48.9076 73.1975 48.8186 73.8598C48.7564 74.321 48.4877 74.5143 48.4877 74.5143C48.4877 74.5143 48.218 74.3209 48.1558 73.8598C48.0669 73.1975 48.1514 71.0094 48.2949 69.325C47.9225 69.57 47.4735 69.6491 47.4735 69.6491C47.2086 69.4925 47.0095 69.1817 47.0095 69.1817C45.7938 70.5083 45.1203 71.8293 45.0352 73.1059C45.0352 73.1059 44.4386 73.0667 44.5474 72.2179C44.7105 70.9465 46.2128 69.2708 46.7846 68.7964C46.1306 68.9093 45.8227 68.8341 45.8227 68.8341C45.8227 68.8341 45.7722 68.6505 45.7753 68.3889C44.258 68.9447 43.1212 70.0559 42.6798 70.7717C42.6798 70.7717 42.3721 70.5924 42.4696 70.1231C42.6153 69.4214 44.598 68.3273 45.6071 68.0189C45.2497 67.9813 45.034 67.8009 45.034 67.8009C44.0342 68.241 42.9307 68.7265 42.0525 68.7265C41.7334 68.7265 41.4564 68.6681 41.211 68.5483C41.2844 69.015 41.564 69.492 41.9514 69.6679C40.5948 70.617 41.4325 72.841 39.6131 72.4229C40.6276 74.2957 42.6798 74.4838 42.6798 74.4838C42.2252 73.4931 42.792 70.4707 45.5157 69.0974C43.8391 70.7592 43.0752 72.774 43.5201 74.1954C43.9282 75.5001 45.255 76.0288 46.2539 76.0515C45.5475 73.8943 45.9829 71.4239 47.4489 69.8687C46.8207 71.5743 45.9373 76.1267 48.4879 77C51.0381 76.1267 50.1541 71.5743 49.5257 69.8687C50.992 71.4238 51.4272 73.8943 50.7208 76.0515C51.7197 76.0288 53.0465 75.5001 53.4547 74.1954C53.8995 72.774 53.1356 70.7592 51.4591 69.0974C54.1829 70.4707 54.7495 73.4931 54.2948 74.4838C54.2948 74.4838 56.3471 74.2957 57.3617 72.4229C55.5421 72.841 56.3799 70.617 55.0232 69.6679L55.0231 69.6678ZM48.7042 32.1468C48.7042 32.0132 48.598 31.9043 48.4679 31.9043C48.3375 31.9043 48.2315 32.0132 48.2315 32.1468C48.2315 32.2809 48.3374 32.3899 48.4679 32.3899C48.598 32.3899 48.7042 32.2809 48.7042 32.1468ZM49.8965 32.1468C49.8965 32.0132 49.7908 31.9043 49.6602 31.9043C49.53 31.9043 49.4241 32.0132 49.4241 32.1468C49.4241 32.2809 49.53 32.3899 49.6602 32.3899C49.7908 32.3899 49.8965 32.2809 49.8965 32.1468ZM48.044 25.8499C48.044 26.1002 48.2424 26.3045 48.4863 26.3045C48.7305 26.3045 48.9288 26.1002 48.9288 25.8499C48.9288 25.5992 48.7305 25.3951 48.4863 25.3951C48.2424 25.3951 48.044 25.5992 48.044 25.8498V25.8499ZM48.1864 24.8838H48.7886L48.7235 24.159L49.3777 24.2284V23.6552L48.7235 23.7243L48.7885 23H48.1863L48.2511 23.7243L47.5971 23.6552V24.2284L48.2511 24.159L48.1863 24.8838H48.1864ZM47.5118 32.1468C47.5118 32.0131 47.4056 31.9043 47.2754 31.9043C47.1451 31.9043 47.039 32.0131 47.039 32.1468C47.039 32.2808 47.1451 32.3898 47.2754 32.3898C47.4056 32.3898 47.5118 32.2808 47.5118 32.1468ZM46.0924 33.0462C46.1564 33.0691 46.2303 33.0816 46.3177 33.0816H50.6574C50.7448 33.0816 50.8187 33.0691 50.8825 33.0462C51.0225 32.9962 51.1077 32.8914 51.1408 32.7239H45.8341C45.8671 32.8914 45.9523 32.9961 46.0924 33.0463V33.0462ZM46.3311 32.1468C46.3311 32.0131 46.2252 31.9043 46.0946 31.9043C45.9644 31.9043 45.8582 32.0131 45.8582 32.1468C45.8582 32.2808 45.9644 32.3898 46.0946 32.3898C46.225 32.3898 46.331 32.2808 46.331 32.1468H46.3311ZM51.0775 32.1468C51.0775 32.0131 50.9713 31.9043 50.8413 31.9043C50.7109 31.9043 50.6048 32.0131 50.6048 32.1468C50.6048 32.2808 50.7109 32.3898 50.8414 32.3898C50.9713 32.3898 51.0775 32.2808 51.0775 32.1468ZM51.361 31.5713C51.4834 31.4201 52.0917 30.2483 52.0917 29.0653C52.0917 28.0006 50.7487 27.4146 49.9497 27.3878C49.8572 28.9087 49.2627 31.2959 48.4877 31.2959C47.7543 31.2959 47.117 28.9224 47.0256 27.3877C46.2267 27.4147 44.8838 28.0007 44.8838 29.0654C44.8838 30.2483 45.4917 31.4201 45.6142 31.5713H51.3612H51.361ZM48.4877 30.5407C48.8527 30.5407 49.3243 29.0261 49.4448 27.5925C49.4448 27.3023 49.0797 26.8584 48.4878 26.8468C47.8956 26.8584 47.5305 27.3023 47.5305 27.5925C47.6363 28.9294 48.1284 30.5407 48.4878 30.5407H48.4877ZM36.8861 38.2719C36.1779 39.2422 37.1572 40.304 37.2176 40.3773C37.2602 40.4291 37.2967 40.4057 37.2902 40.3477C37.285 40.2979 37.7999 38.8018 40.7634 39.5896C40.8268 39.6064 40.8656 39.6078 40.8063 39.5466C40.2588 39.1142 39.6092 38.1452 39.3993 37.3658C39.3993 37.3658 37.5944 37.3017 36.8861 38.2719ZM38.4748 38.069C38.4748 37.7979 38.8706 37.7232 39.0981 37.7232C39.0981 37.7232 39.1979 37.9849 39.2982 38.1298C39.0673 38.0269 38.7465 38.0165 38.4748 38.069ZM40.0479 36.803C39.8508 36.803 39.7771 36.928 39.8415 37.1444C40.5225 39.4309 42.3788 39.9732 43.1117 40.9635C43.1117 40.9635 43.1065 40.6549 43.4465 39.9188C43.6779 40.2974 44.3047 41.0064 44.7121 41.0967C44.6147 40.8927 44.4989 40.0876 44.5891 39.5466C45.5511 40.385 46.737 40.5498 47.3735 40.0661C46.8316 40.0868 46.126 39.4859 45.7708 38.953C46.2667 39.0672 46.9493 38.9494 47.0901 38.8076C46.7769 38.7314 46.397 38.4546 46.1682 38.1916C46.5201 38.1672 47.2835 37.8799 47.5018 37.4749C47.1956 37.5442 46.7418 37.4196 46.4462 37.2639C46.6713 37.1426 47.2331 36.5428 47.3678 36.0163C46.5701 36.406 45.3114 36.7937 43.4467 36.7937C43.4467 36.7937 40.1518 36.8029 40.0478 36.8029L40.0479 36.803ZM42.1063 37.8453C41.5791 38.0534 41.315 38.3343 41.315 38.3343C41.315 38.3343 41.062 37.9206 40.9812 37.7876C40.9005 37.6548 40.8752 37.4919 41.1476 37.4919H42.7819C42.7819 37.6029 42.6334 37.6372 42.1062 37.8453H42.1063ZM36.5275 41.5658C36.698 41.7912 37.1806 42.4796 38.2394 41.8641C39.2979 41.2486 39.8438 40.9136 39.8438 40.9136C39.8438 40.9136 39.6785 41.2312 39.804 41.612C39.8113 41.6339 39.8362 41.6329 39.8458 41.6103C39.9512 41.3637 40.8706 40.6506 42.043 40.5519C41.6132 40.1777 41.1416 39.8441 41.1416 39.8441C40.6407 39.9247 39.6698 40.2659 38.4138 41.0784C37.1578 41.8908 36.5791 41.5515 36.5551 41.5363C36.5311 41.521 36.4972 41.5257 36.5274 41.5658H36.5275ZM51.5297 67.5061C51.7105 67.4486 51.8619 67.3568 51.9397 67.2537C51.1285 67.2186 50.4588 66.5211 50.2136 66.0907C49.9442 66.5347 49.4631 66.8816 49.4631 66.8816C49.1206 66.7916 48.6525 66.42 48.4876 66.1357C48.3228 66.42 47.8547 66.7917 47.5121 66.8817C47.5121 66.8817 47.031 66.5347 46.7615 66.0907C46.5164 66.5211 45.8467 67.2186 45.0355 67.2537C45.1134 67.3568 45.2647 67.4486 45.4456 67.5061C45.5667 67.5448 45.7007 67.5686 45.8356 67.5686C45.9786 67.5686 46.1221 67.5427 46.2507 67.4828C46.1696 67.776 46.1427 68.138 46.2021 68.3862C46.2021 68.3862 46.6334 68.4201 47.0789 68.2526C47.1109 68.5206 47.2338 68.8452 47.4354 69.0648C47.475 69.1077 47.5164 69.1481 47.562 69.1816C47.8013 69.1816 48.3788 68.9041 48.4877 68.733C48.5964 68.904 49.174 69.1816 49.4133 69.1816C49.4587 69.1481 49.5002 69.1076 49.5399 69.0646C49.7413 68.8452 49.8643 68.5205 49.8963 68.2524C50.0967 68.3526 50.3294 68.3927 50.5869 68.3927C50.649 68.3926 50.711 68.3904 50.773 68.3862C50.8325 68.138 50.8055 67.7759 50.7244 67.4827C50.8532 67.5427 50.9967 67.5686 51.1394 67.5686C51.2747 67.5686 51.4085 67.5448 51.5296 67.5061H51.5297ZM43.4332 50.2797C43.2741 50.2797 43.1758 50.3807 43.1758 50.5434V60.42C43.1758 61.3616 43.5484 61.8394 44.2834 61.8394L46.1222 61.8465C47.3822 61.8465 48.1256 62.2784 48.4876 62.8136C48.7955 62.3145 49.6607 61.8465 50.853 61.8465L52.6914 61.8394C53.4265 61.8394 53.7991 61.3616 53.7991 60.42V50.5434C53.7991 50.3807 53.7005 50.2797 53.542 50.2797H43.4331H43.4332ZM45.2292 59.5201C45.2115 59.7386 45.4666 60.1362 45.8877 60.0118C45.875 60.0925 45.8987 60.313 45.9928 60.4785C45.2468 60.6468 44.9251 60.0358 45.2292 59.5201ZM51.992 56.2505C51.8893 56.142 51.7881 56.0322 51.6882 55.9212C51.5818 55.8035 51.5059 55.7577 51.3974 55.7577C51.1532 55.7577 50.892 55.8909 50.7524 55.983C50.7431 55.9867 50.736 55.9957 50.7326 56.0197C50.881 56.0065 51.0299 55.9958 51.1779 55.9791C51.3078 55.9641 51.4291 55.9693 51.5411 56.0524C51.6293 56.1174 51.679 56.1979 51.6837 56.3031C51.6978 56.6393 51.9673 57.3469 51.9841 57.5592C52.0051 57.6427 51.9042 57.6671 51.7645 58.0576C51.6613 58.1724 51.3825 57.808 51.4229 57.7227C51.5853 57.5117 51.6302 57.3803 51.5889 57.2231C51.556 57.0967 51.4941 56.871 51.4482 56.7486C51.387 56.5854 51.249 56.5242 51.0777 56.5828C50.4053 56.8049 50.3016 56.5088 49.6352 56.7873L50.4027 57.97C50.3999 57.8844 50.3587 57.7296 50.2345 57.6184C50.2569 57.499 50.499 57.4496 50.5894 57.5614C50.7005 57.7032 50.9171 57.9053 51.0953 57.9377C51.4378 58.0008 51.4119 58.5185 52.3271 58.6918C52.2133 58.8092 51.9594 58.7694 51.8488 58.7163C51.9157 58.819 51.9925 58.9159 52.1304 58.9509C51.9885 59.0927 51.5814 58.7605 51.6231 59.0949C51.6935 59.0543 51.791 59.0476 51.8735 59.0683C52.0561 59.1138 52.3556 60.1474 51.7247 60.5992C51.8589 60.6393 52.0034 60.5686 52.1397 60.5686C52.2196 60.5686 52.2942 60.6458 52.3021 60.7319C52.3609 60.7769 52.3996 60.8321 52.4339 60.9029C52.3864 60.9185 52.2947 60.904 52.2438 60.8703C52.2643 60.9277 52.2594 61.0655 52.238 61.0681C52.1809 61.0758 52.137 61.0432 52.0786 61.0086C51.9974 61.05 51.7305 61.033 51.6548 60.9657C51.4534 61.0146 51.2544 61.0801 51.0444 61.0801C50.931 61.0801 50.7817 61.0729 50.787 60.9349C50.7897 60.8677 50.8231 60.8331 50.8494 60.7594C50.7528 60.6605 50.5918 60.7564 50.3997 60.7748C50.1394 60.7997 50.0321 60.7594 49.9757 60.7067C50.2215 60.48 50.0731 59.9278 49.6935 59.8789C50.0057 60.177 49.965 60.6592 49.6155 60.7675C49.7164 60.8001 49.7665 60.8454 49.8051 60.917C49.928 60.9679 49.9298 61.0566 49.9206 61.0963C49.8533 61.0488 49.7323 61.0019 49.6356 61.0146C49.6287 61.0567 49.6111 61.1353 49.5747 61.1658C49.5329 61.1567 49.4784 61.1185 49.4573 61.0883C49.3457 61.0029 48.6502 61.1657 48.608 61.0519C48.5814 60.9461 48.767 60.857 48.9382 60.8195C48.4978 60.6583 48.1157 59.8319 47.4375 59.6919C47.123 59.6272 46.6969 59.7681 46.6969 60.1758C46.6969 60.3761 46.8586 60.5303 47.0333 60.5303C47.1941 60.5303 47.2746 60.4195 47.2746 60.3072C47.2487 60.3268 47.2327 60.3389 47.2169 60.3517C47.1185 60.4323 46.9931 60.4271 46.9023 60.339C46.8225 60.2613 46.8225 60.1265 46.9 60.0353C46.9638 59.9594 47.0403 59.9167 47.1426 59.9017C47.4082 59.8631 47.6253 59.9475 47.7716 60.1599C47.8413 60.2613 47.8797 60.3696 47.8797 60.4746C47.8797 60.9444 47.4077 61.051 47.1465 61.051C46.4887 61.051 46.1012 60.5816 46.1012 60.0387C46.1012 59.9754 46.1043 59.9112 46.1151 59.8466C46.2181 59.2354 46.7656 58.9799 47.2394 58.9035C47.1789 58.6908 47.0622 58.5189 46.8947 58.3785C46.8114 58.3087 46.8029 58.2517 46.8555 58.1627C46.927 58.041 47.0021 57.9212 47.0337 57.784C47.0409 57.7533 47.0443 57.7207 47.0466 57.6873C46.8107 57.898 46.4809 58.0911 46.0246 58.229C45.8807 58.2953 45.8046 58.426 45.7863 58.5762C45.7655 58.7506 45.7606 58.9275 45.7575 59.1035C45.7567 59.1441 45.7862 59.1883 45.8085 59.2272C45.8934 59.3724 45.9872 59.5137 46.0082 59.6948C46.0082 59.7825 45.5651 59.7916 45.5651 59.7213C45.5611 59.4028 45.3477 59.279 45.3706 59.0688C45.4296 58.7416 45.4427 58.4145 45.389 58.0857C45.3754 58.0029 45.4196 57.9485 45.4788 57.9044C45.5729 57.8329 45.6729 57.769 45.7668 57.6981C45.9886 57.5292 46.0803 57.3092 46.0282 57.0363C46.0215 57.0008 46.0057 56.9666 45.9903 56.9332C45.88 56.6905 45.7993 56.4446 45.7993 56.1709C45.7993 55.8707 45.426 55.8878 45.4504 56.1829C45.4581 56.275 45.5271 56.4039 45.5659 56.4925C45.9486 57.37 45.2605 58.002 44.5487 58.0015C45.2969 57.7434 44.3737 56.7888 44.3737 56.0767C44.3737 55.6399 44.7124 55.3171 45.1165 55.3171C45.5826 55.3171 45.8781 55.6164 45.9627 55.6677C46.1882 55.3115 46.8786 55.2472 47.1377 55.2061C47.118 55.0143 47.1451 54.8438 47.2631 54.6966C47.2709 54.6866 47.2757 54.6682 47.2715 54.6575C47.2347 54.5668 47.1954 54.4772 47.1446 54.3894C46.932 54.6285 46.881 54.9455 46.881 55.1093C46.094 55.0979 45.7468 54.7544 45.5142 54.6191C45.5151 54.5594 45.7245 54.1838 45.9102 53.936C45.7066 54.1098 45.5393 54.3056 45.4164 54.5403C45.3039 54.4593 45.1856 54.3861 45.0699 54.3381C45.2473 53.9595 45.4824 53.6648 45.7819 53.357C45.3601 53.512 44.993 53.9872 44.8538 54.2858C44.7335 54.2721 44.5557 54.2674 44.4564 54.2867C44.9161 53.7265 45.1262 52.623 46.137 52.3754C45.8838 53.3988 46.5134 53.8147 46.9468 53.5477C46.8904 53.5477 46.8518 53.5566 46.8154 53.5477C45.9702 53.334 46.4711 52.1678 46.2665 51.925C46.1887 51.8329 46.1486 51.7485 46.1612 51.632C46.1657 51.591 46.1536 51.5435 46.1347 51.5057L45.6852 50.758C45.6286 50.6639 45.8036 50.5969 45.8414 50.6402L46.2998 51.3879C46.3116 51.4067 46.3262 51.4341 46.3433 51.4372C46.5109 51.4665 46.5628 51.605 46.6305 51.7274C46.652 51.7669 46.669 51.8123 46.6729 51.8569C46.6761 51.8909 46.6667 51.9386 46.6439 51.9618C46.571 52.0353 46.5851 52.1075 46.6415 52.2029C46.732 52.3557 49.4475 56.8577 49.4475 56.8577C48.8577 57.0981 47.7908 57.1176 47.4817 57.0877C47.4176 57.244 47.3174 57.4088 47.1692 57.5677C47.3171 57.4717 47.4316 57.3501 47.5373 57.2179C47.6566 57.2315 47.8355 57.2791 48.0184 57.2924C47.9102 57.5227 47.7477 57.7519 47.5391 57.9438C47.441 58.0401 47.3194 58.1252 47.3641 58.2795C47.4145 58.4529 47.7387 58.7835 47.857 58.9981C47.9743 59.0228 48.1725 59.0643 48.3178 59.1222C48.4007 59.2995 48.6811 59.5222 49.019 59.4069C48.3396 59.3984 48.3897 58.7055 48.6009 58.339C48.578 58.6794 48.7431 58.962 48.9523 58.9941C48.6387 58.7093 48.6701 58.0623 48.9755 57.7073C49.0189 58.2836 49.1946 58.5865 49.4458 58.655C49.1138 58.3509 48.9145 57.6474 49.4159 57.1348C49.4546 58.4503 50.6648 58.213 50.7747 59.7358C51.2229 59.7358 51.2485 59.135 50.9985 59.0247C50.8527 58.9702 50.721 58.8747 50.6464 58.7445C50.6153 58.6898 50.5831 58.5922 50.5577 58.5347C50.4245 58.1435 50.0483 58.1683 50.0575 58.0744C50.0664 58.0427 50.1256 58.0281 50.2086 58.0281L49.4999 56.9382L49.4629 56.8813C49.5484 56.864 49.5674 56.8145 49.4796 56.6767C49.4796 56.6767 46.8198 52.2743 46.8071 52.2491C47.0544 52.2064 47.2919 52.2732 47.5232 52.3623C47.4615 52.3053 47.4112 52.2257 47.4004 52.1435C47.3915 52.0775 47.394 52.0389 47.4474 51.997C47.504 51.9511 47.5583 51.898 47.5979 51.8381C47.7299 51.6382 47.9726 51.5405 48.1931 51.603C48.5258 51.6971 48.6435 52.0716 48.3989 52.2684C48.2687 52.5541 48.1074 52.5181 48.0741 52.6461C48.1394 52.6761 48.5944 53.026 48.6248 53.1733C48.4892 53.4542 48.4218 53.8934 48.5395 54.1385C48.6274 52.9707 49.3339 52.3994 50.022 52.3994C50.1855 52.3994 50.3479 52.4277 50.5108 52.483C50.6 52.5129 50.6891 52.5561 50.7633 52.6122C50.8709 52.6941 50.9709 52.7855 51.062 52.8851C51.1963 53.0319 51.3193 53.1887 51.5478 53.1989C51.4809 53.2936 51.4049 53.3629 51.3271 53.431C51.271 53.4811 51.2428 53.5411 51.2359 53.6165C51.22 53.7787 51.1664 53.9273 51.0466 54.0467C51.0304 54.0629 51.018 54.0824 51.0101 54.1037C50.9337 54.3243 50.8563 54.544 50.7845 54.7659C50.7667 54.8199 50.7707 54.8943 50.6974 54.8934C50.6337 54.8926 50.5569 54.8741 50.5095 54.8356C50.4086 54.7543 50.3725 54.6359 50.4086 54.511C50.4445 54.3867 50.4086 54.2801 50.369 54.1645C50.3286 54.0489 50.3144 53.9239 50.2872 53.792C50.0993 53.7264 49.7466 54.1282 50.0159 54.4648C50.1908 54.713 50.3479 55.17 50.3751 55.3571C50.3808 55.3755 50.216 55.4787 49.9891 55.45C49.222 55.3523 48.7368 54.8224 48.5894 54.3753C48.5774 55.1326 49.2091 55.6942 50.1455 55.6398C50.1836 55.8162 50.3285 55.9361 50.4972 55.9417C50.5322 55.8278 50.5315 55.5887 50.5028 55.4368C50.4901 55.3699 50.5254 55.3357 50.5875 55.3199C50.7923 55.2681 51.0588 55.2882 51.2868 55.2072C51.4889 55.1349 51.5845 55.1772 51.7101 55.4206C51.8054 55.6042 51.9682 55.8017 52.1219 55.9379C52.1865 55.9948 52.2511 56.0526 52.312 56.1134C52.3898 56.1909 52.4302 56.282 52.4363 56.3947C52.4163 56.5712 52.4399 56.9265 52.4399 56.9322C52.3955 57.0487 52.0718 56.9253 52.0196 56.8002C51.9998 56.7535 52.158 56.4259 51.992 56.2504V56.2505ZM57.5759 37.3658C57.3661 38.1452 56.7165 39.1142 56.1691 39.5466C56.1096 39.6077 56.1485 39.6064 56.2119 39.5896C59.1754 38.8018 59.6903 40.2978 59.685 40.3477C59.6787 40.4058 59.7151 40.4292 59.7575 40.3774C59.8181 40.304 60.7974 39.2422 60.0892 38.272C59.3809 37.3017 57.5759 37.3658 57.5759 37.3658ZM57.6771 38.1298C57.7772 37.9849 57.8774 37.7232 57.8774 37.7232C58.1047 37.7232 58.5004 37.798 58.5004 38.069C58.2286 38.0165 57.908 38.0269 57.6771 38.1298ZM60.4478 41.5658C60.4781 41.5257 60.4439 41.521 60.42 41.5363C60.396 41.5515 59.8174 41.8908 58.5614 41.0784C57.3053 40.2659 56.3345 39.9246 55.8336 39.8441C55.8336 39.8441 55.362 40.1777 54.9321 40.5519C56.1045 40.6506 57.024 41.3637 57.1294 41.6103C57.1391 41.6329 57.1638 41.6339 57.1711 41.612C57.2968 41.2312 57.1312 40.9136 57.1312 40.9136C57.1312 40.9136 57.6772 41.2486 58.7357 41.8641C59.7945 42.4795 60.2771 41.7912 60.4477 41.5657L60.4478 41.5658ZM50.5289 37.2639C50.2335 37.4197 49.7796 37.5442 49.4734 37.475C49.6918 37.88 50.4552 38.1673 50.807 38.1916C50.5783 38.4546 50.1983 38.7314 49.8852 38.8076C50.0259 38.9494 50.7084 39.0671 51.2045 38.953C50.8492 39.4859 50.1437 40.0868 49.6018 40.0661C50.2384 40.5499 51.4244 40.385 52.3862 39.5466C52.4764 40.0876 52.3607 40.8927 52.2632 41.0968C52.6705 41.0064 53.2974 40.2974 53.5288 39.9188C53.8687 40.655 53.8637 40.9636 53.8637 40.9636C54.5967 39.9732 56.4529 39.4309 57.1339 37.1445C57.1982 36.928 57.1245 36.803 56.9275 36.803C56.8234 36.803 53.5287 36.7938 53.5287 36.7938C51.6639 36.7938 50.4051 36.4061 49.6074 36.0164C49.7422 36.5428 50.3039 37.1427 50.5292 37.2639H50.5289ZM55.8276 37.4919C56.1 37.4919 56.0747 37.6548 55.9939 37.7877C55.9132 37.9206 55.6602 38.3343 55.6602 38.3343C55.6602 38.3343 55.396 38.0534 54.869 37.8452C54.3418 37.6372 54.1933 37.6029 54.1933 37.4919H55.8276ZM43.6345 40.9167C43.5283 41.2159 43.497 41.5459 43.5535 41.9752C43.8961 42.7153 44.0618 44.0893 43.9561 44.8575C44.502 44.1004 44.7443 43.249 44.9005 42.5677C45.2135 42.886 45.6197 43.3418 45.903 43.711C45.9516 43.3112 46.038 42.8173 46.1136 42.4607C46.5213 42.8478 47.3674 43.3339 47.9396 43.5063C47.5545 41.8906 46.8954 40.8606 46.8954 40.8606C46.3361 40.9166 45.4353 40.7811 45.0302 40.385C45.1026 40.9704 45.5077 41.6435 45.5077 41.6435C44.6397 41.7277 44.025 41.4331 43.6345 40.9167ZM53.3406 40.9167C52.9502 41.4332 52.3355 41.7277 51.4676 41.6435C51.4676 41.6435 51.8726 40.9704 51.9449 40.3851C51.5399 40.7813 50.6392 40.9167 50.0798 40.8606C50.0798 40.8606 49.4209 41.8906 49.0354 43.5063C49.6079 43.3339 50.4538 42.8477 50.8615 42.4606C50.9372 42.8172 51.0234 43.3111 51.0721 43.711C51.3555 43.3419 51.7615 42.886 52.0748 42.5676C52.2308 43.2489 52.4733 44.1004 53.0191 44.8575C52.9133 44.0893 53.0791 42.7152 53.4216 41.9752C53.4782 41.5459 53.4468 41.2158 53.3405 40.9166L53.3406 40.9167ZM45.8755 46.0073C46.203 46.5308 46.4944 47.1603 46.5954 47.721C46.9094 47.3432 47.241 46.6866 47.4657 45.9023C47.7412 46.2447 48.2225 46.9421 48.4876 47.5174C48.7525 46.9421 49.2339 46.2447 49.5093 45.9023C49.7342 46.6866 50.0658 47.3432 50.3797 47.721C50.4807 47.1603 50.7721 46.5308 51.0996 46.0073C51.3487 47.0261 52.3095 48.0172 53.301 48.0917C52.6561 47.2591 52.6294 45.8198 52.675 45.3405C52.2455 44.6765 51.9627 44.0775 51.8273 43.6704C51.536 43.9567 51.0855 44.5133 50.6811 45.1567C50.6811 45.1489 50.6695 44.35 50.5083 43.38C50.0914 43.7545 49.3366 44.0257 48.9332 44.131C48.6785 44.5439 48.6087 44.866 48.4876 45.3842C48.3665 44.866 48.2965 44.5439 48.042 44.131C47.6384 44.0257 46.8837 43.7545 46.4668 43.3801C46.3056 44.35 46.2939 45.1489 46.2939 45.1567C45.8894 44.5133 45.4391 43.9567 45.1476 43.6704C45.0124 44.0775 44.7295 44.6765 44.2999 45.3406C44.3457 45.82 44.3189 47.2591 43.6739 48.0918C44.6656 48.0173 45.6264 47.0262 45.8753 46.0074L45.8755 46.0073ZM36.8913 58.0564C37.4478 57.6954 37.8 57.0395 38.2009 56.2373C37.9675 56.3333 37.6293 56.4373 37.2903 56.5073C36.9598 57.1432 36.4915 56.8965 36.4793 56.8063C36.5805 56.6947 36.696 56.5299 36.783 56.3864C36.642 56.1243 36.4723 55.7338 36.3787 55.4922C35.9057 56.4825 35.0367 57.4884 34.3091 57.8808C34.7373 58.4725 36.0641 58.593 36.8912 58.0564H36.8913ZM38.6113 56.3875C38.2165 57.2157 38.3094 58.4922 39.5661 58.5283C39.4617 57.6245 39.8713 56.7742 40.309 56.3875C39.9325 56.4798 39.3196 56.9709 39.3196 56.9709C39.3196 56.9709 39.2272 57.1814 39.2087 57.4537C38.9456 57.5005 38.8003 57.299 38.9095 56.8787C38.9095 56.8787 38.7194 56.6626 38.6113 56.3876V56.3875ZM32.3908 57.3333C32.5761 57.3331 32.7605 57.3106 32.9404 57.2665C34.1538 56.9683 35.3093 55.9366 35.9962 55.0704C35.6039 55.1939 35.2075 55.2741 34.7682 55.3184C34.7682 55.3184 34.4606 55.6763 34.2238 55.8085C34.1037 55.8761 33.9838 55.9085 33.8701 55.9085C33.5268 55.9085 33.3811 55.6285 33.3811 55.6285C33.3811 55.6285 33.9347 55.3647 34.2871 54.9899C34.2172 54.7137 34.1729 54.3311 34.1648 53.9496C33.2093 54.9039 31.4135 55.8311 30.1591 56.0111C30.4074 56.5249 31.2882 57.3333 32.3909 57.3333H32.3908ZM29.9614 55.3091C30.0244 55.3091 30.0873 55.306 30.15 55.3001C31.3971 55.1774 32.9022 54.3833 33.8714 53.696C33.5628 53.7583 32.7516 53.7764 32.3668 53.723C32.2336 53.8116 31.6468 54.1805 31.1584 54.2421C30.2677 54.3542 30.1735 53.8063 30.1735 53.8063C30.7457 53.7368 31.4054 53.5447 32.036 53.2528C32.0993 52.7807 32.2092 52.3598 32.3031 52.0496C30.9283 52.8109 28.6853 53.3464 27.3547 53.3641C27.621 53.9927 28.6532 55.3091 29.9614 55.3091ZM30.1575 50.8428C30.3492 50.5058 30.6526 50.1073 30.9287 49.7823C29.831 50.0829 28.418 50.1458 27.6689 50.1458C26.7857 50.1458 25.9276 50.0838 25.4353 49.9856C25.479 50.8676 26.3229 52.3894 27.9881 52.5379C28.0749 52.5458 28.171 52.5497 28.2737 52.5497C29.3125 52.5497 30.9646 52.1317 32.1014 51.7307C31.2909 51.627 30.508 51.4357 30.3294 51.3612C29.9067 51.4818 28.8968 51.6503 28.5688 51.6322C27.8244 51.5916 27.7447 51.0233 27.7447 51.0233C27.7447 51.0233 29.0845 51.0796 30.1574 50.8428H30.1575ZM26.1604 49.2264C26.779 49.4252 27.7655 49.5392 28.8672 49.5392C29.5394 49.5392 30.2484 49.4793 30.8251 49.3979C30.2022 49.187 29.4336 48.8683 28.9341 48.5524C28.3097 48.5401 27.4623 48.5224 26.9181 48.3568C26.1179 48.1132 26.1292 47.5689 26.1434 47.4467C26.8353 47.7235 28.0123 47.9881 28.8823 48.0396C29.203 47.7324 29.6984 47.3663 30.2211 47.0476C28.1567 47.0656 25.5213 46.2527 24.0406 45.4733C23.7021 48.2124 25.5728 49.0374 26.1604 49.2264V49.2264ZM30.6983 43.5467C30.3797 42.939 30.069 42.1215 30.028 41.4168C29.0626 40.6625 27.9605 39.7027 27.3228 38.6056C26.9544 37.9714 27.0903 37.4157 27.3513 37.2244C27.5504 37.9133 28.8468 39.8425 30.0221 40.8098C30.0313 40.1916 30.136 39.4805 30.2981 38.9457C28.9316 37.4671 27.4 35.0181 27.03 34.0586C26.6142 34.4011 25.8974 35.2626 25.7212 36.4764C25.5438 37.6983 25.9422 38.9535 26.9054 40.2073C27.646 41.1718 29.2766 42.6097 30.6983 43.5467ZM30.3056 46.6541C29.3662 46.0347 28.7151 45.4601 28.368 44.944C27.5831 44.6405 26.5682 44.177 26.0682 43.7594C25.3813 43.1862 25.5987 42.6703 25.6788 42.5672C26.2836 43.1813 27.5936 44.0665 28.5239 44.4603C29.1048 44.2352 29.9119 44.0703 30.6982 43.9741C28.3678 43.0585 25.8662 41.3398 24.559 39.7196C24.2939 40.2314 23.217 42.639 25.2359 44.6133C26.2991 45.6533 28.4892 46.3708 30.3054 46.6542L30.3056 46.6541ZM60.5965 55.4923C60.5028 55.7338 60.3331 56.1244 60.1921 56.3865C60.2789 56.5299 60.3947 56.6947 60.4958 56.8063C60.4835 56.8966 60.0154 57.1432 59.6849 56.5073C59.3459 56.4374 59.0077 56.3333 58.7743 56.2373C59.1752 57.0396 59.5273 57.6954 60.0839 58.0564C60.911 58.5931 62.2379 58.4726 62.6659 57.8808C61.9383 57.4884 61.0694 56.4825 60.5965 55.4922L60.5965 55.4923ZM58.3638 56.3875C58.2558 56.6626 58.0657 56.8787 58.0657 56.8787C58.1749 57.299 58.0295 57.5005 57.7663 57.4537C57.7478 57.1814 57.6554 56.9709 57.6554 56.9709C57.6554 56.9709 57.0425 56.4798 56.666 56.3875C57.1037 56.7742 57.5133 57.6245 57.4092 58.5283C58.6657 58.4922 58.7586 57.2157 58.3638 56.3875ZM62.6882 54.99C63.0404 55.3647 63.594 55.6285 63.594 55.6285C63.594 55.6285 63.4483 55.9085 63.1051 55.9085C62.9914 55.9085 62.8715 55.8762 62.7512 55.8085C62.5145 55.6763 62.2069 55.3184 62.2069 55.3184C61.7676 55.2741 61.3712 55.194 60.9788 55.0705C61.6658 55.9367 62.8213 56.9684 64.0346 57.2665C64.2144 57.3106 64.3991 57.3331 64.5843 57.3333C65.6868 57.3333 66.5678 56.5249 66.816 56.0111C65.5617 55.8311 63.7657 54.904 62.8103 53.9496C62.8022 54.3311 62.7577 54.7137 62.6882 54.99ZM64.939 53.2529C65.5697 53.5448 66.2294 53.7369 66.8019 53.8064C66.8019 53.8064 66.7075 54.3544 65.8167 54.2421C65.3285 54.1805 64.7413 53.8116 64.6084 53.723C64.2235 53.7764 63.4121 53.7583 63.1037 53.696C64.073 54.3833 65.5781 55.1774 66.8251 55.3001C66.8878 55.306 66.9507 55.3091 67.0137 55.3091C68.322 55.3091 69.3541 53.9927 69.6203 53.3641C68.2898 53.3464 66.0469 52.8109 64.672 52.0497C64.766 52.3599 64.8758 52.7807 64.939 53.2528V53.2529ZM66.0463 49.7823C66.3225 50.1074 66.6258 50.5058 66.8175 50.8428C67.8905 51.0797 69.2302 51.0233 69.2302 51.0233C69.2302 51.0233 69.1506 51.5916 68.4063 51.6321C68.0782 51.6501 67.0684 51.4818 66.6457 51.3612C66.467 51.4356 65.6843 51.6269 64.8737 51.7307C66.0104 52.1317 67.6628 52.5497 68.7015 52.5497C68.8043 52.5497 68.9003 52.5459 68.987 52.5379C70.6522 52.3895 71.4962 50.8677 71.5398 49.9856C71.0477 50.0838 70.1893 50.1458 69.3062 50.1458C68.5574 50.1458 67.1441 50.083 66.0464 49.7823H66.0463ZM72.9346 45.4734C71.4538 46.2528 68.8184 47.0657 66.7541 47.0477C67.2767 47.3664 67.7721 47.7325 68.0928 48.0397C68.9627 47.9881 70.1397 47.7235 70.8315 47.4468C70.8458 47.569 70.8572 48.1133 70.0569 48.3569C69.5127 48.5225 68.6653 48.5401 68.041 48.5525C67.5414 48.8683 66.7728 49.187 66.1499 49.3979C66.7266 49.4793 67.4356 49.5392 68.1079 49.5392C69.2096 49.5392 70.1961 49.4253 70.8147 49.2264C71.4021 49.0375 73.2731 48.2124 72.9346 45.4734ZM69.6238 37.2244C69.8849 37.4157 70.0209 37.9715 69.6523 38.6056C69.0145 39.7027 67.9126 40.6625 66.9471 41.4168C66.9061 42.1215 66.5953 42.9391 66.2768 43.5467C67.6984 42.6097 69.3292 41.1718 70.0697 40.2074C71.0329 38.9535 71.4313 37.6984 71.2538 36.4765C71.0776 35.2626 70.3609 34.4011 69.945 34.0586C69.5751 35.0181 68.0433 37.4672 66.6769 38.9458C66.8391 39.4805 66.9438 40.1916 66.9531 40.8099C68.1281 39.8425 69.4248 37.9134 69.6238 37.2244ZM68.4511 44.4604C69.3816 44.0666 70.6915 43.1814 71.2962 42.5673C71.3763 42.6704 71.5937 43.1863 70.9068 43.7595C70.4068 44.1771 69.3919 44.6405 68.6071 44.9441C68.26 45.4601 67.6089 46.0348 66.6696 46.6542C68.4857 46.3709 70.676 45.6533 71.7394 44.6134C73.7581 42.6391 72.6811 40.2314 72.4162 39.7197C71.1089 41.3398 68.6074 43.0586 66.2768 43.9741C67.0633 44.0704 67.8704 44.2353 68.4511 44.4605V44.4604ZM63.0209 41.6887C62.264 43.4356 60.3451 44.9932 59.1039 45.773C58.5375 46.1286 58.7442 46.803 58.9254 47.1023C60.6163 49.8974 57.5414 51.9804 54.7639 50.5953C55.37 50.6019 55.9818 50.0895 56.0665 49.6328C55.8739 49.7984 55.0853 49.7075 54.8522 49.4931C55.2099 49.3069 55.295 49.1181 55.3135 48.9416C54.871 49.2118 53.9766 49.249 53.7132 48.7925C52.2457 48.7531 51.2695 47.6136 51.1615 47.2847C51.0527 47.6346 50.877 48.2459 50.8194 48.8492C50.4214 48.5811 49.7417 47.9743 49.3873 47.1515C48.9863 47.7213 48.6839 48.3633 48.4875 49.0397C48.2912 48.3633 47.9889 47.7213 47.5877 47.1515C47.2333 47.9743 46.5536 48.5812 46.1558 48.8493C46.0979 48.2459 45.9225 47.6347 45.8136 47.2848C45.7056 47.6137 44.7294 48.7533 43.262 48.7927C42.9984 49.2491 42.1041 49.2119 41.6616 48.9416C41.68 49.1183 41.7652 49.307 42.1229 49.4932C41.8899 49.7075 41.1012 49.7985 40.9085 49.6329C40.9932 50.0895 41.6052 50.6019 42.2111 50.5953C39.4337 51.9805 36.3587 49.8974 38.0497 47.1025C38.2309 46.8031 38.4375 46.1287 37.8713 45.773C36.63 44.9931 34.7111 43.4356 33.9541 41.6886C33.8643 42.401 33.9328 44.1689 34.7016 45.2688C34.1399 45.4826 33.4196 45.8294 32.9353 46.1511C33.2416 46.4975 33.9547 47.0959 34.4339 47.4212C34.0428 47.7674 33.4356 48.4301 33.1169 48.8641C33.5206 49.1031 34.3342 49.3932 34.9559 49.5889C34.6685 50.0608 34.2265 50.9121 34.1155 51.4188C34.8116 51.5195 35.5223 51.5102 36.1493 51.4906C36.0693 52.0813 36.122 52.8232 36.1848 53.3636C36.8308 53.2711 37.5415 53.0102 38.013 52.7631C38.1024 53.1708 38.3489 53.9233 38.57 54.3261C39.1828 53.7471 39.9913 53.4821 40.7396 53.6355C42.2719 53.9497 42.7273 55.4924 42.7273 55.4924L42.7296 50.7997V50.2758C42.7296 49.9832 42.8878 49.8285 43.1715 49.8286H53.8037C54.0875 49.8285 54.2455 49.9833 54.2455 50.2758V50.7996L54.2479 55.4922C54.2479 55.4922 54.7034 53.9496 56.2355 53.6355C56.9841 53.4821 57.7925 53.747 58.4054 54.326C58.6264 53.9232 58.8729 53.1707 58.9623 52.763C59.4337 53.0101 60.1445 53.271 60.7905 53.3635C60.8533 52.8231 60.9058 52.0813 60.826 51.4906C61.4459 51.5545 62.159 51.5545 62.8597 51.4187C62.7488 50.9121 62.3068 50.0609 62.0193 49.589C62.6659 49.4163 63.4545 49.1031 63.8584 48.8641C63.5399 48.4302 62.9326 47.7674 62.5414 47.4213C63.0204 47.096 63.7336 46.4975 64.0401 46.1512C63.5557 45.8294 62.8353 45.4826 62.2736 45.2689C63.0424 44.1689 63.1111 42.401 63.021 41.6887H63.0209ZM43.6973 36.1953L43.6341 36.36C45.4918 36.36 47.2776 35.7273 47.7542 33.5241H46.3312C46.0786 35.1114 45.1413 36.1953 43.6973 36.1953ZM35.6658 32.6108C35.6658 32.6108 36.682 32.8452 37.0796 34.2685C37.4773 35.6918 38.4768 36.3725 39.5021 36.3725L39.439 36.1785C38.8424 36.1046 38.0012 35.2589 37.8438 33.6925C37.6852 32.1156 37.2965 31.9124 37.2965 31.9124C36.8951 31.6361 35.8859 32.366 35.6657 32.6108H35.6658ZM32.6934 33.2475C33.541 33.2198 34.1114 33.4882 35.1767 32.5223C36.4342 31.3816 37.0312 31.5766 37.0312 31.5766C36.3894 31.161 35.4945 30.9764 35.1872 31.2163C34.8798 31.4565 34.4638 32.1008 33.7646 32.5595C32.7793 33.2059 31.7673 33.0353 31.7221 33.6378H31.7495C31.7495 33.6378 31.846 33.2754 32.6934 33.2475H32.6934ZM33.4753 37.0285C33.9905 37.5342 34.0378 38.5729 34.0378 38.5729C34.0378 38.5729 34.6548 37.4718 34.1464 36.3012C33.6381 35.1308 32.5991 34.2326 33.6176 33.549C32.9955 33.5543 32.3213 33.4118 32.0253 33.8316C31.9331 33.9624 31.8477 34.2865 32.1578 34.7475C32.5518 35.3335 33.5361 36.6959 32.7296 37.6033C33.3193 37.495 33.4753 37.0285 33.4753 37.0285ZM39.8388 36.3663H43.3296C43.3296 36.3663 43.4159 36.1554 43.526 35.8508H39.6425C39.7527 36.1554 39.8388 36.3663 39.8388 36.3663ZM41.9277 31.4326C41.9277 31.2428 41.777 31.0888 41.5913 31.0888C41.4055 31.0888 41.2547 31.2428 41.2547 31.4326C41.2547 31.6225 41.4055 31.7763 41.5913 31.7763C41.777 31.7763 41.9277 31.6225 41.9277 31.4326ZM43.6712 35.4618C43.8203 34.9958 43.9885 34.287 43.9885 33.945C43.9885 33.3201 43.6506 32.6282 42.4307 32.4152C42.4307 33.1706 42.062 35.0212 41.6163 35.0212H41.5661C41.1205 35.0212 40.7518 33.1843 40.7518 32.4151C39.5279 32.6278 39.1798 33.3199 39.1798 33.945C39.1798 34.2871 39.3481 34.9958 39.4975 35.4618H43.6713H43.6712ZM41.5913 34.5029C41.8235 34.5029 42.0117 33.2945 42.0117 32.6929C42.0117 32.3642 41.8236 32.1487 41.5914 32.1487C41.359 32.1487 41.1706 32.3642 41.1706 32.6929C41.1706 33.2945 41.359 34.5029 41.5914 34.5029H41.5913ZM41.3668 30.6305H41.8155L41.7595 30.0575L42.3202 30.1149V29.6566L41.7595 29.7139L41.8155 29.1409H41.3668L41.4229 29.7139L40.8622 29.6566V30.1149L41.423 30.0575L41.3669 30.6305H41.3668ZM50.6439 33.5241H49.2209C49.6975 35.7274 51.4832 36.36 53.3409 36.36L53.2778 36.1953C51.8339 36.1953 50.8964 35.1114 50.6439 33.5241ZM57.473 36.3725C58.4983 36.3725 59.4977 35.6918 59.8955 34.2685C60.2931 32.8452 61.3094 32.6109 61.3094 32.6109C61.0892 32.3661 60.0801 31.6361 59.6785 31.9124C59.6785 31.9124 59.29 32.1156 59.1313 33.6926C58.974 35.259 58.1328 36.1047 57.5362 36.1786L57.473 36.3726V36.3725ZM61.7985 32.5223C62.8637 33.4882 63.434 33.2199 64.2817 33.2475C65.129 33.2754 65.2254 33.6379 65.2254 33.6379H65.253C65.2077 33.0354 64.1957 33.206 63.2105 32.5595C62.5113 32.1009 62.0952 31.4566 61.788 31.2164C61.4805 30.9764 60.5855 31.1611 59.9439 31.5766C59.9439 31.5766 60.5409 31.3816 61.7985 32.5223ZM64.9498 33.8317C64.6537 33.4119 63.9796 33.5544 63.3575 33.5491C64.376 34.2326 63.3373 35.1308 62.8287 36.3012C62.3204 37.4719 62.9372 38.5729 62.9372 38.5729C62.9372 38.5729 62.9847 37.5342 63.4998 37.0285C63.4998 37.0285 63.6558 37.495 64.2456 37.6033C63.4389 36.6961 64.4232 35.3335 64.8174 34.7476C65.1274 34.2865 65.042 33.9624 64.9498 33.8317ZM57.1363 36.3663C57.1363 36.3663 57.2223 36.1554 57.3326 35.8508H53.4492C53.5591 36.1554 53.6455 36.3663 53.6455 36.3663H57.1363ZM55.7202 31.4326C55.7202 31.2429 55.5696 31.0889 55.3838 31.0889C55.1981 31.0889 55.0473 31.2428 55.0473 31.4326C55.0473 31.6225 55.1981 31.7763 55.3838 31.7763C55.5696 31.7763 55.7202 31.6226 55.7202 31.4326ZM57.4776 35.4618C57.627 34.9958 57.7953 34.287 57.7953 33.9451C57.7953 33.3199 57.4471 32.6278 56.2233 32.4151C56.2233 33.1842 55.8547 35.0212 55.409 35.0212H55.3589C54.9131 35.0212 54.5443 33.1706 54.5443 32.4152C53.3244 32.6282 52.9867 33.3201 52.9867 33.945C52.9867 34.2871 53.1548 34.9958 53.3039 35.4618H57.4776H57.4776ZM55.3838 34.5029C55.6162 34.5029 55.8045 33.2945 55.8045 32.6929C55.8045 32.3642 55.6162 32.1487 55.3838 32.1487C55.1515 32.1487 54.9633 32.3642 54.9633 32.6929C54.9633 33.2945 55.1515 34.5029 55.3838 34.5029ZM55.1596 30.6305H55.6082L55.5523 30.0576L56.1129 30.115V29.6566L55.5523 29.714L55.6083 29.1409H55.1597L55.2158 29.714L54.6549 29.6566V30.115L55.2158 30.0576L55.1597 30.6306L55.1596 30.6305ZM32.3207 44.4026C31.414 44.4244 29.8173 44.6045 29.0064 44.8611C29.5576 45.5211 30.9969 46.4687 31.8594 46.8711C31.1888 47.1245 29.9857 47.7676 29.484 48.2317C30.1304 48.6301 31.55 49.0853 32.2211 49.2341C31.8304 49.5501 31.026 50.4639 30.7309 50.9566C31.2865 51.1294 32.429 51.2797 33.1545 51.3222C32.9218 51.8055 32.657 52.6587 32.5868 53.2146C32.9464 53.2509 34.1478 53.189 34.7426 53.0559C34.6916 53.5404 34.711 54.4217 34.7915 54.8016C35.3783 54.7177 36.2163 54.4822 36.6062 54.332C36.7191 54.7638 37.1227 55.6938 37.2645 55.9147C37.7346 55.8247 38.2959 55.6332 38.7085 55.4177C38.8389 55.7638 39.1352 56.2817 39.217 56.4124C40.5914 55.0274 42.554 56.1506 42.554 57.6246C42.413 58.5957 41.0376 58.5414 40.3136 58.9978C39.3616 59.598 39.5264 60.9896 38.5465 61.2032C39.4724 61.7869 39.7418 60.6914 40.7034 60.6602C40.5751 61.2511 40.5873 62.3002 40.6837 62.7396C41.0795 62.435 41.6345 62.2025 41.9977 62.1789C41.908 62.5236 41.8379 63.3302 41.9678 63.8325C42.2229 63.6398 43.1757 62.8138 45.4379 63.3449C45.7121 63.4091 43.9034 63.3383 44.1291 63.92C44.3069 64.3785 44.3572 64.6973 44.1446 65.3482C44.2405 65.3826 44.3518 65.3989 44.4716 65.3989C44.9789 65.3989 45.6366 65.1055 45.8978 64.6447C46.0997 64.7943 46.0997 65.8601 45.4233 66.1248C46.1458 66.1773 46.6961 65.5922 46.8028 65.2327C46.8028 65.2327 47.156 66.0698 47.5748 66.3446C47.8378 66.2527 48.3064 65.818 48.4876 65.3666C48.6685 65.8181 49.1371 66.2527 49.4 66.3446C49.8189 66.0698 50.1722 65.2327 50.1722 65.2327C50.2789 65.5922 50.8293 66.1773 51.5518 66.1248C50.8754 65.8601 50.8754 64.7943 51.0771 64.6447C51.3385 65.1055 51.9961 65.3989 52.5035 65.3989C52.6233 65.3989 52.7346 65.3826 52.8306 65.3482C52.618 64.6973 52.6683 64.3786 52.846 63.92C53.0717 63.3383 51.263 63.4092 51.5373 63.3449C53.799 62.8138 54.7522 63.6398 55.0074 63.8325C55.1372 63.3302 55.0672 62.5236 54.9774 62.1789C55.3405 62.2025 55.8956 62.435 56.2915 62.7396C56.3875 62.3002 56.3999 61.2511 56.2715 60.6602C57.2331 60.6914 57.5024 61.7869 58.4285 61.2031C57.4486 60.9895 57.6132 59.5979 56.6613 58.9978C55.9373 58.5414 54.5619 58.5956 54.4209 57.6245C54.4209 56.1506 56.3835 55.0273 57.7579 56.4124C57.8397 56.2816 58.136 55.7637 58.2664 55.4176C58.6789 55.6333 59.2403 55.8247 59.7105 55.9147C59.8522 55.6937 60.2558 54.7637 60.3686 54.3318C60.7587 54.4821 61.5966 54.7176 62.1835 54.8016C62.2639 54.4216 62.2833 53.5404 62.2323 53.0559C62.8271 53.189 64.0283 53.2509 64.388 53.2145C64.3179 52.6586 64.0531 51.8055 63.8203 51.3221C64.5459 51.2796 65.6883 51.1293 66.2441 50.9565C65.9488 50.4637 65.1444 49.55 64.754 49.234C65.4248 49.0852 66.8445 48.63 67.491 48.2315C66.9893 47.7675 65.7861 47.1244 65.1155 46.871C65.978 46.4685 67.4173 45.521 67.9686 44.861C67.1575 44.6044 65.5609 44.4242 64.6542 44.4025C66.531 43.1258 66.5888 40.3566 66.0483 38.8518C65.6849 39.764 64.48 41.2627 63.7022 42.0707C63.7713 42.8398 63.5204 44.204 63.09 45.0366C63.7061 45.2692 64.4363 45.6202 64.9536 46.0115C64.6102 46.441 63.8718 47.1075 63.4086 47.4687C63.8006 47.8764 64.4599 48.6251 64.7537 49.058C64.3196 49.3813 63.3749 49.7522 62.8906 49.9225C63.129 50.4085 63.4751 51.2951 63.5645 51.907C63.0131 51.9977 62.254 52.0591 61.4602 52.0495C61.4988 52.6356 61.416 53.5429 61.3133 54.0863C60.5772 54.028 59.7087 53.7275 59.3215 53.5344C59.1166 54.3443 58.6104 55.1301 58.5882 55.1718C56.2873 52.6777 54.2479 55.0307 54.2479 57.229V60.2247C54.2479 61.6416 53.7989 62.2885 52.5071 62.2885H50.8354C49.7946 62.2885 48.9226 62.7276 48.4874 63.5712C48.0522 62.7276 47.1802 62.2885 46.1394 62.2885H44.4676C43.1757 62.2885 42.7267 61.6416 42.7267 60.2246V57.2289C42.7267 55.0307 40.6874 52.6777 38.3865 55.1718C38.3644 55.1301 37.858 54.3443 37.6531 53.5344C37.2659 53.7275 36.3974 54.028 35.6616 54.0863C35.5587 53.5429 35.4759 52.6356 35.5145 52.0497C34.7209 52.0592 33.9617 51.9979 33.41 51.9071C33.4997 51.2951 33.8457 50.4086 34.0842 49.9226C33.6 49.7523 32.6552 49.3814 32.2212 49.0581C32.5148 48.6253 33.1741 47.8765 33.5661 47.4688C33.1028 47.1075 32.3644 46.441 32.0212 46.0115C32.5384 45.6202 33.2687 45.2692 33.8846 45.0365C33.4544 44.204 33.2034 42.8398 33.2724 42.0707C32.4946 41.2627 31.2897 39.7639 30.9263 38.8517C30.3858 40.3566 30.4437 43.1258 32.3206 44.4025L32.3207 44.4026ZM27.1417 58.7056L26.9725 58.8852C26.9725 58.8852 27.3234 59.3413 27.6068 59.1678C27.7681 58.8717 27.3117 58.5269 27.3117 58.5269L27.1416 58.7056H27.1417Z" fill="#2A3338"/>
<path d="M91.0304 36.3705H91.223C92.2058 36.3705 93.0971 36.5931 93.8979 37.0385C94.7044 37.4779 95.3296 38.099 95.7745 38.9017C96.2242 39.7045 96.4495 40.6068 96.4495 41.6088C96.4495 42.6049 96.2242 43.5014 95.7745 44.2982C95.3296 45.0892 94.7101 45.7045 93.915 46.1439C93.1265 46.5834 92.2409 46.8061 91.2581 46.8119H91.0304V48.4818H88.9V46.8119H88.6894C87.7017 46.8119 86.8038 46.5922 85.9974 46.1528C85.1907 45.7074 84.5653 45.0892 84.121 44.2982C83.6826 43.5073 83.4634 42.6166 83.4634 41.6263C83.4634 40.6244 83.6856 39.7221 84.1298 38.9193C84.5741 38.1166 85.1966 37.4926 85.9974 37.0472C86.7981 36.5961 87.696 36.3705 88.6894 36.3705H88.9V34.6302H91.0304V36.3705ZM88.6894 38.1547C87.7074 38.1547 86.9385 38.4623 86.3834 39.0776C85.8338 39.6927 85.559 40.5424 85.559 41.6263C85.559 42.6811 85.8338 43.5131 86.3834 44.1225C86.9328 44.7259 87.7099 45.0278 88.7155 45.0278H88.9V38.1547H88.6894ZM91.0304 38.1547V45.0278H91.241C92.2229 45.0278 92.9861 44.7201 93.5298 44.1049C94.0791 43.4897 94.3534 42.6576 94.3534 41.6088C94.3534 40.5365 94.0791 39.6927 93.5298 39.0776C92.9861 38.4623 92.214 38.1547 91.2149 38.1547H91.0304ZM101.991 48.1302C100.641 48.1302 99.5447 47.7054 98.7032 46.8558C97.8673 46.0004 97.4494 44.8636 97.4494 43.4457V43.182C97.4494 42.2328 97.6306 41.3861 97.993 40.642C98.3612 39.892 98.8754 39.309 99.5358 38.893C100.197 38.4769 100.933 38.2689 101.746 38.2689C103.037 38.2689 104.034 38.682 104.736 39.5082C105.443 40.3344 105.796 41.5033 105.796 43.015V43.8763H99.5978C99.6615 44.6616 99.9219 45.2826 100.378 45.7397C100.839 46.1967 101.418 46.4252 102.114 46.4252C103.091 46.4252 103.886 46.0297 104.499 45.2387L105.648 46.3373C105.268 46.9057 104.759 47.3481 104.122 47.6644C103.491 47.975 102.78 48.1302 101.991 48.1302ZM101.737 39.9828C101.153 39.9828 100.679 40.1879 100.317 40.5981C99.9602 41.0082 99.7317 41.5795 99.6329 42.3119H103.692V42.1537C103.646 41.4389 103.455 40.8998 103.122 40.5365C102.789 40.1674 102.327 39.9828 101.737 39.9828ZM107.138 46.2494C107.729 45.5873 108.124 44.9604 108.323 44.3686C108.527 43.7709 108.65 43.0092 108.691 42.0834L108.813 38.4448H115.399V46.2494H116.714V50.7846H114.592V47.9545H108.506V50.7846H106.35L106.358 46.2494H107.138ZM109.638 46.2494H113.277V40.2817H110.883L110.821 42.101C110.74 43.8471 110.345 45.2299 109.638 46.2494ZM122.054 48.1302C120.704 48.1302 119.607 47.7054 118.766 46.8558C117.93 46.0004 117.512 44.8636 117.512 43.4457V43.182C117.512 42.2328 117.693 41.3861 118.056 40.642C118.424 39.892 118.938 39.309 119.598 38.893C120.26 38.4769 120.996 38.2689 121.809 38.2689C123.1 38.2689 124.097 38.682 124.799 39.5082C125.506 40.3344 125.859 41.5033 125.859 43.015V43.8763H119.661C119.724 44.6616 119.985 45.2826 120.441 45.7397C120.902 46.1967 121.481 46.4252 122.177 46.4252C123.153 46.4252 123.948 46.0297 124.562 45.2387L125.711 46.3373C125.33 46.9057 124.822 47.3481 124.185 47.6644C123.553 47.975 122.843 48.1302 122.054 48.1302ZM121.8 39.9828C121.215 39.9828 120.742 40.1879 120.38 40.5981C120.023 41.0082 119.794 41.5795 119.696 42.3119H123.755V42.1537C123.708 41.4389 123.518 40.8998 123.185 40.5365C122.852 40.1674 122.39 39.9828 121.8 39.9828ZM135.47 43.2963C135.47 44.767 135.137 45.9418 134.471 46.8207C133.804 47.6937 132.91 48.1302 131.788 48.1302C130.747 48.1302 129.914 47.7875 129.288 47.1019V51.6108H127.158V38.4448H129.122L129.209 39.4115C129.835 38.6498 130.686 38.2689 131.761 38.2689C132.918 38.2689 133.824 38.7026 134.479 39.5698C135.14 40.4311 135.47 41.6293 135.47 43.1644V43.2963ZM133.348 43.1118C133.348 42.1625 133.158 41.4096 132.778 40.8529C132.404 40.2963 131.866 40.018 131.165 40.018C130.294 40.018 129.669 40.3783 129.288 41.099V45.3177C129.674 46.0561 130.305 46.4252 131.182 46.4252C131.86 46.4252 132.389 46.1528 132.77 45.6078C133.155 45.0571 133.348 44.225 133.348 43.1118ZM142.59 47.9545C142.497 47.7729 142.415 47.4769 142.345 47.0668C141.667 47.7758 140.837 48.1302 139.855 48.1302C138.901 48.1302 138.124 47.8578 137.522 47.3129C136.92 46.768 136.619 46.0941 136.619 45.2914C136.619 44.2777 136.993 43.5014 137.741 42.9623C138.496 42.4174 139.571 42.1449 140.968 42.1449H142.275V41.5209C142.275 41.0288 142.137 40.6361 141.863 40.3432C141.588 40.0443 141.17 39.8949 140.609 39.8949C140.123 39.8949 139.726 40.018 139.416 40.2641C139.106 40.5043 138.951 40.8119 138.951 41.1869H136.821C136.821 40.6654 136.993 40.1791 137.338 39.7279C137.683 39.2709 138.15 38.9135 138.741 38.6557C139.337 38.3979 140.001 38.2689 140.731 38.2689C141.842 38.2689 142.728 38.5502 143.388 39.1127C144.049 39.6693 144.388 40.4545 144.405 41.4682V45.7573C144.405 46.6127 144.525 47.2953 144.764 47.8051V47.9545H142.59ZM140.249 46.4164C140.67 46.4164 141.064 46.3139 141.432 46.1088C141.807 45.9037 142.087 45.6283 142.275 45.2826V43.4897H141.126C140.337 43.4897 139.744 43.6274 139.346 43.9028C138.949 44.1781 138.749 44.5678 138.749 45.0717C138.749 45.4819 138.884 45.81 139.153 46.0561C139.428 46.2963 139.793 46.4164 140.249 46.4164ZM154.34 38.4448V47.9545H152.21V40.1674H149.526L149.351 43.4808C149.24 45.0746 148.933 46.2201 148.43 46.9174C147.933 47.6088 147.171 47.9545 146.141 47.9545H145.484L145.475 46.1791L145.914 46.1352C146.381 46.0707 146.72 45.7866 146.931 45.2826C147.147 44.7728 147.284 43.8471 147.343 42.5052L147.518 38.4448H154.34ZM158.54 41.4682H160.628C161.405 41.4682 162.083 41.6029 162.662 41.8725C163.24 42.142 163.679 42.5199 163.977 43.0062C164.281 43.4925 164.433 44.058 164.433 44.7025C164.433 45.6811 164.088 46.4662 163.398 47.058C162.708 47.6498 161.791 47.9486 160.645 47.9545H156.41V38.4448H158.54V41.4682ZM158.54 43.182V46.2494H160.619C161.139 46.2494 161.548 46.1205 161.846 45.8627C162.15 45.599 162.302 45.2269 162.302 44.7465C162.302 44.266 162.153 43.888 161.855 43.6127C161.563 43.3314 161.165 43.1879 160.663 43.182H158.54ZM173.816 47.9545H171.685V44.1137H167.993V47.9545H165.862V38.4448H167.993V42.4086H171.685V38.4448H173.816V47.9545ZM175.332 43.1118C175.332 42.1801 175.517 41.3422 175.885 40.5981C176.253 39.848 176.771 39.2738 177.438 38.8754C178.104 38.4711 178.869 38.2689 179.734 38.2689C181.014 38.2689 182.052 38.682 182.847 39.5082C183.648 40.3344 184.081 41.4301 184.145 42.7953L184.154 43.2963C184.154 44.2338 183.972 45.0717 183.61 45.81C183.253 46.5482 182.739 47.1195 182.066 47.5238C181.4 47.9281 180.629 48.1302 179.752 48.1302C178.413 48.1302 177.34 47.685 176.534 46.7943C175.733 45.8978 175.332 44.7055 175.332 43.2172V43.1118ZM177.464 43.2963C177.464 44.2748 177.665 45.0424 178.068 45.599C178.472 46.1498 179.033 46.4252 179.752 46.4252C180.471 46.4252 181.029 46.1439 181.427 45.5814C181.83 45.0189 182.031 44.1957 182.031 43.1118C182.031 42.1508 181.824 41.3891 181.409 40.8266C181 40.2641 180.442 39.9828 179.734 39.9828C179.039 39.9828 178.486 40.2611 178.077 40.8177C177.668 41.3685 177.464 42.1947 177.464 43.2963ZM189.774 48.1302C188.424 48.1302 187.328 47.7054 186.487 46.8558C185.651 46.0004 185.233 44.8636 185.233 43.4457V43.182C185.233 42.2328 185.414 41.3861 185.776 40.642C186.144 39.892 186.659 39.309 187.319 38.893C187.98 38.4769 188.717 38.2689 189.529 38.2689C190.821 38.2689 191.817 38.682 192.519 39.5082C193.226 40.3344 193.58 41.5033 193.58 43.015V43.8763H187.381C187.445 44.6616 187.705 45.2826 188.161 45.7397C188.623 46.1967 189.201 46.4252 189.898 46.4252C190.874 46.4252 191.669 46.0297 192.282 45.2387L193.431 46.3373C193.051 46.9057 192.542 47.3481 191.906 47.6644C191.274 47.975 190.564 48.1302 189.774 48.1302ZM189.521 39.9828C188.936 39.9828 188.462 40.1879 188.099 40.5981C187.744 41.0082 187.515 41.5795 187.416 42.3119H191.475V42.1537C191.429 41.4389 191.239 40.8998 190.906 40.5365C190.573 40.1674 190.111 39.9828 189.521 39.9828ZM89.5309 65.9545C89.4379 65.7728 89.3554 65.4769 89.2852 65.0667C88.6077 65.7758 87.7776 66.1302 86.7957 66.1302C85.8425 66.1302 85.0651 65.8578 84.463 65.3129C83.8609 64.7679 83.5599 64.0941 83.5599 63.2914C83.5599 62.2777 83.9339 61.5014 84.6822 60.9623C85.4363 60.4173 86.5116 60.1449 87.909 60.1449H89.2159V59.5209C89.2159 59.0287 89.0779 58.6361 88.8036 58.3432C88.5286 58.0443 88.1106 57.8949 87.5491 57.8949C87.0642 57.8949 86.6667 58.018 86.3573 58.2641C86.0471 58.5043 85.8922 58.8119 85.8922 59.1869H83.7616C83.7616 58.6654 83.9339 58.1791 84.2789 57.7279C84.6238 57.2709 85.0914 56.9135 85.6818 56.6557C86.2781 56.3979 86.9418 56.2689 87.6723 56.2689C88.7832 56.2689 89.6689 56.5502 90.3292 57.1127C90.9896 57.6693 91.3283 58.4545 91.3463 59.4682V63.7572C91.3463 64.6127 91.4663 65.2953 91.7054 65.8051V65.9545H89.5309ZM87.1899 64.4164C87.6111 64.4164 88.0053 64.3139 88.3735 64.1087C88.7481 63.9037 89.0281 63.6283 89.2159 63.2826V61.4897H88.0666C87.2772 61.4897 86.6846 61.6274 86.2871 61.9028C85.8893 62.1781 85.6905 62.5678 85.6905 63.0717C85.6905 63.4818 85.825 63.8099 86.0937 64.056C86.3688 64.2963 86.7336 64.4164 87.1899 64.4164ZM99.5358 58.1674H95.4153V65.9545H93.293V56.4448H99.5358V58.1674ZM104.385 66.1302C103.035 66.1302 101.939 65.7054 101.097 64.8558C100.261 64.0004 99.8435 62.8636 99.8435 61.4457V61.182C99.8435 60.2328 100.025 59.3861 100.387 58.642C100.755 57.892 101.269 57.309 101.931 56.893C102.591 56.4769 103.327 56.2689 104.14 56.2689C105.432 56.2689 106.428 56.682 107.13 57.5082C107.837 58.3343 108.191 59.5033 108.191 61.015V61.8763H101.992C102.056 62.6615 102.316 63.2826 102.772 63.7397C103.234 64.1967 103.813 64.4252 104.508 64.4252C105.485 64.4252 106.28 64.0297 106.893 63.2387L108.042 64.3373C107.662 64.9056 107.153 65.348 106.516 65.6644C105.885 65.975 105.174 66.1302 104.385 66.1302ZM104.131 57.9828C103.547 57.9828 103.073 58.1879 102.711 58.598C102.354 59.0082 102.126 59.5795 102.027 60.3119H106.086V60.1537C106.04 59.4389 105.849 58.8998 105.516 58.5365C105.183 58.1674 104.721 57.9828 104.131 57.9828ZM117.529 65.9545H115.399V62.1137H111.708V65.9545H109.577V56.4448H111.708V60.4086H115.399V56.4448H117.529V65.9545ZM126.912 58.141H123.834V65.9545H121.704V58.141H118.661V56.4448H126.912V58.141ZM131.314 64.4252C131.846 64.4252 132.287 64.2699 132.638 63.9593C132.989 63.6488 133.176 63.265 133.199 62.808H135.207C135.184 63.3998 135 63.9535 134.655 64.4691C134.31 64.9789 133.842 65.3832 133.252 65.682C132.662 65.9808 132.024 66.1302 131.34 66.1302C130.013 66.1302 128.961 65.6996 128.184 64.8382C127.406 63.9769 127.017 62.7875 127.017 61.2699V61.0502C127.017 59.6029 127.404 58.4457 128.175 57.5785C128.947 56.7054 129.999 56.2689 131.331 56.2689C132.46 56.2689 133.378 56.6 134.085 57.2621C134.798 57.9184 135.172 58.7826 135.207 59.8549H133.199C133.176 59.3099 132.989 58.8617 132.638 58.5102C132.293 58.1586 131.852 57.9828 131.314 57.9828C130.624 57.9828 130.092 58.2348 129.718 58.7387C129.344 59.2367 129.154 59.9955 129.149 61.015V61.3578C129.149 62.3891 129.332 63.1596 129.7 63.6693C130.075 64.1732 130.613 64.4252 131.314 64.4252ZM143.924 58.141H140.846V65.9545H138.715V58.141H135.672V56.4448H143.924V58.141ZM145.151 65.9545V56.4448H149.001C150.299 56.4448 151.286 56.6732 151.965 57.1302C152.642 57.5815 152.982 58.2318 152.982 59.0814C152.982 59.5209 152.844 59.9164 152.569 60.2679C152.3 60.6136 151.9 60.8803 151.368 61.0677C151.987 61.1967 152.479 61.4574 152.841 61.85C153.204 62.2425 153.385 62.7055 153.385 63.2387C153.385 64.1234 153.058 64.7972 152.403 65.2602C151.754 65.723 150.819 65.9545 149.597 65.9545H145.151ZM147.282 61.9028V64.267H149.615C150.708 64.267 151.254 63.8744 151.254 63.0892C151.254 62.2982 150.699 61.9028 149.588 61.9028H147.282ZM147.282 60.3734H149.036C150.246 60.3734 150.85 60.016 150.85 59.3012C150.85 58.5512 150.278 58.1644 149.132 58.141H147.282V60.3734ZM154.472 61.1117C154.472 60.1801 154.657 59.3422 155.025 58.598C155.393 57.848 155.91 57.2738 156.576 56.8754C157.243 56.4711 158.009 56.2689 158.874 56.2689C160.154 56.2689 161.192 56.682 161.987 57.5082C162.787 58.3343 163.22 59.43 163.284 60.7953L163.293 61.2962C163.293 62.2338 163.112 63.0717 162.75 63.8099C162.393 64.5482 161.879 65.1195 161.206 65.5238C160.54 65.9281 159.769 66.1302 158.891 66.1302C157.553 66.1302 156.48 65.685 155.674 64.7943C154.873 63.8978 154.472 62.7055 154.472 61.2172V61.1117ZM156.603 61.2962C156.603 62.2748 156.805 63.0424 157.208 63.599C157.611 64.1498 158.173 64.4252 158.891 64.4252C159.61 64.4252 160.169 64.1439 160.566 63.5814C160.97 63.0189 161.171 62.1957 161.171 61.1117C161.171 60.1508 160.964 59.3891 160.549 58.8266C160.139 58.2641 159.581 57.9828 158.874 57.9828C158.179 57.9828 157.626 58.2611 157.217 58.8177C156.807 59.3685 156.603 60.1947 156.603 61.2962ZM176.894 65.9545H174.763V58.1674H171.063V65.9545H168.932V56.4448H176.894V65.9545ZM178.402 61.1117C178.402 60.1801 178.587 59.3422 178.955 58.598C179.323 57.848 179.841 57.2738 180.507 56.8754C181.174 56.4711 181.939 56.2689 182.804 56.2689C184.084 56.2689 185.122 56.682 185.917 57.5082C186.718 58.3343 187.15 59.43 187.215 60.7953L187.224 61.2962C187.224 62.2338 187.042 63.0717 186.68 63.8099C186.323 64.5482 185.809 65.1195 185.136 65.5238C184.47 65.9281 183.698 66.1302 182.822 66.1302C181.483 66.1302 180.41 65.685 179.604 64.7943C178.803 63.8978 178.402 62.7055 178.402 61.2172V61.1117ZM180.533 61.2962C180.533 62.2748 180.734 63.0424 181.138 63.599C181.542 64.1498 182.102 64.4252 182.822 64.4252C183.541 64.4252 184.099 64.1439 184.496 63.5814C184.9 63.0189 185.101 62.1957 185.101 61.1117C185.101 60.1508 184.894 59.3891 184.479 58.8266C184.07 58.2641 183.511 57.9828 182.804 57.9828C182.108 57.9828 181.556 58.2611 181.147 58.8177C180.738 59.3685 180.533 60.1947 180.533 61.2962ZM200.245 58.141H197.167V65.9545H195.037V58.141H191.994V56.4448H200.245V58.141ZM204.735 62.8959L206.664 56.4448H208.935L205.164 67.3959C204.585 68.9955 203.603 69.7953 202.218 69.7953C201.909 69.7953 201.567 69.7426 201.192 69.6371V67.9847L201.595 68.0111C202.133 68.0111 202.537 67.9115 202.806 67.7123C203.08 67.5189 203.296 67.1908 203.455 66.7279L203.762 65.9105L200.43 56.4448H202.727L204.735 62.8959ZM218.116 61.2962C218.116 62.767 217.783 63.9417 217.116 64.8207C216.45 65.6937 215.555 66.1302 214.433 66.1302C213.393 66.1302 212.559 65.7875 211.934 65.1019V69.6108H209.804V56.4448H211.768L211.855 57.4115C212.48 56.6498 213.331 56.2689 214.407 56.2689C215.564 56.2689 216.47 56.7026 217.125 57.5698C217.785 58.4311 218.116 59.6293 218.116 61.1644V61.2962ZM215.993 61.1117C215.993 60.1625 215.804 59.4096 215.424 58.8529C215.05 58.2963 214.512 58.018 213.811 58.018C212.94 58.018 212.314 58.3783 211.934 59.099V63.3177C212.32 64.056 212.951 64.4252 213.828 64.4252C214.506 64.4252 215.035 64.1528 215.415 63.6078C215.801 63.057 215.993 62.225 215.993 61.1117ZM225.49 56.4448H227.612V65.9545H225.49V59.6087L221.772 65.9545H219.65V56.4448H221.772V62.7904L225.49 56.4448ZM236.705 59.0462C236.705 59.4682 236.577 59.8578 236.32 60.2153C236.068 60.5667 235.712 60.848 235.25 61.059C236.337 61.4398 236.88 62.1752 236.88 63.265C236.88 64.138 236.527 64.8354 235.819 65.3568C235.112 65.8724 234.166 66.1302 232.979 66.1302C232.254 66.1302 231.594 66.0101 230.997 65.7699C230.401 65.5238 229.936 65.1781 229.603 64.7328C229.27 64.2816 229.103 63.7484 229.103 63.1332H231.225C231.225 63.5199 231.398 63.8451 231.742 64.1087C232.087 64.3665 232.522 64.4955 233.049 64.4955C233.569 64.4955 233.981 64.3754 234.286 64.1352C234.595 63.8891 234.75 63.5697 234.75 63.1772C234.75 62.7142 234.615 62.3802 234.347 62.1752C234.077 61.9701 233.663 61.8676 233.101 61.8676H231.576V60.3295H233.154C234.107 60.3178 234.584 59.9252 234.584 59.1517C234.584 58.765 234.446 58.4633 234.171 58.2465C233.896 58.0297 233.519 57.9212 233.04 57.9212C232.572 57.9212 232.178 58.0385 231.856 58.2728C231.535 58.5013 231.374 58.7914 231.374 59.1429H229.253C229.253 58.305 229.603 57.6195 230.305 57.0863C231.006 56.5473 231.897 56.2778 232.979 56.2778C234.153 56.2778 235.068 56.518 235.723 56.9984C236.378 57.4789 236.705 58.1615 236.705 59.0462ZM243.966 63.3266L246.772 56.4448H249.437V65.9545H247.306V59.6615L244.694 65.9545H243.247L240.625 59.6263V65.9545H238.494V56.4448H241.177L243.966 63.3266ZM254.795 62.8959L256.724 56.4448H258.995L255.225 67.3959C254.646 68.9955 253.664 69.7953 252.278 69.7953C251.969 69.7953 251.627 69.7426 251.253 69.6371V67.9847L251.656 68.0111C252.194 68.0111 252.597 67.9115 252.866 67.7123C253.141 67.5189 253.357 67.1908 253.515 66.7279L253.822 65.9105L250.49 56.4448H252.787L254.795 62.8959Z" fill="#2A3338"/>
<rect x="0.5" y="0.5" width="281" height="99.396" stroke="#E2E8EE"/>
</svg>
