<svg width="384" height="180" viewBox="0 0 384 180" fill="none" xmlns="http://www.w3.org/2000/svg">
<line x1="165.8" y1="-331.906" x2="-230.18" y2="64.0742" stroke="#E2E8EE"/>
<line x1="169.336" y1="-328.37" x2="-226.644" y2="67.6097" stroke="#E2E8EE"/>
<line x1="172.871" y1="-324.835" x2="-223.109" y2="71.1452" stroke="#E2E8EE"/>
<line x1="176.407" y1="-321.299" x2="-219.573" y2="74.6807" stroke="#E2E8EE"/>
<line x1="179.942" y1="-317.764" x2="-216.038" y2="78.2162" stroke="#E2E8EE"/>
<line x1="183.478" y1="-314.228" x2="-212.502" y2="81.7519" stroke="#E2E8EE"/>
<line x1="187.013" y1="-310.692" x2="-208.966" y2="85.2874" stroke="#E2E8EE"/>
<line x1="190.549" y1="-307.157" x2="-205.431" y2="88.8229" stroke="#E2E8EE"/>
<line x1="194.084" y1="-303.621" x2="-201.895" y2="92.3585" stroke="#E2E8EE"/>
<line x1="197.62" y1="-300.086" x2="-198.36" y2="95.894" stroke="#E2E8EE"/>
<line x1="201.155" y1="-296.55" x2="-194.824" y2="99.4295" stroke="#E2E8EE"/>
<line x1="204.691" y1="-293.015" x2="-191.289" y2="102.965" stroke="#E2E8EE"/>
<line x1="208.226" y1="-289.479" x2="-187.753" y2="106.501" stroke="#E2E8EE"/>
<line x1="211.762" y1="-285.944" x2="-184.218" y2="110.036" stroke="#E2E8EE"/>
<line x1="215.298" y1="-282.408" x2="-180.682" y2="113.572" stroke="#E2E8EE"/>
<line x1="218.833" y1="-278.873" x2="-177.147" y2="117.107" stroke="#E2E8EE"/>
<line x1="222.369" y1="-275.337" x2="-173.611" y2="120.643" stroke="#E2E8EE"/>
<line x1="225.904" y1="-271.801" x2="-170.076" y2="124.178" stroke="#E2E8EE"/>
<line x1="229.44" y1="-268.266" x2="-166.54" y2="127.714" stroke="#E2E8EE"/>
<line x1="232.975" y1="-264.73" x2="-163.005" y2="131.249" stroke="#E2E8EE"/>
<line x1="236.511" y1="-261.195" x2="-159.469" y2="134.785" stroke="#E2E8EE"/>
<line x1="240.046" y1="-257.659" x2="-155.933" y2="138.32" stroke="#E2E8EE"/>
<line x1="243.582" y1="-254.124" x2="-152.398" y2="141.856" stroke="#E2E8EE"/>
<line x1="247.117" y1="-250.588" x2="-148.862" y2="145.391" stroke="#E2E8EE"/>
<line x1="250.653" y1="-247.053" x2="-145.327" y2="148.927" stroke="#E2E8EE"/>
<line x1="254.189" y1="-243.517" x2="-141.791" y2="152.462" stroke="#E2E8EE"/>
<line x1="257.724" y1="-239.982" x2="-138.256" y2="155.998" stroke="#E2E8EE"/>
<line x1="261.26" y1="-236.446" x2="-134.72" y2="159.534" stroke="#E2E8EE"/>
<line x1="264.795" y1="-232.911" x2="-131.185" y2="163.069" stroke="#E2E8EE"/>
<line x1="268.331" y1="-229.375" x2="-127.649" y2="166.605" stroke="#E2E8EE"/>
<line x1="271.866" y1="-225.84" x2="-124.114" y2="170.14" stroke="#E2E8EE"/>
<line x1="275.402" y1="-222.304" x2="-120.578" y2="173.676" stroke="#E2E8EE"/>
<line x1="278.937" y1="-218.769" x2="-117.043" y2="177.211" stroke="#E2E8EE"/>
<line x1="282.473" y1="-215.233" x2="-113.507" y2="180.747" stroke="#E2E8EE"/>
<line x1="286.008" y1="-211.697" x2="-109.971" y2="184.282" stroke="#E2E8EE"/>
<line x1="289.544" y1="-208.162" x2="-106.436" y2="187.818" stroke="#E2E8EE"/>
<line x1="293.079" y1="-204.626" x2="-102.9" y2="191.353" stroke="#E2E8EE"/>
<line x1="296.615" y1="-201.091" x2="-99.365" y2="194.889" stroke="#E2E8EE"/>
<line x1="300.15" y1="-197.555" x2="-95.8294" y2="198.424" stroke="#E2E8EE"/>
<line x1="303.686" y1="-194.02" x2="-92.294" y2="201.96" stroke="#E2E8EE"/>
<line x1="307.221" y1="-190.484" x2="-88.7584" y2="205.496" stroke="#E2E8EE"/>
<line x1="310.757" y1="-186.949" x2="-85.223" y2="209.031" stroke="#E2E8EE"/>
<line x1="314.293" y1="-183.413" x2="-81.6873" y2="212.567" stroke="#E2E8EE"/>
<line x1="317.828" y1="-179.878" x2="-78.1517" y2="216.102" stroke="#E2E8EE"/>
<line x1="321.364" y1="-176.342" x2="-74.6163" y2="219.638" stroke="#E2E8EE"/>
<line x1="324.899" y1="-172.807" x2="-71.0806" y2="223.173" stroke="#E2E8EE"/>
<line x1="328.435" y1="-169.271" x2="-67.5452" y2="226.709" stroke="#E2E8EE"/>
<line x1="331.97" y1="-165.736" x2="-64.0096" y2="230.244" stroke="#E2E8EE"/>
<line x1="335.506" y1="-162.2" x2="-60.4742" y2="233.78" stroke="#E2E8EE"/>
<line x1="339.041" y1="-158.664" x2="-56.9385" y2="237.315" stroke="#E2E8EE"/>
<line x1="342.577" y1="-155.129" x2="-53.4031" y2="240.851" stroke="#E2E8EE"/>
<line x1="346.112" y1="-151.593" x2="-49.8675" y2="244.386" stroke="#E2E8EE"/>
<line x1="349.648" y1="-148.058" x2="-46.3321" y2="247.922" stroke="#E2E8EE"/>
<line x1="353.183" y1="-144.522" x2="-42.7964" y2="251.457" stroke="#E2E8EE"/>
<line x1="356.719" y1="-140.987" x2="-39.2608" y2="254.993" stroke="#E2E8EE"/>
<line x1="360.254" y1="-137.451" x2="-35.7254" y2="258.529" stroke="#E2E8EE"/>
<line x1="363.79" y1="-133.916" x2="-32.1897" y2="262.064" stroke="#E2E8EE"/>
<line x1="367.325" y1="-130.38" x2="-28.6543" y2="265.6" stroke="#E2E8EE"/>
<line x1="370.861" y1="-126.845" x2="-25.1187" y2="269.135" stroke="#E2E8EE"/>
<line x1="374.397" y1="-123.309" x2="-21.5833" y2="272.671" stroke="#E2E8EE"/>
<line x1="377.932" y1="-119.774" x2="-18.0477" y2="276.206" stroke="#E2E8EE"/>
<line x1="381.468" y1="-116.238" x2="-14.5123" y2="279.742" stroke="#E2E8EE"/>
<line x1="385.003" y1="-112.702" x2="-10.9766" y2="283.277" stroke="#E2E8EE"/>
<line x1="388.539" y1="-109.167" x2="-7.44121" y2="286.813" stroke="#E2E8EE"/>
<line x1="392.074" y1="-105.631" x2="-3.90557" y2="290.348" stroke="#E2E8EE"/>
<line x1="395.61" y1="-102.096" x2="-0.369923" y2="293.884" stroke="#E2E8EE"/>
<line x1="399.145" y1="-98.5604" x2="3.16548" y2="297.419" stroke="#E2E8EE"/>
<line x1="402.681" y1="-95.0249" x2="6.70112" y2="300.955" stroke="#E2E8EE"/>
<line x1="406.216" y1="-91.4893" x2="10.2365" y2="304.49" stroke="#E2E8EE"/>
<line x1="409.752" y1="-87.9538" x2="13.7722" y2="308.026" stroke="#E2E8EE"/>
<line x1="413.287" y1="-84.4182" x2="17.3076" y2="311.562" stroke="#E2E8EE"/>
<line x1="416.823" y1="-80.8827" x2="20.8432" y2="315.097" stroke="#E2E8EE"/>
<line x1="420.358" y1="-77.3471" x2="24.3786" y2="318.633" stroke="#E2E8EE"/>
<line x1="423.894" y1="-73.8116" x2="27.9143" y2="322.168" stroke="#E2E8EE"/>
<line x1="427.429" y1="-70.2761" x2="31.4497" y2="325.704" stroke="#E2E8EE"/>
<line x1="430.965" y1="-66.7406" x2="34.9853" y2="329.239" stroke="#E2E8EE"/>
<line x1="434.501" y1="-63.205" x2="38.5209" y2="332.775" stroke="#E2E8EE"/>
<line x1="438.036" y1="-59.6695" x2="42.0563" y2="336.31" stroke="#E2E8EE"/>
<line x1="441.572" y1="-56.134" x2="45.592" y2="339.846" stroke="#E2E8EE"/>
<line x1="445.107" y1="-52.5985" x2="49.1274" y2="343.381" stroke="#E2E8EE"/>
<line x1="448.643" y1="-49.063" x2="52.663" y2="346.917" stroke="#E2E8EE"/>
<line x1="452.178" y1="-45.5273" x2="56.1984" y2="350.452" stroke="#E2E8EE"/>
<line x1="455.714" y1="-41.9918" x2="59.7341" y2="353.988" stroke="#E2E8EE"/>
<line x1="459.249" y1="-38.4563" x2="63.2695" y2="357.523" stroke="#E2E8EE"/>
<line x1="462.785" y1="-34.9207" x2="66.8051" y2="361.059" stroke="#E2E8EE"/>
<line x1="466.32" y1="-31.3852" x2="70.3405" y2="364.595" stroke="#E2E8EE"/>
<line x1="469.856" y1="-27.8497" x2="73.8762" y2="368.13" stroke="#E2E8EE"/>
<line x1="473.392" y1="-24.3142" x2="77.4118" y2="371.666" stroke="#E2E8EE"/>
<line x1="476.927" y1="-20.7786" x2="80.9472" y2="375.201" stroke="#E2E8EE"/>
<line x1="480.463" y1="-17.2431" x2="84.4829" y2="378.737" stroke="#E2E8EE"/>
<line x1="483.998" y1="-13.7076" x2="88.0183" y2="382.272" stroke="#E2E8EE"/>
<line x1="487.534" y1="-10.1721" x2="91.5539" y2="385.808" stroke="#E2E8EE"/>
<line x1="491.069" y1="-6.63644" x2="95.0893" y2="389.343" stroke="#E2E8EE"/>
<line x1="494.605" y1="-3.10091" x2="98.6249" y2="392.879" stroke="#E2E8EE"/>
<line x1="498.14" y1="0.434608" x2="102.16" y2="396.414" stroke="#E2E8EE"/>
<line x1="501.676" y1="3.97013" x2="105.696" y2="399.95" stroke="#E2E8EE"/>
<line x1="505.211" y1="7.50565" x2="109.231" y2="403.485" stroke="#E2E8EE"/>
<line x1="508.747" y1="11.0412" x2="112.767" y2="407.021" stroke="#E2E8EE"/>
<line x1="512.283" y1="14.5767" x2="116.303" y2="410.556" stroke="#E2E8EE"/>
<line x1="515.818" y1="18.1122" x2="119.838" y2="414.092" stroke="#E2E8EE"/>
<line x1="519.354" y1="21.6477" x2="123.374" y2="417.628" stroke="#E2E8EE"/>
<line x1="522.889" y1="25.1833" x2="126.909" y2="421.163" stroke="#E2E8EE"/>
<line x1="526.425" y1="28.7189" x2="130.445" y2="424.699" stroke="#E2E8EE"/>
<line x1="529.96" y1="32.2544" x2="133.98" y2="428.234" stroke="#E2E8EE"/>
<line x1="533.496" y1="35.79" x2="137.516" y2="431.77" stroke="#E2E8EE"/>
<line x1="537.031" y1="39.3255" x2="141.051" y2="435.305" stroke="#E2E8EE"/>
<line x1="540.567" y1="42.861" x2="144.587" y2="438.841" stroke="#E2E8EE"/>
<line x1="544.102" y1="46.3965" x2="148.122" y2="442.376" stroke="#E2E8EE"/>
<line x1="547.638" y1="49.932" x2="151.658" y2="445.912" stroke="#E2E8EE"/>
<line x1="551.173" y1="53.4676" x2="155.194" y2="449.447" stroke="#E2E8EE"/>
<line x1="554.709" y1="57.0031" x2="158.729" y2="452.983" stroke="#E2E8EE"/>
<line x1="558.244" y1="60.5386" x2="162.265" y2="456.518" stroke="#E2E8EE"/>
<line x1="561.78" y1="64.0741" x2="165.8" y2="460.054" stroke="#E2E8EE"/>
<line x1="565.315" y1="67.6098" x2="169.336" y2="463.59" stroke="#E2E8EE"/>
<line x1="568.851" y1="71.1453" x2="172.871" y2="467.125" stroke="#E2E8EE"/>
<line x1="572.387" y1="74.6808" x2="176.407" y2="470.661" stroke="#E2E8EE"/>
<line x1="575.922" y1="78.2163" x2="179.942" y2="474.196" stroke="#E2E8EE"/>
<line x1="579.458" y1="81.7519" x2="183.478" y2="477.732" stroke="#E2E8EE"/>
<line x1="582.993" y1="85.2874" x2="187.013" y2="481.267" stroke="#E2E8EE"/>
<line x1="586.529" y1="88.8229" x2="190.549" y2="484.803" stroke="#E2E8EE"/>
<line x1="590.064" y1="92.3584" x2="194.084" y2="488.338" stroke="#E2E8EE"/>
<line x1="593.6" y1="95.894" x2="197.62" y2="491.874" stroke="#E2E8EE"/>
<line x1="597.135" y1="99.4295" x2="201.155" y2="495.409" stroke="#E2E8EE"/>
<line x1="600.671" y1="102.965" x2="204.691" y2="498.945" stroke="#E2E8EE"/>
<line x1="604.206" y1="106.501" x2="208.227" y2="502.48" stroke="#E2E8EE"/>
<line x1="607.742" y1="110.036" x2="211.762" y2="506.016" stroke="#E2E8EE"/>
<line x1="611.277" y1="113.572" x2="215.298" y2="509.551" stroke="#E2E8EE"/>
<line x1="614.813" y1="117.107" x2="218.833" y2="513.087" stroke="#E2E8EE"/>
</svg>
