<svg width="180" height="82" viewBox="0 0 180 82" fill="none" xmlns="http://www.w3.org/2000/svg">
<g clip-path="url(#clip0_1:43)">
<path d="M118.925 75.5922L135.742 82L144.778 58.5386L127.961 52.1052L118.925 75.5922Z" fill="#E6280F"/>
<path d="M122.662 9.70113L130.392 52.0542L180 43.0424L172.27 0.689298L122.662 9.70113Z" fill="#F59600"/>
<path d="M107.227 71.8138C127.116 71.8138 143.217 55.7304 143.217 35.9197C143.217 16.109 127.116 0 107.227 0C87.3378 0 71.2115 16.0834 71.2115 35.8942C71.2115 55.7049 87.3378 71.8138 107.227 71.8138Z" fill="#7D9B1E"/>
<path d="M179.872 55.0411L160.316 16.5941C153.302 20.1426 148.49 27.4185 148.49 35.8176C148.49 47.7398 158.165 57.3898 170.119 57.3898C173.601 57.3898 176.954 56.5474 179.872 55.0411Z" fill="#780050"/>
<path d="M111.578 64.538C113.575 64.538 115.188 62.9297 115.188 60.9384C115.188 58.9471 113.575 57.3388 111.578 57.3388C109.582 57.3388 107.969 58.9471 107.969 60.9384C107.969 62.9297 109.582 64.538 111.578 64.538Z" fill="#8CD2FF"/>
<path d="M7.19283 35.8176H0V42.9913H7.19283V35.8176Z" fill="#E6280F"/>
<path d="M92.8925 63.9253L97.6792 13.9134L25.9557 7.12266L21.1946 57.1345L92.8925 63.9253Z" fill="#780050"/>
<path d="M61.8942 71.4819L73.6689 0.689292L72.0563 0.40847L60.256 71.2011L61.8942 71.4819Z" fill="#E6280F"/>
<path d="M29.4368 63.8487L43.8993 30.9415L17.5597 19.4278L3.09726 52.3095L29.4368 63.8487Z" fill="#E6280F"/>
<path d="M158.805 31.5031C157.193 31.5031 155.99 32.7285 155.99 34.2603C155.99 35.792 157.193 37.0174 158.805 37.0174H159.138L155.555 42.7615V42.9913H157.346L161.084 36.9919H161.314V42.9913H162.952V31.4776H158.805V31.5031ZM161.314 35.3836H158.805C158.114 35.3836 157.628 34.8985 157.628 34.2603C157.628 33.622 158.114 33.137 158.805 33.137H161.314V35.3836Z" fill="white"/>
<path d="M137.56 43.0168V31.5031H135.538L130.7 39.9278H130.469V31.5031H128.805V43.0168H130.828L135.666 34.5666H135.896V43.0168H137.56Z" fill="white"/>
<path d="M107.329 43.17C108.968 43.17 110.452 42.5063 111.527 41.4085L110.375 40.2597C109.608 41.0256 108.532 41.5362 107.329 41.5362C104.949 41.5362 103.029 39.6215 103.029 37.2472C103.029 34.8985 104.949 32.9839 107.329 32.9839C108.507 32.9839 109.582 33.4689 110.35 34.2348L111.527 33.0604C110.452 31.9882 108.968 31.3244 107.329 31.3244C104.053 31.3244 101.365 33.9795 101.365 37.2217C101.391 40.515 104.053 43.17 107.329 43.17Z" fill="white"/>
<path d="M80.2987 43.17C81.9369 43.17 83.4215 42.5063 84.4966 41.4085L83.3447 40.2597C82.5768 41.0256 81.5017 41.5362 80.2987 41.5362C77.9181 41.5362 75.9983 39.6215 75.9983 37.2472C75.9983 34.8985 77.9181 32.9839 80.2987 32.9839C81.4761 32.9839 82.5512 33.4689 83.3191 34.2348L84.4966 33.0604C83.4215 31.9882 81.9369 31.3244 80.2987 31.3244C77.0222 31.3244 74.3345 33.9795 74.3345 37.2217C74.3601 40.515 77.0222 43.17 80.2987 43.17Z" fill="white"/>
<path d="M51.7832 31.3499C48.5068 31.3499 45.8447 34.0049 45.8447 37.2727C45.8447 40.5404 48.5068 43.1955 51.7832 43.1955C55.0597 43.1955 57.7218 40.5404 57.7218 37.2727C57.7218 33.9794 55.0853 31.3499 51.7832 31.3499ZM51.7832 41.5361C49.4027 41.5361 47.4829 39.6214 47.4829 37.2472C47.4829 34.8729 49.4027 32.9582 51.7832 32.9582C54.1638 32.9582 56.0836 34.8729 56.0836 37.2472C56.0836 39.6214 54.1638 41.5361 51.7832 41.5361Z" fill="white"/>
<path d="M25.0597 31.4776H21.9368V42.9913H23.5751V38.2173H25.0597C27.0307 38.2173 28.5153 36.7111 28.5153 34.8474C28.5153 32.9838 27.0307 31.4776 25.0597 31.4776ZM25.0597 36.5834H23.5751V33.137H25.0597C26.1348 33.137 26.8771 33.9284 26.8771 34.873C26.8771 35.8176 26.1348 36.5834 25.0597 36.5834Z" fill="white"/>
</g>
<defs>
<clipPath id="clip0_1:43">
<rect width="180" height="82" fill="white"/>
</clipPath>
</defs>
</svg>
